<svg xmlns="http://www.w3.org/2000/svg" width="1280" height="1280" viewBox="0 0 1280 1280" version="1.1"><path d="M 615.500 123.072 C 561.224 125.532, 489.456 140.734, 452.128 157.679 C 450.274 158.521, 447.574 159.578, 446.128 160.028 C 441.450 161.486, 423.872 169.493, 408.500 177.169 C 395.063 183.879, 386.109 188.821, 369.172 198.877 C 358.552 205.182, 330.610 224.387, 327.110 227.787 C 326.345 228.530, 324.545 229.894, 323.110 230.819 C 321.674 231.743, 319.375 233.458, 318 234.629 C 316.625 235.800, 311.450 240.136, 306.500 244.265 C 284.295 262.786, 255.103 292.500, 237.500 314.499 C 235.300 317.248, 232.938 320.093, 232.250 320.820 C 231.562 321.548, 231 322.453, 231 322.832 C 231 323.210, 229.975 324.641, 228.723 326.010 C 224.271 330.878, 198 368.922, 198 370.501 C 198 370.799, 196.950 372.721, 195.667 374.771 C 175.827 406.482, 154.474 455.074, 143.495 493.500 C 142.552 496.800, 141.103 501.686, 140.274 504.359 C 136.914 515.192, 130.476 547.053, 127.544 567.358 C 117.803 634.810, 122.842 714.949, 140.724 777 C 142.071 781.675, 144.014 788.425, 145.041 792 C 146.068 795.575, 148.767 803.675, 151.039 810 C 153.310 816.325, 155.534 822.683, 155.980 824.128 C 156.426 825.574, 157.466 828.274, 158.293 830.128 C 159.119 831.983, 161.478 837.550, 163.534 842.500 C 177.087 875.118, 202.112 918.934, 223.504 947.500 C 225.152 949.700, 227.093 952.126, 227.819 952.890 C 228.544 953.655, 229.886 955.455, 230.800 956.890 C 242.748 975.652, 293.460 1026.948, 318.896 1046 C 320.732 1047.375, 323.644 1049.646, 325.367 1051.047 C 333.842 1057.935, 360.931 1076.390, 372.718 1083.306 C 375.348 1084.849, 380.200 1087.718, 383.500 1089.681 C 396.871 1097.636, 433.099 1115.073, 448.500 1120.967 C 449.600 1121.388, 451.625 1122.212, 453 1122.799 C 456.755 1124.401, 471.515 1129.617, 480 1132.340 C 509.785 1141.900, 530.592 1146.699, 567.512 1152.526 C 645.503 1164.835, 740.152 1154.878, 817.500 1126.227 C 842.373 1117.013, 883.270 1098.201, 892.154 1091.887 C 893.614 1090.849, 895.066 1090, 895.381 1090 C 896.417 1090, 916.299 1077.871, 927 1070.711 C 989.409 1028.954, 1048.865 966.552, 1083.936 906 C 1086.325 901.875, 1089.745 896.025, 1091.537 893 C 1096.292 884.971, 1114 849.280, 1114 847.726 C 1114 846.997, 1114.382 845.972, 1114.850 845.450 C 1115.317 844.927, 1118.061 838.425, 1120.947 831 C 1128.293 812.100, 1129.440 808.885, 1133.074 797 C 1134.839 791.225, 1136.633 785.600, 1137.059 784.500 C 1139.747 777.562, 1146.025 750.121, 1149.872 728.500 C 1162.435 657.883, 1159.541 583.790, 1141.397 511.500 C 1139.465 503.800, 1137.533 496.600, 1137.104 495.500 C 1136.676 494.400, 1133.917 486.075, 1130.973 477 C 1121.728 448.496, 1103.996 408.028, 1091.538 387 C 1089.746 383.975, 1086.325 378.125, 1083.936 374 C 1046.064 308.612, 975.639 237.350, 910.921 198.931 C 891.087 187.157, 865.003 173.359, 852 167.762 C 841.590 163.282, 835.711 160.833, 828.500 157.974 C 787.224 141.607, 739.354 129.972, 693 125.039 C 682.687 123.941, 642.982 121.914, 636.500 122.154 C 634.300 122.235, 624.850 122.648, 615.500 123.072 M 647.399 305.403 C 647.103 306.175, 647.792 308.632, 648.930 310.863 C 650.069 313.095, 651 315.318, 651 315.804 C 651 316.290, 641.438 316.966, 629.750 317.307 C 564.180 319.216, 497.498 342.497, 469.895 373.117 C 460.547 383.486, 452.608 387.670, 441.424 388.123 C 434.246 388.413, 433.586 389.967, 438.500 395 C 443.159 399.772, 442.781 400.933, 435.264 404.940 C 413.280 416.657, 390.716 443.886, 408.321 437.452 C 412.638 435.874, 412.154 439.042, 406.761 447.652 C 386.061 480.707, 379.064 534.660, 390.084 576.253 C 390.631 578.317, 391.505 584.859, 392.025 590.790 C 394.108 614.525, 399.175 634.178, 406.201 645.768 C 411.633 654.729, 411.559 654.870, 401.750 654.297 C 360.613 651.896, 359.388 718.790, 399.448 780 C 403.228 785.775, 408.556 794.325, 411.287 799 C 420.605 814.946, 426.518 819.366, 445.996 824.949 C 448.825 825.759, 449.844 829.438, 449.942 839.199 C 450.246 869.214, 455.666 881.906, 477.316 903.293 C 489.388 915.218, 489.402 915.224, 492.798 908.932 C 494.113 906.495, 497.346 900.675, 499.981 896 C 506.949 883.638, 506.921 884.061, 501.312 876.238 C 474.219 838.445, 465.626 813.041, 465.544 770.500 L 465.500 747.500 468.255 735.211 C 474.712 706.409, 477.101 703.406, 486.128 712.750 C 513.116 740.690, 531.020 797.344, 526.184 839.500 C 524.814 851.438, 525.656 851.694, 532.017 841.278 C 538.091 831.331, 552.733 808.597, 557.097 802.337 C 558.694 800.047, 560 797.938, 560 797.650 C 560 797.363, 563.150 792.732, 567 787.359 C 574.734 776.566, 574.797 776.358, 572.123 770.566 C 558.370 740.776, 552.507 699.778, 557.885 671 C 562.933 643.994, 570.718 623.701, 583.033 605.451 C 591.401 593.051, 592.057 593.400, 601.338 615.189 C 615.492 648.417, 617.530 699.174, 605.935 729.670 C 604.956 732.246, 606.771 734.153, 608.049 731.890 C 610.181 728.117, 621.636 713.594, 628.158 706.396 L 635.500 698.291 638.805 687.396 C 647.992 657.103, 656.430 639.281, 671.894 617.500 C 674.237 614.200, 677.132 610.045, 678.327 608.266 C 682.771 601.652, 705.177 580.602, 716.661 572.253 C 737.373 557.194, 768.524 542.935, 778.615 543.894 C 780.791 544.101, 778.232 569.424, 775.101 578.668 C 758.020 629.094, 722.443 667.655, 666.869 695.976 L 647.238 705.981 636.024 720.014 C 629.856 727.732, 624.284 734.599, 623.641 735.274 C 622.997 735.948, 620.906 738.525, 618.993 741 C 617.080 743.475, 615.174 745.650, 614.757 745.833 C 613.642 746.324, 613.835 749, 614.986 749 C 615.529 749, 619.497 747.050, 623.805 744.667 C 661.769 723.668, 713.254 716.208, 747.899 726.686 C 759.056 730.060, 759.140 730.935, 749.250 740.807 C 729.901 760.122, 710.686 771.893, 684.212 780.649 C 671.177 784.961, 666.710 785.857, 647 788.117 C 632.725 789.754, 593.671 787.387, 589.182 784.612 C 587.815 783.768, 586.522 785.273, 578.967 796.500 C 574.896 802.550, 571.296 807.725, 570.967 808 C 570.431 808.449, 563.930 818.280, 553.663 834.169 C 551.648 837.288, 550 840.061, 550 840.331 C 550 840.602, 547.075 845.437, 543.500 851.076 C 534.829 864.752, 535.089 865.811, 545.570 859.500 C 548.767 857.575, 551.733 856, 552.162 856 C 552.590 856, 555.317 854.935, 558.220 853.633 C 561.124 852.331, 565.750 850.483, 568.500 849.527 C 571.250 848.571, 574.400 847.431, 575.500 846.995 C 606.892 834.543, 657.478 834.781, 685.849 847.513 C 695.112 851.670, 694.936 852.471, 682.440 863 C 677.279 867.349, 657.567 879.640, 650.976 882.619 C 613.096 899.742, 573.243 903.570, 533.333 893.921 C 518.714 890.386, 520.117 889.848, 514.056 901.325 C 508.591 911.674, 508.058 912.588, 504.191 918.278 C 500.002 924.442, 504.122 928.753, 530.500 945.807 C 549.298 957.961, 554.636 961.916, 558.888 966.839 C 567.942 977.321, 576.894 982.843, 592.626 987.647 L 601.500 990.357 631.500 990.396 C 656.974 990.429, 662.481 990.172, 668 988.690 C 684.111 984.364, 695.476 977.851, 704.156 967.969 C 708.022 963.567, 714.755 958.346, 728.500 949.092 C 798.358 902.059, 812.286 884.304, 814.455 839.518 C 815.125 825.687, 814.921 826.015, 824.690 823.052 C 838.538 818.851, 845.732 812.455, 854.818 796.268 C 857.667 791.191, 862.518 783.316, 865.597 778.768 C 873.081 767.715, 881.916 750.324, 885.800 739 C 889.232 728.991, 889.885 726.588, 891.951 716.343 C 899.693 677.961, 887.870 652.821, 862.750 654.251 C 854.119 654.742, 852.340 654.105, 854.925 651.450 C 861.864 644.322, 872.025 610.434, 872 594.500 C 871.995 591.200, 872.907 583.550, 874.028 577.500 C 875.148 571.450, 876.485 564.137, 876.999 561.249 C 884.337 520.013, 876.701 477.238, 856.373 445.719 C 851.149 437.617, 850.971 436.536, 855 437.375 C 856.650 437.719, 859.350 438.281, 861 438.625 C 871.037 440.716, 852.896 420.263, 833.972 408.151 C 820.633 399.615, 821.257 400.665, 826.093 394.889 C 831.060 388.956, 830.902 388.709, 821.677 387.954 C 812.400 387.196, 805.344 383.957, 796.442 376.370 C 781.727 363.830, 773.481 358.992, 761 355.577 C 757.425 354.599, 753.466 353.394, 752.203 352.899 C 750.940 352.405, 748.780 352, 747.403 352 C 744.564 352, 741.550 350.575, 731.308 344.392 C 721.284 338.340, 706.372 331.503, 694 327.285 C 687.737 325.150, 668.804 315.869, 661 311.108 C 648.696 303.601, 648.174 303.382, 647.399 305.403" stroke="none" fill="#040404" fill-rule="evenodd"/><path d="M -0 640.001 L -0 1280.002 640.250 1279.751 L 1280.500 1279.500 1280.751 639.750 L 1281.002 0 640.501 0 L 0 0 -0 640.001 M 0.497 640.500 C 0.497 992.500, 0.611 1136.351, 0.750 960.168 C 0.889 783.985, 0.889 495.985, 0.750 320.168 C 0.611 144.351, 0.497 288.500, 0.497 640.500 M 615.500 123.072 C 561.224 125.532, 489.456 140.734, 452.128 157.679 C 450.274 158.521, 447.574 159.578, 446.128 160.028 C 441.450 161.486, 423.872 169.493, 408.500 177.169 C 395.063 183.879, 386.109 188.821, 369.172 198.877 C 358.552 205.182, 330.610 224.387, 327.110 227.787 C 326.345 228.530, 324.545 229.894, 323.110 230.819 C 321.674 231.743, 319.375 233.458, 318 234.629 C 316.625 235.800, 311.450 240.136, 306.500 244.265 C 284.295 262.786, 255.103 292.500, 237.500 314.499 C 235.300 317.248, 232.938 320.093, 232.250 320.820 C 231.562 321.548, 231 322.453, 231 322.832 C 231 323.210, 229.975 324.641, 228.723 326.010 C 224.271 330.878, 198 368.922, 198 370.501 C 198 370.799, 196.950 372.721, 195.667 374.771 C 175.827 406.482, 154.474 455.074, 143.495 493.500 C 142.552 496.800, 141.103 501.686, 140.274 504.359 C 136.914 515.192, 130.476 547.053, 127.544 567.358 C 117.803 634.810, 122.842 714.949, 140.724 777 C 142.071 781.675, 144.014 788.425, 145.041 792 C 146.068 795.575, 148.767 803.675, 151.039 810 C 153.310 816.325, 155.534 822.683, 155.980 824.128 C 156.426 825.574, 157.466 828.274, 158.293 830.128 C 159.119 831.983, 161.478 837.550, 163.534 842.500 C 177.087 875.118, 202.112 918.934, 223.504 947.500 C 225.152 949.700, 227.093 952.126, 227.819 952.890 C 228.544 953.655, 229.886 955.455, 230.800 956.890 C 242.748 975.652, 293.460 1026.948, 318.896 1046 C 320.732 1047.375, 323.644 1049.646, 325.367 1051.047 C 333.842 1057.935, 360.931 1076.390, 372.718 1083.306 C 375.348 1084.849, 380.200 1087.718, 383.500 1089.681 C 396.871 1097.636, 433.099 1115.073, 448.500 1120.967 C 449.600 1121.388, 451.625 1122.212, 453 1122.799 C 456.755 1124.401, 471.515 1129.617, 480 1132.340 C 509.785 1141.900, 530.592 1146.699, 567.512 1152.526 C 645.503 1164.835, 740.152 1154.878, 817.500 1126.227 C 842.373 1117.013, 883.270 1098.201, 892.154 1091.887 C 893.614 1090.849, 895.066 1090, 895.381 1090 C 896.417 1090, 916.299 1077.871, 927 1070.711 C 989.409 1028.954, 1048.865 966.552, 1083.936 906 C 1086.325 901.875, 1089.745 896.025, 1091.537 893 C 1096.292 884.971, 1114 849.280, 1114 847.726 C 1114 846.997, 1114.382 845.972, 1114.850 845.450 C 1115.317 844.927, 1118.061 838.425, 1120.947 831 C 1128.293 812.100, 1129.440 808.885, 1133.074 797 C 1134.839 791.225, 1136.633 785.600, 1137.059 784.500 C 1139.747 777.562, 1146.025 750.121, 1149.872 728.500 C 1162.435 657.883, 1159.541 583.790, 1141.397 511.500 C 1139.465 503.800, 1137.533 496.600, 1137.104 495.500 C 1136.676 494.400, 1133.917 486.075, 1130.973 477 C 1121.728 448.496, 1103.996 408.028, 1091.538 387 C 1089.746 383.975, 1086.325 378.125, 1083.936 374 C 1046.064 308.612, 975.639 237.350, 910.921 198.931 C 891.087 187.157, 865.003 173.359, 852 167.762 C 841.590 163.282, 835.711 160.833, 828.500 157.974 C 787.224 141.607, 739.354 129.972, 693 125.039 C 682.687 123.941, 642.982 121.914, 636.500 122.154 C 634.300 122.235, 624.850 122.648, 615.500 123.072 M 647.399 305.403 C 647.103 306.175, 647.792 308.632, 648.930 310.863 C 650.069 313.095, 651 315.318, 651 315.804 C 651 316.290, 641.438 316.966, 629.750 317.307 C 564.180 319.216, 497.498 342.497, 469.895 373.117 C 460.547 383.486, 452.608 387.670, 441.424 388.123 C 434.246 388.413, 433.586 389.967, 438.500 395 C 443.159 399.772, 442.781 400.933, 435.264 404.940 C 413.280 416.657, 390.716 443.886, 408.321 437.452 C 412.638 435.874, 412.154 439.042, 406.761 447.652 C 386.061 480.707, 379.064 534.660, 390.084 576.253 C 390.631 578.317, 391.505 584.859, 392.025 590.790 C 394.108 614.525, 399.175 634.178, 406.201 645.768 C 411.633 654.729, 411.559 654.870, 401.750 654.297 C 360.613 651.896, 359.388 718.790, 399.448 780 C 403.228 785.775, 408.556 794.325, 411.287 799 C 420.605 814.946, 426.518 819.366, 445.996 824.949 C 448.825 825.759, 449.844 829.438, 449.942 839.199 C 450.246 869.214, 455.666 881.906, 477.316 903.293 C 489.388 915.218, 489.402 915.224, 492.798 908.932 C 494.113 906.495, 497.346 900.675, 499.981 896 C 506.949 883.638, 506.921 884.061, 501.312 876.238 C 474.219 838.445, 465.626 813.041, 465.544 770.500 L 465.500 747.500 468.255 735.211 C 474.712 706.409, 477.101 703.406, 486.128 712.750 C 513.116 740.690, 531.020 797.344, 526.184 839.500 C 524.814 851.438, 525.656 851.694, 532.017 841.278 C 538.091 831.331, 552.733 808.597, 557.097 802.337 C 558.694 800.047, 560 797.938, 560 797.650 C 560 797.363, 563.150 792.732, 567 787.359 C 574.734 776.566, 574.797 776.358, 572.123 770.566 C 558.370 740.776, 552.507 699.778, 557.885 671 C 562.933 643.994, 570.718 623.701, 583.033 605.451 C 591.401 593.051, 592.057 593.400, 601.338 615.189 C 615.492 648.417, 617.530 699.174, 605.935 729.670 C 604.956 732.246, 606.771 734.153, 608.049 731.890 C 610.181 728.117, 621.636 713.594, 628.158 706.396 L 635.500 698.291 638.805 687.396 C 647.992 657.103, 656.430 639.281, 671.894 617.500 C 674.237 614.200, 677.132 610.045, 678.327 608.266 C 682.771 601.652, 705.177 580.602, 716.661 572.253 C 737.373 557.194, 768.524 542.935, 778.615 543.894 C 780.791 544.101, 778.232 569.424, 775.101 578.668 C 758.020 629.094, 722.443 667.655, 666.869 695.976 L 647.238 705.981 636.024 720.014 C 629.856 727.732, 624.284 734.599, 623.641 735.274 C 622.997 735.948, 620.906 738.525, 618.993 741 C 617.080 743.475, 615.174 745.650, 614.757 745.833 C 613.642 746.324, 613.835 749, 614.986 749 C 615.529 749, 619.497 747.050, 623.805 744.667 C 661.769 723.668, 713.254 716.208, 747.899 726.686 C 759.056 730.060, 759.140 730.935, 749.250 740.807 C 729.901 760.122, 710.686 771.893, 684.212 780.649 C 671.177 784.961, 666.710 785.857, 647 788.117 C 632.725 789.754, 593.671 787.387, 589.182 784.612 C 587.815 783.768, 586.522 785.273, 578.967 796.500 C 574.896 802.550, 571.296 807.725, 570.967 808 C 570.431 808.449, 563.930 818.280, 553.663 834.169 C 551.648 837.288, 550 840.061, 550 840.331 C 550 840.602, 547.075 845.437, 543.500 851.076 C 534.829 864.752, 535.089 865.811, 545.570 859.500 C 548.767 857.575, 551.733 856, 552.162 856 C 552.590 856, 555.317 854.935, 558.220 853.633 C 561.124 852.331, 565.750 850.483, 568.500 849.527 C 571.250 848.571, 574.400 847.431, 575.500 846.995 C 606.892 834.543, 657.478 834.781, 685.849 847.513 C 695.112 851.670, 694.936 852.471, 682.440 863 C 677.279 867.349, 657.567 879.640, 650.976 882.619 C 613.096 899.742, 573.243 903.570, 533.333 893.921 C 518.714 890.386, 520.117 889.848, 514.056 901.325 C 508.591 911.674, 508.058 912.588, 504.191 918.278 C 500.002 924.442, 504.122 928.753, 530.500 945.807 C 549.298 957.961, 554.636 961.916, 558.888 966.839 C 567.942 977.321, 576.894 982.843, 592.626 987.647 L 601.500 990.357 631.500 990.396 C 656.974 990.429, 662.481 990.172, 668 988.690 C 684.111 984.364, 695.476 977.851, 704.156 967.969 C 708.022 963.567, 714.755 958.346, 728.500 949.092 C 798.358 902.059, 812.286 884.304, 814.455 839.518 C 815.125 825.687, 814.921 826.015, 824.690 823.052 C 838.538 818.851, 845.732 812.455, 854.818 796.268 C 857.667 791.191, 862.518 783.316, 865.597 778.768 C 873.081 767.715, 881.916 750.324, 885.800 739 C 889.232 728.991, 889.885 726.588, 891.951 716.343 C 899.693 677.961, 887.870 652.821, 862.750 654.251 C 854.119 654.742, 852.340 654.105, 854.925 651.450 C 861.864 644.322, 872.025 610.434, 872 594.500 C 871.995 591.200, 872.907 583.550, 874.028 577.500 C 875.148 571.450, 876.485 564.137, 876.999 561.249 C 884.337 520.013, 876.701 477.238, 856.373 445.719 C 851.149 437.617, 850.971 436.536, 855 437.375 C 856.650 437.719, 859.350 438.281, 861 438.625 C 871.037 440.716, 852.896 420.263, 833.972 408.151 C 820.633 399.615, 821.257 400.665, 826.093 394.889 C 831.060 388.956, 830.902 388.709, 821.677 387.954 C 812.400 387.196, 805.344 383.957, 796.442 376.370 C 781.727 363.830, 773.481 358.992, 761 355.577 C 757.425 354.599, 753.466 353.394, 752.203 352.899 C 750.940 352.405, 748.780 352, 747.403 352 C 744.564 352, 741.550 350.575, 731.308 344.392 C 721.284 338.340, 706.372 331.503, 694 327.285 C 687.737 325.150, 668.804 315.869, 661 311.108 C 648.696 303.601, 648.174 303.382, 647.399 305.403" stroke="none" fill="#24b47f" fill-rule="evenodd"/></svg>