<svg id="svg" version="1.1" xmlns="http://www.w3.org/2000/svg" xmlns:xlink="http://www.w3.org/1999/xlink" width="400" height="400" viewBox="0, 0, 400,400"><g id="svgg"><path id="path0" d="M131.200 12.450 C 129.990 12.901,128.685 13.366,128.300 13.482 C 127.915 13.598,127.600 13.852,127.600 14.047 C 127.600 14.241,127.195 14.401,126.700 14.402 C 126.205 14.404,125.284 14.674,124.654 15.002 C 124.024 15.331,123.169 15.600,122.754 15.600 C 122.339 15.600,122.000 15.780,122.000 16.000 C 122.000 16.220,121.655 16.400,121.233 16.400 C 120.812 16.400,120.407 16.570,120.333 16.779 C 120.260 16.987,119.602 17.262,118.872 17.390 C 118.141 17.517,117.162 17.977,116.696 18.411 C 116.230 18.845,115.523 19.200,115.125 19.200 C 114.726 19.200,114.400 19.380,114.400 19.600 C 114.400 19.820,114.080 20.000,113.689 20.000 C 113.298 20.000,112.578 20.280,112.089 20.623 L 111.200 21.245 111.200 115.440 C 111.200 215.383,111.198 215.264,113.039 223.448 C 113.380 224.962,113.800 226.830,113.973 227.600 C 120.999 258.889,147.804 284.723,181.600 292.779 C 192.627 295.407,210.666 295.055,222.400 291.983 C 238.202 287.846,254.425 278.474,264.157 267.862 C 264.793 267.168,266.065 265.790,266.983 264.800 C 302.952 226.018,294.492 161.062,249.600 131.340 C 231.579 119.408,219.910 116.627,187.800 116.611 L 167.400 116.600 167.294 128.100 L 167.188 139.600 185.894 139.607 C 207.846 139.616,211.492 139.963,220.800 142.927 C 242.044 149.692,259.722 168.957,264.545 190.600 C 265.979 197.034,266.133 198.489,266.133 205.600 C 266.133 212.711,265.979 214.166,264.545 220.600 C 262.477 229.879,257.005 240.759,250.750 248.026 C 214.299 290.377,147.369 272.827,135.481 217.800 L 134.617 213.800 134.512 113.600 C 134.455 58.490,134.312 12.995,134.196 12.500 C 133.942 11.419,133.963 11.419,131.200 12.450 M74.945 44.200 C 74.818 44.530,74.545 44.800,74.339 44.800 C 74.133 44.800,73.536 45.205,73.012 45.700 C 72.489 46.195,71.389 47.140,70.568 47.800 C 69.747 48.460,67.905 50.125,66.474 51.500 C 65.044 52.875,63.767 54.002,63.637 54.004 C 63.194 54.011,54.000 63.441,54.000 63.888 C 54.000 64.133,53.775 64.416,53.500 64.517 C 53.100 64.663,53.100 64.806,53.500 65.230 C 53.896 65.650,54.000 81.274,54.001 140.580 C 54.002 220.630,53.974 219.405,56.000 231.000 C 57.378 238.886,60.844 251.805,62.761 256.200 C 62.953 256.640,63.785 258.710,64.610 260.800 C 68.619 270.962,80.772 292.110,84.378 295.200 C 84.506 295.310,86.006 297.131,87.711 299.246 C 93.269 306.142,106.154 318.427,112.400 322.785 C 113.170 323.322,113.890 323.882,114.000 324.028 C 114.206 324.303,119.995 328.193,123.200 330.211 C 128.748 333.703,135.663 337.290,142.600 340.272 C 144.360 341.029,146.160 341.803,146.600 341.992 C 147.551 342.401,152.042 344.011,155.400 345.146 C 156.720 345.593,159.240 346.340,161.000 346.806 C 162.760 347.273,165.100 347.892,166.200 348.183 C 168.043 348.671,171.671 349.400,177.200 350.395 C 189.368 352.585,213.577 352.406,225.600 350.038 C 226.590 349.843,228.480 349.473,229.800 349.216 C 272.558 340.882,311.317 311.173,331.318 271.400 C 333.349 267.360,335.600 262.499,335.600 262.150 C 335.600 262.024,335.888 261.264,336.241 260.460 C 337.341 257.954,337.745 256.876,340.018 250.400 C 340.713 248.420,343.144 239.349,343.609 237.000 C 344.773 231.118,345.092 229.179,346.041 222.200 C 348.805 201.873,345.004 172.089,337.209 153.000 C 337.030 152.560,336.484 151.210,335.996 150.000 C 322.912 117.519,297.345 90.206,264.842 73.989 C 262.209 72.675,259.951 71.600,259.823 71.600 C 259.696 71.600,258.828 71.248,257.896 70.819 C 249.952 67.159,237.335 63.346,226.744 61.405 C 216.371 59.504,211.154 59.201,188.700 59.201 L 167.200 59.200 167.200 70.553 L 167.200 81.906 188.100 82.123 C 213.012 82.383,217.062 82.744,230.000 85.861 C 270.993 95.736,306.716 129.414,318.187 169.000 C 318.569 170.320,319.035 171.850,319.221 172.400 C 319.524 173.292,320.087 175.636,321.191 180.600 C 325.012 197.786,324.106 224.608,319.226 238.800 C 319.037 239.350,318.569 240.880,318.187 242.200 C 312.175 262.947,296.343 286.645,279.427 300.217 C 278.342 301.088,276.902 302.256,276.227 302.813 C 269.243 308.577,257.416 315.512,247.809 319.476 C 185.041 345.377,114.846 316.953,87.097 254.400 C 83.571 246.450,80.628 236.697,78.829 227.000 C 77.000 217.136,77.061 220.248,76.912 129.300 C 76.773 43.961,76.769 43.600,75.974 43.600 C 75.534 43.600,75.071 43.870,74.945 44.200 M167.499 170.634 C 166.742 171.391,167.180 208.872,167.983 212.057 C 174.362 237.369,206.413 245.881,224.328 227.021 C 242.189 208.218,233.781 178.831,208.400 171.348 C 206.034 170.651,168.144 169.989,167.499 170.634 " stroke="none" fill="#f9fafb" fill-rule="evenodd"></path><path id="path1" d="M188.638 0.739 C 188.523 0.925,185.137 1.204,181.114 1.359 C 177.091 1.514,173.629 1.812,173.420 2.021 C 173.211 2.229,171.996 2.400,170.720 2.400 C 169.440 2.400,168.400 2.579,168.400 2.800 C 168.400 3.020,167.500 3.200,166.400 3.200 C 165.300 3.200,164.400 3.359,164.400 3.553 C 164.400 3.747,162.871 4.033,161.001 4.188 C 159.132 4.344,157.502 4.635,157.378 4.836 C 157.254 5.036,156.443 5.200,155.576 5.200 C 154.709 5.200,154.000 5.380,154.000 5.600 C 154.000 5.820,153.370 6.000,152.600 6.000 C 151.830 6.000,151.200 6.157,151.200 6.348 C 151.200 6.540,150.120 6.819,148.800 6.968 C 147.480 7.118,146.400 7.411,146.400 7.620 C 146.400 7.829,145.770 8.000,145.000 8.000 C 144.230 8.000,143.600 8.180,143.600 8.400 C 143.600 8.620,143.060 8.800,142.400 8.800 C 141.740 8.800,141.200 8.967,141.200 9.171 C 141.200 9.375,140.208 9.666,138.995 9.818 C 137.782 9.970,136.691 10.252,136.571 10.447 C 136.451 10.641,135.933 10.800,135.419 10.800 C 134.101 10.800,134.181 2.684,134.409 112.800 L 134.618 213.800 135.482 217.800 C 147.360 272.823,214.300 290.377,250.750 248.026 C 257.005 240.759,262.477 229.879,264.545 220.600 C 265.979 214.166,266.133 212.711,266.133 205.600 C 266.133 198.489,265.979 197.034,264.545 190.600 C 259.722 168.957,242.044 149.692,220.800 142.927 C 211.492 139.963,207.846 139.616,185.894 139.607 L 167.188 139.600 167.294 128.100 L 167.400 116.600 187.800 116.611 C 219.910 116.627,231.579 119.408,249.600 131.340 C 294.492 161.062,302.952 226.018,266.983 264.800 C 266.065 265.790,264.793 267.168,264.157 267.862 C 254.425 278.474,238.202 287.846,222.400 291.983 C 212.810 294.494,197.597 295.300,187.600 293.826 C 152.196 288.609,121.466 260.968,113.973 227.600 C 113.800 226.830,113.380 224.962,113.039 223.448 C 111.198 215.264,111.200 215.385,111.200 115.417 C 111.200 31.935,111.132 21.200,110.600 21.200 C 110.270 21.200,110.000 21.380,110.000 21.600 C 110.000 21.820,109.730 22.000,109.400 22.000 C 109.070 22.000,108.800 22.160,108.800 22.355 C 108.800 22.551,108.183 22.827,107.429 22.968 C 106.675 23.110,106.000 23.355,105.929 23.513 C 105.858 23.671,104.765 24.316,103.500 24.948 C 102.235 25.579,101.200 26.254,101.200 26.448 C 101.200 26.641,100.840 26.800,100.400 26.800 C 99.960 26.800,99.600 26.960,99.600 27.157 C 99.600 27.353,99.150 27.626,98.600 27.764 C 98.050 27.902,97.600 28.192,97.600 28.408 C 97.600 28.623,97.330 28.800,97.000 28.800 C 96.670 28.800,96.400 28.980,96.400 29.200 C 96.400 29.420,96.040 29.600,95.600 29.600 C 95.160 29.600,94.800 29.768,94.800 29.973 C 94.800 30.178,94.395 30.474,93.900 30.630 C 93.405 30.787,92.709 31.249,92.353 31.657 C 91.997 32.066,91.502 32.400,91.253 32.400 C 91.004 32.400,90.800 32.580,90.800 32.800 C 90.800 33.020,90.462 33.200,90.049 33.200 C 89.636 33.200,89.074 33.470,88.800 33.800 C 88.526 34.130,88.097 34.400,87.846 34.400 C 87.595 34.400,87.052 34.850,86.639 35.400 C 86.226 35.950,85.593 36.400,85.232 36.400 C 84.872 36.400,84.317 36.760,84.000 37.200 C 83.683 37.640,83.201 38.000,82.930 38.000 C 82.658 38.000,81.986 38.450,81.436 39.000 C 80.886 39.550,80.330 40.000,80.201 40.000 C 80.071 40.000,79.480 40.450,78.887 41.000 C 78.293 41.550,77.658 42.000,77.476 42.000 C 76.793 42.000,75.854 43.262,76.321 43.551 C 76.653 43.756,76.809 66.483,76.912 129.415 C 77.068 224.489,76.894 218.496,79.885 232.200 C 92.622 290.554,148.318 332.929,206.915 328.847 C 233.248 327.012,258.314 317.598,276.227 302.813 C 276.902 302.256,278.342 301.088,279.427 300.217 C 296.343 286.645,312.175 262.947,318.187 242.200 C 318.569 240.880,319.037 239.350,319.226 238.800 C 324.106 224.608,325.012 197.786,321.191 180.600 C 320.087 175.636,319.524 173.292,319.221 172.400 C 319.035 171.850,318.569 170.320,318.187 169.000 C 306.716 129.414,270.993 95.736,230.000 85.861 C 217.062 82.744,213.012 82.383,188.100 82.123 L 167.200 81.906 167.200 70.553 L 167.200 59.200 188.700 59.201 C 211.154 59.201,216.371 59.504,226.744 61.405 C 237.335 63.346,249.952 67.159,257.896 70.819 C 258.828 71.248,259.696 71.600,259.823 71.600 C 259.951 71.600,262.209 72.675,264.842 73.989 C 297.345 90.206,322.912 117.519,335.996 150.000 C 336.484 151.210,337.030 152.560,337.209 153.000 C 345.004 172.089,348.805 201.873,346.041 222.200 C 345.092 229.179,344.773 231.118,343.609 237.000 C 343.144 239.349,340.713 248.420,340.018 250.400 C 337.745 256.876,337.341 257.954,336.241 260.460 C 335.888 261.264,335.600 262.024,335.600 262.150 C 335.600 262.499,333.349 267.360,331.318 271.400 C 311.317 311.173,272.558 340.882,229.800 349.216 C 228.480 349.473,226.590 349.843,225.600 350.038 C 213.577 352.406,189.368 352.585,177.200 350.395 C 171.671 349.400,168.043 348.671,166.200 348.183 C 165.100 347.892,162.760 347.273,161.000 346.806 C 159.240 346.340,156.720 345.593,155.400 345.146 C 152.042 344.011,147.551 342.401,146.600 341.992 C 146.160 341.803,144.360 341.029,142.600 340.272 C 135.663 337.290,128.748 333.703,123.200 330.211 C 119.995 328.193,114.206 324.303,114.000 324.028 C 113.890 323.882,113.170 323.322,112.400 322.785 C 106.154 318.427,93.269 306.142,87.711 299.246 C 86.006 297.131,84.506 295.310,84.378 295.200 C 80.772 292.110,68.619 270.962,64.610 260.800 C 63.785 258.710,62.953 256.640,62.761 256.200 C 60.844 251.805,57.378 238.886,56.000 231.000 C 53.974 219.405,54.002 220.633,54.001 140.549 C 54.000 59.411,54.098 63.102,52.001 65.646 C 51.152 66.677,50.726 67.133,49.919 67.881 C 49.141 68.601,48.400 69.536,48.400 69.797 C 48.400 70.057,47.064 71.584,45.700 72.886 C 45.205 73.358,44.800 73.895,44.800 74.079 C 44.800 74.263,44.170 75.026,43.400 75.774 C 42.630 76.521,42.000 77.285,42.000 77.471 C 42.000 77.656,41.550 78.293,41.000 78.887 C 40.450 79.480,40.000 80.071,40.000 80.201 C 40.000 80.330,39.550 80.886,39.000 81.436 C 38.450 81.986,38.000 82.616,38.000 82.836 C 38.000 83.056,37.550 83.686,37.000 84.236 C 36.450 84.786,36.000 85.458,36.000 85.730 C 36.000 86.001,35.640 86.483,35.200 86.800 C 34.760 87.117,34.400 87.585,34.400 87.839 C 34.400 88.094,34.130 88.526,33.800 88.800 C 33.470 89.074,33.200 89.596,33.200 89.961 C 33.200 90.325,32.840 90.883,32.400 91.200 C 31.960 91.517,31.600 92.007,31.600 92.288 C 31.600 92.570,31.440 92.800,31.243 92.800 C 31.047 92.800,30.774 93.250,30.636 93.800 C 30.498 94.350,30.208 94.800,29.992 94.800 C 29.777 94.800,29.600 95.141,29.600 95.557 C 29.600 95.974,29.346 96.412,29.035 96.531 C 28.725 96.650,28.239 97.390,27.955 98.174 C 27.671 98.958,27.295 99.600,27.120 99.600 C 26.944 99.600,26.800 99.878,26.800 100.217 C 26.800 100.556,26.433 101.227,25.985 101.709 C 25.536 102.190,25.066 102.993,24.941 103.492 C 24.816 103.991,24.553 104.400,24.357 104.400 C 24.160 104.400,24.000 104.760,24.000 105.200 C 24.000 105.640,23.828 106.000,23.618 106.000 C 23.408 106.000,23.118 106.630,22.974 107.400 C 22.829 108.170,22.551 108.800,22.355 108.800 C 22.160 108.800,22.000 109.070,22.000 109.400 C 22.000 109.730,21.820 110.000,21.600 110.000 C 21.380 110.000,21.200 110.360,21.200 110.800 C 21.200 111.240,21.028 111.600,20.818 111.600 C 20.608 111.600,20.318 112.230,20.174 113.000 C 20.029 113.770,19.751 114.400,19.555 114.400 C 19.360 114.400,19.200 114.670,19.200 115.000 C 19.200 115.330,19.020 115.600,18.800 115.600 C 18.580 115.600,18.400 115.960,18.400 116.400 C 18.400 116.840,18.228 117.200,18.018 117.200 C 17.808 117.200,17.518 117.830,17.374 118.600 C 17.229 119.370,16.951 120.000,16.755 120.000 C 16.560 120.000,16.400 120.450,16.400 121.000 C 16.400 121.550,16.264 122.000,16.098 122.000 C 15.704 122.000,14.889 123.857,14.559 125.503 C 14.417 126.216,14.143 126.800,13.950 126.800 C 13.758 126.800,13.600 127.250,13.600 127.800 C 13.600 128.350,13.420 128.800,13.200 128.800 C 12.980 128.800,12.800 129.149,12.800 129.576 C 12.800 130.003,12.630 130.458,12.423 130.586 C 12.216 130.714,11.925 131.624,11.778 132.609 C 11.630 133.594,11.350 134.400,11.155 134.400 C 10.960 134.400,10.800 134.850,10.800 135.400 C 10.800 135.950,10.633 136.400,10.429 136.400 C 10.225 136.400,9.934 137.390,9.783 138.600 C 9.632 139.810,9.349 140.800,9.154 140.800 C 8.959 140.800,8.800 141.250,8.800 141.800 C 8.800 142.350,8.620 142.800,8.400 142.800 C 8.180 142.800,8.000 143.430,8.000 144.200 C 8.000 144.970,7.829 145.600,7.620 145.600 C 7.411 145.600,7.118 146.680,6.968 148.000 C 6.819 149.320,6.540 150.400,6.348 150.400 C 6.157 150.400,6.000 151.030,6.000 151.800 C 6.000 152.570,5.820 153.200,5.600 153.200 C 5.380 153.200,5.200 154.010,5.200 155.000 C 5.200 155.990,5.036 156.800,4.836 156.800 C 4.636 156.800,4.344 158.330,4.189 160.200 C 4.033 162.070,3.747 163.600,3.553 163.600 C 3.359 163.600,3.200 164.500,3.200 165.600 C 3.200 166.700,3.020 167.600,2.800 167.600 C 2.580 167.600,2.400 168.554,2.400 169.720 C 2.400 170.886,2.226 172.014,2.012 172.228 C 1.799 172.441,1.501 175.627,1.350 179.308 C 1.199 182.988,0.924 186.000,0.738 186.000 C 0.552 186.000,0.400 192.480,0.400 200.400 C 0.400 208.320,0.553 214.800,0.741 214.800 C 0.928 214.800,1.209 217.725,1.365 221.300 C 1.521 224.875,1.817 227.860,2.024 227.933 C 2.231 228.007,2.400 229.132,2.400 230.433 C 2.400 231.744,2.578 232.800,2.800 232.800 C 3.020 232.800,3.200 233.790,3.200 235.000 C 3.200 236.210,3.357 237.200,3.548 237.200 C 3.740 237.200,4.022 238.637,4.175 240.393 C 4.328 242.149,4.622 243.690,4.827 243.817 C 5.032 243.943,5.200 244.667,5.200 245.424 C 5.200 246.181,5.380 246.800,5.600 246.800 C 5.820 246.800,6.000 247.430,6.000 248.200 C 6.000 248.970,6.159 249.600,6.353 249.600 C 6.548 249.600,6.832 250.768,6.985 252.196 C 7.138 253.623,7.429 254.894,7.631 255.019 C 7.834 255.145,8.000 255.687,8.000 256.224 C 8.000 256.761,8.180 257.200,8.400 257.200 C 8.620 257.200,8.800 257.650,8.800 258.200 C 8.800 258.750,8.957 259.200,9.148 259.200 C 9.340 259.200,9.619 260.280,9.768 261.600 C 9.918 262.920,10.211 264.000,10.420 264.000 C 10.629 264.000,10.800 264.339,10.800 264.754 C 10.800 265.169,11.069 266.024,11.398 266.654 C 11.726 267.284,11.996 268.205,11.998 268.700 C 11.999 269.195,12.180 269.600,12.400 269.600 C 12.620 269.600,12.800 269.962,12.800 270.405 C 12.800 271.173,13.517 272.774,14.051 273.200 C 14.189 273.310,14.430 274.165,14.586 275.100 C 14.742 276.035,15.034 276.800,15.235 276.800 C 15.436 276.800,15.600 277.250,15.600 277.800 C 15.600 278.350,15.780 278.800,16.000 278.800 C 16.220 278.800,16.400 279.160,16.400 279.600 C 16.400 280.040,16.566 280.400,16.768 280.400 C 16.971 280.400,17.255 280.940,17.400 281.600 C 17.545 282.260,17.829 282.800,18.032 282.800 C 18.234 282.800,18.400 283.162,18.400 283.605 C 18.400 284.372,19.116 285.972,19.650 286.400 C 19.787 286.510,20.026 287.185,20.182 287.900 C 20.337 288.615,20.596 289.200,20.757 289.200 C 20.919 289.200,21.298 289.830,21.600 290.600 C 21.902 291.370,22.296 292.000,22.475 292.000 C 22.654 292.000,22.800 292.287,22.800 292.638 C 22.800 293.268,23.956 295.612,24.459 296.000 C 24.601 296.110,25.049 296.965,25.453 297.900 C 25.858 298.835,26.326 299.600,26.494 299.600 C 26.662 299.600,26.800 299.870,26.800 300.200 C 26.800 300.530,26.945 300.800,27.123 300.800 C 27.301 300.800,27.781 301.565,28.190 302.500 C 28.599 303.435,29.238 304.470,29.609 304.800 C 29.981 305.130,30.413 305.805,30.570 306.300 C 30.726 306.795,31.022 307.200,31.227 307.200 C 31.432 307.200,31.600 307.560,31.600 308.000 C 31.600 308.440,31.780 308.800,32.000 308.800 C 32.220 308.800,32.400 309.070,32.400 309.400 C 32.400 309.730,32.568 310.000,32.773 310.000 C 32.978 310.000,33.274 310.405,33.430 310.900 C 33.587 311.395,34.049 312.091,34.457 312.447 C 34.866 312.803,35.200 313.255,35.200 313.451 C 35.200 313.647,35.650 314.293,36.200 314.887 C 36.750 315.480,37.200 316.055,37.200 316.165 C 37.200 316.561,39.209 319.314,39.995 319.996 C 40.438 320.380,40.800 320.944,40.800 321.251 C 40.800 321.557,41.426 322.346,42.191 323.004 C 42.957 323.662,43.587 324.419,43.591 324.687 C 43.596 324.954,44.230 325.803,45.000 326.573 C 45.770 327.343,46.400 328.130,46.400 328.322 C 46.400 328.514,47.120 329.338,48.000 330.152 C 48.880 330.966,49.600 331.793,49.600 331.989 C 49.600 332.185,49.960 332.460,50.400 332.600 C 50.840 332.740,51.200 333.127,51.200 333.461 C 51.200 333.961,53.140 336.059,60.302 343.302 C 63.580 346.618,66.068 348.800,66.569 348.800 C 66.916 348.800,67.200 348.972,67.200 349.182 C 67.200 349.585,68.214 350.617,70.559 352.600 C 71.340 353.260,72.629 354.385,73.423 355.100 C 74.218 355.815,75.039 356.400,75.248 356.400 C 75.456 356.400,76.257 357.030,77.027 357.800 C 77.797 358.570,78.646 359.202,78.913 359.204 C 79.181 359.206,79.811 359.728,80.313 360.364 C 80.815 361.000,81.670 361.631,82.213 361.768 C 82.756 361.904,83.200 362.192,83.200 362.408 C 83.200 362.623,83.388 362.800,83.618 362.800 C 83.848 362.800,84.486 363.250,85.036 363.800 C 85.586 364.350,86.232 364.800,86.471 364.800 C 86.710 364.800,87.200 365.115,87.559 365.500 C 88.227 366.217,89.336 366.991,90.400 367.482 C 90.730 367.635,91.339 368.075,91.754 368.460 C 92.169 368.845,92.989 369.266,93.576 369.395 C 94.164 369.524,94.899 369.983,95.211 370.415 C 95.522 370.847,96.007 371.200,96.288 371.200 C 96.570 371.200,96.800 371.380,96.800 371.600 C 96.800 371.820,97.147 372.000,97.571 372.000 C 97.996 372.000,98.613 372.270,98.943 372.600 C 99.273 372.930,99.736 373.200,99.971 373.200 C 100.207 373.200,100.400 373.343,100.400 373.518 C 100.400 373.693,101.210 374.170,102.200 374.578 C 103.190 374.987,104.000 375.473,104.000 375.660 C 104.000 375.847,104.270 376.000,104.600 376.000 C 104.930 376.000,105.200 376.180,105.200 376.400 C 105.200 376.620,105.560 376.800,106.000 376.800 C 106.440 376.800,106.800 376.972,106.800 377.182 C 106.800 377.392,107.430 377.682,108.200 377.826 C 108.970 377.971,109.600 378.249,109.600 378.445 C 109.600 378.640,109.870 378.800,110.200 378.800 C 110.530 378.800,110.800 378.936,110.800 379.102 C 110.800 379.269,111.385 379.653,112.100 379.956 C 114.962 381.169,116.209 381.771,116.400 382.030 C 116.510 382.180,117.365 382.430,118.300 382.586 C 119.235 382.742,120.000 383.034,120.000 383.235 C 120.000 383.436,120.270 383.600,120.600 383.600 C 120.930 383.600,121.200 383.780,121.200 384.000 C 121.200 384.220,121.650 384.400,122.200 384.400 C 122.750 384.400,123.200 384.560,123.200 384.755 C 123.200 384.951,123.830 385.229,124.600 385.374 C 125.370 385.518,126.000 385.808,126.000 386.018 C 126.000 386.228,126.439 386.400,126.976 386.400 C 127.513 386.400,128.064 386.580,128.200 386.800 C 128.336 387.020,128.887 387.200,129.424 387.200 C 129.961 387.200,130.400 387.378,130.400 387.595 C 130.400 387.813,131.124 388.106,132.009 388.248 C 132.894 388.389,133.714 388.661,133.832 388.853 C 133.951 389.044,134.487 389.200,135.024 389.200 C 135.561 389.200,136.000 389.380,136.000 389.600 C 136.000 389.820,136.450 390.000,137.000 390.000 C 137.550 390.000,138.000 390.171,138.000 390.380 C 138.000 390.589,139.080 390.882,140.400 391.032 C 141.720 391.181,142.800 391.460,142.800 391.652 C 142.800 391.843,143.250 392.000,143.800 392.000 C 144.350 392.000,144.800 392.180,144.800 392.400 C 144.800 392.620,145.430 392.800,146.200 392.800 C 146.970 392.800,147.600 392.962,147.600 393.159 C 147.600 393.357,148.860 393.645,150.400 393.800 C 151.940 393.955,153.200 394.243,153.200 394.441 C 153.200 394.638,153.830 394.800,154.600 394.800 C 155.370 394.800,156.000 394.959,156.000 395.153 C 156.000 395.347,157.530 395.633,159.400 395.789 C 161.270 395.944,162.800 396.236,162.800 396.436 C 162.800 396.636,163.610 396.800,164.600 396.800 C 165.590 396.800,166.400 396.980,166.400 397.200 C 166.400 397.422,167.467 397.600,168.800 397.600 C 170.120 397.600,171.200 397.761,171.200 397.958 C 171.200 398.156,173.855 398.433,177.100 398.575 C 180.345 398.717,183.313 399.006,183.695 399.217 C 184.563 399.696,215.600 399.737,215.600 399.259 C 215.600 399.072,218.525 398.791,222.100 398.635 C 225.675 398.479,228.660 398.183,228.733 397.976 C 228.807 397.769,229.752 397.600,230.833 397.600 C 231.915 397.600,232.800 397.420,232.800 397.200 C 232.800 396.980,233.790 396.800,235.000 396.800 C 236.210 396.800,237.200 396.641,237.200 396.447 C 237.200 396.253,238.730 395.967,240.600 395.811 C 242.470 395.656,244.000 395.364,244.000 395.164 C 244.000 394.964,244.630 394.800,245.400 394.800 C 246.170 394.800,246.800 394.638,246.800 394.441 C 246.800 394.243,248.060 393.955,249.600 393.800 C 251.140 393.645,252.400 393.357,252.400 393.159 C 252.400 392.962,252.929 392.800,253.576 392.800 C 254.223 392.800,254.864 392.620,255.000 392.400 C 255.136 392.180,255.687 392.000,256.224 392.000 C 256.761 392.000,257.200 391.833,257.200 391.629 C 257.200 391.425,258.192 391.134,259.405 390.982 C 260.618 390.830,261.709 390.548,261.829 390.353 C 261.949 390.159,262.487 390.000,263.024 390.000 C 263.561 390.000,264.000 389.820,264.000 389.600 C 264.000 389.380,264.540 389.200,265.200 389.200 C 265.860 389.200,266.400 389.022,266.400 388.805 C 266.400 388.587,267.120 388.294,268.000 388.154 C 268.880 388.013,269.600 387.741,269.600 387.549 C 269.600 387.357,270.140 387.200,270.800 387.200 C 271.460 387.200,272.000 387.020,272.000 386.800 C 272.000 386.580,272.270 386.400,272.600 386.400 C 272.930 386.400,273.200 386.240,273.200 386.045 C 273.200 385.850,274.010 385.569,275.000 385.421 C 275.990 385.272,276.800 384.982,276.800 384.775 C 276.800 384.569,277.250 384.400,277.800 384.400 C 278.350 384.400,278.800 384.220,278.800 384.000 C 278.800 383.780,279.160 383.600,279.600 383.600 C 280.040 383.600,280.400 383.434,280.400 383.232 C 280.400 383.029,280.940 382.745,281.600 382.600 C 282.260 382.455,282.800 382.171,282.800 381.968 C 282.800 381.766,283.162 381.600,283.605 381.600 C 284.048 381.600,284.723 381.429,285.105 381.219 C 285.487 381.010,286.520 380.524,287.400 380.140 C 288.280 379.756,289.090 379.340,289.200 379.217 C 289.529 378.847,293.779 376.800,294.217 376.800 C 294.441 376.800,294.882 376.441,295.199 376.002 C 295.515 375.563,296.365 375.093,297.087 374.957 C 297.809 374.822,298.400 374.551,298.400 374.355 C 298.400 374.160,298.670 374.000,299.000 374.000 C 299.330 374.000,299.600 373.820,299.600 373.600 C 299.600 373.380,299.848 373.200,300.151 373.200 C 300.454 373.200,300.926 372.930,301.200 372.600 C 301.474 372.270,302.036 372.000,302.449 372.000 C 302.862 372.000,303.200 371.820,303.200 371.600 C 303.200 371.380,303.404 371.200,303.653 371.200 C 303.902 371.200,304.397 370.866,304.753 370.457 C 305.109 370.049,305.805 369.587,306.300 369.430 C 306.795 369.274,307.200 368.978,307.200 368.773 C 307.200 368.568,307.541 368.400,307.957 368.400 C 308.374 368.400,308.818 368.130,308.945 367.800 C 309.071 367.470,309.501 367.200,309.899 367.200 C 310.297 367.200,310.883 366.840,311.200 366.400 C 311.517 365.960,312.007 365.600,312.288 365.600 C 312.570 365.600,312.800 365.432,312.800 365.227 C 312.800 365.022,313.205 364.726,313.700 364.570 C 314.195 364.413,314.891 363.951,315.247 363.543 C 315.603 363.134,316.021 362.800,316.175 362.800 C 316.330 362.800,316.708 362.575,317.015 362.300 C 318.216 361.223,318.776 360.800,319.001 360.800 C 319.131 360.800,319.686 360.350,320.236 359.800 C 320.786 359.250,321.426 358.800,321.658 358.800 C 321.889 358.800,322.583 358.260,323.200 357.600 C 323.817 356.940,324.511 356.400,324.744 356.400 C 324.977 356.400,325.902 355.680,326.800 354.800 C 327.698 353.920,328.560 353.199,328.716 353.198 C 329.153 353.194,332.800 349.647,332.800 349.226 C 332.800 349.021,333.205 348.728,333.700 348.575 C 334.861 348.214,348.209 334.879,348.568 333.720 C 348.718 333.237,349.152 332.742,349.531 332.622 C 349.911 332.501,350.487 332.014,350.811 331.539 C 351.135 331.064,351.805 330.311,352.300 329.866 C 352.795 329.420,353.200 328.905,353.200 328.721 C 353.200 328.537,353.830 327.774,354.600 327.026 C 355.370 326.279,356.000 325.478,356.000 325.247 C 356.000 325.016,356.630 324.197,357.400 323.427 C 358.170 322.657,358.800 321.849,358.800 321.632 C 358.800 321.414,359.250 320.786,359.800 320.236 C 360.350 319.686,360.800 319.125,360.800 318.990 C 360.800 318.854,361.025 318.492,361.300 318.185 C 362.487 316.862,362.800 316.409,362.800 316.017 C 362.800 315.788,362.952 315.600,363.137 315.600 C 363.322 315.600,363.813 314.970,364.228 314.200 C 364.643 313.430,365.121 312.800,365.291 312.800 C 365.461 312.800,365.600 312.530,365.600 312.200 C 365.600 311.870,365.759 311.600,365.954 311.600 C 366.149 311.600,366.608 310.970,366.973 310.200 C 367.339 309.430,367.809 308.800,368.019 308.800 C 368.228 308.800,368.400 308.440,368.400 308.000 C 368.400 307.560,368.577 307.200,368.792 307.200 C 369.008 307.200,369.298 306.750,369.436 306.200 C 369.574 305.650,369.847 305.200,370.043 305.200 C 370.240 305.200,370.400 305.012,370.400 304.783 C 370.400 304.554,370.745 303.996,371.167 303.544 C 371.588 303.091,372.050 302.254,372.193 301.684 C 372.336 301.114,372.766 300.367,373.147 300.024 C 373.873 299.371,375.200 296.796,375.200 296.040 C 375.200 295.798,375.380 295.600,375.600 295.600 C 375.820 295.600,376.000 295.240,376.000 294.800 C 376.000 294.360,376.180 294.000,376.400 294.000 C 376.620 294.000,376.800 293.807,376.800 293.571 C 376.800 293.336,377.070 292.873,377.400 292.543 C 377.730 292.213,378.000 291.596,378.000 291.171 C 378.000 290.747,378.180 290.400,378.400 290.400 C 378.620 290.400,378.800 290.130,378.800 289.800 C 378.800 289.470,378.961 289.200,379.157 289.200 C 379.353 289.200,379.837 288.120,380.232 286.800 C 380.628 285.480,381.097 284.400,381.276 284.400 C 381.454 284.400,381.600 284.040,381.600 283.600 C 381.600 283.160,381.766 282.800,381.968 282.800 C 382.171 282.800,382.455 282.262,382.599 281.605 C 382.743 280.947,383.028 280.306,383.231 280.181 C 383.434 280.055,383.600 279.513,383.600 278.976 C 383.600 278.439,383.780 278.000,384.000 278.000 C 384.220 278.000,384.400 277.730,384.400 277.400 C 384.400 277.070,384.560 276.800,384.755 276.800 C 384.950 276.800,385.231 275.990,385.379 275.000 C 385.528 274.010,385.818 273.200,386.025 273.200 C 386.231 273.200,386.400 272.750,386.400 272.200 C 386.400 271.650,386.580 271.200,386.800 271.200 C 387.020 271.200,387.200 270.840,387.200 270.400 C 387.200 269.960,387.363 269.600,387.562 269.600 C 387.762 269.600,388.049 268.700,388.200 267.600 C 388.351 266.500,388.638 265.600,388.838 265.600 C 389.037 265.600,389.200 265.150,389.200 264.600 C 389.200 264.050,389.380 263.600,389.600 263.600 C 389.820 263.600,390.000 263.161,390.000 262.624 C 390.000 262.087,390.172 261.541,390.382 261.411 C 390.591 261.282,390.885 260.101,391.033 258.788 C 391.182 257.475,391.460 256.400,391.652 256.400 C 391.843 256.400,392.000 255.950,392.000 255.400 C 392.000 254.850,392.180 254.400,392.400 254.400 C 392.620 254.400,392.800 253.770,392.800 253.000 C 392.800 252.230,392.962 251.600,393.159 251.600 C 393.357 251.600,393.645 250.340,393.800 248.800 C 393.955 247.260,394.243 246.000,394.441 246.000 C 394.638 246.000,394.800 245.471,394.800 244.824 C 394.800 244.177,394.964 243.546,395.164 243.422 C 395.365 243.298,395.656 241.668,395.812 239.799 C 395.967 237.929,396.253 236.400,396.447 236.400 C 396.641 236.400,396.800 235.500,396.800 234.400 C 396.800 233.300,396.980 232.400,397.200 232.400 C 397.421 232.400,397.600 231.360,397.600 230.080 C 397.600 228.804,397.778 227.582,397.996 227.364 C 398.213 227.147,398.512 223.781,398.659 219.884 C 398.806 215.988,399.077 212.800,399.263 212.800 C 399.448 212.800,399.600 207.040,399.600 200.000 C 399.600 192.960,399.447 187.200,399.260 187.200 C 399.073 187.200,398.793 184.005,398.638 180.100 C 398.482 176.195,398.185 172.940,397.978 172.867 C 397.770 172.793,397.600 171.758,397.600 170.567 C 397.600 169.375,397.420 168.400,397.200 168.400 C 396.980 168.400,396.800 167.500,396.800 166.400 C 396.800 165.300,396.647 164.400,396.459 164.400 C 396.271 164.400,395.997 162.825,395.850 160.900 C 395.702 158.975,395.406 157.340,395.191 157.267 C 394.976 157.193,394.800 156.428,394.800 155.567 C 394.800 154.705,394.641 154.000,394.447 154.000 C 394.252 154.000,393.968 152.832,393.815 151.404 C 393.662 149.977,393.371 148.706,393.169 148.581 C 392.966 148.455,392.800 147.733,392.800 146.976 C 392.800 146.219,392.620 145.600,392.400 145.600 C 392.180 145.600,392.000 145.150,392.000 144.600 C 392.000 144.050,391.841 143.600,391.646 143.600 C 391.451 143.600,391.169 142.613,391.018 141.406 C 390.867 140.200,390.577 139.109,390.372 138.983 C 390.167 138.856,390.000 138.324,390.000 137.800 C 390.000 137.276,389.820 136.736,389.600 136.600 C 389.380 136.464,389.200 135.928,389.200 135.410 C 389.200 134.891,389.008 134.403,388.774 134.325 C 388.540 134.247,388.246 133.422,388.122 132.491 C 387.997 131.561,387.738 130.800,387.547 130.800 C 387.356 130.800,387.200 130.350,387.200 129.800 C 387.200 129.250,387.020 128.800,386.800 128.800 C 386.580 128.800,386.400 128.350,386.400 127.800 C 386.400 127.250,386.243 126.800,386.050 126.800 C 385.858 126.800,385.583 126.216,385.441 125.503 C 385.111 123.857,384.296 122.000,383.902 122.000 C 383.736 122.000,383.600 121.640,383.600 121.200 C 383.600 120.760,383.443 120.400,383.251 120.400 C 383.059 120.400,382.787 119.680,382.646 118.800 C 382.506 117.920,382.213 117.200,381.995 117.200 C 381.778 117.200,381.600 116.840,381.600 116.400 C 381.600 115.960,381.420 115.600,381.200 115.600 C 380.980 115.600,380.800 115.421,380.800 115.203 C 380.800 114.520,379.427 111.600,379.106 111.600 C 378.938 111.600,378.800 111.240,378.800 110.800 C 378.800 110.360,378.620 110.000,378.400 110.000 C 378.180 110.000,378.000 109.802,378.000 109.560 C 378.000 109.038,376.752 106.286,376.385 106.000 C 376.244 105.890,375.795 105.035,375.387 104.100 C 374.980 103.165,374.501 102.400,374.323 102.400 C 374.145 102.400,374.000 102.130,374.000 101.800 C 374.000 101.470,373.820 101.200,373.600 101.200 C 373.380 101.200,373.200 100.840,373.200 100.400 C 373.200 99.960,373.040 99.600,372.843 99.600 C 372.647 99.600,372.374 99.150,372.236 98.600 C 372.098 98.050,371.808 97.600,371.592 97.600 C 371.377 97.600,371.200 97.330,371.200 97.000 C 371.200 96.670,371.020 96.400,370.800 96.400 C 370.580 96.400,370.400 96.040,370.400 95.600 C 370.400 95.160,370.232 94.800,370.027 94.800 C 369.822 94.800,369.526 94.395,369.370 93.900 C 369.213 93.405,368.777 92.730,368.400 92.400 C 368.023 92.070,367.587 91.395,367.430 90.900 C 367.274 90.405,366.978 90.000,366.773 90.000 C 366.568 90.000,366.400 89.732,366.400 89.403 C 366.400 89.075,366.040 88.582,365.600 88.307 C 365.160 88.032,364.800 87.485,364.800 87.091 C 364.800 86.697,364.530 86.271,364.200 86.145 C 363.870 86.018,363.600 85.613,363.600 85.246 C 363.600 84.878,363.240 84.317,362.800 84.000 C 362.360 83.683,362.000 83.201,362.000 82.930 C 362.000 82.658,361.550 81.986,361.000 81.436 C 360.450 80.886,360.000 80.330,360.000 80.201 C 360.000 80.071,359.550 79.480,359.000 78.887 C 358.450 78.293,358.000 77.656,358.000 77.471 C 358.000 77.285,357.370 76.521,356.600 75.774 C 355.830 75.026,355.200 74.263,355.200 74.079 C 355.200 73.894,354.224 72.727,353.032 71.486 C 351.839 70.245,350.750 68.872,350.611 68.435 C 350.473 67.998,350.008 67.530,349.580 67.394 C 349.151 67.257,348.800 66.986,348.800 66.791 C 348.800 66.596,348.330 65.998,347.755 65.463 C 345.655 63.505,344.000 61.715,344.000 61.401 C 344.000 60.861,339.618 56.800,339.035 56.800 C 338.686 56.800,338.400 56.628,338.400 56.418 C 338.400 56.208,337.930 55.598,337.355 55.063 C 336.781 54.527,336.106 53.883,335.855 53.632 C 335.605 53.380,334.990 52.775,334.489 52.287 C 333.988 51.799,333.103 50.905,332.523 50.300 C 331.943 49.695,331.321 49.200,331.141 49.200 C 330.961 49.200,329.969 48.390,328.935 47.400 C 327.902 46.410,326.897 45.600,326.702 45.600 C 326.506 45.600,325.752 44.970,325.026 44.200 C 324.300 43.430,323.510 42.800,323.272 42.800 C 323.034 42.800,322.227 42.170,321.479 41.400 C 320.731 40.630,319.912 40.000,319.660 40.000 C 319.407 40.000,319.200 39.859,319.200 39.686 C 319.200 39.514,318.615 39.031,317.900 38.615 C 317.185 38.198,316.330 37.555,316.000 37.186 C 315.670 36.816,314.995 36.387,314.500 36.230 C 314.005 36.074,313.600 35.778,313.600 35.573 C 313.600 35.368,313.259 35.200,312.843 35.200 C 312.426 35.200,311.979 34.921,311.848 34.581 C 311.717 34.241,311.068 33.773,310.405 33.542 C 309.742 33.311,309.200 32.959,309.200 32.761 C 309.200 32.562,308.970 32.400,308.688 32.400 C 308.407 32.400,307.917 32.040,307.600 31.600 C 307.283 31.160,306.806 30.800,306.540 30.800 C 306.275 30.800,305.819 30.575,305.529 30.300 C 305.238 30.025,304.460 29.530,303.800 29.200 C 303.140 28.870,302.362 28.375,302.071 28.100 C 301.781 27.825,301.286 27.600,300.971 27.600 C 300.657 27.600,300.400 27.420,300.400 27.200 C 300.400 26.980,300.040 26.800,299.600 26.800 C 299.160 26.800,298.800 26.620,298.800 26.400 C 298.800 26.180,298.530 26.000,298.200 26.000 C 297.870 26.000,297.600 25.847,297.600 25.660 C 297.600 25.473,296.790 24.987,295.800 24.578 C 294.810 24.170,294.000 23.701,294.000 23.536 C 294.000 23.371,293.370 23.118,292.600 22.974 C 291.830 22.829,291.200 22.551,291.200 22.355 C 291.200 22.160,290.930 22.000,290.600 22.000 C 290.270 22.000,290.000 21.820,290.000 21.600 C 290.000 21.380,289.640 21.200,289.200 21.200 C 288.760 21.200,288.400 21.028,288.400 20.818 C 288.400 20.608,287.770 20.318,287.000 20.174 C 286.230 20.029,285.600 19.751,285.600 19.555 C 285.600 19.360,285.330 19.200,285.000 19.200 C 284.670 19.200,284.400 19.020,284.400 18.800 C 284.400 18.580,284.040 18.400,283.600 18.400 C 283.160 18.400,282.800 18.243,282.800 18.051 C 282.800 17.859,282.080 17.587,281.200 17.446 C 280.320 17.306,279.600 17.013,279.600 16.795 C 279.600 16.578,279.240 16.400,278.800 16.400 C 278.360 16.400,278.000 16.220,278.000 16.000 C 278.000 15.780,277.565 15.600,277.033 15.600 C 276.502 15.600,276.003 15.408,275.925 15.174 C 275.847 14.940,275.022 14.646,274.091 14.522 C 273.161 14.397,272.400 14.182,272.400 14.045 C 272.400 13.908,271.815 13.560,271.100 13.271 C 270.385 12.983,269.481 12.575,269.091 12.365 C 268.701 12.154,267.576 11.872,266.591 11.737 C 265.606 11.602,264.800 11.336,264.800 11.146 C 264.800 10.956,264.350 10.800,263.800 10.800 C 263.250 10.800,262.800 10.637,262.800 10.438 C 262.800 10.238,261.900 9.951,260.800 9.800 C 259.700 9.649,258.800 9.362,258.800 9.162 C 258.800 8.963,258.260 8.800,257.600 8.800 C 256.940 8.800,256.400 8.620,256.400 8.400 C 256.400 8.180,255.871 8.000,255.224 8.000 C 254.577 8.000,253.941 7.828,253.811 7.618 C 253.682 7.409,252.501 7.115,251.188 6.967 C 249.875 6.818,248.800 6.540,248.800 6.348 C 248.800 6.157,248.080 6.000,247.200 6.000 C 246.320 6.000,245.600 5.820,245.600 5.600 C 245.600 5.380,244.981 5.200,244.224 5.200 C 243.467 5.200,242.746 5.036,242.622 4.836 C 242.498 4.635,240.868 4.344,238.999 4.188 C 237.129 4.033,235.600 3.747,235.600 3.553 C 235.600 3.359,234.700 3.200,233.600 3.200 C 232.500 3.200,231.600 3.020,231.600 2.800 C 231.600 2.579,230.560 2.400,229.280 2.400 C 228.004 2.400,226.789 2.229,226.580 2.021 C 226.371 1.812,222.915 1.515,218.900 1.360 C 214.885 1.205,211.600 0.926,211.600 0.739 C 211.600 0.296,188.912 0.296,188.638 0.739 M208.400 171.348 C 244.214 181.906,241.085 232.001,204.300 236.993 C 187.954 239.212,172.080 228.313,167.983 212.057 C 167.180 208.872,166.742 171.391,167.499 170.634 C 168.144 169.989,206.034 170.651,208.400 171.348 " stroke="none" fill="#046dde" fill-rule="evenodd"></path></g></svg>