<svg id="svg" version="1.1" xmlns="http://www.w3.org/2000/svg" xmlns:xlink="http://www.w3.org/1999/xlink" width="400" height="400" viewBox="0, 0, 400,400"><g id="svgg"><path id="path0" d="M161.604 113.264 L 123.348 151.528 137.422 165.641 L 151.496 179.753 175.748 155.502 L 200.000 131.251 224.237 155.487 L 248.474 179.723 259.169 168.959 C 265.051 163.038,271.362 156.662,273.194 154.790 L 276.523 151.385 238.331 113.192 C 217.326 92.187,200.077 75.000,200.000 75.000 C 199.923 75.000,182.645 92.219,161.604 113.264 M185.972 185.834 L 171.807 200.001 185.903 214.097 L 200.000 228.194 214.167 214.027 L 228.334 199.860 214.235 185.763 L 200.137 171.667 185.972 185.834 M88.889 185.973 L 74.862 200.001 88.959 214.097 L 103.056 228.194 117.152 214.097 L 131.249 200.001 117.223 185.973 C 109.508 178.257,103.133 171.944,103.056 171.944 C 102.978 171.944,96.603 178.257,88.889 185.973 M282.777 185.973 L 268.751 200.001 282.848 214.097 L 296.944 228.194 311.041 214.097 L 325.138 200.001 311.111 185.973 C 303.397 178.257,297.022 171.944,296.944 171.944 C 296.867 171.944,290.492 178.257,282.777 185.973 M137.411 234.395 L 123.296 248.512 161.628 286.637 C 182.711 307.605,200.025 324.784,200.103 324.811 C 200.180 324.839,217.397 307.632,238.363 286.575 L 276.482 248.289 262.478 234.283 L 248.474 220.277 224.237 244.513 L 200.000 268.749 175.763 244.513 L 151.526 220.277 137.411 234.395 " stroke="none" fill="#fcfcfc" fill-rule="evenodd"></path><path id="path1" d="M185.556 12.632 C 133.544 16.891,87.912 40.756,54.290 81.280 C 33.672 106.131,19.629 137.719,14.294 171.250 C 13.555 175.896,13.463 176.577,13.214 179.306 C 13.131 180.222,12.998 181.535,12.919 182.222 C 12.203 188.456,11.962 204.615,12.473 212.088 C 12.619 214.224,12.737 216.160,12.735 216.389 C 12.733 216.618,12.928 218.431,13.168 220.417 C 14.239 229.256,15.631 237.134,17.414 244.444 C 17.954 246.660,18.427 248.660,18.465 248.889 C 18.503 249.118,18.608 249.493,18.698 249.722 C 18.789 249.951,19.239 251.451,19.698 253.056 C 23.914 267.770,30.873 283.555,39.109 297.083 C 40.411 299.222,41.477 301.128,41.479 301.319 C 41.480 301.510,41.544 301.605,41.620 301.529 C 41.779 301.369,45.278 306.522,45.278 306.915 C 45.278 307.059,45.376 307.218,45.495 307.269 C 45.686 307.350,48.013 310.488,49.167 312.220 C 49.396 312.564,49.712 312.987,49.870 313.159 C 50.028 313.331,51.392 315.035,52.902 316.944 C 64.302 331.364,79.913 345.819,94.583 355.542 C 96.264 356.655,97.795 357.763,97.986 358.003 C 98.177 358.243,98.333 358.359,98.333 358.261 C 98.333 358.163,99.365 358.725,100.625 359.510 C 124.731 374.520,156.473 385.323,181.528 387.044 C 192.461 387.795,194.042 387.838,203.611 387.655 C 214.520 387.445,215.506 387.401,219.290 386.947 C 220.656 386.783,221.933 386.710,222.128 386.784 C 222.323 386.859,222.561 386.793,222.657 386.638 C 222.752 386.483,223.100 386.383,223.429 386.416 C 223.758 386.450,224.465 386.397,225.000 386.300 C 225.535 386.203,228.347 385.738,231.250 385.268 C 305.706 373.201,366.978 315.227,383.315 241.389 C 407.238 133.263,334.531 28.698,225.035 13.758 C 214.743 12.353,195.616 11.808,185.556 12.632 M276.462 151.380 C 276.498 151.517,270.222 158.018,262.514 165.828 L 248.501 180.027 224.250 155.778 L 200.000 131.529 175.753 155.775 L 151.506 180.020 137.281 165.774 L 123.057 151.528 161.549 113.056 L 200.042 74.583 238.219 112.858 C 259.216 133.909,276.426 151.244,276.462 151.380 M117.361 185.834 L 131.526 200.001 117.291 214.236 L 103.056 228.472 88.837 214.253 L 74.619 200.035 88.768 185.862 C 96.550 178.066,102.980 171.683,103.057 171.678 C 103.134 171.672,109.571 178.042,117.361 185.834 M214.310 185.698 C 222.023 193.415,228.333 199.822,228.333 199.935 C 228.333 200.048,221.974 206.499,214.202 214.270 L 200.070 228.400 185.833 214.167 L 171.596 199.934 185.728 185.800 C 193.500 178.027,199.955 171.667,200.073 171.667 C 200.191 171.667,206.598 177.981,214.310 185.698 M311.250 185.834 L 325.415 200.001 311.180 214.236 L 296.944 228.472 282.709 214.236 L 268.474 200.001 282.639 185.834 C 290.429 178.042,296.867 171.667,296.944 171.667 C 297.022 171.667,303.460 178.042,311.250 185.834 M175.742 244.236 C 188.945 257.413,199.835 268.226,199.943 268.264 C 200.051 268.302,210.952 257.521,224.167 244.306 C 237.381 231.090,248.290 220.278,248.408 220.278 C 248.669 220.278,276.750 248.343,276.619 248.473 C 276.569 248.524,259.361 265.770,238.379 286.798 C 217.398 307.826,200.122 324.993,199.990 324.946 C 199.857 324.899,182.504 307.662,161.427 286.642 L 123.105 248.422 137.177 234.350 C 144.917 226.610,151.359 220.278,151.493 220.278 C 151.628 220.278,162.540 231.059,175.742 244.236 " stroke="none" fill="#f4bc0c" fill-rule="evenodd"></path><path id="path2" d="M224.722 99.583 C 236.562 111.424,246.311 121.111,246.388 121.111 C 246.464 121.111,236.840 111.424,225.000 99.583 C 213.160 87.743,203.411 78.056,203.335 78.056 C 203.258 78.056,212.883 87.743,224.722 99.583 M167.083 107.569 L 145.694 129.028 167.153 107.640 C 178.955 95.876,188.611 86.220,188.611 86.181 C 188.611 85.987,186.965 87.621,167.083 107.569 M210.278 141.806 C 216.005 147.535,220.754 152.222,220.831 152.222 C 220.907 152.222,216.283 147.535,210.556 141.806 C 204.828 136.076,200.079 131.389,200.003 131.389 C 199.926 131.389,204.550 136.076,210.278 141.806 M124.861 153.333 C 125.922 154.403,126.853 155.278,126.930 155.278 C 127.006 155.278,126.200 154.403,125.139 153.333 C 124.078 152.264,123.147 151.389,123.070 151.389 C 122.994 151.389,123.800 152.264,124.861 153.333 M161.665 169.586 C 154.767 176.487,151.395 179.677,151.111 179.569 C 150.773 179.441,150.761 179.479,151.048 179.768 C 151.336 180.058,153.346 178.181,161.742 169.784 C 167.429 164.097,172.019 159.444,171.943 159.444 C 171.866 159.444,167.241 164.008,161.665 169.586 M253.611 174.583 C 250.635 177.563,248.262 180.000,248.339 180.000 C 248.415 180.000,250.913 177.563,253.889 174.583 C 256.865 171.604,259.238 169.167,259.161 169.167 C 259.085 169.167,256.587 171.604,253.611 174.583 M185.706 185.822 C 177.921 193.608,171.609 200.014,171.679 200.058 C 171.748 200.103,178.179 193.733,185.969 185.903 C 193.759 178.073,200.071 171.667,199.996 171.667 C 199.921 171.667,193.490 178.037,185.706 185.822 M310.972 185.764 L 325.137 200.000 310.972 214.236 L 296.806 228.472 311.111 214.236 L 325.416 200.000 311.111 185.764 L 296.806 171.528 310.972 185.764 M74.841 199.755 C 74.727 199.939,80.456 205.844,88.921 214.269 L 103.194 228.472 89.061 214.268 C 80.704 205.870,75.006 199.938,75.119 199.754 C 75.224 199.584,75.248 199.444,75.172 199.444 C 75.095 199.444,74.946 199.584,74.841 199.755 M163.472 232.222 C 166.066 234.819,168.251 236.944,168.327 236.944 C 168.404 236.944,166.344 234.819,163.750 232.222 C 161.156 229.625,158.971 227.500,158.895 227.500 C 158.819 227.500,160.878 229.625,163.472 232.222 " stroke="none" fill="#f4cc54" fill-rule="evenodd"></path><path id="path3" d="M201.528 76.389 C 202.435 77.306,203.240 78.056,203.316 78.056 C 203.392 78.056,202.713 77.306,201.806 76.389 C 200.898 75.472,200.094 74.722,200.017 74.722 C 199.941 74.722,200.621 75.472,201.528 76.389 M134.444 140.139 C 128.258 146.326,123.260 151.389,123.336 151.389 C 123.412 151.389,128.536 146.326,134.722 140.139 C 140.908 133.951,145.907 128.889,145.831 128.889 C 145.754 128.889,140.631 133.951,134.444 140.139 M185.832 145.486 L 171.806 159.583 185.903 145.557 C 193.656 137.842,200.000 131.498,200.000 131.459 C 200.000 131.264,198.870 132.383,185.832 145.486 M273.194 154.722 C 271.366 156.556,269.932 158.056,270.009 158.056 C 270.085 158.056,271.644 156.556,273.472 154.722 C 275.301 152.889,276.734 151.389,276.658 151.389 C 276.582 151.389,275.023 152.889,273.194 154.722 M234.444 165.972 C 242.006 173.535,248.255 179.722,248.331 179.722 C 248.408 179.722,242.284 173.535,234.722 165.972 C 227.161 158.410,220.912 152.222,220.835 152.222 C 220.759 152.222,226.883 158.410,234.444 165.972 M138.194 166.667 C 144.457 172.931,149.643 178.056,149.720 178.056 C 149.796 178.056,144.735 172.931,138.472 166.667 C 132.210 160.403,127.023 155.278,126.947 155.278 C 126.871 155.278,131.932 160.403,138.194 166.667 M117.083 185.764 L 131.248 200.000 117.083 214.236 L 102.917 228.472 117.222 214.236 L 131.527 200.000 117.222 185.764 L 102.917 171.528 117.083 185.764 M282.639 185.834 L 268.474 200.001 282.778 214.236 L 297.083 228.472 282.917 214.236 L 268.752 200.000 282.917 185.833 C 290.707 178.042,297.019 171.667,296.942 171.667 C 296.866 171.667,290.429 178.042,282.639 185.834 M214.027 214.236 L 199.861 228.472 214.097 214.307 C 221.927 206.515,228.333 200.109,228.333 200.070 C 228.333 199.875,227.194 201.003,214.027 214.236 M137.221 234.375 L 123.194 248.472 137.292 234.445 C 150.395 221.407,151.514 220.278,151.318 220.278 C 151.280 220.278,144.936 226.622,137.221 234.375 M224.097 244.374 L 200.001 268.471 184.098 252.639 L 168.194 236.806 184.097 252.778 L 200.000 268.749 224.236 244.514 C 237.566 231.184,248.409 220.278,248.333 220.278 C 248.257 220.278,237.351 231.121,224.097 244.374 M248.888 276.042 L 221.250 303.750 248.958 276.112 C 274.718 250.417,276.791 248.333,276.597 248.333 C 276.558 248.333,264.089 260.802,248.888 276.042 M181.806 306.944 C 191.735 316.875,199.922 325.000,199.998 325.000 C 200.075 325.000,192.013 316.875,182.083 306.944 C 172.154 297.014,163.967 288.889,163.890 288.889 C 163.814 288.889,171.876 297.014,181.806 306.944 " stroke="none" fill="#fcecbc" fill-rule="evenodd"></path><path id="path4" d="" stroke="none" fill="#f8e028" fill-rule="evenodd"></path></g></svg>