<svg id="svg" version="1.1" xmlns="http://www.w3.org/2000/svg" xmlns:xlink="http://www.w3.org/1999/xlink" width="400" height="400" viewBox="0, 0, 400,400"><g id="svgg"><path id="path0" d="M142.400 84.600 C 142.007 85.074,141.975 90.860,142.251 112.300 L 142.600 139.400 156.081 139.600 C 164.580 139.726,169.714 139.953,169.975 140.215 C 170.239 140.479,170.427 145.464,170.495 154.015 L 170.600 167.400 198.000 167.400 L 225.400 167.400 225.506 154.225 C 225.598 142.709,225.693 140.960,226.263 140.331 C 226.861 139.669,227.991 139.602,240.157 139.505 L 253.400 139.400 253.752 112.303 C 254.031 90.778,254.001 85.083,253.603 84.603 C 252.844 83.689,143.159 83.686,142.400 84.600 M83.295 140.446 L 81.989 140.826 82.095 198.793 C 82.180 245.695,82.299 256.859,82.720 257.280 C 83.126 257.687,86.300 257.800,97.320 257.800 L 111.400 257.800 111.400 199.000 L 111.400 140.200 98.000 140.133 C 90.511 140.096,84.024 140.234,83.295 140.446 M284.880 140.480 C 284.371 140.989,284.138 256.051,284.643 257.367 C 285.065 258.467,312.092 258.308,313.200 257.200 C 313.993 256.407,314.000 255.867,314.000 198.619 L 314.000 140.838 312.500 140.421 C 310.275 139.803,285.504 139.856,284.880 140.480 M142.617 170.894 C 142.222 172.123,142.154 311.194,142.548 311.588 C 143.202 312.242,252.980 312.154,253.496 311.500 C 253.753 311.173,253.805 286.652,253.645 240.800 L 253.400 170.600 241.000 170.600 L 228.600 170.600 228.495 184.965 C 228.423 194.754,228.248 199.501,227.946 199.865 C 227.313 200.628,168.617 200.662,168.124 199.900 C 167.946 199.625,167.710 192.920,167.600 185.000 L 167.400 170.600 155.090 170.494 C 145.444 170.411,142.744 170.498,142.617 170.894 " stroke="none" fill="#fcdc54" fill-rule="evenodd"></path><path id="path1" d="M142.480 58.480 C 142.128 58.832,142.000 62.187,142.000 71.080 L 142.000 83.200 198.000 83.200 L 254.000 83.200 254.000 70.843 C 254.000 59.944,253.925 58.457,253.367 58.243 C 252.051 57.738,142.989 57.971,142.480 58.480 M113.271 84.667 C 113.342 85.034,113.650 85.417,113.956 85.519 C 114.326 85.642,114.405 85.532,114.194 85.190 C 113.986 84.853,114.035 84.775,114.338 84.962 C 115.119 85.444,114.887 86.800,114.024 86.800 C 113.597 86.800,113.119 86.592,112.962 86.338 C 112.775 86.035,112.853 85.986,113.190 86.194 C 113.532 86.405,113.642 86.326,113.519 85.956 C 113.417 85.650,113.034 85.342,112.667 85.271 C 112.055 85.152,112.000 86.250,112.000 98.571 L 112.000 112.000 98.571 112.000 C 86.250 112.000,85.152 112.055,85.271 112.667 C 85.342 113.034,85.650 113.417,85.956 113.519 C 86.326 113.642,86.405 113.532,86.194 113.190 C 85.986 112.853,86.035 112.775,86.338 112.962 C 87.119 113.444,86.887 114.800,86.024 114.800 C 85.597 114.800,85.119 114.592,84.962 114.338 C 84.775 114.035,84.853 113.986,85.190 114.194 C 85.532 114.405,85.642 114.326,85.519 113.956 C 85.417 113.650,85.034 113.342,84.667 113.271 C 84.055 113.152,84.000 114.223,84.000 126.171 L 84.000 139.200 98.000 139.200 L 112.000 139.200 112.000 125.600 L 112.000 112.000 126.600 112.000 L 141.200 112.000 141.200 99.400 L 141.200 86.800 140.200 86.800 C 139.400 86.800,139.200 86.600,139.200 85.800 C 139.200 85.000,139.400 84.800,140.200 84.800 C 140.750 84.800,141.200 84.620,141.200 84.400 C 141.200 84.141,136.257 84.000,127.171 84.000 C 114.290 84.000,113.152 84.055,113.271 84.667 M255.200 98.000 L 255.200 112.000 269.600 112.000 L 284.000 112.000 284.000 125.600 L 284.000 139.200 298.000 139.200 L 312.000 139.200 312.000 126.200 C 312.000 115.355,311.908 113.200,311.443 113.200 C 311.136 113.200,310.783 112.932,310.657 112.605 C 310.463 112.099,308.483 111.995,297.315 111.905 L 284.200 111.800 284.095 98.698 C 284.000 87.015,283.915 85.510,283.306 84.798 C 282.647 84.029,282.117 84.000,268.911 84.000 L 255.200 84.000 255.200 98.000 M281.863 84.980 C 281.707 85.388,281.833 85.486,282.290 85.310 C 282.781 85.122,282.875 85.229,282.674 85.751 C 282.516 86.162,282.569 86.343,282.805 86.197 C 283.022 86.063,283.200 86.143,283.200 86.376 C 283.200 86.609,282.750 86.800,282.200 86.800 C 281.220 86.800,280.737 85.396,281.467 84.667 C 281.913 84.221,282.098 84.367,281.863 84.980 M309.847 113.021 C 309.698 113.411,309.773 113.541,310.049 113.370 C 310.534 113.070,311.265 113.972,310.950 114.481 C 310.842 114.656,310.403 114.800,309.976 114.800 C 309.207 114.800,308.845 113.288,309.467 112.667 C 309.922 112.211,310.096 112.372,309.847 113.021 M57.271 140.667 C 57.342 141.034,57.650 141.417,57.956 141.519 C 58.326 141.642,58.405 141.532,58.194 141.190 C 57.986 140.853,58.035 140.775,58.338 140.962 C 58.592 141.119,58.800 141.597,58.800 142.024 C 58.800 142.887,57.444 143.119,56.962 142.338 C 56.775 142.035,56.853 141.986,57.190 142.194 C 57.532 142.405,57.642 142.326,57.519 141.956 C 57.417 141.650,57.035 141.342,56.670 141.271 C 56.054 141.152,55.997 145.250,55.892 197.671 C 55.829 228.762,55.637 254.785,55.465 255.500 C 55.130 256.892,55.559 257.213,56.400 256.200 C 56.741 255.789,56.757 255.600,56.451 255.600 C 55.957 255.600,56.054 254.198,56.582 253.710 C 56.767 253.540,56.818 253.805,56.697 254.300 C 56.510 255.059,56.641 255.204,57.537 255.225 C 58.536 255.249,58.548 255.272,57.741 255.597 C 56.467 256.111,56.002 257.023,57.237 256.584 C 57.767 256.396,63.375 256.179,69.700 256.103 L 81.200 255.965 81.200 197.983 L 81.200 140.000 69.171 140.000 C 58.157 140.000,57.152 140.056,57.271 140.667 M314.800 145.600 L 314.800 151.200 315.800 151.200 L 316.800 151.200 316.800 201.000 L 316.800 250.800 315.800 250.800 C 314.836 250.800,314.800 250.893,314.800 253.400 L 314.800 256.000 326.800 256.000 C 337.200 256.000,338.800 255.920,338.800 255.400 C 338.800 255.070,339.070 254.800,339.400 254.800 C 339.931 254.800,340.000 248.222,340.000 198.000 C 340.000 147.778,339.931 141.200,339.400 141.200 C 339.070 141.200,338.800 140.930,338.800 140.600 C 338.800 140.080,337.200 140.000,326.800 140.000 L 314.800 140.000 314.800 145.600 M337.847 141.021 C 337.698 141.411,337.773 141.541,338.049 141.370 C 338.534 141.070,339.265 141.972,338.950 142.481 C 338.842 142.656,338.403 142.800,337.976 142.800 C 337.207 142.800,336.845 141.288,337.467 140.667 C 337.922 140.211,338.096 140.372,337.847 141.021 M339.400 253.600 C 339.627 253.967,339.080 254.178,338.270 254.037 C 338.089 254.006,338.032 254.128,338.144 254.309 C 338.256 254.490,338.189 254.895,337.995 255.208 C 337.545 255.937,336.987 254.731,337.345 253.800 C 337.604 253.125,339.021 252.987,339.400 253.600 M84.000 265.337 C 84.000 268.933,84.116 274.028,84.257 276.660 L 84.515 281.445 85.657 281.277 C 86.511 281.152,86.800 281.272,86.800 281.755 C 86.800 282.110,86.620 282.400,86.400 282.400 C 86.180 282.400,86.000 282.220,86.000 282.000 C 86.000 281.780,85.809 281.600,85.576 281.600 C 85.343 281.600,85.263 281.778,85.397 281.995 C 85.537 282.222,85.377 282.289,85.021 282.153 C 84.208 281.841,84.231 282.288,85.071 283.129 C 85.666 283.725,87.218 283.814,98.871 283.925 L 112.000 284.050 112.000 297.425 C 112.000 309.047,112.079 310.800,112.600 310.800 C 112.930 310.800,113.200 311.070,113.200 311.400 C 113.200 311.922,115.022 312.000,127.200 312.000 L 141.200 312.000 141.200 298.000 L 141.200 284.000 126.600 284.000 L 112.000 284.000 112.000 271.400 L 112.000 258.800 98.000 258.800 L 84.000 258.800 84.000 265.337 M284.000 271.400 L 284.000 284.000 269.600 284.000 L 255.200 284.000 255.200 291.600 L 255.200 299.200 257.200 299.200 L 259.200 299.200 259.200 302.000 L 259.200 304.800 257.200 304.800 L 255.200 304.800 255.200 308.405 L 255.200 312.010 269.100 311.905 C 281.802 311.809,282.996 311.742,282.950 311.132 C 282.919 310.718,283.109 310.544,283.450 310.674 C 283.910 310.851,284.000 308.688,284.000 297.443 L 284.000 284.000 297.400 284.000 C 309.044 284.000,310.800 283.921,310.800 283.400 C 310.800 283.070,310.980 282.800,311.200 282.800 C 311.420 282.800,311.600 282.631,311.600 282.425 C 311.600 282.219,311.252 282.076,310.828 282.108 C 310.403 282.140,310.121 282.272,310.201 282.402 C 310.282 282.532,310.189 282.895,309.995 283.208 C 309.701 283.683,309.599 283.664,309.379 283.089 C 308.892 281.819,309.496 281.079,310.806 281.341 L 312.000 281.580 312.000 270.190 L 312.000 258.800 298.000 258.800 L 284.000 258.800 284.000 271.400 M114.800 309.976 C 114.800 310.403,114.656 310.842,114.481 310.950 C 113.972 311.265,113.070 310.534,113.370 310.049 C 113.546 309.763,113.401 309.702,112.955 309.873 C 112.489 310.051,112.362 309.985,112.558 309.668 C 113.059 308.857,114.800 309.097,114.800 309.976 M283.400 309.600 C 283.627 309.967,283.080 310.178,282.270 310.037 C 282.089 310.006,282.032 310.128,282.144 310.309 C 282.256 310.490,282.189 310.895,281.995 311.208 C 281.545 311.937,280.987 310.731,281.345 309.800 C 281.604 309.125,283.021 308.987,283.400 309.600 M142.000 324.951 C 142.000 334.694,142.108 337.191,142.543 337.552 C 142.941 337.883,157.863 337.976,198.443 337.901 L 253.800 337.800 253.906 325.300 L 254.011 312.800 198.006 312.800 L 142.000 312.800 142.000 324.951 M176.800 315.000 L 176.800 316.800 175.000 316.800 L 173.200 316.800 173.200 315.000 L 173.200 313.200 175.000 313.200 L 176.800 313.200 176.800 315.000 " stroke="none" fill="#9494fc" fill-rule="evenodd"></path><path id="path2" d="M141.316 84.000 C 141.181 84.518,140.770 84.800,140.153 84.800 C 139.403 84.800,139.200 85.013,139.200 85.800 C 139.200 86.581,139.404 86.800,140.135 86.800 L 141.069 86.800 141.334 106.300 C 141.480 117.025,141.599 128.989,141.600 132.886 C 141.600 139.482,141.653 140.000,142.374 140.386 C 142.862 140.647,148.021 140.800,156.374 140.800 L 169.600 140.800 169.600 154.386 C 169.600 167.409,169.632 167.989,170.374 168.386 C 172.062 169.289,225.078 168.922,226.000 168.000 C 226.768 167.232,226.800 166.667,226.800 154.000 L 226.800 140.800 240.000 140.800 C 252.270 140.800,253.252 140.748,253.934 140.066 C 255.014 138.986,255.771 84.731,254.720 83.680 C 253.741 82.701,141.573 83.018,141.316 84.000 M253.603 84.603 C 254.001 85.083,254.031 90.778,253.752 112.303 L 253.400 139.400 240.157 139.505 C 227.991 139.602,226.861 139.669,226.263 140.331 C 225.693 140.960,225.598 142.709,225.506 154.225 L 225.400 167.400 198.000 167.400 L 170.600 167.400 170.495 154.015 C 170.427 145.464,170.239 140.479,169.975 140.215 C 169.714 139.953,164.580 139.726,156.081 139.600 L 142.600 139.400 142.251 112.300 C 141.975 90.860,142.007 85.074,142.400 84.600 C 143.159 83.686,252.844 83.689,253.603 84.603 M281.467 84.667 C 280.737 85.396,281.220 86.800,282.200 86.800 C 282.750 86.800,283.200 86.609,283.200 86.376 C 283.200 86.143,283.022 86.063,282.805 86.197 C 282.569 86.343,282.516 86.162,282.674 85.751 C 282.875 85.229,282.781 85.122,282.290 85.310 C 281.833 85.486,281.707 85.388,281.863 84.980 C 282.098 84.367,281.913 84.221,281.467 84.667 M114.204 85.206 C 114.439 85.587,114.350 85.667,113.886 85.488 C 113.411 85.306,113.306 85.411,113.488 85.886 C 113.667 86.350,113.587 86.439,113.206 86.204 C 112.854 85.986,112.772 86.031,112.962 86.338 C 113.119 86.592,113.597 86.800,114.024 86.800 C 114.887 86.800,115.119 85.444,114.338 84.962 C 114.031 84.772,113.986 84.854,114.204 85.206 M309.467 112.667 C 308.845 113.288,309.207 114.800,309.976 114.800 C 310.403 114.800,310.842 114.656,310.950 114.481 C 311.265 113.972,310.534 113.070,310.049 113.370 C 309.773 113.541,309.698 113.411,309.847 113.021 C 310.096 112.372,309.922 112.211,309.467 112.667 M86.204 113.206 C 86.439 113.587,86.350 113.667,85.886 113.488 C 85.411 113.306,85.306 113.411,85.488 113.886 C 85.667 114.350,85.587 114.439,85.206 114.204 C 84.854 113.986,84.772 114.031,84.962 114.338 C 85.444 115.119,86.800 114.887,86.800 114.024 C 86.800 113.597,86.592 113.119,86.338 112.962 C 86.031 112.772,85.986 112.854,86.204 113.206 M82.400 139.558 L 81.400 139.836 81.400 198.750 C 81.400 256.607,81.414 257.675,82.176 258.232 C 82.814 258.698,85.586 258.800,97.630 258.800 L 112.307 258.800 112.548 257.900 C 112.863 256.724,112.863 141.276,112.548 140.100 L 112.307 139.200 97.853 139.240 C 89.904 139.262,82.950 139.405,82.400 139.558 M283.867 139.467 C 283.720 139.613,283.600 166.523,283.600 199.267 L 283.600 258.800 298.400 258.800 C 316.002 258.800,314.800 259.152,314.800 254.000 C 314.800 250.853,314.817 250.800,315.800 250.800 L 316.800 250.800 316.800 201.000 L 316.800 151.200 315.800 151.200 L 314.800 151.200 314.800 145.452 L 314.800 139.705 313.300 139.457 C 311.271 139.121,284.203 139.131,283.867 139.467 M111.400 199.000 L 111.400 257.800 97.320 257.800 C 86.300 257.800,83.126 257.687,82.720 257.280 C 82.299 256.859,82.180 245.695,82.095 198.793 L 81.989 140.826 83.295 140.446 C 84.024 140.234,90.511 140.096,98.000 140.133 L 111.400 140.200 111.400 199.000 M312.500 140.421 L 314.000 140.838 314.000 198.619 C 314.000 255.867,313.993 256.407,313.200 257.200 C 312.092 258.308,285.065 258.467,284.643 257.367 C 284.138 256.051,284.371 140.989,284.880 140.480 C 285.504 139.856,310.275 139.803,312.500 140.421 M337.467 140.667 C 336.845 141.288,337.207 142.800,337.976 142.800 C 338.403 142.800,338.842 142.656,338.950 142.481 C 339.265 141.972,338.534 141.070,338.049 141.370 C 337.773 141.541,337.698 141.411,337.847 141.021 C 338.096 140.372,337.922 140.211,337.467 140.667 M58.204 141.206 C 58.439 141.587,58.350 141.667,57.886 141.488 C 57.411 141.306,57.306 141.411,57.488 141.886 C 57.667 142.350,57.587 142.439,57.206 142.204 C 56.854 141.986,56.772 142.031,56.962 142.338 C 57.444 143.119,58.800 142.887,58.800 142.024 C 58.800 141.597,58.592 141.119,58.338 140.962 C 58.031 140.772,57.986 140.854,58.204 141.206 M142.097 170.100 C 141.834 170.428,141.645 194.977,141.548 241.600 L 141.400 312.600 198.200 312.600 L 255.000 312.600 255.114 308.700 L 255.229 304.800 257.214 304.800 L 259.200 304.800 259.200 302.000 L 259.200 299.200 257.264 299.200 L 255.329 299.200 255.064 287.735 C 254.919 281.429,254.800 252.617,254.800 223.709 C 254.800 188.242,254.665 170.896,254.386 170.374 C 253.851 169.373,228.874 169.147,228.054 170.135 C 227.752 170.499,227.577 175.246,227.505 185.035 L 227.400 199.400 198.100 199.503 L 168.800 199.605 168.800 185.376 C 168.800 176.333,168.649 170.865,168.386 170.374 C 167.867 169.404,142.864 169.143,142.097 170.100 M167.600 185.000 C 167.710 192.920,167.946 199.625,168.124 199.900 C 168.617 200.662,227.313 200.628,227.946 199.865 C 228.248 199.501,228.423 194.754,228.495 184.965 L 228.600 170.600 241.000 170.600 L 253.400 170.600 253.645 240.800 C 253.805 286.652,253.753 311.173,253.496 311.500 C 252.980 312.154,143.202 312.242,142.548 311.588 C 142.154 311.194,142.222 172.123,142.617 170.894 C 142.744 170.498,145.444 170.411,155.090 170.494 L 167.400 170.600 167.600 185.000 M337.345 253.800 C 336.987 254.731,337.545 255.937,337.995 255.208 C 338.189 254.895,338.256 254.490,338.144 254.309 C 338.032 254.128,338.089 254.006,338.270 254.037 C 339.080 254.178,339.627 253.967,339.400 253.600 C 339.021 252.987,337.604 253.125,337.345 253.800 M56.370 253.700 C 56.064 254.732,56.101 255.600,56.451 255.600 C 56.744 255.600,56.711 255.842,56.356 256.300 C 55.848 256.956,55.864 256.959,56.607 256.352 C 57.043 255.996,57.670 255.605,58.000 255.484 C 58.349 255.356,58.155 255.250,57.537 255.232 C 56.678 255.206,56.515 255.047,56.684 254.400 C 56.840 253.805,56.539 253.133,56.370 253.700 M84.626 281.558 C 84.504 281.755,84.683 282.023,85.023 282.154 C 85.377 282.289,85.537 282.222,85.397 281.995 C 85.263 281.778,85.343 281.600,85.576 281.600 C 85.809 281.600,86.000 281.780,86.000 282.000 C 86.000 282.220,86.180 282.400,86.400 282.400 C 86.620 282.400,86.800 282.130,86.800 281.800 C 86.800 281.145,85.004 280.946,84.626 281.558 M309.345 281.800 C 308.987 282.731,309.545 283.937,309.995 283.208 C 310.189 282.895,310.256 282.490,310.144 282.309 C 310.032 282.128,310.089 282.006,310.270 282.037 C 311.080 282.178,311.627 281.967,311.400 281.600 C 311.021 280.987,309.604 281.125,309.345 281.800 M112.558 309.668 C 112.362 309.985,112.489 310.051,112.955 309.873 C 113.401 309.702,113.546 309.763,113.370 310.049 C 113.070 310.534,113.972 311.265,114.481 310.950 C 114.656 310.842,114.800 310.403,114.800 309.976 C 114.800 309.097,113.059 308.857,112.558 309.668 M281.345 309.800 C 280.987 310.731,281.545 311.937,281.995 311.208 C 282.189 310.895,282.235 310.450,282.097 310.219 C 281.959 309.989,282.186 310.070,282.600 310.400 C 283.039 310.750,283.228 310.791,283.053 310.500 C 282.884 310.219,282.949 310.000,283.200 310.000 C 283.446 310.000,283.536 309.820,283.400 309.600 C 283.021 308.987,281.604 309.125,281.345 309.800 M173.200 315.000 L 173.200 316.800 175.000 316.800 L 176.800 316.800 176.800 315.000 L 176.800 313.200 175.000 313.200 L 173.200 313.200 173.200 315.000 " stroke="none" fill="#9494f4" fill-rule="evenodd"></path><path id="path3" d="M143.200 28.200 C 143.200 29.000,143.000 29.200,142.200 29.200 L 141.200 29.200 141.200 43.200 L 141.200 57.200 127.200 57.200 L 113.200 57.200 113.200 70.600 L 113.200 84.000 127.120 84.000 C 137.413 84.000,141.165 83.875,141.520 83.520 C 141.872 83.168,142.000 79.831,142.000 71.000 C 142.000 62.169,142.128 58.832,142.480 58.480 C 142.989 57.971,252.051 57.738,253.367 58.243 C 253.925 58.457,254.000 59.939,254.000 70.794 C 254.000 80.509,254.111 83.194,254.529 83.541 C 254.884 83.836,259.661 84.016,269.129 84.090 L 283.200 84.200 283.200 70.700 L 283.200 57.200 269.200 57.200 L 255.200 57.200 255.200 43.200 L 255.200 29.200 254.000 29.200 C 252.987 29.200,252.800 29.044,252.800 28.200 L 252.800 27.200 198.000 27.200 L 143.200 27.200 143.200 28.200 M85.200 98.600 L 85.200 112.000 98.585 112.000 L 111.970 112.000 112.199 126.100 C 112.498 144.483,112.498 253.972,112.199 270.929 L 111.968 284.057 98.584 283.929 L 85.199 283.800 85.200 297.300 L 85.200 310.800 98.600 310.800 L 112.000 310.800 112.000 297.400 L 112.000 284.000 126.557 284.000 C 139.462 284.000,141.142 283.928,141.357 283.367 C 141.491 283.019,141.600 257.495,141.600 226.647 C 141.600 183.557,141.711 170.449,142.080 170.080 C 143.016 169.144,167.876 169.421,168.386 170.374 C 168.649 170.865,168.800 176.333,168.800 185.376 L 168.800 199.605 198.100 199.503 L 227.400 199.400 227.505 185.035 C 227.577 175.246,227.752 170.499,228.054 170.135 C 228.874 169.147,253.851 169.373,254.386 170.374 C 254.666 170.897,254.800 189.443,254.800 227.574 L 254.800 284.000 269.400 284.000 L 284.000 284.000 284.000 297.400 L 284.000 310.800 297.400 310.800 L 310.800 310.800 310.800 297.400 L 310.800 284.000 297.448 284.000 L 284.096 284.000 283.793 258.500 C 283.626 244.475,283.583 205.773,283.696 172.495 L 283.902 111.990 269.451 112.095 L 255.000 112.200 254.800 125.933 C 254.611 138.940,254.559 139.695,253.824 140.233 C 253.191 140.695,250.622 140.800,239.924 140.800 L 226.800 140.800 226.800 154.000 C 226.800 166.667,226.768 167.232,226.000 168.000 C 225.078 168.922,172.062 169.289,170.374 168.386 C 169.632 167.989,169.600 167.409,169.600 154.386 L 169.600 140.800 156.374 140.800 C 148.021 140.800,142.862 140.647,142.374 140.386 C 141.632 139.989,141.600 139.411,141.600 126.619 C 141.600 119.274,141.491 112.981,141.357 112.633 C 141.142 112.072,139.462 112.000,126.557 112.000 L 112.000 112.000 112.000 98.600 L 112.000 85.200 98.600 85.200 L 85.200 85.200 85.200 98.600 M284.095 98.500 L 284.200 111.800 297.500 112.000 L 310.801 112.200 310.800 98.700 L 310.800 85.200 297.395 85.200 L 283.989 85.200 284.095 98.500 M57.200 126.600 L 57.200 140.000 69.100 139.998 C 76.115 139.996,81.616 139.825,82.500 139.579 L 84.000 139.162 84.000 126.181 L 84.000 113.200 70.600 113.200 L 57.200 113.200 57.200 126.600 M312.000 126.157 C 312.000 138.104,312.055 139.140,312.700 139.447 C 313.085 139.630,319.115 139.841,326.100 139.915 L 338.800 140.051 338.800 126.625 L 338.800 113.200 325.400 113.200 L 312.000 113.200 312.000 126.157 M29.200 142.200 C 29.200 143.000,29.000 143.200,28.200 143.200 L 27.200 143.200 27.200 198.000 L 27.200 252.800 28.200 252.800 C 29.000 252.800,29.200 253.000,29.200 253.800 L 29.200 254.800 42.357 254.800 C 53.986 254.800,55.543 254.726,55.757 254.167 C 55.891 253.819,56.000 228.259,56.000 197.367 L 56.000 141.200 42.600 141.200 L 29.200 141.200 29.200 142.200 M340.000 198.000 L 340.000 254.800 353.400 254.800 L 366.800 254.800 366.800 253.800 C 366.800 253.000,367.000 252.800,367.800 252.800 L 368.800 252.800 368.800 198.000 L 368.800 143.200 367.800 143.200 C 367.000 143.200,366.800 143.000,366.800 142.200 L 366.800 141.200 353.400 141.200 L 340.000 141.200 340.000 198.000 M58.100 256.412 L 57.200 256.774 57.200 269.787 L 57.200 282.800 70.862 282.800 L 84.524 282.800 84.264 277.100 C 84.120 273.965,84.002 268.585,84.001 265.143 L 84.000 258.887 82.974 258.629 C 82.317 258.464,81.800 257.946,81.535 257.186 L 81.122 256.000 70.061 256.025 C 63.977 256.039,58.595 256.213,58.100 256.412 M314.625 257.042 C 314.460 257.700,313.929 258.247,313.182 258.529 L 312.000 258.975 311.995 269.988 C 311.992 276.044,311.881 281.405,311.748 281.900 L 311.507 282.800 325.153 282.800 L 338.800 282.800 338.800 269.400 L 338.800 256.000 326.843 256.000 L 314.887 256.000 314.625 257.042 M269.400 311.891 C 259.982 311.962,255.525 312.138,254.906 312.461 C 254.013 312.928,254.011 312.948,253.906 325.365 L 253.800 337.800 198.443 337.901 C 157.863 337.976,142.941 337.883,142.543 337.552 C 142.108 337.191,142.000 334.706,142.000 325.031 C 142.000 316.176,141.872 312.832,141.520 312.480 C 141.165 312.125,137.413 312.000,127.120 312.000 L 113.200 312.000 113.200 325.400 L 113.200 338.800 127.200 338.800 L 141.200 338.800 141.200 352.800 L 141.200 366.800 142.200 366.800 C 143.000 366.800,143.200 367.000,143.200 367.800 L 143.200 368.800 198.000 368.800 L 252.800 368.800 252.800 367.800 C 252.800 366.956,252.987 366.800,254.000 366.800 L 255.200 366.800 255.200 352.800 L 255.200 338.800 269.200 338.800 L 283.200 338.800 283.200 325.200 C 283.200 317.720,283.155 311.643,283.100 311.694 C 283.045 311.746,276.880 311.835,269.400 311.891 " stroke="none" fill="#5454fc" fill-rule="evenodd"></path></g></svg>