<svg id="svg" version="1.1" xmlns="http://www.w3.org/2000/svg" xmlns:xlink="http://www.w3.org/1999/xlink" width="400" height="400" viewBox="0, 0, 400,400"><g id="svgg"><path id="path0" d="M105.294 89.079 C 104.905 89.364,104.899 89.825,104.800 124.802 L 104.700 160.235 104.228 160.618 C 103.773 160.986,103.230 161.000,89.016 161.000 C 76.602 161.000,74.215 161.045,73.888 161.284 C 73.477 161.584,73.261 184.443,73.656 185.857 C 73.917 186.794,74.021 186.800,89.502 186.800 L 104.177 186.800 104.489 187.245 C 105.072 188.078,104.925 213.131,104.330 214.047 C 104.314 214.073,97.370 214.140,88.900 214.197 L 73.500 214.300 73.500 226.768 L 73.500 239.236 73.972 239.618 C 74.427 239.986,74.971 240.000,89.222 240.000 C 103.733 240.000,104.007 240.007,104.400 240.400 C 104.797 240.797,104.800 241.067,104.800 276.000 L 104.800 311.200 150.050 311.197 C 201.451 311.193,203.855 311.140,214.049 309.785 C 255.291 304.306,289.789 279.235,303.883 244.500 C 305.301 241.006,305.412 240.802,306.209 240.250 L 306.859 239.800 319.680 239.799 C 327.946 239.798,332.766 239.724,333.250 239.590 C 334.597 239.215,334.566 239.481,334.604 227.889 C 334.623 221.812,334.723 217.027,334.843 216.360 C 334.956 215.733,334.992 214.994,334.922 214.718 L 334.796 214.216 324.029 214.158 C 314.856 214.109,313.208 214.056,312.903 213.803 C 312.570 213.527,312.558 213.238,312.723 209.703 C 312.951 204.798,312.912 193.361,312.655 190.406 C 312.489 188.488,312.569 187.058,312.859 186.758 C 312.882 186.735,317.555 186.667,323.245 186.608 L 333.589 186.500 334.045 186.044 L 334.500 185.589 334.500 173.602 C 334.500 162.361,334.478 161.592,334.143 161.257 C 333.808 160.923,332.964 160.897,320.791 160.854 C 309.753 160.815,307.710 160.764,307.222 160.511 C 306.560 160.169,305.600 159.096,305.600 158.699 C 305.600 157.010,299.562 144.990,295.905 139.400 C 277.135 110.708,247.778 93.713,209.300 89.264 C 205.078 88.776,105.950 88.600,105.294 89.079 M210.600 113.064 C 229.007 115.571,243.265 121.776,257.600 133.518 C 265.690 140.145,278.297 156.995,277.511 160.128 C 277.420 160.489,277.475 160.600,277.741 160.600 C 278.041 160.600,278.028 160.661,277.639 161.050 L 277.189 161.500 204.018 161.551 C 132.180 161.601,130.838 161.595,130.373 161.219 L 129.900 160.835 129.841 137.968 C 129.779 114.054,129.789 113.611,130.420 112.980 C 130.986 112.414,206.408 112.493,210.600 113.064 M284.582 186.775 C 285.944 187.156,286.259 189.719,286.259 200.400 C 286.259 211.159,285.963 213.633,284.632 213.991 C 283.051 214.417,130.686 214.172,130.257 213.743 C 129.873 213.359,129.686 189.066,130.057 187.737 C 130.393 186.531,124.569 186.615,207.800 186.628 C 249.765 186.634,284.317 186.701,284.582 186.775 M277.287 240.195 C 279.803 241.151,270.676 254.994,261.822 263.651 C 256.002 269.342,244.448 277.600,242.306 277.600 C 242.084 277.600,240.687 278.223,239.201 278.983 C 231.219 283.072,219.603 286.369,209.200 287.499 C 207.605 287.672,205.355 287.968,204.200 288.157 C 202.272 288.472,199.179 288.500,166.456 288.500 L 130.811 288.500 130.356 288.044 L 129.900 287.589 129.900 264.436 C 129.900 242.612,129.920 241.251,130.254 240.741 L 130.609 240.201 201.054 240.150 C 239.799 240.122,272.687 240.077,274.137 240.050 C 275.587 240.022,277.005 240.088,277.287 240.195 " stroke="none" fill="#fcfbfb" fill-rule="evenodd"></path><path id="path1" d="M190.100 0.136 C 117.859 3.780,53.096 46.068,21.083 110.500 C 19.498 113.690,18.108 116.413,17.993 116.550 C 17.878 116.688,17.825 116.800,17.874 116.800 C 17.924 116.800,17.334 118.263,16.564 120.050 C 0.536 157.234,-4.059 197.713,3.316 236.763 C 3.697 238.777,3.956 240.509,3.892 240.613 C 3.829 240.716,3.857 240.800,3.956 240.800 C 4.109 240.800,4.646 243.055,4.719 244.000 C 4.732 244.165,4.798 244.435,4.865 244.600 C 4.932 244.765,5.400 246.565,5.904 248.600 C 6.999 253.018,8.215 257.247,9.756 262.000 C 10.381 263.925,10.881 265.613,10.868 265.750 C 10.855 265.887,10.924 266.000,11.022 266.000 C 11.120 266.000,11.200 266.088,11.200 266.195 C 11.200 266.302,11.798 267.990,12.529 269.945 C 13.261 271.900,13.861 273.613,13.863 273.750 C 13.865 273.887,13.942 274.000,14.033 274.000 C 14.125 274.000,14.200 274.087,14.200 274.194 C 14.200 274.456,17.319 281.770,18.574 284.450 C 19.128 285.633,19.517 286.601,19.440 286.603 C 19.363 286.605,19.401 286.672,19.525 286.753 C 19.821 286.946,22.249 291.799,22.052 291.803 C 21.968 291.805,21.996 291.872,22.112 291.953 C 22.371 292.132,25.061 297.119,25.006 297.315 C 24.984 297.392,25.050 297.510,25.152 297.578 C 25.255 297.645,25.907 298.690,26.602 299.900 C 29.062 304.182,35.408 314.134,36.740 315.800 C 36.873 315.965,38.106 317.630,39.481 319.500 C 40.857 321.370,42.099 323.031,42.241 323.191 C 42.482 323.461,42.968 324.072,44.056 325.471 C 44.300 325.786,44.835 326.416,45.245 326.871 C 45.654 327.327,45.992 327.764,45.995 327.842 C 45.998 327.920,46.167 328.145,46.371 328.342 C 46.575 328.539,47.392 329.465,48.186 330.400 C 50.038 332.580,50.393 332.971,54.665 337.538 C 58.196 341.313,61.758 344.793,66.200 348.806 C 67.465 349.949,68.601 350.978,68.725 351.092 C 68.849 351.207,69.591 351.829,70.375 352.476 C 71.159 353.123,71.800 353.730,71.800 353.826 C 71.800 353.922,71.888 354.000,71.996 354.000 C 72.104 354.000,73.341 354.931,74.746 356.069 C 76.151 357.206,78.740 359.203,80.500 360.505 C 82.260 361.807,83.745 362.923,83.800 362.986 C 83.855 363.049,84.048 363.190,84.229 363.300 C 84.410 363.410,86.525 364.816,88.929 366.424 C 111.328 381.411,136.389 391.619,163.200 396.676 C 167.800 397.544,179.073 399.178,180.800 399.228 C 180.965 399.233,182.810 399.382,184.900 399.561 C 190.402 400.031,209.463 400.032,215.100 399.563 C 217.300 399.380,219.235 399.225,219.400 399.218 C 219.565 399.212,219.970 399.162,220.300 399.107 C 220.630 399.052,222.430 398.822,224.300 398.596 C 331.262 385.674,408.924 289.591,399.291 182.100 C 389.719 75.286,297.119 -5.261,190.100 0.136 M209.300 89.264 C 247.778 93.713,277.135 110.708,295.905 139.400 C 299.562 144.990,305.600 157.010,305.600 158.699 C 305.600 159.096,306.560 160.169,307.222 160.511 C 307.710 160.764,309.753 160.815,320.791 160.854 C 332.964 160.897,333.808 160.923,334.143 161.257 C 334.478 161.592,334.500 162.361,334.500 173.602 L 334.500 185.589 334.045 186.044 L 333.589 186.500 323.245 186.608 C 317.555 186.667,312.882 186.735,312.859 186.758 C 312.569 187.058,312.489 188.488,312.655 190.406 C 312.912 193.361,312.951 204.798,312.723 209.703 C 312.558 213.238,312.570 213.527,312.903 213.803 C 313.208 214.056,314.856 214.109,324.029 214.158 L 334.796 214.216 334.922 214.718 C 334.992 214.994,334.956 215.733,334.843 216.360 C 334.723 217.027,334.623 221.812,334.604 227.889 C 334.566 239.481,334.597 239.215,333.250 239.590 C 332.766 239.724,327.946 239.798,319.680 239.799 L 306.859 239.800 306.209 240.250 C 305.412 240.802,305.301 241.006,303.883 244.500 C 289.789 279.235,255.291 304.306,214.049 309.785 C 203.855 311.140,201.451 311.193,150.050 311.197 L 104.800 311.200 104.800 276.000 C 104.800 241.067,104.797 240.797,104.400 240.400 C 104.007 240.007,103.733 240.000,89.222 240.000 C 74.971 240.000,74.427 239.986,73.972 239.618 L 73.500 239.236 73.500 226.768 L 73.500 214.300 88.900 214.197 C 97.370 214.140,104.314 214.073,104.330 214.047 C 104.925 213.131,105.072 188.078,104.489 187.245 L 104.177 186.800 89.502 186.800 C 74.021 186.800,73.917 186.794,73.656 185.857 C 73.261 184.443,73.477 161.584,73.888 161.284 C 74.215 161.045,76.602 161.000,89.016 161.000 C 103.230 161.000,103.773 160.986,104.228 160.618 L 104.700 160.235 104.800 124.802 C 104.899 89.825,104.905 89.364,105.294 89.079 C 105.950 88.600,205.078 88.776,209.300 89.264 M130.420 112.980 C 129.789 113.611,129.779 114.054,129.841 137.968 L 129.900 160.835 130.373 161.219 C 130.838 161.595,132.180 161.601,204.018 161.551 L 277.189 161.500 277.639 161.050 C 278.028 160.661,278.041 160.600,277.741 160.600 C 277.475 160.600,277.420 160.489,277.511 160.128 C 278.297 156.995,265.690 140.145,257.600 133.518 C 243.265 121.776,229.007 115.571,210.600 113.064 C 206.408 112.493,130.986 112.414,130.420 112.980 M130.857 186.895 C 129.897 187.313,129.900 187.268,129.900 200.843 C 129.900 212.617,129.922 213.408,130.257 213.743 C 130.686 214.172,283.051 214.417,284.632 213.991 C 285.963 213.633,286.259 211.159,286.259 200.400 C 286.259 189.719,285.944 187.156,284.582 186.775 C 283.519 186.477,131.544 186.597,130.857 186.895 M201.054 240.150 L 130.609 240.201 130.254 240.741 C 129.920 241.251,129.900 242.612,129.900 264.436 L 129.900 287.589 130.356 288.044 L 130.811 288.500 166.456 288.500 C 199.179 288.500,202.272 288.472,204.200 288.157 C 205.355 287.968,207.605 287.672,209.200 287.499 C 219.603 286.369,231.219 283.072,239.201 278.983 C 240.687 278.223,242.084 277.600,242.306 277.600 C 242.901 277.600,246.668 275.453,250.200 273.099 C 261.104 265.834,270.791 255.207,276.610 244.129 C 278.623 240.296,278.425 239.969,274.137 240.050 C 272.687 240.077,239.799 240.122,201.054 240.150 " stroke="none" fill="#f4ac34" fill-rule="evenodd"></path></g></svg>