<?xml version="1.0" encoding="utf-8"?>
<svg version="1.1" id="layer_1" xmlns="http://www.w3.org/2000/svg" xmlns:xlink="http://www.w3.org/1999/xlink" x="0px" y="0px"
	 viewBox="0 0 1050 1050" enable-background="new 0 0 1050 1050" xml:space="preserve">
<g>
	<path d="M525,13C242.2,13,13,242.2,13,525s229.2,512,512,512s512-229.2,512-512S807.8,13,525,13z M816.8,378.9L670.9,525h145.9
		v145.9L670.9,816.8H525V670.9L378.9,816.8H233.2V670.9L378.9,525H233.2V378.9l145.7-145.7H525v145.7l145.9-145.7h145.9V378.9z"/>
	<polygon points="525,670.9 670.9,525 525,525 	"/>
	<polygon points="525,378.9 378.9,525 525,525 	"/>
	<polygon fill="#FFFFFF" points="378.9,525 233.2,670.9 233.2,816.8 378.9,816.8 525,670.9 525,525 	"/>
	<polygon fill="#FFFFFF" points="525,233.2 378.9,233.2 233.2,378.9 233.2,525 378.9,525 525,378.9 	"/>
	<polygon fill="#FFFFFF" points="525,816.8 670.9,816.8 816.8,670.9 816.8,525 670.9,525 525,670.9 	"/>
	<polygon fill="#50FF75" points="525,378.9 525,525 670.9,525 816.8,378.9 816.8,233.2 670.9,233.2 	"/>
</g>
</svg>
