<?xml version="1.0" encoding="UTF-8"?>
<svg version="1.1" xmlns="http://www.w3.org/2000/svg" width="1526" height="1527">
<path d="M0 0 C0.22042969 1.670625 0.22042969 1.670625 0.4453125 3.375 C3.39584871 24.09050886 11.88377365 41.11555309 22.75 58.8125 C35.39634404 79.44201797 36.83276491 101.08265323 31.41015625 124.41796875 C30.17621913 129.40455361 28.85256198 134.36731967 27.53665161 139.33277893 C27.00308123 141.34671539 26.470234 143.36084215 25.9375 145.375 C25.67235596 146.37413925 25.67235596 146.37413925 25.40185547 147.39346313 C16.8284781 179.86256658 16.48114011 210.60681082 33.28515625 240.53515625 C37.70972068 248.03709932 43.00722944 254.93342844 48.32470703 261.81640625 C49.82742379 263.77506243 51.29304333 265.75441277 52.74609375 267.75 C58.97524033 276.17385346 66.21793846 283.10514034 73.9140625 290.1875 C111.29180977 324.72708422 140.17730857 376.87134857 142.91015625 428.12890625 C142.95462891 429.55009766 142.95462891 429.55009766 143 431 C143.03996094 432.01964844 143.07992187 433.03929687 143.12109375 434.08984375 C143.23103737 439.01143777 143.26347191 441.47305617 141 446 C140.34 442.37 139.68 438.74 139 435 C137.329375 434.938125 135.65875 434.87625 133.9375 434.8125 C119.19490843 433.65621831 104.48486581 430.01197821 90.67114258 424.79223633 C86.72807924 423.34633708 83.9836988 422.41190386 80 424 C77.49032892 425.80906052 77.49032892 425.80906052 75.125 428.125 C74.32320312 428.87007812 73.52140625 429.61515625 72.6953125 430.3828125 C71.80585937 431.24648437 70.91640625 432.11015625 70 433 C69.45142334 433.5266626 68.90284668 434.0533252 68.33764648 434.59594727 C24.75388782 477.12240179 4.67291001 548.33056474 3.83642578 607.39404297 C3.70015765 625.08387123 5.43968851 642.51361728 8 660 C7.38817871 659.91959473 6.77635742 659.83918945 6.14599609 659.75634766 C3.22288665 659.37483589 0.29895701 658.99995873 -2.625 658.625 C-3.58535156 658.49867188 -4.54570313 658.37234375 -5.53515625 658.2421875 C-9.02056025 657.79818699 -12.50836223 657.3922149 -16 657 C-16.76559235 656.91348175 -17.53118469 656.8269635 -18.31997681 656.73782349 C-33.70422195 655.0445576 -48.96827585 654.63666045 -64.4375 654.6875 C-65.62342743 654.68965515 -66.80935486 654.6918103 -68.03121948 654.69403076 C-86.54454782 654.74787346 -104.65207267 655.36796884 -123 658 C-124.41661721 658.19567088 -125.83328607 658.3909681 -127.25 658.5859375 C-204.95819318 669.42068291 -278.55566852 697.15639044 -403.875 768.4375 C-405.03319244 769.20933624 -405.03319244 769.20933624 -406.21478271 769.99676514 C-414.94242678 775.82427199 -423.58127516 781.73095497 -432 788 C-432.66 787.67 -433.32 787.34 -434 787 C-433.70456299 786.39043457 -433.40912598 785.78086914 -433.10473633 785.15283203 C-409.54269474 736.18464507 -392.54657606 683.70142188 -384 630 C-383.84837402 629.06607422 -383.69674805 628.13214844 -383.54052734 627.16992188 C-371.86809052 553.44099431 -381.08070728 475.1181681 -425.6875 413.5 C-432.18003515 404.71996228 -439.32546893 396.75310988 -447 389 C-447.58716797 388.40445312 -448.17433594 387.80890625 -448.77929688 387.1953125 C-452.16176428 383.77173223 -455.56876601 380.37467519 -459 377 C-455.35792756 373.96833077 -451.59047791 371.42879269 -447.5625 368.9375 C-442.31133729 365.62629752 -437.31753387 362.08734178 -432.4375 358.25 C-431.86652588 357.80261475 -431.29555176 357.35522949 -430.70727539 356.89428711 C-428.03503756 354.76100796 -425.62736052 352.62054714 -423.22265625 350.171875 C-421 348 -421 348 -419 348 C-418.62875 347.12988281 -418.62875 347.12988281 -418.25 346.2421875 C-416.81160494 343.66206637 -415.17463798 342.121007 -413 340.125 C-409.03282075 336.26069736 -405.7537589 332.18970556 -402.5625 327.6875 C-402.13775391 327.0888916 -401.71300781 326.4902832 -401.27539062 325.87353516 C-399.28236562 323.01037282 -397.43831502 320.18315618 -396 317 C-397.03447266 318.14275391 -397.03447266 318.14275391 -398.08984375 319.30859375 C-400.56819809 322.03847194 -403.06668494 324.74913886 -405.57324219 327.453125 C-406.76023218 328.74004639 -407.93277761 330.04027243 -409.1015625 331.34375 C-420.45724539 343.46854288 -435.32062258 352.45577742 -450 360 C-450.64694824 360.33837891 -451.29389648 360.67675781 -451.96044922 361.02539062 C-487.0297305 379.18053451 -528.03343283 386.78143007 -566.28515625 374.6796875 C-587.28604543 367.57786576 -607.46741706 353.91615684 -618 334 C-623.51354033 321.26355425 -624.8316516 309.44874533 -620.33984375 296.1171875 C-618.22880795 291.20579809 -615.30559114 287.16928479 -612 283 C-611.401875 282.113125 -610.80375 281.22625 -610.1875 280.3125 C-602.75737936 272.45780103 -594.50062385 268.8163514 -583.86328125 268.0390625 C-573.91300837 267.90331526 -564.41543146 271.50395207 -557.125 278.3125 C-551.05153042 284.85866886 -548.62559369 292.20461552 -548.71875 301.01953125 C-549.4519678 308.78960321 -553.28569611 314.97616725 -558 321 C-550.82993071 315.73092891 -545.9345354 308.79334271 -544 300 C-542.94792906 289.94867609 -545.22570513 281.43013715 -551.1875 273.25 C-560.05624434 262.70185514 -571.32313229 257.23823494 -585 256 C-600.03904405 255.64050094 -612.54252163 262.61268081 -623.1875 272.75 C-627.70539145 277.42199007 -631.0552636 282.22164933 -634 288 C-634.38929688 288.763125 -634.77859375 289.52625 -635.1796875 290.3125 C-641.76299081 304.15185293 -641.79670108 319.7814954 -637.37890625 334.3125 C-628.34867989 358.46132062 -609.65555292 375.79732964 -586.625 386.75 C-563.65214475 397.2076148 -541.00153384 398.52462059 -516 398 C-518.11704958 400.31029357 -520.06334754 401.70598349 -522.88671875 403.05078125 C-523.65137451 403.41647217 -524.41603027 403.78216309 -525.20385742 404.15893555 C-526.02345947 404.53961182 -526.84306152 404.92028809 -527.6875 405.3125 C-528.54255127 405.71057861 -529.39760254 406.10865723 -530.27856445 406.51879883 C-551.54449263 416.29326196 -573.77956708 422.06750759 -597 425 C-597.98871094 425.13148438 -598.97742188 425.26296875 -599.99609375 425.3984375 C-655.47856215 431.35736734 -712.20353854 413.81985795 -755.72241211 379.38720703 C-784.16018192 356.33692839 -802.2665916 330.2340121 -806.75683594 293.33398438 C-809.27126703 269.19948515 -803.14214676 246.54870198 -789 227 C-788.44699219 226.23042969 -787.89398437 225.46085938 -787.32421875 224.66796875 C-779.36716812 214.6574857 -766.61186814 207.02160828 -754 205 C-739.65429823 203.96805683 -727.92550901 206.81100132 -716 215 C-715.071875 215.61875 -714.14375 216.2375 -713.1875 216.875 C-707.25495874 222.63804008 -704.47134602 229.44365516 -703.625 237.625 C-703.95528279 247.63062568 -707.84849731 257.03848031 -715 264 C-722.61766686 270.28970592 -729.00146696 273.36604523 -739 273.1875 C-739.68578125 273.18685547 -740.3715625 273.18621094 -741.078125 273.18554688 C-745.14782229 273.15059718 -749.00743659 272.77979754 -753 272 C-751.41800369 272.64910154 -749.83434276 273.29414694 -748.25 273.9375 C-747.36828125 274.29714844 -746.4865625 274.65679688 -745.578125 275.02734375 C-735.49399629 278.83181049 -725.68868242 277.37804099 -716 273 C-704.75401263 266.79864125 -697.82173958 257.32413176 -693.75 245.3125 C-691.38175396 234.31092068 -692.5977832 223.14385055 -698.54296875 213.49609375 C-708.7394422 199.70635505 -723.30881377 191.64246988 -740.015625 188.41796875 C-757.77974881 185.93006136 -774.66905092 191.08305559 -789.05297852 201.53173828 C-811.58862344 218.53964984 -821.70387325 243.81003994 -826 271 C-828.31336624 268.68663376 -828.52043687 267.54986723 -829.21875 264.40625 C-829.42798096 263.46837646 -829.63721191 262.53050293 -829.8527832 261.56420898 C-840.37815874 211.73245177 -835.72697525 159.14097079 -811 114 C-810.28234024 112.65245655 -809.56489643 111.30479807 -808.84765625 109.95703125 C-785.15844162 66.07880004 -747.15020335 34.91041301 -702 15 C-701.24750977 14.66613281 -700.49501953 14.33226562 -699.71972656 13.98828125 C-695.64424376 12.30240067 -693.20758011 11.70236848 -689 13 C-686.53393555 14.61474609 -686.53393555 14.61474609 -683.94921875 16.6484375 C-678.18722685 20.97209614 -672.22137903 24.35814416 -665.8125 27.625 C-664.08664673 28.51179443 -664.08664673 28.51179443 -662.32592773 29.41650391 C-643.6227581 38.92922096 -624.19030419 47.26939064 -604.57055664 54.69287109 C-599.10335791 56.79328418 -599.10335791 56.79328418 -598 59 C-599.26972656 59.29132812 -600.53945313 59.58265625 -601.84765625 59.8828125 C-631.81512831 66.9425839 -658.86672369 80.29906784 -675.69921875 107.01953125 C-684.8715477 122.34692612 -688.59922101 139.43644658 -684.4375 157 C-680.37391774 172.53689914 -671.22082031 185.68086011 -657.6953125 194.5 C-646.29828388 200.84269419 -635.05444583 203.39105741 -622.19140625 200.92578125 C-609.93163526 197.36939725 -600.20181961 190.84958953 -593.546875 179.91015625 C-589.26057051 171.84627533 -587.83460305 164.19280819 -590 155.25 C-591.98382603 149.01101089 -595.77789228 143.93923854 -600 139 C-600.66 138.67 -601.32 138.34 -602 138 C-601.59007812 138.6290625 -601.18015625 139.258125 -600.7578125 139.90625 C-596.0465432 147.39018018 -593.07719342 153.92573534 -594 163 C-596.31706876 172.24052571 -600.05321128 178.83528424 -608.14453125 184.01171875 C-617.65544279 189.38733514 -626.40008349 191.18771963 -637.1875 188.9375 C-649.5025901 185.34559872 -658.29791087 176.38462311 -664.4375 165.3125 C-669.90285172 153.45314348 -669.97258305 141.24007742 -666.02734375 128.9765625 C-658.45376656 109.00285723 -641.97627526 94.95331702 -623.07885742 86.08959961 C-586.08101249 69.53710693 -548.84815281 76.21043754 -512.04418945 89.07894897 C-435.47122728 115.79302161 -357.03426357 136.96493126 -278 155 C-279.81497566 162.48867357 -282.19795973 169.32142264 -285.5625 176.25 C-285.99941162 177.1560498 -286.43632324 178.06209961 -286.88647461 178.99560547 C-301.97259416 209.55681525 -327.40433749 234.81397642 -360 246 C-388.06710666 254.62976184 -417.69309473 255.751736 -444.27734375 242.078125 C-448.96301583 239.53745991 -453.07164642 236.6030759 -457 233 C-457.59683594 232.505 -458.19367188 232.01 -458.80859375 231.5 C-469.93236863 221.59017828 -474.80758639 206.95530002 -476.375 192.5546875 C-476.79982543 181.53577797 -474.11290941 171.34999777 -466.84375 162.92578125 C-458.52381215 154.23567667 -449.18176572 148.95409634 -437 148 C-426.76789098 147.88678164 -418.39294997 150.82054045 -410.85546875 157.81640625 C-405.50699159 164.11071937 -402.54423512 171.96997737 -401 180 C-401.51873166 168.04323517 -404.96455138 157.66434803 -413.77734375 149.31640625 C-423.34817264 141.46793512 -433.9507277 139.91224732 -445.94140625 140.77685547 C-459.41201282 142.23702321 -471.46741525 149.633658 -480 160 C-489.66406315 173.57361597 -491.80035462 188.91887589 -489.71582031 205.22265625 C-486.43990592 224.01744661 -476.17281763 240.43636591 -461 252 C-436.38597104 269.0903732 -405.5190877 275.13017298 -376 269.8125 C-373.31487911 269.27534685 -370.65794685 268.6576296 -368 268 C-367.32098633 267.83902832 -366.64197266 267.67805664 -365.94238281 267.51220703 C-330.5498152 258.90789529 -301.47445061 235.52345877 -282.63623047 204.77392578 C-275.44636765 192.64979153 -270.89294712 179.91896871 -266.80273438 166.46923828 C-265.97656601 163.92791626 -265.01861962 161.4697659 -264 159 C-261.31474207 160.34262896 -261.02803848 161.71018495 -259.78515625 164.42578125 C-259.35195068 165.35777344 -258.91874512 166.28976562 -258.47241211 167.25 C-257.77450562 168.7659375 -257.77450562 168.7659375 -257.0625 170.3125 C-244.92661631 196.13164781 -230.47412429 221.3234843 -210.64453125 242.08203125 C-209 244 -209 244 -208 247 C-208.67804687 247.4125 -209.35609375 247.825 -210.0546875 248.25 C-243.18039756 268.80445721 -266.00941746 300.01396186 -275.2109375 337.86328125 C-283.78276135 375.48795197 -276.87620563 414.05344903 -257 447 C-236.18258436 479.40372214 -203.4473591 502.90378363 -165.75 511.22265625 C-164.5125 511.47917969 -163.275 511.73570312 -162 512 C-160.453125 512.33837891 -160.453125 512.33837891 -158.875 512.68359375 C-140.53360772 516.0079711 -120.10027505 515.4588979 -102 511 C-101.22317871 510.81195801 -100.44635742 510.62391602 -99.64599609 510.43017578 C-81.48544616 505.87463572 -64.04913911 498.21586783 -49 487 C-48.24203125 486.45085937 -47.4840625 485.90171875 -46.703125 485.3359375 C-14.25121364 461.05454283 4.89959665 425.76911682 11 386 C15.5003513 345.0076015 4.12846393 306.08922242 -21.48730469 273.86474609 C-32.70622938 260.03483215 -45.67310823 248.99283949 -61 240 C-61.9583374 239.43152344 -61.9583374 239.43152344 -62.93603516 238.8515625 C-87.39260939 224.54371637 -115.98852808 218.11337905 -144.25 219.0625 C-145.39227051 219.08231934 -145.39227051 219.08231934 -146.55761719 219.10253906 C-152.34684577 219.41747719 -156.49267776 221.35812664 -161 225 C-164.61190831 229.8535018 -164.84750845 235.15314396 -164 241 C-161.65940814 245.86122924 -158.77266043 248.52188785 -154 251 C-146.33229159 252.35159606 -138.68982631 252.03275999 -130.93164062 251.87304688 C-124.60619113 251.80494514 -119.11919591 252.37289368 -113 254 C-113.85706947 260.01006739 -116.78514566 263.75443634 -121 268 C-127.55126687 272.81612658 -134.0132466 274.15035543 -142 273 C-156.72047601 269.85259411 -167.52968308 260.21721109 -178 250 C-178.5576001 249.46648926 -179.1152002 248.93297852 -179.68969727 248.38330078 C-183.98353693 244.20605469 -187.71284435 239.78326371 -191.3125 235 C-191.87445068 234.2565332 -192.43640137 233.51306641 -193.01538086 232.74707031 C-206.29206667 215.02973757 -217.45352854 195.96446742 -227.03027344 176.00878906 C-228.03768757 173.92193019 -229.06863857 171.84777515 -230.1015625 169.7734375 C-245.28174353 138.93954038 -264.16986546 99.00044835 -252.8125 63.9375 C-250.66236748 58.11550794 -248.22675597 53.52866711 -244 49 C-243.47664062 48.38769531 -242.95328125 47.77539062 -242.4140625 47.14453125 C-234.55597795 38.49325976 -223.45607565 34.79431035 -212.046875 33.8359375 C-194.77034307 33.13207879 -178.40651589 40.97811238 -165.73828125 52.2578125 C-150.73804855 67.27944354 -141.99300397 86.56200807 -137 107 C-136.17227273 87.37979811 -140.98606993 70.3344809 -150 53 C-150 52.34 -150 51.68 -150 51 C-148.27330078 51.32484375 -148.27330078 51.32484375 -146.51171875 51.65625 C-122.73502082 55.909567 -100.72507993 54.22267101 -78 46 C-77.33709961 45.7632959 -76.67419922 45.5265918 -75.99121094 45.28271484 C-58.61848574 38.95282579 -42.62208196 29.45109563 -27.86181641 18.38623047 C-24.10584891 15.58969448 -20.29724675 12.86504784 -16.5 10.125 C-15.36848511 9.30334351 -15.36848511 9.30334351 -14.21411133 8.46508789 C-2.53592111 0 -2.53592111 0 0 0 Z M-394 312 C-393 314 -393 314 -393 314 Z " fill="#961CBE" transform="translate(957,593)"/>
<path d="M0 0 C0.65639465 0.20540405 1.31278931 0.41080811 1.98907471 0.62243652 C51.39025606 16.14327438 99.83423167 36.4811522 144.58984375 62.60546875 C147.3885069 64.22479248 150.21689875 65.78360039 153.05224609 67.33740234 C171.38122765 77.42522565 188.88431399 88.99128226 206 101 C206.60392578 101.42023438 207.20785156 101.84046875 207.83007812 102.2734375 C224.78395417 114.07750137 241.11452588 126.80018405 257 140 C257.87325928 140.72461426 257.87325928 140.72461426 258.76416016 141.46386719 C265.41091421 146.9943581 271.91143385 152.65283249 278.26953125 158.515625 C280.4327764 160.48389956 282.61692759 162.41404002 284.82421875 164.33203125 C295.1204279 173.31750628 304.94536094 182.85810055 314.625 192.5 C315.26308594 193.13349365 315.90117188 193.7669873 316.55859375 194.41967773 C320.28928609 198.16264208 323.81778779 202.02813992 327.27197266 206.02685547 C330.05367952 209.20314183 332.97106612 212.24841371 335.875 215.3125 C340.71304824 220.45714919 345.33418248 225.6926382 349.7421875 231.21484375 C351.85530225 233.82150606 354.02896376 236.35562916 356.23388672 238.8840332 C362.97745824 246.62773828 369.24585901 254.67798679 375.41064453 262.88720703 C376.93133815 264.90872509 378.46210146 266.92215711 379.99609375 268.93359375 C403.58436407 299.96069982 424.20424917 332.99168538 442.57666016 367.34570312 C443.92878778 369.86720082 445.29708793 372.37928909 446.66796875 374.890625 C486.54021661 448.63546543 511.20505313 531.18233004 526.3125 637.375 C526.45985596 638.63546143 526.60721191 639.89592285 526.7590332 641.19458008 C527.22326783 645.45971876 527.62700627 649.72605144 528 654 C528.08613556 654.96838806 528.17227112 655.93677612 528.26101685 656.93450928 C530.04014472 677.57317849 530.36381428 698.11859205 530.31805801 718.82065964 C530.31241518 721.41397921 530.30959638 724.00729224 530.30697632 726.60061646 C530.27196993 750.43183353 530.05811019 774.14276898 527.25323486 797.83776855 C526.98469807 800.13065469 526.73121055 802.42488237 526.47998047 804.71972656 C516.75463473 892.77667072 491.28491045 977.62346082 452.39648438 1057.13964844 C451.09287659 1059.80976537 449.80323532 1062.48620626 448.515625 1065.1640625 C442.58657352 1077.37959911 435.88284016 1089.08016093 428.93066406 1100.73925781 C427.52284396 1103.11695701 426.12984265 1105.50029967 424.74902344 1107.89355469 C418.62171031 1118.48091071 412.06651893 1128.71975859 405.25 1138.875 C404.72597595 1139.65859894 404.2019519 1140.44219788 403.66204834 1141.24954224 C395.74965051 1153.07508282 387.66209321 1164.70764336 379 1176 C378.13075953 1177.15047472 377.26223932 1178.30149408 376.39453125 1179.453125 C363.55967123 1196.40482691 349.8920237 1212.73799991 335.4453125 1228.3359375 C333.43716087 1230.52373209 331.48775359 1232.7399197 329.5625 1235 C326.04844234 1239.06445223 322.22927836 1242.800787 318.40698242 1246.5715332 C315.60227988 1249.35158289 312.92142383 1252.16437598 310.375 1255.1875 C307.11410168 1259.01551107 303.45030261 1262.25630667 299.6796875 1265.57421875 C296.81511891 1268.1673632 294.08530897 1270.87336246 291.375 1273.625 C287.70402496 1277.33201546 283.98242033 1280.87933631 280.015625 1284.265625 C277.69885379 1286.25912581 275.44580016 1288.31554388 273.1875 1290.375 C268.9455915 1294.19914478 264.59448903 1297.84889455 260.15234375 1301.4375 C257.81140119 1303.33020913 255.49750788 1305.25250175 253.19140625 1307.1875 C243.50858975 1315.28982356 233.56161911 1322.91645884 223.32910156 1330.31054688 C221.11309378 1331.91796552 218.91035023 1333.54185338 216.7109375 1335.171875 C190.54455243 1354.47056079 162.65040159 1371.64707616 134 1387 C133.15356934 1387.45407227 132.30713867 1387.90814453 131.43505859 1388.37597656 C97.38065692 1406.56209683 62.41500865 1422.19065015 26 1435 C25.38334473 1435.21765015 24.76668945 1435.43530029 24.13134766 1435.6595459 C-29.58216404 1454.58928222 -85.22978101 1466.9407718 -141.8125 1473.3125 C-143.7615625 1473.53341309 -143.7615625 1473.53341309 -145.75 1473.75878906 C-150.16345128 1474.22387882 -154.57768518 1474.62993288 -159 1475 C-160.02521759 1475.08613556 -161.05043518 1475.17227112 -162.10671997 1475.26101685 C-182.08593584 1476.8851319 -201.95263688 1477.36677149 -221.98692703 1477.31805801 C-224.35471922 1477.3123991 -226.72250419 1477.30959012 -229.09030151 1477.30697632 C-253.49965483 1477.26785541 -277.71829429 1476.68473809 -302 1474 C-302.78804016 1473.91514343 -303.57608032 1473.83028687 -304.38800049 1473.74285889 C-354.49330412 1468.33736474 -403.9982355 1458.4268619 -452 1443 C-453.30352518 1442.58730345 -454.60724052 1442.1752071 -455.91113281 1441.76367188 C-507.44079695 1425.45856309 -557.32232239 1403.23592683 -604 1376 C-604.79116211 1375.54544434 -605.58232422 1375.09088867 -606.39746094 1374.62255859 C-618.19773659 1367.84076235 -629.55299574 1360.41842159 -640.875 1352.875 C-641.57115417 1352.4115921 -642.26730835 1351.9481842 -642.98455811 1351.47073364 C-656.17349267 1342.67661821 -669.09942716 1333.57750405 -681.6875 1323.9375 C-682.59177734 1323.2463208 -683.49605469 1322.5551416 -684.42773438 1321.84301758 C-693.55460296 1314.84405175 -702.39473716 1307.5462953 -711.15283203 1300.09350586 C-714.68518606 1297.09190094 -718.26473058 1294.15799783 -721.875 1291.25 C-725.58890341 1288.22943023 -729.02048903 1285.10098542 -732.34375 1281.66015625 C-734.05511835 1279.94475165 -735.84189408 1278.38202143 -737.6875 1276.8125 C-741.86570456 1273.21843278 -745.70321026 1269.32857057 -749.5703125 1265.40795898 C-752.35095071 1262.60312218 -755.16398049 1259.92175695 -758.1875 1257.375 C-762.01551107 1254.11410168 -765.25630667 1250.45030261 -768.57421875 1246.6796875 C-771.1673632 1243.81511891 -773.87336246 1241.08530897 -776.625 1238.375 C-780.33201546 1234.70402496 -783.87933631 1230.98242033 -787.265625 1227.015625 C-789.25912581 1224.69885379 -791.31554388 1222.44580016 -793.375 1220.1875 C-797.19914478 1215.9455915 -800.84889455 1211.59448903 -804.4375 1207.15234375 C-806.33020913 1204.81140119 -808.25250175 1202.49750788 -810.1875 1200.19140625 C-818.28982356 1190.50858975 -825.91645884 1180.56161911 -833.31054688 1170.32910156 C-834.91796552 1168.11309378 -836.54185338 1165.91035023 -838.171875 1163.7109375 C-853.43214168 1143.02009779 -867.07295031 1121.20809903 -880 1099 C-880.85924072 1097.52708496 -880.85924072 1097.52708496 -881.73583984 1096.02441406 C-896.85603406 1069.9551137 -910.48466305 1042.85372263 -922 1015 C-922.50450684 1013.78119141 -923.00901367 1012.56238281 -923.52880859 1011.30664062 C-932.35572065 989.86695699 -939.98800077 968.09510873 -947 946 C-947.37995117 944.80745605 -947.75990234 943.61491211 -948.15136719 942.38623047 C-968.19907345 878.83407777 -980.02374061 810.44892946 -980.203125 743.74609375 C-980.21014458 742.12610852 -980.21723142 740.50612358 -980.22438049 738.88613892 C-980.24378979 733.73658859 -980.24881441 728.58708321 -980.25 723.4375 C-980.25044186 722.56095135 -980.25088371 721.68440269 -980.25133896 720.78129196 C-980.25794029 695.82658481 -980.20114986 670.99007 -977.25646973 646.1751709 C-976.9830635 643.8563582 -976.72270583 641.53630232 -976.46386719 639.21582031 C-970.91397965 589.92584372 -961.16487277 541.26374295 -946 494 C-945.75936829 493.2499469 -945.51873657 492.4998938 -945.27081299 491.72711182 C-935.22852844 460.56019064 -923.25874097 430.31809202 -909.27490234 400.70556641 C-908.01024663 398.02174515 -906.76353239 395.33016596 -905.51953125 392.63671875 C-899.54551979 379.78796585 -892.92997555 367.35602715 -886 355 C-885.50209961 354.10748535 -885.00419922 353.2149707 -884.49121094 352.29541016 C-857.8074926 304.55154539 -825.59885941 258.98048718 -788.484375 218.73046875 C-786.51610044 216.5672236 -784.58595998 214.38307241 -782.66796875 212.17578125 C-773.68249372 201.8795721 -764.14189945 192.05463906 -754.5 182.375 C-753.86650635 181.73691406 -753.2330127 181.09882813 -752.58032227 180.44140625 C-748.83735792 176.71071391 -744.97186008 173.18221221 -740.97314453 169.72802734 C-737.79685817 166.94632048 -734.75158629 164.02893388 -731.6875 161.125 C-726.54285081 156.28695176 -721.3073618 151.66581752 -715.78515625 147.2578125 C-713.17880569 145.14495047 -710.64495685 142.97160621 -708.11694336 140.7668457 C-700.41432656 134.05957756 -692.41202349 127.82590539 -684.24511719 121.69628906 C-682.02714495 120.02050925 -679.82856013 118.32194836 -677.6328125 116.6171875 C-647.10880521 93.08648929 -613.93156516 72.43826377 -579.84863281 54.50439453 C-577.07453925 53.039365 -574.3137773 51.55164866 -571.5546875 50.05859375 C-545.22689986 35.92068721 -517.76413358 24.2529769 -489.83349609 13.69342041 C-488.1080706 13.04087184 -486.38406431 12.3845742 -484.66015625 11.72802734 C-400.25963109 -20.23827643 -308.61903234 -34.78254978 0 0 Z M-286 4 C-287.01830902 4.09474609 -287.01830902 4.09474609 -288.05718994 4.19140625 C-363.86646571 11.24685024 -439.32208776 28.93431402 -509 60 C-510.05074707 60.46744629 -511.10149414 60.93489258 -512.18408203 61.41650391 C-518.22136598 64.11786001 -524.22757587 66.88044367 -530.21386719 69.69287109 C-532.93223452 70.96820747 -535.65691449 72.22913796 -538.3828125 73.48828125 C-551.22437655 79.46013248 -563.67962218 86.01930013 -576 93 C-577.10907715 93.62793457 -578.2181543 94.25586914 -579.36083984 94.90283203 C-597.43993118 105.17621307 -614.86874486 116.21544232 -632 128 C-632.84014648 128.57621094 -633.68029297 129.15242188 -634.54589844 129.74609375 C-650.34142238 140.6175608 -665.41988136 152.38214876 -680.23095703 164.55126953 C-681.83366232 165.86378032 -683.44561218 167.16498249 -685.05859375 168.46484375 C-690.70536396 173.02230794 -696.12418587 177.76718362 -701.46484375 182.6796875 C-703.53325758 184.57281203 -705.62405876 186.42251704 -707.75 188.25 C-718.56855173 197.70268247 -728.83258988 207.7320965 -739 217.875 C-739.49436554 218.36677734 -739.98873108 218.85855469 -740.49807739 219.36523438 C-745.65831895 224.50414243 -750.72137174 229.68381411 -755.46191406 235.21679688 C-757.85361538 237.98965186 -760.37045696 240.64199834 -762.875 243.3125 C-767.28351253 248.05633869 -771.49253864 252.90369474 -775.546875 257.95703125 C-777.39137685 260.24503593 -779.25377719 262.50911101 -781.140625 264.76171875 C-798.4534043 285.47187175 -814.283416 307.37666259 -829 330 C-829.44778809 330.68690918 -829.89557617 331.37381836 -830.35693359 332.08154297 C-844.97065434 354.5989653 -857.98178054 378.00646306 -870 402 C-870.30935486 402.61635315 -870.61870972 403.2327063 -870.93743896 403.86773682 C-894.63018692 451.1275056 -912.22113898 500.73518468 -925 552 C-925.31710937 553.26618164 -925.63421875 554.53236328 -925.9609375 555.83691406 C-934.63989196 590.9885341 -939.85192339 626.95405357 -943 663 C-943.11714355 664.31355469 -943.23428711 665.62710938 -943.35498047 666.98046875 C-946.56566044 704.7262339 -946.33100215 743.26599126 -943 781 C-942.93683594 781.7198407 -942.87367188 782.4396814 -942.80859375 783.18133545 C-935.26661158 867.98473238 -913.10215228 950.25254747 -760 1203 C-758.6249602 1204.54163116 -757.24996139 1206.08329889 -755.875 1207.625 C-737.4412519 1228.18514017 -737.4412519 1228.18514017 -717.27734375 1247.00390625 C-714.67902193 1249.28133755 -712.17209465 1251.64327427 -709.65942383 1254.0144043 C-703.86797378 1259.47888873 -698.02703992 1264.7586859 -691.80078125 1269.73046875 C-689.12380127 1271.89968125 -686.51477768 1274.12849281 -683.9128418 1276.38623047 C-677.35356053 1282.07756915 -670.651409 1287.49745229 -663.70703125 1292.71386719 C-661.94356602 1294.0425192 -660.19015031 1295.3836841 -658.4375 1296.7265625 C-640.92971945 1310.07798363 -622.7710971 1322.49730619 -604 1334 C-603.24283691 1334.46792969 -602.48567383 1334.93585938 -601.70556641 1335.41796875 C-558.17864891 1362.27167657 -512.23532861 1384.24623863 -464.03210449 1401.28118896 C-462.08938235 1401.96838302 -460.1485553 1402.66069725 -458.20800781 1403.35400391 C-401.66406046 1423.41382308 -341.79103044 1435.42244028 -282 1440 C-281.33258789 1440.05113953 -280.66517578 1440.10227905 -279.97753906 1440.15496826 C-198.75258961 1446.29023702 -116.87324326 1438.67576279 91 1369 C91.91378418 1368.56236328 92.82756836 1368.12472656 93.76904297 1367.67382812 C107.52496048 1361.05529322 120.78258495 1353.62816844 134 1346 C135.45176204 1345.17046636 136.90357975 1344.34103014 138.35546875 1343.51171875 C157.18741927 1332.6735448 175.43858316 1320.78942616 193 1308 C193.75974121 1307.45134277 194.51948242 1306.90268555 195.30224609 1306.33740234 C205.89766548 1298.68167764 216.20879567 1290.76111897 226.27636719 1282.42382812 C228.71230065 1280.41159527 231.17042475 1278.4269225 233.625 1276.4375 C244.80595846 1267.25910127 255.57427268 1257.72620613 266.09130859 1247.79541016 C268.01753216 1245.98350838 269.95409431 1244.18338364 271.89453125 1242.38671875 C281.4307928 1233.55333146 290.93970965 1224.72776869 299.390625 1214.828125 C301.02586434 1212.97062012 302.73481793 1211.23393991 304.5 1209.5 C308.21199457 1205.83717092 311.60846641 1201.95893845 315 1198 C315.86367187 1197.00226563 316.72734375 1196.00453125 317.6171875 1194.9765625 C329.94231549 1180.71316663 341.85531349 1166.20720999 353 1151 C353.50321777 1150.31921387 354.00643555 1149.63842773 354.52490234 1148.93701172 C409.55899753 1074.4423887 449.73469303 989.94522597 492.75 783.5 C492.80925659 782.80872009 492.86851318 782.11744019 492.92956543 781.4052124 C494.58466596 761.71471408 495.20741092 742.07040403 495.1875 722.3125 C495.18689575 721.19582947 495.1862915 720.07915894 495.18566895 718.9286499 C495.15831036 700.20503753 494.66385102 681.65710253 493 663 C492.90878876 661.95561768 492.90878876 661.95561768 492.81573486 660.89013672 C485.56697091 578.3049248 464.83014551 497.06809947 425 412 C424.69987 411.37782593 424.39973999 410.75565186 424.09051514 410.11462402 C415.61254243 392.56384826 406.71881715 375.4018734 396.63183594 358.70800781 C395.03145803 356.05220413 393.45401989 353.38408234 391.8828125 350.7109375 C381.76774813 333.56065346 370.6272064 317.15565963 359 301 C358.45085937 300.2354248 357.90171875 299.47084961 357.3359375 298.68310547 C349.44645637 287.73374853 341.20499293 277.17228699 332.53076172 266.83496094 C330.40682437 264.28894609 328.33059241 261.70654348 326.25 259.125 C322.4302677 254.44618293 318.40870159 249.97987283 314.3203125 245.53515625 C312.42718797 243.46674242 310.57748296 241.37594124 308.75 239.25 C299.29731753 228.43144827 289.2679035 218.16741012 279.125 208 C278.63322266 207.50563446 278.14144531 207.01126892 277.63476562 206.50192261 C272.49585757 201.34168105 267.31618589 196.27862826 261.78320312 191.53808594 C259.01034814 189.14638462 256.35800166 186.62954304 253.6875 184.125 C248.94366131 179.71648747 244.09630526 175.50746136 239.04296875 171.453125 C236.75496407 169.60862315 234.49088899 167.74622281 232.23828125 165.859375 C198.11634261 137.3349313 160.87287719 112.55121682 122 91 C120.43233887 90.12988281 120.43233887 90.12988281 118.83300781 89.2421875 C46.22083273 49.15088379 -33.34168997 22.58460608 -224.1875 1.8125 C-225.47368225 1.81310425 -226.7598645 1.8137085 -228.08502197 1.81433105 C-247.47626226 1.83904364 -266.68799937 2.14854338 -286 4 Z " fill="#A328CC" transform="translate(990,40)"/>
<path d="M0 0 C11.83191547 2.73044203 22.00322327 14.50283373 28.25 24.3125 C43.85124388 51.09720979 47.80584677 85.61599005 43 116 C42.34742127 117.672233 41.68132451 119.33927151 41 121 C40.01026231 126.84148366 39.90537013 132.57673148 40.19921875 138.4765625 C40.25132004 139.66317726 40.25132004 139.66317726 40.30447388 140.87376404 C40.42243569 143.45808183 40.5533976 146.04147194 40.6875 148.625 C40.73256683 149.5210495 40.77763367 150.417099 40.82406616 151.34030151 C44.54326584 223.95733436 57.27524317 298.3097468 89.9140625 363.92578125 C90.37997803 364.86784424 90.84589355 365.80990723 91.32592773 366.78051758 C92.19864216 368.52359917 93.08984662 370.25761727 94.00415039 371.97924805 C96.88932574 377.68771041 97.85964847 382.60870052 97 389 C94.0281017 395.71907442 87.82972121 399.2916987 81.3203125 402.1953125 C70.69400188 406.259199 60.30931674 407.38075787 49 408 C49.54269531 408.49628906 50.08539062 408.99257813 50.64453125 409.50390625 C56.87277127 415.41792875 60.05169244 420.03687958 60.5 428.8125 C60.21641512 438.28896137 55.65062201 445.02993496 49.3359375 451.81640625 C45.22212987 455.66192208 40.66099295 458.85554336 36 462 C37.75340558 465.79504222 40.00163947 468.07136878 43 471 C47.77335378 476.21738669 50.31550451 480.27797447 50 487.4375 C49.00021959 494.01847217 45.27213034 497.25938032 40.14453125 501.1875 C38.04772783 502.72949705 35.94876447 504.26856129 33.84765625 505.8046875 C27.58830741 510.63013887 22.92296809 516.17504582 21.6484375 524.21875 C20.79495453 538.77288068 26.99622258 553.0750975 33.52099609 565.70654297 C39.38583258 577.18181037 40.86795343 588.95951546 37.5625 601.5625 C31.7813977 618.35812351 17.33596808 628.48657575 2 636 C-27.14920956 649.60596798 -61.83771285 656.43807883 -94 656 C-94.01458252 656.59087402 -94.02916504 657.18174805 -94.04418945 657.79052734 C-95.44497875 709.39699105 -107.44539343 758.65991941 -125 807 C-125.33 807 -125.66 807 -126 807 C-125.41275918 799.24496678 -123.642469 791.86917848 -121.7911377 784.33660889 C-113.45182306 750.25415165 -107.77340213 715.66825601 -106.4375 680.5625 C-106.39431641 679.53318359 -106.35113281 678.50386719 -106.30664062 677.44335938 C-105.79126138 664.34618212 -106.02197714 651.3315827 -106.75 638.25 C-106.81335541 637.10863586 -106.81335541 637.10863586 -106.87799072 635.94421387 C-108.84191313 601.76535511 -117.37173006 570.87828485 -132 540 C-132.32581055 539.2992334 -132.65162109 538.5984668 -132.98730469 537.87646484 C-143.70104395 514.9002126 -158.9622152 494.34761359 -174.546875 474.47265625 C-192.97827706 450.75509066 -204.43954352 426.75023709 -200.63378906 396.04541016 C-198.43209657 382.15552272 -194.62491104 368.63975688 -190.81811523 355.12207031 C-182.73971287 326.42212583 -181.06824499 299.31891143 -195.84399414 272.43579102 C-198.14442001 268.36993452 -200.58742581 264.39953737 -203.0625 260.4375 C-215.58650042 240.28591583 -221.32030495 220.51845748 -217.41015625 196.79296875 C-213.15136848 178.67840142 -203.49077041 161.94938008 -190.15625 149.1171875 C-188.13515827 147.13270975 -186.27861381 145.08825568 -184.4375 142.9375 C-181.44162294 139.44346325 -178.24298539 136.22389924 -174.96484375 132.99609375 C-173.07769256 131.07892823 -171.31314625 129.10424678 -169.5625 127.0625 C-166.35920142 123.33383127 -162.93339494 119.89060703 -159.40625 116.46875 C-157.43373466 114.4450005 -155.59129029 112.39010541 -153.75 110.25 C-149.20650579 105.01351312 -144.2596769 100.2103088 -139.31640625 95.35546875 C-135.85998765 91.93655198 -132.50735085 88.4952422 -129.3359375 84.80859375 C-126.4481042 81.45319863 -123.43186852 78.50641953 -120.125 75.5625 C-116.39899146 72.21445851 -112.76644027 68.82119453 -109.25 65.25 C-105.32784354 61.28582044 -101.24473209 57.61316296 -97 54 C-96.08992188 53.20078125 -95.17984375 52.4015625 -94.2421875 51.578125 C-74.80904354 34.63072467 -52.97645137 19.2781945 -27.75 12.6875 C-26.77522705 12.42960693 -26.77522705 12.42960693 -25.78076172 12.16650391 C-21.05829604 11.01799065 -16.8187372 10.85543788 -12 11 C-11.96132812 12.70929688 -11.96132812 12.70929688 -11.921875 14.453125 C-11.02036576 42.68332894 -3.75811377 68.3483474 15 90 C14.50371094 89.175 14.00742188 88.35 13.49609375 87.5 C-0.78006576 63.40455932 -9.49670775 36.15240024 -3 8 C-2.14886302 5.21521201 -1.17485551 2.67012616 0 0 Z M17 92 C17.33 92.99 17.66 93.98 18 95 C18 94.01 18 93.02 18 92 C17.67 92 17.34 92 17 92 Z " fill="#A52BCF" transform="translate(1215,374)"/>
<path d="M0 0 C1.02139069 0.00093658 2.04278137 0.00187317 3.09512329 0.00283813 C18.71374614 0.0338411 34.16449045 0.30008693 49.6875 2.1875 C50.32911072 2.26526672 50.97072144 2.34303345 51.6317749 2.42315674 C141.76447262 13.45010005 228.08615121 47.87183731 311.6875 121.1875 C311.3575 122.1775 311.0275 123.1675 310.6875 124.1875 C308.73583984 125.10375977 308.73583984 125.10375977 306.1484375 125.87890625 C305.18752197 126.17829102 304.22660645 126.47767578 303.23657227 126.78613281 C301.66540649 127.26324707 301.66540649 127.26324707 300.0625 127.75 C287.52714232 131.75010967 275.6230093 136.66965578 263.6875 142.1875 C262.69137695 142.64640625 261.69525391 143.1053125 260.66894531 143.578125 C216.62407571 163.99497637 175.1871319 189.62686309 136.6875 219.1875 C136.01074219 219.70570313 135.33398438 220.22390625 134.63671875 220.7578125 C125.32370409 227.90159607 116.14968958 235.15900233 107.26611328 242.83105469 C105.63304274 244.23429316 103.98795391 245.62227938 102.33984375 247.0078125 C84.84917874 261.75679156 68.78272557 277.95476265 52.6875 294.1875 C55.46248131 293.26250623 56.96971582 292.39806448 59.28515625 290.703125 C59.99422119 290.18717773 60.70328613 289.67123047 61.43383789 289.13964844 C62.19817139 288.57793945 62.96250488 288.01623047 63.75 287.4375 C64.5536499 286.85258789 65.3572998 286.26767578 66.18530273 285.66503906 C69.42464111 283.30720276 72.65805911 280.94132817 75.890625 278.57421875 C89.27139356 268.78643434 102.93688801 259.44698469 116.6875 250.1875 C117.5021875 249.63707031 118.316875 249.08664062 119.15625 248.51953125 C161.25584566 220.08768626 204.87073238 194.08977606 249.6875 170.1875 C251.2645874 169.34251953 251.2645874 169.34251953 252.87353516 168.48046875 C266.04161175 161.44690983 279.33307445 154.82610501 292.9375 148.6875 C293.56923126 148.40190216 294.20096252 148.11630432 294.85183716 147.822052 C301.82241651 144.68111576 308.84021715 141.66283354 315.921875 138.78125 C316.55522766 138.52009399 317.18858032 138.25893799 317.84112549 137.98986816 C320.63325908 136.86974095 322.64597932 136.1875 325.6875 136.1875 C327.06274414 137.49414063 327.06274414 137.49414063 328.47265625 139.34375 C328.99843262 140.02840332 329.52420898 140.71305664 330.06591797 141.41845703 C330.62166504 142.16724121 331.17741211 142.91602539 331.75 143.6875 C332.32637207 144.45562012 332.90274414 145.22374023 333.49658203 146.01513672 C355.6875 175.9774799 355.6875 175.9774799 355.6875 186.1875 C354.8625 186.16655273 354.0375 186.14560547 353.1875 186.12402344 C331.10183723 185.43698767 331.10183723 185.43698767 309.6875 190.1875 C308.64078125 190.52652344 307.5940625 190.86554688 306.515625 191.21484375 C279.29590993 200.72820188 256.10220275 219.15057204 235.34008789 238.66235352 C233.24220112 240.59845909 231.10520705 242.48887152 228.97265625 244.38671875 C223.64307066 249.17459897 218.55338875 254.17330584 213.5 259.25 C212.64986328 260.09626953 211.79972656 260.94253906 210.92382812 261.81445312 C206.51909951 266.22598441 202.25436211 270.694916 198.21557617 275.44506836 C196.61095707 277.27478022 194.92484467 278.98400632 193.1875 280.6875 C190.22034199 283.60880788 187.48691029 286.66741673 184.76953125 289.8203125 C182.12704118 292.8247196 179.40925523 295.75499309 176.6875 298.6875 C172.8568515 302.81874147 169.0748662 306.97860489 165.38671875 311.23828125 C161.87343962 315.26845661 158.27003666 319.21896612 154.6875 323.1875 C153.18721321 324.85390851 151.68721128 326.52057353 150.1875 328.1875 C141.1875 338.1875 141.1875 338.1875 138.91796875 340.70703125 C137.48016809 342.30598645 136.04506127 343.90737014 134.61328125 345.51171875 C123.10149897 358.38533849 111.20063671 370.84091473 98.97167969 383.03369141 C96.78983092 385.21011269 94.61347087 387.39192239 92.4375 389.57421875 C91.02375848 390.98730037 89.60970726 392.40007223 88.1953125 393.8125 C87.55868683 394.4511499 86.92206116 395.0897998 86.2661438 395.74780273 C53.88859814 427.95936952 12.2435368 458.38680166 -35.10180664 458.44067383 C-44.93845202 458.33378165 -55.83728952 457.62393182 -64.3125 452.1875 C-65.48095703 449.12597656 -65.48095703 449.12597656 -66.0703125 445.328125 C-66.18419815 444.64017853 -66.2980838 443.95223206 -66.41542053 443.24343872 C-66.78292239 440.97812281 -67.11084116 438.70903624 -67.4375 436.4375 C-67.68482578 434.84689032 -67.93395404 433.25655995 -68.18481445 431.66650391 C-68.93446604 426.84574042 -69.62718945 422.01775781 -70.3125 417.1875 C-70.51290124 415.80236797 -70.71357074 414.41727472 -70.91455078 413.03222656 C-83.60568992 324.36080299 -81.96920381 234.06066575 -41.14013672 32.55517578 C-37.84401035 22.3335298 -36.37019881 12.53604062 -40.3125 2.1875 C-28.18987673 -1.85337442 -12.63405647 -0.01498732 0 0 Z " fill="#BE42EB" transform="translate(866.3125,173.8125)"/>
<path d="M0 0 C1.12943491 3.38830473 0.57124473 4.69777069 -0.45703125 7.99664307 C-1.42858758 11.58133208 -1.67314245 15.23963841 -2 18.9296875 C-2.0806218 19.78466324 -2.16124359 20.63963898 -2.24430847 21.52052307 C-2.50395363 24.3046992 -2.75274756 27.08969779 -3 29.875 C-3.08682037 30.83173615 -3.17364075 31.78847229 -3.26309204 32.77420044 C-4.39994802 45.31803854 -5.42517854 57.86509017 -6.1875 70.4375 C-6.29481445 72.19392822 -6.29481445 72.19392822 -6.40429688 73.98583984 C-6.62973366 77.98953144 -6.82353885 81.9939148 -7 86 C-7.04236786 86.95531616 -7.08473572 87.91063232 -7.12838745 88.89489746 C-7.94553578 107.88827167 -8.20371529 126.86618104 -8.1875 145.875 C-8.18723312 146.58191231 -8.18696625 147.28882462 -8.18669128 148.01715851 C-8.17581978 171.06336632 -7.83883914 194.01781474 -6 217 C-5.93447937 217.83501038 -5.86895874 218.67002075 -5.80145264 219.53033447 C-0.76033636 283.45689112 6.93109111 356.89502554 40.32421875 413.01953125 C42 416 42 416 42 419 C40.58460938 419.23783203 40.58460938 419.23783203 39.140625 419.48046875 C21.61744274 422.66490247 6.11394226 429.68712437 -4.76953125 444.390625 C-12.3878276 455.74338034 -16.68105535 467.6152142 -19 481 C-22.14285616 480.40477837 -23.99245699 479.45976703 -26.43359375 477.41015625 C-27.07546631 476.87849854 -27.71733887 476.34684082 -28.37866211 475.79907227 C-29.39778687 474.93946899 -29.39778687 474.93946899 -30.4375 474.0625 C-31.88425029 472.86317494 -33.33218079 471.66527223 -34.78125 470.46875 C-35.85632813 469.57929687 -35.85632813 469.57929687 -36.953125 468.671875 C-39.73334635 466.40100718 -42.57601556 464.23029124 -45.4375 462.0625 C-56.40875209 453.68791352 -66.96293586 444.77804482 -77.46875 435.83007812 C-80.77163958 433.02096224 -84.12101096 430.27932404 -87.5 427.5625 C-92.88285937 423.1854888 -97.94271342 418.50445873 -103.01171875 413.7734375 C-105.3035841 411.63645686 -107.62758757 409.54776652 -110 407.5 C-121.77399809 397.2771356 -132.82415014 386.33391519 -143.83154297 375.29882812 C-146.3878593 372.73711354 -148.94952929 370.18083894 -151.51171875 367.625 C-153.16177933 365.97427914 -154.81152998 364.3232484 -156.4609375 362.671875 C-157.21523041 361.91960632 -157.96952332 361.16733765 -158.74667358 360.39227295 C-163.36519328 355.75348552 -167.73351521 350.96270865 -172 346 C-173.45445517 344.39231627 -174.91220895 342.78760285 -176.375 341.1875 C-181.10576093 335.93819023 -185.56997052 330.50376055 -190 325 C-190.92538408 323.86686303 -191.85118393 322.73406551 -192.77734375 321.6015625 C-204.8576142 306.75842248 -215.86066514 291.22772979 -226 275 C-226.37543945 274.40219727 -226.75087891 273.80439453 -227.13769531 273.18847656 C-250.97967138 235.01993191 -268.56478574 193.29828232 -277 149 C-277.26031006 147.63343262 -277.26031006 147.63343262 -277.52587891 146.23925781 C-278.40646264 141.47835704 -279.15561735 136.72507668 -279.73632812 131.91845703 C-279.97375535 130.19095412 -280.33141651 128.48100768 -280.703125 126.77734375 C-281.18349264 123.61492344 -281.22794562 121.96400668 -280 119 C-275.54421154 114.48426819 -270.37530103 111.31714546 -265 108 C-263.35444917 106.94820803 -261.70994513 105.89477683 -260.06640625 104.83984375 C-183.87062712 56.42944347 -98.2099508 24.72188909 -4 1 C-2.7936792 0.69835937 -2.7936792 0.69835937 -1.56298828 0.390625 C-1.04720215 0.26171875 -0.53141602 0.1328125 0 0 Z " fill="#BB40E8" transform="translate(695,188)"/>
<path d="M0 0 C1.54073117 6.10716096 3.05834566 12.21813124 4.5078125 18.34765625 C10.44813401 43.2025811 18.32718724 66.78140483 29 90 C29.68668395 91.52452076 30.37290918 93.04924824 31.05859375 94.57421875 C42.75331854 120.29968961 58.01013225 144.46737859 75 167 C75.45745605 167.60908203 75.91491211 168.21816406 76.38623047 168.84570312 C88.85236938 185.39391839 102.26087726 201.17770768 116.4140625 216.30078125 C118.07446517 218.07978411 119.72536434 219.86726156 121.375 221.65625 C136.20627889 237.70999073 136.20627889 237.70999073 152.27734375 252.49609375 C154.10430507 254.09105998 155.80059287 255.77017842 157.5 257.5 C160.48872337 260.53594925 163.61706479 263.34508659 166.84375 266.125 C169.19962958 268.17359094 171.5050746 270.27203002 173.8125 272.375 C178.10608632 276.25033743 182.53088002 279.9222131 187.02734375 283.55859375 C190.33751811 286.2771995 193.57485499 289.07095217 196.8125 291.875 C203.14383169 297.33997541 209.65720665 302.53254863 216.26757812 307.65429688 C218.53517334 309.41570961 220.79059006 311.19231673 223.0456543 312.96972656 C225.38842711 314.81548655 227.73533388 316.65595034 230.08251953 318.49609375 C231.40963705 319.53697024 232.73609089 320.57869328 234.06201172 321.62109375 C244.80241074 330.0594567 255.68467762 338.27490574 266.71484375 346.33056641 C269.70043872 348.5117094 272.68081984 350.69992016 275.66137695 352.88793945 C278.43964519 354.92703233 281.21973417 356.9636319 284 359 C283.67 359.66 283.34 360.32 283 361 C282.14921875 360.60433838 281.2984375 360.20867676 280.421875 359.80102539 C232.60263805 337.59994188 183.91852922 317.72471546 134.32696533 299.8392334 C132.78842373 299.28434954 131.25012979 298.72877844 129.71209717 298.17248535 C83.41364526 281.42891513 36.3102525 267.54558219 -11 254 C-9.81601372 254.43208267 -9.81601372 254.43208267 -8.60810852 254.87289429 C8.23683739 261.02425818 25.06508305 267.21166502 41.8125 273.625 C42.7956015 274.00129547 43.778703 274.37759094 44.79159546 274.76528931 C86.17538732 290.63525682 126.8924006 308.13922097 167 327 C167.95406738 327.44811035 168.90813477 327.8962207 169.89111328 328.35791016 C197.40859151 341.32580924 224.84389868 354.71331841 251.40136719 369.55957031 C255.39495321 371.7732266 259.41768806 373.93213624 263.43896484 376.0949707 C266.51221607 377.75170039 269.57708533 379.42305339 272.640625 381.09765625 C275.77237899 382.80722677 278.91269251 384.4740453 282.109375 386.05859375 C283.18703125 386.61675781 284.2646875 387.17492187 285.375 387.75 C286.24898437 388.17796875 287.12296875 388.6059375 288.0234375 389.046875 C290.32975945 391.32584926 290.49862096 392.50063261 291.12353516 395.62207031 C291.29132477 396.43975891 291.45911438 397.25744751 291.63198853 398.09991455 C291.75343231 398.72694275 291.8748761 399.35397095 292 400 C269.99943565 393.95879004 248.11724767 387.51417058 226.22882843 381.08127975 C223.14676939 380.17553017 220.06457603 379.27023881 216.98236084 378.36502075 C185.72292123 369.18300403 154.48701205 359.92906494 123.29931641 350.50585938 C116.22237672 348.3676138 109.14338805 346.23620284 102.06412888 344.1056509 C94.49009509 341.82603887 86.91684704 339.54382823 79.34408951 337.2599802 C74.69867787 335.85898728 70.0530671 334.45866761 65.40679932 333.06051636 C32.41289131 323.12971987 -0.59444635 313.1279268 -33.1875 301.9375 C-34.01447388 301.6545105 -34.84144775 301.371521 -35.69348145 301.07995605 C-116.26430671 273.43291745 -116.26430671 273.43291745 -127.3359375 252.01171875 C-128.98188296 247.02547222 -129.04351134 241.71216772 -127.15234375 236.796875 C-125.9232476 234.68032976 -124.57313628 232.87462186 -123 231 C-122.46503906 230.34386719 -121.93007813 229.68773437 -121.37890625 229.01171875 C-117.79466644 225.04207681 -114.6725054 222.81352327 -109.67927551 220.82688904 C-106.31334275 219.36139033 -103.42135525 217.80830398 -101 215 C-98.9027575 209.56340091 -99.43779765 203.48472829 -99.68936157 197.76144409 C-99.85548587 193.95170128 -99.86656706 190.14611183 -99.88761902 186.33326721 C-99.89998635 184.45253162 -99.92027291 182.57183056 -99.94868469 180.69126892 C-100.65663494 132.08496028 -78.40624035 85.47353322 -49 48 C-48.25363281 47.03964844 -47.50726563 46.07929688 -46.73828125 45.08984375 C-34.98171082 30.33436996 -21.469857 16.10206222 -7 4 C-6.05125 3.195625 -5.1025 2.39125 -4.125 1.5625 C-2 0 -2 0 0 0 Z " fill="#B136DD" transform="translate(391,327)"/>
<path d="M0 0 C5.47418419 0.53288519 10.34748819 1.52254598 15.5 3.5 C16.18360596 3.76135742 16.86721191 4.02271484 17.5715332 4.29199219 C47.87155324 16.33301993 70.63242673 39.49748284 84 69 C95.50184349 96.53223992 96.55756301 130.28350894 85.39453125 158.08984375 C83.71366265 162.11694442 81.8924022 166.06847285 80 170 C79.29037109 171.48306641 79.29037109 171.48306641 78.56640625 172.99609375 C69.9439231 189.82581299 55.26502523 206.26075997 39 216 C37.94554687 216.65226562 36.89109375 217.30453125 35.8046875 217.9765625 C8.55363085 234.4587133 -24.03011973 239.99323843 -55.19921875 232.99609375 C-89.44218552 224.02183216 -116.21169035 204.3611601 -134.85400391 173.97802734 C-145.47412079 155.64735265 -150.41401815 134.34415914 -150.3125 113.3125 C-150.30686035 112.08225098 -150.3012207 110.85200195 -150.29541016 109.58447266 C-149.84873591 75.95122854 -135.76171674 45.21554042 -111.84179688 21.69921875 C-106.33034379 16.6144211 -100.23012536 12.16108004 -94 8 C-93.37577148 7.57364258 -92.75154297 7.14728516 -92.10839844 6.70800781 C-87.64248288 3.86303659 -87.64248288 3.86303659 -84.984375 4.4296875 C-84.32953125 4.94789063 -83.6746875 5.46609375 -83 6 C-81.97390625 6.76570312 -80.9478125 7.53140625 -79.890625 8.3203125 C-79.30893555 8.76955078 -78.72724609 9.21878906 -78.12792969 9.68164062 C-63.02421402 21.29021669 -46.58028785 29.96248899 -27 28 C-19.37577156 26.36205834 -12.96254646 23.10273766 -8 17 C-4.7674644 11.571644 -2.30180879 5.87283926 0 0 Z " fill="#9117B9" transform="translate(848,848)"/>
<path d="M0 0 C0.81457169 -0.00807175 1.62914337 -0.01614349 2.46839905 -0.02445984 C4.1819552 -0.0382144 5.89553776 -0.04897463 7.60913086 -0.05688477 C9.34977328 -0.06842943 11.09037963 -0.08892042 12.83081055 -0.1184082 C15.36661439 -0.16127428 17.90137801 -0.17727465 20.4375 -0.1875 C21.20545395 -0.20500809 21.9734079 -0.22251617 22.76463318 -0.24055481 C28.27983949 -0.21867938 32.75650993 0.9835123 37.28515625 4.23828125 C40.42132634 8.16395154 41.61178938 11.65720188 41.125 16.67578125 C40.33724575 23.22860072 38.28629878 29.3467103 36.28515625 35.61328125 C18.81564945 91.95033832 9.14033264 150.53337745 4.28515625 209.23828125 C4.22457031 209.95302612 4.16398438 210.667771 4.1015625 211.4041748 C0.55861987 253.46923744 0.33369398 297.1379132 4.1015625 339.1862793 C4.29803548 341.3822306 4.48692435 343.57877195 4.67578125 345.77539062 C7.52990032 378.49602996 12.24655767 410.96763031 18.92138672 443.12988281 C19.28515625 445.23828125 19.28515625 445.23828125 19.28515625 448.23828125 C15.81730217 446.94777471 12.8334705 445.42070274 9.72265625 443.42578125 C1.86451492 438.63850347 -6.39620749 435.17183684 -15.4609375 433.5 C-31.24630962 424.66347453 -37.90903652 388.54258171 -42.71484375 372.23828125 C-53.75164742 332.86716541 -59.25893732 291.8664502 -62.46484375 251.17578125 C-62.5240097 250.42696686 -62.58317566 249.67815247 -62.64413452 248.90664673 C-64.17926882 229.10656403 -64.87513055 209.31808174 -64.8828125 189.4609375 C-64.88604579 187.43346638 -64.88941118 185.40599548 -64.89289856 183.37852478 C-64.89882814 179.15411848 -64.90074521 174.92973242 -64.90014648 170.70532227 C-64.90006579 166.46602052 -64.90692909 162.22682814 -64.9206543 157.98754883 C-65.03111973 123.27720727 -64.10278247 88.77381685 -60.96484375 54.19213867 C-60.70501539 51.31702622 -60.45950478 48.44089276 -60.21484375 45.56445312 C-60.04898291 43.67831438 -59.88235004 41.79224332 -59.71484375 39.90625 C-59.64394531 39.07401413 -59.57304688 38.24177826 -59.5 37.38432312 C-58.08264787 22.06202008 -58.08264787 22.06202008 -54.65234375 17.48828125 C-53.68296875 16.74578125 -52.71359375 16.00328125 -51.71484375 15.23828125 C-51.09738281 14.75875 -50.47992187 14.27921875 -49.84375 13.78515625 C-35.74829178 3.54331872 -17.12248937 0.16426786 0 0 Z " fill="#BE42EB" transform="translate(769.71484375,174.76171875)"/>
</svg>
