<?xml version="1.0" encoding="UTF-8" standalone="no"?>
<!-- Created with Inkscape (http://www.inkscape.org/) -->

<svg
   width="271.95016mm"
   height="271.96176mm"
   viewBox="0 0 271.95016 271.96176"
   version="1.1"
   id="svg14445"
   inkscape:version="1.2.2 (1:1.2.2+202305151914+b0a8486541)"
   sodipodi:docname="aHermes.svg"
   xmlns:inkscape="http://www.inkscape.org/namespaces/inkscape"
   xmlns:sodipodi="http://sodipodi.sourceforge.net/DTD/sodipodi-0.dtd"
   xmlns:xlink="http://www.w3.org/1999/xlink"
   xmlns="http://www.w3.org/2000/svg"
   xmlns:svg="http://www.w3.org/2000/svg">
  <sodipodi:namedview
     id="namedview14447"
     pagecolor="#ffffff"
     bordercolor="#000000"
     borderopacity="0.25"
     inkscape:showpageshadow="2"
     inkscape:pageopacity="0.0"
     inkscape:pagecheckerboard="0"
     inkscape:deskcolor="#d1d1d1"
     inkscape:document-units="mm"
     showgrid="false"
     inkscape:zoom="0.19531951"
     inkscape:cx="440.30419"
     inkscape:cy="491.50235"
     inkscape:window-width="1280"
     inkscape:window-height="691"
     inkscape:window-x="2493"
     inkscape:window-y="178"
     inkscape:window-maximized="0"
     inkscape:current-layer="layer1" />
  <defs
     id="defs14442">
    <linearGradient
       inkscape:collect="always"
       xlink:href="#linearGradient627"
       id="linearGradient629"
       x1="516.36475"
       y1="-2538.1545"
       x2="2383.563"
       y2="-1288.1007"
       gradientUnits="userSpaceOnUse"
       gradientTransform="translate(-3276.392,5648.8869)" />
    <linearGradient
       inkscape:collect="always"
       id="linearGradient627">
      <stop
         style="stop-color:#19dff3;stop-opacity:1;"
         offset="0"
         id="stop623" />
      <stop
         style="stop-color:#19dff3;stop-opacity:1;"
         offset="0.33829248"
         id="stop1272" />
      <stop
         style="stop-color:#5460c2;stop-opacity:1;"
         offset="1"
         id="stop625" />
    </linearGradient>
  </defs>
  <g
     inkscape:label="Layer 1"
     inkscape:groupmode="layer"
     id="layer1"
     transform="translate(64.360767,-29.440748)">
    <g
       id="g6139"
       transform="matrix(0.11864336,0,0,0.11864336,274.37433,-252.07322)">
      <path
         id="path6056"
         style="fill:#1e1d1e;stroke-width:78.288;stroke-linecap:round;stroke-linejoin:round;paint-order:stroke fill markers"
         d="M -564.76559,3518.9064 A 1144.2219,1144.2216 0 0 1 -1708.9871,4663.1276 1144.2219,1144.2216 0 0 1 -2853.2093,3518.9064 1144.2219,1144.2216 0 0 1 -1708.9871,2374.6849 1144.2219,1144.2216 0 0 1 -564.76559,3518.9064 Z" />
      <path
         style="fill:url(#linearGradient629);fill-opacity:1"
         d="m -1744.5261,4664.1761 c -54.0999,-1.5186 -98.5533,-5.9334 -155.9173,-15.4845 -184.0141,-30.6384 -362.1717,-108.6582 -510.2645,-223.4583 -39.4961,-30.617 -71.4182,-58.861 -108.8995,-96.3519 -26.8528,-26.8597 -44.1325,-45.501 -64.5054,-69.5883 -103.0634,-121.8539 -180.0757,-264.7188 -224.7866,-417 -25.2684,-86.0615 -40.0297,-172.5403 -45.1484,-264.5 -1.3585,-24.4062 -1.364,-94.5685 -0.01,-118.5 8.9953,-158.9003 46.3728,-303.6786 114.5626,-443.7463 100.1924,-205.8042 261.5242,-378.1698 460.4684,-491.961 152.4269,-87.1845 317.3844,-136.7605 497.5,-149.5178 24.495,-1.7349 123.4484,-1.7207 145,0.021 78.8512,6.3719 139.5991,15.9241 204.2485,32.1168 234.4784,58.7296 442.59425,188.1555 598.31915,372.0909 78.7961,93.0705 143.6604,200.9515 189.07,314.4574 70.0422,175.0775 95.9619,366.7984 74.8357,553.5392 -10.5409,93.1739 -31.9371,183.0632 -64.7439,272 -24.7796,67.1757 -62.6064,144.1897 -101.1805,206 -113.3809,181.6788 -275.02645,328.1872 -465.54895,421.9531 -132.4075,65.1645 -271.5225,103.4207 -418.3131,115.0348 -20.2768,1.6043 -89.9868,4.2099 -98.6869,3.6887 -1.1,-0.066 -12.8,-0.423 -26,-0.7936 z m 111.5,-65.3156 c 107.867,-8.443 205.7426,-29.6136 300,-64.8904 131.0442,-49.0448 244.7389,-117.8194 348.95715,-211.0867 19.647,-17.5825 63.6178,-61.6033 80.4987,-80.5903 89.4431,-100.6021 156.801,-210.5093 204.681,-333.9756 68.3688,-176.3004 89.1096,-371.492 59.3545,-558.5861 -50.7896,-319.355 -239.2258,-597.1624 -517.21465,-762.518 -138.6431,-82.4688 -302.3372,-135.1054 -458.2767,-147.3609 -51.8314,-4.0735 -111.663,-5.1208 -152,-2.6607 -152.1467,9.2791 -289.7469,45.4767 -422.5,111.1442 -171.4259,84.7974 -316.416,212.5877 -422.0201,371.9571 -101.8248,153.6661 -163.0504,331.2186 -177.4156,514.5 -4.4434,56.6928 -3.8679,128.677 1.4752,184.5 4.3592,45.5438 13.6548,103.654 22.5551,141 27.7612,116.4875 67.3645,215.0548 126.0126,313.629 70.851,119.0843 167.6821,226.6948 279.3928,310.4949 147.3839,110.5606 318.2609,181.0236 501.5,206.799 28.2795,3.978 62.237,7.2115 95,9.0463 24.1856,1.3544 106.0675,0.4715 130,-1.4018 z m -89.5,-125.5225 c -22.2965,-2.6368 -42.1909,-13.2169 -55.893,-29.7246 -10.3779,-12.5029 -17.5316,-29.9059 -19.6185,-47.7266 -1.902,-16.2418 0.492,-31.1074 7.4272,-46.1176 9.4233,-20.3954 29.9668,-37.6298 51.6176,-43.3029 l 7.4667,-1.9565 -0.1488,-7.3583 c -0.2187,-10.8085 -9.5909,-127.2304 -10.312,-128.0961 -0.7433,-0.8922 -25.7722,11.2302 -35.5392,17.213 -37.0163,22.6743 -92.9523,74.1869 -127.0738,117.0247 -17.0447,21.3988 -27.9878,34.2047 -45.5525,53.3066 -17.7614,19.3158 -26.1055,29.0311 -52.8737,61.5629 -23.1272,28.1067 -22.771,27.6929 -23.3433,27.1205 -0.7651,-0.7651 3.8802,-11.0394 18.3068,-40.49 13.236,-27.02 16.5352,-34.1667 23.5434,-51 16.5767,-39.8162 28.338,-63.4725 48.4743,-97.5 21.3237,-36.0341 31.902,-51.562 50.4123,-74 12.741,-15.4445 30.2955,-32.3977 47.4437,-45.8187 5.8674,-4.5922 5.8983,-4.5422 -3.8372,-6.2138 -11.7559,-2.0186 -38.4237,-8.7525 -51.5797,-13.0244 -29.4234,-9.5542 -71.2637,-25.8197 -87.7858,-34.1269 -24.9707,-12.555 -49.8013,-32.7686 -61.0635,-49.7094 -22.5661,-33.9442 -14.2082,-73.6678 23.3778,-111.1101 13.7556,-13.7031 26.3988,-23.4533 45.5225,-35.1064 l 12.4883,-7.6096 -6.1265,-0.6404 c -3.3696,-0.3521 -8.5124,-0.6403 -11.4286,-0.6403 -7.6007,0 -27.5472,-2.7505 -36.9045,-5.0888 -22.699,-5.6725 -45.1767,-15.8428 -57.2274,-25.8932 -30.9444,-25.808 -35.0213,-73.0854 -10.1247,-117.4085 13.3404,-23.7497 28.1675,-42.8171 49.4815,-63.632 33.9325,-33.138 69.3695,-56.5464 137.1616,-90.6039 18.3389,-9.2131 27.6609,-14.3952 26.5,-14.7313 -0.9851,-0.2851 -7.866,-2.159 -15.291,-4.1642 -48.6593,-13.141 -140.7863,-41.3355 -203,-62.1259 -127.1791,-42.5005 -211.2323,-100.2894 -233.0364,-160.219 -8.3956,-23.0758 -10.5219,-42.8026 -7.9368,-73.6332 2.0889,-24.9112 5.0131,-37.6509 11.7007,-50.9752 8.144,-16.226 15.9629,-25.7459 31.2725,-38.0758 14.9183,-12.0148 23.1962,-16.091 44.5783,-21.9512 18.373,-5.0354 32.5338,-6.7353 53.9217,-6.4728 14.1898,0.1741 19.1574,-0.1226 23.4679,-1.402 9.2203,-2.7367 37.0692,-1.8048 59.5321,1.9922 28.0871,4.7477 58.8806,16.2554 79,29.5228 21.6337,14.2659 40.9061,41.2993 44.1021,61.862 0.3847,2.475 2.6556,9.675 5.0464,16 2.3909,6.325 4.348,12.0425 4.3493,12.7056 0,1.403 -3.63,0.25 -13.9978,-4.4427 -3.575,-1.6182 -10.775,-4.155 -16,-5.6374 -5.225,-1.4824 -12.65,-4.1911 -16.5,-6.0194 -8.0542,-3.8248 -26.7444,-16.0232 -41.1093,-26.8307 -30.1784,-22.7049 -54.949,-35.7128 -90.2378,-47.3871 l -16.6529,-5.5091 -20.5,0.018 c -11.275,0.01 -22.8716,0.4772 -25.7703,1.0383 -11.8656,2.2969 -32.39,9.0564 -40.5578,13.3573 -6.9103,3.6387 -23.6952,19.1842 -27.2343,25.2232 -4.7798,8.1561 -8.4386,19.9946 -8.4257,27.2626 0.015,8.7618 5.0568,30.509 8.9255,38.5023 5.9298,12.2517 20.6803,28.7613 35.1572,39.35 5.7934,4.2373 7.9054,6.3795 7.9054,8.0183 0,2.9613 3.8257,9.3506 5.5988,9.3506 1.8314,0 1.7941,-3.0983 -0.067,-5.5589 -2.7744,-3.668 -1.5141,-3.3318 6.7182,1.7923 16.0539,9.9925 80.4217,39.4701 123.25,56.443 32.7578,12.982 100.4251,33.8489 169.5,52.2695 10.725,2.8601 20.175,5.4231 21,5.6956 4.4166,1.4584 59.8815,16.3501 88.5,23.7613 18.15,4.7002 36.9375,9.6398 41.75,10.9769 5.88,1.6338 8.7492,2.0522 8.7476,1.2757 0,-0.6355 -2.0239,-37.076 -4.4946,-80.979 -5.3575,-95.1982 -12.1536,-222.0458 -13.0555,-243.6764 l -0.6462,-15.5 5.0504,-22 c 6.6419,-28.9324 8.6873,-39.4389 10.61,-54.5 0.8777,-6.875 2.4849,-19.475 3.5715,-28 1.0866,-8.525 2.4201,-17.75 2.9633,-20.5 1.0342,-5.2353 4.4258,-48.687 5.5419,-71 0.385,-7.6976 0.175,-17.8945 -0.5149,-25 -2.275,-23.4322 -10.5773,-60.5 -16.9582,-75.7141 -2.142,-5.1073 -7.9961,-18.9358 -13.0091,-30.7301 -11.0713,-26.0479 -11.8914,-30.6642 -7.7112,-43.4063 1.4165,-4.3177 3.9273,-9.9571 5.5795,-12.5319 4.3886,-6.839 9.6867,-18.7397 11.9025,-26.7359 l 1.9353,-6.9838 -13.6311,2.2585 c -7.4972,1.2422 -14.7562,2.2777 -16.1312,2.301 -4.0471,0.069 -27.4693,16.521 -37.0756,26.0426 -13.2005,13.084 -13.4578,13.5423 -15.8414,28.2184 -4.328,26.6476 -13.0076,61.2428 -20.7693,82.7816 -12.8784,35.7382 -46.7185,94.2719 -80.2656,138.8365 -15.0284,19.964 -23.8551,30.1311 -32.5896,37.5382 -12.5865,10.6738 -31.0243,21.7028 -38.6842,23.1398 -4.767,0.8943 -6.3734,-1.6552 -4.9309,-7.8257 1.2328,-5.2737 12.1612,-34.2791 21.9239,-58.1888 7.543,-18.4736 7.5503,-19.349 0.092,-11 -17.9787,20.1249 -49.7511,50.7481 -54.5426,52.5698 -1.2398,0.4714 -6.2057,3.3861 -11.0353,6.4771 -14.0213,8.9738 -49.7634,25.5788 -67.2811,31.2573 -14.8562,4.8157 -44.4191,8.7527 -47.365,6.3078 -6.6935,-5.5551 1.9087,-27.8521 19.0235,-49.3087 2.9378,-3.6831 5.3415,-6.9207 5.3415,-7.1946 0,-0.2739 -3.9375,1.8204 -8.75,4.654 -21.0684,12.4053 -59.8714,26.946 -100.75,37.754 -9.6209,2.5437 -43.3237,4.6832 -46.5525,2.9552 -5.2589,-2.8145 -0.056,-13.8413 12.7857,-27.0956 8.7031,-8.983 15.0471,-14.1112 58.2668,-47.1001 9.075,-6.9268 18.075,-14.0192 20,-15.7609 3.3545,-3.0349 3.1466,-2.9802 -5,1.3153 -15.1854,8.0071 -34.2621,17.3231 -45.2112,22.0786 -13.2849,5.77 -37.0378,11.4541 -51.3013,12.2765 -11.8941,0.6858 -66.7873,-1.2897 -77.4875,-2.7886 -11.7926,-1.6519 -38.6205,-7.7505 -48.4119,-11.0052 -10.8664,-3.6119 -26.4537,-10.981 -28.8662,-13.6467 -1.7131,-1.893 -1.6167,-2.1686 2.9241,-8.3514 6.8385,-9.3115 15.633,-18.2119 25.7646,-26.0749 8.2567,-6.4079 13.5989,-9.375 32.0894,-17.8231 37.7476,-17.2464 94.8189,-55.899 134.9936,-91.4269 64.2819,-56.8468 92.306,-85.298 110.3861,-112.0689 8.5226,-12.6192 10.4313,-15.9651 19.4939,-34.172 16.6605,-33.4712 17.2263,-34.9851 20.5021,-54.8526 3.8506,-23.3545 7.8061,-33.6871 21.6117,-56.4546 7.5332,-12.4233 11.9113,-18.1962 21.4105,-28.2315 21.0548,-22.2429 47.6757,-40.8341 69.6021,-48.6078 14.4815,-5.1342 21.4704,-6.3555 39.5,-6.9027 27.3623,-0.8303 45.6445,2.9007 61.9426,12.641 10.25,6.1258 27.2301,20.1894 42.9038,35.5346 15.4754,15.1511 23.575,25.1015 30.855,37.906 3.6765,6.4663 7.4084,10.8585 18.1538,21.3657 7.4393,7.2743 13.6643,13.0878 13.8333,12.9188 0.1689,-0.169 -0.8225,-3.6286 -2.2032,-7.688 -4.4298,-13.0243 -5.91,-22.3929 -5.9181,-37.4569 -0.011,-20.0896 3.2047,-33.4433 12.3269,-51.1944 15.5575,-30.2735 43.996,-51.7638 80.7674,-61.034 10.5019,-2.6475 11.6925,-2.7324 38.3385,-2.7324 26.646,0 27.8366,0.085 38.3385,2.7324 36.7714,9.2702 65.2099,30.7605 80.7674,61.034 9.1222,17.7511 12.3376,31.1048 12.3269,51.1944 -0.01,15.064 -1.4883,24.4326 -5.9181,37.4569 -1.3807,4.0594 -2.3721,7.519 -2.2032,7.688 0.169,0.169 6.394,-5.6445 13.8333,-12.9188 10.7454,-10.5072 14.4773,-14.8994 18.1538,-21.3657 7.28,-12.8045 15.3796,-22.7549 30.8551,-37.906 15.6737,-15.3452 32.6538,-29.4088 42.9038,-35.5346 16.298,-9.7403 34.5802,-13.4713 61.9425,-12.641 18.0296,0.5472 25.0185,1.7685 39.5,6.9027 21.9264,7.7737 48.5473,26.3649 69.6021,48.6078 9.4993,10.0353 13.8774,15.8082 21.4105,28.2315 13.8056,22.7675 17.7611,33.1001 21.6118,56.4546 3.2757,19.8675 3.8415,21.3814 20.502,54.8526 9.0626,18.2069 10.9713,21.5528 19.4939,34.172 18.0802,26.7709 46.1042,55.2221 110.3862,112.0689 40.1747,35.5279 97.246,74.1805 134.99355,91.4269 18.4906,8.4481 23.8327,11.4152 32.0895,17.8231 10.1315,7.863 18.926,16.7634 25.7645,26.0749 4.5408,6.1828 4.6373,6.4584 2.9241,8.3514 -2.4124,2.6657 -17.9998,10.0348 -28.8661,13.6467 -9.7915,3.2547 -36.6193,9.3533 -48.412,11.0052 -10.70015,1.4989 -65.59325,3.4744 -77.48745,2.7886 -14.2635,-0.8224 -38.0164,-6.5065 -51.3013,-12.2765 -10.9492,-4.7555 -30.0259,-14.0715 -45.2113,-22.0786 -8.1466,-4.2955 -8.3545,-4.3502 -5,-1.3153 1.925,1.7417 10.925,8.8341 20,15.7609 43.2199,32.9889 49.5639,38.1171 58.2669,47.1001 12.8414,13.2543 18.0447,24.2811 12.7858,27.0956 -3.2289,1.728 -36.9318,-0.4115 -46.5527,-2.9552 -40.8786,-10.808 -79.6816,-25.3487 -100.75,-37.754 -4.8125,-2.8336 -8.75,-4.9279 -8.75,-4.654 0,0.2739 2.4037,3.5115 5.3416,7.1946 10.3428,12.9668 16.2109,23.2997 19.7629,34.7996 2.1146,6.8463 1.8329,12.3742 -0.7394,14.5091 -2.946,2.4449 -32.5089,-1.4921 -47.3651,-6.3078 -17.5177,-5.6785 -53.2597,-22.2835 -67.2811,-31.2573 -4.8296,-3.091 -9.7955,-6.0057 -11.0353,-6.4771 -4.7915,-1.8217 -36.5638,-32.4449 -54.5425,-52.5698 -7.4587,-8.349 -7.4514,-7.4736 0.092,11 9.7627,23.9097 20.6911,52.9151 21.9239,58.1888 1.4425,6.1705 -0.1639,8.72 -4.9309,7.8257 -7.66,-1.437 -26.0977,-12.466 -38.6842,-23.1398 -31.4284,-26.6521 -94.3234,-124.947 -112.8556,-176.3747 -7.7616,-21.5388 -16.4413,-56.134 -20.7693,-82.7816 -2.3836,-14.6761 -2.6409,-15.1344 -15.8414,-28.2184 -9.6063,-9.5216 -33.0285,-25.9738 -37.0756,-26.0426 -1.375,-0.023 -8.634,-1.0588 -16.1312,-2.301 l -13.6311,-2.2585 1.9353,6.9838 c 2.2158,7.9962 7.5139,19.8969 11.9025,26.7359 1.6522,2.5748 4.163,8.2142 5.5795,12.5319 4.1802,12.7421 3.3601,17.3584 -7.7112,43.4063 -5.013,11.7943 -10.8671,25.6228 -13.0091,30.7301 -6.3809,15.2141 -14.6832,52.2819 -16.9582,75.7141 -0.6899,7.1055 -0.8999,17.3024 -0.5149,25 1.1161,22.313 4.5077,65.7647 5.5419,71 0.5432,2.75 1.8767,11.975 2.9633,20.5 1.0866,8.525 2.6938,21.125 3.5715,28 1.9227,15.0611 3.9681,25.5676 10.61,54.5 l 5.0504,22 -0.6462,15.5 c -0.9019,21.6306 -7.698,148.4782 -13.0555,243.6764 -2.4707,43.903 -4.4933,80.3435 -4.4946,80.979 0,0.7765 2.8676,0.3581 8.7476,-1.2757 4.8125,-1.3371 23.6,-6.2767 41.75,-10.9769 28.6185,-7.4112 84.0834,-22.3029 88.5,-23.7613 0.825,-0.2725 10.275,-2.8355 21,-5.6956 69.0749,-18.4206 136.7421,-39.2875 169.5,-52.2695 42.8282,-16.9729 107.1961,-46.4505 123.25,-56.443 8.2322,-5.1241 9.4926,-5.4603 6.7182,-1.7923 -1.8611,2.4606 -1.8984,5.5589 -0.067,5.5589 1.7731,0 5.5988,-6.3893 5.5988,-9.3506 0,-1.6388 2.112,-3.781 7.9053,-8.0183 14.477,-10.5887 29.2275,-27.0983 35.1573,-39.35 3.8687,-7.9933 8.9101,-29.7405 8.9255,-38.5023 0.013,-7.268 -3.6459,-19.1065 -8.4257,-27.2626 -3.5391,-6.039 -20.324,-21.5845 -27.2343,-25.2232 -8.1678,-4.3009 -28.6922,-11.0604 -40.5578,-13.3573 -2.8987,-0.5611 -14.4953,-1.0283 -25.7703,-1.0383 l -20.5,-0.018 -16.6529,5.5091 c -35.2888,11.6743 -60.0594,24.6822 -90.2378,47.3871 -14.3649,10.8074 -33.0551,23.0059 -41.1093,26.8306 -3.85,1.8283 -11.275,4.537 -16.5,6.0195 -5.225,1.4823 -12.425,4.0192 -16,5.6373 -10.3678,4.6928 -14.0004,5.8458 -13.9978,4.4428 0,-0.6631 1.9584,-6.3806 4.3493,-12.7056 2.3908,-6.325 4.6617,-13.525 5.0464,-16 3.196,-20.5627 22.4684,-47.5961 44.1021,-61.8621 20.1194,-13.2673 50.9129,-24.775 79,-29.5227 22.4628,-3.797 50.3118,-4.729 59.5321,-1.9923 4.3105,1.2794 9.2781,1.5762 23.4679,1.402 21.3879,-0.2625 35.5487,1.4374 53.9217,6.4729 21.3821,5.8602 29.66,9.9364 44.5783,21.9511 15.3097,12.33 23.1286,21.8499 31.2726,38.0759 6.6876,13.3242 9.6118,26.064 11.7007,50.9752 2.5851,30.8306 0.4588,50.5573 -7.9368,73.6331 -21.8042,59.9297 -105.8574,117.7186 -233.0365,160.2191 -62.2137,20.7904 -154.3407,48.9849 -203,62.1259 -7.425,2.0052 -14.3059,3.8791 -15.291,4.1642 -1.1609,0.3361 8.1611,5.5182 26.5,14.7313 67.7921,34.0575 103.2291,57.4659 137.1617,90.6039 21.3139,20.8149 36.141,39.8823 49.4814,63.632 24.8966,44.3231 20.8197,91.6005 -10.1247,117.4085 -12.0508,10.0504 -34.5284,20.2207 -57.2274,25.8932 -9.3573,2.3383 -29.3038,5.0888 -36.9045,5.0888 -2.9162,0 -8.059,0.2882 -11.4286,0.6403 l -6.1264,0.6404 12.4881,7.6096 c 34.7349,21.1657 59.8072,45.6707 72.2442,70.6097 12.9779,26.0236 11.7919,52.8394 -3.3438,75.6068 -11.2622,16.9408 -36.0928,37.1544 -61.0635,49.7094 -16.5221,8.3072 -58.3624,24.5727 -87.7858,34.1269 -13.156,4.2719 -39.8238,11.0058 -51.5797,13.0244 -9.7355,1.6716 -9.7046,1.6216 -3.8372,6.2138 17.1482,13.421 34.7027,30.3742 47.4437,45.8187 18.5103,22.438 29.0886,37.9659 50.4123,74 20.1363,34.0275 31.8976,57.6838 48.4743,97.5 7.0082,16.8333 10.3074,23.98 23.5434,51 14.4266,29.4506 19.0719,39.7249 18.3068,40.49 -0.5723,0.5724 -0.2161,0.9862 -23.3433,-27.1205 -26.7682,-32.5318 -35.1123,-42.2471 -52.8737,-61.5629 -17.5647,-19.1019 -28.5078,-31.9078 -45.5525,-53.3066 -34.1215,-42.8378 -90.0575,-94.3504 -127.0738,-117.0247 -9.767,-5.9828 -34.7959,-18.1052 -35.5392,-17.213 -0.7211,0.8657 -10.0933,117.2876 -10.312,128.0961 l -0.1488,7.3583 7.4667,1.9565 c 21.6508,5.6731 42.1943,22.9075 51.6176,43.3029 4.1132,8.9024 7.0671,19.7456 7.9324,29.1176 1.3986,15.1493 -3.173,36.3477 -11.0862,51.4067 -10.3383,19.6738 -31.086,35.582 -53.4305,40.9677 -9.7005,2.3381 -31.3463,3.3958 -42.5,2.0768 z m -13.5,-119.0416 c 11.0625,-4.0776 19.9295,-5.348 33.0918,-4.741 13.5343,0.6242 19.2038,2.0689 35.8777,9.1423 6.8918,2.9237 12.6806,5.191 12.8641,5.0387 0.1834,-0.1524 -0.5364,-2.227 -1.5996,-4.6102 -2.8083,-6.2945 -10.9683,-13.3753 -20.5371,-17.8207 -10.0563,-4.6719 -13.5802,-5.2777 -30.6969,-5.2777 -17.1167,0 -20.6406,0.6058 -30.6969,5.2777 -11.3564,5.2759 -19.3151,12.8636 -21.7405,20.7271 -0.6643,2.1538 -0.3728,2.1016 7.6233,-1.3661 4.5728,-1.9831 11.6891,-4.8496 15.8141,-6.3701 z m -12.0051,-283.7533 c 0,-2.0625 -0.4419,-12.075 -0.9756,-22.25 -2.2465,-42.8297 -3.1384,-65.2098 -4.5187,-113.3954 -0.8019,-27.9924 -1.624,-51.0614 -1.827,-51.2643 -0.5705,-0.5705 -25.0979,3.1961 -46.2528,7.1031 -47.6757,8.8049 -78.493,17.232 -105.9208,28.9644 -41.5947,17.7925 -75.1034,42.7538 -85.3679,63.5922 -7.7454,15.7241 -6.6812,22.1522 5.8515,35.3458 13.0829,13.773 34.8645,25.2297 69.0164,36.3012 27.1182,8.7913 37.9119,10.3092 95,13.36 18.0956,0.9671 61.5814,4.5803 65,5.4009 0.825,0.1981 3.4125,0.4123 5.75,0.4761 l 4.25,0.116 -0.01,-3.75 z m 116.2522,0.7902 c 11.4109,-1.0776 29.6359,-2.4348 40.5,-3.0162 57.3764,-3.0702 68.1094,-4.5775 95.2529,-13.377 34.1519,-11.0715 55.9334,-22.5282 69.0164,-36.3012 12.5327,-13.1936 13.5968,-19.6217 5.8515,-35.3458 -10.2645,-20.8384 -43.7732,-45.7997 -85.3679,-63.5922 -27.4278,-11.7324 -58.2451,-20.1595 -105.9208,-28.9644 -21.1549,-3.907 -45.6823,-7.6736 -46.2528,-7.1031 -0.203,0.2029 -1.0251,23.2719 -1.827,51.2643 -1.3803,48.1856 -2.2722,70.5657 -4.5187,113.3954 -0.5337,10.175 -0.9727,20.2521 -0.9756,22.3936 l -0.01,3.8936 6.75,-0.6439 c 3.7125,-0.3541 16.0862,-1.5255 27.4971,-2.6031 z m -246.7471,-253.6078 c 23.5743,-1.5603 79.9602,-3.3799 105.75,-3.4125 l 15.75,-0.02 v -5.25 c 0.01,-26.3203 -6.0771,-175.1593 -7.204,-176.2863 -0.6181,-0.6181 -31.6286,12.4145 -58.4104,24.5478 -35.5162,16.0903 -81.07,41.093 -109.5148,60.1083 -23.7323,15.865 -51.231,41.2194 -65.7892,60.659 -6.5052,8.6864 -13.4308,20.8718 -12.7987,22.5189 1.3714,3.5738 18.7558,10.4856 32.9213,13.0889 35.9266,6.6027 51.2386,7.2266 99.2947,4.0458 z m 419,-0.5524 c 19.4305,-2.5464 30.1112,-4.536 37.7947,-7.0403 7.5139,-2.4491 17.7302,-7.741 18.4213,-9.542 0.6321,-1.6471 -6.2935,-13.8325 -12.7987,-22.5189 -14.5582,-19.4396 -42.0569,-44.794 -65.7892,-60.659 -28.4448,-19.0153 -73.9986,-44.018 -109.5148,-60.1083 -26.7818,-12.1333 -57.7923,-25.1659 -58.4104,-24.5478 -1.1269,1.127 -7.2092,149.966 -7.204,176.2863 v 5.25 l 15.75,0.02 c 26.2026,0.033 82.3527,1.8656 106.2485,3.4674 12.3758,0.8296 25.2015,1.6608 28.5015,1.8472 10.9999,0.6212 31.8324,-0.4667 47,-2.4545 z M -2134.3839,2937.4 c 8.3282,-5.085 19.5782,-12.8324 25,-17.2165 5.4218,-4.3841 13.2328,-10.5212 17.3578,-13.6381 15.7702,-11.9159 37.7576,-34.6551 47.8564,-49.4926 4.4776,-6.5787 24.5155,-41.7617 32.0417,-56.2597 3.4262,-6.6 6.7956,-12.5788 7.4876,-13.2862 1.025,-1.0478 2.9124,-0.9974 10.1862,0.2723 5.2648,0.919 10.7374,1.2877 13.3378,0.8987 4.053,-0.6064 4.346,-0.5071 3.6206,1.2277 -0.434,1.0381 -1.3971,5.2625 -2.1402,9.3875 -6.2844,34.8869 -21.344,78.6096 -40.8334,118.5518 -5.1129,10.4785 -9.6396,20.1535 -10.0593,21.5 l -0.7632,2.4482 2.2849,-2 c 4.0277,-3.5254 13.6308,-16.1299 19.4224,-25.4927 11.6013,-18.7549 22.7177,-44.2707 30.4486,-69.8897 2.216,-7.3435 5.3464,-15.8867 6.9564,-18.9848 3.3889,-6.521 6.3627,-16.0584 9.4741,-30.3844 l 2.2012,-10.1351 7.9473,-2.7867 c 4.3711,-1.5326 10.0931,-4.1204 12.7157,-5.7507 l 4.7682,-2.9641 0.9733,3.6941 c 3.6951,14.0246 3.4471,28.5492 -0.9556,55.9658 -2.2589,14.0664 -2.4493,17.6421 -0.8879,16.6771 3.3072,-2.044 9.3147,-24.142 10.9341,-40.2205 0.5943,-5.9006 1.8291,-13.4283 2.7439,-16.7283 1.1701,-4.2207 1.6911,-10.3 1.757,-20.5 0.087,-13.5034 0.27,-14.8437 2.6599,-19.5 3.572,-6.9593 5.3969,-13.8607 7.7732,-29.3958 3.3707,-22.0358 2.5189,-33.7993 -3.3832,-46.7242 -7.5204,-16.4687 -25.3637,-24.2354 -52.9877,-23.0639 -22.9455,0.973 -32.3001,4.2938 -42.1911,14.9772 -6.085,6.5725 -10.4957,14.5864 -12.3439,22.4277 -2.2577,9.579 0.4646,17.391 10.3681,29.7525 3.0728,3.8355 5.5869,7.323 5.5869,7.75 0,0.4271 0.616,0.7765 1.3689,0.7765 1.0413,0 1.4798,-2.4917 1.8319,-10.4094 0.4283,-9.6307 0.7644,-11.0377 4.4926,-18.8076 7.8121,-16.2808 11.8508,-18.7564 31.8066,-19.4966 11.8315,-0.4388 13.5842,-0.2711 19.5,1.8657 5.6622,2.0453 6.7502,2.8606 8.4412,6.3258 3.0162,6.1806 3.1007,17.4752 0.2546,34.0221 -1.3245,7.7 -3.3877,16.0637 -4.585,18.586 -2.873,6.0526 -9.2074,12.3249 -15.6105,15.4576 -8.2021,4.013 -24.9612,8.4568 -31.8794,8.4532 -9.4044,-0.01 -23.5068,-2.8143 -28.929,-5.7631 -7.436,-4.044 -16.5425,-13.7558 -22.779,-24.2934 -6.544,-11.0571 -8.4626,-15.6688 -10.4509,-25.1208 -3.797,-18.0506 0.9705,-47.7742 10.2346,-63.809 4.3009,-7.4441 14.6907,-18.3333 22.4803,-23.5606 13.4637,-9.035 35.5547,-15.4228 54.564,-15.7775 5.0825,-0.095 9.245,-0.4739 9.25,-0.8424 0.026,-1.9348 -11.6257,-10.7529 -15.8194,-11.972 -6.7648,-1.9665 -25.0905,-1.6441 -33.1715,0.5837 -8.9494,2.4671 -21.212,8.5903 -29.1183,14.5399 -14.6776,11.0452 -28.281,31.6344 -32.8247,49.6815 -3.4366,13.6499 -5.1511,31.8996 -4.0501,43.1101 1.0871,11.0682 1.9419,14.5507 6.2884,25.6184 l 3.0992,7.8916 -2.2837,6.5436 c -3.577,10.249 -10.5499,24.1923 -15.361,30.7162 -5.6791,7.7008 -18.7607,21.786 -28.7612,30.9674 -19.0701,17.5084 -47.7654,38.5145 -95.9886,70.2676 -17.875,11.7699 -32.6811,21.5785 -32.9024,21.7967 -0.2214,0.2183 3.1536,-0.9039 7.5,-2.4936 31.4043,-11.4868 37.4198,-14.3403 64.9024,-30.7872 8.25,-4.9372 18.3202,-10.9016 22.3782,-13.2543 4.0581,-2.3527 13.0086,-8.5279 19.8902,-13.7227 6.8815,-5.1948 15.7113,-11.6119 19.6217,-14.2602 6.7162,-4.5486 13.2524,-9.6923 27.1099,-21.3342 3.3,-2.7724 12.5661,-11.6485 20.5913,-19.7247 l 14.5913,-14.6839 4.1587,3.8792 4.1587,3.8791 v 7.9397 c 0,6.5892 -0.7734,10.4525 -4.5469,22.7139 -8.8782,28.8477 -20.1044,47.6289 -46.1898,77.2742 -13.6495,15.5123 -23.7887,25.2581 -53.5133,51.4367 -14.1918,12.4988 -17.3248,15.4853 -15,14.2985 0.4125,-0.2106 7.564,-4.5434 15.8922,-9.6283 z m 871.3578,9.547 c 0,-0.1903 -7.0875,-6.5881 -15.75,-14.2172 -29.7246,-26.1786 -39.8638,-35.9244 -53.5133,-51.4367 -26.0854,-29.6453 -37.3116,-48.4265 -46.1898,-77.2742 -3.7735,-12.2614 -4.5469,-16.1247 -4.5469,-22.7139 v -7.9397 l 4.1587,-3.8791 4.1587,-3.8792 14.5913,14.6839 c 8.0252,8.0762 17.2913,16.9523 20.5913,19.7247 13.8575,11.6419 20.3937,16.7856 27.1099,21.3342 3.9104,2.6483 12.7402,9.0654 19.6217,14.2602 6.8816,5.1948 15.8321,11.37 19.8902,13.7227 4.058,2.3527 14.1282,8.3171 22.3782,13.2543 27.4826,16.4469 33.4981,19.3004 64.9025,30.7872 4.3463,1.5897 7.7213,2.7119 7.5,2.4936 -0.2214,-0.2182 -15.0275,-10.0268 -32.9025,-21.7967 -48.2232,-31.7531 -76.9185,-52.7592 -95.9886,-70.2676 -10.0005,-9.1814 -23.0821,-23.2666 -28.7612,-30.9674 -4.8111,-6.5239 -11.784,-20.4672 -15.361,-30.7162 l -2.2837,-6.5436 3.0992,-7.8916 c 4.3465,-11.0677 5.2013,-14.5502 6.2884,-25.6184 1.101,-11.2105 -0.6135,-29.4602 -4.0501,-43.1101 -4.5437,-18.0471 -18.1471,-38.6363 -32.8247,-49.6815 -7.9063,-5.9496 -20.1689,-12.0728 -29.1183,-14.5399 -8.081,-2.2278 -26.4067,-2.5502 -33.1716,-0.5837 -4.1936,1.2191 -15.8455,10.0372 -15.8193,11.972 0.01,0.3685 4.1675,0.7476 9.25,0.8424 19.0093,0.3547 41.1004,6.7425 54.564,15.7775 7.7896,5.2273 18.1794,16.1165 22.4803,23.5606 6.5223,11.2891 11.68,32.9828 11.6913,49.1741 0.01,8.2848 -1.8936,18.9541 -4.6196,25.9503 -3.3307,8.548 -12.8724,23.2431 -19.067,29.3649 -8.1611,8.0651 -13.7876,10.9957 -24.8081,12.9213 -13.1995,2.3063 -19.7056,2.021 -31.5322,-1.3827 -13.1052,-3.7716 -19.5955,-6.9671 -24.7738,-12.1972 -5.9674,-6.0271 -8.1785,-11.5786 -10.8898,-27.3412 -2.8461,-16.5469 -2.7616,-27.8415 0.2546,-34.0221 1.691,-3.4652 2.779,-4.2805 8.4412,-6.3258 5.9158,-2.1368 7.6685,-2.3045 19.5,-1.8657 19.9558,0.7402 23.9945,3.2158 31.8066,19.4966 3.7282,7.7699 4.0643,9.1769 4.4926,18.8076 0.3521,7.9177 0.7906,10.4094 1.8319,10.4094 0.7529,0 1.3689,-0.3494 1.3689,-0.7765 0,-0.427 2.5141,-3.9145 5.5869,-7.75 9.9035,-12.3615 12.6258,-20.1735 10.3681,-29.7525 -1.8482,-7.8413 -6.2589,-15.8552 -12.3439,-22.4277 -9.891,-10.6834 -19.2456,-14.0042 -42.1911,-14.9772 -27.624,-1.1715 -45.4673,6.5952 -52.9877,23.0639 -5.9021,12.9249 -6.7539,24.6884 -3.3832,46.7242 2.3763,15.5351 4.2012,22.4365 7.7732,29.3958 2.3899,4.6563 2.5727,5.9966 2.6599,19.5 0.066,10.2 0.5869,16.2793 1.757,20.5 0.9148,3.3 2.1496,10.8277 2.7439,16.7283 1.6194,16.0785 7.6269,38.1765 10.9341,40.2205 1.5614,0.965 1.371,-2.6107 -0.8879,-16.6771 -4.4027,-27.4166 -4.6507,-41.9412 -0.9556,-55.9658 l 0.9733,-3.6941 4.7682,2.9641 c 2.6226,1.6303 8.3446,4.2181 12.7157,5.7507 l 7.9473,2.7867 2.2012,10.1351 c 3.1114,14.326 6.0852,23.8634 9.4741,30.3844 1.61,3.0981 4.7404,11.6413 6.9564,18.9848 7.7309,25.619 18.8473,51.1348 30.4485,69.8897 5.7917,9.3628 15.3948,21.9673 19.4224,25.4927 l 2.285,2 -0.7632,-2.4482 c -0.4197,-1.3465 -4.9464,-11.0215 -10.0593,-21.5 -19.4894,-39.9422 -34.549,-83.6649 -40.8334,-118.5518 -0.7431,-4.125 -1.7062,-8.3494 -2.1402,-9.3875 -0.7254,-1.7348 -0.4324,-1.8341 3.6205,-1.2277 2.6004,0.389 8.0731,0.02 13.3379,-0.8987 7.2738,-1.2697 9.1612,-1.3201 10.1862,-0.2723 0.692,0.7074 4.0614,6.6862 7.4876,13.2862 7.4915,14.431 27.5418,49.644 32.0344,56.2597 9.8506,14.5058 31.9874,37.5301 46.7123,48.5851 3.7766,2.8354 11.7681,9.1032 17.759,13.9285 5.9908,4.8253 17.834,13.0378 26.3182,18.25 15.1318,9.296 16.0742,9.8313 16.0742,9.1306 z m -521.7248,-410.7494 c 13.3663,-11.2225 35.0812,-22.9753 44.1541,-23.8976 4.5174,-0.4593 5.2717,-0.9144 8.0283,-4.8445 l 3.0424,-4.3375 -2.3608,-1.9125 c -1.9509,-1.5804 -3.994,-1.9124 -11.7688,-1.9124 -15.6265,0 -26.9865,4.8916 -39.9436,17.1995 -12.0696,11.4649 -17.7378,21.9288 -19.122,35.3005 l -0.6211,6 6.1834,-8.1845 c 3.4008,-4.5015 8.9845,-10.5364 12.4081,-13.411 z m 172.2601,8.8622 c -2.6684,-10.5244 -6.3424,-16.5665 -16.035,-26.3704 -9.8868,-10.0004 -14.6317,-13.1665 -25.3374,-16.9068 -9.4079,-3.287 -24.5752,-3.5962 -28.3021,-0.5771 l -2.3608,1.9125 3.0424,4.3375 c 2.7566,3.9301 3.5109,4.3852 8.0283,4.8445 5.6348,0.5728 20.6381,7.4437 31.2644,14.3178 9.9748,6.4527 19.9994,15.5823 25.6649,23.3736 4.7045,6.4697 5.0184,6.7124 5.3121,4.1057 0.1717,-1.5238 -0.4029,-5.5906 -1.2768,-9.0373 z m -82.3011,-33.2072 c 4.2918,-2.0371 7.7658,-7.0132 7.7658,-11.1238 0,-4.4424 -4.477,-9.9644 -10.0076,-12.3436 -9.7945,-4.2135 -22.3147,-1.5635 -27.4202,5.8037 -5.5023,7.9399 -1.1588,16.4486 9.9278,19.448 3.9604,1.0714 16.0135,-0.018 19.7342,-1.7843 z m -424.7342,1945.316 c -3.3,-1.09 -22.425,-7.3647 -42.5,-13.9439 -54.2438,-17.7773 -62.0804,-21.1084 -100.5,-42.7199 -39.2654,-22.0872 -86.863,-53.4353 -118,-77.7156 -32.3758,-25.2462 -82.8988,-73.5988 -117.0233,-111.9961 -175.1469,-197.0772 -270.3247,-458.829 -261.4604,-719.0517 3.8616,-113.3603 19.7967,-202.8735 54.2869,-304.9483 32.1814,-95.2416 78.7669,-183.8654 139.5613,-265.5 81.8394,-109.8938 179.7099,-202.8658 272.1182,-258.4988 24.6359,-14.8316 70.6693,-36.5012 77.5408,-36.5012 6.1796,0 3.6294,4.2637 -7.5235,12.5782 -3.575,2.6652 -14.15,10.9654 -23.5,18.4448 -9.35,7.4795 -28.1382,22.2488 -41.7515,32.8206 -57.442,44.6085 -87.9137,71.317 -129.2493,113.2872 -55.6522,56.5065 -90.3709,100.7653 -130.5079,166.3692 -57.9397,94.7026 -101.9934,199.1958 -127.3899,302.1626 -11.4272,46.3302 -21.4068,103.7085 -26.0606,149.8374 -6.1893,61.3484 -5.8097,132.719 1.0558,198.5 23.6358,226.4648 122.4805,437.4269 281.1941,600.1469 24.4797,25.0977 37.8227,37.486 89.0934,82.7188 29.3435,25.8878 73.8311,59.5903 109.1159,82.663 6.875,4.4955 21.725,15.0232 33,23.3948 25.1504,18.674 44.1275,31.4366 62.4767,42.0172 7.6871,4.4326 13.5371,8.0272 13,7.988 -0.5372,-0.039 -3.6767,-0.9632 -6.9767,-2.0532 z m 831,-5.8483 c 18.6325,-10.8412 37.6467,-23.6502 62.5,-42.1037 11.275,-8.3716 26.125,-18.8993 33,-23.3948 35.2848,-23.0727 79.7725,-56.7752 109.116,-82.663 51.2707,-45.2328 64.6137,-57.6211 89.09335,-82.7188 91.503,-93.8127 164.5082,-205.6038 213.317,-326.6469 50.5394,-125.335 75.8593,-262.6346 73.1198,-396.5 -0.8851,-43.248 -2.8705,-69.6173 -8.207,-109 -20.2634,-149.5432 -69.8573,-288.4376 -149.4304,-418.5 -40.137,-65.6039 -74.8557,-109.8627 -130.5079,-166.3692 -41.33555,-41.9702 -71.80725,-68.6787 -129.24935,-113.2872 -13.6133,-10.5718 -32.4015,-25.3411 -41.7515,-32.8206 -9.35,-7.4794 -19.925,-15.7796 -23.5,-18.4448 -11.1529,-8.3145 -13.7032,-12.5782 -7.5235,-12.5782 6.8715,0 52.9049,21.6696 77.5408,36.5012 92.4084,55.633 190.27885,148.605 272.11825,258.4988 60.7944,81.6346 107.3799,170.2584 139.5613,265.5 24.0123,71.0652 38.6295,134.5497 46.7439,203.0148 20.1689,170.1741 2.3128,329.619 -54.4249,485.9852 -54.2896,149.6192 -144.8943,288.3841 -258.4924,395.8915 -20.7054,19.5953 -44.56565,40.6105 -58.02335,51.1046 -48.4648,37.7923 -129.6162,87.6074 -167.0001,102.514 -14.5127,5.7868 -83.1848,28.8807 -99.5,33.4611 -1.375,0.386 3.8,-2.9638 11.5,-7.444 z m -690.0691,-1077.0741 c -16.375,-1.6073 -25.0699,-5.8732 -29.2948,-14.3726 -3.9109,-7.8679 -2.3386,-16.7864 5.0747,-28.7859 2.2808,-3.6918 2.2819,-3.7112 0.2892,-5.2859 -2.5827,-2.0409 -26.6385,-13.7182 -32.5,-15.7762 -10.1361,-3.5589 -22.2189,-6.7723 -34.5,-9.1753 -51.9124,-10.1574 -65.1004,-16.1603 -77.613,-35.3277 -5.6906,-8.7171 -7.3444,-15.3789 -6.6357,-26.7295 0.8019,-12.8448 6.7149,-22.2936 18.1417,-28.9902 6.295,-3.6891 16.5007,-4.5859 23.176,-2.0366 9.2111,3.5177 19.6427,17.0747 23.4893,30.5268 2.5084,8.7724 3.2421,9.2391 57.7007,36.703 44.1039,22.242 52.2478,26.9616 57.7314,33.4568 4.3507,5.1534 7.4888,12.7226 7.4998,18.0902 0.01,2.9244 0.4545,4.75 1.1669,4.75 2.9373,0 33.4935,-8.5598 43.3429,-12.1418 9.2799,-3.3749 11.9793,-3.9512 17.2626,-3.6855 6.1523,0.3095 6.2982,0.2565 8.2839,-3.0087 1.1117,-1.8281 3.1785,-6.7711 4.5929,-10.9845 3.1155,-9.2811 2.7634,-16.1271 -1.5972,-31.0531 -8.819,-30.1861 -29.1311,-63.9731 -53.0422,-88.23 -17.6096,-17.8643 -33.5322,-27.1464 -62.5,-36.4345 -20.6676,-6.6268 -23.9613,-8.0848 -25.4341,-11.259 -2.8928,-6.234 1.1307,-12.2047 11.747,-17.4324 6.3857,-3.1444 7.1056,-3.2705 18.6645,-3.2705 14.8404,0 23.9641,2.2614 40.1351,9.9481 17.447,8.2931 29.991,17.2855 43.541,31.213 14.779,15.1907 22.6341,28.8854 30.7169,53.5518 9.5039,29.0032 16.1316,58.9269 16.1304,72.827 0,10.5666 -1.6424,17.0222 -7.9589,31.3022 l -4.9355,11.1579 0.5622,9.5 0.5622,9.5 -3.3654,4.9256 c -4.9013,7.1736 -16.3133,12.3306 -38.8654,17.5628 -5.225,1.2122 -14.225,3.4716 -20,5.0207 -9.5197,2.5537 -13.4375,3.3742 -21,4.3976 -1.375,0.1861 -6.1311,-0.018 -10.5691,-0.4536 z m 526.0691,-0.4774 c -3.85,-0.7023 -11.05,-2.4061 -16,-3.7861 -4.95,-1.3801 -13.275,-3.4984 -18.5,-4.7073 -22.5155,-5.2094 -33.9621,-10.3802 -38.8654,-17.5567 l -3.3654,-4.9256 0.5622,-9.5 0.5622,-9.5 -4.9355,-11.1579 c -10.5583,-23.8696 -10.6636,-33.2537 -0.8173,-72.8421 5.3507,-21.5132 13.0417,-44.6636 18.3822,-55.3319 7.5088,-14.9995 19.5548,-29.4817 34.977,-42.0509 10.0145,-8.1618 17.1202,-12.6004 29.8875,-18.6691 16.171,-7.6867 25.2947,-9.9481 40.1351,-9.9481 11.5589,0 12.2788,0.1261 18.6644,3.2705 10.6164,5.2277 14.6399,11.1984 11.7471,17.4324 -1.4728,3.1742 -4.7665,4.6322 -25.4341,11.259 -20.666,6.6262 -33.4544,12.6857 -45.5201,21.5686 -29.4167,21.6568 -58.9203,65.096 -70.0221,103.0959 -4.3606,14.926 -4.7127,21.772 -1.5972,31.0531 1.4144,4.2134 3.4812,9.1564 4.5929,10.9845 1.9857,3.2652 2.1316,3.3182 8.2839,3.0087 5.2833,-0.2657 7.9827,0.3106 17.2626,3.6855 9.8494,3.582 40.4056,12.1418 43.3429,12.1418 0.7124,0 1.1609,-1.8256 1.1669,-4.75 0.011,-5.3676 3.1491,-12.9368 7.4998,-18.0902 5.4836,-6.4952 13.6275,-11.2148 57.7314,-33.4568 54.4586,-27.4639 55.1923,-27.9306 57.7007,-36.703 3.8466,-13.4521 14.2782,-27.0091 23.4893,-30.5268 6.6753,-2.5493 16.881,-1.6525 23.176,2.0366 11.4268,6.6966 17.3398,16.1454 18.1417,28.9902 0.7087,11.3506 -0.9451,18.0124 -6.6357,26.7295 -12.5126,19.1674 -25.7006,25.1703 -77.613,35.3277 -12.2811,2.403 -24.3639,5.6164 -34.5,9.1753 -5.8615,2.058 -29.9173,13.7353 -32.5,15.7762 -1.9927,1.5747 -1.9916,1.5941 0.2892,5.2859 7.4133,11.9995 8.9856,20.918 5.0747,28.7859 -4.0147,8.0765 -12.5824,12.5957 -26.4021,13.9262 -3.279,0.3157 -7.5368,0.7252 -9.4618,0.91 -1.925,0.1848 -6.65,-0.2387 -10.5,-0.941 z"
         id="path561" />
    </g>
  </g>
</svg>
