<?xml version="1.0" encoding="UTF-8" standalone="no"?>
<!-- Created with Inkscape (http://www.inkscape.org/) -->

<svg
   width="150"
   height="149.99992"
   viewBox="0 0 39.687502 39.687479"
   version="1.1"
   id="svg5"
   xml:space="preserve"
   inkscape:version="1.2.2 (732a01da63, 2022-12-09, custom)"
   sodipodi:docname="AraFi_tokenlogo_C_150x150px.svg"
   inkscape:export-filename="../93088510/AraFimonologo_c150x150px.png"
   inkscape:export-xdpi="96"
   inkscape:export-ydpi="96"
   xmlns:inkscape="http://www.inkscape.org/namespaces/inkscape"
   xmlns:sodipodi="http://sodipodi.sourceforge.net/DTD/sodipodi-0.dtd"
   xmlns:xlink="http://www.w3.org/1999/xlink"
   xmlns="http://www.w3.org/2000/svg"
   xmlns:svg="http://www.w3.org/2000/svg"><sodipodi:namedview
     id="namedview7"
     pagecolor="#ffffff"
     bordercolor="#000000"
     borderopacity="0.25"
     inkscape:showpageshadow="2"
     inkscape:pageopacity="0.0"
     inkscape:pagecheckerboard="0"
     inkscape:deskcolor="#d1d1d1"
     inkscape:document-units="mm"
     showgrid="false"
     inkscape:zoom="2"
     inkscape:cx="236"
     inkscape:cy="72.5"
     inkscape:window-width="1920"
     inkscape:window-height="1051"
     inkscape:window-x="1919"
     inkscape:window-y="0"
     inkscape:window-maximized="1"
     inkscape:current-layer="layer1" /><defs
     id="defs2"><linearGradient
       id="linearGradient901"><stop
         style="stop-color:#19dff3;stop-opacity:1;"
         offset="0"
         id="stop905" /><stop
         style="stop-color:#19dff3;stop-opacity:1;"
         offset="0.33816478"
         id="stop13834" /><stop
         style="stop-color:#5460c2;stop-opacity:1;"
         offset="1"
         id="stop907" /></linearGradient><linearGradient
       inkscape:collect="always"
       xlink:href="#linearGradient901"
       id="linearGradient411"
       gradientUnits="userSpaceOnUse"
       gradientTransform="matrix(0.06685783,0,0,0.06651285,-506.5459,72.883779)"
       x1="-294.3067"
       y1="159.09586"
       x2="133.14391"
       y2="274.93811" /></defs><g
     inkscape:label="Layer 1"
     inkscape:groupmode="layer"
     id="layer1"
     transform="translate(534.24216,-60.515819)"><g
       id="g2695"
       transform="matrix(0.97964244,0,0,0.97964244,-10.875865,1.2319542)"
       inkscape:export-filename="../172570af/AraFi_tokenlogo_c150x150px.png"
       inkscape:export-xdpi="96"
       inkscape:export-ydpi="96"><path
         id="path353"
         style="fill:#1e1d1e;stroke-width:1.38593;stroke-linecap:round;stroke-linejoin:round;paint-order:stroke fill markers"
         d="m -493.72993,80.771928 a 20.256114,20.256109 0 0 1 -20.25611,20.256102 20.256114,20.256109 0 0 1 -20.25612,-20.256102 20.256114,20.256109 0 0 1 20.25612,-20.256109 20.256114,20.256109 0 0 1 20.25611,20.256109 z" /><path
         style="fill:url(#linearGradient411);fill-opacity:1;stroke-width:0.0176437"
         d="m -511.30114,95.533757 c -0.14512,-0.007 -0.29571,-0.01671 -0.33463,-0.02132 -0.0389,-0.0044 -0.19812,-0.0168 -0.35378,-0.02707 -1.16046,-0.07607 -2.32981,-0.227845 -3.35216,-0.434982 -0.17026,-0.03447 -0.34141,-0.06876 -0.38033,-0.07607 -0.12161,-0.02289 -0.30289,-0.06773 -0.85794,-0.212034 -0.53087,-0.138013 -1.08374,-0.31439 -1.75125,-0.558679 -0.8266,-0.302512 -1.90291,-0.82857 -2.64458,-1.292559 -0.88143,-0.551425 -1.61482,-1.132212 -2.33135,-1.84623 -0.19258,-0.1919 -0.35856,-0.348908 -0.36883,-0.348908 -0.0102,0 -0.0438,0.02622 -0.0744,0.05827 -0.0486,0.05092 -0.72912,0.892612 -0.94903,1.17397 -0.0437,0.05602 -0.14673,0.183776 -0.22877,0.283918 -0.12768,0.155856 -0.44466,0.548626 -1.05478,1.306955 -0.0773,0.09602 -0.18026,0.223827 -0.2289,0.284019 -0.43594,0.539421 -0.58469,0.72461 -0.69069,0.859965 -0.27355,0.349286 -0.40819,0.510171 -0.44881,0.536318 -0.0424,0.02733 -0.0426,0.02707 -0.03,-0.02498 0.0117,-0.04831 0.0423,-0.104622 0.21947,-0.404453 0.1115,-0.188687 0.36427,-0.630754 0.644,-1.126284 0.0929,-0.164544 0.23478,-0.413999 0.31531,-0.554344 0.0805,-0.140344 0.18412,-0.322486 0.23018,-0.404758 0.0981,-0.17527 0.32872,-0.58157 0.80397,-1.416654 0.0661,-0.116148 0.17365,-0.306207 0.23898,-0.422355 0.0653,-0.116151 0.15257,-0.270573 0.19386,-0.343166 0.0412,-0.07259 0.11985,-0.211178 0.17461,-0.30797 0.0548,-0.09679 0.11764,-0.202823 0.13977,-0.23563 0.062,-0.09186 0.0524,-0.141147 -0.0539,-0.277317 -0.35151,-0.450485 -0.7472,-1.098362 -1.10242,-1.805001 -0.12999,-0.258576 -0.23635,-0.474139 -0.23635,-0.479029 0,-0.0049 -0.0192,-0.0507 -0.0424,-0.101803 -0.0888,-0.19417 -0.2035,-0.471343 -0.29334,-0.708848 -0.1156,-0.305603 -0.40602,-1.197018 -0.43574,-1.337462 -0.006,-0.02904 -0.0306,-0.120109 -0.0544,-0.202379 -0.0459,-0.158931 -0.0696,-0.2595 -0.16954,-0.721527 -0.0896,-0.413942 -0.12963,-0.625364 -0.17181,-0.906306 -0.0204,-0.135508 -0.0485,-0.321608 -0.0624,-0.413558 -0.0402,-0.264927 -0.11161,-0.927185 -0.14118,-1.311065 -0.0456,-0.591542 -0.062,-1.060304 -0.062,-1.777418 2e-5,-0.940708 0.0342,-1.687054 0.11688,-2.551737 0.065,-0.680581 0.0788,-0.812285 0.12113,-1.161481 0.0633,-0.522197 0.0611,-0.505341 0.0978,-0.747924 0.0184,-0.120987 0.0504,-0.342724 0.0714,-0.492749 0.0634,-0.454476 0.11879,-0.696828 0.15176,-0.664028 0.005,0.0056 0.0126,0.34928 0.0154,0.763825 0.005,0.724926 0.0481,1.576544 0.0978,1.932795 0.009,0.06776 0.0254,0.210298 0.0354,0.316767 0.0293,0.31008 0.11192,0.888266 0.17732,1.240672 0.17863,0.962428 0.29742,1.476238 0.50855,2.199774 0.0438,0.150025 0.0897,0.309144 0.10197,0.353597 0.10086,0.364556 0.36477,1.107411 0.58191,1.637976 0.20434,0.49932 0.22393,0.544453 0.40736,0.938526 0.23603,0.507079 0.62988,1.260366 0.79265,1.515987 0.0238,0.03732 0.10204,0.165577 0.17395,0.285019 0.18195,0.302187 0.17806,0.296001 0.38407,0.609946 0.10162,0.154866 0.26166,0.388482 0.35566,0.519149 0.094,0.130666 0.18466,0.259352 0.20149,0.285968 0.0363,0.05738 0.12417,0.0674 0.15419,0.0176 0.0101,-0.01694 0.10049,-0.177303 0.20061,-0.356362 0.10012,-0.179063 0.25644,-0.456235 0.34738,-0.615939 0.0909,-0.159704 0.19846,-0.349764 0.23896,-0.422357 0.0405,-0.07259 0.1438,-0.254733 0.22957,-0.404757 0.46231,-0.808594 0.55359,-0.96969 0.73792,-1.302267 0.0778,-0.140345 0.14837,-0.263658 0.15683,-0.274028 0.009,-0.01037 0.0821,-0.137078 0.16349,-0.281572 0.23867,-0.423374 0.34917,-0.61354 0.36689,-0.631398 0.0309,-0.03113 0.0174,-0.138589 -0.0254,-0.202312 -0.12838,-0.190892 -0.61144,-1.113063 -0.72416,-1.382405 -0.0242,-0.05807 -0.0733,-0.172902 -0.10888,-0.255173 -0.28427,-0.657301 -0.5506,-1.449305 -0.72493,-2.155779 -0.0358,-0.145184 -0.0763,-0.307527 -0.0899,-0.360762 -0.0231,-0.09053 -0.0612,-0.282148 -0.14844,-0.747924 -0.0827,-0.441253 -0.16335,-1.087288 -0.20876,-1.671829 -0.0451,-0.580354 -0.0448,-2.155075 4.1e-4,-2.780514 0.0554,-0.765746 0.14611,-1.504669 0.28089,-2.287765 0.0515,-0.299653 0.1682,-0.905675 0.20827,-1.082289 0.0186,-0.08227 0.0555,-0.244615 0.0818,-0.360763 0.0489,-0.21577 0.18741,-0.767749 0.25606,-1.020696 0.0211,-0.07743 0.0483,-0.18038 0.0606,-0.228776 0.0239,-0.0939 0.0469,-0.171722 0.19794,-0.668731 0.18809,-0.619066 0.49286,-1.512721 0.67819,-1.988596 0.0302,-0.07743 0.0972,-0.251654 0.14891,-0.38716 0.11719,-0.306903 0.34364,-0.860048 0.42324,-1.033818 0.033,-0.07194 0.0898,-0.201359 0.12633,-0.28761 0.0365,-0.08625 0.14239,-0.319162 0.23524,-0.517584 0.0928,-0.198419 0.18122,-0.38848 0.19637,-0.422355 0.0564,-0.126013 0.70785,-1.405085 0.79641,-1.563658 0.12346,-0.22104 0.13043,-0.231357 0.15612,-0.231357 0.0422,0 0.022,0.08502 -0.10327,0.433585 -0.11641,0.324067 -0.19539,0.563121 -0.31025,0.939072 -0.0252,0.08227 -0.0601,0.193142 -0.0777,0.246376 -0.0176,0.05323 -0.0845,0.28289 -0.14873,0.510347 -0.0642,0.227456 -0.1251,0.441274 -0.13531,0.475152 -0.0251,0.08333 -0.0851,0.313511 -0.18354,0.703926 -0.12144,0.48177 -0.16019,0.645919 -0.23053,0.9767 -0.035,0.164544 -0.0765,0.354605 -0.0922,0.422357 -0.029,0.124962 -0.0375,0.170146 -0.11967,0.624735 -0.0852,0.472077 -0.18954,1.128698 -0.21242,1.337464 -0.006,0.05323 -0.0262,0.219538 -0.0454,0.369563 -0.10263,0.805752 -0.14817,1.599622 -0.14837,2.586933 -2.1e-4,1.026436 0.0395,1.677935 0.15038,2.463748 0.0198,0.140344 0.0402,0.28685 0.0454,0.325565 0.0179,0.134768 0.0981,0.554872 0.19288,1.011897 0.0644,0.310737 0.22612,0.90375 0.37659,1.381458 0.043,0.136567 0.19637,0.558598 0.26859,0.739124 0.031,0.07743 0.0721,0.180383 0.0914,0.228777 0.0192,0.04839 0.0458,0.111748 0.059,0.140785 0.3029,0.667717 0.49871,1.064762 0.65082,1.319645 0.051,0.08554 0.0674,0.114314 0.18862,0.330901 0.064,0.114317 0.12448,0.164787 0.16832,0.140373 0.0156,-0.0086 0.12841,-0.193389 0.25085,-0.410561 0.2709,-0.480483 0.27526,-0.488152 0.41349,-0.729224 0.0611,-0.10647 0.16402,-0.288611 0.22883,-0.404759 0.12131,-0.217403 0.342,-0.60623 0.58933,-1.038293 0.0776,-0.135507 0.18295,-0.321607 0.23417,-0.413558 0.0512,-0.09195 0.15856,-0.282011 0.23854,-0.422356 0.34686,-0.608775 0.45788,-0.804697 0.65814,-1.161481 0.11681,-0.208098 0.21859,-0.386281 0.2262,-0.395959 0.0164,-0.02085 0.2691,-0.465155 0.45544,-0.800719 0.0725,-0.130666 0.13943,-0.246757 0.14858,-0.257979 0.009,-0.01122 0.039,-0.0627 0.0663,-0.114388 0.0489,-0.09247 0.2372,-0.426536 0.46462,-0.824309 0.0637,-0.11131 0.22553,-0.3964 0.35975,-0.633535 0.13422,-0.237136 0.31155,-0.549945 0.39408,-0.695129 0.0825,-0.145185 0.19009,-0.335246 0.23905,-0.422357 0.049,-0.08711 0.11034,-0.194019 0.13642,-0.237576 0.0261,-0.04355 0.0916,-0.158384 0.14566,-0.255174 0.0541,-0.09679 0.14786,-0.263093 0.20846,-0.369562 0.47731,-0.838655 0.42952,-0.754316 0.65322,-1.152681 0.0897,-0.159704 0.1773,-0.314127 0.19471,-0.343165 0.0174,-0.02904 0.0515,-0.08843 0.0759,-0.131987 0.19178,-0.343869 0.30763,-0.548532 0.3487,-0.615935 0.0265,-0.04355 0.0946,-0.162344 0.15134,-0.263973 0.13006,-0.233139 0.3368,-0.598092 0.58818,-1.038295 0.10778,-0.18874 0.27037,-0.477791 0.3613,-0.642333 0.19889,-0.359915 0.2166,-0.371861 0.29539,-0.199227 0.0279,0.06118 0.15617,0.329013 0.28496,0.595186 0.1288,0.266173 0.27999,0.578981 0.33598,0.69513 0.15927,0.330379 0.37957,0.783243 0.5308,1.091086 0.12878,0.262143 0.21057,0.430903 0.48198,0.994298 0.0583,0.120988 0.18861,0.389114 0.28962,0.595837 0.101,0.206721 0.18366,0.378347 0.18366,0.381392 0,0.003 0.0986,0.206108 0.21905,0.451255 0.19343,0.393555 0.94688,1.94692 1.26185,2.601503 0.0629,0.130666 0.16851,0.348444 0.23474,0.48395 0.38098,0.779426 0.47176,0.966346 0.54276,1.117485 0.0431,0.09195 0.0933,0.1949 0.11136,0.228777 0.018,0.03388 0.11619,0.235816 0.21808,0.448754 0.16833,0.351826 0.25026,0.520717 0.63172,1.302265 0.16105,0.329951 0.35608,0.733178 0.46389,0.959103 0.0485,0.101628 0.17554,0.36205 0.28233,0.578713 0.10679,0.216662 0.2602,0.53343 0.34092,0.703927 0.1328,0.280498 0.32293,0.672511 0.61125,1.260299 0.057,0.116148 0.16285,0.333926 0.23526,0.483949 0.239,0.495038 0.35976,0.743585 0.54079,1.113103 0.0984,0.200848 0.1789,0.368328 0.1789,0.372176 0,0.0039 0.0846,0.180046 0.18801,0.391545 0.10341,0.211499 0.27853,0.569612 0.38917,0.795806 0.11063,0.226194 0.20115,0.413306 0.20115,0.415804 0,0.0025 0.0885,0.185674 0.19654,0.407055 0.10808,0.221382 0.27818,0.572775 0.37799,0.780873 0.17584,0.366635 0.39751,0.82313 0.61098,1.25827 0.2317,0.472245 0.47329,0.97051 0.63997,1.319866 0.097,0.203258 0.19866,0.413117 0.22596,0.466351 0.0273,0.05324 0.0934,0.187859 0.14701,0.299169 0.19358,0.402287 0.32161,0.666464 0.49468,1.020695 0.0969,0.19842 0.20831,0.428075 0.2475,0.510347 0.0392,0.08227 0.15776,0.326076 0.26349,0.541787 0.10574,0.215712 0.19225,0.395181 0.19225,0.398823 0,0.0037 0.0925,0.195391 0.20546,0.426113 0.113,0.230721 0.24544,0.502644 0.2943,0.604275 0.16189,0.336666 0.19122,0.395387 0.23065,0.461759 0.0307,0.05167 0.0349,0.07245 0.0195,0.09679 -0.0177,0.02801 -0.073,0.03234 -0.57491,0.04499 -0.6366,0.01605 -2.34857,0.0031 -3.04069,-0.02295 -0.61067,-0.02301 -1.64922,-0.08161 -2.00776,-0.113283 -0.15567,-0.01376 -0.35069,-0.02984 -0.43339,-0.03575 -0.17546,-0.01253 -0.58365,-0.05184 -0.911,-0.08771 -0.12649,-0.01386 -0.27774,-0.02989 -0.33611,-0.03562 -0.12106,-0.01188 -0.51078,-0.06415 -0.84909,-0.11386 -0.12648,-0.01859 -0.26977,-0.03873 -0.31841,-0.04477 -0.15585,-0.01936 -0.84116,-0.13064 -1.08791,-0.17666 -0.51983,-0.09696 -1.2867,-0.251385 -1.45938,-0.293879 -0.0584,-0.01437 -0.18573,-0.04422 -0.28302,-0.06634 -0.15412,-0.03504 -0.31889,-0.07606 -0.67221,-0.167342 -0.11398,-0.02945 -0.38339,-0.102526 -0.5749,-0.155944 -0.27569,-0.0769 -1.07646,-0.327868 -1.16058,-0.363737 -0.0456,-0.01946 -0.11165,-0.0424 -0.14667,-0.05096 -0.0725,-0.01775 -0.57143,-0.195344 -0.69167,-0.24622 -0.0437,-0.01853 -0.15522,-0.06309 -0.24764,-0.09902 -0.21631,-0.0841 -0.70255,-0.28868 -0.87955,-0.370066 -0.0757,-0.0348 -0.18138,-0.08317 -0.23489,-0.10748 -0.33514,-0.152263 -1.14535,-0.575344 -1.41516,-0.738977 -1.25813,-0.763018 -1.9538,-1.264937 -2.96992,-2.142773 -0.26726,-0.230888 -1.0793,-1.036568 -1.23841,-1.2287 -0.10771,-0.130076 -0.1659,-0.169047 -0.221,-0.148008 -0.0211,0.0081 -0.34152,0.397224 -0.56917,0.69134 -0.0382,0.04942 -0.13674,0.172165 -0.21887,0.272771 -0.34935,0.427895 -1.0216,1.260496 -1.25766,1.557599 -0.15845,0.199446 -0.64518,0.797201 -0.74805,0.918701 -0.0907,0.107087 -0.12395,0.159992 -0.12395,0.197039 0,0.04125 0.0494,0.102232 0.2666,0.328753 0.61263,0.639108 1.42677,1.371993 2.0653,1.859167 0.50764,0.387311 0.74753,0.558173 1.22074,0.86947 0.45493,0.299273 0.42791,0.28226 0.9287,0.584503 0.46711,0.281913 1.45192,0.791047 2.09039,1.080704 1.6343,0.741434 3.39522,1.322954 5.35687,1.769031 0.51972,0.118186 0.68592,0.15327 0.97292,0.205391 0.14108,0.02559 0.32814,0.0611 0.41571,0.07886 0.13814,0.02803 0.4493,0.08182 0.81371,0.140787 0.0584,0.0095 0.18827,0.02446 0.28865,0.03334 0.20048,0.01776 0.29331,0.05457 0.2485,0.09867 -0.0272,0.02681 -0.20861,0.05144 -0.57253,0.07773 -0.13621,0.0098 -0.35909,0.02925 -0.49531,0.04308 -0.13621,0.01384 -0.38695,0.03403 -0.55722,0.04483 -0.17025,0.01079 -0.33741,0.0235 -0.37147,0.02829 -0.034,0.0044 -0.18871,0.01462 -0.34368,0.02193 -0.64689,0.02376 -1.34338,0.02864 -1.93089,-8.36e-4 z m 7.44729,-9.087274 c 0.0607,-0.02317 0.0268,-0.119481 -0.20917,-0.594367 -0.13044,-0.262483 -0.33008,-0.6673 -0.44364,-0.899599 -0.20026,-0.409599 -0.42987,-0.877047 -0.75204,-1.531042 -0.0858,-0.17422 -0.2397,-0.487028 -0.34195,-0.695129 -0.10225,-0.208096 -0.30278,-0.615936 -0.44561,-0.906305 -0.14285,-0.290371 -0.33367,-0.678412 -0.42408,-0.862312 -0.0904,-0.183901 -0.28574,-0.57986 -0.4341,-0.87991 -0.14835,-0.300049 -0.3311,-0.67225 -0.4061,-0.827115 -0.13128,-0.271054 -0.2613,-0.535764 -0.73903,-1.504644 -0.12169,-0.246815 -0.30273,-0.615058 -0.40231,-0.818317 -0.44503,-0.908494 -0.70991,-1.447249 -0.84791,-1.724623 -0.0819,-0.164543 -0.23779,-0.481311 -0.34652,-0.703928 -0.10873,-0.222616 -0.22671,-0.464152 -0.26218,-0.536744 -0.054,-0.110439 -0.0723,-0.132877 -0.11191,-0.137438 -0.0485,-0.0056 -0.0955,0.04727 -0.55853,0.627963 -0.19843,0.248872 -0.28588,0.357356 -0.49077,0.60882 -0.11675,0.143292 -0.26402,0.325778 -0.32726,0.405523 -0.1588,0.200242 -0.41326,0.516271 -0.85709,1.064467 -0.54066,0.667772 -0.80806,0.999503 -0.85879,1.065337 -0.0243,0.03157 -0.15282,0.190848 -0.28556,0.353946 -0.2186,0.268609 -0.37707,0.464963 -0.68672,0.850885 -0.0583,0.07259 -0.22748,0.28156 -0.37609,0.464371 -0.14862,0.182811 -0.31205,0.38475 -0.36319,0.448753 -0.20774,0.259985 -0.28932,0.36127 -0.52616,0.653269 -0.1362,0.167931 -0.27805,0.344385 -0.3152,0.392124 -0.0371,0.04773 -0.1088,0.136295 -0.15921,0.1968 -0.17648,0.211819 -0.22432,0.278359 -0.22432,0.312001 0,0.03089 0.102,0.134156 0.45108,0.4567 0.10216,0.09439 0.53927,0.457196 0.77062,0.639615 0.69166,0.545378 1.48406,1.059867 2.41349,1.567027 0.19663,0.107299 0.93404,0.471321 1.17635,0.580703 0.86936,0.392451 1.8147,0.747688 2.69322,1.012042 0.39519,0.118916 0.5287,0.157901 0.59204,0.172879 0.0756,0.01789 0.41111,0.107699 0.59758,0.159999 0.0681,0.0191 0.17954,0.0465 0.24765,0.06088 0.0681,0.01439 0.20772,0.04551 0.31027,0.06916 0.40903,0.09436 1.18677,0.241992 1.58249,0.300397 0.0973,0.01436 0.28437,0.042 0.41571,0.06143 0.13135,0.01942 0.33036,0.04473 0.44224,0.05622 0.11189,0.0115 0.24323,0.02651 0.29188,0.03339 0.1233,0.01742 0.17831,0.01918 0.21082,0.0068 z"
         id="path318"
         sodipodi:nodetypes="sscssssssssssssssssssssssssssssssssssssssssssssssssssssssssssssssscsssssscssssssssssssssssssssssscsssssssscsssssssssssssssssssssssssssssssssssssssssssssssssssssssssssssssssssssssssssssssssssssssssssssssssssssssssssssccssssssssssssssssssssssssssssssssssssssssssss" /></g></g></svg>
