<svg id="svg" version="1.1" xmlns="http://www.w3.org/2000/svg" xmlns:xlink="http://www.w3.org/1999/xlink" width="400" height="400" viewBox="0, 0, 400,400"><g id="svgg"><path id="path0" d="M108.297 108.303 C 101.974 114.629,96.800 119.938,96.800 120.101 C 96.800 120.263,105.620 129.179,116.400 139.915 C 127.180 150.650,136.000 159.696,136.000 160.015 C 136.000 160.335,127.136 169.462,116.302 180.298 L 96.604 199.999 108.199 211.599 C 114.577 217.980,120.048 223.200,120.358 223.200 C 120.668 223.200,123.144 220.905,125.861 218.100 C 128.577 215.295,142.590 201.140,157.000 186.645 C 171.410 172.150,183.200 160.090,183.200 159.844 C 183.200 159.290,120.751 96.800,120.196 96.800 C 119.976 96.800,114.621 101.976,108.297 108.303 M188.048 108.559 C 179.623 117.003,176.802 120.065,177.057 120.489 C 177.246 120.803,191.494 135.074,208.721 152.203 L 240.042 183.346 271.421 151.976 C 288.679 134.723,302.800 120.422,302.800 120.196 C 302.800 119.661,280.344 97.200,279.809 97.200 C 279.586 97.200,270.537 106.064,259.702 116.898 L 240.000 136.597 220.298 116.898 C 209.463 106.064,200.323 97.200,199.989 97.200 C 199.655 97.200,194.281 102.312,188.048 108.559 M276.613 179.700 C 275.025 181.295,260.880 195.520,245.180 211.311 L 216.634 240.022 248.014 271.411 C 265.272 288.675,279.578 302.800,279.804 302.800 C 280.339 302.800,302.800 280.344,302.800 279.809 C 302.800 279.586,293.936 270.537,283.102 259.702 L 263.403 240.000 283.102 220.298 C 293.936 209.463,302.800 200.323,302.800 199.989 C 302.800 199.371,280.445 176.800,279.833 176.800 C 279.650 176.800,278.200 178.105,276.613 179.700 M128.579 248.024 C 111.321 265.277,97.200 279.612,97.200 279.879 C 97.200 280.548,119.392 302.800,120.060 302.800 C 120.355 302.800,129.463 293.936,140.298 283.102 L 160.000 263.403 179.702 283.102 C 190.537 293.936,199.677 302.800,200.011 302.800 C 201.058 302.800,223.340 280.172,222.943 279.511 C 222.754 279.197,208.506 264.926,191.279 247.797 L 159.958 216.654 128.579 248.024 " stroke="none" fill="#0d0e0b" fill-rule="evenodd"></path><path id="path1" d="M176.900 0.275 C 174.865 0.360,173.200 0.603,173.200 0.815 C 173.200 1.027,171.940 1.200,170.400 1.200 C 168.800 1.200,167.600 1.371,167.600 1.600 C 167.600 1.822,166.533 2.000,165.200 2.000 C 163.867 2.000,162.800 2.178,162.800 2.400 C 162.800 2.620,161.900 2.800,160.800 2.800 C 159.700 2.800,158.800 2.980,158.800 3.200 C 158.800 3.420,157.900 3.600,156.800 3.600 C 155.700 3.600,154.800 3.780,154.800 4.000 C 154.800 4.220,154.080 4.400,153.200 4.400 C 152.320 4.400,151.600 4.580,151.600 4.800 C 151.600 5.020,150.880 5.200,150.000 5.200 C 149.120 5.200,148.400 5.380,148.400 5.600 C 148.400 5.820,147.680 6.000,146.800 6.000 C 145.920 6.000,145.200 6.180,145.200 6.400 C 145.200 6.620,144.660 6.800,144.000 6.800 C 143.340 6.800,142.800 6.980,142.800 7.200 C 142.800 7.420,142.181 7.600,141.424 7.600 C 140.667 7.600,139.936 7.780,139.800 8.000 C 139.664 8.220,139.023 8.400,138.376 8.400 C 137.729 8.400,137.200 8.580,137.200 8.800 C 137.200 9.020,136.660 9.200,136.000 9.200 C 135.340 9.200,134.800 9.380,134.800 9.600 C 134.800 9.820,134.260 10.000,133.600 10.000 C 132.940 10.000,132.400 10.180,132.400 10.400 C 132.400 10.620,131.961 10.800,131.424 10.800 C 130.887 10.800,130.336 10.980,130.200 11.200 C 130.064 11.420,129.603 11.600,129.176 11.600 C 128.749 11.600,128.400 11.780,128.400 12.000 C 128.400 12.220,127.860 12.400,127.200 12.400 C 126.540 12.400,126.000 12.580,126.000 12.800 C 126.000 13.020,125.640 13.200,125.200 13.200 C 124.760 13.200,124.400 13.380,124.400 13.600 C 124.400 13.820,123.860 14.000,123.200 14.000 C 122.540 14.000,122.000 14.180,122.000 14.400 C 122.000 14.620,121.640 14.800,121.200 14.800 C 120.760 14.800,120.400 14.980,120.400 15.200 C 120.400 15.420,119.961 15.600,119.424 15.600 C 118.887 15.600,118.336 15.780,118.200 16.000 C 118.064 16.220,117.603 16.400,117.176 16.400 C 116.749 16.400,116.400 16.580,116.400 16.800 C 116.400 17.020,116.040 17.200,115.600 17.200 C 115.160 17.200,114.800 17.380,114.800 17.600 C 114.800 17.820,114.440 18.000,114.000 18.000 C 113.560 18.000,113.200 18.180,113.200 18.400 C 113.200 18.620,112.840 18.800,112.400 18.800 C 111.960 18.800,111.600 18.980,111.600 19.200 C 111.600 19.420,111.240 19.600,110.800 19.600 C 110.360 19.600,110.000 19.780,110.000 20.000 C 110.000 20.220,109.640 20.400,109.200 20.400 C 108.760 20.400,108.400 20.580,108.400 20.800 C 108.400 21.020,108.040 21.200,107.600 21.200 C 107.160 21.200,106.800 21.380,106.800 21.600 C 106.800 21.820,106.440 22.000,106.000 22.000 C 105.560 22.000,105.200 22.180,105.200 22.400 C 105.200 22.620,104.840 22.800,104.400 22.800 C 103.960 22.800,103.600 22.980,103.600 23.200 C 103.600 23.420,103.240 23.600,102.800 23.600 C 102.360 23.600,102.000 23.780,102.000 24.000 C 102.000 24.220,101.764 24.400,101.475 24.400 C 101.187 24.400,100.564 24.760,100.092 25.200 C 99.620 25.640,98.956 26.000,98.617 26.000 C 98.278 26.000,98.000 26.180,98.000 26.400 C 98.000 26.620,97.680 26.800,97.288 26.800 C 96.897 26.800,96.317 27.160,96.000 27.600 C 95.683 28.040,95.103 28.400,94.712 28.400 C 94.320 28.400,94.000 28.580,94.000 28.800 C 94.000 29.020,93.680 29.200,93.288 29.200 C 92.897 29.200,92.317 29.560,92.000 30.000 C 91.683 30.440,91.143 30.800,90.800 30.800 C 90.457 30.800,89.917 31.160,89.600 31.600 C 89.283 32.040,88.743 32.400,88.400 32.400 C 88.057 32.400,87.517 32.760,87.200 33.200 C 86.883 33.640,86.343 34.000,86.000 34.000 C 85.657 34.000,85.117 34.360,84.800 34.800 C 84.483 35.240,83.975 35.600,83.672 35.600 C 83.369 35.600,82.617 36.140,82.000 36.800 C 81.383 37.460,80.663 38.000,80.400 38.000 C 80.137 38.000,79.417 38.540,78.800 39.200 C 78.183 39.860,77.463 40.400,77.200 40.400 C 76.937 40.400,76.217 40.940,75.600 41.600 C 74.983 42.260,74.299 42.800,74.080 42.800 C 73.861 42.800,72.762 43.700,71.639 44.800 C 70.515 45.900,69.428 46.800,69.223 46.800 C 69.017 46.800,67.217 48.420,65.222 50.400 C 63.227 52.380,61.433 54.000,61.237 54.000 C 60.771 54.000,54.000 60.771,54.000 61.237 C 54.000 61.433,52.380 63.227,50.400 65.222 C 48.420 67.217,46.800 69.017,46.800 69.223 C 46.800 69.428,45.900 70.515,44.800 71.639 C 43.700 72.762,42.800 73.861,42.800 74.080 C 42.800 74.299,42.260 74.983,41.600 75.600 C 40.940 76.217,40.400 76.937,40.400 77.200 C 40.400 77.463,39.860 78.183,39.200 78.800 C 38.540 79.417,38.000 80.137,38.000 80.400 C 38.000 80.663,37.460 81.383,36.800 82.000 C 36.140 82.617,35.600 83.369,35.600 83.672 C 35.600 83.975,35.240 84.483,34.800 84.800 C 34.360 85.117,34.000 85.657,34.000 86.000 C 34.000 86.343,33.640 86.883,33.200 87.200 C 32.760 87.517,32.400 88.057,32.400 88.400 C 32.400 88.743,32.040 89.283,31.600 89.600 C 31.160 89.917,30.800 90.457,30.800 90.800 C 30.800 91.143,30.440 91.683,30.000 92.000 C 29.560 92.317,29.200 92.897,29.200 93.288 C 29.200 93.680,29.020 94.000,28.800 94.000 C 28.580 94.000,28.400 94.320,28.400 94.712 C 28.400 95.103,28.040 95.683,27.600 96.000 C 27.160 96.317,26.800 96.897,26.800 97.288 C 26.800 97.680,26.620 98.000,26.400 98.000 C 26.180 98.000,26.000 98.278,26.000 98.617 C 26.000 98.956,25.640 99.620,25.200 100.092 C 24.760 100.564,24.400 101.187,24.400 101.475 C 24.400 101.764,24.220 102.000,24.000 102.000 C 23.780 102.000,23.600 102.360,23.600 102.800 C 23.600 103.240,23.420 103.600,23.200 103.600 C 22.980 103.600,22.800 103.960,22.800 104.400 C 22.800 104.840,22.620 105.200,22.400 105.200 C 22.180 105.200,22.000 105.560,22.000 106.000 C 22.000 106.440,21.820 106.800,21.600 106.800 C 21.380 106.800,21.200 107.160,21.200 107.600 C 21.200 108.040,21.020 108.400,20.800 108.400 C 20.580 108.400,20.400 108.760,20.400 109.200 C 20.400 109.640,20.220 110.000,20.000 110.000 C 19.780 110.000,19.600 110.360,19.600 110.800 C 19.600 111.240,19.420 111.600,19.200 111.600 C 18.980 111.600,18.800 111.960,18.800 112.400 C 18.800 112.840,18.620 113.200,18.400 113.200 C 18.180 113.200,18.000 113.560,18.000 114.000 C 18.000 114.440,17.820 114.800,17.600 114.800 C 17.380 114.800,17.200 115.160,17.200 115.600 C 17.200 116.040,17.020 116.400,16.800 116.400 C 16.580 116.400,16.400 116.749,16.400 117.176 C 16.400 117.603,16.220 118.064,16.000 118.200 C 15.780 118.336,15.600 118.887,15.600 119.424 C 15.600 119.961,15.420 120.400,15.200 120.400 C 14.980 120.400,14.800 120.760,14.800 121.200 C 14.800 121.640,14.620 122.000,14.400 122.000 C 14.180 122.000,14.000 122.540,14.000 123.200 C 14.000 123.860,13.820 124.400,13.600 124.400 C 13.380 124.400,13.200 124.760,13.200 125.200 C 13.200 125.640,13.020 126.000,12.800 126.000 C 12.580 126.000,12.400 126.540,12.400 127.200 C 12.400 127.860,12.220 128.400,12.000 128.400 C 11.780 128.400,11.600 128.749,11.600 129.176 C 11.600 129.603,11.420 130.064,11.200 130.200 C 10.980 130.336,10.800 130.887,10.800 131.424 C 10.800 131.961,10.620 132.400,10.400 132.400 C 10.180 132.400,10.000 132.940,10.000 133.600 C 10.000 134.260,9.820 134.800,9.600 134.800 C 9.380 134.800,9.200 135.340,9.200 136.000 C 9.200 136.660,9.020 137.200,8.800 137.200 C 8.580 137.200,8.400 137.729,8.400 138.376 C 8.400 139.023,8.220 139.664,8.000 139.800 C 7.780 139.936,7.600 140.667,7.600 141.424 C 7.600 142.181,7.420 142.800,7.200 142.800 C 6.980 142.800,6.800 143.340,6.800 144.000 C 6.800 144.660,6.620 145.200,6.400 145.200 C 6.180 145.200,6.000 145.920,6.000 146.800 C 6.000 147.680,5.820 148.400,5.600 148.400 C 5.380 148.400,5.200 149.120,5.200 150.000 C 5.200 150.880,5.020 151.600,4.800 151.600 C 4.580 151.600,4.400 152.320,4.400 153.200 C 4.400 154.080,4.220 154.800,4.000 154.800 C 3.780 154.800,3.600 155.700,3.600 156.800 C 3.600 157.900,3.420 158.800,3.200 158.800 C 2.980 158.800,2.800 159.700,2.800 160.800 C 2.800 161.900,2.620 162.800,2.400 162.800 C 2.178 162.800,2.000 163.867,2.000 165.200 C 2.000 166.533,1.822 167.600,1.600 167.600 C 1.372 167.600,1.200 168.789,1.200 170.367 C 1.200 172.224,1.036 173.188,0.700 173.300 C -0.032 173.544,-0.032 224.856,0.700 225.100 C 1.036 225.212,1.200 226.176,1.200 228.033 C 1.200 229.611,1.372 230.800,1.600 230.800 C 1.822 230.800,2.000 231.867,2.000 233.200 C 2.000 234.533,2.178 235.600,2.400 235.600 C 2.620 235.600,2.800 236.500,2.800 237.600 C 2.800 238.700,2.980 239.600,3.200 239.600 C 3.420 239.600,3.600 240.500,3.600 241.600 C 3.600 242.700,3.780 243.600,4.000 243.600 C 4.220 243.600,4.400 244.320,4.400 245.200 C 4.400 246.080,4.580 246.800,4.800 246.800 C 5.020 246.800,5.200 247.520,5.200 248.400 C 5.200 249.280,5.380 250.000,5.600 250.000 C 5.820 250.000,6.000 250.720,6.000 251.600 C 6.000 252.480,6.180 253.200,6.400 253.200 C 6.620 253.200,6.800 253.740,6.800 254.400 C 6.800 255.060,6.980 255.600,7.200 255.600 C 7.420 255.600,7.600 256.219,7.600 256.976 C 7.600 257.733,7.780 258.464,8.000 258.600 C 8.220 258.736,8.400 259.377,8.400 260.024 C 8.400 260.671,8.580 261.200,8.800 261.200 C 9.020 261.200,9.200 261.740,9.200 262.400 C 9.200 263.060,9.380 263.600,9.600 263.600 C 9.820 263.600,10.000 264.140,10.000 264.800 C 10.000 265.460,10.180 266.000,10.400 266.000 C 10.620 266.000,10.800 266.439,10.800 266.976 C 10.800 267.513,10.980 268.064,11.200 268.200 C 11.420 268.336,11.600 268.797,11.600 269.224 C 11.600 269.651,11.780 270.000,12.000 270.000 C 12.220 270.000,12.400 270.540,12.400 271.200 C 12.400 271.860,12.580 272.400,12.800 272.400 C 13.020 272.400,13.200 272.760,13.200 273.200 C 13.200 273.640,13.380 274.000,13.600 274.000 C 13.820 274.000,14.000 274.540,14.000 275.200 C 14.000 275.860,14.180 276.400,14.400 276.400 C 14.620 276.400,14.800 276.760,14.800 277.200 C 14.800 277.640,14.980 278.000,15.200 278.000 C 15.420 278.000,15.600 278.439,15.600 278.976 C 15.600 279.513,15.780 280.064,16.000 280.200 C 16.220 280.336,16.400 280.797,16.400 281.224 C 16.400 281.651,16.580 282.000,16.800 282.000 C 17.020 282.000,17.200 282.360,17.200 282.800 C 17.200 283.240,17.380 283.600,17.600 283.600 C 17.820 283.600,18.000 283.960,18.000 284.400 C 18.000 284.840,18.180 285.200,18.400 285.200 C 18.620 285.200,18.800 285.560,18.800 286.000 C 18.800 286.440,18.980 286.800,19.200 286.800 C 19.420 286.800,19.600 287.160,19.600 287.600 C 19.600 288.040,19.780 288.400,20.000 288.400 C 20.220 288.400,20.400 288.760,20.400 289.200 C 20.400 289.640,20.580 290.000,20.800 290.000 C 21.020 290.000,21.200 290.360,21.200 290.800 C 21.200 291.240,21.380 291.600,21.600 291.600 C 21.820 291.600,22.000 291.960,22.000 292.400 C 22.000 292.840,22.180 293.200,22.400 293.200 C 22.620 293.200,22.800 293.560,22.800 294.000 C 22.800 294.440,22.980 294.800,23.200 294.800 C 23.420 294.800,23.600 295.160,23.600 295.600 C 23.600 296.040,23.780 296.400,24.000 296.400 C 24.220 296.400,24.400 296.636,24.400 296.925 C 24.400 297.213,24.760 297.836,25.200 298.308 C 25.640 298.780,26.000 299.444,26.000 299.783 C 26.000 300.122,26.180 300.400,26.400 300.400 C 26.620 300.400,26.800 300.720,26.800 301.112 C 26.800 301.503,27.160 302.083,27.600 302.400 C 28.040 302.717,28.400 303.297,28.400 303.688 C 28.400 304.080,28.580 304.400,28.800 304.400 C 29.020 304.400,29.200 304.720,29.200 305.112 C 29.200 305.503,29.560 306.083,30.000 306.400 C 30.440 306.717,30.800 307.257,30.800 307.600 C 30.800 307.943,31.160 308.483,31.600 308.800 C 32.040 309.117,32.400 309.657,32.400 310.000 C 32.400 310.343,32.760 310.883,33.200 311.200 C 33.640 311.517,34.000 312.057,34.000 312.400 C 34.000 312.743,34.360 313.283,34.800 313.600 C 35.240 313.917,35.600 314.425,35.600 314.728 C 35.600 315.031,36.140 315.783,36.800 316.400 C 37.460 317.017,38.000 317.737,38.000 318.000 C 38.000 318.263,38.540 318.983,39.200 319.600 C 39.860 320.217,40.400 320.937,40.400 321.200 C 40.400 321.463,40.940 322.183,41.600 322.800 C 42.260 323.417,42.800 324.101,42.800 324.320 C 42.800 324.539,43.700 325.638,44.800 326.761 C 45.900 327.885,46.800 328.972,46.800 329.177 C 46.800 329.383,48.420 331.183,50.400 333.178 C 52.380 335.173,54.000 336.967,54.000 337.163 C 54.000 337.629,60.771 344.400,61.237 344.400 C 61.433 344.400,63.227 346.020,65.222 348.000 C 67.217 349.980,69.017 351.600,69.223 351.600 C 69.428 351.600,70.515 352.500,71.639 353.600 C 72.762 354.700,73.861 355.600,74.080 355.600 C 74.299 355.600,74.983 356.140,75.600 356.800 C 76.217 357.460,76.937 358.000,77.200 358.000 C 77.463 358.000,78.183 358.540,78.800 359.200 C 79.417 359.860,80.137 360.400,80.400 360.400 C 80.663 360.400,81.383 360.940,82.000 361.600 C 82.617 362.260,83.369 362.800,83.672 362.800 C 83.975 362.800,84.483 363.160,84.800 363.600 C 85.117 364.040,85.657 364.400,86.000 364.400 C 86.343 364.400,86.883 364.760,87.200 365.200 C 87.517 365.640,88.057 366.000,88.400 366.000 C 88.743 366.000,89.283 366.360,89.600 366.800 C 89.917 367.240,90.457 367.600,90.800 367.600 C 91.143 367.600,91.683 367.960,92.000 368.400 C 92.317 368.840,92.897 369.200,93.288 369.200 C 93.680 369.200,94.000 369.380,94.000 369.600 C 94.000 369.820,94.320 370.000,94.712 370.000 C 95.103 370.000,95.683 370.360,96.000 370.800 C 96.317 371.240,96.897 371.600,97.288 371.600 C 97.680 371.600,98.000 371.780,98.000 372.000 C 98.000 372.220,98.278 372.400,98.617 372.400 C 98.956 372.400,99.620 372.760,100.092 373.200 C 100.564 373.640,101.187 374.000,101.475 374.000 C 101.764 374.000,102.000 374.180,102.000 374.400 C 102.000 374.620,102.360 374.800,102.800 374.800 C 103.240 374.800,103.600 374.980,103.600 375.200 C 103.600 375.420,103.960 375.600,104.400 375.600 C 104.840 375.600,105.200 375.780,105.200 376.000 C 105.200 376.220,105.560 376.400,106.000 376.400 C 106.440 376.400,106.800 376.580,106.800 376.800 C 106.800 377.020,107.160 377.200,107.600 377.200 C 108.040 377.200,108.400 377.380,108.400 377.600 C 108.400 377.820,108.760 378.000,109.200 378.000 C 109.640 378.000,110.000 378.180,110.000 378.400 C 110.000 378.620,110.360 378.800,110.800 378.800 C 111.240 378.800,111.600 378.980,111.600 379.200 C 111.600 379.420,111.960 379.600,112.400 379.600 C 112.840 379.600,113.200 379.780,113.200 380.000 C 113.200 380.220,113.560 380.400,114.000 380.400 C 114.440 380.400,114.800 380.580,114.800 380.800 C 114.800 381.020,115.160 381.200,115.600 381.200 C 116.040 381.200,116.400 381.380,116.400 381.600 C 116.400 381.820,116.749 382.000,117.176 382.000 C 117.603 382.000,118.064 382.180,118.200 382.400 C 118.336 382.620,118.887 382.800,119.424 382.800 C 119.961 382.800,120.400 382.980,120.400 383.200 C 120.400 383.420,120.760 383.600,121.200 383.600 C 121.640 383.600,122.000 383.780,122.000 384.000 C 122.000 384.220,122.540 384.400,123.200 384.400 C 123.860 384.400,124.400 384.580,124.400 384.800 C 124.400 385.020,124.760 385.200,125.200 385.200 C 125.640 385.200,126.000 385.380,126.000 385.600 C 126.000 385.820,126.540 386.000,127.200 386.000 C 127.860 386.000,128.400 386.180,128.400 386.400 C 128.400 386.620,128.749 386.800,129.176 386.800 C 129.603 386.800,130.064 386.980,130.200 387.200 C 130.336 387.420,130.887 387.600,131.424 387.600 C 131.961 387.600,132.400 387.780,132.400 388.000 C 132.400 388.220,132.940 388.400,133.600 388.400 C 134.260 388.400,134.800 388.580,134.800 388.800 C 134.800 389.020,135.340 389.200,136.000 389.200 C 136.660 389.200,137.200 389.380,137.200 389.600 C 137.200 389.820,137.729 390.000,138.376 390.000 C 139.023 390.000,139.664 390.180,139.800 390.400 C 139.936 390.620,140.667 390.800,141.424 390.800 C 142.181 390.800,142.800 390.980,142.800 391.200 C 142.800 391.420,143.340 391.600,144.000 391.600 C 144.660 391.600,145.200 391.780,145.200 392.000 C 145.200 392.220,145.920 392.400,146.800 392.400 C 147.680 392.400,148.400 392.580,148.400 392.800 C 148.400 393.020,149.120 393.200,150.000 393.200 C 150.880 393.200,151.600 393.380,151.600 393.600 C 151.600 393.820,152.320 394.000,153.200 394.000 C 154.080 394.000,154.800 394.180,154.800 394.400 C 154.800 394.620,155.700 394.800,156.800 394.800 C 157.900 394.800,158.800 394.980,158.800 395.200 C 158.800 395.420,159.700 395.600,160.800 395.600 C 161.900 395.600,162.800 395.780,162.800 396.000 C 162.800 396.222,163.867 396.400,165.200 396.400 C 166.533 396.400,167.600 396.578,167.600 396.800 C 167.600 397.029,168.800 397.200,170.400 397.200 C 172.000 397.200,173.200 397.371,173.200 397.600 C 173.200 397.837,174.659 398.000,176.776 398.000 C 178.743 398.000,180.464 398.180,180.600 398.400 C 180.939 398.949,217.461 398.949,217.800 398.400 C 217.936 398.180,219.657 398.000,221.624 398.000 C 223.741 398.000,225.200 397.837,225.200 397.600 C 225.200 397.371,226.400 397.200,228.000 397.200 C 229.600 397.200,230.800 397.029,230.800 396.800 C 230.800 396.578,231.867 396.400,233.200 396.400 C 234.533 396.400,235.600 396.222,235.600 396.000 C 235.600 395.780,236.500 395.600,237.600 395.600 C 238.700 395.600,239.600 395.420,239.600 395.200 C 239.600 394.980,240.500 394.800,241.600 394.800 C 242.700 394.800,243.600 394.620,243.600 394.400 C 243.600 394.180,244.320 394.000,245.200 394.000 C 246.080 394.000,246.800 393.820,246.800 393.600 C 246.800 393.380,247.520 393.200,248.400 393.200 C 249.280 393.200,250.000 393.020,250.000 392.800 C 250.000 392.580,250.720 392.400,251.600 392.400 C 252.480 392.400,253.200 392.220,253.200 392.000 C 253.200 391.780,253.740 391.600,254.400 391.600 C 255.060 391.600,255.600 391.420,255.600 391.200 C 255.600 390.980,256.219 390.800,256.976 390.800 C 257.733 390.800,258.464 390.620,258.600 390.400 C 258.736 390.180,259.377 390.000,260.024 390.000 C 260.671 390.000,261.200 389.820,261.200 389.600 C 261.200 389.380,261.740 389.200,262.400 389.200 C 263.060 389.200,263.600 389.020,263.600 388.800 C 263.600 388.580,264.140 388.400,264.800 388.400 C 265.460 388.400,266.000 388.220,266.000 388.000 C 266.000 387.780,266.439 387.600,266.976 387.600 C 267.513 387.600,268.064 387.420,268.200 387.200 C 268.336 386.980,268.797 386.800,269.224 386.800 C 269.651 386.800,270.000 386.620,270.000 386.400 C 270.000 386.180,270.540 386.000,271.200 386.000 C 271.860 386.000,272.400 385.820,272.400 385.600 C 272.400 385.380,272.760 385.200,273.200 385.200 C 273.640 385.200,274.000 385.020,274.000 384.800 C 274.000 384.580,274.540 384.400,275.200 384.400 C 275.860 384.400,276.400 384.220,276.400 384.000 C 276.400 383.780,276.760 383.600,277.200 383.600 C 277.640 383.600,278.000 383.420,278.000 383.200 C 278.000 382.980,278.439 382.800,278.976 382.800 C 279.513 382.800,280.064 382.620,280.200 382.400 C 280.336 382.180,280.797 382.000,281.224 382.000 C 281.651 382.000,282.000 381.820,282.000 381.600 C 282.000 381.380,282.360 381.200,282.800 381.200 C 283.240 381.200,283.600 381.020,283.600 380.800 C 283.600 380.580,283.960 380.400,284.400 380.400 C 284.840 380.400,285.200 380.220,285.200 380.000 C 285.200 379.780,285.560 379.600,286.000 379.600 C 286.440 379.600,286.800 379.420,286.800 379.200 C 286.800 378.980,287.160 378.800,287.600 378.800 C 288.040 378.800,288.400 378.620,288.400 378.400 C 288.400 378.180,288.760 378.000,289.200 378.000 C 289.640 378.000,290.000 377.820,290.000 377.600 C 290.000 377.380,290.360 377.200,290.800 377.200 C 291.240 377.200,291.600 377.020,291.600 376.800 C 291.600 376.580,291.960 376.400,292.400 376.400 C 292.840 376.400,293.200 376.220,293.200 376.000 C 293.200 375.780,293.560 375.600,294.000 375.600 C 294.440 375.600,294.800 375.420,294.800 375.200 C 294.800 374.980,295.160 374.800,295.600 374.800 C 296.040 374.800,296.400 374.620,296.400 374.400 C 296.400 374.180,296.636 374.000,296.925 374.000 C 297.213 374.000,297.836 373.640,298.308 373.200 C 298.780 372.760,299.444 372.400,299.783 372.400 C 300.122 372.400,300.400 372.220,300.400 372.000 C 300.400 371.780,300.720 371.600,301.112 371.600 C 301.503 371.600,302.083 371.240,302.400 370.800 C 302.717 370.360,303.297 370.000,303.688 370.000 C 304.080 370.000,304.400 369.820,304.400 369.600 C 304.400 369.380,304.720 369.200,305.112 369.200 C 305.503 369.200,306.083 368.840,306.400 368.400 C 306.717 367.960,307.257 367.600,307.600 367.600 C 307.943 367.600,308.483 367.240,308.800 366.800 C 309.117 366.360,309.657 366.000,310.000 366.000 C 310.343 366.000,310.883 365.640,311.200 365.200 C 311.517 364.760,312.057 364.400,312.400 364.400 C 312.743 364.400,313.283 364.040,313.600 363.600 C 313.917 363.160,314.425 362.800,314.728 362.800 C 315.031 362.800,315.783 362.260,316.400 361.600 C 317.017 360.940,317.737 360.400,318.000 360.400 C 318.263 360.400,318.983 359.860,319.600 359.200 C 320.217 358.540,320.937 358.000,321.200 358.000 C 321.463 358.000,322.183 357.460,322.800 356.800 C 323.417 356.140,324.101 355.600,324.320 355.600 C 324.539 355.600,325.638 354.700,326.761 353.600 C 327.885 352.500,328.972 351.600,329.177 351.600 C 329.383 351.600,331.183 349.980,333.178 348.000 C 335.173 346.020,336.967 344.400,337.163 344.400 C 337.629 344.400,344.400 337.629,344.400 337.163 C 344.400 336.967,346.020 335.173,348.000 333.178 C 349.980 331.183,351.600 329.383,351.600 329.177 C 351.600 328.972,352.500 327.885,353.600 326.761 C 354.700 325.638,355.600 324.539,355.600 324.320 C 355.600 324.101,356.140 323.417,356.800 322.800 C 357.460 322.183,358.000 321.463,358.000 321.200 C 358.000 320.937,358.540 320.217,359.200 319.600 C 359.860 318.983,360.400 318.263,360.400 318.000 C 360.400 317.737,360.940 317.017,361.600 316.400 C 362.260 315.783,362.800 315.031,362.800 314.728 C 362.800 314.425,363.160 313.917,363.600 313.600 C 364.040 313.283,364.400 312.743,364.400 312.400 C 364.400 312.057,364.760 311.517,365.200 311.200 C 365.640 310.883,366.000 310.343,366.000 310.000 C 366.000 309.657,366.360 309.117,366.800 308.800 C 367.240 308.483,367.600 307.943,367.600 307.600 C 367.600 307.257,367.960 306.717,368.400 306.400 C 368.840 306.083,369.200 305.503,369.200 305.112 C 369.200 304.720,369.380 304.400,369.600 304.400 C 369.820 304.400,370.000 304.080,370.000 303.688 C 370.000 303.297,370.360 302.717,370.800 302.400 C 371.240 302.083,371.600 301.503,371.600 301.112 C 371.600 300.720,371.780 300.400,372.000 300.400 C 372.220 300.400,372.400 300.122,372.400 299.783 C 372.400 299.444,372.760 298.780,373.200 298.308 C 373.640 297.836,374.000 297.213,374.000 296.925 C 374.000 296.636,374.180 296.400,374.400 296.400 C 374.620 296.400,374.800 296.040,374.800 295.600 C 374.800 295.160,374.980 294.800,375.200 294.800 C 375.420 294.800,375.600 294.440,375.600 294.000 C 375.600 293.560,375.780 293.200,376.000 293.200 C 376.220 293.200,376.400 292.840,376.400 292.400 C 376.400 291.960,376.580 291.600,376.800 291.600 C 377.020 291.600,377.200 291.240,377.200 290.800 C 377.200 290.360,377.380 290.000,377.600 290.000 C 377.820 290.000,378.000 289.640,378.000 289.200 C 378.000 288.760,378.180 288.400,378.400 288.400 C 378.620 288.400,378.800 288.040,378.800 287.600 C 378.800 287.160,378.980 286.800,379.200 286.800 C 379.420 286.800,379.600 286.440,379.600 286.000 C 379.600 285.560,379.780 285.200,380.000 285.200 C 380.220 285.200,380.400 284.840,380.400 284.400 C 380.400 283.960,380.580 283.600,380.800 283.600 C 381.020 283.600,381.200 283.240,381.200 282.800 C 381.200 282.360,381.380 282.000,381.600 282.000 C 381.820 282.000,382.000 281.651,382.000 281.224 C 382.000 280.797,382.180 280.336,382.400 280.200 C 382.620 280.064,382.800 279.513,382.800 278.976 C 382.800 278.439,382.980 278.000,383.200 278.000 C 383.420 278.000,383.600 277.640,383.600 277.200 C 383.600 276.760,383.780 276.400,384.000 276.400 C 384.220 276.400,384.400 275.860,384.400 275.200 C 384.400 274.540,384.580 274.000,384.800 274.000 C 385.020 274.000,385.200 273.640,385.200 273.200 C 385.200 272.760,385.380 272.400,385.600 272.400 C 385.820 272.400,386.000 271.860,386.000 271.200 C 386.000 270.540,386.180 270.000,386.400 270.000 C 386.620 270.000,386.800 269.651,386.800 269.224 C 386.800 268.797,386.980 268.336,387.200 268.200 C 387.420 268.064,387.600 267.513,387.600 266.976 C 387.600 266.439,387.780 266.000,388.000 266.000 C 388.220 266.000,388.400 265.460,388.400 264.800 C 388.400 264.140,388.580 263.600,388.800 263.600 C 389.020 263.600,389.200 263.060,389.200 262.400 C 389.200 261.740,389.380 261.200,389.600 261.200 C 389.820 261.200,390.000 260.671,390.000 260.024 C 390.000 259.377,390.180 258.736,390.400 258.600 C 390.620 258.464,390.800 257.733,390.800 256.976 C 390.800 256.219,390.980 255.600,391.200 255.600 C 391.420 255.600,391.600 255.060,391.600 254.400 C 391.600 253.740,391.780 253.200,392.000 253.200 C 392.220 253.200,392.400 252.480,392.400 251.600 C 392.400 250.720,392.580 250.000,392.800 250.000 C 393.020 250.000,393.200 249.280,393.200 248.400 C 393.200 247.520,393.380 246.800,393.600 246.800 C 393.820 246.800,394.000 246.080,394.000 245.200 C 394.000 244.320,394.180 243.600,394.400 243.600 C 394.620 243.600,394.800 242.700,394.800 241.600 C 394.800 240.500,394.980 239.600,395.200 239.600 C 395.420 239.600,395.600 238.700,395.600 237.600 C 395.600 236.500,395.780 235.600,396.000 235.600 C 396.222 235.600,396.400 234.533,396.400 233.200 C 396.400 231.867,396.578 230.800,396.800 230.800 C 397.029 230.800,397.200 229.600,397.200 228.000 C 397.200 226.400,397.371 225.200,397.600 225.200 C 397.837 225.200,398.000 223.741,398.000 221.624 C 398.000 219.657,398.180 217.936,398.400 217.800 C 398.949 217.461,398.949 180.939,398.400 180.600 C 398.180 180.464,398.000 178.743,398.000 176.776 C 398.000 174.659,397.837 173.200,397.600 173.200 C 397.371 173.200,397.200 172.000,397.200 170.400 C 397.200 168.800,397.029 167.600,396.800 167.600 C 396.578 167.600,396.400 166.533,396.400 165.200 C 396.400 163.867,396.222 162.800,396.000 162.800 C 395.780 162.800,395.600 161.900,395.600 160.800 C 395.600 159.700,395.420 158.800,395.200 158.800 C 394.980 158.800,394.800 157.900,394.800 156.800 C 394.800 155.700,394.620 154.800,394.400 154.800 C 394.180 154.800,394.000 154.080,394.000 153.200 C 394.000 152.320,393.820 151.600,393.600 151.600 C 393.380 151.600,393.200 150.880,393.200 150.000 C 393.200 149.120,393.020 148.400,392.800 148.400 C 392.580 148.400,392.400 147.680,392.400 146.800 C 392.400 145.920,392.220 145.200,392.000 145.200 C 391.780 145.200,391.600 144.660,391.600 144.000 C 391.600 143.340,391.420 142.800,391.200 142.800 C 390.980 142.800,390.800 142.181,390.800 141.424 C 390.800 140.667,390.620 139.936,390.400 139.800 C 390.180 139.664,390.000 139.023,390.000 138.376 C 390.000 137.729,389.820 137.200,389.600 137.200 C 389.380 137.200,389.200 136.660,389.200 136.000 C 389.200 135.340,389.020 134.800,388.800 134.800 C 388.580 134.800,388.400 134.260,388.400 133.600 C 388.400 132.940,388.220 132.400,388.000 132.400 C 387.780 132.400,387.600 131.961,387.600 131.424 C 387.600 130.887,387.420 130.336,387.200 130.200 C 386.980 130.064,386.800 129.603,386.800 129.176 C 386.800 128.749,386.620 128.400,386.400 128.400 C 386.180 128.400,386.000 127.860,386.000 127.200 C 386.000 126.540,385.820 126.000,385.600 126.000 C 385.380 126.000,385.200 125.640,385.200 125.200 C 385.200 124.760,385.020 124.400,384.800 124.400 C 384.580 124.400,384.400 123.860,384.400 123.200 C 384.400 122.540,384.220 122.000,384.000 122.000 C 383.780 122.000,383.600 121.640,383.600 121.200 C 383.600 120.760,383.420 120.400,383.200 120.400 C 382.980 120.400,382.800 119.961,382.800 119.424 C 382.800 118.887,382.620 118.336,382.400 118.200 C 382.180 118.064,382.000 117.603,382.000 117.176 C 382.000 116.749,381.820 116.400,381.600 116.400 C 381.380 116.400,381.200 116.040,381.200 115.600 C 381.200 115.160,381.020 114.800,380.800 114.800 C 380.580 114.800,380.400 114.440,380.400 114.000 C 380.400 113.560,380.220 113.200,380.000 113.200 C 379.780 113.200,379.600 112.840,379.600 112.400 C 379.600 111.960,379.420 111.600,379.200 111.600 C 378.980 111.600,378.800 111.240,378.800 110.800 C 378.800 110.360,378.620 110.000,378.400 110.000 C 378.180 110.000,378.000 109.640,378.000 109.200 C 378.000 108.760,377.820 108.400,377.600 108.400 C 377.380 108.400,377.200 108.040,377.200 107.600 C 377.200 107.160,377.020 106.800,376.800 106.800 C 376.580 106.800,376.400 106.440,376.400 106.000 C 376.400 105.560,376.220 105.200,376.000 105.200 C 375.780 105.200,375.600 104.840,375.600 104.400 C 375.600 103.960,375.420 103.600,375.200 103.600 C 374.980 103.600,374.800 103.240,374.800 102.800 C 374.800 102.360,374.620 102.000,374.400 102.000 C 374.180 102.000,374.000 101.764,374.000 101.475 C 374.000 101.187,373.640 100.564,373.200 100.092 C 372.760 99.620,372.400 98.956,372.400 98.617 C 372.400 98.278,372.220 98.000,372.000 98.000 C 371.780 98.000,371.600 97.680,371.600 97.288 C 371.600 96.897,371.240 96.317,370.800 96.000 C 370.360 95.683,370.000 95.103,370.000 94.712 C 370.000 94.320,369.820 94.000,369.600 94.000 C 369.380 94.000,369.200 93.680,369.200 93.288 C 369.200 92.897,368.840 92.317,368.400 92.000 C 367.960 91.683,367.600 91.143,367.600 90.800 C 367.600 90.457,367.240 89.917,366.800 89.600 C 366.360 89.283,366.000 88.743,366.000 88.400 C 366.000 88.057,365.640 87.517,365.200 87.200 C 364.760 86.883,364.400 86.343,364.400 86.000 C 364.400 85.657,364.040 85.117,363.600 84.800 C 363.160 84.483,362.800 83.975,362.800 83.672 C 362.800 83.369,362.260 82.617,361.600 82.000 C 360.940 81.383,360.400 80.663,360.400 80.400 C 360.400 80.137,359.860 79.417,359.200 78.800 C 358.540 78.183,358.000 77.463,358.000 77.200 C 358.000 76.937,357.460 76.217,356.800 75.600 C 356.140 74.983,355.600 74.299,355.600 74.080 C 355.600 73.861,354.700 72.762,353.600 71.639 C 352.500 70.515,351.600 69.428,351.600 69.223 C 351.600 69.017,349.980 67.217,348.000 65.222 C 346.020 63.227,344.400 61.433,344.400 61.237 C 344.400 60.771,337.629 54.000,337.163 54.000 C 336.967 54.000,335.173 52.380,333.178 50.400 C 331.183 48.420,329.383 46.800,329.177 46.800 C 328.972 46.800,327.885 45.900,326.761 44.800 C 325.638 43.700,324.539 42.800,324.320 42.800 C 324.101 42.800,323.417 42.260,322.800 41.600 C 322.183 40.940,321.463 40.400,321.200 40.400 C 320.937 40.400,320.217 39.860,319.600 39.200 C 318.983 38.540,318.263 38.000,318.000 38.000 C 317.737 38.000,317.017 37.460,316.400 36.800 C 315.783 36.140,315.031 35.600,314.728 35.600 C 314.425 35.600,313.917 35.240,313.600 34.800 C 313.283 34.360,312.743 34.000,312.400 34.000 C 312.057 34.000,311.517 33.640,311.200 33.200 C 310.883 32.760,310.343 32.400,310.000 32.400 C 309.657 32.400,309.117 32.040,308.800 31.600 C 308.483 31.160,307.943 30.800,307.600 30.800 C 307.257 30.800,306.717 30.440,306.400 30.000 C 306.083 29.560,305.503 29.200,305.112 29.200 C 304.720 29.200,304.400 29.020,304.400 28.800 C 304.400 28.580,304.080 28.400,303.688 28.400 C 303.297 28.400,302.717 28.040,302.400 27.600 C 302.083 27.160,301.503 26.800,301.112 26.800 C 300.720 26.800,300.400 26.620,300.400 26.400 C 300.400 26.180,300.122 26.000,299.783 26.000 C 299.444 26.000,298.780 25.640,298.308 25.200 C 297.836 24.760,297.213 24.400,296.925 24.400 C 296.636 24.400,296.400 24.220,296.400 24.000 C 296.400 23.780,296.040 23.600,295.600 23.600 C 295.160 23.600,294.800 23.420,294.800 23.200 C 294.800 22.980,294.440 22.800,294.000 22.800 C 293.560 22.800,293.200 22.620,293.200 22.400 C 293.200 22.180,292.840 22.000,292.400 22.000 C 291.960 22.000,291.600 21.820,291.600 21.600 C 291.600 21.380,291.240 21.200,290.800 21.200 C 290.360 21.200,290.000 21.020,290.000 20.800 C 290.000 20.580,289.640 20.400,289.200 20.400 C 288.760 20.400,288.400 20.220,288.400 20.000 C 288.400 19.780,288.040 19.600,287.600 19.600 C 287.160 19.600,286.800 19.420,286.800 19.200 C 286.800 18.980,286.440 18.800,286.000 18.800 C 285.560 18.800,285.200 18.620,285.200 18.400 C 285.200 18.180,284.840 18.000,284.400 18.000 C 283.960 18.000,283.600 17.820,283.600 17.600 C 283.600 17.380,283.240 17.200,282.800 17.200 C 282.360 17.200,282.000 17.020,282.000 16.800 C 282.000 16.580,281.651 16.400,281.224 16.400 C 280.797 16.400,280.336 16.220,280.200 16.000 C 280.064 15.780,279.513 15.600,278.976 15.600 C 278.439 15.600,278.000 15.420,278.000 15.200 C 278.000 14.980,277.640 14.800,277.200 14.800 C 276.760 14.800,276.400 14.620,276.400 14.400 C 276.400 14.180,275.860 14.000,275.200 14.000 C 274.540 14.000,274.000 13.820,274.000 13.600 C 274.000 13.380,273.640 13.200,273.200 13.200 C 272.760 13.200,272.400 13.020,272.400 12.800 C 272.400 12.580,271.860 12.400,271.200 12.400 C 270.540 12.400,270.000 12.220,270.000 12.000 C 270.000 11.780,269.651 11.600,269.224 11.600 C 268.797 11.600,268.336 11.420,268.200 11.200 C 268.064 10.980,267.513 10.800,266.976 10.800 C 266.439 10.800,266.000 10.620,266.000 10.400 C 266.000 10.180,265.460 10.000,264.800 10.000 C 264.140 10.000,263.600 9.820,263.600 9.600 C 263.600 9.380,263.060 9.200,262.400 9.200 C 261.740 9.200,261.200 9.020,261.200 8.800 C 261.200 8.580,260.671 8.400,260.024 8.400 C 259.377 8.400,258.736 8.220,258.600 8.000 C 258.464 7.780,257.733 7.600,256.976 7.600 C 256.219 7.600,255.600 7.420,255.600 7.200 C 255.600 6.980,255.060 6.800,254.400 6.800 C 253.740 6.800,253.200 6.620,253.200 6.400 C 253.200 6.180,252.480 6.000,251.600 6.000 C 250.720 6.000,250.000 5.820,250.000 5.600 C 250.000 5.380,249.280 5.200,248.400 5.200 C 247.520 5.200,246.800 5.020,246.800 4.800 C 246.800 4.580,246.080 4.400,245.200 4.400 C 244.320 4.400,243.600 4.220,243.600 4.000 C 243.600 3.780,242.700 3.600,241.600 3.600 C 240.500 3.600,239.600 3.420,239.600 3.200 C 239.600 2.980,238.700 2.800,237.600 2.800 C 236.500 2.800,235.600 2.620,235.600 2.400 C 235.600 2.178,234.533 2.000,233.200 2.000 C 231.867 2.000,230.800 1.822,230.800 1.600 C 230.800 1.372,229.611 1.200,228.033 1.200 C 226.207 1.200,225.211 1.034,225.104 0.711 C 224.942 0.227,186.343 -0.122,176.900 0.275 M151.899 128.099 C 169.115 145.314,183.200 159.599,183.200 159.844 C 183.200 160.090,171.410 172.150,157.000 186.645 C 142.590 201.140,128.577 215.295,125.861 218.100 C 123.144 220.905,120.668 223.200,120.358 223.200 C 120.048 223.200,114.577 217.980,108.199 211.599 L 96.604 199.999 116.302 180.298 C 127.136 169.462,136.000 160.335,136.000 160.015 C 136.000 159.696,127.180 150.650,116.400 139.915 C 105.620 129.179,96.800 120.263,96.800 120.101 C 96.800 119.646,119.740 96.800,120.196 96.800 C 120.417 96.800,134.684 110.885,151.899 128.099 M220.298 116.898 L 240.000 136.597 259.702 116.898 C 270.537 106.064,279.586 97.200,279.809 97.200 C 280.344 97.200,302.800 119.661,302.800 120.196 C 302.800 120.422,288.679 134.723,271.421 151.976 L 240.042 183.346 208.721 152.203 C 191.494 135.074,177.246 120.803,177.057 120.489 C 176.660 119.828,198.942 97.200,199.989 97.200 C 200.323 97.200,209.463 106.064,220.298 116.898 M291.484 188.091 C 297.708 194.300,302.800 199.655,302.800 199.989 C 302.800 200.323,293.936 209.463,283.102 220.298 L 263.403 240.000 283.102 259.702 C 293.936 270.537,302.800 279.586,302.800 279.809 C 302.800 280.344,280.339 302.800,279.804 302.800 C 279.578 302.800,265.272 288.675,248.014 271.411 L 216.634 240.022 245.180 211.311 C 260.880 195.520,275.025 181.295,276.613 179.700 C 278.200 178.105,279.650 176.800,279.833 176.800 C 280.017 176.800,285.260 181.881,291.484 188.091 M222.943 279.511 C 223.340 280.172,201.058 302.800,200.011 302.800 C 199.677 302.800,190.537 293.936,179.702 283.102 L 160.000 263.403 140.298 283.102 C 129.463 293.936,120.355 302.800,120.060 302.800 C 119.392 302.800,97.200 280.548,97.200 279.879 C 97.200 279.612,111.321 265.277,128.579 248.024 L 159.958 216.654 191.279 247.797 C 208.506 264.926,222.754 279.197,222.943 279.511 " stroke="none" fill="#bbfb04" fill-rule="evenodd"></path></g></svg>