<svg width="50" height="50" viewBox="0 0 50 50" fill="none" xmlns="http://www.w3.org/2000/svg">
<path d="M42.3962 50H25.2006C24.7287 50 24.2857 49.748 24.0462 49.3439C23.8067 48.9398 23.8019 48.4335 24.0318 48.0246L26.9704 42.8093H18.8851C18.4851 42.8093 18.1139 42.5953 17.9175 42.2506C17.9151 42.2435 17.9103 42.2388 17.9079 42.2316C17.8385 42.1627 17.7786 42.0843 17.7283 41.9987L14.567 36.7286L11.5063 41.9725C11.2787 42.3647 10.8548 42.6072 10.3998 42.6072C10.3974 42.6072 10.395 42.6072 10.3926 42.6072C9.93518 42.6048 9.50888 42.3552 9.28615 41.9606L0.163814 25.8914C-0.0589158 25.4992 -0.0541289 25.0119 0.175786 24.6244L9.29813 9.19226C9.52565 8.80717 9.94476 8.56708 10.395 8.5647C10.3974 8.5647 10.3998 8.5647 10.4022 8.5647C10.8477 8.5647 11.2668 8.80004 11.4991 9.178L14.4401 14.0178L17.7307 8.52905C17.7666 8.46962 17.8074 8.41257 17.8529 8.3579L18.2145 7.72322L18.854 7.71608H27.1548L23.5313 1.07446L24.1587 0.00951045L24.7862 0H43.1554L43.4812 0.546738L52.5508 16.2356C52.7711 16.6183 52.7711 17.0914 52.5484 17.4741C52.3257 17.8568 51.9114 18.0921 51.4683 18.0921H45.0307L48.8171 24.4057C48.9704 24.6601 49.0254 24.9525 48.9847 25.2377C49.0374 25.5301 48.9871 25.8344 48.8339 26.0982L45.1385 32.4308H51.3102C51.7892 32.4308 52.2347 32.6876 52.4718 33.1012C52.7089 33.5148 52.7041 34.0259 52.4598 34.4347L43.5458 49.3487C43.3063 49.7504 42.8657 50 42.3962 50ZM26.5968 47.8606H41.9316L49.8757 34.5702H43.8907L39.4121 42.2411C39.2062 42.5906 38.823 42.8093 38.4135 42.8093H29.442L26.5968 47.8606ZM19.7904 42.2292L19.7856 42.2364C19.788 42.234 19.788 42.2316 19.7904 42.2292ZM30.649 40.6675H37.8387L41.3976 34.5678H34.0834L30.649 40.6675ZM20.7244 40.6675H28.1775L32.4381 33.1083C32.6752 32.6899 33.1206 32.4285 33.6044 32.4285H42.6453L46.2042 26.3288H29.3199L20.7244 40.6675ZM15.8076 34.6059L18.83 39.6477L27.4566 25.2615L18.83 10.8752L15.7022 16.093L20.8777 24.6078C21.1196 25.0048 21.1244 25.4992 20.8897 25.9009L15.8076 34.6059ZM2.28573 25.2734L10.4094 39.5835L13.3049 34.6225L8.0815 25.9128C7.842 25.5111 7.842 25.0143 8.0815 24.6125L13.1851 16.1001L10.4118 11.5313L2.28573 25.2734ZM10.2034 25.2615L14.5454 32.4998L18.7653 25.271L14.452 18.1753L10.2034 25.2615ZM29.3222 24.1918H46.1803L42.5232 18.0921H32.8284L32.5051 17.5288L28.3212 9.8531H20.7244L29.3222 24.1918ZM43.7494 15.9527H49.9044L41.9197 2.13939H26.5657L29.6049 7.71608H38.0255C38.5093 7.71608 38.9619 7.97281 39.2086 8.38405L43.7494 15.9527ZM34.0954 15.9527H41.2419L37.5848 9.8531H30.7736L34.0954 15.9527ZM19.7688 8.25806L19.7712 8.26044C19.7688 8.26044 19.7688 8.26044 19.7688 8.25806Z" fill="white"/>
</svg>
