<svg width="51" height="48" viewBox="0 0 51 48" fill="none" xmlns="http://www.w3.org/2000/svg">
<path d="M41.0164 48H24.3803C23.9239 48 23.4952 47.7581 23.2635 47.3702C23.0318 46.9822 23.0272 46.4961 23.2496 46.1036L26.0926 41.0969H18.2704C17.8835 41.0969 17.5244 40.8915 17.3344 40.5606C17.332 40.5538 17.3274 40.5492 17.3251 40.5424C17.2579 40.4762 17.2 40.4009 17.1513 40.3187L14.0929 35.2595L11.1318 40.2936C10.9117 40.6702 10.5015 40.9029 10.0613 40.9029C10.059 40.9029 10.0567 40.9029 10.0544 40.9029C9.61182 40.9006 9.19939 40.661 8.98391 40.2822L0.158482 24.8558C-0.0569983 24.4792 -0.0523671 24.0114 0.170064 23.6394L8.9955 8.82457C9.21561 8.45489 9.62108 8.2244 10.0567 8.22212C10.059 8.22212 10.0613 8.22212 10.0636 8.22212C10.4946 8.22212 10.9001 8.44804 11.1248 8.81088L13.9701 13.4571L17.1536 8.18789C17.1884 8.13084 17.2278 8.07607 17.2718 8.02358L17.6217 7.41429L18.2403 7.40744H26.271L22.7654 1.03148L23.3724 0.00913003L23.9795 0H41.7508L42.066 0.524869L50.8404 15.5862C51.0536 15.9536 51.0536 16.4077 50.8381 16.7751C50.6226 17.1425 50.2218 17.3685 49.7931 17.3685H43.5651L47.2282 23.4295C47.3765 23.6737 47.4298 23.9544 47.3904 24.2282C47.4414 24.5089 47.3927 24.801 47.2444 25.0543L43.6693 31.1336H49.6402C50.1036 31.1336 50.5346 31.3801 50.764 31.7771C50.9933 32.1742 50.9887 32.6648 50.7524 33.0573L42.1285 47.3747C41.8968 47.7604 41.4705 48 41.0164 48ZM25.7311 45.9462H40.5669L48.2523 33.1874H42.4622L38.1294 40.5515C37.9301 40.887 37.5594 41.0969 37.1632 41.0969H28.4837L25.7311 45.9462ZM19.1462 40.5401L19.1416 40.5469C19.1439 40.5446 19.1439 40.5424 19.1462 40.5401ZM29.6515 39.0408H36.6071L40.0502 33.1851H32.9741L29.6515 39.0408ZM20.0499 39.0408H27.2604L31.3823 31.784C31.6117 31.3823 32.0426 31.1313 32.5107 31.1313H41.2573L44.7004 25.2757H28.3656L20.0499 39.0408ZM15.2931 33.2216L18.2171 38.0618L26.563 24.251L18.2171 10.4402L15.1911 15.4493L20.1982 23.6235C20.4322 24.0046 20.4368 24.4792 20.2097 24.8649L15.2931 33.2216ZM2.21134 24.2624L10.0706 38.0002L12.8718 33.2376L7.81846 24.8763C7.58677 24.4906 7.58677 24.0137 7.81846 23.628L12.756 15.4561L10.0729 11.0701L2.21134 24.2624ZM9.87132 24.251L14.072 31.1998L18.1546 24.2602L13.9817 17.4483L9.87132 24.251ZM28.3679 23.2241H44.6772L41.1392 17.3685H31.76L31.4472 16.8276L27.3994 9.45897H20.0499L28.3679 23.2241ZM42.3255 15.3146H48.2801L40.5553 2.05382H25.701L28.6413 7.40744H36.7878C37.2559 7.40744 37.6938 7.6539 37.9324 8.04869L42.3255 15.3146ZM32.9857 15.3146H39.8996L36.3615 9.45897H29.772L32.9857 15.3146ZM19.1254 7.92774L19.1277 7.93002C19.1254 7.93002 19.1254 7.93002 19.1254 7.92774Z" fill="white"/>
</svg>
