<svg id="svg" version="1.1" xmlns="http://www.w3.org/2000/svg" xmlns:xlink="http://www.w3.org/1999/xlink" width="400" height="400" viewBox="0, 0, 400,400"><g id="svgg"><path id="path0" d="M194.946 75.142 C 194.898 75.229,192.888 83.201,190.479 92.859 L 186.100 110.418 185.400 110.297 C 183.992 110.055,172.143 107.147,157.800 103.524 C 149.715 101.482,142.964 99.809,142.798 99.806 C 142.565 99.801,141.863 102.339,139.714 110.950 C 138.184 117.083,136.894 122.248,136.848 122.429 C 136.779 122.700,137.243 122.869,139.532 123.402 C 156.241 127.293,159.143 128.535,161.249 132.700 C 163.294 136.740,163.445 135.645,157.597 159.100 C 136.075 245.421,138.148 237.604,136.239 239.645 C 133.520 242.551,131.749 242.564,120.800 239.763 C 116.895 238.764,113.466 237.906,113.180 237.855 C 112.692 237.769,112.608 237.881,111.844 239.632 C 106.900 250.950,102.029 262.295,102.087 262.354 C 102.127 262.394,110.742 264.589,121.230 267.233 C 131.719 269.876,141.380 272.312,142.700 272.647 C 144.020 272.982,145.178 273.326,145.274 273.412 C 145.371 273.499,143.461 281.531,141.000 291.393 C 138.552 301.196,136.584 309.245,136.625 309.278 C 136.727 309.361,157.749 314.600,157.981 314.600 C 158.082 314.600,160.122 306.703,162.515 297.050 C 164.909 287.397,166.922 279.435,166.989 279.355 C 167.056 279.275,169.628 279.866,172.705 280.670 C 175.782 281.473,179.629 282.474,181.254 282.894 C 183.675 283.520,184.191 283.715,184.112 283.979 C 183.959 284.489,175.400 318.786,175.400 318.891 C 175.400 319.017,175.481 319.038,186.934 321.860 L 196.967 324.333 201.414 306.516 C 203.859 296.717,205.886 288.668,205.918 288.629 C 205.949 288.590,207.578 288.835,209.538 289.173 C 251.282 296.374,272.392 287.560,282.301 258.790 C 290.236 235.752,283.695 217.844,263.650 207.723 C 262.293 207.038,262.319 206.960,264.050 206.522 C 276.994 203.247,285.948 193.540,289.071 179.400 C 294.435 155.108,282.358 138.847,250.001 126.797 C 248.187 126.122,246.679 125.546,246.651 125.517 C 246.608 125.475,255.011 91.391,255.316 90.370 C 255.433 89.979,234.134 84.571,233.823 84.914 C 233.730 85.016,231.833 92.463,229.608 101.463 C 227.382 110.462,225.473 118.143,225.366 118.531 C 225.190 119.170,225.121 119.223,224.636 119.097 C 223.897 118.906,212.141 116.140,209.779 115.602 L 207.858 115.164 212.204 97.783 L 216.550 80.402 215.825 80.211 C 215.426 80.105,210.735 78.931,205.400 77.602 C 200.065 76.272,195.550 75.139,195.367 75.084 C 195.184 75.029,194.994 75.055,194.946 75.142 M207.804 142.004 C 236.853 148.607,248.333 156.799,247.735 170.500 C 247.020 186.890,232.874 192.971,207.500 187.795 C 202.547 186.785,191.898 184.109,191.522 183.780 C 191.279 183.567,201.982 140.800,202.279 140.800 C 202.405 140.800,204.891 141.342,207.804 142.004 M193.200 207.293 C 228.734 215.497,242.998 225.710,241.007 241.522 C 238.974 257.679,224.224 263.482,197.400 258.679 C 192.281 257.763,174.460 253.527,174.066 253.133 C 173.753 252.820,185.903 205.580,186.271 205.678 C 186.507 205.741,189.625 206.467,193.200 207.293 " stroke="none" fill="#fcfbfb" fill-rule="evenodd"></path><path id="path1" d="M190.100 0.136 C 113.935 3.977,45.884 51.183,16.295 120.700 C 15.312 123.010,14.416 124.966,14.304 125.047 C 14.192 125.128,14.166 125.195,14.247 125.197 C 14.328 125.199,14.203 125.672,13.970 126.250 C -2.352 166.615,-4.506 214.620,8.116 256.700 C 8.743 258.790,9.263 260.657,9.271 260.850 C 9.279 261.043,9.346 261.200,9.419 261.200 C 9.492 261.200,9.656 261.611,9.783 262.114 C 10.052 263.185,12.785 270.765,13.995 273.800 C 18.110 284.117,23.815 295.513,29.515 304.800 C 30.494 306.395,31.274 307.768,31.247 307.850 C 31.221 307.933,31.282 308.000,31.382 308.000 C 31.482 308.000,31.946 308.608,32.413 309.350 C 36.410 315.708,45.689 327.895,50.348 332.909 C 58.281 341.444,62.590 345.704,68.461 350.816 C 139.729 412.867,244.620 416.683,320.198 359.972 C 397.582 301.906,422.213 196.645,378.691 110.000 C 343.231 39.407,268.990 -3.843,190.100 0.136 M205.400 77.602 C 210.735 78.931,215.426 80.105,215.825 80.211 L 216.550 80.402 212.204 97.783 L 207.858 115.164 209.779 115.602 C 212.141 116.140,223.897 118.906,224.636 119.097 C 225.121 119.223,225.190 119.170,225.366 118.531 C 225.473 118.143,227.382 110.462,229.608 101.463 C 231.833 92.463,233.730 85.016,233.823 84.914 C 234.134 84.571,255.433 89.979,255.316 90.370 C 255.011 91.391,246.608 125.475,246.651 125.517 C 246.679 125.546,248.187 126.122,250.001 126.797 C 282.358 138.847,294.435 155.108,289.071 179.400 C 285.948 193.540,276.994 203.247,264.050 206.522 C 262.319 206.960,262.293 207.038,263.650 207.723 C 283.695 217.844,290.236 235.752,282.301 258.790 C 272.392 287.560,251.282 296.374,209.538 289.173 C 207.578 288.835,205.949 288.590,205.918 288.629 C 205.886 288.668,203.859 296.717,201.414 306.516 L 196.967 324.333 186.934 321.860 C 175.481 319.038,175.400 319.017,175.400 318.891 C 175.400 318.786,183.959 284.489,184.112 283.979 C 184.191 283.715,183.675 283.520,181.254 282.894 C 179.629 282.474,175.782 281.473,172.705 280.670 C 169.628 279.866,167.056 279.275,166.989 279.355 C 166.922 279.435,164.909 287.397,162.515 297.050 C 160.122 306.703,158.082 314.600,157.981 314.600 C 157.749 314.600,136.727 309.361,136.625 309.278 C 136.584 309.245,138.552 301.196,141.000 291.393 C 143.461 281.531,145.371 273.499,145.274 273.412 C 145.178 273.326,144.020 272.982,142.700 272.647 C 141.380 272.312,131.719 269.876,121.230 267.233 C 110.742 264.589,102.127 262.394,102.087 262.354 C 102.029 262.295,106.900 250.950,111.844 239.632 C 112.608 237.881,112.692 237.769,113.180 237.855 C 113.466 237.906,116.895 238.764,120.800 239.763 C 131.749 242.564,133.520 242.551,136.239 239.645 C 138.148 237.604,136.075 245.421,157.597 159.100 C 163.445 135.645,163.294 136.740,161.249 132.700 C 159.143 128.535,156.241 127.293,139.532 123.402 C 137.243 122.869,136.779 122.700,136.848 122.429 C 136.894 122.248,138.184 117.083,139.714 110.950 C 141.863 102.339,142.565 99.801,142.798 99.806 C 142.964 99.809,149.715 101.482,157.800 103.524 C 172.143 107.147,183.992 110.055,185.400 110.297 L 186.100 110.418 190.479 92.859 C 195.315 73.468,194.909 74.946,195.367 75.084 C 195.550 75.139,200.065 76.272,205.400 77.602 M196.697 162.212 C 193.672 174.311,191.422 183.692,191.522 183.780 C 191.709 183.943,198.729 185.813,202.500 186.704 C 227.140 192.526,241.659 189.545,246.216 177.727 C 252.206 162.195,242.053 150.803,216.166 144.012 C 213.050 143.194,202.697 140.800,202.279 140.800 C 202.141 140.800,199.909 149.362,196.697 162.212 M179.933 229.327 C 176.683 242.397,174.043 253.110,174.066 253.133 C 174.460 253.527,192.281 257.763,197.400 258.679 C 224.224 263.482,238.974 257.679,241.007 241.522 C 242.998 225.710,228.734 215.497,193.200 207.293 C 189.625 206.467,186.507 205.741,186.271 205.678 C 185.857 205.568,185.637 206.391,179.933 229.327 " stroke="none" fill="#f4941c" fill-rule="evenodd"></path></g></svg>