<svg xmlns="http://www.w3.org/2000/svg" width="1000" height="1000" viewBox="0 0 1000 1000" version="1.1"><path d="M 546 247.693 C 544.625 247.924, 540.222 248.990, 536.215 250.063 C 532.208 251.136, 525.264 253.856, 520.784 256.109 C 516.304 258.361, 510.357 261.890, 507.569 263.949 C 504.781 266.009, 499.693 270.576, 496.261 274.097 C 492.830 277.619, 487.251 284.550, 483.865 289.500 C 480.478 294.450, 475.187 301.611, 472.107 305.413 C 469.027 309.215, 463.355 315.709, 459.503 319.844 C 455.651 323.979, 447.550 331.609, 441.500 336.799 C 435.450 341.990, 425.100 349.826, 418.500 354.214 C 411.900 358.602, 400.200 365.271, 392.500 369.034 C 384.800 372.796, 374 377.459, 368.500 379.395 C 363 381.331, 354.225 384.050, 349 385.438 C 343.775 386.825, 334.100 388.881, 327.500 390.006 C 320.900 391.131, 309.425 392.285, 302 392.569 C 294.575 392.854, 284.900 393.556, 280.500 394.130 C 276.100 394.704, 268.577 396.687, 263.782 398.536 C 258.987 400.385, 252.462 403.546, 249.282 405.559 C 246.102 407.573, 242.529 410.110, 241.342 411.198 C 239.191 413.169, 239.156 413.169, 230.367 410.967 C 222.708 409.048, 219.775 408.827, 208.025 409.280 C 198.517 409.647, 192.460 410.415, 187.633 411.864 C 183.856 412.998, 177.556 415.554, 173.633 417.543 C 169.710 419.532, 164.099 423.009, 161.163 425.268 C 158.228 427.528, 153.421 432.035, 150.482 435.283 C 147.412 438.675, 143.190 445.088, 140.565 450.345 C 138.051 455.380, 135.344 462.094, 134.548 465.264 C 133.753 468.435, 132.790 474.960, 132.408 479.764 C 131.742 488.137, 131.450 488.961, 125.357 499.605 C 121.861 505.712, 119 511.316, 119 512.057 C 119 512.798, 122.038 518.708, 125.750 525.190 C 129.463 531.672, 132.914 536.843, 133.420 536.681 C 133.925 536.520, 137.629 531.237, 141.650 524.943 C 145.671 518.650, 148.969 513.013, 148.980 512.418 C 148.991 511.822, 146.238 506.197, 142.863 499.918 C 136.778 488.596, 136.736 488.462, 137.879 484 C 138.513 481.525, 140.887 475.704, 143.156 471.065 C 146.407 464.417, 148.998 460.922, 155.390 454.565 C 159.851 450.129, 166.049 445.006, 169.165 443.179 C 172.281 441.353, 178.131 438.654, 182.165 437.183 C 188.824 434.754, 190.806 434.507, 203.665 434.503 C 211.456 434.502, 218.124 434.793, 218.482 435.151 C 218.841 435.508, 217.985 438.070, 216.579 440.843 C 215.174 443.617, 212.931 449.174, 211.595 453.193 C 210.258 457.212, 208.637 465, 207.992 470.500 C 207.077 478.304, 204.863 486.489, 197.914 507.766 C 193.016 522.763, 187.319 538.513, 185.254 542.766 C 181.886 549.704, 180.839 550.934, 175.079 554.720 C 171.547 557.041, 167.192 560.360, 165.401 562.096 C 163.609 563.832, 160.810 567.784, 159.181 570.876 C 157.551 573.969, 155.718 578.885, 155.109 581.799 C 154.499 584.714, 154 588.819, 154 590.922 C 154 593.025, 153.061 596.869, 151.913 599.463 C 150.766 602.058, 148.499 608.011, 146.878 612.691 C 145.256 617.372, 142.834 625.544, 141.496 630.851 C 140.159 636.158, 138.365 645, 137.510 650.500 C 136.656 656, 135.698 668.825, 135.382 679 C 134.938 693.328, 134.029 702.230, 131.352 718.475 C 128.044 738.556, 127.973 739.510, 129.698 740.835 C 130.689 741.596, 133.291 743.043, 135.480 744.052 C 137.971 745.199, 138.907 746.054, 137.980 746.336 C 137.166 746.584, 124.800 747.998, 110.500 749.478 C 96.200 750.958, 80.225 752.752, 75 753.465 C 67.123 754.539, 133.766 754.759, 465 754.758 C 698.774 754.757, 862.011 754.391, 858.500 753.876 C 855.200 753.393, 839.450 751.657, 823.500 750.018 C 807.550 748.380, 783.700 746.137, 770.500 745.034 C 757.300 743.931, 733.675 742.130, 718 741.032 C 702.325 739.934, 680.725 738.577, 670 738.016 C 659.275 737.456, 645.325 736.759, 639 736.467 C 632.675 736.176, 624.125 735.742, 620 735.504 C 615.875 735.265, 595.850 734.609, 575.500 734.046 C 555.150 733.483, 532.875 732.798, 526 732.523 C 519.125 732.249, 501.987 732.019, 487.915 732.012 L 462.330 732 453.033 711.520 L 443.737 691.040 445.995 685.770 C 447.238 682.871, 451.319 674.375, 455.064 666.889 C 458.810 659.403, 464.428 649.053, 467.549 643.889 C 470.670 638.725, 475.715 630.900, 478.759 626.500 C 481.804 622.100, 487.655 614.292, 491.761 609.148 C 495.868 604.005, 502.214 596.618, 505.864 592.734 C 509.514 588.850, 516.453 582.372, 521.285 578.339 C 526.117 574.305, 531.858 570.093, 534.044 568.977 C 537.870 567.026, 538.251 567.010, 544.259 568.573 C 547.692 569.466, 554.550 571.011, 559.500 572.007 C 564.450 573.003, 577.622 575.739, 588.771 578.087 C 599.921 580.436, 608.696 582.663, 608.271 583.038 C 607.847 583.413, 599.846 586.707, 590.490 590.359 C 581.135 594.012, 572.785 597, 571.936 597 C 571.087 597, 563.500 594.075, 555.076 590.500 C 546.653 586.925, 539.428 584, 539.021 584 C 538.613 584, 534.505 589.509, 529.890 596.242 C 525.276 602.975, 519.069 612.296, 516.097 616.956 C 513.126 621.616, 509.367 628.264, 507.746 631.729 C 506.124 635.195, 505.037 638.653, 505.329 639.415 C 505.622 640.177, 507.720 641.115, 509.993 641.499 C 512.266 641.883, 517.810 641.904, 522.313 641.546 C 526.816 641.187, 537.244 640.195, 545.487 639.341 C 557.536 638.092, 561.512 638.020, 565.774 638.974 C 568.690 639.627, 574.802 640.133, 579.357 640.100 C 583.912 640.066, 589.469 639.393, 591.706 638.604 C 593.942 637.815, 597.153 636.455, 598.841 635.582 C 600.529 634.709, 604.967 631.264, 608.705 627.925 C 612.442 624.586, 619.066 619.646, 623.425 616.948 C 627.783 614.249, 634.533 610.717, 638.425 609.098 C 642.316 607.479, 649.100 605.108, 653.500 603.828 C 657.900 602.547, 662.290 600.600, 663.255 599.500 C 664.220 598.400, 666.889 593.771, 669.186 589.214 C 672.844 581.957, 673.415 579.909, 673.790 572.714 C 674.027 568.170, 673.704 562.596, 673.067 560.237 C 672.434 557.892, 670.629 554.517, 669.057 552.737 C 667.485 550.957, 663.737 548.018, 660.728 546.206 C 657.720 544.394, 650.812 541.323, 645.379 539.381 C 639.946 537.439, 630.325 534.586, 624 533.043 C 617.675 531.499, 606.200 529.213, 598.500 527.962 C 590.800 526.712, 584.353 525.575, 584.174 525.435 C 583.995 525.296, 585.422 520.978, 587.345 515.841 C 589.268 510.703, 592.047 501.775, 593.520 496 C 595.360 488.786, 596.366 481.742, 596.734 473.493 C 597.065 466.086, 596.827 459.422, 596.114 456.097 C 595.479 453.133, 593.811 448.411, 592.409 445.604 L 589.859 440.500 593.857 444.383 C 596.057 446.518, 599.246 451.089, 600.945 454.541 C 602.645 457.992, 605.007 464.345, 606.195 468.658 C 608.044 475.372, 608.365 479.261, 608.427 495.703 L 608.500 514.907 611.886 511.703 C 613.748 509.941, 619.968 502.875, 625.707 496 C 632.269 488.139, 637.136 483.198, 638.821 482.687 C 640.294 482.241, 648.475 481.630, 657 481.330 C 669.300 480.897, 673.925 481.121, 679.404 482.414 C 683.201 483.310, 688.427 485.196, 691.017 486.606 C 693.959 488.207, 696.529 490.596, 697.863 492.971 C 699.495 495.873, 700 498.472, 700 503.960 C 700 509.022, 699.240 513.417, 697.429 518.824 C 696.015 523.046, 692.787 530.434, 690.256 535.243 C 687.724 540.052, 685.843 544.158, 686.076 544.367 C 686.309 544.577, 696.842 547.242, 709.483 550.289 C 722.123 553.337, 732.758 555.650, 733.116 555.429 C 733.473 555.208, 745.605 540.283, 760.076 522.263 C 774.546 504.244, 787.761 487.763, 789.443 485.641 C 791.124 483.519, 794.555 479.442, 797.067 476.582 C 799.579 473.723, 803.027 468.934, 804.730 465.941 C 806.432 462.949, 808.604 458.099, 809.555 455.165 L 811.285 449.831 814.893 450.496 C 816.877 450.862, 821.425 452.315, 825 453.725 C 828.575 455.134, 834.461 458.189, 838.080 460.513 C 841.699 462.838, 849.581 468.580, 855.595 473.273 C 861.610 477.967, 868.728 482.975, 871.414 484.403 C 874.452 486.019, 877.895 487, 880.523 487 C 882.847 487, 886.549 486.365, 888.748 485.589 C 890.948 484.813, 896.496 482.307, 901.076 480.022 C 905.657 477.736, 915.132 472.079, 922.133 467.450 C 929.133 462.821, 935.137 458.588, 935.474 458.042 C 935.811 457.497, 931.637 458.615, 926.199 460.526 C 920.762 462.438, 912.795 464.901, 908.496 466.001 C 904.197 467.100, 898.834 468, 896.577 468 C 893.558 468, 891.124 467.091, 887.370 464.563 C 884.563 462.673, 878.269 457.400, 873.383 452.846 C 868.497 448.292, 857.257 437.500, 848.405 428.864 C 835.028 415.812, 831.575 412.963, 827.952 411.987 C 825.554 411.341, 819.353 410.281, 814.171 409.630 L 804.750 408.447 800.384 402.973 C 797.982 399.963, 793.201 393.719, 789.759 389.097 C 786.316 384.475, 780.615 377.050, 777.088 372.597 C 773.561 368.144, 762.536 356.380, 752.588 346.457 C 742.640 336.533, 729.775 324.636, 724 320.019 C 718.225 315.402, 708.775 308.539, 703 304.768 C 697.225 300.997, 686.875 295.052, 680 291.557 C 673.125 288.062, 661.485 282.674, 654.134 279.584 C 646.782 276.494, 635.120 271.919, 628.218 269.417 C 621.316 266.915, 613.831 263.608, 611.585 262.067 C 609.338 260.526, 604.800 257.919, 601.500 256.273 C 598.200 254.627, 592.575 252.340, 589 251.191 C 585.425 250.042, 579.830 248.629, 576.566 248.051 C 573.303 247.473, 565.653 247.061, 559.566 247.136 C 553.480 247.211, 547.375 247.461, 546 247.693 M 375.928 532.625 C 374.042 535.157, 369.722 539.540, 366.326 542.364 C 362.930 545.189, 357.666 549.003, 354.628 550.840 C 351.590 552.678, 344.918 555.994, 339.802 558.210 C 334.686 560.425, 323.750 563.947, 315.500 566.036 C 307.250 568.125, 296.450 571.266, 291.500 573.016 C 286.550 574.766, 278.916 578.054, 274.536 580.322 C 270.157 582.589, 263.084 587.032, 258.820 590.193 C 254.556 593.355, 247.790 599.012, 243.784 602.765 C 239.778 606.517, 227.725 617.852, 217 627.954 C 206.275 638.055, 196.125 647.935, 194.445 649.910 C 192.765 651.884, 190.460 654.850, 189.323 656.500 C 188.187 658.150, 185.582 664, 183.534 669.500 C 181.487 675, 179.601 680.625, 179.344 682 C 179.027 683.689, 182.656 693.578, 190.537 712.500 C 196.951 727.900, 202.304 740.613, 202.434 740.751 C 202.563 740.889, 212.081 740.340, 223.584 739.531 C 235.088 738.722, 257.775 737.369, 274 736.525 C 290.225 735.681, 325.306 734.300, 351.958 733.455 C 378.609 732.610, 400.524 731.809, 400.658 731.675 C 400.792 731.542, 403.173 722.283, 405.951 711.100 C 410.169 694.113, 411 689.261, 411 681.608 C 411 676.570, 411.460 668.634, 412.023 663.974 C 412.586 659.313, 413.953 650.849, 415.061 645.164 C 416.169 639.478, 418.835 629.472, 420.984 622.926 C 423.133 616.381, 426.656 607.261, 428.812 602.661 L 432.732 594.296 416.116 593.706 C 405.394 593.325, 394.229 592.212, 384.640 590.569 C 376.467 589.169, 364.317 586.617, 357.640 584.899 C 350.963 583.181, 345.139 581.443, 344.699 581.036 C 344.258 580.630, 345.158 579.475, 346.699 578.470 C 348.239 577.465, 352.140 574.136, 355.367 571.071 C 358.594 568.007, 363.153 562.800, 365.498 559.500 C 367.843 556.200, 371.005 551.025, 372.525 548 C 374.045 544.975, 376.347 539.387, 377.642 535.581 C 378.937 531.776, 379.852 528.518, 379.675 528.342 C 379.499 528.166, 377.813 530.093, 375.928 532.625" stroke="none" fill="#fbfbfb" fill-rule="evenodd"/><path d="M 0 500.001 L 0 1000.002 500.250 999.751 L 1000.500 999.500 1000.751 499.750 L 1001.002 0 500.501 0 L 0 0 0 500.001 M 0.496 500.500 C 0.496 775.500, 0.610 887.851, 0.750 750.168 C 0.890 612.486, 0.890 387.486, 0.750 250.168 C 0.610 112.851, 0.496 225.500, 0.496 500.500 M 546 247.693 C 544.625 247.924, 540.222 248.990, 536.215 250.063 C 532.208 251.136, 525.264 253.856, 520.784 256.109 C 516.304 258.361, 510.357 261.890, 507.569 263.949 C 504.781 266.009, 499.693 270.576, 496.261 274.097 C 492.830 277.619, 487.251 284.550, 483.865 289.500 C 480.478 294.450, 475.187 301.611, 472.107 305.413 C 469.027 309.215, 463.355 315.709, 459.503 319.844 C 455.651 323.979, 447.550 331.609, 441.500 336.799 C 435.450 341.990, 425.100 349.826, 418.500 354.214 C 411.900 358.602, 400.200 365.271, 392.500 369.034 C 384.800 372.796, 374 377.459, 368.500 379.395 C 363 381.331, 354.225 384.050, 349 385.438 C 343.775 386.825, 334.100 388.881, 327.500 390.006 C 320.900 391.131, 309.425 392.285, 302 392.569 C 294.575 392.854, 284.900 393.556, 280.500 394.130 C 276.100 394.704, 268.577 396.687, 263.782 398.536 C 258.987 400.385, 252.462 403.546, 249.282 405.559 C 246.102 407.573, 242.529 410.110, 241.342 411.198 C 239.191 413.169, 239.156 413.169, 230.367 410.967 C 222.708 409.048, 219.775 408.827, 208.025 409.280 C 198.517 409.647, 192.460 410.415, 187.633 411.864 C 183.856 412.998, 177.556 415.554, 173.633 417.543 C 169.710 419.532, 164.099 423.009, 161.163 425.268 C 158.228 427.528, 153.421 432.035, 150.482 435.283 C 147.412 438.675, 143.190 445.088, 140.565 450.345 C 138.051 455.380, 135.344 462.094, 134.548 465.264 C 133.753 468.435, 132.790 474.960, 132.408 479.764 C 131.742 488.137, 131.450 488.961, 125.357 499.605 C 121.861 505.712, 119 511.316, 119 512.057 C 119 512.798, 122.038 518.708, 125.750 525.190 C 129.463 531.672, 132.914 536.843, 133.420 536.681 C 133.925 536.520, 137.629 531.237, 141.650 524.943 C 145.671 518.650, 148.969 513.013, 148.980 512.418 C 148.991 511.822, 146.238 506.197, 142.863 499.918 C 136.778 488.596, 136.736 488.462, 137.879 484 C 138.513 481.525, 140.887 475.704, 143.156 471.065 C 146.407 464.417, 148.998 460.922, 155.390 454.565 C 159.851 450.129, 166.049 445.006, 169.165 443.179 C 172.281 441.353, 178.131 438.654, 182.165 437.183 C 188.824 434.754, 190.806 434.507, 203.665 434.503 C 211.456 434.502, 218.124 434.793, 218.482 435.151 C 218.841 435.508, 217.985 438.070, 216.579 440.843 C 215.174 443.617, 212.931 449.174, 211.595 453.193 C 210.258 457.212, 208.637 465, 207.992 470.500 C 207.077 478.304, 204.863 486.489, 197.914 507.766 C 193.016 522.763, 187.319 538.513, 185.254 542.766 C 181.886 549.704, 180.839 550.934, 175.079 554.720 C 171.547 557.041, 167.192 560.360, 165.401 562.096 C 163.609 563.832, 160.810 567.784, 159.181 570.876 C 157.551 573.969, 155.718 578.885, 155.109 581.799 C 154.499 584.714, 154 588.819, 154 590.922 C 154 593.025, 153.061 596.869, 151.913 599.463 C 150.766 602.058, 148.499 608.011, 146.878 612.691 C 145.256 617.372, 142.834 625.544, 141.496 630.851 C 140.159 636.158, 138.365 645, 137.510 650.500 C 136.656 656, 135.698 668.825, 135.382 679 C 134.938 693.328, 134.029 702.230, 131.352 718.475 C 128.044 738.556, 127.973 739.510, 129.698 740.835 C 130.689 741.596, 133.291 743.043, 135.480 744.052 C 137.971 745.199, 138.907 746.054, 137.980 746.336 C 137.166 746.584, 124.800 747.998, 110.500 749.478 C 96.200 750.958, 80.225 752.752, 75 753.465 C 67.123 754.539, 133.766 754.759, 465 754.758 C 698.774 754.757, 862.011 754.391, 858.500 753.876 C 855.200 753.393, 839.450 751.657, 823.500 750.018 C 807.550 748.380, 783.700 746.137, 770.500 745.034 C 757.300 743.931, 733.675 742.130, 718 741.032 C 702.325 739.934, 680.725 738.577, 670 738.016 C 659.275 737.456, 645.325 736.759, 639 736.467 C 632.675 736.176, 624.125 735.742, 620 735.504 C 615.875 735.265, 595.850 734.609, 575.500 734.046 C 555.150 733.483, 532.875 732.798, 526 732.523 C 519.125 732.249, 501.987 732.019, 487.915 732.012 L 462.330 732 453.033 711.520 L 443.737 691.040 445.995 685.770 C 447.238 682.871, 451.319 674.375, 455.064 666.889 C 458.810 659.403, 464.428 649.053, 467.549 643.889 C 470.670 638.725, 475.715 630.900, 478.759 626.500 C 481.804 622.100, 487.655 614.292, 491.761 609.148 C 495.868 604.005, 502.214 596.618, 505.864 592.734 C 509.514 588.850, 516.453 582.372, 521.285 578.339 C 526.117 574.305, 531.858 570.093, 534.044 568.977 C 537.870 567.026, 538.251 567.010, 544.259 568.573 C 547.692 569.466, 554.550 571.011, 559.500 572.007 C 564.450 573.003, 577.622 575.739, 588.771 578.087 C 599.921 580.436, 608.696 582.663, 608.271 583.038 C 607.847 583.413, 599.846 586.707, 590.490 590.359 C 581.135 594.012, 572.785 597, 571.936 597 C 571.087 597, 563.500 594.075, 555.076 590.500 C 546.653 586.925, 539.428 584, 539.021 584 C 538.613 584, 534.505 589.509, 529.890 596.242 C 525.276 602.975, 519.069 612.296, 516.097 616.956 C 513.126 621.616, 509.367 628.264, 507.746 631.729 C 506.124 635.195, 505.037 638.653, 505.329 639.415 C 505.622 640.177, 507.720 641.115, 509.993 641.499 C 512.266 641.883, 517.810 641.904, 522.313 641.546 C 526.816 641.187, 537.244 640.195, 545.487 639.341 C 557.536 638.092, 561.512 638.020, 565.774 638.974 C 568.690 639.627, 574.802 640.133, 579.357 640.100 C 583.912 640.066, 589.469 639.393, 591.706 638.604 C 593.942 637.815, 597.153 636.455, 598.841 635.582 C 600.529 634.709, 604.967 631.264, 608.705 627.925 C 612.442 624.586, 619.066 619.646, 623.425 616.948 C 627.783 614.249, 634.533 610.717, 638.425 609.098 C 642.316 607.479, 649.100 605.108, 653.500 603.828 C 657.900 602.547, 662.290 600.600, 663.255 599.500 C 664.220 598.400, 666.889 593.771, 669.186 589.214 C 672.844 581.957, 673.415 579.909, 673.790 572.714 C 674.027 568.170, 673.704 562.596, 673.067 560.237 C 672.434 557.892, 670.629 554.517, 669.057 552.737 C 667.485 550.957, 663.737 548.018, 660.728 546.206 C 657.720 544.394, 650.812 541.323, 645.379 539.381 C 639.946 537.439, 630.325 534.586, 624 533.043 C 617.675 531.499, 606.200 529.213, 598.500 527.962 C 590.800 526.712, 584.353 525.575, 584.174 525.435 C 583.995 525.296, 585.422 520.978, 587.345 515.841 C 589.268 510.703, 592.047 501.775, 593.520 496 C 595.360 488.786, 596.366 481.742, 596.734 473.493 C 597.065 466.086, 596.827 459.422, 596.114 456.097 C 595.479 453.133, 593.811 448.411, 592.409 445.604 L 589.859 440.500 593.857 444.383 C 596.057 446.518, 599.246 451.089, 600.945 454.541 C 602.645 457.992, 605.007 464.345, 606.195 468.658 C 608.044 475.372, 608.365 479.261, 608.427 495.703 L 608.500 514.907 611.886 511.703 C 613.748 509.941, 619.968 502.875, 625.707 496 C 632.269 488.139, 637.136 483.198, 638.821 482.687 C 640.294 482.241, 648.475 481.630, 657 481.330 C 669.300 480.897, 673.925 481.121, 679.404 482.414 C 683.201 483.310, 688.427 485.196, 691.017 486.606 C 693.959 488.207, 696.529 490.596, 697.863 492.971 C 699.495 495.873, 700 498.472, 700 503.960 C 700 509.022, 699.240 513.417, 697.429 518.824 C 696.015 523.046, 692.787 530.434, 690.256 535.243 C 687.724 540.052, 685.843 544.158, 686.076 544.367 C 686.309 544.577, 696.842 547.242, 709.483 550.289 C 722.123 553.337, 732.758 555.650, 733.116 555.429 C 733.473 555.208, 745.605 540.283, 760.076 522.263 C 774.546 504.244, 787.761 487.763, 789.443 485.641 C 791.124 483.519, 794.555 479.442, 797.067 476.582 C 799.579 473.723, 803.027 468.934, 804.730 465.941 C 806.432 462.949, 808.604 458.099, 809.555 455.165 L 811.285 449.831 814.893 450.496 C 816.877 450.862, 821.425 452.315, 825 453.725 C 828.575 455.134, 834.461 458.189, 838.080 460.513 C 841.699 462.838, 849.581 468.580, 855.595 473.273 C 861.610 477.967, 868.728 482.975, 871.414 484.403 C 874.452 486.019, 877.895 487, 880.523 487 C 882.847 487, 886.549 486.365, 888.748 485.589 C 890.948 484.813, 896.496 482.307, 901.076 480.022 C 905.657 477.736, 915.132 472.079, 922.133 467.450 C 929.133 462.821, 935.137 458.588, 935.474 458.042 C 935.811 457.497, 931.637 458.615, 926.199 460.526 C 920.762 462.438, 912.795 464.901, 908.496 466.001 C 904.197 467.100, 898.834 468, 896.577 468 C 893.558 468, 891.124 467.091, 887.370 464.563 C 884.563 462.673, 878.269 457.400, 873.383 452.846 C 868.497 448.292, 857.257 437.500, 848.405 428.864 C 835.028 415.812, 831.575 412.963, 827.952 411.987 C 825.554 411.341, 819.353 410.281, 814.171 409.630 L 804.750 408.447 800.384 402.973 C 797.982 399.963, 793.201 393.719, 789.759 389.097 C 786.316 384.475, 780.615 377.050, 777.088 372.597 C 773.561 368.144, 762.536 356.380, 752.588 346.457 C 742.640 336.533, 729.775 324.636, 724 320.019 C 718.225 315.402, 708.775 308.539, 703 304.768 C 697.225 300.997, 686.875 295.052, 680 291.557 C 673.125 288.062, 661.485 282.674, 654.134 279.584 C 646.782 276.494, 635.120 271.919, 628.218 269.417 C 621.316 266.915, 613.831 263.608, 611.585 262.067 C 609.338 260.526, 604.800 257.919, 601.500 256.273 C 598.200 254.627, 592.575 252.340, 589 251.191 C 585.425 250.042, 579.830 248.629, 576.566 248.051 C 573.303 247.473, 565.653 247.061, 559.566 247.136 C 553.480 247.211, 547.375 247.461, 546 247.693 M 375.928 532.625 C 374.042 535.157, 369.722 539.540, 366.326 542.364 C 362.930 545.189, 357.666 549.003, 354.628 550.840 C 351.590 552.678, 344.918 555.994, 339.802 558.210 C 334.686 560.425, 323.750 563.947, 315.500 566.036 C 307.250 568.125, 296.450 571.266, 291.500 573.016 C 286.550 574.766, 278.916 578.054, 274.536 580.322 C 270.157 582.589, 263.084 587.032, 258.820 590.193 C 254.556 593.355, 247.790 599.012, 243.784 602.765 C 239.778 606.517, 227.725 617.852, 217 627.954 C 206.275 638.055, 196.125 647.935, 194.445 649.910 C 192.765 651.884, 190.460 654.850, 189.323 656.500 C 188.187 658.150, 185.582 664, 183.534 669.500 C 181.487 675, 179.601 680.625, 179.344 682 C 179.027 683.689, 182.656 693.578, 190.537 712.500 C 196.951 727.900, 202.304 740.613, 202.434 740.751 C 202.563 740.889, 212.081 740.340, 223.584 739.531 C 235.088 738.722, 257.775 737.369, 274 736.525 C 290.225 735.681, 325.306 734.300, 351.958 733.455 C 378.609 732.610, 400.524 731.809, 400.658 731.675 C 400.792 731.542, 403.173 722.283, 405.951 711.100 C 410.169 694.113, 411 689.261, 411 681.608 C 411 676.570, 411.460 668.634, 412.023 663.974 C 412.586 659.313, 413.953 650.849, 415.061 645.164 C 416.169 639.478, 418.835 629.472, 420.984 622.926 C 423.133 616.381, 426.656 607.261, 428.812 602.661 L 432.732 594.296 416.116 593.706 C 405.394 593.325, 394.229 592.212, 384.640 590.569 C 376.467 589.169, 364.317 586.617, 357.640 584.899 C 350.963 583.181, 345.139 581.443, 344.699 581.036 C 344.258 580.630, 345.158 579.475, 346.699 578.470 C 348.239 577.465, 352.140 574.136, 355.367 571.071 C 358.594 568.007, 363.153 562.800, 365.498 559.500 C 367.843 556.200, 371.005 551.025, 372.525 548 C 374.045 544.975, 376.347 539.387, 377.642 535.581 C 378.937 531.776, 379.852 528.518, 379.675 528.342 C 379.499 528.166, 377.813 530.093, 375.928 532.625" stroke="none" fill="#0c1443" fill-rule="evenodd"/></svg>