<?xml version="1.0" encoding="UTF-8"?>
<svg version="1.1" xmlns="http://www.w3.org/2000/svg" width="2607" height="2619">
<path d="M0 0 C19.10724144 18.08178487 32.49809958 42.82618174 33.74365234 69.53857422 C34.24007373 87.78582108 32.46464292 103.58714754 26.62109375 120.91015625 C27.10578125 120.48605469 27.59046875 120.06195313 28.08984375 119.625 C29.0953125 118.74521484 29.0953125 118.74521484 30.12109375 117.84765625 C30.85457031 117.20183594 31.58804688 116.55601562 32.34375 115.890625 C33.75198756 114.66596558 35.17404161 113.45676064 36.6171875 112.2734375 C45.07083903 105.24857215 51.20822185 96.7361957 57.05859375 87.53515625 C71.63610055 64.62044466 90.40337083 45.5034489 112.00146484 29.14013672 C113.48407368 28.01421219 114.95368157 26.87122098 116.421875 25.7265625 C127.78968251 17.0870288 139.63419912 11.03119885 153.62109375 7.91015625 C155.02681641 7.59111328 155.02681641 7.59111328 156.4609375 7.265625 C192.0151939 0.3342903 227.40683936 8.56019184 257.62109375 27.91015625 C266.40133142 33.86942575 274.56331996 40.47868101 282.296875 47.73828125 C284.27175253 49.58371302 286.28351867 51.32085618 288.37109375 53.03515625 C292.21475139 56.31676961 295.41598367 60.01154282 298.62109375 63.91015625 C299.45769531 64.92078125 300.29429688 65.93140625 301.15625 66.97265625 C319.64244218 89.67569163 334.17063766 116.63943303 337.078125 146.14453125 C338.58390233 160.16185989 344.76986068 172.12173654 350.96826172 184.58398438 C352.44254433 187.55084203 353.884578 190.53017574 355.3125 193.51953125 C365.91114976 215.51629336 379.08342205 236.48016314 396.0234375 254.171875 C398.01487732 256.27112208 399.90983373 258.39054564 401.79345703 260.58300781 C405.52083718 264.85290967 409.448326 268.88210233 413.4609375 272.8828125 C414.18672501 273.60955673 414.91251251 274.33630096 415.66029358 275.08506775 C417.18432931 276.60977921 418.70960944 278.13324775 420.23608398 279.65551758 C422.55241838 281.96649516 424.86336453 284.28276396 427.17382812 286.59960938 C428.66504409 288.09016445 430.15657028 289.58040925 431.6484375 291.0703125 C432.66912575 292.09403709 432.66912575 292.09403709 433.71043396 293.13844299 C437.6242042 297.0334502 441.63845552 300.75452178 445.82484436 304.35545349 C448.65440556 306.80451576 451.38376969 309.35909355 454.12109375 311.91015625 C459.93244743 317.29568156 465.84267238 322.53740309 471.8671875 327.68359375 C473.07683355 328.71743548 474.28646865 329.75129001 475.49609375 330.78515625 C476.10702881 331.30650146 476.71796387 331.82784668 477.34741211 332.36499023 C480.82798485 335.34362433 484.24781583 338.37213512 487.62109375 341.47265625 C492.52724277 345.92260545 497.69831497 349.97602563 502.9296875 354.03125 C505.99805839 356.41181267 509.01928352 358.84511025 512.0324707 361.29492188 C537.97177551 382.31915724 566.34252769 399.95927042 595.62109375 415.91015625 C596.30896973 416.28640137 596.9968457 416.66264648 597.70556641 417.05029297 C605.49188561 421.29482077 613.3471416 425.27275808 621.39624023 428.99804688 C631.03892845 433.48107144 639.58834115 437.84788177 647.62109375 444.91015625 C648.39622314 445.56854492 648.39622314 445.56854492 649.18701172 446.24023438 C655.69353695 451.7814741 661.53629007 457.66349736 666.87109375 464.34765625 C667.57020874 465.21620239 667.57020874 465.21620239 668.28344727 466.10229492 C670.74760457 469.30751712 672.22706173 471.856173 672.62109375 475.91015625 C635.77263194 500.72646726 586.75433915 503.06886734 543.72363281 503.15039062 C540.62408092 503.16014685 537.52518048 503.1913393 534.42578125 503.22265625 C493.5116769 503.43816683 460.34122888 486.84702296 424.62109375 468.91015625 C433.68954829 476.04625801 442.80408634 483.10064372 452.12109375 489.91015625 C465.03417691 499.36383305 477.75359312 509.06422695 489.86328125 519.53515625 C491.51360838 520.95640115 493.18049979 522.35922961 494.87890625 523.72265625 C502.90867661 530.27242972 511.91646538 540.33412862 513.62109375 550.91015625 C512.99809655 552.59363382 512.33506488 554.26319922 511.62109375 555.91015625 C507.26698669 555.9694082 502.91298638 556.00416413 498.55859375 556.03515625 C497.34880859 556.05191406 496.13902344 556.06867187 494.89257812 556.0859375 C479.84500244 556.16576549 466.13525027 553.58342019 451.80859375 549.34765625 C451.05229675 549.12739777 450.29599976 548.90713928 449.51678467 548.6802063 C421.38452651 540.48630531 394.64667296 530.31099339 368.57788086 516.91235352 C366.59861201 515.8986419 364.61157424 514.90164402 362.62109375 513.91015625 C363.25015625 514.68617188 363.87921875 515.4621875 364.52734375 516.26171875 C373.86544311 527.9700895 385.65597365 543.28185761 385.80859375 558.91015625 C385.82277344 559.57015625 385.83695313 560.23015625 385.8515625 560.91015625 C385.581425 563.25440029 384.7741898 564.86831028 383.62109375 566.91015625 C350.23901525 569.0023478 319.96229478 555.1670299 290.62109375 540.91015625 C289.49453369 540.36343262 289.49453369 540.36343262 288.34521484 539.80566406 C271.91955427 531.71955636 256.67169106 521.75537936 243.62109375 508.91015625 C242.08571823 507.49120965 240.53668302 506.08845208 238.98510742 504.68725586 C231.45457304 497.88192793 224.20682147 490.87930818 217.59375 483.171875 C215.0064139 480.20540451 212.34733033 477.30797878 209.68359375 474.41015625 C209.18617676 473.8689917 208.68875977 473.32782715 208.17626953 472.77026367 C206.99192415 471.4829047 205.80661319 470.19643413 204.62109375 468.91015625 C207.16312717 476.94773675 210.24007726 484.76383532 213.31854248 492.60656738 C214.89087608 496.61743034 216.45021396 500.63334934 218.01171875 504.6484375 C219.7187944 509.03586045 221.42674345 513.42283863 223.15429688 517.80224609 C224.44672569 521.08376104 225.72344158 524.37093318 226.99609375 527.66015625 C227.37072754 528.59738525 227.74536133 529.53461426 228.13134766 530.50024414 C230.19834426 535.89485624 231.10980373 540.12488682 230.62109375 545.91015625 C229.62109375 546.91015625 229.62109375 546.91015625 226.03515625 547.18359375 C221.37901943 547.11521257 218.05392886 545.70521146 213.99609375 543.53515625 C213.30805664 543.17719971 212.62001953 542.81924316 211.91113281 542.45043945 C190.80097968 531.15112575 174.14924428 513.81180255 160.00048828 494.76074219 C158.54152268 492.80340426 157.0641446 490.86080816 155.5859375 488.91796875 C138.75775278 466.62527197 123.59573051 443.07988169 109.62109375 418.91015625 C108.72849854 417.37415771 108.72849854 417.37415771 107.81787109 415.80712891 C94.4373021 392.68801792 82.97572701 369.31430851 74.62109375 343.91015625 C74.30301758 342.94899902 73.98494141 341.9878418 73.65722656 340.99755859 C67.81937152 323.15153465 63.3293737 304.96550612 60.125 286.46484375 C59.99882797 285.74822067 59.87265594 285.0315976 59.74266052 284.29325867 C59.12562241 280.78529508 58.52993579 277.27659709 57.97631836 273.75805664 C56.6154841 265.8443203 54.8585448 260.06268014 49.62109375 253.91015625 C49.13914551 253.34063232 48.65719727 252.7711084 48.16064453 252.18432617 C46.7185643 250.57401138 45.22696745 249.04839163 43.68359375 247.53515625 C43.13074707 246.98843262 42.57790039 246.44170898 42.00830078 245.87841797 C36.2395417 240.31884681 29.93740286 235.61522658 23.33447266 231.09863281 C21.79258377 230.02910943 20.28803711 228.9062267 18.7890625 227.77734375 C11.868581 222.81783827 5.00820656 221.40718881 -3.22802734 220.23388672 C-6.96476064 219.67146806 -10.66875572 218.936803 -14.37890625 218.22265625 C-15.73293351 217.9680076 -17.0870873 217.71403022 -18.44140625 217.4609375 C-19.41078125 217.27917969 -20.38015625 217.09742188 -21.37890625 216.91015625 C-17.73278834 228.33465904 -13.12504105 238.62495537 -7.34619141 249.12011719 C-1.51771078 259.90618986 1.89080093 270.97392454 -1.4140625 283.171875 C-3.99507279 291.32713465 -7.67589299 299.09684892 -11.12890625 306.91015625 C-21.94482841 330.83853516 -21.94482841 330.83853516 -29.50390625 355.91015625 C-29.86210449 357.47419189 -29.86210449 357.47419189 -30.22753906 359.06982422 C-30.96615194 362.34564568 -31.67696039 365.62629581 -32.37890625 368.91015625 C-32.61383789 369.99458008 -32.84876953 371.07900391 -33.09082031 372.19628906 C-38.77324473 398.77486111 -40.15723946 424.35475583 -38.26196289 451.41235352 C-38.06937343 454.18001552 -37.88862456 456.94826803 -37.70898438 459.71679688 C-36.10415224 483.620127 -32.92504977 507.36845411 -29.69140625 531.09765625 C-29.52104858 532.34909424 -29.35069092 533.60053223 -29.1751709 534.88989258 C-26.55387334 553.9769165 -23.3724135 572.84387026 -19.23828125 591.66015625 C-19.08884567 592.34487503 -18.9394101 593.02959381 -18.78544617 593.73506165 C-18.01226295 597.22924458 -17.18022856 600.69494239 -16.25585938 604.15234375 C-14.21955009 611.99754721 -13.07723951 619.43911263 -13.1472168 627.5534668 C-13.15207816 628.52606036 -13.15693953 629.49865393 -13.1619482 630.50072002 C-13.33748667 646.07989908 -14.31791352 661.64373004 -15.16825747 677.19719243 C-15.42858648 681.98242247 -15.68194665 686.76802263 -15.93629456 691.55357361 C-16.42731723 700.77034387 -16.92507378 709.98673809 -17.42541534 719.20300668 C-17.82768757 726.61563196 -18.22710779 734.02840619 -18.62469482 741.44128418 C-22.37080834 811.2741957 -26.26348577 881.09799351 -30.37890625 950.91015625 C-29.82050836 950.74899795 -29.26211046 950.58783964 -28.68679142 950.42179775 C-17.33169532 947.14908366 -5.96955401 943.94714152 5.46875 940.9765625 C6.82112673 940.62303414 8.17341857 940.26918095 9.52563477 939.91503906 C12.40639026 939.16063731 15.28735821 938.40705598 18.16848755 937.65408325 C60.23525854 926.65322413 102.17882619 915.20902899 144.08469391 903.61195374 C146.59645375 902.9169739 149.10836158 902.22253125 151.62030029 901.52819824 C234.15631138 878.70807681 318.88882508 855.01151765 416.62109375 793.91015625 C417.27722656 793.33910156 417.93335938 792.76804687 418.609375 792.1796875 C431.04770785 780.63192741 447.26596986 758.32931262 448.72265625 740.953125 C448.42170349 734.89934441 446.02192105 729.07310099 441.62109375 724.91015625 C434.9794071 720.12562369 428.11755324 720.26492699 420.21899414 721.19213867 C417.76915944 721.60795183 415.35741915 722.11257421 412.93359375 722.66015625 C411.98572998 722.86842041 411.03786621 723.07668457 410.0612793 723.29125977 C398.99212749 725.85686656 388.17802516 729.31238392 377.32388306 732.650177 C343.21828451 743.11124027 305.8010782 751.25364716 270.62109375 740.91015625 C269.45175293 740.57999512 269.45175293 740.57999512 268.25878906 740.24316406 C247.03253092 734.07903807 227.29256017 723.051828 209.62109375 709.91015625 C210.94348246 707.00161503 212.39510738 704.86232884 214.59765625 702.5546875 C215.18208496 701.93658203 215.76651367 701.31847656 216.36865234 700.68164062 C217.29798584 699.71194336 217.29798584 699.71194336 218.24609375 698.72265625 C219.52306387 697.37587973 220.79911097 696.02822739 222.07421875 694.6796875 C222.68845703 694.03080566 223.30269531 693.38192383 223.93554688 692.71337891 C226.01137545 690.49262719 228.00940552 688.21074122 229.99609375 685.91015625 C232.91957465 682.59194375 236.00778088 679.68446071 239.38671875 676.8359375 C242.04460629 674.54513583 244.57032272 672.13210078 247.12109375 669.72265625 C274.37627023 644.50573842 311.15710481 623.93448397 349.0546875 623.70703125 C349.84138321 623.70001694 350.62807892 623.69300262 351.43861389 623.68577576 C353.97866579 623.66831069 356.51848391 623.66191856 359.05859375 623.66015625 C359.92935547 623.65948151 360.80011719 623.65880676 361.69726562 623.65811157 C402.53891203 623.70828213 445.64903638 630.65247731 477.62109375 657.91015625 C478.56210938 658.68875 479.503125 659.46734375 480.47265625 660.26953125 C502.49913416 679.25573474 517.5730961 708.15923669 521.33984375 736.953125 C524.18898383 777.03894305 513.19520856 811.06257217 488.62109375 842.91015625 C488.19957031 843.46010254 487.77804687 844.01004883 487.34375 844.57666016 C475.41614883 859.91010591 461.02942871 874.19421559 445.33837891 885.64160156 C443.51461166 886.98881433 441.7292985 888.37793796 439.9453125 889.77734375 C422.76788376 903.14873321 403.8631377 913.82102895 384.62109375 923.91015625 C383.3055249 924.60189941 383.3055249 924.60189941 381.96337891 925.30761719 C366.55146982 933.35482115 350.72533693 940.37128565 334.62109375 946.91015625 C333.9906012 947.16671997 333.36010864 947.42328369 332.71051025 947.68762207 C254.99647181 979.20233185 172.64320883 1002.07505471 77.73974609 1028.52319336 C76.4975103 1028.86366447 76.4975103 1028.86366447 75.23017883 1029.21101379 C73.70661842 1029.6279104 72.18224141 1030.04183899 70.65690613 1030.45219421 C67.36734585 1031.15595408 67.36734585 1031.15595408 64.62109375 1032.91015625 C65.47936768 1033.32152832 66.3376416 1033.73290039 67.22192383 1034.15673828 C93.93043799 1046.97218126 120.37720913 1060.03804306 145.828125 1075.24609375 C148.53204536 1076.85710085 151.24658172 1078.44849663 153.96484375 1080.03515625 C177.24903014 1093.69759563 200.3923568 1109.92976982 219.18359375 1129.47265625 C220.81367237 1131.15204071 220.81367237 1131.15204071 223.62109375 1133.34765625 C226.63964585 1135.92600283 229.09720387 1138.62439939 231.66015625 1141.640625 C233.79159067 1144.10748435 236.01605904 1146.46967426 238.24609375 1148.84765625 C264.63143517 1177.87553566 287.9078805 1214.76939997 286.90625 1255.2265625 C285.3649501 1275.13677898 278.45597052 1294.01602776 263.62109375 1307.91015625 C232.46446978 1333.37661773 193.32303989 1337.96827962 154.62109375 1340.91015625 C155.65105469 1341.4928125 156.68101562 1342.07546875 157.7421875 1342.67578125 C193.72837978 1363.28745075 229.93190714 1391.61565541 241.9296875 1433.04296875 C246.44454583 1451.76560159 243.37235685 1469.99774424 233.7578125 1486.5078125 C230.79821997 1491.34114253 227.36706076 1495.66472697 223.62109375 1499.91015625 C222.59048828 1501.13798828 222.59048828 1501.13798828 221.5390625 1502.390625 C199.98088644 1527.4447215 167.70197683 1542.32675414 137.30859375 1553.66015625 C136.52306122 1553.95496887 135.73752869 1554.24978149 134.92819214 1554.55352783 C102.38492312 1566.74966728 69.39698642 1577.95162786 35.13671875 1584.21875 C31.78953776 1584.71501332 31.78953776 1584.71501332 29.62109375 1585.91015625 C30.10835937 1586.27625 30.595625 1586.64234375 31.09765625 1587.01953125 C41.87711506 1595.25111798 51.96307068 1604.0751178 61.55859375 1613.66015625 C62.25597656 1614.3567334 62.95335937 1615.05331055 63.671875 1615.77099609 C68.18003143 1620.3277318 72.46367743 1625.0322495 76.62109375 1629.91015625 C77.43743286 1630.86631836 77.43743286 1630.86631836 78.27026367 1631.84179688 C104.42252856 1662.70902272 125.6882075 1697.24200812 144.62109375 1732.91015625 C145.1011084 1733.80847168 145.58112305 1734.70678711 146.07568359 1735.63232422 C168.66257333 1777.96484329 187.23789569 1822.1347964 205.71337891 1866.37353516 C206.88682617 1869.17871504 208.07999078 1871.97284602 209.30615234 1874.75537109 C209.7748877 1875.83125488 210.24362305 1876.90713867 210.7265625 1878.015625 C211.12383545 1878.90789795 211.5211084 1879.8001709 211.93041992 1880.71948242 C212.62109375 1882.91015625 212.62109375 1882.91015625 211.62109375 1885.91015625 C205.16882014 1879.04301564 198.87016834 1872.13862408 192.96484375 1864.7890625 C190.24169051 1861.4441226 187.43843737 1858.17573368 184.62109375 1854.91015625 C180.36880095 1849.97239544 176.18790225 1844.98730527 172.078125 1839.9296875 C169.04509475 1836.20229102 165.99006916 1832.49333396 162.93359375 1828.78515625 C159.28472407 1824.35795335 155.63644326 1819.93030735 151.99609375 1815.49609375 C146.19595124 1808.43463785 140.37111978 1801.39883036 134.45019531 1794.43823242 C131.654874 1791.14758347 128.90568659 1787.82405013 126.18359375 1784.47265625 C121.28596268 1778.45955049 116.23210887 1772.58680048 111.16943359 1766.71289062 C109.64268684 1764.93529712 108.12467667 1763.1506361 106.609375 1761.36328125 C101.16850606 1754.9555216 95.63933162 1748.65933894 89.89257812 1742.52319336 C87.28070815 1739.73127381 84.72716272 1736.9011767 82.21875 1734.015625 C72.79726388 1723.20126349 62.74321398 1712.94008885 52.62109375 1702.78515625 C51.84475586 1702.00422607 51.06841797 1701.2232959 50.26855469 1700.41870117 C46.12082401 1696.28211073 41.88685481 1692.31373984 37.44775391 1688.49169922 C34.84123459 1686.23494539 32.33144875 1683.88511629 29.80859375 1681.53515625 C24.26444105 1676.42010398 18.51130171 1671.62388087 12.62109375 1666.91015625 C11.49025418 1665.9877525 10.3600786 1665.06453429 9.23046875 1664.140625 C-11.07807013 1647.604103 -32.13276568 1633.41740352 -56.11962891 1622.79614258 C-56.92018707 1622.4413533 -57.72074524 1622.08656403 -58.54556274 1621.72102356 C-59.45306778 1621.31964424 -59.45306778 1621.31964424 -60.37890625 1620.91015625 C-60.43006592 1622.15513382 -60.48122559 1623.40011139 -60.53393555 1624.68281555 C-61.11906067 1638.23944095 -62.07802962 1651.7432583 -63.19140625 1665.265625 C-63.36722125 1667.43123661 -63.54275246 1669.59687128 -63.71801758 1671.76252747 C-64.08236547 1676.25600344 -64.44893083 1680.74929035 -64.81738281 1685.24243164 C-65.28778547 1690.97900944 -65.75429507 1696.71589511 -66.21937561 1702.45290661 C-66.66709461 1707.97391796 -67.11665232 1713.49477911 -67.56640625 1719.015625 C-67.69301132 1720.57225389 -67.69301132 1720.57225389 -67.82217407 1722.16032982 C-68.06273621 1725.11372431 -68.30459707 1728.0670095 -68.546875 1731.02026367 C-68.61651459 1731.87704208 -68.68615417 1732.7338205 -68.75790405 1733.61656189 C-69.23327737 1739.38810797 -69.78557028 1745.14957122 -70.37890625 1750.91015625 C-69.20328125 1751.28140625 -68.02765625 1751.65265625 -66.81640625 1752.03515625 C-43.33351757 1759.94907464 -25.52562991 1771.14161389 -13.62890625 1793.72265625 C-3.48268342 1814.77954336 -2.31280091 1839.06745541 -9.4453125 1861.22265625 C-14.24532194 1874.65634604 -21.41587701 1884.93223459 -31.37890625 1894.91015625 C-31.96285156 1895.50570312 -32.54679687 1896.10125 -33.1484375 1896.71484375 C-50.82610511 1913.27367164 -75.50359873 1916.57920763 -98.625 1916.21484375 C-117.27219851 1915.58590688 -135.29382337 1909.40692128 -149.37890625 1896.91015625 C-149.96414063 1896.46542969 -150.549375 1896.02070313 -151.15234375 1895.5625 C-166.73245737 1883.47204984 -175.2321414 1862.64351145 -177.69140625 1843.59765625 C-180.231839 1820.36637586 -174.64953929 1797.22390629 -159.9375 1778.86328125 C-147.38212203 1764.16060993 -131.82503639 1756.82922354 -113.37890625 1751.91015625 C-113.98169018 1738.83173642 -114.88565482 1725.79568641 -115.96620369 1712.74847603 C-116.23383879 1709.51361518 -116.49758257 1706.27845647 -116.76036072 1703.04319763 C-117.50682194 1693.86046901 -118.25958959 1684.67826282 -119.01586914 1675.49633789 C-119.48147311 1669.84023826 -119.94233413 1664.18376768 -120.40038872 1658.52705193 C-120.57437321 1656.39047258 -120.7501731 1654.25404019 -120.92790413 1652.11776924 C-122.70264574 1630.78138379 -122.70264574 1630.78138379 -122.37890625 1620.91015625 C-141.99131019 1629.20949503 -159.38923221 1639.05376663 -176.37890625 1651.91015625 C-177.56636647 1652.79823027 -178.75386377 1653.68625473 -179.94140625 1654.57421875 C-186.57037989 1659.57066204 -192.93669339 1664.84411147 -199.23828125 1670.2421875 C-202.19807306 1672.77224381 -205.22019421 1675.2190956 -208.25390625 1677.66015625 C-211.92126068 1680.64286709 -215.32425005 1683.72075842 -218.59645081 1687.12864685 C-220.374206 1688.90545849 -222.21891105 1690.53874868 -224.12866211 1692.17211914 C-228.14438306 1695.66321809 -231.94003768 1699.32611168 -235.6953125 1703.09375 C-236.3554686 1703.75294937 -237.01562469 1704.41214874 -237.69578552 1705.09132385 C-239.07926131 1706.4741246 -240.46149708 1707.85816701 -241.8425293 1709.2434082 C-243.93622294 1711.34245968 -246.03520499 1713.43611565 -248.13476562 1715.52929688 C-249.48860196 1716.88379411 -250.842128 1718.23860156 -252.1953125 1719.59375 C-252.81217422 1720.20858749 -253.42903595 1720.82342499 -254.06459045 1721.45689392 C-257.79403854 1725.20612319 -261.3371611 1729.0711968 -264.78663635 1733.07977295 C-267.35992917 1736.03788464 -270.06384047 1738.87117829 -272.75390625 1741.72265625 C-277.45720387 1746.74358965 -281.90074965 1751.89355487 -286.203125 1757.265625 C-288.50922325 1760.06854873 -290.92042156 1762.740189 -293.37890625 1765.41015625 C-297.41845443 1769.80394173 -301.22570244 1774.32854449 -304.97265625 1778.97265625 C-307.67669281 1782.2736879 -310.45998525 1785.49783866 -313.25390625 1788.72265625 C-317.25972461 1793.35680098 -321.12666105 1798.0685933 -324.87890625 1802.91015625 C-329.11298786 1808.37343798 -333.52229036 1813.65031063 -338.04345703 1818.87768555 C-342.59243765 1824.13914823 -346.99091952 1829.5138366 -351.37890625 1834.91015625 C-359.43085243 1844.76575861 -367.5624755 1854.54106637 -375.88037109 1864.17333984 C-378.53214007 1867.24676515 -381.17398476 1870.32869508 -383.81640625 1873.41015625 C-384.30061035 1873.97371826 -384.78481445 1874.53728027 -385.28369141 1875.11791992 C-388.3479251 1878.68895122 -391.37401962 1882.28902245 -394.37890625 1885.91015625 C-395.03890625 1885.58015625 -395.69890625 1885.25015625 -396.37890625 1884.91015625 C-380.4012096 1846.26358502 -364.2695163 1807.71728564 -346.37890625 1769.91015625 C-345.41403701 1767.85678281 -344.44919283 1765.8033976 -343.484375 1763.75 C-337.76513739 1751.62922281 -331.79418871 1739.67778172 -325.37890625 1727.91015625 C-324.84894043 1726.93788086 -324.31897461 1725.96560547 -323.77294922 1724.96386719 C-316.10810875 1710.96453823 -308.11432063 1697.26762221 -299.37890625 1683.91015625 C-298.89744141 1683.16749512 -298.41597656 1682.42483398 -297.91992188 1681.65966797 C-287.61341612 1665.7836586 -276.61418601 1650.36415752 -264.37890625 1635.91015625 C-263.58484375 1634.93175781 -262.79078125 1633.95335937 -261.97265625 1632.9453125 C-255.36504762 1624.89935444 -248.15455821 1617.47152344 -240.81640625 1610.09765625 C-240.33371277 1609.60978638 -239.85101929 1609.1219165 -239.35369873 1608.6192627 C-232.71203072 1601.92150285 -225.78677259 1595.75358339 -218.37890625 1589.91015625 C-216.71174661 1588.57743937 -215.04493603 1587.2442853 -213.37890625 1585.91015625 C-219.2649817 1584.41969079 -225.15317063 1582.9485666 -231.0703125 1581.5859375 C-292.92697409 1567.29355825 -379.27869748 1545.50190134 -415.62890625 1488.53515625 C-425.9948675 1470.98322983 -429.75188203 1451.65085774 -424.87890625 1431.59765625 C-419.57293287 1412.12522525 -407.16782306 1396.17814419 -393.37890625 1381.91015625 C-392.69054687 1381.18183594 -392.0021875 1380.45351562 -391.29296875 1379.703125 C-375.88220749 1363.75770467 -356.68235569 1351.54417904 -337.37890625 1340.91015625 C-338.72746704 1340.81311401 -338.72746704 1340.81311401 -340.10327148 1340.71411133 C-378.79453639 1337.84398566 -423.42933209 1333.05120952 -451.64453125 1303.02734375 C-467.20897575 1284.02750385 -471.14217623 1261.5183125 -469.19287109 1237.63037109 C-465.15271006 1203.0462635 -441.70215233 1171.19344802 -418.64453125 1146.359375 C-416.67133108 1144.22627758 -414.76595922 1142.05656638 -412.87890625 1139.84765625 C-406.28546283 1132.27683181 -399.02485295 1125.40047656 -391.37890625 1118.91015625 C-390.47011719 1118.11222656 -389.56132813 1117.31429688 -388.625 1116.4921875 C-366.10842933 1096.85707264 -340.34632251 1081.47917673 -314.37890625 1066.91015625 C-312.94998047 1066.10674805 -312.94998047 1066.10674805 -311.4921875 1065.28710938 C-297.92638672 1057.70059314 -284.08882206 1050.67626244 -270.19140625 1043.72265625 C-269.34404907 1043.29843384 -268.49669189 1042.87421143 -267.62365723 1042.43713379 C-265.19585382 1041.22340896 -262.76633261 1040.01321307 -260.3359375 1038.8046875 C-259.60673599 1038.44069351 -258.87753448 1038.07669952 -258.12623596 1037.70167542 C-254.59188433 1035.95072583 -251.07327284 1034.30584588 -247.37890625 1032.91015625 C-257.34101426 1029.68137036 -267.37501364 1026.73485067 -277.4453125 1023.86328125 C-278.09022707 1023.67937584 -278.73514164 1023.49547043 -279.39959908 1023.30599213 C-282.11251642 1022.53246588 -284.82551421 1021.75922244 -287.53860188 1020.98629379 C-331.08789341 1008.57605771 -374.32041332 995.22397787 -417.43322754 981.37333679 C-425.63703972 978.73791458 -433.84821871 976.13097615 -442.078125 973.578125 C-474.11019403 963.62309094 -505.74880092 952.65337676 -536.37890625 938.91015625 C-536.97018311 938.64503235 -537.56145996 938.37990845 -538.1706543 938.10675049 C-603.42044912 908.79394943 -670.59618904 866.82228661 -697.62890625 797.09765625 C-698.61192933 794.38776297 -699.51671242 791.66074904 -700.37890625 788.91015625 C-700.59063477 788.23807129 -700.80236328 787.56598633 -701.02050781 786.87353516 C-710.40475909 755.36713842 -704.19273256 720.99604913 -689.34765625 692.34765625 C-672.03709227 662.12286199 -643.8358686 641.02916111 -610.36132812 631.875 C-604.19929923 630.27894836 -597.99824481 628.89346867 -591.75390625 627.66015625 C-590.99287598 627.50893311 -590.2318457 627.35770996 -589.44775391 627.2019043 C-574.82222672 624.52000239 -560.0651972 623.55467833 -545.21679688 623.59448242 C-542.74695479 623.59766521 -540.27829155 623.57395445 -537.80859375 623.54882812 C-523.33292691 623.48987196 -509.54867014 625.30823587 -495.81640625 630.09765625 C-494.93782959 630.39808838 -494.05925293 630.69852051 -493.15405273 631.00805664 C-485.5071539 633.70651291 -478.30776811 637.0271335 -471.19921875 640.91601562 C-469.43733958 641.87824363 -467.65831008 642.8088605 -465.87890625 643.73828125 C-455.92221231 649.12394751 -447.17409709 655.82484455 -438.37890625 662.91015625 C-437.79705566 663.37341309 -437.21520508 663.83666992 -436.61572266 664.31396484 C-428.26861725 671.00593457 -420.64933633 678.43857565 -413.06640625 685.97265625 C-412.14706299 686.88265381 -411.22771973 687.79265137 -410.28051758 688.73022461 C-404.21254174 694.82670661 -398.70096381 701.15583308 -393.37890625 707.91015625 C-394.69070961 710.95000441 -395.84959589 712.55755819 -398.625 714.35546875 C-399.28717529 714.78754639 -399.94935059 715.21962402 -400.6315918 715.66479492 C-401.35258057 716.11701416 -402.07356934 716.5692334 -402.81640625 717.03515625 C-403.57284424 717.51380127 -404.32928223 717.99244629 -405.10864258 718.4855957 C-442.59724711 741.85106944 -483.95027127 751.69285507 -527.55371094 741.59472656 C-541.14483789 738.30147389 -554.55234023 734.48840853 -567.92626953 730.40869141 C-594.1204482 720.77515453 -594.1204482 720.77515453 -620.75390625 722.53515625 C-625.53718875 725.31886984 -628.41684019 728.75696079 -630.69140625 733.84765625 C-633.69740207 747.23800125 -625.28140068 759.90208892 -618.37890625 770.91015625 C-613.3415646 778.49603439 -607.61980689 785.29236286 -601.37890625 791.91015625 C-600.76660156 792.58691406 -600.15429688 793.26367188 -599.5234375 793.9609375 C-588.8704622 805.29533979 -575.01474243 812.77732277 -561.37890625 819.91015625 C-560.51072266 820.36616211 -559.64253906 820.82216797 -558.74804688 821.29199219 C-497.39854467 853.2841986 -430.72618712 874.9251067 -364.19831848 893.20298767 C-356.3326172 895.36585603 -348.47464218 897.5557468 -340.61882782 899.75417519 C-296.95518773 911.97137972 -253.19768686 923.81867914 -209.38916016 935.50488281 C-201.34590924 937.65051142 -193.30538092 939.80615289 -185.265625 941.96484375 C-182.09866739 942.81403993 -178.931618 943.6628923 -175.76449585 944.51147461 C-173.86409509 945.02100832 -171.96388248 945.5312444 -170.06387329 946.04223633 C-167.55491753 946.71668527 -165.04517231 947.3881036 -162.53515625 948.05859375 C-161.8218364 948.25113739 -161.10851654 948.44368103 -160.37358093 948.64205933 C-156.92380615 949.59087173 -156.92380615 949.59087173 -153.37890625 949.91015625 C-154.06131037 927.42679178 -155.30815372 904.98103311 -156.56979394 882.52436113 C-156.8648683 877.26084857 -157.15678741 871.99716094 -157.44902039 866.73348999 C-158.06829489 855.58739827 -158.69059661 844.44147717 -159.31359863 833.29559326 C-161.18423192 799.82791379 -163.04530909 766.35971811 -164.88444173 732.89029193 C-165.25969822 726.06519332 -165.63801743 719.24026911 -166.01751709 712.41540527 C-166.46369669 704.38719479 -166.9033235 696.3586546 -167.33484024 688.32964218 C-167.55084046 684.31237076 -167.76919836 680.29527512 -167.99520302 676.27855301 C-168.86072171 660.85828425 -169.53383596 645.46275004 -169.60522461 630.01611328 C-169.6156161 628.766359 -169.6260076 627.51660473 -169.63671398 626.22897911 C-169.61653246 615.83397914 -168.00756872 606.19192664 -165.44812012 596.14624023 C-164.21191759 591.27403284 -163.10466722 586.37168811 -161.98046875 581.47265625 C-161.75270752 580.49139771 -161.52494629 579.51013916 -161.2902832 578.49914551 C-157.8826775 563.65012924 -155.7954184 548.58895048 -153.73504639 533.5045166 C-153.3616479 530.78443504 -152.98054786 528.06550921 -152.59814453 525.34667969 C-142.2026566 452.63728124 -142.2026566 452.63728124 -148.37890625 379.91015625 C-148.83188703 377.55751431 -149.28366349 375.20464023 -149.734375 372.8515625 C-154.168932 350.34675428 -161.41820564 330.14685458 -170.87280273 309.33740234 C-174.0164773 302.40607605 -177.05912218 295.45155513 -179.8046875 288.3515625 C-180.1831356 287.40092171 -180.1831356 287.40092171 -180.56922913 286.43107605 C-184.18141253 276.84807254 -183.47669622 266.69470662 -179.91015625 257.1796875 C-177.62034054 252.29046366 -174.89129185 247.66867246 -172.17675781 243.00512695 C-167.65229727 235.03518038 -164.92853021 226.67837524 -162.37890625 217.91015625 C-166.34742322 218.36358018 -170.31195074 218.84275907 -174.2746582 219.34448242 C-176.27461075 219.59247367 -178.27696269 219.82086401 -180.27929688 220.04882812 C-188.02244587 221.04353996 -193.9615807 222.41306505 -200.37890625 226.91015625 C-200.99950928 227.32515381 -201.6201123 227.74015137 -202.25952148 228.16772461 C-204.0817684 229.41778844 -205.85863572 230.71265719 -207.62890625 232.03515625 C-208.26586426 232.50888672 -208.90282227 232.98261719 -209.55908203 233.47070312 C-229.29129941 248.29311797 -238.18041803 259.57803472 -242.72460938 284.29272461 C-246.0105653 302.14546642 -250.08900273 319.52980994 -255.37890625 336.91015625 C-255.67265137 337.87969238 -255.96639648 338.84922852 -256.26904297 339.84814453 C-261.92984155 358.26430786 -269.48198145 375.88708805 -278.36962891 392.96972656 C-279.39589699 394.94282254 -280.40885643 396.92241841 -281.421875 398.90234375 C-306.88201409 448.22952618 -348.72450915 528.02535722 -405.37890625 546.91015625 C-406.77330289 546.97681001 -408.170605 546.99553824 -409.56640625 546.97265625 C-410.82453125 546.95203125 -412.08265625 546.93140625 -413.37890625 546.91015625 C-415.00911397 541.09200112 -413.51199697 537.17618684 -411.50390625 531.72265625 C-411.16601074 530.77519531 -410.82811523 529.82773437 -410.47998047 528.8515625 C-405.69217501 515.67153574 -400.41619374 502.66475068 -395.19580078 489.65161133 C-394.82849854 488.73305862 -394.46119629 487.81450592 -394.08276367 486.86811829 C-393.3891705 485.13471835 -392.69273705 483.4024511 -391.99291992 481.67155457 C-390.17745561 477.13094699 -388.63054316 472.63838663 -387.37890625 467.91015625 C-388.05373047 468.72572998 -388.72855469 469.54130371 -389.42382812 470.3815918 C-397.09777352 479.55020738 -405.25902419 488.13195002 -413.72412109 496.57104492 C-415.88530313 498.7290437 -418.03271741 500.90013764 -420.1796875 503.07226562 C-430.64828133 513.59088194 -441.33634749 522.44698217 -454.19140625 529.97265625 C-455.49174805 530.73932617 -455.49174805 530.73932617 -456.81835938 531.52148438 C-459.33252268 532.99504794 -461.85429108 534.45459296 -464.37890625 535.91015625 C-465.01103027 536.27995605 -465.6431543 536.64975586 -466.29443359 537.03076172 C-478.36871763 544.04926044 -491.35568041 549.26110503 -504.23339844 554.59912109 C-506.76497921 555.6542739 -509.2809701 556.73549494 -511.79296875 557.8359375 C-529.07217129 564.99552142 -548.73372608 568.09355979 -567.37890625 566.91015625 C-570.55963079 557.36798264 -567.59659085 548.62080556 -563.37890625 539.91015625 C-558.39835016 530.39796751 -552.47160546 521.97537687 -545.37890625 513.91015625 C-546.31347656 514.38324219 -547.24804688 514.85632813 -548.2109375 515.34375 C-551.80865181 517.15912324 -555.41617872 518.95422544 -559.02734375 520.74267578 C-560.5423675 521.49483977 -562.05554449 522.2507409 -563.56640625 523.01123047 C-589.80518212 536.18409417 -618.04070486 545.13463991 -646.44140625 552.34765625 C-647.41037842 552.59483398 -648.37935059 552.84201172 -649.37768555 553.09667969 C-659.92390498 555.68772492 -669.96727534 556.0920668 -680.81640625 556.09765625 C-682.09451172 556.10990234 -683.37261719 556.12214844 -684.68945312 556.13476562 C-685.90568359 556.13669922 -687.12191406 556.13863281 -688.375 556.140625 C-690.03293579 556.14678833 -690.03293579 556.14678833 -691.72436523 556.15307617 C-694.37890625 555.91015625 -694.37890625 555.91015625 -696.37890625 553.91015625 C-696.11593574 541.28757179 -686.92557239 532.17484479 -678.37890625 523.91015625 C-668.57224581 514.65779834 -657.66329988 506.75979331 -646.84667969 498.74755859 C-643.10272573 495.95996486 -639.39471977 493.12640963 -635.69140625 490.28515625 C-635.01287598 489.76469727 -634.3343457 489.24423828 -633.63525391 488.70800781 C-632.26388009 487.65591461 -630.892624 486.60366793 -629.52148438 485.55126953 C-627.22215595 483.79009295 -624.91818486 482.03512301 -622.61328125 480.28125 C-621.83170654 479.68586426 -621.05013184 479.09047852 -620.24487305 478.47705078 C-618.74197018 477.33239154 -617.23826327 476.18878699 -615.73364258 475.04638672 C-615.06099365 474.53350098 -614.38834473 474.02061523 -613.6953125 473.4921875 C-613.10177979 473.04077393 -612.50824707 472.58936035 -611.89672852 472.12426758 C-610.23984747 470.84475748 -610.23984747 470.84475748 -608.37890625 468.91015625 C-609.12648193 469.3069458 -609.87405762 469.70373535 -610.64428711 470.11254883 C-647.51948219 489.61517966 -680.35956579 503.62763146 -722.62890625 503.22265625 C-723.67661194 503.21672455 -724.72431763 503.21079285 -725.80377197 503.2046814 C-752.42739828 503.05216628 -778.34564385 502.04262976 -804.37890625 495.91015625 C-806.04058838 495.52102051 -806.04058838 495.52102051 -807.73583984 495.12402344 C-824.66152452 491.07040327 -841.29263448 486.47029255 -855.37890625 475.91015625 C-854.0610998 463.78186981 -838.54968437 450.93145548 -829.45751953 443.53295898 C-820.15390248 436.66144691 -810.28993843 431.57038551 -799.88925171 426.55422974 C-794.97234233 424.17859289 -790.079454 421.75464422 -785.1875 419.328125 C-784.23472672 418.85579941 -783.28195343 418.38347382 -782.30030823 417.89683533 C-752.79145906 403.1955309 -724.89411564 384.51992961 -698.98242188 364.16650391 C-697.31308678 362.85858698 -695.63570223 361.5615325 -693.95703125 360.265625 C-686.14514588 354.21258459 -678.59469192 347.90474786 -671.13330078 341.42626953 C-669.37833884 339.9096659 -667.61310515 338.40602633 -665.84375 336.90625 C-658.83022936 330.95473801 -651.99686072 324.85064975 -645.265625 318.58203125 C-642.37524608 315.90676848 -639.43005741 313.31188671 -636.453125 310.734375 C-632.34557156 307.12189392 -628.33673045 303.39849098 -624.31713867 299.6887207 C-622.79928663 298.29590648 -621.27459299 296.91054734 -619.74731445 295.52807617 C-612.85587959 289.27833727 -606.16885027 282.85769734 -599.60424805 276.26586914 C-598.05305898 274.70926236 -596.49651233 273.15815454 -594.93945312 271.60742188 C-589.54157478 266.21339782 -584.32577565 260.72455862 -579.37890625 254.91015625 C-578.4188688 253.82617067 -577.4566983 252.7440697 -576.4921875 251.6640625 C-563.80496948 237.29058282 -553.6177675 221.67608376 -544.37890625 204.91015625 C-543.96431152 204.16604492 -543.5497168 203.42193359 -543.12255859 202.65527344 C-540.06555112 197.14223975 -537.19055272 191.55174624 -534.37890625 185.91015625 C-533.87649414 184.92047852 -533.37408203 183.93080078 -532.85644531 182.91113281 C-524.60477003 166.45325995 -520.48542378 151.20002595 -517.86914062 133.03857422 C-513.81570231 107.17166256 -498.38052738 83.2876845 -481.37890625 63.91015625 C-480.61707031 63.03875 -479.85523438 62.16734375 -479.0703125 61.26953125 C-452.00606184 30.78231465 -415.57149232 7.68264759 -374.12890625 5.03515625 C-346.7120276 3.81796483 -321.34946774 8.96818717 -299.37890625 25.91015625 C-298.86150879 26.30041992 -298.34411133 26.69068359 -297.81103516 27.09277344 C-289.91270945 33.05351622 -282.50018947 39.38079529 -275.31640625 46.18359375 C-273.34186365 48.04803664 -271.31794769 49.80940697 -269.21484375 51.52734375 C-266.88866263 53.48184855 -264.95060304 55.34783621 -263.00390625 57.66015625 C-261.21715545 59.76680567 -259.43513836 61.85033486 -257.54296875 63.86328125 C-249.47619474 72.4897906 -243.00564798 82.49551699 -236.94140625 92.59765625 C-230.77091369 102.41434897 -219.86487002 115.66717437 -209.37890625 120.91015625 C-209.71664062 119.88277344 -210.054375 118.85539063 -210.40234375 117.796875 C-210.85322879 116.39725269 -211.30372865 114.99750626 -211.75390625 113.59765625 C-211.975625 112.92669922 -212.19734375 112.25574219 -212.42578125 111.56445312 C-215.8389354 100.87324969 -216.77027219 90.54694213 -216.75390625 79.34765625 C-216.75259201 78.35845688 -216.75259201 78.35845688 -216.75125122 77.34927368 C-216.61664192 46.54982725 -204.24820275 21.30274482 -182.984375 -0.55078125 C-134.56074263 -46.32436409 -48.25871452 -44.5143878 0 0 Z M-153.38671875 1103.8046875 C-154.45001404 1104.25918777 -154.45001404 1104.25918777 -155.53479004 1104.72286987 C-157.85968195 1105.7185433 -160.18195723 1106.72014071 -162.50390625 1107.72265625 C-163.69388214 1108.23477158 -163.69388214 1108.23477158 -164.90789795 1108.75723267 C-178.49331235 1114.60578906 -191.99613337 1120.60983226 -205.37890625 1126.91015625 C-206.38002441 1127.3798584 -207.38114258 1127.84956055 -208.41259766 1128.33349609 C-231.71020985 1139.29299127 -254.44438521 1151.04685837 -276.5625 1164.234375 C-279.25480963 1165.8363179 -281.9559954 1167.42207381 -284.66015625 1169.00390625 C-304.37397899 1180.59470221 -323.32127022 1193.35031849 -340.1640625 1208.8828125 C-342.13062003 1210.68288897 -344.14431427 1212.39103695 -346.19140625 1214.09765625 C-360.47631258 1226.62928434 -375.37068492 1243.52087566 -383.37890625 1260.91015625 C-383.16463454 1264.36911387 -382.39836439 1264.89208798 -379.75390625 1267.34765625 C-349.41662135 1287.10919442 -299.1982362 1283.89858375 -264.81640625 1281.47265625 C-243.59876515 1279.995134 -222.39156949 1278.89663035 -201.12890625 1278.34765625 C-199.92726837 1278.3153894 -199.92726837 1278.3153894 -198.70135498 1278.2824707 C-182.94063188 1277.86790747 -167.18607943 1277.83928239 -151.42089844 1277.94702148 C-150.55377228 1277.95128647 -149.68664612 1277.95555145 -148.79324341 1277.95994568 C-147.16209146 1277.96823792 -145.53095382 1277.98070717 -143.89987183 1277.99794006 C-142.05933639 1278.00631025 -140.21867923 1277.96378613 -138.37890625 1277.91015625 C-136.99805902 1276.76111909 -136.99805902 1276.76111909 -137.32543945 1273.64624023 C-137.35467552 1272.14945898 -137.38997235 1270.65278987 -137.4296875 1269.15625 C-137.44787537 1268.33315842 -137.46606323 1267.51006683 -137.48480225 1266.66203308 C-137.54812721 1263.89041326 -137.61958049 1261.11906796 -137.69140625 1258.34765625 C-137.7382833 1256.39437049 -137.78507512 1254.44108268 -137.83178711 1252.48779297 C-138.1146721 1241.08819507 -138.47887197 1229.69237092 -138.89453125 1218.296875 C-138.93930099 1217.06905807 -138.98407074 1215.84124115 -139.03019714 1214.57621765 C-139.25146465 1208.56015953 -139.47986568 1202.54446582 -139.71801758 1196.52905273 C-140.16058909 1185.07896739 -140.43040335 1173.66487428 -140.36772156 1162.20608521 C-140.3446721 1155.89715009 -140.60182268 1149.68841209 -141.25390625 1143.41015625 C-141.43871846 1141.43122336 -141.62086599 1139.45204036 -141.80078125 1137.47265625 C-141.89552734 1136.43625 -141.99027344 1135.39984375 -142.08789062 1134.33203125 C-142.65207444 1127.69813829 -143.0720776 1121.05373453 -143.50390625 1114.41015625 C-143.57034332 1113.39465698 -143.57034332 1113.39465698 -143.63812256 1112.35864258 C-143.88776564 1108.54265308 -144.13469186 1104.72649685 -144.37890625 1100.91015625 C-147.63364157 1100.91015625 -150.43819643 1102.53170842 -153.38671875 1103.8046875 Z M-38.37890625 1100.91015625 C-39.56320645 1104.73074874 -39.65910405 1108.58494888 -39.82788086 1112.55029297 C-39.86386257 1113.32056698 -39.89984428 1114.09084099 -39.93691635 1114.88445663 C-40.05574818 1117.4527514 -40.16859441 1120.02127119 -40.28125 1122.58984375 C-40.36389418 1124.4114196 -40.44681106 1126.2329831 -40.52998352 1128.05453491 C-40.75209939 1132.9499656 -40.96834478 1137.8456383 -41.18281555 1142.7414093 C-41.31620514 1145.78057403 -41.45095402 1148.81967576 -41.58605957 1151.85876465 C-42.72942479 1177.62149149 -43.79418353 1203.38546788 -44.62890625 1229.16015625 C-44.66974335 1230.39602478 -44.71058044 1231.63189331 -44.75265503 1232.9052124 C-45.23101454 1247.57860955 -45.48486504 1262.22897744 -45.37890625 1276.91015625 C-41.93043405 1278.05964698 -39.32526056 1278.00710338 -35.6875 1277.97265625 C-34.27571725 1277.9638511 -32.86393332 1277.95523429 -31.45214844 1277.94677734 C-30.69977905 1277.94055359 -29.94740967 1277.93432983 -29.17224121 1277.92791748 C11.13108577 1277.62406059 51.42606608 1279.11375282 91.62109375 1282.03515625 C122.93435171 1284.27470944 172.33316959 1285.71273566 198.62109375 1265.91015625 C200.20835089 1264.14268936 200.20835089 1264.14268936 200.62109375 1261.91015625 C195.11243181 1247.12622592 181.42598172 1233.03509027 170.62109375 1221.91015625 C170.02280762 1221.28608887 169.42452148 1220.66202148 168.80810547 1220.01904297 C160.5270035 1211.40461362 152.10584993 1203.3650503 142.47558594 1196.27734375 C140.52393345 1194.83852675 138.59259077 1193.37465955 136.66015625 1191.91015625 C116.87445732 1177.10014404 95.28941292 1164.73361234 73.62109375 1152.91015625 C73.01521423 1152.57929016 72.40933472 1152.24842407 71.78509521 1151.90753174 C43.99140014 1136.74949393 15.64153879 1123.09907931 -13.44140625 1110.59765625 C-14.18292938 1110.27842194 -14.92445251 1109.95918762 -15.68844604 1109.63027954 C-23.16115603 1106.42255898 -30.59934737 1103.31253954 -38.37890625 1100.91015625 Z M-47.37890625 1343.91015625 C-47.42235672 1345.2124115 -47.46580719 1346.51466675 -47.51057434 1347.85638428 C-48.06509671 1364.45783679 -48.62590316 1381.05907426 -49.19140625 1397.66015625 C-49.2138975 1398.32065413 -49.23638874 1398.981152 -49.25956154 1399.66166496 C-50.41223172 1433.50050275 -51.59099544 1467.33633716 -53.12890625 1501.16015625 C-53.16135563 1501.87398972 -53.19380501 1502.58782318 -53.2272377 1503.32328796 C-53.60070528 1511.51940625 -53.98313645 1519.71508299 -54.37890625 1527.91015625 C67.35975823 1529.50375266 67.35975823 1529.50375266 173.62109375 1478.91015625 C174.5234375 1478.08515625 175.42578125 1477.26015625 176.35546875 1476.41015625 C182.72283677 1470.37403859 187.59495487 1465.17638107 188.18359375 1456.16015625 C187.70572823 1445.77454561 181.86507752 1436.85704468 175.62109375 1428.91015625 C175.08355469 1428.19601562 174.54601563 1427.481875 173.9921875 1426.74609375 C140.06789592 1385.00479539 74.91241101 1366.67938908 24.62109375 1355.91015625 C23.36087402 1355.64009766 22.1006543 1355.37003906 20.80224609 1355.09179688 C1.40493873 1351.01451156 -18.14572169 1347.94945808 -37.7421875 1345.01171875 C-38.48647507 1344.89955017 -39.23076263 1344.78738159 -39.99760437 1344.67181396 C-43.67256433 1344.10795735 -43.67256433 1344.10795735 -47.37890625 1343.91015625 Z M-145.09375 1344.87890625 C-145.88360794 1344.99431259 -146.67346588 1345.10971893 -147.48725891 1345.22862244 C-150.09831627 1345.61402111 -152.70743743 1346.01087557 -155.31640625 1346.41015625 C-156.21137817 1346.54575958 -157.1063501 1346.68136292 -158.02844238 1346.82107544 C-185.79545899 1351.04830489 -213.26453026 1356.54088768 -240.37890625 1363.91015625 C-241.36713379 1364.17763672 -242.35536133 1364.44511719 -243.37353516 1364.72070312 C-287.1100382 1376.76867736 -341.56213053 1399.54089439 -366.37890625 1439.91015625 C-369.8371197 1446.74131214 -372.50051696 1453.65526432 -370.37890625 1461.28515625 C-363.66712862 1479.09253023 -343.36912624 1490.13397801 -327.0078125 1497.875 C-289.11478628 1514.97908482 -247.43757172 1521.72689945 -206.37890625 1525.91015625 C-205.26322266 1526.02875 -204.14753906 1526.14734375 -202.99804688 1526.26953125 C-178.55386147 1528.77815871 -153.91680256 1528.10768851 -129.37890625 1527.91015625 C-129.27551629 1516.09960988 -129.51546007 1504.34294909 -130.05876541 1492.54498863 C-130.18849045 1489.7256088 -130.31311899 1486.90603925 -130.43661499 1484.08638 C-130.61433269 1480.03644401 -130.79379276 1475.98659146 -130.97473145 1471.9367981 C-132.43048575 1439.28839695 -133.74655282 1406.64191505 -134.62890625 1373.97265625 C-134.64939781 1373.21572983 -134.66988937 1372.45880341 -134.69100189 1371.67893982 C-134.93178147 1362.75629796 -135.16220857 1353.83341839 -135.37890625 1344.91015625 C-138.53901001 1343.33010437 -141.70899972 1344.36609409 -145.09375 1344.87890625 Z " fill="#A82ECE" transform="translate(1398.37890625,365.08984375)"/>
<path d="M0 0 C1.50074066 0.74301361 1.50074066 0.74301361 3.03179932 1.5010376 C16.98531026 8.42027382 30.60484156 15.79328987 44.11447144 23.54141235 C47.32447749 25.37204859 50.55781222 27.15417915 53.80078125 28.92578125 C69.37378984 37.4405823 84.54395135 46.48155316 99.5625 55.9375 C100.54653809 56.55544434 101.53057617 57.17338867 102.54443359 57.81005859 C136.99393441 79.47346128 170.6698929 102.55302318 202.78857422 127.55810547 C204.84685953 129.15861634 206.90977611 130.75307235 208.97265625 132.34765625 C217.26595047 138.76679386 225.48284853 145.25089188 233.5625 151.9375 C235.33318118 153.37518741 237.10401892 154.81268202 238.875 156.25 C243.77576197 160.25590101 248.58125755 164.36439905 253.37255859 168.49975586 C256.86378585 171.50606395 260.40076637 174.43525232 264 177.3125 C269.98330106 182.16286832 275.53627513 187.44604198 281.13671875 192.7265625 C283.56908163 195.01715188 286.02682519 197.26090768 288.5625 199.4375 C297.49885062 207.14192482 306.13835646 215.29724967 314.33984375 223.77734375 C316.21981438 225.60445053 318.1363133 227.30289872 320.125 229.0078125 C325.02362732 233.26395967 329.60479022 237.82920178 334.1809082 242.42553711 C335.62275221 243.87274385 337.06987116 245.31452026 338.51757812 246.75585938 C343.1980472 251.43332243 347.73787606 256.17628054 352.04467773 261.20141602 C354.26760389 263.7439973 356.64590337 266.07776447 359.0625 268.4375 C362.72211131 272.04822573 366.21689187 275.73431174 369.5546875 279.64453125 C372.3228822 282.80587423 375.19470658 285.86661991 378.0625 288.9375 C382.65354089 293.86360633 387.18343885 298.82091276 391.5625 303.9375 C392.4621035 304.98319001 393.36185733 306.02875069 394.26171875 307.07421875 C396.85533657 310.09052526 399.44162466 313.11301893 402.02490234 316.13818359 C403.01629386 317.2983226 404.00872904 318.45757095 405.00244141 319.61572266 C410.56678805 326.10127997 415.97868974 332.6736215 421.22241211 339.42138672 C424.95580962 344.20988915 428.80897287 348.89114485 432.6875 353.5625 C438.19582246 360.21225983 443.44203644 366.9832372 448.5625 373.9375 C449.48019383 375.15873871 450.39956275 376.37871989 451.3203125 377.59765625 C470.76271389 403.34065709 489.10043354 429.8130901 506.5625 456.9375 C507.10326172 457.77700195 507.64402344 458.61650391 508.20117188 459.48144531 C522.77612139 482.17780688 536.57824204 505.29676051 549.5625 528.9375 C550.57661736 530.77094705 551.59093499 532.60428333 552.60546875 534.4375 C560.52437804 548.79906621 568.08832572 563.34041812 575.5625 577.9375 C576.07280762 578.92943359 576.58311523 579.92136719 577.10888672 580.94335938 C616.37669504 657.43337308 646.21163547 739.40577499 707.75 1048.125 C707.82899536 1049.03671967 707.90799072 1049.94843933 707.98937988 1050.88778687 C708.58912924 1057.8995625 709.09984512 1064.9153885 709.5625 1071.9375 C709.60590263 1072.59433651 709.64930527 1073.25117302 709.69402313 1073.92791367 C711.40216329 1100.0468162 711.88229617 1126.10002803 711.82324219 1152.27075195 C711.81185647 1157.35325351 711.81863684 1162.43554528 711.83012009 1167.5180397 C711.89491583 1201.36270512 710.80855623 1235.09084777 707.8125 1268.8125 C707.72979858 1269.76110901 707.64709717 1270.70971802 707.56188965 1271.68707275 C698.93006789 1370.00822642 679.22896115 1466.58639005 588.5625 1712.9375 C588.03076172 1714.06414062 587.49902344 1715.19078125 586.95117188 1716.3515625 C574.25619588 1743.15040204 560.91865595 1769.64103694 546.07128906 1795.31835938 C544.5617978 1797.93871897 543.07119698 1800.568965 541.5859375 1803.203125 C520.61133562 1840.34183062 497.29991283 1876.19985645 472.5625 1910.9375 C472.03382324 1911.68225586 471.50514648 1912.42701172 470.96044922 1913.19433594 C462.10267634 1925.65236489 452.89217564 1937.83004199 443.5625 1949.9375 C442.92570312 1950.76411133 442.28890625 1951.59072266 441.6328125 1952.44238281 C432.55469292 1964.20909487 423.27960624 1975.77383031 413.65209961 1987.09619141 C410.70210482 1990.57048049 407.80556211 1994.08239367 404.9375 1997.625 C401.36724131 2002.01476647 397.63367495 2006.21577693 393.8203125 2010.39453125 C391.44017687 2013.07527224 389.18518159 2015.83254134 386.9375 2018.625 C383.91445602 2022.36181825 380.80835542 2025.82700524 377.34521484 2029.15527344 C375.56936958 2030.93063231 373.92707092 2032.76914282 372.2890625 2034.671875 C368.79373559 2038.69265225 365.20779591 2042.61508873 361.5625 2046.5 C360.923125 2047.18255859 360.28375 2047.86511719 359.625 2048.56835938 C354.4038507 2054.11073173 349.04063304 2059.49797388 343.62695312 2064.8515625 C340.64538083 2067.81104908 337.75238291 2070.76802334 335.0625 2074 C331.27931113 2078.4780603 326.91569378 2082.33474408 322.60913086 2086.29736328 C317.82872266 2090.71086062 313.19992316 2095.24939793 308.625 2099.875 C304.46187484 2104.07608679 300.30334096 2108.18591279 295.78125 2112.00390625 C292.46212575 2114.89645291 289.27198353 2117.92434851 286.0625 2120.9375 C280.97556017 2125.70306834 275.86596812 2130.41252262 270.5625 2134.9375 C269.52972944 2135.82396428 268.49720072 2136.71071035 267.46484375 2137.59765625 C265.07508666 2139.64968259 262.68287501 2141.69880016 260.2890625 2143.74609375 C257.82075626 2145.85780934 255.35746691 2147.9751464 252.8984375 2150.09765625 C247.10946086 2155.08966808 241.29852429 2160.02512298 235.296875 2164.76171875 C233.16719296 2166.45633718 231.05594798 2168.16705672 228.953125 2169.89453125 C221.06848391 2176.36663357 213.07582999 2182.63454003 204.8828125 2188.7109375 C201.7487714 2191.03920744 198.64572926 2193.40400668 195.5546875 2195.7890625 C186.30097976 2202.92329229 176.97739697 2209.84244165 167.28344727 2216.3684082 C162.65588516 2219.48667906 158.14269249 2222.70408883 153.6875 2226.0625 C141.76242348 2234.97683989 129.06887257 2242.87141125 116.5625 2250.9375 C115.64855469 2251.52740723 114.73460937 2252.11731445 113.79296875 2252.72509766 C75.62599035 2277.27949145 35.93756411 2299.25936185 -4.4375 2319.9375 C-5.4265332 2320.44635742 -6.41556641 2320.95521484 -7.43457031 2321.47949219 C-81.26890426 2359.38361557 -160.1583136 2388.27585516 -474.0625 2452.25 C-475.36365753 2452.36331161 -475.36365753 2452.36331161 -476.69110107 2452.47891235 C-483.26848822 2453.04139704 -489.85039717 2453.50494098 -496.4375 2453.9375 C-497.71271515 2454.02363556 -498.9879303 2454.10977112 -500.30178833 2454.19851685 C-526.36885081 2455.93093087 -552.38989002 2456.2828594 -578.5090332 2456.25317383 C-582.89650793 2456.24856497 -587.28370386 2456.25540543 -591.67114258 2456.27368164 C-632.67250949 2456.44252563 -673.577489 2454.8822278 -714.375 2450.625 C-715.39984497 2450.52111969 -716.42468994 2450.41723938 -717.48059082 2450.31021118 C-816.86104656 2440.21767942 -914.89462086 2418.90606023 -1156.4052124 2324.93737793 C-1158.55142021 2323.88145168 -1160.69879816 2322.82792721 -1162.84619141 2321.77441406 C-1180.3962198 2313.15439205 -1197.75221665 2304.3627719 -1214.6640625 2294.53369141 C-1218.71928896 2292.19979435 -1222.81212189 2289.93505991 -1226.90307617 2287.66455078 C-1268.68477308 2264.45777361 -1308.85182161 2238.12363301 -1347.4375 2209.9375 C-1348.241875 2209.35000977 -1349.04625 2208.76251953 -1349.875 2208.15722656 C-1359.82896771 2200.87681268 -1369.71462365 2193.52428988 -1379.4375 2185.9375 C-1379.98148438 2185.51436523 -1380.52546875 2185.09123047 -1381.0859375 2184.65527344 C-1393.54413508 2174.95998258 -1405.8403561 2165.06295765 -1417.85351562 2154.8203125 C-1421.19542088 2151.97365846 -1424.58167724 2149.19169148 -1428 2146.4375 C-1433.07069551 2142.3129401 -1437.86942479 2137.94133401 -1442.66015625 2133.5 C-1445.55114944 2130.832642 -1448.49551642 2128.23926397 -1451.46484375 2125.66015625 C-1462.08963861 2116.38187004 -1472.62357788 2106.90147268 -1482.50854492 2096.83398438 C-1484.21468919 2095.15656017 -1485.95830154 2093.61586121 -1487.7890625 2092.078125 C-1493.67091565 2086.96397135 -1499.12023018 2081.40383329 -1504.61938477 2075.88598633 C-1506.49579475 2074.00421726 -1508.37748969 2072.12785262 -1510.25976562 2070.25195312 C-1515.69611354 2064.8183056 -1521.07286843 2059.39529839 -1526.05639648 2053.53686523 C-1528.0635006 2051.21256983 -1530.23827378 2049.07885185 -1532.4375 2046.9375 C-1535.92183405 2043.48973317 -1539.21962816 2039.97836066 -1542.40234375 2036.25390625 C-1544.58570175 2033.7688174 -1546.83680807 2031.35866343 -1549.10107422 2028.94750977 C-1554.38449006 2023.32116179 -1559.43401532 2017.61004119 -1564.26171875 2011.58203125 C-1566.567817 2008.77910752 -1568.97901531 2006.10746725 -1571.4375 2003.4375 C-1575.85631919 1998.62559567 -1580.00983762 1993.65480367 -1584.109375 1988.5703125 C-1585.61181738 1986.72319216 -1587.13266863 1984.89222155 -1588.65625 1983.0625 C-1595.69214416 1974.60342736 -1602.514867 1966.02180849 -1609.15625 1957.25 C-1611.95600641 1953.55512916 -1614.80565298 1949.90193825 -1617.66821289 1946.25561523 C-1624.62659364 1937.38456794 -1631.29407337 1928.33828842 -1637.84179688 1919.16113281 C-1639.40701686 1916.97997865 -1640.9891128 1914.81230405 -1642.578125 1912.6484375 C-1651.59789047 1900.3408985 -1660.05394645 1887.68456615 -1668.4375 1874.9375 C-1669.08541504 1873.95523437 -1669.73333008 1872.97296875 -1670.40087891 1871.9609375 C-1695.51862312 1833.85563654 -1718.51314854 1794.50624603 -1739.359375 1753.90625 C-1741.42685793 1749.88128323 -1743.52704849 1745.87949606 -1745.69018555 1741.90527344 C-1789.39645414 1661.59257931 -1819.98299308 1571.50694247 -1883.4375 1138.9375 C-1883.42783203 1138.20919983 -1883.41816406 1137.48089966 -1883.40820312 1136.73052979 C-1882.14234227 1042.31577056 -1870.18590467 947.81094335 -1813.17388916 736.07635498 C-1812.43711084 733.93636968 -1811.70504584 731.79482303 -1810.97412109 729.65283203 C-1786.92720272 659.283046 -1755.98677506 590.34211004 -1719.06103516 525.79052734 C-1717.46712194 522.98955444 -1715.89241744 520.17871965 -1714.32421875 517.36328125 C-1692.63300046 478.48202706 -1668.34226539 441.13497684 -1642.4375 404.9375 C-1641.92268066 404.21546387 -1641.40786133 403.49342773 -1640.87744141 402.74951172 C-1632.94964639 391.63904284 -1624.79139685 380.73049083 -1616.4375 369.9375 C-1615.8688623 369.19999512 -1615.30022461 368.46249023 -1614.71435547 367.70263672 C-1604.20387692 354.07098899 -1593.48856988 340.62382403 -1582.32177734 327.52270508 C-1579.45607856 324.15805361 -1576.65182767 320.75070869 -1573.875 317.3125 C-1570.00170728 312.55229947 -1565.92990008 308.00945216 -1561.77734375 303.4921875 C-1559.77915152 301.31052185 -1557.81601111 299.10738691 -1555.875 296.875 C-1538.23425852 276.60253951 -1519.74186347 257.05815354 -1500.71630859 238.0859375 C-1498.40733764 235.78240873 -1496.10387223 233.47346864 -1493.80078125 231.1640625 C-1492.30500859 229.66894953 -1490.80892636 228.17414619 -1489.3125 226.6796875 C-1488.63840088 226.00356415 -1487.96430176 225.3274408 -1487.26977539 224.63082886 C-1483.35066757 220.73077124 -1479.32440077 217.01353108 -1475.13037109 213.41018677 C-1473.13502837 211.67436953 -1471.27411556 209.83970898 -1469.4375 207.9375 C-1466.30904036 204.76660002 -1463.06894648 201.8118004 -1459.69140625 198.91015625 C-1457.4777439 196.97272213 -1455.31524978 194.98620812 -1453.15893555 192.98535156 C-1447.9744582 188.1763218 -1442.66380525 183.61964813 -1437.15234375 179.18359375 C-1434.33076505 176.8491941 -1431.63159288 174.41759402 -1428.9375 171.9375 C-1424.12559567 167.51868081 -1419.15480367 163.36516238 -1414.0703125 159.265625 C-1412.22319216 157.76318262 -1410.39222155 156.24233137 -1408.5625 154.71875 C-1400.10342736 147.68285584 -1391.52180849 140.860133 -1382.75 134.21875 C-1379.05527049 131.41910068 -1375.40217775 128.56962201 -1371.75610352 125.70703125 C-1362.16607127 118.18527454 -1352.37587083 110.99074464 -1342.4375 103.9375 C-1341.37015625 103.17445557 -1341.37015625 103.17445557 -1340.28125 102.39599609 C-1316.59412048 85.47278649 -1292.29731699 69.09243672 -1267.4375 53.9375 C-1266.49471191 53.36273926 -1265.55192383 52.78797852 -1264.58056641 52.19580078 C-1250.33477324 43.53765173 -1235.97578602 35.09462791 -1221.4375 26.9375 C-1220.39239258 26.3492041 -1219.34728516 25.7609082 -1218.27050781 25.15478516 C-1140.12498994 -18.7381221 -1057.68614691 -54.09479074 -903.4375 -100.0625 C-902.21151093 -100.37350647 -902.21151093 -100.37350647 -900.96075439 -100.6907959 C-816.1018534 -122.1408136 -728.86305023 -134.36756602 -641.4375 -138.0625 C-640.75373291 -138.09172546 -640.06996582 -138.12095093 -639.36547852 -138.15106201 C-542.84872036 -142.21694347 -446.05013895 -135.20938203 0 0 Z M-680.57208252 -63.31573486 C-683.56815617 -63.0509531 -686.56499863 -62.79639269 -689.56201172 -62.54248047 C-786.85881509 -54.18908695 -882.6895951 -34.32322718 -1079.4375 36.9375 C-1080.13860901 37.24733826 -1080.83971802 37.55717651 -1081.56207275 37.87640381 C-1114.50323511 52.44410771 -1147.09537828 68.16936627 -1178.4375 85.9375 C-1179.99887695 86.81486816 -1179.99887695 86.81486816 -1181.59179688 87.70996094 C-1214.75180626 106.35172787 -1247.21215885 126.19186561 -1278.4375 147.9375 C-1280.08716954 149.07952827 -1281.73691068 150.22145311 -1283.38671875 151.36328125 C-1314.25987103 172.79150925 -1344.25606039 195.66651668 -1372.85571289 220.05688477 C-1376.17448236 222.88436695 -1379.53934014 225.64372288 -1382.9375 228.375 C-1388.32035937 232.7520112 -1393.38021342 237.43304127 -1398.44921875 242.1640625 C-1400.7410841 244.30104314 -1403.06508757 246.38973348 -1405.4375 248.4375 C-1409.9680232 252.36269234 -1414.35878992 256.43779045 -1418.75 260.51708984 C-1421.06483754 262.66650652 -1423.38493736 264.80991741 -1425.71069336 266.94750977 C-1435.51706758 275.99300154 -1444.99902434 285.3447143 -1454.41992188 294.78955078 C-1456.9584885 297.33353328 -1459.5024333 299.87205128 -1462.046875 302.41015625 C-1463.68782112 304.0517624 -1465.32845744 305.69367831 -1466.96875 307.3359375 C-1468.0907782 308.45492935 -1468.0907782 308.45492935 -1469.23547363 309.5965271 C-1473.29268515 313.67170459 -1477.17608884 317.83989356 -1480.93103027 322.19522095 C-1482.6936174 324.23370773 -1484.51792432 326.20367918 -1486.375 328.15625 C-1487.04273438 328.86136719 -1487.71046875 329.56648438 -1488.3984375 330.29296875 C-1490.4375 332.4375 -1490.4375 332.4375 -1492.4765625 334.58203125 C-1496.91572568 339.26971901 -1501.22514385 344.04516183 -1505.4375 348.9375 C-1506.16912354 349.78586426 -1506.16912354 349.78586426 -1506.91552734 350.65136719 C-1508.32156102 352.28597271 -1509.72402382 353.92355839 -1511.125 355.5625 C-1514.23773641 359.2037957 -1517.35185455 362.84338718 -1520.4921875 366.4609375 C-1525.90340926 372.70681304 -1531.16374098 379.03200835 -1536.23168945 385.56005859 C-1539.1257225 389.28470535 -1542.07574262 392.95475229 -1545.07226562 396.59741211 C-1552.52398322 405.6631429 -1559.59029564 414.9903712 -1566.57324219 424.42041016 C-1568.38038641 426.86038618 -1570.19364242 429.29571426 -1572.0078125 431.73046875 C-1608.04406363 480.21588066 -1640.11750556 531.59074242 -1668.4375 584.9375 C-1668.93314453 585.87094238 -1669.42878906 586.80438477 -1669.93945312 587.76611328 C-1673.48612539 594.46577253 -1676.97350072 601.1947826 -1680.4375 607.9375 C-1680.97455566 608.9776123 -1681.51161133 610.01772461 -1682.06494141 611.08935547 C-1691.62517089 629.66024769 -1700.25663797 648.56823817 -1708.59472656 667.71386719 C-1710.23293377 671.47485164 -1711.89210346 675.22628348 -1713.5546875 678.9765625 C-1754.91511787 772.97060327 -1782.29912987 873.93566177 -1806.40234375 1047.7421875 C-1806.46506973 1048.39921661 -1806.52779572 1049.05624573 -1806.59242249 1049.73318481 C-1809.73714245 1084.06761314 -1810.77671067 1118.41313763 -1810.69824219 1152.87792969 C-1810.68684877 1157.92582569 -1810.69364023 1162.97351066 -1810.70512009 1168.0213995 C-1810.7540253 1193.38996636 -1810.14540686 1218.62503137 -1808.4375 1243.9375 C-1808.36188843 1245.06468445 -1808.28627686 1246.1918689 -1808.20837402 1247.35321045 C-1807.77054891 1253.70042156 -1807.25677768 1260.03832027 -1806.6875 1266.375 C-1806.60513092 1267.30776764 -1806.52276184 1268.24053528 -1806.43789673 1269.2015686 C-1803.13080256 1306.32388438 -1797.98670473 1343.25231484 -1791.4375 1379.9375 C-1791.28406128 1380.79982239 -1791.13062256 1381.66214478 -1790.97253418 1382.55059814 C-1781.94585573 1432.98997374 -1769.33828047 1483.22768307 -1753.4375 1531.9375 C-1753.12123657 1532.90888916 -1752.80497314 1533.88027832 -1752.47912598 1534.88110352 C-1739.62035477 1574.29914508 -1725.23654448 1613.02197545 -1708.4375 1650.9375 C-1707.66962158 1652.69320313 -1707.66962158 1652.69320313 -1706.88623047 1654.484375 C-1698.58870032 1673.45202251 -1689.5442584 1692.03358236 -1680.3125 1710.5625 C-1679.77163757 1711.65208008 -1679.23077515 1712.74166016 -1678.67352295 1713.86425781 C-1671.5214735 1728.24917695 -1663.98184268 1742.3410573 -1655.96731567 1756.26359558 C-1653.75838155 1760.12450433 -1651.59074869 1764.00815815 -1649.42185974 1767.8916626 C-1642.41450876 1780.43831239 -1635.02210895 1792.73255386 -1627.4375 1804.9375 C-1626.89577148 1805.81132324 -1626.35404297 1806.68514648 -1625.79589844 1807.58544922 C-1604.48221453 1841.84832295 -1581.25936595 1875.12695335 -1556.4375 1906.9375 C-1555.80279785 1907.75347656 -1555.80279785 1907.75347656 -1555.15527344 1908.5859375 C-1545.45998258 1921.04413508 -1535.56295765 1933.3403561 -1525.3203125 1945.35351562 C-1522.47365846 1948.69542088 -1519.69169148 1952.08167724 -1516.9375 1955.5 C-1512.81059794 1960.57357493 -1508.43647442 1965.37491142 -1503.9921875 1970.16796875 C-1501.93636278 1972.39668393 -1499.92133043 1974.64517919 -1497.9375 1976.9375 C-1494.19947391 1981.24377708 -1490.34434301 1985.4401437 -1486.47753906 1989.63037109 C-1484.66603679 1991.59614116 -1482.86772399 1993.57087947 -1481.07983398 1995.55834961 C-1471.37863189 2006.26095399 -1461.11349499 2016.41398936 -1450.89111328 2026.61425781 C-1448.20957905 2029.29005899 -1445.53261204 2031.97037765 -1442.85692215 2034.65202141 C-1440.76705541 2036.74552391 -1438.67478563 2038.8366118 -1436.58181 2040.92700577 C-1435.59405242 2041.91410431 -1434.60701462 2042.90192374 -1433.62076569 2043.89052963 C-1428.6121814 2048.90847311 -1423.57729721 2053.83016811 -1418.18267822 2058.43386841 C-1415.00922731 2061.16808832 -1411.98536263 2064.06503962 -1408.9375 2066.9375 C-1403.85150209 2071.70402725 -1398.74091454 2076.41256833 -1393.4375 2080.9375 C-1392.40472944 2081.82396428 -1391.37220072 2082.71071035 -1390.33984375 2083.59765625 C-1387.94522736 2085.65400221 -1385.54765261 2087.70683468 -1383.1484375 2089.7578125 C-1380.7292862 2091.82720698 -1378.31811267 2093.90527307 -1375.9140625 2095.9921875 C-1369.66900025 2101.40270465 -1363.34525703 2106.663329 -1356.81713867 2111.72949219 C-1353.07228633 2114.63841688 -1349.38626875 2117.60747704 -1345.72680664 2120.62304688 C-1337.00305022 2127.80288049 -1327.99248339 2134.52749552 -1318.85644531 2141.17138672 C-1316.46598271 2142.91670428 -1314.08667444 2144.67610856 -1311.7109375 2146.44140625 C-1269.32488011 2177.92530175 -1224.744669 2206.56915953 -1178.4375 2231.9375 C-1177.46425781 2232.47294434 -1176.49101563 2233.00838867 -1175.48828125 2233.56005859 C-1117.29237454 2265.54255539 -1057.03368146 2292.74181487 -994.4375 2314.9375 C-993.77463989 2315.17341858 -993.11177979 2315.40933716 -992.42883301 2315.65240479 C-905.46498926 2346.59101622 -814.84658939 2366.99871266 -66.40234375 2269.6171875 C-59.7176201 2266.42450416 -53.0594022 2263.17927749 -46.41253662 2259.90875244 C-44.35091916 2258.89492263 -42.28805106 2257.88366693 -40.22509766 2256.87255859 C-23.27389442 2248.55493262 -6.55574541 2240.01117613 9.78320312 2230.53222656 C12.70929146 2228.85327286 15.65529064 2227.21509718 18.609375 2225.5859375 C33.88722618 2217.15780984 48.79559122 2208.23031481 63.5625 2198.9375 C64.62533203 2198.26928223 65.68816406 2197.60106445 66.78320312 2196.91259766 C81.59791446 2187.57318308 96.17908756 2177.92794903 110.5625 2167.9375 C111.69824463 2167.14931885 111.69824463 2167.14931885 112.85693359 2166.34521484 C143.59629569 2144.95742996 173.48342196 2122.12118728 201.98071289 2097.81811523 C205.29948236 2094.99063305 208.66434014 2092.23127712 212.0625 2089.5 C217.44535937 2085.1229888 222.50521342 2080.44195873 227.57421875 2075.7109375 C229.8660841 2073.57395686 232.19008757 2071.48526652 234.5625 2069.4375 C239.70682917 2064.97908138 244.67839296 2060.33317568 249.6645813 2055.69998169 C250.88770102 2054.56414478 252.111657 2053.42920742 253.3366394 2052.29537964 C263.55031467 2042.83668547 273.50920702 2033.14864712 283.33862305 2023.29174805 C285.65102723 2020.97391162 287.96882898 2018.66156696 290.28710938 2016.34960938 C291.78677957 2014.84927936 293.28614006 2013.3486397 294.78515625 2011.84765625 C295.46441666 2011.17042007 296.14367706 2010.4931839 296.84352112 2009.79542542 C300.71184349 2005.90830189 304.39953124 2001.92032107 307.96287537 1997.75120544 C309.59478802 1995.90089081 311.30117746 1994.16436721 313.0625 1992.4375 C316.05484375 1989.49149785 318.81574172 1986.40766993 321.5546875 1983.2265625 C323.50612787 1981.00176861 325.50433648 1978.82579499 327.51708984 1976.65649414 C332.34554485 1971.45042706 336.9275513 1966.1193402 341.3828125 1960.5859375 C343.54007399 1957.96474881 345.77561 1955.44595719 348.0625 1952.9375 C351.852915 1948.7686959 355.45029421 1944.48265002 358.9921875 1940.1015625 C360.91430461 1937.7246519 362.86215269 1935.37074057 364.8203125 1933.0234375 C371.08850552 1925.49741602 377.19686836 1917.90064641 383.02270508 1910.02636719 C386.20886453 1905.72339329 389.46416582 1901.48466024 392.7734375 1897.27563477 C399.46250939 1888.76733248 405.82532202 1880.09060638 411.99121094 1871.19726562 C413.67488576 1868.77587126 415.37133223 1866.36380263 417.0703125 1863.953125 C424.04910287 1854.0431483 430.9233204 1844.07831143 437.5625 1833.9375 C437.975 1833.30908203 438.3875 1832.68066406 438.8125 1832.03320312 C474.96267973 1776.87111484 506.81879632 1719.04234474 533.71551514 1658.83068848 C534.50826039 1657.05873687 535.30500943 1655.28857802 536.10205078 1653.51855469 C576.3349958 1564.16988837 604.26075184 1469.2933586 636.8125 1248.1875 C636.89576538 1247.04775726 636.97903076 1245.90801453 637.06481934 1244.73373413 C639.08806415 1216.65371033 639.76975821 1188.70401855 639.75 1160.5625 C639.74973312 1159.71033653 639.74946625 1158.85817307 639.74919128 1157.98018646 C639.73882381 1131.58529193 639.5163079 1105.27209855 637.5625 1078.9375 C637.49697937 1078.03559937 637.43145874 1077.13369873 637.36395264 1076.20446777 C630.79339995 986.13530845 615.5231778 897.03980415 496.5625 582.9375 C495.9962793 581.89271484 495.43005859 580.84792969 494.84667969 579.77148438 C485.15450696 561.91299107 475.06562829 544.33444307 464.5625 526.9375 C463.9344043 525.89094238 463.30630859 524.84438477 462.65917969 523.76611328 C447.05101282 497.79965236 430.17245741 472.58708147 412.5625 447.9375 C412.02367188 447.18017578 411.48484375 446.42285156 410.9296875 445.64257812 C403.5649601 435.30229144 395.99996106 425.133189 388.23046875 415.09375 C386.52460152 412.88850712 384.82470234 410.67874672 383.125 408.46875 C372.1084857 394.18334555 360.64671124 380.27867514 348.94091797 366.55419922 C347.48054713 364.84138028 346.02356922 363.12570469 344.56640625 361.41015625 C339.0754946 354.96019453 333.50405137 348.60957021 327.77734375 342.3671875 C325.92243183 340.33234585 324.10821202 338.27428753 322.3125 336.1875 C317.19449482 330.30596957 311.81301672 324.66238472 306.47607422 318.98046875 C304.62439797 317.00358347 302.78186953 315.018572 300.94140625 313.03125 C292.81706087 304.28845715 284.49113603 295.76062067 276.0625 287.3125 C275.29332245 286.53944016 275.29332245 286.53944016 274.50860596 285.75076294 C269.23780759 280.45893043 263.92825258 275.26847701 258.25195312 270.40869141 C255.90398146 268.36405597 253.73370049 266.16738158 251.5625 263.9375 C248.09341869 260.43156958 244.55970673 257.10950737 240.8125 253.90625 C238.47336515 251.859507 236.20136396 249.75297531 233.93017578 247.6315918 C228.50271156 242.56296166 222.96898047 237.73503496 217.17578125 233.08203125 C214.56402377 230.93875044 212.05884698 228.7136967 209.5625 226.4375 C204.91812677 222.21468177 200.10858208 218.24152344 195.22900391 214.29492188 C193.32465888 212.74377064 191.43326869 211.17761071 189.54296875 209.609375 C181.63235338 203.04906782 173.67509866 196.59734109 165.47998047 190.39404297 C163.2212958 188.67831688 160.97199763 186.95061272 158.72265625 185.22265625 C147.47486585 176.59441429 136.13203177 168.1295321 124.5625 159.9375 C123.72090332 159.3403418 122.87930664 158.74318359 122.01220703 158.12792969 C56.34948223 111.65744349 -13.92918856 71.50024052 -87.43487549 38.828125 C-89.37140532 37.96689422 -91.30665835 37.10285125 -93.24169922 36.23828125 C-168.80365893 2.53521291 -248.31328592 -22.62902444 -479.0625 -62.3125 C-479.9197467 -62.3897229 -480.77699341 -62.4669458 -481.66021729 -62.54650879 C-515.11301207 -65.51552421 -548.54118906 -66.44352977 -582.11150742 -66.38055801 C-585.17806806 -66.37490212 -588.24462314 -66.37209137 -591.31118774 -66.36947632 C-621.14154139 -66.33252937 -650.83858322 -65.94674785 -680.57208252 -63.31573486 Z " fill="#A329C9" transform="translate(1892.4375,148.0625)"/>
</svg>
