<svg width="1600" height="1600" viewBox="0 0 1600 1600" fill="none" xmlns="http://www.w3.org/2000/svg">
            <path d="M1585 800C1585 1233.55 1233.55 1585 800 1585C366.463 1585 15 1233.55 15 800C15 366.463 366.463 15 800 15C1233.55 15 1585 366.463 1585 800Z" fill="#153446"/>
            <path fill-rule="evenodd" clip-rule="evenodd" d="M1600 800C1600 1241.83 1241.83 1600 800 1600C358.17 1600 0 1241.83 0 800C0 358.17 358.17 0 800 0C1241.83 0 1600 358.17 1600 800ZM800 1540C1208.69 1540 1540 1208.69 1540 800C1540 391.3 1208.69 60 800 60C391.3 60 60 391.3 60 800C60 1208.69 391.3 1540 800 1540Z" fill="black"/>
            <path fill-rule="evenodd" clip-rule="evenodd" d="M1585 800C1585 1233.54 1233.54 1585 800 1585C366.46 1585 15 1233.54 15 800C15 366.46 366.46 15 800 15C1233.54 15 1585 366.46 1585 800ZM800 1525C1200.41 1525 1525 1200.41 1525 800C1525 399.6 1200.41 75 800 75C399.6 75 75 399.6 75 800C75 1200.41 399.6 1525 800 1525Z" fill="#0F1726"/>
            <path d="M800.5 1555L622.53 902.25L146.22 421.75L800.5 594L1454.78 421.75L978.47 902.25L800.5 1555Z" fill="#A5883E"/>
            <path d="M800.5 44L978.47 696.75L1454.78 1177.25L800.5 1005L146.22 1177.25L622.53 696.75L800.5 44Z" fill="#D4C373"/> </svg>