<svg id="svg" version="1.1" xmlns="http://www.w3.org/2000/svg" xmlns:xlink="http://www.w3.org/1999/xlink" width="400" height="400" viewBox="0, 0, 400,400"><g id="svgg"><path id="path0" d="M105.200 96.700 L 105.200 120.000 140.000 120.000 L 174.800 120.000 174.800 135.178 L 174.800 150.356 172.550 150.488 C 110.943 154.088,72.483 165.572,75.794 179.377 C 78.569 190.943,115.577 201.300,165.200 204.399 C 168.885 204.629,172.553 204.866,173.350 204.926 L 174.800 205.034 174.800 253.817 L 174.800 302.600 200.000 302.600 L 225.200 302.600 225.200 253.814 L 225.200 205.029 226.250 204.921 C 226.828 204.861,229.145 204.717,231.400 204.601 C 259.998 203.120,288.544 198.455,305.200 192.539 C 336.294 181.497,328.997 167.123,287.616 157.902 C 271.037 154.207,253.576 152.047,227.650 150.484 L 225.400 150.349 225.400 135.174 L 225.400 120.000 260.200 120.000 L 295.000 120.000 295.000 96.700 L 295.000 73.400 200.100 73.400 L 105.200 73.400 105.200 96.700 M174.849 170.950 L 174.900 187.900 176.200 188.027 C 184.954 188.882,216.089 188.910,224.050 188.070 L 225.200 187.948 225.200 170.945 L 225.200 153.941 228.250 154.076 C 279.949 156.376,317.537 166.835,312.019 177.385 C 302.710 195.183,194.077 203.522,125.492 191.703 C 70.620 182.247,75.990 165.268,136.400 157.212 C 147.564 155.723,165.773 154.133,172.849 154.029 L 174.798 154.000 174.849 170.950 " stroke="none" fill="#fbfbfb" fill-rule="evenodd"></path><path id="path1" d="M74.258 26.393 C 73.442 26.891,78.044 17.360,36.443 104.700 C -3.637 188.845,-0.701 182.385,0.436 183.929 C 1.067 184.785,198.247 373.698,198.685 373.866 C 199.229 374.075,200.983 374.023,201.429 373.785 C 201.974 373.493,398.529 185.192,399.350 184.174 C 400.744 182.447,404.325 190.388,363.249 104.107 C 330.064 34.400,326.434 26.870,325.820 26.457 L 325.141 26.000 200.020 26.001 C 76.168 26.001,74.893 26.005,74.258 26.393 M295.000 96.700 L 295.000 120.000 260.200 120.000 L 225.400 120.000 225.400 135.174 L 225.400 150.349 227.650 150.484 C 253.576 152.047,271.037 154.207,287.616 157.902 C 328.997 167.123,336.294 181.497,305.200 192.539 C 288.544 198.455,259.998 203.120,231.400 204.601 C 229.145 204.717,226.828 204.861,226.250 204.921 L 225.200 205.029 225.200 253.814 L 225.200 302.600 200.000 302.600 L 174.800 302.600 174.800 253.817 L 174.800 205.034 173.350 204.926 C 172.553 204.866,168.885 204.629,165.200 204.399 C 115.577 201.300,78.569 190.943,75.794 179.377 C 72.483 165.572,110.943 154.088,172.550 150.488 L 174.800 150.356 174.800 135.178 L 174.800 120.000 140.000 120.000 L 105.200 120.000 105.200 96.700 L 105.200 73.400 200.100 73.400 L 295.000 73.400 295.000 96.700 M168.300 154.221 C 75.081 160.098,58.124 183.570,139.718 193.786 C 209.836 202.565,303.513 193.648,312.019 177.385 C 317.537 166.835,279.949 156.376,228.250 154.076 L 225.200 153.941 225.200 170.945 L 225.200 187.948 224.050 188.070 C 216.089 188.910,184.954 188.882,176.200 188.027 L 174.900 187.900 174.849 170.950 L 174.798 154.000 172.849 154.029 C 171.777 154.045,169.730 154.131,168.300 154.221 " stroke="none" fill="#53ac94" fill-rule="evenodd"></path></g></svg>