<svg xmlns="http://www.w3.org/2000/svg" viewBox="0 0 3000 1074.93"><defs><style>.cls-1{fill:#00d2ff;}.cls-2{fill:#fff;}</style></defs><g id="Capa_2" data-name="Capa 2"><g id="Capa_1-2" data-name="Capa 1"><path class="cls-1" d="M1074.93,537.47C1074.93,240.63,834.3,0,537.46,0S0,240.63,0,537.47s240.63,537.46,537.46,537.46,537.47-240.63,537.47-537.46"/><path d="M900.18,510.64c0-1.28-23.26-16.14-35.51-23.9A86.08,86.08,0,0,1,850,475.15c-9.16-9.06-24.43-24.89-29.41-34.63-3.19-6.23-1.88-17.44.6-28.14a73.38,73.38,0,0,0-9.06-54.88l-15.92-25.93a174.53,174.53,0,0,1-17.55-37.71A109.68,109.68,0,0,0,750.8,249c-25.9-25.27-97.6-37.71-157.16-39.7a100.22,100.22,0,0,0-11.21-2.66c-26.53-4.52-54.8-11.81-80.18-7.07-37.69,7-75.79,18.82-104.22,48-5.74,5.88-14.69,8.66-20.87,14.23-12.24,11.05-28.73,11.05-39.61,23.33-6.37,7.15-9.31,30.52-26,39.45-27.61,14.8-48,31.1-54.74,39.43-5.06,6.25-9,13.57-13.91,20-5,6.56-28.81,17.66-35.73,24.6s-16.18,23.84-12,43.81c.39,1.82.71,3.32,1,4.54,2.72,10.15,10.12,28.55,8.41,37-2,10-27.67,84.41,29.71,104.24,12,4.14,17,12.19,18.32,24.44A89.31,89.31,0,0,0,261,651.2c5.22,11,15.51,17,16.35,17.74,3.46,3,19.56,19.86,20.89,22.31,20.36,37.63,14.64,56.43,53.61,69.22a142.43,142.43,0,0,1,28.67,13.15,155.43,155.43,0,0,0,35.13,15.56c.36.1.9.29,1.54.52,8.66-20.92,17.44-40.76,26.19-59.44-70.16-71.93-51.71-152.52-45-174.11a4,4,0,0,1,6.5-1.81c14.72,12.9,59.48,59.42,54.23,143.42,15.48-30.92,30.53-58.1,44.28-81.32-50.62-85.79-12.9-161-1-180.82a4,4,0,0,1,6.82-.19c10.32,15.32,38.37,65.55,21,137.91,12.59-19.24,22.81-33.49,29.49-42.43C577.82,411.29,668.16,372,691.9,363.72a4,4,0,0,1,5.35,4.16c-2.19,24.73-17.44,120-122.22,168.91-12.6,16.59-24.73,34.05-36.33,52,40.07-31.31,96.21-46,142.88-34.73a4.06,4.06,0,0,1,2.36,6.38c-13.41,17.76-66.76,77.65-167.27,63.93-17,28.63-32.55,57.65-46.37,85.39,43.41-32.83,106.82-45.41,156-28.88a4.11,4.11,0,0,1,1.79,6.68c-15.28,16.44-74.11,70.42-170.84,49-9.07,19.16-22.59,50.67-29.19,66.24-2.27,5.36-4.36,10.77-6.22,16.28-4.28,12.68-10.05,28.5-16.92,44.34a17.94,17.94,0,0,0,10.55,24,394.41,394.41,0,0,0,237.34,8.8,17.83,17.83,0,0,0,11.59-10.29c1.63-3.86,3.24-7.52,3.24-7.52S701.42,800,706.39,765.83a90.4,90.4,0,0,1,9.88-30.78,32.18,32.18,0,0,1,26.45-16.62c25.71-1.36,80.46-4.95,100.38-11.26,26.47-8.41,15-56.63,13.57-61.82s12.74-17.28,15.65-24.33-7.16-9.47-11.27-17.22,10.21-13.3,12.25-20.33-4.66-14.75-7.37-19.94a42.82,42.82,0,0,1-3.76-11.7s19.37-14.18,29.66-23.13,8.38-16.32,8.35-18.06"/><polygon class="cls-2" points="1611.91 717.38 1611.91 503.01 1534.37 659.1 1488.76 659.1 1411.22 503.01 1411.22 717.38 1328.1 717.38 1328.1 357.56 1418.31 357.56 1511.57 545.58 1605.32 357.56 1695.02 357.56 1695.02 717.38 1611.91 717.38"/><polygon class="cls-2" points="2067.51 644.4 2067.51 717.38 1814.62 717.38 1814.62 357.56 2062.95 357.56 2062.95 430.53 1897.73 430.53 1897.73 500.47 2039.63 500.47 2039.63 567.87 1897.73 567.87 1897.73 644.4 2067.51 644.4"/><polygon class="cls-2" points="2443.04 430.53 2333.58 430.53 2333.58 717.38 2250.46 717.38 2250.46 430.53 2140.49 430.53 2140.49 357.56 2443.04 357.56 2443.04 430.53"/><rect class="cls-2" x="2534.26" y="357.56" width="83.12" height="359.82"/><path class="cls-2" d="M2952.86,463.47q-1.52-2.52-10.64-7.85a235.81,235.81,0,0,0-22.8-11.4,219,219,0,0,0-29.9-10.64,119,119,0,0,0-32.44-4.56q-21.28,0-32.94,7.3t-11.66,22.39q0,12.07,8.87,19.12t25.6,12.34q16.71,5.28,41.05,12.32,34.45,9.06,59.8,21.9t38.77,33Q3000,577.49,3000,610.7q0,30.21-11.15,51.09a92.7,92.7,0,0,1-30.16,33.72,130.61,130.61,0,0,1-43.33,18.61,215.88,215.88,0,0,1-50.17,5.79,284.8,284.8,0,0,1-54-5.32,303.71,303.71,0,0,1-53-15.2,242.84,242.84,0,0,1-46.62-24.07l36.49-72.47q2,2.53,13.18,9.37a239.77,239.77,0,0,0,27.62,14.19,256.81,256.81,0,0,0,36.74,12.92,153.53,153.53,0,0,0,41.05,5.58q22.29,0,33.2-6.95t10.89-19.35q0-13.61-11.4-21.17t-30.92-13.6q-19.52-6-44.85-13.61-33-10.08-54.48-22.68t-31.93-30.74q-10.38-18.15-10.38-45.37,0-37.8,18-63.75t48.39-39.31Q2823.64,355,2859.61,355a195.19,195.19,0,0,1,48.91,6.08,282.33,282.33,0,0,1,44.09,15.21q20.54,9.12,36.74,18.24Z"/></g></g></svg>
