<svg id="svg" version="1.1" xmlns="http://www.w3.org/2000/svg" xmlns:xlink="http://www.w3.org/1999/xlink" width="400" height="400" viewBox="0, 0, 400,400"><g id="svgg"><path id="path0" d="M104.414 101.974 C 104.139 102.488,104.000 113.375,104.000 134.494 C 104.000 158.652,103.885 166.355,103.520 166.720 C 103.166 167.074,99.505 167.200,89.534 167.200 C 76.591 167.200,76.011 167.232,75.614 167.974 C 74.971 169.176,75.074 179.798,75.735 180.346 C 76.097 180.647,80.689 180.823,90.035 180.895 L 103.800 181.000 103.904 200.354 C 103.980 214.476,103.884 219.858,103.548 220.262 C 103.173 220.715,100.615 220.811,89.537 220.789 C 82.083 220.775,75.808 220.872,75.592 221.005 C 75.000 221.371,75.081 232.921,75.680 233.520 C 76.034 233.874,79.687 234.000,89.631 234.000 C 100.356 234.000,103.192 234.109,103.544 234.532 C 103.856 234.908,104.017 244.307,104.093 266.547 C 104.186 294.017,104.276 298.078,104.800 298.409 C 106.256 299.328,127.101 298.877,127.777 297.911 C 128.328 297.125,128.400 293.443,128.400 266.140 C 128.400 238.598,128.468 235.189,129.029 234.629 C 130.040 233.617,163.934 233.684,165.149 234.700 C 165.859 235.293,168.169 241.030,171.068 249.400 C 171.372 250.280,171.799 251.360,172.017 251.800 C 172.234 252.240,172.580 253.140,172.786 253.800 C 172.992 254.460,173.629 256.260,174.202 257.800 C 175.348 260.881,176.940 265.316,177.793 267.800 C 178.927 271.104,179.633 273.024,180.000 273.800 C 180.208 274.240,180.628 275.320,180.933 276.200 C 186.304 291.679,189.017 298.257,190.159 298.563 C 191.255 298.858,208.745 298.858,209.841 298.563 C 210.983 298.257,213.696 291.679,219.067 276.200 C 219.372 275.320,219.792 274.240,220.000 273.800 C 220.208 273.360,220.661 272.190,221.006 271.200 C 221.352 270.210,222.087 268.140,222.639 266.600 C 223.192 265.060,223.889 263.080,224.189 262.200 C 224.488 261.320,225.207 259.340,225.787 257.800 C 226.366 256.260,227.008 254.460,227.214 253.800 C 227.420 253.140,227.766 252.240,227.983 251.800 C 228.201 251.360,228.628 250.280,228.932 249.400 C 231.831 241.030,234.141 235.293,234.851 234.700 C 236.066 233.684,269.960 233.617,270.971 234.629 C 271.532 235.189,271.600 238.598,271.600 266.140 C 271.600 293.443,271.672 297.125,272.223 297.911 C 272.899 298.877,293.744 299.328,295.200 298.409 C 295.724 298.078,295.814 294.017,295.907 266.547 C 295.983 244.307,296.144 234.908,296.456 234.532 C 296.808 234.109,299.644 234.000,310.369 234.000 C 320.313 234.000,323.966 233.874,324.320 233.520 C 324.919 232.921,325.000 221.371,324.408 221.005 C 324.192 220.872,317.917 220.775,310.463 220.789 C 299.385 220.811,296.827 220.715,296.452 220.262 C 296.116 219.858,296.020 214.476,296.096 200.354 L 296.200 181.000 309.965 180.895 C 319.311 180.823,323.903 180.647,324.265 180.346 C 324.926 179.798,325.029 169.176,324.386 167.974 C 323.989 167.232,323.409 167.200,310.466 167.200 C 300.495 167.200,296.834 167.074,296.480 166.720 C 296.115 166.355,296.000 158.652,296.000 134.494 C 296.000 113.375,295.861 102.488,295.586 101.974 C 294.947 100.779,262.117 100.765,261.037 101.959 C 260.412 102.650,258.795 106.504,257.413 110.600 C 257.116 111.480,256.484 113.190,256.008 114.400 C 255.072 116.783,254.561 118.182,252.062 125.200 C 251.162 127.730,250.047 130.790,249.584 132.000 C 248.697 134.323,247.700 137.020,246.627 140.000 C 246.270 140.990,245.817 142.160,245.620 142.600 C 245.423 143.040,244.235 146.280,242.981 149.800 C 241.727 153.320,240.264 157.370,239.730 158.800 C 239.197 160.230,238.607 161.850,238.420 162.400 C 237.476 165.173,236.703 166.457,235.763 166.814 C 233.515 167.669,164.215 167.300,163.426 166.429 C 163.043 166.005,162.021 163.710,161.157 161.329 C 160.292 158.948,159.426 156.640,159.232 156.200 C 158.935 155.527,156.644 149.216,153.570 140.600 C 153.177 139.500,152.467 137.610,151.992 136.400 C 151.516 135.190,150.881 133.480,150.580 132.600 C 150.279 131.720,149.562 129.740,148.987 128.200 C 147.991 125.530,146.613 121.665,145.422 118.200 C 145.120 117.320,144.480 115.610,144.000 114.400 C 143.520 113.190,142.884 111.480,142.587 110.600 C 141.205 106.504,139.588 102.650,138.963 101.959 C 137.883 100.765,105.053 100.779,104.414 101.974 M131.462 141.122 C 131.996 142.595,132.679 144.520,132.980 145.400 C 133.281 146.280,133.920 147.990,134.400 149.200 C 134.880 150.410,135.519 152.120,135.820 153.000 C 136.120 153.880,136.929 156.130,137.617 158.000 C 138.305 159.870,139.049 162.030,139.271 162.800 C 139.493 163.570,139.838 164.371,140.037 164.580 C 140.733 165.308,140.403 166.419,139.374 166.810 C 137.640 167.469,130.322 167.301,129.289 166.577 L 128.400 165.955 128.400 151.444 C 128.400 134.546,128.707 133.512,131.462 141.122 M271.600 151.401 L 271.600 165.955 270.711 166.577 C 269.678 167.301,262.360 167.469,260.626 166.810 C 259.597 166.419,259.267 165.308,259.963 164.580 C 260.162 164.371,260.507 163.570,260.729 162.800 C 260.951 162.030,261.695 159.870,262.383 158.000 C 263.071 156.130,263.880 153.880,264.180 153.000 C 264.481 152.120,265.116 150.410,265.592 149.200 C 266.680 146.430,267.879 143.123,268.631 140.816 C 269.300 138.762,270.827 136.370,271.287 136.654 C 271.459 136.760,271.600 143.396,271.600 151.401 M145.706 181.300 C 146.260 181.721,148.129 186.480,152.030 197.400 C 152.422 198.500,153.129 200.390,153.600 201.600 C 154.546 204.030,155.756 207.343,156.596 209.800 C 156.897 210.680,157.707 212.930,158.396 214.800 C 160.158 219.581,160.148 219.539,159.598 220.202 C 159.005 220.916,131.261 221.107,129.426 220.410 L 128.400 220.020 128.400 200.643 C 128.400 185.516,128.510 181.222,128.900 181.065 C 130.069 180.593,145.051 180.803,145.706 181.300 M230.750 181.161 C 231.208 181.451,231.164 181.902,230.489 183.855 C 229.180 187.642,228.404 189.746,228.000 190.600 C 227.792 191.040,227.373 192.120,227.068 193.000 C 226.764 193.880,225.024 198.650,223.202 203.600 C 221.379 208.550,219.572 213.500,219.186 214.600 C 216.802 221.384,218.629 220.800,199.800 220.800 C 181.608 220.800,183.126 221.113,181.596 217.052 C 180.922 215.263,180.128 213.170,179.830 212.400 C 179.533 211.630,179.013 210.280,178.674 209.400 C 178.108 207.932,174.248 197.170,172.936 193.400 C 172.629 192.520,172.201 191.440,171.983 191.000 C 171.766 190.560,171.423 189.660,171.221 189.000 C 171.020 188.340,170.326 186.418,169.679 184.729 C 168.842 182.544,168.626 181.534,168.931 181.229 C 169.461 180.699,229.916 180.632,230.750 181.161 M270.967 181.043 C 271.532 181.260,271.600 183.361,271.600 200.653 L 271.600 220.020 270.574 220.410 C 268.739 221.107,240.995 220.916,240.402 220.202 C 239.852 219.539,239.842 219.581,241.604 214.800 C 242.293 212.930,243.103 210.680,243.404 209.800 C 244.244 207.343,245.454 204.030,246.400 201.600 C 246.871 200.390,247.578 198.500,247.970 197.400 C 251.871 186.480,253.740 181.721,254.294 181.300 C 254.985 180.776,269.680 180.549,270.967 181.043 M210.567 234.243 C 211.373 234.552,211.396 236.615,210.611 238.120 C 210.289 238.736,209.850 239.816,209.635 240.520 C 206.073 252.178,200.180 265.955,199.189 264.941 C 198.848 264.592,198.691 264.179,196.013 256.600 C 195.158 254.180,193.985 250.940,193.407 249.400 C 192.829 247.860,192.180 246.024,191.965 245.320 C 191.750 244.616,191.311 243.536,190.989 242.920 C 190.668 242.304,190.404 241.593,190.402 241.340 C 190.401 241.087,189.952 239.917,189.404 238.740 C 188.301 236.372,188.158 235.202,188.880 234.480 C 189.388 233.972,209.295 233.755,210.567 234.243 " stroke="none" fill="#fbf7f7" fill-rule="evenodd"></path><path id="path1" d="M167.600 0.400 C 167.600 0.632,166.296 0.802,164.500 0.805 C 160.873 0.812,159.600 1.082,159.600 1.847 C 159.600 2.265,158.917 2.400,156.796 2.400 C 154.487 2.400,153.871 2.541,153.307 3.200 C 152.769 3.829,152.127 4.000,150.311 4.000 C 148.533 4.000,147.815 4.185,147.200 4.800 C 146.623 5.377,145.867 5.600,144.485 5.600 C 143.359 5.600,141.922 5.930,141.000 6.400 C 140.137 6.840,138.749 7.200,137.915 7.200 C 136.933 7.200,136.118 7.482,135.600 8.000 C 135.066 8.534,134.267 8.800,133.196 8.800 C 132.087 8.800,131.381 9.047,130.907 9.600 C 130.497 10.080,129.727 10.400,128.987 10.400 C 128.304 10.400,127.367 10.758,126.892 11.200 C 126.420 11.640,125.576 12.000,125.017 12.000 C 124.458 12.000,123.640 12.360,123.200 12.800 C 122.757 13.243,121.867 13.600,121.203 13.600 C 120.440 13.600,119.826 13.890,119.507 14.400 C 119.182 14.921,118.574 15.200,117.766 15.200 C 117.032 15.200,116.228 15.527,115.800 16.000 C 115.399 16.443,114.568 16.800,113.938 16.800 C 113.312 16.800,112.465 17.135,112.055 17.545 C 111.645 17.955,110.655 18.413,109.855 18.563 C 108.974 18.729,108.400 19.066,108.400 19.418 C 108.400 19.772,108.008 20.000,107.400 20.000 C 106.850 20.000,106.040 20.360,105.600 20.800 C 105.160 21.240,104.558 21.600,104.262 21.600 C 103.966 21.600,103.398 21.960,103.000 22.400 C 102.602 22.840,101.837 23.200,101.301 23.200 C 100.662 23.200,100.253 23.476,100.116 24.000 C 99.980 24.519,99.570 24.800,98.949 24.800 C 98.423 24.800,97.684 25.160,97.307 25.600 C 96.930 26.040,96.302 26.400,95.911 26.400 C 95.520 26.400,94.840 26.760,94.400 27.200 C 93.960 27.640,93.313 28.000,92.963 28.000 C 92.612 28.000,92.231 28.360,92.116 28.800 C 91.969 29.362,91.570 29.600,90.776 29.600 C 90.142 29.600,89.416 29.919,89.123 30.326 C 88.835 30.726,88.285 31.170,87.900 31.314 C 87.515 31.457,87.200 31.851,87.200 32.187 C 87.200 32.533,86.852 32.800,86.400 32.800 C 85.960 32.800,85.240 33.160,84.800 33.600 C 84.360 34.040,83.713 34.400,83.363 34.400 C 83.012 34.400,82.631 34.760,82.516 35.200 C 82.401 35.640,81.996 36.000,81.615 36.000 C 81.235 36.000,80.598 36.360,80.200 36.800 C 79.802 37.240,79.244 37.600,78.961 37.600 C 78.677 37.600,78.210 37.927,77.923 38.326 C 77.635 38.726,77.085 39.170,76.700 39.314 C 76.315 39.457,76.000 39.851,76.000 40.187 C 76.000 40.524,75.738 40.800,75.418 40.800 C 75.098 40.800,74.358 41.230,73.773 41.755 C 71.691 43.622,71.195 44.000,70.823 44.000 C 70.615 44.000,70.210 44.327,69.923 44.726 C 69.635 45.126,69.085 45.570,68.700 45.714 C 68.315 45.857,68.000 46.251,68.000 46.587 C 68.000 46.924,67.713 47.200,67.363 47.200 C 67.012 47.200,66.631 47.560,66.516 48.000 C 66.400 48.443,65.970 48.800,65.553 48.800 C 65.067 48.800,64.800 49.083,64.800 49.600 C 64.800 50.133,64.533 50.400,64.000 50.400 C 63.467 50.400,63.200 50.667,63.200 51.200 C 63.200 51.733,62.933 52.000,62.400 52.000 C 61.867 52.000,61.600 52.267,61.600 52.800 C 61.600 53.261,61.333 53.600,60.971 53.600 C 60.152 53.600,53.600 60.152,53.600 60.971 C 53.600 61.333,53.261 61.600,52.800 61.600 C 52.267 61.600,52.000 61.867,52.000 62.400 C 52.000 62.933,51.733 63.200,51.200 63.200 C 50.683 63.200,50.400 63.467,50.400 63.953 C 50.400 64.370,50.043 64.800,49.600 64.916 C 49.160 65.031,48.800 65.391,48.800 65.716 C 48.800 66.041,48.440 66.401,48.000 66.516 C 47.560 66.631,47.200 67.012,47.200 67.363 C 47.200 67.713,46.924 68.000,46.587 68.000 C 46.251 68.000,45.857 68.315,45.714 68.700 C 45.570 69.085,45.126 69.635,44.726 69.923 C 44.327 70.210,44.000 70.615,44.000 70.823 C 44.000 71.030,43.640 71.560,43.200 72.000 C 42.760 72.440,42.400 73.139,42.400 73.553 C 42.400 73.970,42.043 74.400,41.600 74.516 C 41.160 74.631,40.800 75.012,40.800 75.363 C 40.800 75.713,40.524 76.000,40.187 76.000 C 39.851 76.000,39.457 76.315,39.314 76.700 C 39.170 77.085,38.726 77.635,38.326 77.923 C 37.927 78.210,37.600 78.615,37.600 78.823 C 37.600 79.030,37.240 79.560,36.800 80.000 C 36.360 80.440,36.000 81.139,36.000 81.553 C 36.000 81.970,35.643 82.400,35.200 82.516 C 34.760 82.631,34.400 83.012,34.400 83.363 C 34.400 83.713,34.040 84.360,33.600 84.800 C 33.160 85.240,32.800 85.960,32.800 86.400 C 32.800 86.852,32.533 87.200,32.187 87.200 C 31.851 87.200,31.462 87.515,31.323 87.900 C 31.185 88.285,30.741 88.922,30.336 89.316 C 29.931 89.709,29.600 90.453,29.600 90.969 C 29.600 91.570,29.313 91.982,28.800 92.116 C 28.360 92.231,28.000 92.612,28.000 92.963 C 28.000 93.313,27.640 93.960,27.200 94.400 C 26.760 94.840,26.400 95.661,26.400 96.224 C 26.400 96.787,26.229 97.142,26.020 97.012 C 25.561 96.728,24.800 98.047,24.800 99.127 C 24.800 99.570,24.455 99.997,24.000 100.116 C 23.394 100.275,23.200 100.662,23.200 101.716 C 23.200 102.770,23.006 103.157,22.400 103.316 C 21.884 103.451,21.600 103.862,21.600 104.474 C 21.600 104.996,21.240 105.683,20.800 106.000 C 20.360 106.317,20.000 106.897,20.000 107.288 C 20.000 107.680,19.640 108.360,19.200 108.800 C 18.760 109.240,18.400 109.960,18.400 110.400 C 18.400 110.840,18.040 111.560,17.600 112.000 C 17.160 112.440,16.800 113.258,16.800 113.817 C 16.800 114.376,16.440 115.220,16.000 115.692 C 15.560 116.164,15.200 117.104,15.200 117.779 C 15.200 118.574,14.918 119.184,14.400 119.507 C 13.890 119.826,13.600 120.440,13.600 121.203 C 13.600 121.867,13.243 122.757,12.800 123.200 C 12.275 123.725,12.000 124.533,12.000 125.553 C 12.000 126.770,11.827 127.152,11.200 127.316 C 10.600 127.473,10.400 127.862,10.400 128.874 C 10.400 129.727,10.106 130.474,9.600 130.907 C 9.047 131.381,8.800 132.087,8.800 133.196 C 8.800 134.267,8.534 135.066,8.000 135.600 C 7.482 136.118,7.200 136.933,7.200 137.915 C 7.200 138.749,6.840 140.137,6.400 141.000 C 5.930 141.922,5.600 143.359,5.600 144.485 C 5.600 145.867,5.377 146.623,4.800 147.200 C 4.164 147.836,4.000 148.533,4.000 150.600 C 4.000 152.547,3.861 153.200,3.447 153.200 C 2.743 153.200,2.412 154.439,2.405 157.100 C 2.401 158.662,2.195 159.405,1.600 160.000 C 0.925 160.675,0.800 161.333,0.800 164.200 C 0.800 166.200,0.635 167.600,0.400 167.600 C 0.137 167.600,0.000 178.667,0.000 200.000 C 0.000 221.333,0.137 232.400,0.400 232.400 C 0.635 232.400,0.800 233.800,0.800 235.800 C 0.800 238.667,0.925 239.325,1.600 240.000 C 2.195 240.595,2.401 241.338,2.405 242.900 C 2.412 245.561,2.743 246.800,3.447 246.800 C 3.861 246.800,4.000 247.453,4.000 249.400 C 4.000 251.467,4.164 252.164,4.800 252.800 C 5.377 253.377,5.600 254.133,5.600 255.515 C 5.600 256.641,5.930 258.078,6.400 259.000 C 6.840 259.863,7.200 261.251,7.200 262.085 C 7.200 263.067,7.482 263.882,8.000 264.400 C 8.534 264.934,8.800 265.733,8.800 266.804 C 8.800 267.913,9.047 268.619,9.600 269.093 C 10.106 269.526,10.400 270.273,10.400 271.126 C 10.400 272.138,10.600 272.527,11.200 272.684 C 11.827 272.848,12.000 273.230,12.000 274.447 C 12.000 275.467,12.275 276.275,12.800 276.800 C 13.243 277.243,13.600 278.133,13.600 278.797 C 13.600 279.560,13.890 280.174,14.400 280.493 C 14.918 280.816,15.200 281.426,15.200 282.221 C 15.200 282.896,15.560 283.836,16.000 284.308 C 16.440 284.780,16.800 285.624,16.800 286.183 C 16.800 286.742,17.160 287.560,17.600 288.000 C 18.040 288.440,18.400 289.160,18.400 289.600 C 18.400 290.040,18.760 290.760,19.200 291.200 C 19.640 291.640,20.000 292.320,20.000 292.712 C 20.000 293.103,20.360 293.683,20.800 294.000 C 21.240 294.317,21.600 295.004,21.600 295.526 C 21.600 296.138,21.884 296.549,22.400 296.684 C 23.006 296.843,23.200 297.230,23.200 298.284 C 23.200 299.338,23.394 299.725,24.000 299.884 C 24.455 300.003,24.800 300.430,24.800 300.873 C 24.800 301.953,25.561 303.272,26.020 302.988 C 26.229 302.858,26.400 303.213,26.400 303.776 C 26.400 304.339,26.760 305.160,27.200 305.600 C 27.640 306.040,28.000 306.687,28.000 307.037 C 28.000 307.388,28.360 307.769,28.800 307.884 C 29.313 308.018,29.600 308.430,29.600 309.031 C 29.600 309.547,29.931 310.291,30.336 310.684 C 30.741 311.078,31.185 311.715,31.323 312.100 C 31.462 312.485,31.851 312.800,32.187 312.800 C 32.533 312.800,32.800 313.148,32.800 313.600 C 32.800 314.040,33.160 314.760,33.600 315.200 C 34.040 315.640,34.400 316.287,34.400 316.637 C 34.400 316.988,34.760 317.369,35.200 317.484 C 35.643 317.600,36.000 318.030,36.000 318.447 C 36.000 318.861,36.360 319.560,36.800 320.000 C 37.240 320.440,37.600 320.970,37.600 321.177 C 37.600 321.385,37.927 321.790,38.326 322.077 C 38.726 322.365,39.170 322.915,39.314 323.300 C 39.457 323.685,39.851 324.000,40.187 324.000 C 40.524 324.000,40.800 324.287,40.800 324.637 C 40.800 324.988,41.160 325.369,41.600 325.484 C 42.043 325.600,42.400 326.030,42.400 326.447 C 42.400 326.861,42.760 327.560,43.200 328.000 C 43.640 328.440,44.000 328.970,44.000 329.177 C 44.000 329.385,44.327 329.790,44.726 330.077 C 45.126 330.365,45.570 330.915,45.714 331.300 C 45.857 331.685,46.251 332.000,46.587 332.000 C 46.924 332.000,47.200 332.287,47.200 332.637 C 47.200 332.988,47.560 333.369,48.000 333.484 C 48.440 333.599,48.800 333.959,48.800 334.284 C 48.800 334.609,49.160 334.969,49.600 335.084 C 50.043 335.200,50.400 335.630,50.400 336.047 C 50.400 336.533,50.683 336.800,51.200 336.800 C 51.733 336.800,52.000 337.067,52.000 337.600 C 52.000 338.133,52.267 338.400,52.800 338.400 C 53.261 338.400,53.600 338.667,53.600 339.029 C 53.600 339.848,60.152 346.400,60.971 346.400 C 61.333 346.400,61.600 346.739,61.600 347.200 C 61.600 347.733,61.867 348.000,62.400 348.000 C 62.933 348.000,63.200 348.267,63.200 348.800 C 63.200 349.333,63.467 349.600,64.000 349.600 C 64.533 349.600,64.800 349.867,64.800 350.400 C 64.800 350.933,65.067 351.200,65.600 351.200 C 66.065 351.200,66.400 351.467,66.400 351.837 C 66.400 352.188,66.760 352.569,67.200 352.684 C 67.640 352.799,68.000 353.148,68.000 353.459 C 68.000 353.770,68.315 354.143,68.700 354.286 C 69.085 354.430,69.635 354.874,69.923 355.274 C 70.210 355.673,70.615 356.000,70.823 356.000 C 71.195 356.000,71.691 356.378,73.773 358.245 C 74.358 358.770,75.098 359.200,75.418 359.200 C 75.738 359.200,76.000 359.476,76.000 359.813 C 76.000 360.149,76.315 360.543,76.700 360.686 C 77.085 360.830,77.635 361.274,77.923 361.674 C 78.210 362.073,78.677 362.400,78.961 362.400 C 79.244 362.400,79.802 362.760,80.200 363.200 C 80.598 363.640,81.235 364.000,81.615 364.000 C 81.996 364.000,82.401 364.360,82.516 364.800 C 82.631 365.240,83.012 365.600,83.363 365.600 C 83.713 365.600,84.360 365.960,84.800 366.400 C 85.240 366.840,85.960 367.200,86.400 367.200 C 86.852 367.200,87.200 367.467,87.200 367.813 C 87.200 368.149,87.515 368.543,87.900 368.686 C 88.285 368.830,88.835 369.274,89.123 369.674 C 89.416 370.081,90.142 370.400,90.776 370.400 C 91.570 370.400,91.969 370.638,92.116 371.200 C 92.231 371.640,92.612 372.000,92.963 372.000 C 93.313 372.000,93.960 372.360,94.400 372.800 C 94.840 373.240,95.520 373.600,95.911 373.600 C 96.302 373.600,96.930 373.960,97.307 374.400 C 97.684 374.840,98.423 375.200,98.949 375.200 C 99.570 375.200,99.980 375.481,100.116 376.000 C 100.253 376.524,100.662 376.800,101.301 376.800 C 101.837 376.800,102.602 377.160,103.000 377.600 C 103.398 378.040,103.966 378.400,104.262 378.400 C 104.558 378.400,105.160 378.760,105.600 379.200 C 106.040 379.640,106.850 380.000,107.400 380.000 C 108.008 380.000,108.400 380.228,108.400 380.582 C 108.400 380.934,108.974 381.271,109.855 381.437 C 110.655 381.587,111.645 382.045,112.055 382.455 C 112.465 382.865,113.312 383.200,113.938 383.200 C 114.568 383.200,115.399 383.557,115.800 384.000 C 116.228 384.473,117.032 384.800,117.766 384.800 C 118.574 384.800,119.182 385.079,119.507 385.600 C 119.826 386.110,120.440 386.400,121.203 386.400 C 121.867 386.400,122.757 386.757,123.200 387.200 C 123.640 387.640,124.458 388.000,125.017 388.000 C 125.576 388.000,126.420 388.360,126.892 388.800 C 127.367 389.242,128.304 389.600,128.987 389.600 C 129.727 389.600,130.497 389.920,130.907 390.400 C 131.381 390.953,132.087 391.200,133.196 391.200 C 134.267 391.200,135.066 391.466,135.600 392.000 C 136.118 392.518,136.933 392.800,137.915 392.800 C 138.749 392.800,140.137 393.160,141.000 393.600 C 141.922 394.070,143.359 394.400,144.485 394.400 C 145.867 394.400,146.623 394.623,147.200 395.200 C 147.815 395.815,148.533 396.000,150.311 396.000 C 152.127 396.000,152.769 396.171,153.307 396.800 C 153.871 397.459,154.487 397.600,156.796 397.600 C 158.917 397.600,159.600 397.735,159.600 398.153 C 159.600 398.918,160.873 399.188,164.500 399.195 C 166.296 399.198,167.600 399.368,167.600 399.600 C 167.600 399.863,178.667 400.000,200.000 400.000 C 221.333 400.000,232.400 399.863,232.400 399.600 C 232.400 399.368,233.704 399.198,235.500 399.195 C 239.127 399.188,240.400 398.918,240.400 398.153 C 240.400 397.735,241.083 397.600,243.204 397.600 C 245.513 397.600,246.129 397.459,246.693 396.800 C 247.231 396.171,247.873 396.000,249.689 396.000 C 251.467 396.000,252.185 395.815,252.800 395.200 C 253.377 394.623,254.133 394.400,255.515 394.400 C 256.641 394.400,258.078 394.070,259.000 393.600 C 259.863 393.160,261.251 392.800,262.085 392.800 C 263.067 392.800,263.882 392.518,264.400 392.000 C 264.934 391.466,265.733 391.200,266.804 391.200 C 267.913 391.200,268.619 390.953,269.093 390.400 C 269.503 389.920,270.273 389.600,271.013 389.600 C 271.696 389.600,272.633 389.242,273.108 388.800 C 273.580 388.360,274.424 388.000,274.983 388.000 C 275.542 388.000,276.360 387.640,276.800 387.200 C 277.243 386.757,278.133 386.400,278.797 386.400 C 279.560 386.400,280.174 386.110,280.493 385.600 C 280.818 385.079,281.426 384.800,282.234 384.800 C 282.968 384.800,283.772 384.473,284.200 384.000 C 284.601 383.557,285.432 383.200,286.062 383.200 C 286.688 383.200,287.535 382.865,287.945 382.455 C 288.355 382.045,289.345 381.587,290.145 381.437 C 291.026 381.271,291.600 380.934,291.600 380.582 C 291.600 380.228,291.992 380.000,292.600 380.000 C 293.150 380.000,293.960 379.640,294.400 379.200 C 294.840 378.760,295.442 378.400,295.738 378.400 C 296.034 378.400,296.602 378.040,297.000 377.600 C 297.398 377.160,298.163 376.800,298.699 376.800 C 299.338 376.800,299.747 376.524,299.884 376.000 C 300.020 375.481,300.430 375.200,301.051 375.200 C 301.577 375.200,302.316 374.840,302.693 374.400 C 303.070 373.960,303.698 373.600,304.089 373.600 C 304.480 373.600,305.160 373.240,305.600 372.800 C 306.040 372.360,306.687 372.000,307.037 372.000 C 307.388 372.000,307.769 371.640,307.884 371.200 C 308.031 370.638,308.430 370.400,309.224 370.400 C 309.858 370.400,310.584 370.081,310.877 369.674 C 311.165 369.274,311.715 368.830,312.100 368.686 C 312.485 368.543,312.800 368.149,312.800 367.813 C 312.800 367.467,313.148 367.200,313.600 367.200 C 314.040 367.200,314.760 366.840,315.200 366.400 C 315.640 365.960,316.287 365.600,316.637 365.600 C 316.988 365.600,317.369 365.240,317.484 364.800 C 317.599 364.360,318.004 364.000,318.385 364.000 C 318.765 364.000,319.402 363.640,319.800 363.200 C 320.198 362.760,320.756 362.400,321.039 362.400 C 321.323 362.400,321.790 362.073,322.077 361.674 C 322.365 361.274,322.915 360.830,323.300 360.686 C 323.685 360.543,324.000 360.149,324.000 359.813 C 324.000 359.476,324.262 359.200,324.582 359.200 C 324.902 359.200,325.642 358.770,326.227 358.245 C 328.309 356.378,328.805 356.000,329.177 356.000 C 329.385 356.000,329.790 355.673,330.077 355.274 C 330.365 354.874,330.915 354.430,331.300 354.286 C 331.685 354.143,332.000 353.770,332.000 353.459 C 332.000 353.148,332.360 352.799,332.800 352.684 C 333.240 352.569,333.600 352.188,333.600 351.837 C 333.600 351.467,333.935 351.200,334.400 351.200 C 334.933 351.200,335.200 350.933,335.200 350.400 C 335.200 349.867,335.467 349.600,336.000 349.600 C 336.533 349.600,336.800 349.333,336.800 348.800 C 336.800 348.267,337.067 348.000,337.600 348.000 C 338.133 348.000,338.400 347.733,338.400 347.200 C 338.400 346.739,338.667 346.400,339.029 346.400 C 339.848 346.400,346.400 339.848,346.400 339.029 C 346.400 338.667,346.739 338.400,347.200 338.400 C 347.733 338.400,348.000 338.133,348.000 337.600 C 348.000 337.067,348.267 336.800,348.800 336.800 C 349.317 336.800,349.600 336.533,349.600 336.047 C 349.600 335.630,349.957 335.200,350.400 335.084 C 350.840 334.969,351.200 334.609,351.200 334.284 C 351.200 333.959,351.560 333.599,352.000 333.484 C 352.440 333.369,352.800 332.988,352.800 332.637 C 352.800 332.287,353.076 332.000,353.413 332.000 C 353.749 332.000,354.143 331.685,354.286 331.300 C 354.430 330.915,354.874 330.365,355.274 330.077 C 355.673 329.790,356.000 329.385,356.000 329.177 C 356.000 328.970,356.360 328.440,356.800 328.000 C 357.240 327.560,357.600 326.861,357.600 326.447 C 357.600 326.030,357.957 325.600,358.400 325.484 C 358.840 325.369,359.200 324.988,359.200 324.637 C 359.200 324.287,359.476 324.000,359.813 324.000 C 360.149 324.000,360.543 323.685,360.686 323.300 C 360.830 322.915,361.274 322.365,361.674 322.077 C 362.073 321.790,362.400 321.385,362.400 321.177 C 362.400 320.970,362.760 320.440,363.200 320.000 C 363.640 319.560,364.000 318.861,364.000 318.447 C 364.000 318.030,364.357 317.600,364.800 317.484 C 365.240 317.369,365.600 316.988,365.600 316.637 C 365.600 316.287,365.960 315.640,366.400 315.200 C 366.840 314.760,367.200 314.040,367.200 313.600 C 367.200 313.148,367.467 312.800,367.813 312.800 C 368.149 312.800,368.538 312.485,368.677 312.100 C 368.815 311.715,369.259 311.078,369.664 310.684 C 370.069 310.291,370.400 309.547,370.400 309.031 C 370.400 308.430,370.687 308.018,371.200 307.884 C 371.640 307.769,372.000 307.388,372.000 307.037 C 372.000 306.687,372.360 306.040,372.800 305.600 C 373.240 305.160,373.600 304.339,373.600 303.776 C 373.600 303.213,373.771 302.858,373.980 302.988 C 374.439 303.272,375.200 301.953,375.200 300.873 C 375.200 300.430,375.545 300.003,376.000 299.884 C 376.606 299.725,376.800 299.338,376.800 298.284 C 376.800 297.230,376.994 296.843,377.600 296.684 C 378.116 296.549,378.400 296.138,378.400 295.526 C 378.400 295.004,378.760 294.317,379.200 294.000 C 379.640 293.683,380.000 293.103,380.000 292.712 C 380.000 292.320,380.360 291.640,380.800 291.200 C 381.240 290.760,381.600 290.040,381.600 289.600 C 381.600 289.160,381.960 288.440,382.400 288.000 C 382.840 287.560,383.200 286.742,383.200 286.183 C 383.200 285.624,383.560 284.780,384.000 284.308 C 384.440 283.836,384.800 282.896,384.800 282.221 C 384.800 281.426,385.082 280.816,385.600 280.493 C 386.110 280.174,386.400 279.560,386.400 278.797 C 386.400 278.133,386.757 277.243,387.200 276.800 C 387.725 276.275,388.000 275.467,388.000 274.447 C 388.000 273.230,388.173 272.848,388.800 272.684 C 389.400 272.527,389.600 272.138,389.600 271.126 C 389.600 270.273,389.894 269.526,390.400 269.093 C 390.953 268.619,391.200 267.913,391.200 266.804 C 391.200 265.733,391.466 264.934,392.000 264.400 C 392.518 263.882,392.800 263.067,392.800 262.085 C 392.800 261.251,393.160 259.863,393.600 259.000 C 394.070 258.078,394.400 256.641,394.400 255.515 C 394.400 254.133,394.623 253.377,395.200 252.800 C 395.836 252.164,396.000 251.467,396.000 249.400 C 396.000 247.453,396.139 246.800,396.553 246.800 C 397.257 246.800,397.588 245.561,397.595 242.900 C 397.599 241.338,397.805 240.595,398.400 240.000 C 399.075 239.325,399.200 238.667,399.200 235.800 C 399.200 233.800,399.365 232.400,399.600 232.400 C 399.863 232.400,400.000 221.333,400.000 200.000 C 400.000 178.667,399.863 167.600,399.600 167.600 C 399.365 167.600,399.200 166.200,399.200 164.200 C 399.200 161.333,399.075 160.675,398.400 160.000 C 397.805 159.405,397.599 158.662,397.595 157.100 C 397.588 154.439,397.257 153.200,396.553 153.200 C 396.139 153.200,396.000 152.547,396.000 150.600 C 396.000 148.533,395.836 147.836,395.200 147.200 C 394.623 146.623,394.400 145.867,394.400 144.485 C 394.400 143.359,394.070 141.922,393.600 141.000 C 393.160 140.137,392.800 138.749,392.800 137.915 C 392.800 136.933,392.518 136.118,392.000 135.600 C 391.466 135.066,391.200 134.267,391.200 133.196 C 391.200 132.087,390.953 131.381,390.400 130.907 C 389.894 130.474,389.600 129.727,389.600 128.874 C 389.600 127.862,389.400 127.473,388.800 127.316 C 388.173 127.152,388.000 126.770,388.000 125.553 C 388.000 124.533,387.725 123.725,387.200 123.200 C 386.757 122.757,386.400 121.867,386.400 121.203 C 386.400 120.440,386.110 119.826,385.600 119.507 C 385.082 119.184,384.800 118.574,384.800 117.779 C 384.800 117.104,384.440 116.164,384.000 115.692 C 383.560 115.220,383.200 114.376,383.200 113.817 C 383.200 113.258,382.840 112.440,382.400 112.000 C 381.960 111.560,381.600 110.840,381.600 110.400 C 381.600 109.960,381.240 109.240,380.800 108.800 C 380.360 108.360,380.000 107.680,380.000 107.288 C 380.000 106.897,379.640 106.317,379.200 106.000 C 378.760 105.683,378.400 104.996,378.400 104.474 C 378.400 103.862,378.116 103.451,377.600 103.316 C 376.994 103.157,376.800 102.770,376.800 101.716 C 376.800 100.662,376.606 100.275,376.000 100.116 C 375.545 99.997,375.200 99.570,375.200 99.127 C 375.200 98.047,374.439 96.728,373.980 97.012 C 373.771 97.142,373.600 96.787,373.600 96.224 C 373.600 95.661,373.240 94.840,372.800 94.400 C 372.360 93.960,372.000 93.313,372.000 92.963 C 372.000 92.612,371.640 92.231,371.200 92.116 C 370.687 91.982,370.400 91.570,370.400 90.969 C 370.400 90.453,370.069 89.709,369.664 89.316 C 369.259 88.922,368.815 88.285,368.677 87.900 C 368.538 87.515,368.149 87.200,367.813 87.200 C 367.467 87.200,367.200 86.852,367.200 86.400 C 367.200 85.960,366.840 85.240,366.400 84.800 C 365.960 84.360,365.600 83.713,365.600 83.363 C 365.600 83.012,365.240 82.631,364.800 82.516 C 364.357 82.400,364.000 81.970,364.000 81.553 C 364.000 81.139,363.640 80.440,363.200 80.000 C 362.760 79.560,362.400 79.030,362.400 78.823 C 362.400 78.615,362.073 78.210,361.674 77.923 C 361.274 77.635,360.830 77.085,360.686 76.700 C 360.543 76.315,360.170 76.000,359.859 76.000 C 359.548 76.000,359.199 75.640,359.084 75.200 C 358.969 74.760,358.588 74.400,358.237 74.400 C 357.867 74.400,357.600 74.065,357.600 73.600 C 357.600 73.160,357.240 72.440,356.800 72.000 C 356.360 71.560,356.000 71.030,356.000 70.823 C 356.000 70.615,355.673 70.210,355.274 69.923 C 354.874 69.635,354.430 69.085,354.286 68.700 C 354.143 68.315,353.770 68.000,353.459 68.000 C 353.148 68.000,352.799 67.640,352.684 67.200 C 352.569 66.760,352.209 66.400,351.884 66.400 C 351.559 66.400,351.199 66.040,351.084 65.600 C 350.969 65.160,350.588 64.800,350.237 64.800 C 349.867 64.800,349.600 64.465,349.600 64.000 C 349.600 63.467,349.333 63.200,348.800 63.200 C 348.267 63.200,348.000 62.933,348.000 62.400 C 348.000 61.867,347.733 61.600,347.200 61.600 C 346.739 61.600,346.400 61.333,346.400 60.971 C 346.400 60.152,339.848 53.600,339.029 53.600 C 338.667 53.600,338.400 53.261,338.400 52.800 C 338.400 52.267,338.133 52.000,337.600 52.000 C 337.067 52.000,336.800 51.733,336.800 51.200 C 336.800 50.667,336.533 50.400,336.000 50.400 C 335.467 50.400,335.200 50.133,335.200 49.600 C 335.200 49.083,334.933 48.800,334.447 48.800 C 334.030 48.800,333.600 48.443,333.484 48.000 C 333.369 47.560,332.988 47.200,332.637 47.200 C 332.287 47.200,332.000 46.924,332.000 46.587 C 332.000 46.251,331.685 45.857,331.300 45.714 C 330.915 45.570,330.365 45.126,330.077 44.726 C 329.790 44.327,329.385 44.000,329.177 44.000 C 328.805 44.000,328.309 43.622,326.227 41.755 C 325.642 41.230,324.902 40.800,324.582 40.800 C 324.262 40.800,324.000 40.524,324.000 40.187 C 324.000 39.851,323.685 39.457,323.300 39.314 C 322.915 39.170,322.365 38.726,322.077 38.326 C 321.790 37.927,321.323 37.600,321.039 37.600 C 320.756 37.600,320.198 37.240,319.800 36.800 C 319.402 36.360,318.765 36.000,318.385 36.000 C 318.004 36.000,317.599 35.640,317.484 35.200 C 317.369 34.760,316.988 34.400,316.637 34.400 C 316.287 34.400,315.640 34.040,315.200 33.600 C 314.760 33.160,314.040 32.800,313.600 32.800 C 313.148 32.800,312.800 32.533,312.800 32.187 C 312.800 31.851,312.485 31.457,312.100 31.314 C 311.715 31.170,311.165 30.726,310.877 30.326 C 310.584 29.919,309.858 29.600,309.224 29.600 C 308.430 29.600,308.031 29.362,307.884 28.800 C 307.769 28.360,307.388 28.000,307.037 28.000 C 306.687 28.000,306.040 27.640,305.600 27.200 C 305.160 26.760,304.480 26.400,304.089 26.400 C 303.698 26.400,303.070 26.040,302.693 25.600 C 302.316 25.160,301.577 24.800,301.051 24.800 C 300.430 24.800,300.020 24.519,299.884 24.000 C 299.747 23.476,299.338 23.200,298.699 23.200 C 298.163 23.200,297.398 22.840,297.000 22.400 C 296.602 21.960,296.034 21.600,295.738 21.600 C 295.442 21.600,294.840 21.240,294.400 20.800 C 293.960 20.360,293.150 20.000,292.600 20.000 C 291.992 20.000,291.600 19.772,291.600 19.418 C 291.600 19.066,291.026 18.729,290.145 18.563 C 289.345 18.413,288.355 17.955,287.945 17.545 C 287.535 17.135,286.688 16.800,286.062 16.800 C 285.432 16.800,284.601 16.443,284.200 16.000 C 283.772 15.527,282.968 15.200,282.234 15.200 C 281.426 15.200,280.818 14.921,280.493 14.400 C 280.174 13.890,279.560 13.600,278.797 13.600 C 278.133 13.600,277.243 13.243,276.800 12.800 C 276.360 12.360,275.542 12.000,274.983 12.000 C 274.424 12.000,273.580 11.640,273.108 11.200 C 272.633 10.758,271.696 10.400,271.013 10.400 C 270.273 10.400,269.503 10.080,269.093 9.600 C 268.619 9.047,267.913 8.800,266.804 8.800 C 265.733 8.800,264.934 8.534,264.400 8.000 C 263.882 7.482,263.067 7.200,262.085 7.200 C 261.251 7.200,259.863 6.840,259.000 6.400 C 258.078 5.930,256.641 5.600,255.515 5.600 C 254.133 5.600,253.377 5.377,252.800 4.800 C 252.185 4.185,251.467 4.000,249.689 4.000 C 247.873 4.000,247.231 3.829,246.693 3.200 C 246.129 2.541,245.513 2.400,243.204 2.400 C 241.083 2.400,240.400 2.265,240.400 1.847 C 240.400 1.082,239.127 0.812,235.500 0.805 C 233.704 0.802,232.400 0.632,232.400 0.400 C 232.400 0.137,221.333 0.000,200.000 0.000 C 178.667 0.000,167.600 0.137,167.600 0.400 M138.963 101.959 C 139.588 102.650,141.205 106.504,142.587 110.600 C 142.884 111.480,143.520 113.190,144.000 114.400 C 144.480 115.610,145.120 117.320,145.422 118.200 C 146.613 121.665,147.991 125.530,148.987 128.200 C 149.562 129.740,150.279 131.720,150.580 132.600 C 150.881 133.480,151.516 135.190,151.992 136.400 C 152.467 137.610,153.177 139.500,153.570 140.600 C 156.644 149.216,158.935 155.527,159.232 156.200 C 159.426 156.640,160.292 158.948,161.157 161.329 C 162.021 163.710,163.043 166.005,163.426 166.429 C 164.215 167.300,233.515 167.669,235.763 166.814 C 236.703 166.457,237.476 165.173,238.420 162.400 C 238.607 161.850,239.197 160.230,239.730 158.800 C 240.264 157.370,241.727 153.320,242.981 149.800 C 244.235 146.280,245.423 143.040,245.620 142.600 C 245.817 142.160,246.270 140.990,246.627 140.000 C 247.700 137.020,248.697 134.323,249.584 132.000 C 250.047 130.790,251.162 127.730,252.062 125.200 C 254.561 118.182,255.072 116.783,256.008 114.400 C 256.484 113.190,257.116 111.480,257.413 110.600 C 258.795 106.504,260.412 102.650,261.037 101.959 C 262.117 100.765,294.947 100.779,295.586 101.974 C 295.861 102.488,296.000 113.375,296.000 134.494 C 296.000 158.652,296.115 166.355,296.480 166.720 C 296.834 167.074,300.495 167.200,310.466 167.200 C 323.409 167.200,323.989 167.232,324.386 167.974 C 325.029 169.176,324.926 179.798,324.265 180.346 C 323.903 180.647,319.311 180.823,309.965 180.895 L 296.200 181.000 296.096 200.354 C 296.020 214.476,296.116 219.858,296.452 220.262 C 296.827 220.715,299.385 220.811,310.463 220.789 C 317.917 220.775,324.192 220.872,324.408 221.005 C 325.000 221.371,324.919 232.921,324.320 233.520 C 323.966 233.874,320.313 234.000,310.369 234.000 C 299.644 234.000,296.808 234.109,296.456 234.532 C 296.144 234.908,295.983 244.307,295.907 266.547 C 295.814 294.017,295.724 298.078,295.200 298.409 C 293.744 299.328,272.899 298.877,272.223 297.911 C 271.672 297.125,271.600 293.443,271.600 266.140 C 271.600 238.598,271.532 235.189,270.971 234.629 C 269.960 233.617,236.066 233.684,234.851 234.700 C 234.141 235.293,231.831 241.030,228.932 249.400 C 228.628 250.280,228.201 251.360,227.983 251.800 C 227.766 252.240,227.420 253.140,227.214 253.800 C 227.008 254.460,226.366 256.260,225.787 257.800 C 225.207 259.340,224.488 261.320,224.189 262.200 C 223.889 263.080,223.192 265.060,222.639 266.600 C 222.087 268.140,221.352 270.210,221.006 271.200 C 220.661 272.190,220.208 273.360,220.000 273.800 C 219.792 274.240,219.372 275.320,219.067 276.200 C 213.696 291.679,210.983 298.257,209.841 298.563 C 208.745 298.858,191.255 298.858,190.159 298.563 C 189.017 298.257,186.304 291.679,180.933 276.200 C 180.628 275.320,180.208 274.240,180.000 273.800 C 179.633 273.024,178.927 271.104,177.793 267.800 C 176.940 265.316,175.348 260.881,174.202 257.800 C 173.629 256.260,172.992 254.460,172.786 253.800 C 172.580 253.140,172.234 252.240,172.017 251.800 C 171.799 251.360,171.372 250.280,171.068 249.400 C 168.169 241.030,165.859 235.293,165.149 234.700 C 163.934 233.684,130.040 233.617,129.029 234.629 C 128.468 235.189,128.400 238.598,128.400 266.140 C 128.400 293.443,128.328 297.125,127.777 297.911 C 127.101 298.877,106.256 299.328,104.800 298.409 C 104.276 298.078,104.186 294.017,104.093 266.547 C 104.017 244.307,103.856 234.908,103.544 234.532 C 103.192 234.109,100.356 234.000,89.631 234.000 C 79.687 234.000,76.034 233.874,75.680 233.520 C 75.081 232.921,75.000 221.371,75.592 221.005 C 75.808 220.872,82.083 220.775,89.537 220.789 C 100.615 220.811,103.173 220.715,103.548 220.262 C 103.884 219.858,103.980 214.476,103.904 200.354 L 103.800 181.000 90.035 180.895 C 80.689 180.823,76.097 180.647,75.735 180.346 C 75.074 179.798,74.971 169.176,75.614 167.974 C 76.011 167.232,76.591 167.200,89.534 167.200 C 99.505 167.200,103.166 167.074,103.520 166.720 C 103.885 166.355,104.000 158.652,104.000 134.494 C 104.000 113.375,104.139 102.488,104.414 101.974 C 105.053 100.779,137.883 100.765,138.963 101.959 M128.653 136.680 C 128.514 136.819,128.400 143.463,128.400 151.444 L 128.400 165.955 129.289 166.577 C 130.322 167.301,137.640 167.469,139.374 166.810 C 140.403 166.419,140.733 165.308,140.037 164.580 C 139.838 164.371,139.493 163.570,139.271 162.800 C 139.049 162.030,138.305 159.870,137.617 158.000 C 136.929 156.130,136.120 153.880,135.820 153.000 C 135.519 152.120,134.880 150.410,134.400 149.200 C 133.920 147.990,133.281 146.280,132.980 145.400 C 130.742 138.860,129.326 136.007,128.653 136.680 M270.093 137.746 C 269.609 138.453,268.951 139.834,268.631 140.816 C 267.879 143.123,266.680 146.430,265.592 149.200 C 265.116 150.410,264.481 152.120,264.180 153.000 C 263.880 153.880,263.071 156.130,262.383 158.000 C 261.695 159.870,260.951 162.030,260.729 162.800 C 260.507 163.570,260.162 164.371,259.963 164.580 C 259.267 165.308,259.597 166.419,260.626 166.810 C 262.360 167.469,269.678 167.301,270.711 166.577 L 271.600 165.955 271.600 151.401 C 271.600 136.233,271.535 135.642,270.093 137.746 M128.900 181.065 C 128.510 181.222,128.400 185.516,128.400 200.643 L 128.400 220.020 129.426 220.410 C 131.261 221.107,159.005 220.916,159.598 220.202 C 160.148 219.539,160.158 219.581,158.396 214.800 C 157.707 212.930,156.897 210.680,156.596 209.800 C 155.756 207.343,154.546 204.030,153.600 201.600 C 153.129 200.390,152.422 198.500,152.030 197.400 C 148.129 186.480,146.260 181.721,145.706 181.300 C 145.051 180.803,130.069 180.593,128.900 181.065 M168.931 181.229 C 168.626 181.534,168.842 182.544,169.679 184.729 C 170.326 186.418,171.020 188.340,171.221 189.000 C 171.423 189.660,171.766 190.560,171.983 191.000 C 172.201 191.440,172.629 192.520,172.936 193.400 C 174.248 197.170,178.108 207.932,178.674 209.400 C 179.013 210.280,179.533 211.630,179.830 212.400 C 180.128 213.170,180.922 215.263,181.596 217.052 C 183.126 221.113,181.608 220.800,199.800 220.800 C 218.629 220.800,216.802 221.384,219.186 214.600 C 219.572 213.500,221.379 208.550,223.202 203.600 C 225.024 198.650,226.764 193.880,227.068 193.000 C 227.373 192.120,227.792 191.040,228.000 190.600 C 228.404 189.746,229.180 187.642,230.489 183.855 C 231.164 181.902,231.208 181.451,230.750 181.161 C 229.916 180.632,169.461 180.699,168.931 181.229 M254.294 181.300 C 253.740 181.721,251.871 186.480,247.970 197.400 C 247.578 198.500,246.871 200.390,246.400 201.600 C 245.454 204.030,244.244 207.343,243.404 209.800 C 243.103 210.680,242.293 212.930,241.604 214.800 C 239.842 219.581,239.852 219.539,240.402 220.202 C 240.995 220.916,268.739 221.107,270.574 220.410 L 271.600 220.020 271.600 200.653 C 271.600 183.361,271.532 181.260,270.967 181.043 C 269.680 180.549,254.985 180.776,254.294 181.300 M188.880 234.480 C 188.158 235.202,188.301 236.372,189.404 238.740 C 189.952 239.917,190.401 241.087,190.402 241.340 C 190.404 241.593,190.668 242.304,190.989 242.920 C 191.311 243.536,191.750 244.616,191.965 245.320 C 192.180 246.024,192.829 247.860,193.407 249.400 C 193.985 250.940,195.158 254.180,196.013 256.600 C 198.691 264.179,198.848 264.592,199.189 264.941 C 200.180 265.955,206.073 252.178,209.635 240.520 C 209.850 239.816,210.289 238.736,210.611 238.120 C 211.396 236.615,211.373 234.552,210.567 234.243 C 209.295 233.755,189.388 233.972,188.880 234.480 " stroke="none" fill="#dc3434" fill-rule="evenodd"></path></g></svg>