<?xml version="1.0" encoding="UTF-8" standalone="no"?>
<!-- Created with Inkscape (http://www.inkscape.org/) -->

<svg
   width="271.96179mm"
   height="271.96176mm"
   viewBox="0 0 271.96179 271.96176"
   version="1.1"
   id="svg14445"
   inkscape:version="1.2.2 (1:1.2.2+202305151914+b0a8486541)"
   sodipodi:docname="aMaia.svg"
   xmlns:inkscape="http://www.inkscape.org/namespaces/inkscape"
   xmlns:sodipodi="http://sodipodi.sourceforge.net/DTD/sodipodi-0.dtd"
   xmlns:xlink="http://www.w3.org/1999/xlink"
   xmlns="http://www.w3.org/2000/svg"
   xmlns:svg="http://www.w3.org/2000/svg">
  <sodipodi:namedview
     id="namedview14447"
     pagecolor="#ffffff"
     bordercolor="#000000"
     borderopacity="0.25"
     inkscape:showpageshadow="2"
     inkscape:pageopacity="0.0"
     inkscape:pagecheckerboard="0"
     inkscape:deskcolor="#d1d1d1"
     inkscape:document-units="mm"
     showgrid="false"
     inkscape:zoom="0.19531951"
     inkscape:cx="450.54382"
     inkscape:cy="568.29959"
     inkscape:window-width="1280"
     inkscape:window-height="691"
     inkscape:window-x="2493"
     inkscape:window-y="178"
     inkscape:window-maximized="0"
     inkscape:current-layer="layer1" />
  <defs
     id="defs14442">
    <linearGradient
       inkscape:collect="always"
       xlink:href="#linearGradient1153"
       id="linearGradient1155"
       x1="-1480.8268"
       y1="1354.1462"
       x2="-636.93634"
       y2="2091.3047"
       gradientUnits="userSpaceOnUse"
       gradientTransform="matrix(2.292165,0,0,2.292165,-833.74739,-2725.0295)" />
    <linearGradient
       inkscape:collect="always"
       id="linearGradient1153">
      <stop
         style="stop-color:#19dff3;stop-opacity:1;"
         offset="0"
         id="stop1149" />
      <stop
         style="stop-color:#5460c2;stop-opacity:1;"
         offset="1"
         id="stop1151" />
    </linearGradient>
  </defs>
  <g
     inkscape:label="Layer 1"
     inkscape:groupmode="layer"
     id="layer1"
     transform="translate(66.556711,-9.6405515)">
    <g
       id="g6143"
       transform="matrix(0.11864844,0,0,0.11864844,468.94463,-8.040276)">
      <path
         id="path6056-7"
         style="fill:#1e1d1e;stroke-width:78.288;stroke-linecap:round;stroke-linejoin:round;paint-order:stroke fill markers"
         d="M -2223.0406,1295.1011 A 1144.2219,1144.2216 0 0 1 -3367.2621,2439.3223 1144.2219,1144.2216 0 0 1 -4511.4843,1295.1011 1144.2219,1144.2216 0 0 1 -3367.2621,150.8796 1144.2219,1144.2216 0 0 1 -2223.0406,1295.1011 Z" />
      <path
         style="fill:url(#linearGradient1155);fill-opacity:1;stroke-width:1.39779"
         d="m -3420.0149,2439.9121 c -243.9077,-11.6009 -478.2632,-100.7512 -668.1822,-254.1807 -58.8515,-47.5443 -116.5226,-104.618 -166.0914,-164.3704 -25.8045,-31.1061 -80.0552,-106.2923 -80.0552,-110.9493 0,-0.7495 -2.2984,-4.9479 -5.1072,-9.3289 -42.1722,-65.7771 -85.5466,-156.95 -111.0783,-233.4872 -44.6149,-133.7426 -62.8592,-242.1063 -62.8157,-373.101 0.044,-126.4328 18.8247,-243.413 57.9581,-360.96755 50.906,-152.9188 124.1629,-279.855 233.0832,-403.8754 128.6956,-146.5374 301.1146,-261.0072 488.3886,-324.2437 91.8784,-31.0246 178.6561,-47.7962 284.8599,-55.0548 26.0583,-1.7812 110.5777,-1.77753 137.758,0 89.5647,5.8764 171.7077,19.9441 253.8387,43.4716 22.0339,6.3122 74.5641,23.6957 76.6484,25.3649 1.004,0.8041 10.4442,4.7118 20.9783,8.6832 123.0682,46.3998 250.8401,123.0429 346.889,208.0793 8.7214,7.7216 17.3441,15.0175 19.1613,16.2134 8.2933,5.4578 52.8392,50.1108 81.5417,81.7372 89.4813,98.5982 166.443,221.951 213.5445,342.2649 38.5939,98.5821 62.9924,201.87845 72.5904,307.32775 5.1919,57.0416 6.5083,148.4754 2.8452,197.6084 -7.229,96.9575 -28.3172,200.2206 -59.5112,291.4103 -27.6319,80.7763 -68.3283,164.8915 -116.5296,240.8538 -90.2088,142.164 -219.265,268.399 -366.6437,358.6282 -195.8329,119.8943 -425.2637,178.7926 -654.0708,167.9101 z m 91.9352,-65.5586 c 141.7445,-5.6633 272.4713,-35.5066 399.2888,-91.1526 130.4796,-57.2532 253.7548,-143.8083 349.1267,-245.1326 110.9491,-117.8736 191.9629,-251.9213 243.8013,-403.3999 32.8325,-95.9409 48.1809,-174.4445 56.266,-287.7857 2.2551,-31.6149 2.2372,-100.9478 -0.032,-128.5258 -10.9716,-133.2628 -40.9266,-251.53615 -94.2932,-372.30535 -54.8018,-124.0173 -128.8749,-232.5577 -222.6579,-326.2635 -39.34,-39.3079 -71.9408,-67.5141 -116.6712,-100.944 -12.011,-8.9765 -22.0479,-16.7979 -22.3042,-17.3812 -0.2562,-0.5829 -1.0046,-1.0604 -1.6632,-1.0604 -1.1041,0 -19.84,-12.879 -25.5081,-17.5348 -1.3549,-1.1126 -2.9459,-2.0233 -3.5354,-2.0233 -0.5893,0 -2.1492,-1.2573 -3.4667,-2.7939 -1.3171,-1.5367 -3.345,-2.7942 -4.5064,-2.7942 -1.1612,0 -2.1115,-0.593 -2.1115,-1.3175 0,-1.5442 -28.1774,-19.1444 -53.1453,-33.1956 -34.1956,-19.2443 -106.3979,-53.7031 -123.7725,-59.0709 -3.0768,-0.9506 -11.2584,-3.8406 -18.1812,-6.4224 -104.7252,-39.0546 -200.7935,-60.0399 -310.4804,-67.8206 -30.5885,-2.17 -109.2334,-2.1719 -139.856,0 -184.9465,13.0979 -367.8054,71.2925 -517.2002,164.5987 -130.5599,81.5422 -238.9211,184.3236 -321.5433,304.9873 -44.2645,64.6441 -85.7857,142.0933 -115.3395,215.1405 -10.5182,25.9975 -29.736,83.8238 -37.4477,112.67965 -28.2989,105.8881 -39.8111,197.5043 -38.0656,302.9336 1.5333,92.6018 14.8748,187.2511 37.8914,268.8116 2.6926,9.5416 4.5719,17.8713 4.1765,18.5106 -0.3954,0.639 -0.1031,1.1619 0.6512,1.1619 1.3469,0 3.8252,7.9382 3.2079,10.2755 -0.1742,0.6572 0.4256,2.087 1.3315,3.177 0.9056,1.0903 1.2903,2.3389 0.8541,2.7744 -1.9415,1.9392 34.2914,98.5182 41.082,109.505 3.1139,5.0381 11.3907,23.2402 11.434,25.1462 0.025,1.1525 0.5052,2.4097 1.064,2.7941 0.5588,0.3842 5.8904,10.4427 11.8478,22.3523 102.2142,204.3396 257.6294,365.1357 457.4991,473.3394 145.8344,78.9502 320.0085,125.3427 485.1296,129.218 8.4616,0.1995 19.1605,0.4862 23.7757,0.6398 4.6151,0.1536 24.1251,-0.3503 43.3554,-1.1186 z m 345.4442,-192.7661 c -9.9998,-3.021 -23.216,-6.5045 -29.3697,-7.7408 -33.4572,-6.723 -86.7601,-23.4505 -144.7509,-45.4259 -46.4134,-17.5883 -68.7923,-23.7386 -118.8777,-32.6716 -53.2286,-9.4937 -68.9595,-11.1714 -125.171,-13.3514 -20.7688,-0.8051 -59.3226,-2.7103 -85.6749,-4.2332 -26.3526,-1.5234 -66.6312,-3.706 -89.5079,-4.8495 -65.2765,-3.2636 -95.0987,-6.8403 -107.0659,-12.8419 -2.1645,-1.0851 -3.6858,-2.721 -3.3807,-3.6358 0.3051,-0.9142 6.7963,-3.042 14.4246,-4.7285 36.8168,-8.1404 85.6114,-13.0943 176.1027,-17.8789 22.3071,-1.1793 48.4252,-2.7444 58.0401,-3.4772 88.1718,-6.7225 133.2112,-4.969 196.4977,7.6505 45.0367,8.9803 83.7488,22.7094 127.3371,45.1598 l 12.9292,6.6592 -3.4669,-7.7464 c -6.5634,-14.6641 -37.8517,-88.8001 -44.5079,-105.4577 -18.0442,-45.1582 -34.2069,-103.1644 -43.2302,-155.1491 -4.3568,-25.0985 -14.8627,-81.6233 -16.9116,-90.9877 l -0.6512,-2.9754 -9.4557,3.4439 c -28.3472,10.3251 -59.9417,14.509 -89.6388,11.8707 -30.1953,-2.6825 -51.906,-8.5461 -75.8761,-20.4929 -59.4239,-29.6163 -100.5172,-80.4181 -116.4425,-143.9523 -8.8014,-35.113 -8.6038,-76.3839 0.5217,-109.0442 1.5165,-5.4274 2.7573,-10.5406 2.7573,-11.3623 0,-1.6196 -20.3994,-16.8224 -27.3341,-20.3714 -4.5155,-2.3105 -19.8091,-6.595 -23.5417,-6.595 -1.9643,0 -1.9272,0.5263 0.3205,4.5403 5.9624,10.6492 22.0561,58.784 22.7772,68.1245 0.6512,8.4315 -0.7392,8.8748 -11.1122,3.5426 -5.1482,-2.6466 -11.2481,-5.5127 -13.5558,-6.3695 -2.3075,-0.8566 -8.6011,-4.2829 -13.9854,-7.6136 -9.2902,-5.7465 -21.6908,-10.4182 -33.1734,-12.4976 l -5.2018,-0.9419 4.7775,10.1839 c 6.2916,13.4096 9.1228,28.1533 9.1228,47.506 0,14.0132 0.3796,16.499 3.3801,22.1291 7.1742,13.4623 5.6504,23.6711 -3.5336,23.6711 -3.3512,0 -5.9218,-1.6751 -11.7999,-7.6893 l -7.5157,-7.6893 -1.5326,5.9432 c -0.843,3.2686 -2.2007,8.1431 -3.0169,10.8323 -2.9796,9.816 -16.9655,41.5863 -24.5599,55.7901 l -7.794,14.5782 1.6324,32.9205 c 1.9967,40.2706 2.0634,100.9417 0.1559,141.1896 -2.9278,61.7454 -7.9543,102.1444 -16.8011,135.0347 -5.465,20.3175 -25.0153,77.1402 -31.4031,91.2719 -2.6988,5.9704 -5.8577,13.5476 -7.0198,16.8378 -2.4455,6.9242 -4.6682,10.0073 -6.4297,8.9197 -4.6208,-2.8526 2.5768,-101.3222 10.7149,-146.5892 8.0927,-45.0154 20.0892,-160.7101 20.1351,-194.1858 0.03,-22.273 -2.1427,-33.1571 -9.565,-47.9024 -3.1208,-6.2 -9.5129,-20.2386 -14.2055,-31.1966 -11.1243,-25.978 -28.9858,-59.2325 -38.8998,-72.4223 -21.333,-28.3818 -34.9388,-37.9039 -58.2284,-40.7528 -6.923,-0.8468 -14.0624,-2.4625 -15.8659,-3.5905 l -3.2789,-2.0508 3.0018,-3.1918 3.0021,-3.1919 -2.9803,-0.7786 c -5.4492,-1.4234 -2.7192,-6.6067 8.4292,-16.0044 5.7691,-4.863 15.1347,-11.8023 20.8126,-15.4203 l 10.3237,-6.5787 -8.925,-0.8135 c -19.6569,-1.7913 -32.8318,-8.4579 -40.4597,-20.4725 -9.1512,-14.414 -2.2337,-21.8714 12.3619,-13.3271 5.5892,3.2716 8.3962,3.8806 20.0436,4.348 15.551,0.6239 19.163,-0.3108 44.4797,-11.5108 29.7257,-13.1506 40.5835,-19.5327 50.9009,-29.9191 l 9.541,-9.6044 -7.4432,-1.4961 c -13.4396,-2.7009 -23.2024,-7.2224 -31.034,-14.3721 -9.0763,-8.2862 -12.1671,-14.3992 -8.92,-17.6426 1.9598,-1.9577 2.3153,-1.8938 3.6835,0.6599 2.0125,3.7564 16.6712,6.3874 31.6358,5.6784 12.0444,-0.5708 15.1296,-1.9367 35.1923,-15.581 14.9747,-10.1843 21.0835,-13.6006 23.0385,-12.8845 1.1427,0.419 3.6634,-1.9348 6.3434,-5.9241 2.4457,-3.6406 9.8359,-14.4778 16.4224,-24.0819 6.5865,-9.6047 11.9805,-17.9346 11.9862,-18.5106 0,-0.5765 -1.72,-1.0485 -3.8355,-1.0489 -6.192,0 -19.9918,-7.3567 -28.6578,-15.2737 -5.7043,-5.2112 -9.551,-10.4112 -13.2863,-17.9604 -4.9169,-9.9377 -5.2575,-11.4522 -5.2575,-23.3806 0,-11.8184 0.2877,-13.1306 3.9184,-17.886 6.8192,-8.9305 17.2225,-11.836 26.0507,-7.2758 8.4661,4.3733 7.1232,15.419 -1.8743,15.419 -7.7734,0 -1.9183,19.3905 8.6646,28.6958 9.1137,8.0134 14.4748,9.273 24.0781,5.6559 13.5565,-5.1058 16.2361,-7.4825 22.5308,-19.9888 3.2026,-6.3626 8.2541,-17.514 11.2257,-24.781 6.5099,-15.9212 13.259,-23.8088 20.372,-23.8088 2.838,0 5.7547,1.1427 7.5855,2.9714 4.0963,4.0919 2.9775,13.3262 -3.7023,30.5573 -11.084,28.592 -32.2453,63.7898 -70.7018,117.5988 -21.0884,29.5075 -27.7038,37.4904 -49.4319,59.6518 -10.8314,11.0475 -17.8056,18.9307 -15.4983,17.5183 11.307,-6.9216 32.1783,-23.4035 47.4045,-37.4352 9.3112,-8.5807 20.3739,-18.4155 24.5842,-21.8553 4.21,-3.4401 11.762,-9.9615 16.7827,-14.4922 5.0203,-4.5307 13.337,-11.5988 18.4815,-15.7069 25.394,-20.2778 60.9345,-75.1949 74.2765,-114.7721 1.8285,-5.4242 4.3691,-11.4544 5.6456,-13.4004 1.8482,-2.8176 2.0052,-4.2314 0.7702,-6.9387 l -1.5509,-3.3999 -4.8787,3.3073 c -6.2908,4.2641 -12.9578,5.4659 -19.096,3.4424 -2.6898,-0.8868 -11.0698,-5.4906 -18.6222,-10.2313 -9.1446,-5.74 -19.1767,-10.5297 -30.034,-14.3402 l -16.3031,-5.7215 3.9137,7.083 c 5.327,9.6411 6.1918,15.7545 3.4009,24.0446 -3.9733,11.8028 -7.6146,12.9711 -8.2422,2.644 -0.5675,-9.3353 -14.5493,-19.4612 -38.358,-27.7801 -15.8641,-5.5427 -32.1004,-5.9175 -47.6853,-1.1005 -30.5594,9.4456 -45.0018,26.2027 -45.3191,52.5823 -0.181,14.9861 2.0825,19.3158 14.228,27.2313 15.3412,9.998 22.0994,16.3799 26.9285,25.4305 7.9,14.8055 7.1956,32.3069 -1.7078,42.4364 -7.5883,8.6328 -13.9036,11.0185 -29.0936,10.99 -11.5126,-0.023 -14.3994,-0.5384 -21.6236,-3.8698 -11.7989,-5.4405 -22.3777,-14.043 -29.3826,-23.8929 -12.3433,-17.3567 -13.6601,-32.1907 -4.1059,-46.2538 3.2285,-4.7523 3.4912,-6.1111 2.6243,-13.573 l -0.9636,-8.2924 -6.4351,0.9639 c -14.8092,2.2185 -29.7167,10.4974 -36.1965,20.102 -15.1528,22.4605 -10.4543,48.5474 15.6021,86.6267 5.9901,8.7544 12.4589,19.3373 14.3747,23.5178 6.8494,14.944 3.6729,31.5526 -7.8936,41.2743 -14.5798,12.2546 -40.8376,15.0992 -58.4181,6.3287 -7.6767,-3.8298 -15.3227,-12.3479 -17.2256,-19.1905 -5.0015,-17.9838 5.5736,-43.8266 20.8218,-50.8833 l 6.6569,-3.0809 -6.0483,-12.4357 c -3.3269,-6.8393 -6.0582,-13.7346 -6.0702,-15.3231 -0.023,-1.6125 -0.4751,-2.2504 -1.0489,-1.4445 -0.565,0.7938 -5.4328,3.27 -10.8174,5.5023 -13.7685,5.7077 -28.013,19.8914 -35.2963,35.1446 -4.861,10.1812 -5.2507,11.9282 -5.256,23.5695 0,9.5526 0.7773,14.8385 3.2549,22.0031 3.3865,9.7935 4.1165,10.4441 8.8691,7.9032 4.499,-2.4049 5.5099,0.2301 3.0433,7.9352 l -2.2493,7.0264 7.1882,11.5773 c 3.9535,6.3676 10.8869,16.3892 15.4077,22.2705 11.7281,15.2587 14.1292,20.6274 14.1292,31.5931 0,8.7508 -0.2293,9.3651 -5.4325,14.5626 -11.0934,11.0815 -23.4557,11.2547 -43.7595,0.6131 -22.1313,-11.599 -33.323,-26.2618 -33.323,-43.6572 0,-9.6003 3.4969,-20.1422 9.1274,-27.5161 l 3.7394,-4.8972 -5.0038,-15.0455 c -8.2536,-24.8194 -8.1275,-44.2755 0.4191,-64.5942 l 3.9837,-9.4714 -6.744,-2.2374 c -20.9041,-6.9359 -38.4912,-25.9368 -49.0152,-52.9561 -2.1179,-5.4373 -4.6753,-9.8859 -5.6832,-9.8859 -1.0078,0 -2.0634,-1.2573 -2.3458,-2.7939 -1.4555,-7.9238 -12.6151,-13.4266 -27.5426,-13.5809 -8.8051,-0.092 -11.1729,0.4172 -15.6532,3.3613 -8.5564,5.622 -17.1612,8.2027 -28.716,8.6112 -10.2293,0.3617 -11.1326,0.6571 -15.788,5.1644 -11.3694,11.0075 -18.1049,32.8218 -17.1864,55.663 0.4774,11.8732 1.1252,14.8158 4.9852,22.6484 6.5272,13.2432 13.5829,21.4861 24.8175,28.9922 12.1024,8.0854 25.2874,13.5458 35.9114,14.8718 10.6938,1.3345 13.7736,-1.4867 13.7736,-12.6179 0,-9.6058 -2.8224,-16.5685 -9.4841,-23.3975 -6.8584,-7.0301 -15.2307,-9.3876 -33.3432,-9.3876 -7.8919,0 -14.6616,-0.5061 -15.0446,-1.1247 -1.3707,-2.2159 1.8181,-12.0431 5.6967,-17.5557 9.157,-13.0145 27.0767,-16.1018 45.1524,-7.7792 12.5512,5.7788 24.8382,18.2356 31.1808,31.6115 4.2703,9.0062 4.5126,10.3787 4.5126,25.5826 0,17.2878 -1.4244,21.9457 -9.7231,31.7972 -1.9601,2.3268 -3.5634,4.5295 -3.5634,4.8958 0,0.3661 4.5192,1.1101 10.0426,1.654 16.0505,1.5798 36.1931,7.2027 40.2232,11.2284 4.1829,4.1784 2.5372,7.1608 -2.8366,5.1407 -3.2299,-1.2142 -44.6388,-0.039 -66.3098,1.8798 -21.2408,1.8821 -32.1552,7.8412 -36.2279,19.7814 -7.1046,20.8282 2.6699,45.3339 24.9871,62.6446 22.9178,17.7764 43.1578,23.6882 61.9825,18.1042 8.7033,-2.5821 11.4942,-6.1597 11.4942,-14.7345 0,-7.5813 -3.8744,-14.2217 -11.1598,-19.126 -4.6114,-3.1041 -5.7199,-3.2153 -28.2179,-2.8272 -14.3346,0.2471 -23.9373,-0.1398 -24.7575,-0.9934 -1.6801,-1.751 4.0005,-13.7594 8.9505,-18.9205 1.9421,-2.0246 6.4992,-5.1968 10.1277,-7.0491 5.7329,-2.9268 8.5195,-3.3676 21.2816,-3.3676 12.6756,0 15.6181,0.4587 21.506,3.3539 9.4357,4.6396 20.9093,16.7481 26.3709,27.8301 4.0828,8.2841 4.5673,10.5377 4.5534,21.1748 -0.023,14.5527 -2.1379,20.9889 -9.5533,29.0252 -13.0388,14.1296 -37.868,20.4324 -61.339,15.5707 -10.9832,-2.275 -31.0758,-12.2693 -43.7737,-21.7731 -20.0026,-14.971 -31.785,-30.0794 -38.4481,-49.3005 -2.1684,-6.2561 -4.3863,-10.6579 -4.9282,-9.7819 -0.6663,1.0769 -2.1814,0.4628 -4.6781,-1.8951 -5.6921,-5.3768 -30.6052,-10.1318 -41.71,-7.9614 -21.1705,4.1376 -33.5615,10.7947 -40.2706,21.6344 -3.7906,6.1242 -4.227,7.9946 -4.227,18.1147 0,10.1639 0.5226,12.3791 5.2562,22.2819 3.9516,8.2674 7.7695,13.4961 15.3841,21.0696 17.2327,17.1394 34.3075,24.5138 56.7617,24.5138 20.1259,0 27.901,-4.1788 29.2004,-15.694 0.5776,-5.1209 0.099,-6.7871 -3.0153,-10.4832 -2.0362,-2.4176 -7.5536,-6.3177 -12.2608,-8.6674 -11.5764,-5.7783 -19.0906,-5.7272 -31.148,0.2109 -10.8408,5.3405 -12.2576,4.6361 -10.4239,-5.1824 2.5388,-13.5939 14.3655,-24.4477 26.6386,-24.4477 13.4981,0 31.3562,8.9924 42.8876,21.5958 9.8843,10.8028 12.2207,21.0109 8.0327,35.0967 -5.7736,19.4197 -21.4228,28.5256 -49.024,28.5256 -28.7371,0 -51.0951,-9.6569 -72.0904,-31.137 -31.6442,-32.3752 -36.0601,-69.523 -11.2146,-94.3409 l 6.9134,-6.9059 -5.1446,-0.8497 c -10.5691,-1.7457 -10.9911,-1.5328 -11.9997,6.0635 -0.5405,4.0683 -3.8994,12.8902 -8.1126,21.3045 -6.3493,12.6805 -8.9211,16.0947 -21.9846,29.1816 -16.4585,16.4877 -26.5429,22.5831 -41.367,25.0027 -13.4965,2.2032 -21.5702,-0.032 -25.1595,-6.9657 -3.5171,-6.7935 -2.5218,-11.8766 5.2303,-26.7154 l 7.3425,-14.0549 0.1948,-32.3665 c 0.1078,-17.8012 0.6019,-36.8832 1.0991,-42.4041 l 0.904,-10.0379 -9.1883,6.1547 c -11.1571,7.4734 -24.5418,11.8258 -36.3677,11.8258 -8.3206,0 -9.0342,-0.2682 -13.139,-4.9381 -5.7423,-6.5331 -5.5493,-10.5185 1.1819,-24.4225 6.8939,-14.2401 8.1195,-20.2751 9.7827,-48.174 0.8905,-14.936 2.4084,-26.5666 4.5745,-35.0534 l 3.2422,-12.7011 -7.7147,3.4818 c -10.2178,4.6118 -33.3453,5.801 -48.8715,2.5131 -19.5054,-4.1304 -23.2579,-13.336 -11.6701,-28.6289 9.1556,-12.0831 15.6172,-23.984 16.3319,-30.0789 0.3682,-3.1382 1.351,-11.928 2.1842,-19.5322 3.3844,-30.8886 11.0749,-51.4848 23.0831,-61.8213 4.7782,-4.1131 5.3111,-5.1168 3.8111,-7.1763 -4.4917,-6.1669 -10.3055,-20.3558 -11.6414,-28.4126 -2.6426,-15.9351 0.725,-36.8479 8.6052,-53.4335 10.3159,-21.7135 31.6759,-38.5563 49.5562,-39.0764 l 7.5121,-0.2178 0.9077,-9.7788 c 3.6775,-39.6214 15.826,-62.54555 39.1873,-73.94585 11.9362,-5.8253 28.7293,-6.665 42.8151,-2.1405 10.4032,3.3413 30.1115,14.3799 36.3799,20.37605 l 3.6727,3.5132 2.8831,-4.6595 c 1.5857,-2.5629 4.4959,-6.17355 6.4667,-8.02285 1.9712,-1.8496 3.5838,-3.8868 3.5838,-4.5275 0,-0.6402 -3.7725,-2.9897 -8.3829,-5.2204 -12.2432,-5.9239 -18.59,-11.5298 -23.3856,-20.6558 -8.6403,-16.4413 -9.6381,-34.8166 -2.7112,-49.93 5.8492,-12.7621 23.3086,-27.603 37.8054,-32.1353 2.2534,-0.7044 2.5062,-1.7601 1.7789,-7.4321 -4.6473,-36.2391 -4.0312,-63.1778 2.1324,-93.2262 6.6606,-32.4708 18.2016,-55.5988 48.7982,-97.7914 18.7959,-25.9202 44.0868,-50.3093 64.9402,-62.626 5.3845,-3.1804 17.5312,-11.0421 26.9925,-17.4707 21.4666,-14.5853 34.0052,-21.1872 40.2399,-21.1872 h 4.7934 v -7.2198 c 0,-26.5829 11.4739,-45.0103 31.6786,-50.8776 9.5822,-2.7827 15.8322,-1.7537 21.9518,3.6134 l 4.6213,4.053 2.5292,-8.4343 c 3.5764,-11.9266 10.9934,-22.2397 27.6024,-38.3814 23.494,-22.8327 45.1367,-37.5041 96.5685,-65.4642 27.2153,-14.7948 91.861,-45.3021 130.4235,-61.5485 11.5381,-4.861 26.9572,-11.4748 34.2646,-14.6974 19.4349,-8.5704 27.1533,-11.0131 41.827,-13.2354 15.945,-2.4148 29.3775,-0.9739 40.2743,4.3205 13.2744,6.4497 17.784,15.507 11.0638,22.2198 -3.615,3.6111 -8.2892,5.0366 -24.9803,7.6189 -17.0298,2.6346 -35.3917,9.0197 -64.7775,22.5267 -14.9538,6.8733 -27.464,12.4969 -27.8002,12.4969 -0.3365,0 -11.5063,5.1054 -24.8214,11.3449 -13.3157,6.2395 -33.9651,15.8633 -45.8876,21.3861 -19.4742,9.021 -80.2574,41.0813 -105.5913,55.6948 -15.2512,8.7975 -35.4525,22.4531 -45.6556,30.8626 -13.4458,11.0819 -20.9513,27.3985 -12.603,27.3985 1.4668,0 10.7695,-5.7815 20.6728,-12.8483 20.4379,-14.5834 38.5231,-26.2505 48.7743,-31.4638 3.846,-1.9562 20.4608,-11.7373 36.9213,-21.7362 22.6195,-13.7401 48.7484,-27.4638 106.99,-56.1942 42.3837,-20.9078 83.984,-40.7538 92.4453,-44.1022 13.866,-5.4872 16.4538,-6.0674 26.2231,-5.8783 7.0261,0.1353 10.8387,-0.3262 10.8387,-1.3143 0,-2.9227 6.8538,-10.4724 11.1032,-12.2308 2.8189,-1.1662 4.2811,-2.7554 4.2811,-4.6531 0,-5.5585 5.8597,-14.8851 14.1958,-22.5943 21.6757,-20.0457 55.6621,-32.1581 99.963,-35.6257 35.3743,-2.7692 61.9487,2.9268 80.6991,17.2971 l 6.7515,5.1743 5.529,-6.2739 c 12.435,-14.1114 33.6198,-26.6131 52.5474,-31.009 15.0494,-3.4954 23.7835,-1.1017 33.7374,9.2459 l 5.3892,5.6025 8.2158,-3.7573 c 15.9805,-7.3082 29.8944,-5.4309 42.1948,5.6935 l 6.6115,5.9788 8.4407,-3.9888 c 10.8355,-5.1204 20.8644,-5.3471 30.8177,-0.6966 7.9508,3.7149 17.9332,13.8447 21.5127,21.8308 2.1897,4.8853 2.5734,5.1549 4.0278,2.8283 0.8845,-1.414 5.834,-4.6496 10.9996,-7.1898 8.2282,-4.0464 11.0517,-4.6838 22.7885,-5.1464 14.4328,-0.5689 26.6748,1.7419 36.9375,6.9717 8.1434,4.1502 18.537,14.4615 23.5541,23.3684 2.4251,4.3053 4.5667,8.0351 4.7588,8.2886 0.1925,0.2538 2.0448,-0.6484 4.1164,-2.0047 2.5487,-1.668 7.4498,-2.6575 15.1561,-3.0598 9.6555,-0.504 13.0885,-0.023 22.5576,3.1531 26.7964,8.9917 44.1501,21.6619 55.8392,40.7682 0.066,0.1101 4.2137,-0.6622 9.2136,-1.7173 23.1656,-4.888 56.0056,0.9004 75.1198,13.2405 9.1491,5.9071 22.3014,18.9285 28.3763,28.0948 3.4332,5.1801 5.2772,6.4596 12.5058,8.6763 9.6457,2.9578 21.5539,13.053 34.5083,29.2554 15.5329,19.4263 20.7583,33.5105 17.3904,46.8711 -1.5032,5.9631 -1.4227,6.8511 0.7335,8.0946 10.8108,6.2367 18.322,18.7879 22.9916,38.4185 1.5534,6.5308 4.072,17.0839 5.5965,23.4511 1.5243,6.3672 2.7717,15.714 2.7717,20.7705 0,8.8493 -0.2063,9.4008 -5.5433,14.731 -5.3016,5.2956 -8.4423,5.9707 -8.4423,1.8145 0,-1.064 1.1589,-2.7556 2.5755,-3.7596 3.5897,-2.545 5.8159,-7.182 5.8159,-12.1152 0,-3.9018 -8.3451,-27.8372 -16.3512,-46.8987 -8.4109,-20.0255 -19.2723,-25.3114 -30.5005,-14.8449 -6.2447,5.8214 -19.1675,14.0447 -20.6414,13.135 -0.708,-0.4374 -0.8914,-2.9046 -0.4073,-5.4829 l 0.8804,-4.6877 -8.7964,3.3191 c -14.8021,5.5858 -55.2583,22.9523 -75.9275,32.5934 -53.0189,24.7311 -124.5771,66.1565 -206.2873,119.4211 -54.3337,35.4186 -77.5308,52.5605 -118.605,87.6474 -19.328,16.5107 -19.0752,15.2601 -4.4684,22.096 6.3887,2.9899 9.5879,3.5755 18.8806,3.4561 12.2486,-0.1582 19.4226,-1.5951 58.0403,-11.6327 27.7327,-7.2082 41.0706,-9.9771 60.5652,-12.5735 8.8613,-1.1795 13.3716,-2.4989 16.0835,-4.7037 7.6326,-6.2056 23.7566,-17.2951 38.7323,-26.6389 8.4615,-5.2793 27.1559,-17.3109 41.5434,-26.7367 94.2877,-61.7709 136.2119,-80.4529 236.6548,-105.4563 5.3015,-1.3199 10.5034,-0.6783 8.7448,1.0787 -0.4738,0.4733 2.1808,4.1855 5.8989,8.2492 22.3349,24.4109 39.2664,61.2531 44.2558,96.2994 2.8989,20.3622 2.1807,33.8076 -2.835,53.0865 -4.0087,15.4093 -7.8344,20.9202 -15.5947,22.4655 -8.1379,1.6208 -13.2017,-8.1005 -8.6578,-16.62 1.5108,-2.8331 1.448,-2.9032 -0.8827,-0.982 -2.2931,1.8904 -2.9903,1.5285 -8.0721,-4.1912 -10.0587,-11.3217 -23.7828,-42.9455 -29.6063,-68.2205 -1.1245,-4.8803 -2.3182,-9.1469 -2.6529,-9.4811 -0.3351,-0.3347 -8.903,3.1868 -19.0408,7.8257 -10.1373,4.6382 -18.7041,8.4333 -19.0371,8.4333 -0.3328,0 -12.4169,4.6646 -26.8534,10.3659 -14.4363,5.7008 -41.6668,16.0451 -60.5122,22.9869 -44.2157,16.287 -68.2983,26.0782 -71.7049,29.1527 -3.3035,2.9812 -7.9224,11.9028 -13.7053,26.4715 -8.2894,20.8833 -13.8601,29.8199 -26.4349,42.4083 -6.5602,6.5673 -16.333,15.0373 -21.7176,18.8226 -58.9416,41.4352 -78.4952,61.2796 -86.8934,88.186 -3.2739,10.4894 -3.6173,13.4016 -2.9127,24.704 0.4397,7.0475 1.718,15.36605 2.8407,18.48635 1.1229,3.1201 7.8465,14.4333 14.9415,25.1405 15.6321,23.5911 22.5936,37.1371 28.6227,55.6956 6.3798,19.6381 8.2406,31.0673 7.3757,45.3046 -0.965,15.8884 -2.7065,20.7148 -19.9831,55.3868 -8.0402,16.1357 -15.6667,33.4236 -16.9475,38.418 -3.552,13.847 -3.0775,30.1124 1.4055,48.1971 4.947,19.9577 7.7521,27.3087 17.9435,47.0227 6.6978,12.9555 11.2025,19.4137 22.0151,31.5619 17.9782,20.199 33.3598,39.1048 46.671,57.3642 5.986,8.2112 11.4927,15.1388 12.2377,15.3949 0.7447,0.256 1.354,1.3762 1.354,2.4886 0,1.1128 0.9439,2.385 2.0978,2.8274 1.1536,0.4419 2.0977,1.4165 2.0977,2.1654 0,0.749 2.0724,3.9824 4.6057,7.185 6.5221,8.2465 17.6746,27.3001 25.077,42.8442 13.0181,27.3366 20.646,59.3643 24.9465,104.7474 2.6573,28.0421 -0.6615,61.7151 -7.6265,77.388 -2.0061,4.5138 -3.6473,10.7453 -3.6473,13.8484 0,3.2583 -3.8348,16.9632 -9.0781,32.444 -10.7828,31.8359 -14.6976,52.0993 -14.6976,76.082 0,19.9088 4.4805,40.2437 10.6455,48.3179 4.8842,6.3963 14.7409,13.1912 19.1359,13.1912 3.587,0 8.3236,-5.6844 12.9462,-15.5379 2.3561,-5.0222 2.3373,-5.142 -2.4989,-16.0656 -2.6798,-6.0529 -10.1096,-21.862 -16.5098,-35.1308 -7.2462,-15.0217 -11.1427,-24.62 -10.3258,-25.436 1.889,-1.8869 35.7755,31.6567 46.4017,45.932 10.9593,14.7233 15.1547,23.2502 17.9541,36.4925 3.5246,16.67 -0.078,32.7332 -9.9735,44.4817 -4.3122,5.1193 -3.7506,5.5296 8.3357,6.0912 12.2131,0.5678 11.4948,2.9413 -2.9168,9.636 -25.231,11.721 -37.969,12.4768 -51.7002,3.0674 -4.6157,-3.1629 -7.5238,-3.8621 -19.7938,-4.7604 -17.6822,-1.2946 -28.6339,-5.8862 -40.3565,-16.9203 -10.4349,-9.8212 -13.687,-15.2536 -19.4733,-32.5274 -6.033,-18.0093 -7.5062,-29.0463 -7.5538,-56.6002 -0.048,-26.6418 1.692,-37.754 12.484,-79.7944 7.8851,-30.7161 14.671,-61.1006 15.6876,-70.2425 0.4401,-3.9601 0.22,-4.1034 -10.0392,-6.5773 -17.5289,-4.2259 -19.0697,-3.9153 -30.9044,6.2239 -25.1533,21.5489 -39.6714,41.598 -55.111,76.1058 -7.505,16.7741 -22.564,60.8946 -26.0697,76.38 -2.7325,12.0696 -2.0379,60.6619 1.4872,104.0778 6.2269,76.6858 8.533,125.9268 8.5165,181.8393 l -0.023,45.6294 9.4403,6.681 c 5.1922,3.6744 13.8316,10.1733 19.1989,14.442 5.3671,4.2687 18.5301,13.7335 29.2515,21.0327 10.7209,7.2996 19.546,13.9008 19.6113,14.669 0.2354,2.7808 -5.812,1.8846 -23.6572,-3.5064 z m -60.0132,-59.7086 c -0.4197,-1.3446 -3.2645,-11.246 -6.3223,-22.0032 -3.0575,-10.7569 -7.8025,-26.1591 -10.5449,-34.227 -11.4557,-33.7013 -26.802,-101.7524 -30.0867,-133.415 -3.2102,-30.944 -5.6121,-94.0423 -4.1376,-108.6927 1.4514,-14.4168 11.1482,-53.6655 17.2772,-69.9314 14.7905,-39.2519 60.3112,-102.2576 85.2525,-117.9993 l 6.8094,-4.298 -4.0123,-0.918 c -26.1095,-5.9771 -39.3525,-10.1053 -76.0377,-23.7021 -9.6152,-3.5637 -18.437,-6.7775 -19.604,-7.1415 -1.5465,-0.4823 -3.6177,2.6552 -7.6352,11.566 -11.7526,26.0656 -33.5353,57.3234 -51.6003,74.0454 -13.6936,12.6752 -32.0749,25.5664 -48.3963,33.9408 l -13.6955,7.0271 10.1676,27.6126 c 5.592,15.1872 14.9965,39.7814 20.8991,54.6541 5.9023,14.8727 14.4044,37.8187 18.8936,50.9913 4.4892,13.1724 14.2809,40.6091 21.7595,60.9709 20.1793,54.9427 35.5776,100.2336 46.0723,135.5109 5.1432,17.288 10.7228,35.8335 12.399,41.212 l 3.0479,9.7789 13.9857,8.638 c 7.6922,4.7509 14.4997,8.6802 15.1289,8.7315 0.6288,0.053 0.7995,-1.0067 0.3801,-2.3513 z m 202.9471,-236.7948 c 3.6035,-3.952 6.0128,-8.5716 6.0128,-11.5287 0,-1.9277 -0.6904,-1.7913 -4.4427,0.8777 -3.3137,2.3565 -6.4652,3.1799 -12.3999,3.2386 -9.1994,0.092 -9.5455,1.6966 -1.5371,7.1325 6.2448,4.2387 8.7066,4.2946 12.3669,0.2799 z m -54.2934,-14.6493 c -7.4926,-14.7001 -17.1586,-42.9874 -19.3976,-56.765 -2.1696,-13.3523 -1.6683,-31.2722 1.3585,-48.5902 3.6283,-20.7567 4.947,-25.2915 15.7816,-54.2734 5.0267,-13.4465 10.8628,-29.9907 12.9693,-36.7652 l 3.83,-12.3172 -1.671,-22.9931 c -1.8979,-26.1186 -4.3301,-36.8083 -14.1005,-61.9797 -16.3198,-42.0447 -35.3511,-75.6518 -61.8752,-109.2655 -7.1783,-9.0967 -14.6852,-18.9303 -26.6285,-34.8817 -7.6969,-10.2794 -38.9402,-48.9913 -40.9958,-50.7957 -3.2297,-2.8345 -21.3937,-26.8777 -28.2643,-37.413 -9.2752,-14.2224 -22.8253,-40.8755 -29.0651,-57.1711 -8.1096,-21.1792 -10.7954,-34.4423 -10.8343,-53.4999 -0.039,-19.6736 1.7024,-27.674 14.4507,-66.3584 15.5791,-47.2747 16.8105,-56.0636 10.4905,-74.8692 -4.1447,-12.3344 -7.041,-17.1257 -20.2946,-33.5758 -15.9644,-19.8146 -25.7288,-43.0972 -27.6836,-66.00995 l -0.9723,-11.396 -5.347,3.6361 c -2.9408,2.0001 -8.605,4.7567 -12.5869,6.1258 l -7.2401,2.4895 0.2109,6.30025 c 0.4575,13.6098 5.9193,29.2281 20.1557,57.6334 7.7019,15.3672 14.9161,31.3981 16.0317,35.624 4.3028,16.3011 2.396,36.3333 -7.0491,74.0419 -8.9794,35.8499 -10.9302,49.7758 -11.0549,78.9319 -0.094,21.7357 0.35,28.1879 2.4466,35.6237 5.1663,18.324 13.626,37.326 23.0413,51.7566 17.7162,27.1521 43.9883,60.2589 55.2621,69.6378 6.2223,5.1764 8.3169,7.3723 11.0528,11.5867 1.3249,2.0407 11.1275,12.7176 21.7836,23.7264 10.6563,11.0086 24.9064,25.9879 31.6678,33.2873 35.546,38.3747 65.7643,88.7239 75.0421,125.033 3.9735,15.5512 4.237,18.0783 3.6381,34.9255 -0.6686,18.8131 -1.541,22.8859 -22.5909,105.4749 -6.5936,25.87 -8.1193,39.7653 -7.4,67.4008 0.5884,22.6093 1.0947,26.919 4.4649,38.0073 4.9552,16.3031 7.7085,21.479 14.8569,27.9298 4.373,3.9467 18.401,11.975 23.213,13.285 0.1283,0.034 -2.884,-6.0568 -6.697,-13.5376 z m -366.1419,-166.4464 c 37.9672,-6.8444 69.2791,-22.756 97.2836,-49.4356 19.0055,-18.1063 29.0284,-31.9943 38.6379,-53.5367 8.0049,-17.9454 8.396,-16.166 -5.1306,-23.3538 -13.8958,-7.3839 -51.5489,-31.567 -66.5672,-42.7534 -5.7673,-4.2958 -20.4764,-17.555 -32.6867,-29.4647 -45.9199,-44.7889 -69.6724,-78.6279 -76.9132,-109.5744 l -1.613,-6.8937 -9.9991,-1.6829 c -18.567,-3.1249 -37.1649,-11.0159 -55.4749,-23.538 -5.1434,-3.5171 -10.0416,-6.3949 -10.8851,-6.3949 -0.8435,0 -6.7311,4.0542 -13.0839,9.0094 l -11.5504,9.0091 -0.951,8.803 c -0.5233,4.8413 -2.5294,12.0765 -4.4585,16.078 -4.087,8.4782 -13.58,16.9198 -16.3984,14.5832 -0.9815,-0.8137 -4.3233,-1.8849 -7.4262,-2.3804 l -5.6412,-0.9011 -6.3867,10.2696 c -5.7045,9.1735 -9.5611,16.7704 -18.0159,35.4903 -7.1867,15.9117 -13.3693,56.4283 -11.7141,76.7618 3.6087,44.3229 20.1332,81.7164 50.0783,113.3228 28.6096,30.1966 64.8545,49.5777 106.5476,56.9736 16.5579,2.9372 44.87,2.7593 62.3487,-0.3912 z m -404.5071,-72.8125 c 0.2705,-28.0293 -3.5285,-43.6602 -18.6756,-76.8359 -9.7428,-21.34 -17.0113,-42.9341 -15.0953,-44.8478 0.8816,-0.8804 4.8376,1.8569 11.236,7.7741 5.4315,5.0235 10.2884,9.1334 10.7933,9.1334 0.5048,0 -1.6345,-3.5602 -4.7537,-7.9112 -6.0394,-8.4249 -6.8863,-12.2624 -3.6675,-16.6191 2.3181,-3.1368 4.6761,-1.6754 5.6777,3.5194 1.566,8.1223 12.3977,13.8119 40.0643,21.0443 13.4509,3.5165 23.9018,7.1096 27.9518,9.6104 4.9843,3.0777 6.3516,3.4713 5.9581,1.7155 -0.2811,-1.2534 -1.7868,-10.0936 -3.3461,-19.645 -3.6157,-22.1456 -9.4479,-35.0333 -20.8246,-46.0185 -9.1746,-8.8587 -15.0416,-12.7403 -19.2675,-12.7476 -1.6721,0 -8.2802,3.0486 -14.6847,6.7811 -36.0258,20.9949 -62.0035,34.0637 -85.0694,42.7966 -28.4045,10.7539 -46.3565,18.8081 -45.3924,20.3656 0.372,0.602 3.9897,0.7523 8.0391,0.3347 9.5918,-0.9888 21.18,1.4927 31.8572,6.8224 15.74,7.8564 37.8569,31.6537 52.4697,56.4553 10.3101,17.4993 26.5004,50.8978 30.0459,61.9825 1.6045,5.0159 3.3106,10.0628 3.7913,11.2153 1.1917,2.8592 2.7038,-15.3992 2.8924,-34.9255 z m 26.7611,-30.9513 c 3.0889,-13.5655 5.6165,-27.1099 5.6165,-30.0978 0,-4.8472 -0.7173,-5.9747 -6.6432,-10.447 -5.5667,-4.2013 -19.9207,-12.3249 -21.7769,-12.3249 -0.2978,0 0.9345,3.0811 2.7386,6.8467 5.3007,11.0636 7.7852,24.4984 8.2929,44.843 0.259,10.3729 0.9074,23.5747 1.4411,29.3374 l 0.9705,10.4777 1.872,-6.9851 c 1.0298,-3.8417 4.3993,-18.0843 7.4885,-31.65 z m 710.6513,-0.1009 c -2.2816,-9.0105 -6.917,-22.2124 -10.3012,-29.3372 -5.525,-11.6332 -20.8303,-37.0244 -23.3865,-38.7994 -0.5535,-0.3842 -6.3649,-7.9282 -12.9143,-16.7642 -11.4287,-15.4197 -17.9781,-22.9797 -46.5926,-53.7855 -7.1369,-7.6833 -16.8829,-18.4996 -21.6577,-24.0356 -4.7748,-5.5363 -10.1452,-11.024 -11.934,-12.195 -8.699,-5.6933 -56.519,-65.9603 -69.006,-86.967 -6.8534,-11.529 -15.3951,-31.6521 -20.6497,-48.6469 -3.714,-12.0114 -3.8864,-13.8467 -3.9352,-41.8989 -0.06,-33.2525 1.0232,-40.4542 13.2162,-88.0125 12.1778,-47.4992 12.2346,-55.0292 0.626,-82.7066 -3.4161,-8.145 -8.2177,-20.8436 -10.6703,-28.2186 -4.1493,-12.4782 -4.4649,-14.7913 -4.5431,-33.3122 -0.046,-10.9464 -0.5242,-19.90495 -1.0622,-19.90725 -0.5382,0 -3.5613,4.95475 -6.7183,11.01575 -18.5977,35.7085 -49.717,50.8227 -108.7339,52.8107 -13.2686,0.4469 -24.125,1.2203 -24.125,1.7182 0,0.4981 1.2212,4.3766 2.7139,8.6187 10.9144,31.0192 12.7243,84.3932 2.8613,84.3932 -1.4871,0 -2.3144,-2.1869 -2.9069,-7.6836 -1.0326,-9.5821 -4.0727,-16.4747 -18.2812,-41.4462 -12.708,-22.3351 -22.9241,-34.9704 -28.823,-35.6491 -2.964,-0.3411 -3.7447,-1.1131 -3.5027,-3.4617 0.2327,-2.2637 -2.5351,-5.3457 -11.0267,-12.2752 -13.5673,-11.071 -20.3661,-15.1914 -31.2229,-18.9226 -19.0752,-6.5556 -36.7845,-0.6017 -55.9612,18.8142 -16.4433,16.6482 -23.0763,32.5409 -23.0763,55.2918 0,23.4512 5.4317,47.0382 18.2855,79.4045 8.6598,21.8054 16.4492,35.6226 42.4655,75.3265 26.2378,40.0421 45.4271,65.7742 57.2514,76.7717 9.7454,9.0646 26.191,18.493 32.2554,18.493 5.5179,0 17.9137,-5.1794 25.3898,-10.6084 l 6.8644,-4.985 -20.279,0.9265 c -19.6844,0.8995 -20.4228,0.8309 -25.1742,-2.3339 -6.6573,-4.4337 -11.8033,-14.9123 -10.5637,-21.5112 1.1982,-6.3798 9.311,-15.3422 15.8352,-17.4929 6.2398,-2.057 39.2871,-0.8121 54.8667,2.0666 l 10.4891,1.9382 4.3877,-4.157 c 4.6971,-4.4505 6.78,-3.6086 5.3318,2.1546 -0.8132,3.2363 -0.1765,3.6262 12.8939,7.9073 18.8904,6.187 47.7545,20.4466 62.7758,31.0127 22.5826,15.885 53.619,50.0151 67.0233,73.7037 19.4016,34.2869 29.439,81.6222 25.7417,121.3965 -0.9029,9.7133 -1.7079,19.1451 -1.7888,20.9591 -0.1261,2.8448 2.4526,4.7044 18.7336,13.5086 10.3845,5.6154 23.2861,12.1171 28.6704,14.448 11.3795,4.9268 65.3912,26.5999 79.7181,31.9888 5.3843,2.0256 10.2522,4.3404 10.8176,5.1447 0.6801,0.9685 1.0347,0.8954 1.0487,-0.2154 0.023,-1.1537 1.8784,-0.8445 5.9654,0.9888 l 5.9438,2.6667 0.4062,-5.8782 c 0.2223,-3.2471 -1.4505,-13.2116 -3.7418,-22.2613 z m -389.7336,-314.5017 c -12.1556,-3.9598 -23.8119,-11.4817 -34.9502,-22.5545 -21.0639,-20.9396 -28.2487,-43.8775 -22.3993,-71.5121 1.9788,-9.3495 10.7054,-30.2288 13.3044,-31.8338 2.3291,-1.4379 3.8736,3.7869 5.5631,18.8203 3.2606,29.013 16.6792,55.6077 33.2048,65.8099 2.6394,1.6292 5.1053,2.6566 5.4799,2.2825 1.2148,-1.2135 -2.2716,-19.422 -4.5789,-23.9126 -1.2332,-2.4005 -4.9967,-8.2332 -8.3629,-12.9619 -7.8335,-11.0022 -12.863,-22.171 -19.4057,-43.0927 -6.4202,-20.5303 -9.9996,-27.8377 -19.9889,-40.8084 -5.3226,-6.9111 -9.7616,-11.0778 -14.138,-13.2716 -3.5089,-1.7588 -6.7754,-3.7403 -7.2593,-4.4037 -0.4933,-0.6764 -1.1071,-0.6764 -1.3985,0 -0.2853,0.6634 -2.9917,2.4632 -6.0139,3.9998 -3.0222,1.5369 -6.7032,4.8374 -8.1796,7.3345 -3.0905,5.2261 -4.5247,5.6282 -6.5554,1.8381 -3.5388,-6.6051 -0.2844,-17.202 8.0276,-26.1408 6.8199,-7.3338 12.1036,-9.3087 22.8486,-8.5408 14.8562,1.0617 23.003,6.1299 39.4956,24.5722 11.0723,12.3809 17.1286,23.5917 24.8883,46.0712 6.775,19.6259 9.1799,24.4432 19.3165,38.6871 12.4875,17.547 15.1742,25.7633 16.2183,49.594 0.8944,20.4195 -1.1906,27.213 -10.8397,35.322 -7.5272,6.3253 -14.9053,7.7544 -24.2768,4.7013 z m 441.1817,266.6003 c -2.3313,-19.3097 -14.0633,-55.5085 -22.6443,-69.8677 -0.931,-1.558 -5.3201,-9.1577 -9.7534,-16.8875 -4.4332,-7.7304 -9.6254,-15.5237 -11.538,-17.3185 -1.9128,-1.7948 -3.4775,-3.7186 -3.4775,-4.2749 0,-0.5565 -5.5814,-9.1911 -12.4036,-19.1875 -13.689,-20.0599 -31.082,-41.7685 -48.8909,-61.0222 -18.2124,-19.6904 -32.7876,-47.4524 -40.8638,-77.8367 -10.5541,-39.7046 -8.6186,-55.273 12.4189,-99.906 13.6354,-28.9288 15.9498,-36.1837 16.7028,-52.3568 0.5215,-11.1972 0.096,-15.3121 -2.4547,-23.7491 -5.2337,-17.3125 -14.5321,-34.318 -30.7867,-56.307 -18.4774,-24.9953 -23.2291,-34.0574 -26.0578,-49.6959 -4.9454,-27.34115 2.6848,-56.14595 21.3215,-80.49235 8.5197,-11.1301 29.8818,-30.5083 46.4161,-42.1057 14.3856,-10.0904 14.3691,-10.0645 4.9749,-7.8773 -4.514,1.0508 -10.5449,2.2812 -13.4025,2.7339 -4.4024,0.6973 -6.7748,2.6804 -15.5414,12.9929 -26.755,31.4719 -47.7666,46.2263 -74.1616,52.0768 -6.0034,1.3306 -8.4762,2.5856 -9.2684,4.7033 -5.7904,15.4825 -7.7019,19.9634 -9.3249,21.8577 -2.6083,3.0453 -2.3683,8.7322 0.9157,21.6699 5.4842,21.60895 17.8431,43.22425 37.0709,64.83565 15.3912,17.2987 24.4579,39.384 24.4579,59.5749 0,12.4946 -2.341,23.4134 -10.5896,49.3925 -12.9668,40.8372 -14.4175,46.0056 -16.0566,57.2026 -3.3658,22.9946 4.0335,52.7686 22.0284,88.6399 12.8987,25.7126 17.6077,32.405 52.1981,74.188 6.9973,8.4519 17.7796,21.6536 23.9611,29.3371 6.1813,7.6834 13.8715,16.7991 17.0897,20.2568 7.1727,7.7074 21.8554,26.0548 21.8554,27.3114 0,0.5043 2.8283,4.0599 6.2855,7.9006 3.4573,3.8412 9.4825,12.27 13.3895,18.7311 6.918,11.4402 31.2823,61.6836 34.9645,72.1028 1.0117,2.8618 1.9905,5.0527 2.1754,4.8679 0.1857,-0.1857 -0.27,-5.3554 -1.0106,-11.4906 z m -1350.4924,-8.6346 c 8.4402,-5.8226 22.3215,-21.4148 27.1401,-30.4856 5.3142,-10.0034 11.7655,-27.282 10.7803,-28.8741 -0.3867,-0.6251 -1.2935,-1.1363 -2.0153,-1.1363 -3.1226,0 -20.1059,-9.0581 -26.6051,-14.1898 -9.3576,-7.3884 -17.564,-20.2165 -19.7759,-30.9126 -1.6623,-8.0398 -1.7751,-8.198 -2.6837,-3.7599 -1.1905,5.8139 0.5705,24.6186 4.5103,48.1639 4.0374,24.1301 4.0285,40.4978 -0.028,52.3881 -1.7042,4.9944 -3.9955,10.4732 -5.0916,12.1749 -1.0966,1.7017 -1.9935,3.4389 -1.9935,3.8604 0,1.2912 10.1788,-3.3772 15.7628,-7.229 z m 1116.6391,-25.2211 c -0.8873,-23.5642 -3.5666,-38.3764 -10.0449,-55.5316 -5.6266,-14.8982 -19.6599,-40.716 -28.3262,-52.1117 -21.9816,-28.9054 -65.0278,-56.6465 -96.8577,-62.4198 l -4.8947,-0.888 -4.6714,10.0541 c -2.8808,6.2006 -7.3038,12.6837 -11.5381,16.9137 -3.7768,3.7727 -6.8668,7.224 -6.8668,7.6696 0,1.4878 14.5325,20.5057 28.0939,36.7652 20.3849,24.4406 37.8789,41.4304 85.8888,83.4109 8.6341,7.55 48.0614,37.8716 49.4974,38.0662 0.3015,0.039 0.1765,-9.8269 -0.2803,-21.9286 z m -952.2428,-26.5433 c -0.2329,-23.2006 10.1573,-42.1715 28.082,-51.2709 l 6.2565,-3.1763 -11.7971,-5.7829 c -6.4884,-3.1804 -16.0532,-8.9814 -21.2548,-12.8904 -14.892,-11.1913 -29.6938,-31.8449 -34.6291,-48.3191 l -1.7482,-5.8359 -10.1552,-0.9505 c -5.5856,-0.5229 -22.3349,-0.6785 -37.2207,-0.3457 -23.7044,0.53 -28.0455,0.9879 -34.9596,3.6888 -20.5566,8.0295 -32.4021,24.528 -34.36,47.857 -1.0709,12.7586 0.4199,20.8445 5.1601,27.9875 13.1263,19.7814 64.6299,31.0591 88.6951,19.4222 11.2394,-5.4349 14.6405,-16.2626 7.3851,-23.5102 -3.5299,-3.5261 -4.6419,-3.8009 -15.3126,-3.7835 -9.7382,0.023 -13.7014,0.8133 -25.7884,5.1915 -7.872,2.8513 -14.6408,4.5931 -15.0811,3.8809 -1.4878,-2.4045 8.795,-20.3799 14.7143,-25.7218 8.7215,-7.8706 14.1805,-9.776 27.9351,-9.7504 8.9752,0.023 13.4715,0.731 18.3524,2.9159 26.5115,11.8665 32.0961,42.5355 11.5507,63.4302 l -6.3291,6.4366 4.9284,0.7993 c 8.235,1.3347 27.9282,11.3132 31.6887,16.0566 1.8938,2.3889 3.5678,4.378 3.7197,4.4204 0.1536,0.044 0.2292,-4.7947 0.1674,-10.7493 z m 183.944,-8.3822 c -2.1235,-2.8813 -4.0436,-5.5005 -4.2669,-5.821 -0.2223,-0.32 -0.4064,0.1032 -0.4064,0.9407 0,1.5367 6.6897,10.1192 7.8878,10.1192 0.3553,0 -1.0911,-2.3577 -3.2145,-5.2389 z m 675.027,-9.121 c 0,-0.2132 -4.2483,-4.4578 -9.4403,-9.4298 l -9.4403,-9.0403 9.0501,9.43 c 8.4063,8.7586 9.8305,10.0683 9.8305,9.0401 z m -358.0314,-6.5918 c 0,-4.1101 -11.5605,-34.4542 -14.6859,-38.5474 -3.488,-4.5678 -11.7943,-9.9328 -18.504,-11.9515 -3.5377,-1.0645 -5.9967,0.5645 -19.9553,13.2184 -4.9999,4.5325 -11.7462,10.1518 -14.9917,12.4873 l -5.9012,4.2467 2.3325,3.9439 c 3.3688,5.6967 11.2429,8.2295 30.371,9.7694 16.8016,1.3519 32.5769,4.257 36.9401,6.8018 2.9931,1.7457 4.3945,1.7558 4.3945,0.03 z m 332.8572,-20.0441 c 0,-0.2652 -1.4159,-1.6795 -3.1469,-3.1432 l -3.1465,-2.6612 2.6642,3.1434 c 2.5037,2.9539 3.6292,3.7791 3.6292,2.661 z m -269.7991,-26.7599 c -2.8775,-9.9885 -7.3402,-21.8656 -9.9165,-26.3933 -4.8092,-8.4515 -15.3653,-20.4067 -18.019,-20.4067 -0.819,0 -3.4937,-2.2003 -5.9436,-4.8894 -2.4498,-2.6894 -5.0372,-4.8897 -5.7499,-4.8897 -1.3407,0 -11.3058,8.3953 -35.6537,30.0361 l -14.1461,12.573 4.7996,1.0271 c 2.6399,0.565 8.0297,2.6619 11.9775,4.6604 5.9149,2.9938 10.16,3.844 24.1356,4.8335 13.7947,0.9765 18.8709,1.9781 27.2125,5.3689 10.5069,4.271 19.056,9.4853 23.3833,14.2617 1.3432,1.4825 2.6021,2.5344 2.7974,2.3375 0.1948,-0.1971 -1.999,-8.5303 -4.8771,-18.5191 z m 260.0093,15.611 c 0,-0.2503 -1.7309,-1.9792 -3.8461,-3.8418 l -3.846,-3.3867 3.3906,3.8416 c 3.1689,3.5907 4.3015,4.4826 4.3015,3.3869 z m -1037.1994,-8.3047 c 2.3997,-1.7063 8.3114,-6.6764 13.1373,-11.0443 8.908,-8.0627 16.4857,-11.782 21.3928,-10.5 2.0636,0.5391 2.9053,-0.1788 3.5276,-3.0046 3.3014,-15.0052 8.4389,-25.4978 18.5189,-37.8253 3.1322,-3.8302 3.9888,-5.7019 2.6096,-5.7019 -1.1293,0 -7.2439,-2.5952 -13.5882,-5.7674 -12.8001,-6.3995 -29.2324,-20.7869 -37.1725,-32.5457 l -4.6455,-6.8802 -1.3739,3.6106 c -4.4851,11.7834 -6.1815,26.7931 -7.0684,62.5379 -0.8334,33.5912 -1.2029,37.7327 -3.9877,44.7043 -1.6881,4.226 -3.0694,7.8252 -3.0699,7.9983 0,0.8932 7.9206,-2.8801 11.7199,-5.5817 z m 1028.808,-1.4745 c 0,-0.2503 -1.7306,-1.9791 -3.8461,-3.8419 l -3.8462,-3.3865 3.3908,3.8415 c 3.1687,3.5909 4.3015,4.4827 4.3015,3.3869 z m -8.3912,-9.8515 c 0,-0.2902 -1.1016,-1.3902 -2.4476,-2.4449 -2.2181,-1.7379 -2.2678,-1.6884 -0.5281,0.5275 1.8269,2.327 2.9757,3.0671 2.9757,1.9174 z m -215.5066,-13.8376 4.5209,-6.6812 -10.4961,-4.8443 c -5.7728,-2.6644 -10.8596,-4.844 -11.3045,-4.844 -0.4447,0 0.6773,2.3575 2.4932,5.239 1.8158,2.8812 4.6634,8.3219 6.328,12.0902 1.6643,3.7686 3.2315,6.5978 3.482,6.2867 0.2505,-0.3105 2.4902,-3.5718 4.9765,-7.2464 z m -323.7041,4.3615 c 1.9591,-0.8916 3.562,-2.1691 3.562,-2.8388 0,-2.7632 -4.2879,-10.7441 -10.2524,-19.0834 l -6.3479,-8.8748 -4.9861,10.267 c -5.0877,10.4757 -6.5254,19.9013 -3.238,21.2262 3.4037,1.3718 17.7506,0.9021 21.2624,-0.6962 z m 343.6517,-28.6312 c 1.4065,-1.2714 2.5436,-3.9432 2.5269,-5.9371 -0.03,-3.7498 -4.2201,-14.104 -6.965,-17.2192 -0.8596,-0.9754 -5.2298,-7.0203 -9.7121,-13.4328 -8.3981,-12.0158 -27.4948,-33.7439 -29.6574,-33.7439 -0.6714,0 -3.5249,3.615 -6.3415,8.0331 -2.8164,4.4179 -9.8891,13.9852 -15.7165,21.261 -15.9445,19.9061 -15.0164,17.7952 -8.8984,20.2451 2.9126,1.1662 6.2397,2.7639 7.3936,3.5503 5.6919,3.8788 14.9234,6.9776 24.8214,8.3314 6.024,0.824 16.9063,3.6234 24.1835,6.2211 15.8835,5.6704 15.1833,5.5679 18.3655,2.691 z m -648.197,-40.6504 c 0.4309,-21.3215 7.875,-44.4992 18.2736,-56.8986 l 3.4933,-4.1651 -3.9543,-2.8198 c -18.616,-13.2758 -35.8253,-37.6213 -43.3132,-61.2744 l -3.1657,-9.9996 -13.0763,-2.3738 c -16.2343,-2.9468 -32.8213,-3.1061 -50.2477,-0.482 -17.2149,2.5922 -26.4757,6.1221 -39.2366,14.9573 -14.8959,10.3127 -18.5583,14.2279 -23.6684,25.3021 -3.8713,8.39 -4.6641,11.9304 -5.2108,23.268 -1.1353,23.5552 5.0842,40.3104 20.7851,55.9939 13.7001,13.6851 24.2073,18.5207 41.8815,19.2753 15.807,0.6745 22.2116,-1.3504 26.5011,-8.3786 9.1499,-14.9908 -4.3828,-29.4314 -36.3883,-38.8297 -14.6644,-4.3063 -15.4863,-5.4531 -8.3089,-11.5897 14.4053,-12.3172 36.1174,-9.7096 54.06,6.4924 15.1462,13.6771 20.5958,27.48 16.7425,42.4064 -1.1461,4.4399 -2.4776,9.0799 -2.9588,10.3113 -0.7477,1.9139 0.9485,2.3765 11.6823,3.1859 13.2402,0.9987 34.1129,5.751 34.9021,7.9469 0.2565,0.7133 0.571,1.2951 0.6993,1.293 0.1284,0 0.3569,-6.1318 0.5082,-13.6212 z m 687.8375,7.9036 c 4.2191,-2.3781 7.9574,-4.7876 8.3081,-5.3542 0.3505,-0.5662 -3.4334,-4.9995 -8.409,-9.8508 -12.1962,-11.8932 -33.0569,-43.0602 -50.2372,-75.0568 l -3.9049,-7.2723 -7.3232,15.8973 c -4.028,8.7435 -9.6074,19.9767 -12.3986,24.9621 -2.7911,4.9857 -5.0751,9.3188 -5.0751,9.629 0,0.5047 4.7664,2.7474 23.0764,10.8573 10.6235,4.7053 30.1021,19.8893 38.8625,30.2946 4.7317,5.6201 8.7893,10.2185 9.0167,10.2185 0.2292,0 3.8653,-1.9461 8.0843,-4.3247 z m -287.9269,-21.5312 c 1.3689,-3.5627 -3.3693,-8.8808 -13.8995,-15.6021 -12.2523,-7.8199 -17.4814,-12.1008 -21.6116,-17.6916 l -3.147,-4.2591 v 7.312 c 0,12.1666 8.2578,24.2926 20.2481,29.7331 7.0257,3.1882 17.2719,3.4706 18.41,0.5077 z m -607.7935,-9.4742 c 4.1876,-2.0849 11.9072,-7.7193 17.1548,-12.5203 l 9.5414,-8.729 -1.4651,-6.2865 c -2.1849,-9.3726 -1.8503,-31.7176 0.6179,-41.2677 1.1835,-4.5797 3.9623,-12.2126 6.1751,-16.9627 l 4.0237,-8.6355 -4.2545,-1.4816 c -2.3399,-0.8149 -7.412,-3.422 -11.271,-5.7942 -3.9256,-2.4125 -8.1597,-4.014 -9.6115,-3.6346 -1.4271,0.3731 -2.9769,0.062 -3.4431,-0.6932 -1.1908,-1.9245 -7.282,4.0812 -10.5036,10.3567 -4.2272,8.2344 -7.9731,26.4734 -10.1575,49.4587 -2.2596,23.7757 -3.789,28.3592 -14.0863,42.2263 l -6.6117,8.9032 13.1386,-0.5737 c 10.754,-0.4699 14.5211,-1.2623 20.7528,-4.3659 z m 424.1521,0.057 c 4.4017,-4.4103 8.6894,-18.5166 6.8527,-22.5432 -0.7752,-1.6996 -7.2192,-7.1454 -14.3201,-12.1019 -16.8048,-11.7297 -25.8657,-19.1376 -25.8657,-21.1462 0,-0.8882 3.7763,-2.503 8.3916,-3.5886 10.9384,-2.573 29.9458,-1.3946 40.3753,2.503 9.7445,3.6421 20.5974,13.29 24.6747,21.9363 2.7926,5.9211 3.0553,8.1457 2.3912,20.2719 -0.7314,13.3624 -0.6867,13.621 2.3582,13.621 2.912,0 3.069,-0.4968 2.5377,-8.0327 -1.073,-15.2161 6.4043,-36.9103 17.2989,-50.1913 2.6773,-3.2636 8.9358,-8.605 13.9077,-11.8707 4.9722,-3.2652 9.0401,-6.4735 9.0401,-7.1295 0,-3.6113 -3.2429,-6.311 -8.6105,-7.1683 -8.7366,-1.3955 -18.8352,-7.4727 -26.2772,-15.8132 -6.154,-6.8969 -7.3434,-7.5685 -18.3118,-10.3393 -23.0152,-5.8136 -45.8326,-1.568 -60.4435,11.2461 -17.9866,15.7753 -18.8847,53.1042 -2.0698,86.0272 7.717,15.11 20.6817,21.7236 28.0705,14.3194 z m -82.3256,-88.3613 c 3.1749,-11.7089 8.2843,-22.3718 14.9396,-31.1767 l 5.6812,-7.5167 -5.394,-5.5819 c -2.9667,-3.0696 -9.2511,-8.3526 -13.9659,-11.7393 -27.8402,-19.9978 -85.5883,-33.7028 -103.516,-24.5667 -12.6759,6.4595 -20.2611,20.4511 -20.4243,37.6754 -0.1857,19.5482 11.7168,43.618 27.0574,54.7185 5.2185,3.7764 21.4271,8.3259 23.2333,6.521 0.5078,-0.5073 -1.32,-3.2682 -4.0619,-6.1354 -12.8833,-13.4711 -24.1576,-33.0613 -28.2665,-49.1154 -2.8157,-11.0003 -1.8723,-12.4552 6.4694,-9.976 20.7927,6.1795 35.7174,14.9246 49.9777,29.2829 12.675,12.7628 18.2518,22.4582 19.2512,33.4677 l 0.7238,7.9744 8.1381,2.3956 c 4.4762,1.3177 9.9079,3.9205 12.0713,5.7842 l 3.9331,3.3881 0.9398,-13.5089 c 0.5169,-7.4298 1.9628,-17.2808 3.2127,-21.8908 z m 216.8881,1.1871 c 5.3448,-25.8428 25.0643,-50.5682 49.8305,-62.4806 7.1699,-3.4487 17.8225,-7.4082 23.6721,-8.7982 l 10.6356,-2.528 -24.6213,-7.3684 c -13.5416,-4.053 -31.8588,-9.3218 -40.7044,-11.7093 -27.7054,-7.4768 -82.3766,-23.4239 -102.7942,-29.9841 -10.7691,-3.4598 -29.9644,-9.6557 -42.6563,-13.7688 -35.0899,-11.3714 -57.6984,-17.9845 -61.1868,-17.8972 -1.7309,0.041 -3.147,-0.4777 -3.147,-1.1573 0,-0.6792 -1.1013,-0.3422 -2.4475,0.7495 -1.346,1.0916 -4.5204,3.6792 -7.0539,5.7502 -8.8301,7.2171 -13.0541,20.3145 -10.0936,31.2974 1.8374,6.8167 13.3161,19.0415 35.3067,37.6021 6.7144,5.6669 11.9261,10.7592 11.5816,11.3157 -0.3445,0.5563 -5.8395,1.425 -12.2115,1.9298 -15.3442,1.2155 -18.291,2.0652 -17.0759,4.9242 0.5285,1.2435 1.2689,5.5326 1.6455,9.5313 l 0.6844,7.2705 6.4754,-4.9403 c 8.2965,-6.3296 23.7358,-13.7431 34.3905,-16.5137 14.4285,-3.7518 42.2996,-2.3607 55.6487,2.7777 1.7304,0.6661 2.4476,0.2585 2.4476,-1.3909 0,-4.4631 7.5543,-17.7061 12.8008,-22.4407 13.5039,-12.1866 25.9806,-14.8347 54.3301,-11.531 18.9328,2.2064 21.3811,4.6453 7.5018,7.4731 -10.8525,2.2115 -26.5573,8.7639 -33.2788,13.8848 -6.3039,4.8033 -10.4736,12.5925 -11.5358,21.5491 l -0.7956,6.7101 9.777,9.6094 c 13.1112,12.8864 19.0765,24.3527 19.1714,36.851 l 0.071,9.0804 10.4889,0.1696 c 5.7692,0.094 12.692,1.1044 15.3841,2.2461 2.6924,1.1419 5.0946,1.9137 5.3382,1.7159 0.2439,-0.1971 1.3341,-4.6666 2.4226,-9.9297 z m -499.7835,-32.2707 c 3.7159,-4.3221 3.9334,-7.197 1.6878,-22.2957 -1.6357,-10.9987 -1.8145,-15.6745 -0.6934,-18.1324 1.478,-3.2402 1.6095,-3.262 6.0671,-1.0099 11.5255,5.823 22.0385,17.9614 22.0385,25.4458 0,2.536 0.5618,3.1533 2.2731,2.497 4.2912,-1.6448 26.0663,-5.0154 32.5243,-5.0347 3.553,0 7.8992,-0.4041 9.6582,-0.8747 2.6124,-0.6991 1.5816,-1.3996 -5.6245,-3.8226 -18.1333,-6.0976 -43.5621,-24.1927 -56.583,-40.2649 -8.4343,-10.4103 -18.076,-29.4323 -19.4046,-38.2837 -1.0929,-7.2793 -2.8819,-7.7045 -12.8574,-3.0546 -8.4624,3.9444 -20.0195,15.4096 -24.5647,24.3692 -5.1367,10.1254 -8.2474,23.436 -8.2779,35.4194 -0.05,19.2244 8.1947,31.228 28.7373,41.8453 12.2874,6.3509 21.3153,7.5044 25.0192,3.1965 z m 119.0411,-22.3523 c 0.9373,-11.9672 4.6112,-24.0052 10.3042,-33.7664 7.0933,-12.1613 11.4801,-16.6624 28.4105,-29.1512 0.378,-0.279 -0.3017,-1.0599 -1.5101,-1.7359 -5.7774,-3.2294 -18.4359,-14.9032 -27.2133,-25.0958 -17.3959,-20.2015 -23.5669,-34.5418 -22.7967,-52.9759 l 0.4408,-10.549 -19.5581,-3.9114 c -29.1914,-5.8374 -41.2751,-3.9402 -49.8035,7.8202 -5.1576,7.1124 -8.0265,16.6065 -9.6814,32.0418 -3.8229,35.6572 9.9748,59.561 44.4256,76.9657 8.1844,4.1348 12.6926,4.6712 13.8536,1.6483 1.9346,-5.0352 -2.8412,-11.8067 -21.1716,-30.0208 -10.3989,-10.333 -18.6878,-19.4487 -18.4198,-20.257 0.2679,-0.8082 5.7856,-1.9802 12.2614,-2.6041 35.2203,-3.3935 60.0724,12.1251 65.6552,40.9981 4.6859,24.2349 -10.3028,48.2458 -32.6753,52.3432 l -8.6183,1.5786 8.3914,0.9442 c 4.6153,0.5194 12.1675,2.1489 16.7828,3.6218 4.6153,1.4727 8.77,2.7348 9.2328,2.805 0.463,0.071 1.2234,-4.7448 1.6898,-10.6994 z m 624.2851,-16.4385 c -2.2584,-6.5606 -4.2884,-7.8557 -32.9925,-21.051 -11.0794,-5.093 -34.9945,-16.4997 -53.1454,-25.3484 -40.8737,-19.9262 -45.7821,-22.0513 -95.9363,-41.5356 -42.7674,-16.6145 -55.9364,-21.4583 -88.8086,-32.6665 -99.385,-33.8851 -236.136,-90.40555 -231.044,-95.49205 2.9743,-2.9711 53.4139,4.0674 83.4958,11.651 18.3758,4.6325 40.0679,11.9509 74.8231,25.2441 18.0763,6.9136 46.7118,17.5608 63.6344,23.66025 45.2581,16.3122 66.5244,24.4526 85.3123,32.6558 30.084,13.1358 65.1236,29.8583 82.3862,39.3176 23.6189,12.9425 84.8935,48.4587 96.4385,55.8979 5.2793,3.402 9.8778,5.9067 10.2189,5.5658 0.3408,-0.3406 -0.1284,-7.2664 -1.0441,-15.3907 -1.6421,-14.5761 -1.7024,-14.7441 -4.5864,-12.7266 -3.7355,2.6138 -10.3979,2.6081 -16.6798,-0.023 -4.5484,-1.8984 -51.1518,-38.2876 -72.3307,-56.478 -26.2751,-22.5674 -66.0469,-59.49925 -96.6553,-89.75335 -53.5853,-52.9651 -125.201,-138.8903 -153.1471,-183.747 -18.3311,-29.4236 -42.6343,-75.3877 -51.5001,-97.4015 -11.567,-28.7206 -23.1635,-71.2111 -23.1635,-84.8733 0,-4.1704 -0.1513,-4.0776 -7.3425,4.53 -23.9541,28.6678 -33.1507,38.6174 -44.0926,47.7011 -6.7208,5.5798 -19.1382,17.4498 -27.594,26.3777 -12.7068,13.4168 -18.1516,20.6866 -31.3891,41.9104 -23.8417,38.2253 -30.9917,56.0387 -35.8213,89.2425 -2.958,20.3375 -2.0205,46.2859 2.6241,72.6133 3.5327,20.0246 3.2815,25.5141 -1.4649,32.0548 -4.1293,5.6905 -14.1168,9.9136 -25.7252,10.8781 -11.9832,0.9957 -17.3499,2.9322 -22.5657,8.1418 -4.6031,4.5981 -5.9472,10.937 -3.9168,18.4698 1.3615,5.0499 2.5899,6.2736 10.8545,10.8114 5.1258,2.8146 12.8251,7.8092 17.1097,11.0992 15.1232,11.6134 28.0675,19.0231 53.4553,30.5988 37.9906,17.32255 72.9358,30.05095 98.3868,35.83615 17.7114,4.026 55.6687,14.5607 75.5223,20.9604 9.2303,2.9757 21.8173,6.7564 27.971,8.4017 6.1538,1.6451 16.538,4.8122 23.0762,7.0372 19.705,6.7069 60.0632,16.6759 93.0043,22.9743 17.5894,3.3627 85.3694,20.5715 115.3207,29.2788 23.328,6.7814 39.8585,12.4636 83.9741,28.8638 4.2307,1.5729 11.468,5.1932 16.0835,8.0453 4.615,2.8522 8.5665,4.5192 8.7806,3.7046 0.2132,-0.8146 -0.4727,-3.9854 -1.5264,-7.0459 z m -486.9498,-72.5159 c 2.1413,-4.5215 6.8779,-11.3141 10.5256,-15.0941 3.6478,-3.7802 5.9161,-7.1089 5.0407,-7.397 -0.8751,-0.2882 -10.0254,-3.6989 -20.334,-7.5798 -10.3081,-3.8806 -19.0422,-7.0557 -19.4082,-7.0557 -0.3661,0 1.9882,2.8757 5.2319,6.391 6.7653,7.3315 12.327,18.6213 12.6804,25.7403 0.6925,13.9474 -0.089,19.24 -3.606,24.4169 -1.9609,2.8865 -3.377,5.3652 -3.1469,5.5085 0.2304,0.1421 1.9923,0.9221 3.9152,1.7315 l 3.4965,1.4716 0.8557,-9.9561 c 0.5645,-6.5691 2.1803,-12.7531 4.7491,-18.1771 z m 488.4867,-24.9149 2.6181,-5.9252 -13.3968,-0.023 c -11.4791,0 -14.5078,-0.5302 -21.158,-3.6363 -4.8046,-2.2438 -9.5214,-5.8449 -12.3825,-9.453 -5.7164,-7.2098 -12.634,-23.0876 -12.6844,-29.1158 -0.034,-4.0622 -0.797,-4.8688 -7.8853,-8.3355 -12.0173,-5.87805 -23.0367,-17.37145 -27.5578,-28.74335 -2.065,-5.1949 -3.7545,-11.5142 -3.7545,-14.0436 0,-4.2533 -0.5263,-4.7881 -7.0012,-7.1137 -9.2386,-3.3189 -19.937,-13.1126 -24.5,-22.4284 -2.9748,-6.0738 -3.6026,-9.159 -3.312,-16.2737 0.3374,-8.2605 0.1582,-8.8328 -3.052,-9.6901 -7.2455,-1.9357 -12.5372,-5.8311 -22.1559,-16.3099 -12.8294,-13.9767 -17.6031,-23.3735 -17.5873,-34.619 0,-4.6103 0.5313,-9.4438 1.1661,-10.7416 0.9514,-1.946 0.2131,-2.5202 -4.2078,-3.2755 -12.4327,-2.1239 -16.4023,-3.8492 -22.964,-9.9801 -9.3193,-8.7077 -12.4664,-17.4154 -12.4664,-34.4932 0,-11.0752 0.5127,-13.9925 3.4905,-19.8552 1.9197,-3.7802 3.4932,-6.9017 3.4964,-6.9372 0,-0.034 -5.8156,0.1788 -12.9307,0.4775 -12.0889,0.5068 -13.4385,0.2785 -20.5958,-3.4839 -16.0537,-8.4381 -25.7186,-27.9339 -22.6929,-45.7736 0.7871,-4.638 1.8156,-9.394 2.2862,-10.5685 0.7018,-1.7526 -0.1628,-2.0384 -4.8211,-1.5947 -8.5308,0.8126 -15.2601,-4.301 -22.9682,-17.4543 -7.2093,-12.3021 -9.8059,-22.5689 -8.8177,-34.8659 l 0.692,-8.6094 -5.7062,-0.9111 c -20.5394,-3.281 -35.4079,-30.0439 -30.3127,-54.5609 1.0613,-5.1056 3.769,-10.974 7.7324,-16.7566 l 6.0997,-8.8994 -7.2646,3.3785 c -8.4757,3.9418 -21.2282,4.5721 -27.4525,1.3571 -6.4197,-3.316 -15.408,-14.5034 -16.3423,-20.3409 -0.5849,-3.6532 -1.5114,-5.1401 -3.1285,-5.0214 -1.4572,0.1077 -2.1473,-0.7255 -1.8867,-2.2757 0.3264,-1.9419 -0.5985,-2.4448 -4.4966,-2.4448 -5.8677,0 -14.1908,6.5969 -17.1011,13.5543 -4.4214,10.5701 -1.1738,41.79 7.3736,70.8863 8.2956,28.2395 20.373,54.9554 44.2441,97.8702 26.4472,47.5468 40.7911,67.1822 101.8929,139.4817 54.6379,64.6509 119.72,128.3115 184.4501,180.42135 24.161,19.4505 41.741,34.3285 46.0498,38.9725 l 3.3936,3.6576 2.4899,-9.7947 c 1.3696,-5.387 3.6684,-12.4609 5.1081,-15.7194 z m -533.9671,13.284 c 0,-4.4183 -1.2603,-13.0623 -2.7807,-19.2092 -1.5201,-6.1469 -2.7714,-12.6215 -2.7804,-14.3881 -0.023,-2.6412 -1.943,-4.0979 -10.8554,-8.1956 -24.9255,-11.4599 -42.1236,-20.0422 -44.0818,-21.9984 -1.8525,-1.8504 -2.3447,-1.1749 -4.3521,5.9723 -2.7706,9.8634 -2.777,10.532 -0.1811,19.267 2.4936,8.3875 15.8528,24.6899 27.6997,33.8027 9.9725,7.6709 22.0985,12.7059 30.7042,12.7488 l 6.6434,0.032 -0.023,-8.0327 z m 737.1446,-43.8934 c 5.3428,-2.6088 9.8075,-3.1866 32.08,-4.1546 47.145,-2.0487 68.3519,-7.6091 89.3424,-23.4248 3.2152,-2.42235 2.948,-2.49045 -13.3113,-3.37845 -9.1258,-0.4983 -29.4939,-2.8423 -45.2627,-5.2089 -42.8669,-6.4337 -58.5492,-5.8451 -80.035,3.0052 -11.0088,4.53485 -13.6684,6.30125 -13.6684,9.07755 0,1.8204 22.2534,27.1144 23.855,27.1144 0.4362,0 3.5863,-1.3636 7,-3.0304 z m -199.1339,-2.6775 c 6.6835,-3.2315 11.2339,-8.6793 12.4898,-14.9514 1.1885,-5.936 -5.388,-26.40825 -10.408,-32.39885 l -4.0732,-4.8612 -3.1329,7.2737 c -5.7976,13.463 -22.2998,24.82625 -38.4747,26.49385 -4.233,0.4364 -7.6962,1.1908 -7.6962,1.6769 0,2.1086 9.0275,11.5585 13.0626,13.6742 11.7636,6.1668 28.9931,7.5609 38.2326,3.0928 z m 36.1147,-23.7365 c -2.3075,-0.4429 -5.4542,-1.2224 -6.9929,-1.7318 -2.6069,-0.86325 -2.7642,-0.3999 -2.3138,6.8153 l 0.4832,7.7411 6.5098,-6.0093 6.5095,-6.0096 z m 110.4608,-16.30795 c -3.89,-13.0862 -13.2402,-62.9513 -16.0442,-85.5672 -3.621,-29.201 -6.2473,-108.4455 -5.1157,-154.3706 0.7289,-29.5884 5.211,-109.3918 7.2185,-128.5259 11.0778,-105.5787 21.1862,-194.8209 23.894,-210.9495 4.0619,-24.1945 13.0733,-46.8931 22.5952,-56.914 1.9999,-2.1049 3.3331,-4.13 2.9626,-4.5002 -0.3704,-0.37 -4.913,-2.267 -10.0944,-4.2148 -13.5146,-5.0815 -39.0432,-7.2618 -59.9578,-5.1212 -24.1887,2.4758 -67.2943,14.6343 -77.6762,21.9094 l -3.1554,2.2115 4.7487,4.4736 c 8.0063,7.5426 8.5482,11.9317 5.2122,42.2208 -16.9082,153.5065 -11.4583,321.6047 14.5637,449.2338 4.5057,22.0986 16.0995,71.9791 23.5048,101.126 l 6.0339,23.7496 13.1856,-0.4401 c 14.8723,-0.4963 29.7471,2.6197 41.3865,8.6692 3.7199,1.9334 7.2017,3.5446 7.7371,3.5804 0.5353,0.034 0.087,-2.9212 -0.9991,-6.5708 z m -72.5307,-5.2722 c -0.8459,-1.7906 -1.5702,-3.1444 -1.6094,-3.008 -0.037,0.1353 -1.767,2.5505 -3.8398,5.3657 l -3.7686,5.118 5.3779,-2.1099 c 4.9474,-1.9413 5.2548,-2.3708 3.8399,-5.3658 z m -113.0143,-3.0504 c 6.0465,-3.4664 7.9744,-7.8378 7.8245,-17.7413 -0.1054,-6.9038 -1.3505,-11.2837 -6.5945,-23.1809 -3.5561,-8.0678 -6.4935,-13.4115 -6.5274,-11.8748 -0.096,4.3698 -7.6673,16.5072 -13.4709,21.5972 -8.4599,7.4195 -18.0535,11.2037 -28.4462,11.219 l -9.0153,0.023 4.8197,4.9818 c 6.4486,6.6654 12.521,10.271 25.0871,14.8947 11.6765,4.2967 18.9424,4.3217 26.323,0.089 z m 84.0417,-2.9177 c 2.7655,-2.9168 5.8902,-7.789 6.9437,-10.8268 1.0537,-3.038 3.1643,-6.8914 4.6905,-8.5624 l 2.7749,-3.0382 -6.7883,-17.8501 -6.7882,-17.8504 -0.9939,7.9288 c -0.5469,4.3609 -2.358,11.0955 -4.0246,14.966 -3.75,8.7073 -17.2011,21.5879 -24.9731,23.9137 l -5.4602,1.6343 3.5084,5.2961 c 4.0688,6.1416 11.0581,9.5164 19.9226,9.62 5.3606,0.064 6.8127,-0.6164 11.1882,-5.231 z m 147.6813,-17.9128 c 18.9568,-9.0371 30.6256,-8.8092 87.4101,1.7047 25.8955,4.7952 57.1741,5.1468 73.0797,0.822 11.0844,-3.0138 21.1805,-8.0508 25.3408,-12.6432 2.2454,-2.478 1.6474,-2.6598 -16.2274,-4.9322 -10.2075,-1.2976 -25.1668,-3.5653 -33.2437,-5.0394 -57.8501,-10.5579 -67.3182,-11.6041 -106.2905,-11.7446 -34.0581,-0.1215 -37.5949,0.092 -43.6384,2.65 -4.0356,1.7079 -6.8321,3.8671 -7.2375,5.5878 -0.3638,1.5427 -1.1111,11.2653 -1.6607,21.606 l -0.9999,18.8008 6.8389,-6.0722 c 3.7613,-3.3399 11.244,-8.1727 16.6286,-10.7397 z m -181.8492,-12.0144 c 10.3753,-6.6741 13.1236,-21.7815 8.1604,-44.8533 -2.5492,-11.8489 -4.1624,-13.5167 -13.0739,-13.5167 -3.0506,0 -4.5804,0.988 -6.112,3.9469 -4.6073,8.8991 -18.5413,18.3992 -27.0038,18.4105 h -3.8909 l 4.3026,2.621 c 6.7158,4.0906 17.935,20.8287 22.9299,34.209 1.3042,3.4935 2.0276,3.9045 5.6144,3.1879 2.2647,-0.4524 6.3477,-2.257 9.0733,-4.0106 z m -95.765,-7.43 c 14.5387,-4.04 23.6051,-24.9021 18.8143,-43.2933 -2.6323,-10.1052 -4.9793,-13.8985 -10.8484,-17.5325 l -4.4695,-2.7676 -2.7971,3.7912 c -10.4186,14.1207 -20.2247,21.6938 -34.1326,26.3595 -8.7724,2.9431 -9.2404,3.3248 -9.5852,7.8163 -0.8442,10.9886 10.69,22.2303 26.2359,25.5704 9.0085,1.9358 10.0051,1.9392 16.7826,0.057 z m 499.9789,-32.1371 c 10.2095,-2.6566 26.3152,-10.6091 39.2128,-19.3628 l 9.743,-6.6125 -11.1885,0.891 c -22.1978,1.7679 -32.7025,3.4382 -65.3549,10.3906 -36.4232,7.7558 -50.9482,8.8574 -65.8078,4.9912 -4.3879,-1.1417 -20.4113,-8.2853 -35.6074,-15.8746 -33.3687,-16.6654 -45.083,-20.2513 -63.8609,-19.5471 -11.4803,0.4302 -14.3056,1.1366 -29.0268,7.2588 -18.2637,7.5955 -17.9066,7.1543 -17.9371,22.1583 l -0.023,9.3828 6.2074,-4.1846 c 9.4123,-6.3452 17.7269,-8.3332 38.5467,-9.2156 30.2034,-1.2802 53.4147,1.5236 106.5249,12.8682 41.065,8.7709 72.0024,11.1663 88.5679,6.8563 z m -445.695,-14.5844 c 9.1107,-6.5925 10.6951,-10.8272 10.7239,-28.6662 0.023,-14.5674 -0.204,-15.8079 -4.406,-23.833 -6.6252,-12.6576 -7.6934,-13.1646 -14.5988,-6.9327 -8.5915,7.753 -18.4945,11.8762 -28.5658,11.8922 l -8.4364,0.023 -0.11,7.6836 c -0.1031,7.2114 0.096,7.6833 3.2473,7.6833 10.7047,0 25.7809,14.3036 30.5548,28.9886 1.3111,4.034 3.1614,7.3342 4.1112,7.3342 0.9497,0 4.3164,-1.8736 7.481,-4.1635 z m -95.0902,-11.2114 c 9.3323,-4.2304 13.9132,-8.0095 19.1804,-15.8219 6.0985,-9.0463 6.7053,-18.7125 1.6453,-26.2235 -4.4931,-6.6695 -11.2781,-8.65 -26.8711,-7.8433 -13.176,0.6817 -19.722,2.696 -20.9634,6.4517 -0.4059,1.2282 -2.8856,4.7476 -5.5101,7.8209 -5.0009,5.8562 -4.7224,5.9197 -7.1378,-1.6307 -1.3091,-4.0926 -4.1142,0.4828 -3.9575,6.455 0.2992,11.4017 13.9756,26.061 29.4608,31.5787 6.8723,2.4487 7.036,2.4396 14.1534,-0.7869 z m 145.0943,1.2511 c 0.9377,-1.5154 7.2001,-1.07 12.0795,0.8588 2.1752,0.8598 2.1346,0.1055 -0.4651,-8.6123 -5.352,-17.9463 -14.873,-57.0678 -17.404,-71.5114 l -2.5266,-14.4212 -4.7971,5.7685 c -4.9226,5.9197 -16.1684,12.6323 -21.1633,12.6323 -2.3078,0 -1.7246,1.0815 3.2796,6.0795 9.1141,9.1043 17.5113,27.0228 18.5666,39.619 l 0.8442,10.0745 5.7455,-0.7539 c 3.9001,-0.5119 6.6351,-0.087 8.5154,1.3182 2.6729,1.9999 2.6857,2.2482 0.3674,7.1041 -1.3212,2.7674 -4.3581,6.22 -6.7488,7.6724 -4.0007,2.4301 -4.1412,2.7597 -1.7663,4.1389 3.3195,1.9275 4.2971,1.9332 5.473,0.032 z m 335.2894,-19.3961 c 51.1492,-12.1123 70.5377,-14.9743 113.5531,-16.7631 46.7575,-1.9444 49.801,-2.5408 64.9389,-12.7274 6.59,-4.4342 15.1288,-10.7111 18.9748,-13.9476 5.9883,-5.0403 6.4465,-5.7525 3.1886,-4.961 -2.0923,0.5084 -13.4206,2.1948 -25.1741,3.7477 -37.6578,4.9754 -54.1893,8.2002 -89.2001,17.4005 -35.3988,9.3021 -54.8304,13.2721 -64.9595,13.2721 -17.5275,0 -33.5603,-6.4235 -53.0524,-21.2554 -7.0145,-5.338 -14.9988,-10.8658 -17.7432,-12.2844 -4.9162,-2.5414 -16.9631,-4.5445 -37.7879,-6.2831 -20.4264,-1.7056 -50.4393,4.4677 -55.5071,11.417 -3.8096,5.2237 -8.0081,3.621 -6.7662,-2.5825 2.7182,-13.5754 24.3987,-27.8968 49.4926,-32.693 13.0424,-2.4927 32.725,-2.4597 46.9816,0.078 l 11.0031,1.9589 3.6487,-4.4526 c 9.0423,-11.0333 34.0051,-32.8284 61.755,-53.9165 48.8357,-37.1127 131.9597,-88.5635 206.2875,-127.6844 26.7739,-14.0922 31.7593,-17.1101 55.9426,-33.8651 17.9988,-12.4701 21.4262,-15.1954 47.9794,-38.1499 27.9456,-24.1582 34.5312,-33.4612 36.1811,-51.1114 1.0881,-11.6396 -1.3519,-21.1667 -8.087,-31.5754 -7.4905,-11.5769 -16.0296,-19.4986 -27.5186,-25.5293 -9.6165,-5.048 -33.2329,-13.5501 -44.746,-16.1095 l -5.981,-1.3297 1.0776,5.0987 c 2.2252,10.5316 1.0418,35.2377 -2.2514,47.0011 -7.2803,26.0055 -26.4422,54.9723 -59.8131,90.419 -53.683,57.0231 -96.8155,90.0291 -184.3861,141.0965 -65.5986,38.2546 -119.5518,70.7795 -127.9681,77.1439 -14.3577,10.8569 -32.0255,21.9959 -33.4721,21.1026 -2.8092,-1.7342 20.9227,-34.2747 36.269,-49.7312 23.5208,-23.6896 48.2393,-40.8457 127.269,-88.3337 33.3274,-20.0259 42.1971,-26.0002 74.8229,-50.3996 31.222,-23.3496 43.8521,-34.462 72.8505,-64.0961 28.1223,-28.7387 42.2749,-46.51 52.3239,-65.7021 9.2622,-17.6891 11.1913,-25.096 11.1544,-42.8284 -0.048,-23.0455 -4.0945,-29.1062 -31.3561,-46.9628 -15.1093,-9.8967 -22.7044,-13.1811 -30.5159,-13.1969 -3.7795,0 -3.8398,0.1192 -2.7971,5.9293 0.5859,3.2655 1.0074,12.2239 0.9364,19.9077 -0.1811,19.6093 -6.0353,40.3621 -17.1431,60.7704 -28.4057,52.1891 -76.9338,99.0249 -170.8342,164.8777 -51.5663,36.1637 -83.9876,62.8278 -122.8852,101.0631 -20.1227,19.7796 -30.5649,32.1944 -42.464,50.4838 l -6.3626,9.7791 -1.6132,32.1313 c -0.8875,17.6722 -1.9992,35.8224 -2.4705,40.3332 l -0.857,8.2018 8.9582,-7.2577 c 11.685,-9.4666 31.4458,-19.0256 43.6261,-21.1035 18.9358,-3.2301 37.3474,1.6128 66.0281,17.3687 31.3664,17.2309 41.9315,20.1674 58.4697,16.2514 z m 208.6551,-15.4939 c 14.1481,-10.1651 21.2266,-17.5314 36.1201,-37.5897 11.6316,-15.6653 13.9355,-20.072 7.5793,-14.4977 -1.7276,1.5154 -6.4955,4.2685 -10.5958,6.1178 -6.8052,3.0699 -8.3448,4.7099 -17.6854,18.8393 -5.6268,8.512 -14.8594,20.4473 -20.5167,26.5224 -11.354,12.1925 -11.0725,12.2262 5.0985,0.6079 z m -625.2086,-21.9174 c 3.9885,-2.1888 8.7471,-6.3856 11.1887,-9.8667 4.0867,-5.828 4.2476,-6.6227 4.2476,-20.9556 0,-17.577 -2.071,-22.9419 -10.1596,-26.318 -14.4232,-6.0197 -37.4863,9.491 -45.4522,30.5681 l -3.5409,9.369 4.6061,1.5186 c 4.5561,1.5018 18.8835,15.2183 18.8835,18.0785 0,3.0745 13.0846,1.5261 20.2268,-2.3939 z m -107.8996,-13.3884 c 5.4494,-2.2747 33.6946,-25.9443 65.9367,-55.2549 8.7975,-7.9978 55.9634,-46.7528 71.1148,-58.4335 6.7823,-5.2288 18.8024,-10.1476 24.7974,-10.1476 4.8733,0 4.8069,0.7899 2.2802,-27.1273 -0.9572,-10.5788 -2.2747,-18.2596 -3.1831,-18.561 -4.5401,-1.506 -53.5232,29.6319 -104.7407,66.5828 -39.9985,28.8567 -69.6592,49.0351 -75.8303,51.5886 -3.7085,1.5341 -4.4778,2.8445 -6.0697,10.3363 -1.5834,7.4541 -1.5092,10.1002 0.5669,20.174 1.3141,6.3768 3.1223,13.2017 4.0186,15.1666 3.1439,6.8927 12.297,9.3536 21.1092,5.676 z m 59.7017,-6.3724 c 0,-0.7053 -0.3924,-2.3041 -0.8721,-3.5529 -0.7938,-2.0663 -1.1156,-2.0498 -3.5877,0.1857 -2.5932,2.3442 -2.6012,2.4998 -0.1765,3.455 3.5746,1.4074 4.6368,1.3877 4.6368,-0.087 z m 662.358,-16.1086 25.314,-0.2361 8.6128,-7.6015 c 19.3562,-17.0829 73.7768,-47.0621 105.0898,-57.8917 29.3287,-10.1432 70.3154,-17.4646 97.7714,-17.4646 8.3169,0 17.8844,-0.3783 21.2607,-0.8404 l 6.1391,-0.8405 v -31.1274 -31.1271 l -13.2863,6.6544 c -7.3074,3.6601 -22.7266,10.7509 -34.2646,15.7579 -71.1947,30.8941 -99.3152,44.2702 -144.7509,68.8541 -16.538,8.9482 -44.2031,23.5041 -61.478,32.3471 -17.2749,8.8429 -34.5821,18.2736 -38.4602,20.9568 -7.0198,4.8568 -7.0296,4.8743 -2.1567,3.8368 2.6924,-0.5735 16.2863,-1.1483 30.2089,-1.2778 z m 311.8793,-8.0659 c 2.005,-6.6906 2.5986,-12.9091 2.5051,-26.2323 -0.2017,-28.8437 -7.7622,-54.6081 -23.2311,-79.1755 l -7.3856,-11.7304 -1.0711,9.48 c -1.9745,17.4711 1.3737,51.1716 7.4649,75.1394 3.698,14.5509 12.3057,38.0376 14.8849,40.614 2.9057,2.9026 3.8845,1.743 6.8329,-8.0952 z m -874.9395,-5.2771 c 7.4717,-7.9999 9.9143,-9.779 13.4243,-9.779 h 4.2902 l -3.8958,-26.7095 c -2.1427,-14.6907 -4.1795,-26.9932 -4.5261,-27.3396 -1.1518,-1.1504 -11.8784,5.0701 -19.7298,11.4418 -4.2593,3.4566 -11.3629,9.2065 -15.7859,12.7775 -4.4227,3.5707 -8.2032,6.8829 -8.4003,7.3608 -0.1971,0.4779 1.8929,2.0799 4.6446,3.56 9.5354,5.1296 16.6755,17.2206 18.2945,30.9804 0.4845,4.1177 1.2565,7.4869 1.7156,7.4869 0.4594,0 4.9452,-4.4005 9.9687,-9.7793 z m 213.9023,-62.77 c 22.3135,-35.4818 42.9281,-57.19 89.1508,-93.8793 10.6232,-8.4319 26.7757,-20.4844 35.8941,-26.7828 70.5625,-48.7401 117.6754,-88.8915 143.9021,-122.64 37.6177,-48.4061 48.3571,-93.2088 28.5577,-119.1385 -4.1945,-5.4931 -17.0127,-12.4519 -27.5056,-14.9329 -9.1929,-2.173 -30.1804,-2.4598 -32.2028,-0.4395 -0.9811,0.9797 -0.7152,4.4943 0.8403,11.106 5.8102,24.6988 -3.7883,54.1265 -29.8117,91.3987 -20.0995,28.7883 -66.7989,73.5203 -116.0988,111.2081 -52.1298,39.8511 -92.5081,74.9474 -97.1101,84.4064 -5.9388,12.2079 -12.1533,54.2467 -14.451,97.7593 l -0.8483,16.0658 6.138,-11.1762 c 3.3756,-6.1469 9.4712,-16.4767 13.5453,-22.9551 z m -421.5885,30.5048 c 7.4619,-2.021 15.5503,-7.1563 40.5582,-25.7511 34.2988,-25.5031 75.7769,-55.2886 93.7035,-67.2883 43.955,-29.4227 56.4221,-36.6442 68.5202,-39.687 6.5888,-1.6572 6.6009,-1.6712 5.7686,-6.6959 -0.4584,-2.7694 -0.8405,-15.8794 -0.849,-29.1336 l -0.023,-24.0987 h -4.6758 c -11.875,0 -33.4117,10.5999 -62.4551,30.7384 -11.9224,8.2674 -29.1267,19.852 -38.231,25.7444 -16.8128,10.8807 -42.6129,29.7079 -60.3673,44.052 -5.3843,4.3501 -17.3421,13.1151 -26.5727,19.4775 -20.0243,13.8025 -41.2062,28.8005 -43.8864,31.0744 -1.4512,1.2306 -1.721,3.9187 -1.0888,10.8424 1.1445,12.539 8.0767,26.4014 14.9062,29.8096 5.7189,2.8535 7.1919,2.9454 14.6849,0.9159 z m -46.2527,-59.938 c 5.4693,0 44.9876,-30.9218 71.4152,-55.8805 20.0837,-18.9672 36.5836,-31.7969 69.2288,-53.8287 15.7623,-10.638 34.01,-23.2939 40.5496,-28.1244 20.929,-15.4586 46.398,-26.6031 64.0043,-28.0064 l 10.1394,-0.8084 v -17.9596 -17.9594 h -4.2987 c -5.7884,0 -22.898,5.8568 -35.2262,12.0582 -5.5349,2.7843 -19.5174,11.1771 -31.0722,18.6502 -11.5545,7.4734 -32.0222,20.3065 -45.4834,28.5182 -38.2088,23.3074 -61.5788,38.8919 -111.1853,74.1444 -13.0766,9.2927 -27.7563,19.3079 -32.6219,22.2558 -10.6006,6.4231 -12.11,9.1785 -10.7934,19.7055 0.9864,7.8849 11.9564,32.0979 13.0535,28.8112 0.289,-0.8669 1.3198,-1.5761 2.2903,-1.5761 z m -27.1718,-71.0106 c 2.6924,-1.2357 13.3913,-8.6046 23.7755,-16.3761 39.0319,-29.2105 87.2788,-62.3809 127.3029,-87.5225 10.3657,-6.5111 28.287,-18.0242 39.825,-25.5844 27.1698,-17.8028 39.9871,-24.548 58.2174,-30.6378 11.8417,-3.9556 17.0287,-4.9646 25.5239,-4.9646 h 10.6616 v -5.9374 c 0,-3.2656 0.399,-10.0541 0.8751,-15.0856 l 0.8651,-9.1483 -5.4203,-1.7453 c -5.0602,-1.6295 -6.9556,-1.2712 -28.4969,5.3857 -12.6919,3.9224 -30.6174,10.3487 -39.8344,14.2811 -26.3791,11.2545 -123.787,60.3958 -146.1741,73.7436 -11.1534,6.6502 -28.7754,16.6837 -39.1598,22.297 -23.7358,12.8306 -40.3877,23.7211 -45.9554,30.0553 -5.5188,6.2789 -9.1989,18.5879 -8.0535,26.9359 1.0035,7.3125 8.1459,22.2858 12.3284,25.8446 3.0814,2.6223 5.1397,2.391 13.7097,-1.5412 z m 527.9656,-60.407 c 9.2255,-7.3533 28.1019,-21.8826 41.9475,-32.2882 50.2599,-37.7712 91.015,-75.5224 111.7412,-103.5056 26.7984,-36.1816 33.3135,-57.81 24.501,-81.3377 -6.0515,-16.1561 -14.2719,-21.5022 -31.545,-20.5149 l -4.3904,0.2512 -0.6049,15.018 c -1.409,34.9911 -17.6529,63.6528 -65.7927,116.0897 -21.0384,22.9166 -59.5926,59.7233 -77.2352,73.7346 -10.0257,7.9623 -12.1785,10.4122 -13.883,15.7983 -2.2458,7.0974 -5.7533,21.6224 -7.2531,30.0372 l -0.9805,5.5012 3.361,-2.707 c 1.8484,-1.4888 10.9086,-8.7236 20.1341,-16.0768 z m 519.4323,-21.4941 c 8.914,-2.6083 17.8773,-5.1005 19.9192,-5.5384 2.9083,-0.6239 4.1955,-2.2128 5.9438,-7.3385 1.2274,-3.5983 2.2316,-8.5613 2.2316,-11.0288 0,-4.4796 -13.979,-33.8007 -21.0141,-44.077 l -3.4605,-5.0553 0.4683,15.8152 c 0.6785,22.9109 -3.3507,35.0993 -17.9887,54.4176 -4.0321,5.3215 -6.0735,8.9913 -4.711,8.4689 1.3225,-0.5066 9.6976,-3.0557 18.6114,-5.6637 z m -440.9554,-140.4621 c 17.5573,-21.8156 25.5759,-36.4344 30.5676,-55.7264 3.8508,-14.8828 -1.2992,-21.3577 -17.7246,-22.2849 -9.3502,-0.5279 -9.3855,-0.5157 -10.2534,3.4662 -1.7289,7.936 -6.3355,17.699 -18.5385,39.2916 -12.8343,22.7099 -16.7587,30.5519 -38.9645,77.8628 l -13.1142,27.9404 29.7975,-30.0361 c 16.3887,-16.5199 33.5921,-34.7508 38.2301,-40.5136 z m -85.9003,13.9703 c 17.5442,-36.8261 26.5236,-53.423 38.2235,-70.6498 6.5157,-9.5938 11.8468,-17.7115 11.8468,-18.0398 0,-1.1091 -11.834,3.5488 -21.6777,8.5328 -11.862,6.006 -18.3864,11.2154 -35.405,28.2691 l -13.0468,13.074 1.6962,9.9769 c 1.6178,9.5166 1.0851,49.9275 -0.8497,64.4607 -0.8245,6.193 0.1673,4.3545 19.2127,-35.6239 z m 481.5261,1222.26325 c -4.6155,-0.6439 -14.685,-1.9864 -22.377,-2.9832 -10.6341,-1.3786 -13.9855,-2.3112 -13.9855,-3.8912 0,-1.2201 2.3105,-2.7559 5.5941,-3.7184 19.1664,-5.6192 37.6772,-10.5446 56.6419,-15.0707 27.5761,-6.5818 47.9065,-13.1417 68.365,-22.0585 22.6069,-9.8531 28.012,-13.4646 33.3129,-22.2569 12.0827,-20.0408 16.6537,-35.3229 15.3843,-51.4339 -0.9012,-11.4397 -7.3991,-33.4507 -14.4344,-48.8957 -4.9736,-10.9188 -5.4008,-12.8304 -5.3061,-23.7492 0.1696,-19.5492 8.6932,-35.9042 23.7161,-45.5031 8.4773,-5.4171 8.4535,-5.2915 3.5443,-18.7513 -2.2206,-6.0887 -2.4501,-6.2645 -7.6042,-5.8207 -3.5934,0.309 -6.1843,-0.3294 -8.001,-1.9715 -3.4491,-3.1178 -3.3906,-5.1168 0.2454,-8.4038 1.6124,-1.4576 6.2751,-7.6845 10.3611,-13.8375 4.0865,-6.1529 10.5889,-14.5679 14.4503,-18.7 l 7.0209,-7.5128 -4.7817,-6.9441 c -7.9023,-11.4748 -11.2883,-28.4258 -7.6096,-38.0914 1.3059,-3.4309 1.0171,-3.8293 -4.5453,-6.2693 -8.3336,-3.6556 -31.5178,-10.1472 -33.5883,-9.4045 -2.6967,0.9668 -6.6163,-1.6392 -6.6163,-4.3992 0,-1.3757 1.5818,-3.986 3.5157,-5.8005 6.2402,-5.8558 27.1649,-5.2796 58.7118,1.6176 19.1297,4.1822 37.6385,4.9389 46.9582,1.9201 5.8459,-1.8933 19.8854,-8.6607 23.4163,-11.2868 0.7864,-0.585 -11.0739,-23.3251 -20.1342,-38.6033 -13.3578,-22.5253 -18.142,-32.7301 -25.5766,-54.559 -6.6659,-19.5708 -9.344,-29.7814 -21.7126,-82.7784 -18.5715,-79.57765 -23.8809,-108.02395 -26.0736,-139.70185 -0.7976,-11.5253 -2.0324,-28.8137 -2.7437,-38.4181 -2.6115,-35.2592 -1.4021,-49.9676 4.8986,-59.5729 l 2.333,-3.5567 3.465,3.2514 c 9.455,8.8725 12.4247,18.7753 14.3955,48.0039 5.1954,77.0516 10.6375,113.1896 27.3487,181.61185 1.8766,7.6838 5.6381,24.9717 8.3586,38.4183 7.1016,35.0983 23.1839,90.8444 40.6172,140.7921 0.4736,1.3572 1.9621,1.1069 6.1701,-1.0374 3.4444,-1.7552 5.8752,-2.2936 6.4148,-1.4212 0.9964,1.6105 -2.7882,15.4719 -5.8262,21.341 -3.2492,6.2757 -11.7194,14.9195 -17.5138,17.8724 -2.9328,1.4945 -10.8426,4.0352 -17.5774,5.6466 -13.9616,3.3399 -34.9791,3.0529 -46.8599,-0.6398 -3.6537,-1.1357 -6.6431,-1.4727 -6.6431,-0.7491 0,3.6597 6.9014,13.9062 15.4237,22.9004 12.7295,13.4339 16.4754,25.8031 7.814,25.8031 -4.1791,0 -10.3452,7.3434 -15.3041,18.2252 -1.9096,4.1908 -5.6378,9.9065 -8.2848,12.7016 l -4.8129,5.0822 5.5556,1.6627 c 6.6092,1.9777 18.3831,12.5524 22.1177,19.8653 3.6047,7.0576 3.4873,16.4809 -0.2642,21.2452 -3.7358,4.7436 -11.4166,8.6325 -19.4479,9.8462 -10.4362,1.5772 -13.8612,3.5634 -17.8411,10.3473 -2.8436,4.847 -3.7594,8.296 -3.7924,14.2866 -0.041,7.5589 0.4154,8.5775 10.6921,23.8039 12.6623,18.7607 21.9103,37.3197 23.3296,46.8179 1.3973,9.3484 -1.1516,20.3286 -7.2829,31.3727 -2.8079,5.0581 -5.1053,10.1114 -5.1053,11.2293 0,4.1201 -18.471,24.9176 -32.1795,36.2325 -33.414,27.5802 -61.6762,41.972 -90.2095,45.9359 -12.2069,1.6962 -33.8216,1.6767 -46.1374,-0.041 z m 46.2708,-202.7278 c -11.4111,-15.3385 -12.6523,-25.6268 -6.3413,-52.5598 3.2336,-13.8 3.4,-19.9113 0.7796,-28.6099 -1.6772,-5.5658 -1.6701,-6.6922 0.05,-8.1186 1.6001,-1.3267 2.848,-0.8497 6.2745,2.3988 6.8261,6.471 12.6118,19.305 13.6224,30.2164 l 0.8802,9.5079 16.7827,-19.1251 c 31.6122,-36.0241 33.9683,-38.1629 48.2263,-43.7767 8.884,-3.4978 27.7968,-6.3543 29.6718,-4.4814 1.8296,1.8275 -8.3457,18.4175 -18.1897,29.6572 -19.0509,21.7512 -45.8586,42.9666 -68.7991,54.4469 -4.9999,2.5021 -9.553,5.2539 -10.1183,6.1153 -0.565,0.8614 -1.0922,5.3382 -1.1713,9.9484 -0.2086,12.1776 -1.7638,22.0516 -3.5654,22.6464 -0.863,0.2847 -4.5094,-3.4348 -8.1031,-8.2658 z m -54.7271,-138.3807 c -2.3565,-6.1343 12.6429,-47.286 28.1286,-77.1706 6.3706,-12.2938 15.0409,-31.468 19.2677,-42.6093 13.5652,-35.7568 16.9925,-41.8333 21.2073,-37.5993 1.4608,1.4675 2.0721,7.0698 2.3772,21.7827 0.2247,10.9424 0.9137,18.9101 1.5344,17.8023 3.3115,-5.9076 20.5339,-10.2512 25.2253,-6.3621 2.0136,1.6694 1.8296,2.3598 -1.8567,6.9565 -5.652,7.0489 -13.4011,24.338 -15.5278,34.6438 -2.5592,12.4015 0.5863,27.5108 8.4955,40.8097 6.6202,11.1312 9.2706,12.5892 22.9782,12.6411 15.1728,0.059 12.8712,4.0947 -6.8664,12.0428 -20.8885,8.412 -32.0921,6.7809 -45.0431,-6.557 -6.2042,-6.3897 -10.7461,-15.1657 -12.3481,-23.8582 l -0.9643,-5.2326 -6.9652,9.3078 c -15.1079,20.1887 -34.9253,43.7842 -37.7357,44.9301 -0.6276,0.256 -1.4858,-0.4314 -1.9069,-1.5277 z m -112.273,-250.0151 c -2.5145,-2.5117 -2.0352,-4.8479 2.9006,-14.1387 8.8418,-16.6428 28.5981,-32.84655 57.9172,-47.50225 13.9006,-6.9482 32.4922,-14.0674 65.9938,-25.2699 l 21.4663,-7.1782 -6.2257,-7.6322 c -3.4243,-4.1976 -10.4301,-11.3183 -15.5687,-15.8235 -5.1388,-4.5055 -10.3074,-10.0541 -11.4855,-12.3305 -1.9337,-3.7344 -1.9261,-4.4697 0.078,-7.5249 2.7098,-4.1314 5.3235,-4.2224 14.9687,-0.5201 12.7594,4.8972 26.3242,16.8749 36.2522,32.0112 l 2.2131,3.3734 8.2763,-4.6394 c 4.552,-2.5516 13.9405,-8.2362 20.8633,-12.6323 18.1606,-11.5317 31.6738,-18.5379 33.0686,-17.1447 2.4797,2.4771 -11.685,24.4996 -23.2274,36.1133 -9.4064,9.4639 -13.5715,12.4588 -25.5352,18.3616 -7.8626,3.8793 -17.4622,7.8117 -21.3323,8.7396 -3.8703,0.9269 -7.3443,2.183 -7.7202,2.7907 -0.3759,0.6076 0.5829,3.9652 2.131,7.461 1.7299,3.9063 3.4021,12.3378 4.3384,21.8748 1.3895,14.15345 1.3063,15.75865 -0.945,18.24365 -2.4096,2.6593 -2.3316,2.7247 3.2596,2.7247 3.1509,0 6.1222,0.6363 6.6033,1.414 1.2039,1.9453 -15.6142,9.291 -30.2751,13.2228 -15.5962,4.183 -38.7562,6.1004 -40.4982,3.3532 -0.6709,-1.0583 -1.2295,-1.2955 -1.2412,-0.5272 -0.03,1.9561 -22.0977,0.2178 -34.2862,-2.6986 -15.3555,-3.6757 -16.7828,-4.2214 -16.7828,-6.4157 0,-1.7107 2.313,-1.9763 13.5827,-1.5601 7.4706,0.276 18.9115,-0.2897 25.4247,-1.2579 l 11.842,-1.7597 -0.9403,-9.9182 c -0.5171,-5.4551 -0.9443,-13.06145 -0.9498,-16.90365 -0.023,-6.27 0.3264,-7.0323 3.2739,-7.4491 4.8204,-0.6819 8.5882,3.6439 15.5729,17.87805 4.2829,8.7286 6.9483,12.6221 8.6396,12.6221 3.1188,0 3.7876,-4.0978 4.2857,-26.26575 0.3312,-14.732 0.087,-17.0996 -1.7122,-16.5859 -1.1544,0.3296 -11.8535,3.2248 -23.7762,6.4336 -39.2522,10.5649 -63.1104,20.3517 -79.2124,32.49565 -7.6329,5.7568 -15.8898,16.5414 -15.8898,20.7551 0,3.5169 -3.2927,5.8629 -5.3478,3.81 z m -51.3034,-70.95075 c -1.9816,-3.2029 70.9203,-69.9296 94.3865,-86.3913 17.6483,-12.3802 45.8988,-24.3086 72.0517,-30.4225 15.3314,-3.5843 71.7157,-3.7759 86.711,-0.295 23.7821,5.5209 26.0349,6.9265 20.5144,12.7958 -7.9857,8.4913 -24.7813,13.5565 -54.0799,16.3092 -43.7444,4.1098 -64.113,9.145 -99.9971,24.7192 -18.9468,8.2229 -46.2903,22.2599 -55.243,28.3591 -3.077,2.0962 -16.9226,10.2648 -30.7684,18.1526 -13.8456,7.8875 -26.4154,15.2059 -27.9328,16.2631 -3.2877,2.291 -4.4736,2.3981 -5.6424,0.5098 z"
         id="path2105" />
    </g>
  </g>
</svg>
