<svg id="svg" version="1.1" xmlns="http://www.w3.org/2000/svg" xmlns:xlink="http://www.w3.org/1999/xlink" width="400" height="395.32163742690057" viewBox="0, 0, 400,395.32163742690057"><g id="svgg"><path id="path0" d="M190.553 0.120 C 143.585 2.666,101.865 19.479,66.847 49.972 C 58.766 57.009,49.145 67.178,42.193 76.031 C 41.108 77.412,40.154 78.623,40.073 78.722 C 36.208 83.440,28.372 95.541,23.965 103.599 C 21.571 107.976,17.094 117.016,17.094 117.472 C 17.094 117.529,18.657 114.461,20.568 110.654 C 70.525 11.118,191.059 -28.255,291.633 22.110 C 293.241 22.915,294.557 23.530,294.557 23.475 C 294.557 23.052,281.450 16.980,274.764 14.306 C 248.403 3.761,217.967 -1.366,190.553 0.120 M193.702 7.665 C 152.637 9.195,115.635 22.849,84.031 48.134 C 78.554 52.516,65.688 64.451,65.896 64.956 C 65.924 65.024,66.939 66.033,68.152 67.199 L 70.357 69.319 73.338 66.463 C 90.628 49.900,104.403 40.184,123.418 31.142 C 161.606 12.983,208.341 9.040,246.964 20.719 C 262.400 25.387,274.457 30.504,287.144 37.774 C 289.747 39.266,291.910 40.486,291.950 40.486 C 292.221 40.486,295.097 35.650,295.097 35.195 C 295.097 34.133,278.045 25.316,268.196 21.286 C 244.777 11.704,217.780 6.768,193.702 7.665 M294.737 23.657 C 294.737 23.706,295.223 23.992,295.816 24.291 C 296.410 24.591,296.896 24.796,296.896 24.747 C 296.896 24.697,296.410 24.411,295.816 24.112 C 295.223 23.812,294.737 23.607,294.737 23.657 M297.436 25.092 C 297.436 25.141,297.679 25.308,297.976 25.461 C 298.273 25.615,298.516 25.700,298.516 25.650 C 298.516 25.601,298.273 25.435,297.976 25.281 C 297.679 25.128,297.436 25.042,297.436 25.092 M298.695 25.812 C 298.695 25.861,298.938 26.027,299.235 26.181 C 299.532 26.334,299.775 26.419,299.775 26.370 C 299.775 26.321,299.532 26.154,299.235 26.001 C 298.938 25.847,298.695 25.762,298.695 25.812 M299.955 26.531 C 299.955 26.581,300.198 26.747,300.495 26.901 C 300.792 27.054,301.035 27.139,301.035 27.090 C 301.035 27.040,300.792 26.874,300.495 26.721 C 300.198 26.567,299.955 26.482,299.955 26.531 M301.215 27.229 C 301.215 27.273,301.802 27.654,302.519 28.076 C 304.174 29.048,304.094 29.005,304.094 28.911 C 304.094 28.867,303.507 28.486,302.789 28.065 C 301.134 27.092,301.215 27.135,301.215 27.229 M305.443 29.783 C 305.641 29.944,305.965 30.155,306.163 30.253 L 306.523 30.429 306.163 30.136 C 305.965 29.975,305.641 29.764,305.443 29.666 L 305.083 29.490 305.443 29.783 M306.961 30.735 C 307.202 30.931,307.647 31.227,307.950 31.395 L 308.502 31.699 308.064 31.343 C 307.823 31.148,307.378 30.851,307.074 30.683 L 306.523 30.379 306.961 30.735 M308.592 31.713 C 308.592 31.788,309.301 32.280,310.976 33.368 C 311.248 33.545,311.471 33.651,311.471 33.604 C 311.471 33.529,310.761 33.037,309.087 31.949 C 308.815 31.772,308.592 31.666,308.592 31.713 M312.731 34.445 C 312.731 34.494,313.216 34.864,313.810 35.268 C 314.404 35.671,314.890 35.960,314.890 35.911 C 314.890 35.861,314.404 35.491,313.810 35.088 C 313.216 34.684,312.731 34.395,312.731 34.445 M304.453 40.932 C 304.453 41.004,304.818 41.468,305.263 41.963 C 305.709 42.459,306.073 42.963,306.073 43.085 C 306.073 43.819,301.023 50.035,297.560 53.563 L 295.939 55.215 294.933 54.539 C 292.718 53.051,293.005 53.353,297.265 56.982 C 301.014 60.178,301.265 60.353,299.911 58.831 C 299.342 58.192,298.877 57.583,298.876 57.477 C 298.874 56.848,302.585 52.172,306.047 48.442 C 308.987 45.274,308.879 45.338,310.072 46.072 C 310.594 46.392,311.224 46.779,311.471 46.931 L 311.921 47.206 311.561 46.846 C 311.249 46.533,309.603 45.131,305.488 41.672 C 304.919 41.193,304.453 40.861,304.453 40.932 M308.146 44.515 C 308.543 44.805,309.172 43.993,302.529 51.762 C 298.059 56.990,298.046 57.003,297.748 56.704 C 297.394 56.350,298.232 55.271,305.353 46.912 C 307.809 44.029,307.658 44.158,308.146 44.515 M183.896 47.788 C 171.175 48.575,161.449 51.695,152.047 58.006 C 148.451 60.419,142.005 67.415,139.891 71.200 C 138.344 73.968,136.647 75.198,131.984 76.929 C 122.851 80.321,118.488 86.788,118.808 96.461 C 118.914 99.659,118.981 99.479,116.566 102.493 C 113.251 106.629,110.935 111.207,109.850 115.765 C 109.607 116.784,109.141 118.105,108.793 118.758 C 107.721 120.774,107.230 123.510,107.583 125.506 C 108.039 128.084,108.690 132.250,108.792 133.251 L 108.904 134.338 107.987 135.550 C 106.265 137.824,106.176 139.114,107.332 145.031 L 108.017 148.542 106.434 151.509 C 105.563 153.141,104.290 155.442,103.604 156.622 C 101.248 160.677,101.234 160.715,101.258 162.699 C 101.281 164.569,101.732 166.577,102.753 169.345 C 103.441 171.210,103.464 171.105,102.159 171.966 C 95.543 176.331,92.184 180.368,89.464 187.224 C 87.590 191.949,87.448 193.749,89.100 191.841 C 89.429 191.460,90.543 190.225,91.576 189.097 C 92.608 187.968,94.592 185.797,95.984 184.273 C 98.454 181.569,100.627 179.493,103.969 176.643 L 105.616 175.239 106.698 176.885 C 107.292 177.791,108.904 180.811,110.278 183.598 C 113.398 189.919,115.506 193.142,119.257 197.326 L 120.859 199.112 120.972 201.625 L 121.085 204.139 122.610 207.707 C 125.222 213.818,127.225 215.467,133.783 216.906 C 136.432 217.488,136.315 217.361,137.463 220.863 C 139.280 226.403,139.335 226.904,138.445 229.753 C 134.239 243.227,129.266 255.078,123.305 265.834 C 119.162 273.309,119.134 273.568,121.675 280.876 C 128.839 301.480,162.855 338.069,205.891 371.461 C 209.534 374.287,209.615 374.371,208.582 374.206 C 197.504 372.434,162.903 346.519,140.777 323.423 C 124.446 306.375,116.458 294.230,115.342 284.750 C 114.855 280.611,112.518 278.551,110.596 280.567 C 106.413 284.954,102.378 289.805,102.482 290.323 C 103.290 294.372,107.630 304.284,111.189 310.211 C 125.551 334.128,151.507 358.480,195.386 389.204 C 203.173 394.657,203.487 394.929,202.247 395.177 C 201.902 395.246,203.897 395.268,206.681 395.225 C 209.465 395.182,211.853 395.110,211.989 395.064 C 212.125 395.018,213.207 394.935,214.395 394.879 C 215.583 394.823,216.959 394.734,217.454 394.681 C 221.224 394.277,226.546 393.684,226.991 393.619 C 227.287 393.576,228.866 393.330,230.499 393.074 C 232.132 392.817,233.752 392.572,234.098 392.529 C 234.444 392.486,235.740 392.247,236.977 391.997 C 238.214 391.747,239.327 391.581,239.451 391.627 C 239.575 391.674,239.676 391.644,239.676 391.560 C 239.676 391.477,240.020 391.355,240.441 391.289 C 240.861 391.223,242.137 390.960,243.275 390.705 C 244.413 390.450,245.567 390.231,245.839 390.219 C 246.111 390.207,246.334 390.147,246.334 390.085 C 246.334 390.023,246.840 389.869,247.458 389.741 C 248.077 389.614,248.636 389.481,248.702 389.446 C 248.767 389.411,248.295 388.878,247.653 388.261 C 244.216 384.961,240.294 377.137,238.924 370.850 C 235.115 353.366,250.609 336.899,267.566 340.409 C 269.919 340.896,269.878 340.897,269.352 340.329 C 268.756 339.683,267.500 338.693,260.819 333.602 C 257.652 331.188,253.401 327.908,251.372 326.313 C 242.451 319.296,240.585 318.496,235.628 319.561 C 234.737 319.752,233.348 320.051,232.542 320.226 C 230.018 320.771,229.901 319.900,231.592 313.180 C 233.997 303.627,243.969 277.561,249.849 265.460 C 251.350 262.370,250.332 262.602,260.610 263.001 C 265.615 263.195,272.640 263.320,278.902 263.327 L 289.069 263.338 290.868 262.836 C 294.512 261.821,296.779 260.071,297.802 257.485 C 298.507 255.705,298.462 257.173,298.250 242.825 L 298.102 232.749 300.153 232.142 C 303.907 231.031,305.173 230.110,305.173 228.487 C 305.173 227.291,303.430 224.476,302.026 223.405 C 300.948 222.583,301.108 222.378,303.869 221.048 C 308.766 218.688,308.882 218.358,306.228 214.348 C 304.252 211.362,303.160 209.236,302.582 207.247 C 302.344 206.428,302.007 205.401,301.832 204.966 L 301.513 204.173 302.047 203.696 C 302.559 203.238,305.785 201.971,314.845 198.667 C 319.443 196.990,319.085 197.230,318.988 195.889 C 318.833 193.740,316.138 187.341,313.890 183.786 C 311.100 179.374,310.369 178.117,308.495 174.514 C 305.411 168.587,304.543 167.487,300.135 163.914 C 296.673 161.108,294.557 159.122,294.557 158.680 C 294.557 156.947,296.092 152.400,297.101 151.147 C 298.654 149.217,299.048 148.061,299.053 145.425 C 299.056 143.524,299.094 143.594,295.608 139.129 C 291.603 133.998,291.414 133.441,290.521 124.157 C 290.318 122.046,290.169 121.307,289.742 120.288 C 288.747 117.918,286.060 112.192,283.381 106.731 C 281.907 103.728,280.702 101.167,280.702 101.040 C 280.702 100.912,281.451 100.216,282.366 99.492 C 285.967 96.646,290.204 92.066,292.758 88.259 C 296.627 82.492,296.260 81.858,288.957 81.696 L 284.707 81.601 283.432 79.694 C 280.548 75.381,276.019 72.283,268.736 69.642 C 263.528 67.754,261.288 66.642,256.320 63.482 C 251.494 60.412,250.880 60.195,243.367 58.912 C 233.584 57.241,231.145 56.605,224.831 54.073 C 210.470 48.314,200.397 46.767,183.896 47.788 M320.423 55.086 C 320.943 55.744,321.368 56.357,321.368 56.450 C 321.368 57.067,313.431 65.485,311.066 67.376 L 310.212 68.059 309.582 67.588 C 307.781 66.240,307.752 66.305,309.402 67.996 C 311.362 70.006,314.962 73.364,314.535 72.785 C 314.389 72.587,313.964 72.049,313.590 71.590 C 313.216 71.131,312.910 70.694,312.910 70.620 C 312.910 69.954,320.813 61.709,323.464 59.609 L 324.163 59.055 325.374 59.940 C 327.107 61.206,326.932 60.986,323.662 57.786 C 319.838 54.045,319.144 53.467,320.423 55.086 M323.307 58.319 C 323.357 58.573,312.493 69.996,312.202 69.996 C 312.121 69.996,311.954 69.874,311.831 69.726 C 311.518 69.349,311.709 69.130,317.637 63.086 C 322.519 58.108,323.162 57.568,323.307 58.319 M333.713 67.521 C 333.785 67.645,334.086 68.102,334.380 68.537 L 334.916 69.328 334.804 73.575 C 334.698 77.589,334.434 81.281,334.239 81.476 C 334.118 81.597,326.091 81.180,324.449 80.968 C 323.184 80.804,323.066 80.747,321.941 79.759 C 320.287 78.307,320.682 78.848,323.864 82.390 C 326.517 85.344,327.314 86.138,326.366 84.885 C 324.823 82.847,324.549 82.378,324.803 82.216 C 325.233 81.941,333.870 82.426,334.186 82.742 C 334.497 83.053,333.779 91.818,333.425 92.037 C 333.355 92.080,332.659 91.531,331.879 90.817 C 330.104 89.192,330.504 89.710,334.113 93.714 C 337.632 97.618,338.309 98.260,337.107 96.555 L 336.233 95.313 336.454 90.707 C 336.782 83.861,336.778 83.893,337.428 83.751 C 338.252 83.570,345.194 83.955,347.805 84.327 C 348.362 84.407,348.820 84.636,349.334 85.092 C 349.737 85.450,350.270 85.904,350.517 86.101 L 350.967 86.460 350.607 86.012 C 349.926 85.165,345.879 80.701,345.384 80.252 C 345.112 80.004,345.393 80.486,346.009 81.322 C 347.110 82.817,347.121 82.845,346.708 83.001 C 346.282 83.162,339.204 82.855,337.832 82.615 L 337.112 82.490 337.153 79.886 C 337.192 77.372,337.470 74.053,337.721 73.117 C 337.840 72.672,337.871 72.688,339.366 73.968 C 341.115 75.465,341.180 75.549,336.952 70.850 C 334.016 67.587,333.355 66.908,333.713 67.521 M336.892 71.390 C 337.141 71.666,337.156 72.030,337.009 74.314 C 336.916 75.749,336.595 80.887,336.294 85.732 C 335.711 95.138,335.740 94.895,335.243 94.367 C 334.924 94.028,334.932 93.724,335.504 84.395 C 336.420 69.441,336.284 70.718,336.892 71.390 M56.115 78.330 C 55.758 78.843,54.843 80.234,54.082 81.422 L 52.698 83.581 53.732 82.528 L 54.766 81.476 55.318 81.740 C 56.403 82.260,60.438 85.465,64.845 89.309 L 65.543 89.917 63.316 90.031 C 62.091 90.093,58.151 90.198,54.560 90.263 C 50.969 90.328,47.995 90.441,47.950 90.514 C 47.904 90.587,48.344 91.776,48.927 93.156 C 49.912 95.486,54.161 106.412,54.161 106.613 C 54.161 107.213,47.944 104.062,44.138 101.534 C 42.083 100.168,42.143 100.320,42.997 98.621 C 43.400 97.821,43.688 97.166,43.639 97.166 C 43.549 97.166,39.877 102.618,38.609 104.633 L 37.930 105.713 38.899 104.768 C 39.432 104.249,39.973 103.824,40.102 103.824 C 41.135 103.824,52.384 109.832,54.417 111.470 L 54.943 111.894 54.110 113.617 C 53.652 114.564,53.300 115.340,53.328 115.340 C 53.355 115.340,54.173 114.172,55.144 112.744 L 56.911 110.149 55.817 107.661 C 53.877 103.250,50.256 93.814,50.435 93.635 C 50.719 93.351,53.502 93.202,60.583 93.094 L 68.355 92.974 69.864 90.707 C 72.280 87.074,72.205 87.236,70.983 88.278 C 69.269 89.738,68.427 90.007,67.330 89.444 C 65.285 88.394,55.960 80.484,55.960 79.800 C 55.960 79.677,56.166 79.111,56.418 78.543 C 57.003 77.220,56.926 77.166,56.115 78.330 M257.306 78.359 C 257.839 78.926,257.751 81.459,257.044 85.919 C 255.349 96.595,251.162 103.180,243.726 106.862 C 238.845 109.279,238.228 109.155,236.779 105.463 C 233.081 96.043,238.986 87.269,254.835 78.629 C 256.362 77.797,256.740 77.755,257.306 78.359 M292.004 82.414 C 294.802 82.709,294.953 83.119,293.398 86.212 C 289.008 94.947,278.601 103.003,269.276 104.885 C 264.663 105.816,254.389 106.121,253.526 105.353 C 252.773 104.683,252.603 103.985,252.926 102.896 C 254.455 97.747,261.959 89.274,267.413 86.536 C 273.257 83.604,284.850 81.660,292.004 82.414 M234.631 85.377 C 235.968 86.068,236.115 86.848,235.620 90.634 C 234.249 101.128,231.917 106.074,223.766 115.782 C 217.520 123.221,216.459 123.902,214.660 121.632 C 211.860 118.096,212.752 111.191,216.872 104.499 C 221.078 97.668,232.077 85.265,234.062 85.114 C 234.092 85.112,234.348 85.230,234.631 85.377 M69.276 90.474 C 69.276 91.237,69.231 91.242,60.092 91.518 C 49.738 91.830,49.413 91.823,49.338 91.293 C 49.284 90.916,49.347 90.906,52.577 90.782 C 62.444 90.403,69.276 90.277,69.276 90.474 M356.956 96.706 C 357.337 98.076,356.319 101.962,353.950 108.172 L 353.561 109.193 351.909 108.740 C 349.806 108.163,344.918 106.460,343.861 105.935 C 343.138 105.575,342.712 105.132,341.655 103.639 L 341.340 103.194 341.565 103.734 C 341.926 104.598,344.934 110.481,345.015 110.481 C 345.056 110.481,344.841 109.792,344.538 108.949 C 344.234 108.106,344.026 107.376,344.076 107.326 C 344.310 107.092,352.451 109.824,352.922 110.295 C 353.221 110.594,350.818 117.853,350.090 118.848 C 349.819 119.219,349.972 119.397,348.389 116.869 C 347.335 115.187,347.833 116.320,350.247 121.098 C 352.519 125.593,353.163 126.654,352.299 124.478 C 351.710 122.997,352.438 119.897,354.876 113.495 C 355.505 111.845,355.223 111.889,358.565 112.926 C 364.766 114.850,366.037 115.452,367.163 117.000 C 367.608 117.611,367.967 118.034,367.962 117.940 C 367.949 117.724,364.215 110.348,364.202 110.514 C 364.197 110.582,364.435 111.296,364.732 112.101 C 365.367 113.822,365.376 113.900,364.936 113.900 C 364.091 113.900,356.899 111.475,356.176 110.946 C 355.767 110.647,358.375 102.588,359.138 101.794 C 359.213 101.716,359.749 102.422,360.330 103.361 C 362.013 106.081,361.703 105.252,359.245 100.460 C 356.703 95.502,356.552 95.254,356.956 96.706 M209.522 98.803 C 211.991 99.489,211.785 101.675,208.649 108.052 C 206.240 112.952,203.291 117.353,198.825 122.717 C 190.867 132.275,187.740 132.912,187.778 124.966 C 187.826 114.945,191.087 108.909,199.460 103.339 C 205.794 99.126,207.658 98.286,209.522 98.803 M358.614 100.561 C 358.614 100.957,355.287 111.017,351.922 120.798 C 351.362 122.426,350.962 122.694,351.006 121.413 C 351.021 120.960,357.128 102.713,358.056 100.349 C 358.292 99.745,358.614 99.868,358.614 100.561 M50.449 105.675 C 54.390 107.794,54.953 108.151,55.172 108.672 C 55.672 109.861,56.243 110.105,47.288 105.303 L 41.046 101.956 41.340 101.458 L 41.634 100.961 43.804 102.114 C 44.997 102.749,47.988 104.351,50.449 105.675 M260.009 107.339 C 268.952 108.161,277.775 111.534,281.222 115.450 C 285.195 119.963,273.895 122.014,260.099 119.284 C 252.478 117.775,249.634 116.534,247.586 113.822 C 245.839 111.507,245.410 108.143,246.763 107.372 C 247.664 106.859,254.596 106.842,260.009 107.339 M184.009 108.887 C 185.846 109.989,184.876 115.619,181.334 124.426 C 174.692 140.939,167.164 148.164,162.020 142.962 C 155.867 136.739,162.409 124.773,180.027 110.025 C 182.153 108.246,182.688 108.093,184.009 108.887 M31.779 118.255 C 30.012 122.441,28.530 125.960,28.485 126.074 C 28.405 126.280,31.225 127.935,31.656 127.935 C 31.777 127.935,31.379 127.376,30.772 126.692 L 29.667 125.450 30.501 123.409 C 31.496 120.975,32.924 118.209,33.249 118.084 C 33.535 117.974,36.162 118.894,38.633 119.970 L 40.468 120.769 39.867 122.418 C 39.537 123.325,38.943 124.795,38.548 125.686 L 37.830 127.305 36.639 127.242 C 34.958 127.153,35.130 127.409,37.382 128.350 C 40.286 129.563,40.369 129.573,39.431 128.603 C 38.654 127.799,38.649 127.784,38.868 127.098 C 39.288 125.779,40.857 122.085,41.170 121.678 L 41.484 121.269 42.531 121.629 C 44.073 122.160,47.683 123.946,47.793 124.232 C 47.920 124.565,47.023 127.196,45.917 129.735 L 45.015 131.804 43.335 131.894 L 41.655 131.984 43.194 132.479 C 45.352 133.172,45.168 133.274,46.295 130.769 C 47.115 128.949,51.280 119.139,51.834 117.724 C 52.136 116.954,51.844 117.324,51.125 118.623 C 49.921 120.798,50.198 120.670,48.127 120.011 C 45.190 119.078,41.500 117.564,38.057 115.880 C 33.815 113.806,34.126 114.127,34.657 112.375 C 34.895 111.586,35.069 110.874,35.041 110.792 C 35.014 110.710,33.546 114.068,31.779 118.255 M236.437 114.608 C 245.708 116.328,254.218 120.385,256.038 123.953 C 258.399 128.580,254.717 130.892,244.984 130.897 C 231.064 130.902,220.825 125.994,222.223 119.986 C 222.796 117.525,224.816 115.161,227.072 114.312 C 228.065 113.939,233.806 114.120,236.437 114.608 M43.360 118.790 C 49.793 121.503,49.663 121.435,49.467 121.952 C 49.258 122.505,49.480 122.569,44.683 120.575 C 33.348 115.861,33.339 115.857,33.612 115.257 L 33.814 114.813 36.025 115.721 C 37.242 116.220,40.542 117.601,43.360 118.790 M16.612 118.411 C 16.399 118.800,16.283 119.118,16.356 119.118 C 16.496 119.118,17.147 117.852,17.054 117.759 C 17.024 117.729,16.825 118.022,16.612 118.411 M160.987 119.150 C 163.128 121.161,154.828 140.818,148.822 147.960 C 143.042 154.832,138.829 156.892,135.986 154.236 C 131.757 150.286,131.759 144.754,135.990 137.540 C 139.485 131.580,144.067 127.395,151.777 123.123 C 153.558 122.136,156.022 120.750,157.252 120.043 C 159.678 118.650,160.297 118.502,160.987 119.150 M16.044 119.756 C 15.742 120.417,15.800 120.559,16.126 119.957 C 16.278 119.676,16.369 119.413,16.328 119.372 C 16.286 119.330,16.159 119.503,16.044 119.756 M15.504 121.015 C 15.202 121.677,15.260 121.818,15.586 121.217 C 15.738 120.936,15.829 120.672,15.788 120.631 C 15.747 120.590,15.619 120.763,15.504 121.015 M14.448 123.573 C 13.447 125.978,13.109 126.889,13.186 126.966 C 13.221 127.002,13.709 125.883,14.269 124.480 C 14.829 123.078,15.262 121.905,15.232 121.875 C 15.201 121.844,14.848 122.608,14.448 123.573 M372.561 127.003 L 372.647 128.141 370.264 129.278 C 366.027 131.302,358.079 134.311,357.276 134.196 C 357.016 134.159,356.717 133.758,356.275 132.853 C 355.415 131.089,355.311 131.059,355.834 132.725 C 356.078 133.505,356.450 134.724,356.660 135.433 L 357.042 136.723 358.172 136.920 C 360.712 137.362,373.145 140.595,373.440 140.889 C 373.721 141.170,369.583 146.278,364.838 151.507 L 362.633 153.936 363.590 156.725 C 364.480 159.317,364.541 159.437,364.447 158.427 C 364.328 157.151,364.693 156.024,365.406 155.463 C 366.204 154.835,371.460 153.555,377.513 152.514 C 380.439 152.011,380.349 151.990,381.043 153.358 C 381.780 154.812,381.693 154.242,380.749 151.423 C 379.736 148.399,379.608 148.154,379.772 149.544 C 379.882 150.485,379.866 150.541,379.414 150.747 C 378.435 151.193,370.072 153.105,367.809 153.401 L 366.838 153.527 367.206 153.012 C 367.585 152.482,374.014 144.919,376.133 142.510 C 377.696 140.732,377.818 140.878,373.954 139.915 C 369.103 138.707,361.822 136.753,361.499 136.572 C 360.907 136.240,370.634 132.288,373.253 131.797 L 373.866 131.682 374.465 132.981 C 375.437 135.089,375.254 134.217,373.822 129.914 C 372.595 126.226,372.483 125.967,372.561 127.003 M211.986 127.574 C 217.671 128.950,228.555 135.109,229.901 137.713 C 230.888 139.621,230.139 141.175,227.788 142.095 C 226.599 142.561,215.777 142.562,212.506 142.097 C 205.548 141.109,202.052 139.783,199.359 137.111 C 195.257 133.043,195.816 129.545,200.875 127.622 C 202.468 127.017,209.557 126.986,211.986 127.574 M12.549 128.238 C 12.503 128.319,12.417 128.628,12.358 128.925 C 12.251 129.462,12.252 129.462,12.522 128.859 C 12.758 128.334,12.779 127.831,12.549 128.238 M11.896 130.114 C 11.785 130.432,11.726 130.724,11.764 130.763 C 11.803 130.801,11.925 130.572,12.036 130.254 C 12.147 129.936,12.206 129.645,12.167 129.606 C 12.129 129.568,12.007 129.796,11.896 130.114 M373.472 130.613 C 373.079 131.249,360.161 136.290,359.205 136.180 C 358.100 136.053,358.423 135.884,364.552 133.382 C 372.777 130.024,374.088 129.617,373.472 130.613 M10.996 132.634 C 10.885 132.952,10.826 133.243,10.865 133.282 C 10.903 133.320,11.025 133.092,11.136 132.774 C 11.247 132.456,11.306 132.164,11.268 132.125 C 11.229 132.087,11.107 132.316,10.996 132.634 M130.364 134.952 C 131.982 136.741,127.612 152.208,123.640 158.747 C 118.574 167.088,110.268 169.420,106.786 163.478 C 103.692 158.198,109.795 149.846,125.441 137.951 C 127.484 136.398,129.255 135.007,129.377 134.860 C 129.679 134.497,129.977 134.525,130.364 134.952 M40.665 136.171 C 42.082 137.347,42.281 137.624,42.162 138.254 C 41.780 140.273,40.398 144.123,39.794 144.851 C 39.497 145.209,39.490 145.208,37.607 144.778 C 32.988 143.722,23.929 140.757,23.932 140.302 C 23.932 140.280,24.052 139.578,24.199 138.744 C 24.720 135.781,24.449 136.514,22.142 144.295 C 20.898 148.491,20.865 148.813,21.942 146.291 C 22.617 144.712,22.758 144.502,23.096 144.574 C 23.308 144.619,23.968 144.745,24.561 144.855 C 27.506 145.399,35.332 147.681,37.675 148.678 L 38.552 149.052 38.440 150.234 C 38.314 151.575,37.628 154.263,37.023 155.790 C 36.578 156.912,36.645 156.876,34.368 157.223 L 33.378 157.374 34.776 157.698 C 37.279 158.278,37.271 158.281,37.655 156.815 C 38.894 152.082,42.350 140.415,43.236 137.976 L 43.670 136.779 41.990 136.136 C 39.876 135.327,39.655 135.332,40.665 136.171 M8.833 139.108 C 8.712 139.514,8.645 139.879,8.686 139.920 C 8.726 139.960,8.859 139.661,8.980 139.255 C 9.102 138.849,9.169 138.483,9.128 138.443 C 9.088 138.402,8.955 138.702,8.833 139.108 M183.266 139.737 C 193.537 141.002,202.477 144.719,208.029 150.030 C 210.432 152.329,210.600 153.139,208.925 154.352 C 205.455 156.866,183.840 156.135,175.249 153.213 C 170.458 151.584,168.175 147.222,170.383 143.920 C 173.290 139.574,175.671 138.801,183.266 139.737 M375.688 142.181 C 375.061 143.064,371.219 147.664,367.620 151.842 C 365.883 153.857,364.361 155.634,364.237 155.791 C 363.890 156.229,363.526 155.791,363.784 155.246 C 364.411 153.917,375.647 141.117,375.934 141.404 C 376.052 141.522,375.968 141.786,375.688 142.181 M30.153 143.244 C 40.516 146.322,40.043 146.158,39.987 146.650 C 39.919 147.244,39.857 147.272,39.092 147.052 C 35.850 146.122,23.617 142.449,23.459 142.357 C 23.189 142.202,23.477 141.430,23.804 141.430 C 23.939 141.430,26.796 142.246,30.153 143.244 M7.660 142.973 C 7.594 143.237,7.575 143.487,7.617 143.529 C 7.659 143.572,7.748 143.391,7.814 143.127 C 7.881 142.863,7.900 142.613,7.858 142.570 C 7.815 142.528,7.726 142.709,7.660 142.973 M5.668 150.247 C 5.600 150.558,5.581 150.850,5.627 150.896 C 5.673 150.942,5.762 150.721,5.825 150.405 C 5.975 149.655,5.830 149.509,5.668 150.247 M159.154 152.130 C 162.789 152.649,171.754 154.605,175.744 155.749 C 183.511 157.976,186.423 160.645,183.736 163.073 C 180.166 166.298,158.010 169.117,150.759 167.270 C 145.226 165.860,140.011 160.995,141.262 158.410 C 142.614 155.619,147.458 152.782,152.227 151.991 C 153.310 151.811,157.509 151.895,159.154 152.130 M17.121 162.321 C 16.117 168.036,16.041 168.860,16.749 166.336 C 16.987 165.486,17.235 164.705,17.299 164.602 C 17.641 164.049,28.940 165.797,33.198 167.061 L 34.098 167.328 34.035 169.089 C 33.946 171.612,34.068 171.221,34.972 166.078 C 36.127 159.508,36.188 158.831,35.360 161.763 L 34.979 163.113 33.324 163.079 C 30.544 163.021,24.529 162.001,20.134 160.842 L 18.046 160.291 18.134 158.598 C 18.183 157.667,18.189 156.905,18.147 156.905 C 18.106 156.905,17.644 159.342,17.121 162.321 M26.811 162.755 C 35.594 164.283,34.755 164.074,34.692 164.721 C 34.646 165.194,34.574 165.264,34.188 165.212 C 33.239 165.084,23.523 163.359,20.723 162.821 C 17.784 162.255,17.344 162.059,17.795 161.516 C 18.031 161.232,18.162 161.250,26.811 162.755 M131.561 164.635 C 138.154 165.774,145.104 169.778,151.560 176.155 C 154.413 178.974,154.407 178.953,152.526 179.727 C 147.657 181.733,135.476 182.940,129.447 182.014 C 119.450 180.478,115.106 176.836,115.368 170.212 C 115.449 168.182,115.799 167.695,117.986 166.577 C 122.134 164.455,126.721 163.799,131.561 164.635 M384.491 167.174 L 384.435 168.125 382.996 168.648 C 379.520 169.910,371.046 172.124,369.251 172.239 L 368.461 172.290 367.965 170.760 C 367.352 168.869,367.330 169.015,367.814 171.750 C 368.327 174.647,368.316 174.626,369.444 174.995 C 371.454 175.653,381.782 179.611,383.319 180.313 L 383.823 180.542 382.240 182.146 C 380.778 183.627,375.030 188.894,372.570 191.007 L 371.519 191.910 372.011 194.605 C 372.281 196.088,372.524 197.323,372.550 197.350 C 372.576 197.376,372.646 196.874,372.706 196.232 C 372.836 194.836,373.471 193.737,374.319 193.442 C 375.511 193.026,384.163 192.173,387.184 192.173 L 388.788 192.173 389.262 193.207 C 389.813 194.412,389.807 194.328,389.078 190.553 L 388.574 187.944 388.484 189.294 L 388.394 190.643 386.595 190.945 C 384.984 191.216,381.413 191.586,377.193 191.921 C 376.328 191.990,375.709 191.970,375.709 191.874 C 375.709 191.726,382.534 185.423,386.010 182.362 C 387.716 180.860,387.729 181.006,385.830 180.297 C 380.872 178.449,372.479 175.029,372.564 174.892 C 372.950 174.267,384.688 171.362,385.078 171.794 C 385.146 171.869,385.346 172.375,385.523 172.919 C 386.069 174.600,386.007 173.659,385.325 169.929 C 384.594 165.926,384.568 165.839,384.491 167.174 M109.110 169.903 C 109.587 170.661,107.759 172.688,102.564 177.163 C 99.311 179.965,97.100 182.221,91.768 188.175 C 90.059 190.083,88.623 191.607,88.576 191.560 C 88.139 191.123,91.565 183.353,93.439 180.535 C 96.684 175.654,107.928 168.025,109.110 169.903 M384.885 170.400 C 384.885 170.697,384.841 170.940,384.786 170.940 C 384.731 170.940,381.674 171.755,377.993 172.752 C 371.378 174.542,370.414 174.714,369.897 174.198 C 369.690 173.991,369.734 173.977,378.228 171.641 C 385.718 169.580,384.885 169.735,384.885 170.400 M14.935 174.754 C 14.935 174.801,14.688 176.088,14.385 177.613 C 12.918 185.022,14.085 188.838,17.893 189.081 C 19.936 189.211,20.707 188.613,24.044 184.313 C 26.669 180.930,27.552 180.117,28.592 180.118 C 31.198 180.120,32.087 184.152,30.325 187.969 L 29.732 189.254 28.443 189.484 C 27.379 189.674,26.555 190.004,27.115 190.017 C 27.195 190.018,28.029 190.137,28.968 190.280 C 31.022 190.592,30.810 190.796,31.397 187.944 C 32.744 181.400,31.714 177.762,28.384 177.306 C 26.630 177.066,25.379 178.036,21.931 182.309 C 19.192 185.705,18.367 186.323,17.025 185.986 C 14.531 185.360,13.813 181.092,15.543 177.180 C 16.010 176.124,16.402 175.900,18.458 175.514 C 19.323 175.352,19.223 175.144,18.219 175.017 C 16.464 174.794,14.935 174.672,14.935 174.754 M29.826 178.439 C 30.644 179.097,31.240 179.945,31.498 180.816 C 31.767 181.725,31.929 184.325,31.738 184.665 C 31.635 184.846,31.569 184.389,31.551 183.377 C 31.483 179.510,29.119 177.642,26.467 179.360 C 26.002 179.661,24.676 181.145,23.000 183.240 C 19.991 187.001,19.209 187.674,17.851 187.674 C 15.538 187.674,13.999 185.420,14.061 182.122 L 14.086 180.747 14.209 181.916 C 14.650 186.127,17.449 187.873,19.869 185.447 C 20.276 185.039,21.248 183.896,22.029 182.906 C 26.120 177.724,27.766 176.781,29.826 178.439 M386.145 181.358 C 386.145 181.681,373.009 193.837,372.548 193.940 C 371.391 194.201,373.463 192.076,381.287 184.978 C 385.121 181.499,386.145 180.736,386.145 181.358 M12.910 199.504 L 11.696 199.567 11.698 202.572 C 11.710 223.172,17.007 249.163,25.512 270.355 C 33.275 289.696,46.637 311.687,58.186 324.128 L 58.828 324.819 59.328 324.457 C 60.759 323.424,63.602 320.495,63.428 320.234 C 63.329 320.086,61.964 318.438,60.395 316.573 C 33.921 285.095,19.101 246.017,17.724 204.049 C 17.667 202.317,17.578 200.556,17.526 200.135 L 17.432 199.370 15.778 199.405 C 14.869 199.425,13.578 199.469,12.910 199.504 M385.018 205.244 C 384.966 205.329,384.832 206.856,384.718 208.637 C 381.034 266.509,351.887 317.595,303.734 350.576 C 301.903 351.830,300.204 353.012,299.959 353.203 L 299.514 353.549 299.946 354.327 C 300.299 354.963,302.587 358.712,302.767 358.951 C 302.871 359.088,311.861 352.985,315.044 350.617 C 352.422 322.805,377.844 282.529,387.111 236.437 C 388.999 227.049,390.636 213.398,390.642 206.991 L 390.643 205.525 389.429 205.419 C 386.310 205.150,385.103 205.101,385.018 205.244 M18.002 280.177 C 18.112 280.384,18.239 280.517,18.282 280.473 C 18.408 280.347,18.153 279.802,17.968 279.802 C 17.876 279.802,17.891 279.971,18.002 280.177 M19.720 283.733 C 19.660 283.830,19.683 283.937,19.770 283.970 C 19.858 284.003,20.305 284.780,20.763 285.695 C 21.221 286.610,21.636 287.359,21.686 287.359 C 21.760 287.359,20.041 283.792,19.880 283.614 C 19.852 283.582,19.780 283.636,19.720 283.733 M22.609 289.294 C 22.654 289.467,22.852 289.811,23.048 290.058 C 23.377 290.473,23.375 290.449,23.021 289.744 C 22.611 288.930,22.474 288.780,22.609 289.294 M93.439 300.360 C 90.787 303.322,86.622 308.231,85.844 309.312 L 85.261 310.121 86.315 311.111 C 89.615 314.209,95.039 318.442,100.272 322.005 C 104.186 324.669,105.207 325.524,103.616 324.805 C 103.186 324.610,102.308 324.251,101.664 324.007 C 99.584 323.216,83.202 315.697,81.909 314.939 L 81.121 314.478 80.609 314.999 C 79.169 316.466,72.891 323.975,73.008 324.090 C 73.154 324.233,76.217 325.575,92.068 332.440 C 103.686 337.472,105.417 338.304,108.502 340.337 C 118.966 347.236,129.366 358.407,143.526 377.958 C 145.892 381.224,148.739 385.101,149.853 386.574 C 150.967 388.047,151.843 389.288,151.799 389.331 C 151.388 389.742,135.169 384.746,128.045 382.014 C 126.472 381.411,125.154 380.948,125.117 380.986 C 125.079 381.024,126.366 381.556,127.976 382.168 C 129.587 382.780,131.066 383.352,131.264 383.440 C 131.462 383.528,132.191 383.778,132.883 383.997 C 133.576 384.215,134.224 384.441,134.323 384.499 C 134.422 384.557,134.665 384.630,134.863 384.660 C 135.061 384.691,135.250 384.794,135.283 384.890 C 135.316 384.987,135.464 385.065,135.613 385.065 C 135.955 385.065,140.969 386.618,141.439 386.869 C 141.632 386.973,141.790 387.018,141.790 386.971 C 141.790 386.838,143.648 387.415,143.909 387.628 C 144.035 387.731,144.184 387.770,144.240 387.714 C 144.296 387.657,144.720 387.732,145.181 387.879 C 146.244 388.219,147.930 388.676,148.223 388.703 C 148.347 388.714,148.448 388.796,148.448 388.885 C 148.448 388.973,148.535 388.992,148.641 388.926 C 148.747 388.861,149.374 388.970,150.035 389.170 C 151.142 389.504,156.553 390.742,158.884 391.195 C 159.429 391.300,159.996 391.432,160.144 391.486 C 160.292 391.541,160.616 391.609,160.864 391.636 C 161.111 391.664,162.447 391.897,163.833 392.155 C 167.195 392.779,172.705 393.621,175.259 393.900 C 176.397 394.024,177.368 394.172,177.418 394.229 C 177.467 394.286,177.913 394.347,178.408 394.366 C 179.345 394.401,180.927 394.536,180.927 394.580 C 180.927 394.624,184.139 394.816,184.588 394.799 C 184.821 394.790,185.102 394.839,185.212 394.907 C 185.446 395.052,186.161 395.077,193.162 395.192 C 196.836 395.253,197.236 395.244,194.512 395.164 L 190.643 395.050 188.757 394.086 C 151.724 375.150,111.780 334.076,96.381 299.100 C 95.747 297.660,95.923 297.585,93.439 300.360 M28.886 300.453 C 29.156 300.645,31.964 305.045,32.110 305.504 C 32.177 305.718,32.313 305.893,32.411 305.893 C 32.510 305.893,32.532 305.986,32.461 306.101 C 32.382 306.229,32.412 306.260,32.541 306.180 C 32.655 306.109,32.749 306.132,32.749 306.231 C 32.749 306.396,33.447 307.428,35.493 310.290 C 35.914 310.877,36.338 311.497,36.437 311.668 C 36.754 312.213,37.681 313.473,38.194 314.055 C 38.468 314.366,37.496 312.901,36.035 310.801 C 34.574 308.701,32.408 305.482,31.223 303.649 C 30.037 301.815,28.985 300.316,28.884 300.318 C 28.760 300.319,28.761 300.364,28.886 300.453 M39.125 315.309 C 39.402 315.672,39.665 315.969,39.710 315.969 C 39.835 315.969,39.056 314.917,38.825 314.774 C 38.713 314.705,38.848 314.946,39.125 315.309 M39.934 316.419 C 40.187 316.909,40.837 317.657,40.929 317.565 C 40.970 317.524,40.721 317.168,40.376 316.775 C 40.030 316.381,39.831 316.221,39.934 316.419 M41.032 317.904 C 41.039 318.080,41.568 318.687,42.011 319.028 C 42.203 319.177,42.087 318.954,41.753 318.534 C 41.140 317.762,41.021 317.658,41.032 317.904 M43.205 320.603 C 43.339 320.776,43.753 321.272,44.124 321.704 C 44.495 322.137,44.746 322.582,44.683 322.694 C 44.619 322.806,44.633 322.837,44.714 322.764 C 44.795 322.690,44.988 322.731,45.143 322.854 C 45.299 322.976,44.911 322.449,44.281 321.682 C 43.652 320.915,43.097 320.288,43.049 320.288 C 43.000 320.288,43.071 320.430,43.205 320.603 M47.177 325.365 C 48.198 326.573,49.154 327.705,49.303 327.879 C 49.451 328.053,49.957 328.591,50.427 329.076 C 50.897 329.560,51.282 330.001,51.282 330.056 C 51.282 330.110,51.696 330.566,52.201 331.069 C 52.707 331.572,53.053 331.984,52.971 331.984 C 52.889 331.984,53.003 332.111,53.224 332.266 C 53.446 332.421,53.579 332.626,53.521 332.720 C 53.462 332.815,53.485 332.870,53.570 332.843 C 53.812 332.766,58.654 337.605,58.532 337.802 C 58.473 337.899,58.505 337.927,58.605 337.865 C 58.705 337.804,59.321 338.297,59.974 338.962 C 61.897 340.920,67.802 346.290,69.895 347.985 C 70.087 348.141,70.461 348.471,70.725 348.718 C 70.990 348.965,71.480 349.365,71.815 349.605 C 72.150 349.845,72.587 350.186,72.785 350.362 C 72.982 350.539,74.076 351.413,75.214 352.306 C 76.352 353.198,77.506 354.124,77.778 354.362 C 78.050 354.600,78.273 354.765,78.273 354.729 C 78.273 354.693,79.426 355.522,80.837 356.571 C 87.322 361.395,97.244 367.629,104.966 371.731 C 105.971 372.264,106.852 372.791,106.925 372.900 C 106.998 373.010,107.058 373.045,107.060 372.978 C 107.061 372.911,109.107 373.853,111.606 375.071 C 116.036 377.230,119.898 378.972,123.157 380.280 C 124.846 380.959,125.275 381.080,124.508 380.663 C 123.289 380.000,119.434 373.928,116.450 367.971 C 113.851 362.784,112.935 360.631,110.567 354.150 C 108.719 349.091,108.711 349.077,106.655 347.892 C 101.708 345.038,69.635 328.565,69.027 328.565 C 68.744 328.565,67.104 329.933,62.379 334.112 L 58.632 337.426 58.002 336.819 C 56.372 335.250,49.646 328.023,47.683 325.731 C 46.475 324.321,45.449 323.167,45.404 323.167 C 45.358 323.167,46.156 324.156,47.177 325.365 M236.332 323.334 C 238.608 323.707,238.625 323.601,232.568 346.050 C 226.369 369.023,226.292 369.287,225.209 371.002 C 224.186 372.622,223.482 372.133,223.482 369.803 C 223.482 367.398,223.648 366.675,228.545 347.818 C 231.864 335.040,233.194 329.729,233.197 329.246 C 233.199 328.799,232.132 327.652,231.447 327.366 L 230.859 327.121 230.859 325.684 C 230.859 323.958,231.100 323.612,232.421 323.438 C 232.898 323.375,233.410 323.298,233.558 323.266 C 234.075 323.156,235.453 323.189,236.332 323.334 M260.729 343.958 C 251.524 345.927,245.261 353.742,244.945 363.653 C 244.681 371.959,248.293 378.711,256.822 385.852 C 257.754 386.632,257.832 386.748,257.558 386.948 C 257.389 387.072,257.961 386.941,258.828 386.659 C 259.694 386.376,260.470 386.186,260.551 386.236 C 260.632 386.286,260.725 386.258,260.758 386.173 C 260.808 386.047,265.412 384.427,266.177 384.266 C 266.298 384.241,266.518 384.169,266.667 384.107 C 266.815 384.045,268.030 383.596,269.366 383.110 C 274.261 381.327,280.789 378.606,285.952 376.195 C 286.909 375.748,287.739 375.428,287.796 375.485 C 287.853 375.542,287.899 375.512,287.899 375.418 C 287.899 375.324,288.952 374.726,290.238 374.089 C 291.966 373.234,292.555 372.859,292.491 372.655 C 292.444 372.504,292.322 371.786,292.220 371.061 C 290.841 361.247,285.591 353.263,276.576 347.272 C 271.735 344.054,265.943 342.843,260.729 343.958 M267.663 351.152 C 278.458 353.915,287.656 369.959,281.978 376.120 C 278.753 379.618,269.401 379.130,263.608 375.161 C 256.894 370.561,253.606 360.642,257.024 355.299 C 259.403 351.580,263.341 350.045,267.663 351.152 M290.247 359.498 C 290.028 359.908,290.099 360.125,291.761 364.103 C 293.016 367.103,294.377 371.001,294.377 371.592 C 294.377 371.900,294.504 371.871,295.655 371.291 C 296.767 370.731,296.918 370.597,296.824 370.254 C 296.546 369.241,296.496 368.511,296.705 368.511 C 297.036 368.511,298.156 369.423,298.156 369.692 C 298.156 369.835,299.017 369.437,300.302 368.698 C 301.482 368.020,302.495 367.512,302.551 367.568 C 302.608 367.625,302.654 367.586,302.654 367.481 C 302.654 367.376,302.537 367.245,302.394 367.190 C 302.251 367.135,301.178 366.331,300.010 365.402 C 297.592 363.480,295.239 361.765,293.350 360.547 C 291.027 359.050,290.570 358.895,290.247 359.498 " stroke="none" fill="#fbfbfb" fill-rule="evenodd"></path><path id="path1" d="M193.162 0.298 C 140.114 2.313,91.647 23.881,55.040 61.764 C 53.028 63.847,51.346 65.447,51.239 65.380 C 51.133 65.315,51.098 65.345,51.161 65.447 C 51.316 65.697,49.862 67.330,49.619 67.179 C 49.510 67.112,49.479 67.145,49.548 67.256 C 49.705 67.510,47.343 70.209,47.096 70.056 C 46.993 69.992,46.960 70.024,47.024 70.128 C 47.088 70.231,46.479 71.114,45.672 72.090 C 42.508 75.912,37.373 82.580,36.029 84.611 C 35.784 84.981,35.500 85.233,35.398 85.169 C 35.291 85.103,35.266 85.142,35.340 85.261 C 35.411 85.376,35.111 85.968,34.665 86.594 C 34.224 87.213,32.915 89.177,31.757 90.958 C 30.598 92.740,29.572 94.175,29.476 94.148 C 29.381 94.120,29.350 94.174,29.408 94.267 C 29.465 94.361,28.836 95.557,28.011 96.926 C 27.185 98.295,26.164 100.043,25.744 100.810 C 25.297 101.624,24.899 102.156,24.787 102.087 C 24.678 102.020,24.648 102.054,24.717 102.165 C 24.882 102.431,22.669 106.542,22.439 106.400 C 22.338 106.338,22.311 106.376,22.379 106.485 C 22.540 106.745,19.771 112.288,19.549 112.151 C 19.455 112.093,19.432 112.133,19.498 112.239 C 19.662 112.506,19.245 113.376,19.019 113.237 C 18.919 113.175,18.893 113.214,18.960 113.323 C 19.028 113.432,18.504 114.760,17.797 116.275 C 16.575 118.893,14.867 122.899,13.768 125.725 C 13.483 126.459,13.184 126.976,13.081 126.912 C 12.978 126.848,12.955 126.890,13.029 127.008 C 13.176 127.247,11.686 131.369,11.495 131.251 C 11.426 131.209,11.412 131.336,11.464 131.534 C 11.516 131.732,11.470 131.894,11.363 131.894 C 11.254 131.894,11.219 132.027,11.282 132.193 C 11.366 132.411,11.332 132.452,11.159 132.345 C 11.005 132.250,10.964 132.268,11.043 132.396 C 11.173 132.607,9.923 136.443,9.693 136.539 C 9.618 136.570,9.607 136.725,9.667 136.883 C 9.747 137.090,9.711 137.130,9.539 137.024 C 9.384 136.928,9.344 136.946,9.425 137.077 C 9.603 137.364,8.805 140.005,8.583 139.868 C 8.481 139.804,8.457 139.845,8.528 139.961 C 8.598 140.074,8.374 141.119,8.030 142.283 C 7.188 145.129,6.030 149.381,5.749 150.652 C 5.624 151.221,5.448 151.687,5.359 151.687 C 5.270 151.687,5.241 151.758,5.294 151.845 C 5.381 151.985,4.272 157.309,4.015 157.985 C 3.959 158.133,3.896 158.417,3.875 158.614 C 3.758 159.741,3.536 160.684,3.388 160.684 C 3.294 160.684,3.266 160.762,3.325 160.858 C 3.460 161.076,2.861 164.532,2.675 164.609 C 2.601 164.640,2.581 164.774,2.632 164.907 C 2.683 165.040,2.557 166.148,2.352 167.370 C 1.723 171.119,0.897 177.989,0.614 181.826 C 0.548 182.717,0.471 183.648,0.442 183.896 C 0.084 186.992,-0.034 206.227,0.282 209.987 C 0.369 211.026,0.442 212.382,0.445 213.000 C 0.448 213.624,0.530 214.126,0.630 214.127 C 0.729 214.129,0.688 214.209,0.540 214.305 C 0.351 214.427,0.339 214.480,0.500 214.482 C 0.642 214.484,0.728 214.711,0.723 215.070 C 0.719 215.391,0.764 216.181,0.823 216.824 C 0.882 217.467,0.956 218.318,0.988 218.713 C 1.020 219.109,1.094 219.555,1.154 219.703 C 1.214 219.852,1.282 220.592,1.306 221.348 C 1.330 222.105,1.396 222.696,1.452 222.662 C 1.615 222.565,2.025 226.321,1.878 226.560 C 1.795 226.693,1.820 226.729,1.941 226.655 C 2.053 226.585,2.147 226.670,2.159 226.852 C 2.171 227.027,2.205 227.535,2.235 227.980 C 2.264 228.426,2.349 228.932,2.423 229.105 C 2.497 229.278,2.512 229.539,2.456 229.684 C 2.401 229.829,2.423 229.990,2.506 230.042 C 2.589 230.093,2.710 230.488,2.775 230.919 C 2.983 232.307,3.060 232.732,3.260 233.605 C 3.367 234.077,3.408 234.587,3.349 234.739 C 3.291 234.892,3.312 234.974,3.397 234.921 C 3.584 234.806,3.825 236.397,3.660 236.664 C 3.596 236.768,3.624 236.803,3.722 236.742 C 3.829 236.676,4.022 237.267,4.199 238.199 C 4.363 239.061,4.571 240.090,4.662 240.486 C 4.752 240.882,4.956 241.772,5.116 242.465 C 5.275 243.158,5.486 244.089,5.584 244.534 C 5.683 244.980,5.814 245.547,5.876 245.794 C 5.938 246.041,5.995 246.386,6.002 246.559 C 6.009 246.732,6.088 246.874,6.177 246.874 C 6.267 246.874,6.297 247.036,6.246 247.234 C 6.194 247.432,6.216 247.554,6.295 247.505 C 6.421 247.427,6.664 248.248,6.749 249.033 C 6.765 249.181,6.878 249.546,7.000 249.843 C 7.123 250.139,7.245 250.633,7.273 250.940 C 7.300 251.247,7.380 251.591,7.451 251.705 C 7.521 251.819,7.521 252.005,7.450 252.120 C 7.378 252.237,7.400 252.279,7.501 252.216 C 7.600 252.155,7.769 252.392,7.877 252.743 C 8.051 253.309,8.039 253.369,7.770 253.275 C 7.547 253.198,7.562 253.244,7.827 253.449 C 8.025 253.602,8.189 253.784,8.192 253.854 C 8.195 253.924,8.422 254.650,8.696 255.468 C 8.971 256.286,9.138 257.055,9.067 257.177 C 8.997 257.300,9.005 257.341,9.085 257.268 C 9.165 257.196,9.532 258.046,9.901 259.157 C 10.270 260.269,10.636 261.334,10.714 261.523 C 10.824 261.788,10.799 261.837,10.602 261.735 C 10.461 261.662,10.498 261.725,10.684 261.876 C 10.883 262.038,10.976 262.269,10.911 262.439 C 10.843 262.616,10.874 262.681,10.990 262.609 C 11.095 262.545,11.162 262.601,11.139 262.735 C 11.117 262.869,11.200 263.221,11.325 263.518 C 11.450 263.815,11.566 264.139,11.584 264.238 C 11.602 264.336,11.679 264.518,11.756 264.642 C 11.915 264.895,12.084 265.529,12.113 265.979 C 12.124 266.145,12.197 266.241,12.274 266.193 C 12.352 266.145,12.416 266.253,12.416 266.434 C 12.416 266.614,12.580 267.068,12.781 267.443 C 12.981 267.818,13.098 268.201,13.040 268.295 C 12.982 268.389,13.020 268.466,13.125 268.466 C 13.230 268.466,13.315 268.579,13.315 268.717 C 13.315 268.937,13.921 270.486,14.658 272.155 C 14.789 272.452,15.070 273.099,15.282 273.594 C 15.494 274.089,15.733 274.615,15.813 274.764 C 15.894 274.912,15.939 275.176,15.913 275.349 C 15.887 275.523,15.936 275.622,16.021 275.569 C 16.106 275.517,16.230 275.759,16.295 276.108 C 16.361 276.457,16.480 276.743,16.560 276.743 C 16.640 276.743,16.759 276.986,16.824 277.283 C 16.889 277.580,17.017 277.823,17.108 277.823 C 17.199 277.823,17.274 277.901,17.274 277.996 C 17.274 278.091,17.571 278.794,17.934 279.559 C 18.297 280.323,18.593 281.055,18.593 281.185 C 18.593 281.315,18.633 281.382,18.681 281.334 C 18.729 281.286,18.880 281.462,19.016 281.725 C 19.217 282.112,19.220 282.235,19.034 282.369 C 18.869 282.488,18.893 282.506,19.118 282.434 C 19.403 282.342,19.483 282.487,19.418 282.976 C 19.409 283.039,19.480 283.140,19.576 283.201 C 19.872 283.389,22.121 288.029,21.988 288.177 C 21.919 288.254,21.956 288.263,22.070 288.198 C 22.302 288.065,22.718 289.044,22.522 289.262 C 22.456 289.336,22.503 289.338,22.627 289.267 C 22.831 289.149,22.949 289.476,22.869 289.937 C 22.855 290.018,22.917 290.039,23.008 289.983 C 23.099 289.927,23.302 290.184,23.458 290.554 C 23.713 291.159,24.116 291.910,25.341 294.062 C 25.552 294.433,25.666 294.739,25.593 294.742 C 25.520 294.745,25.603 294.830,25.776 294.931 C 25.949 295.032,26.091 295.188,26.091 295.278 C 26.091 295.368,26.411 295.949,26.803 296.568 C 27.314 297.376,27.454 297.733,27.298 297.832 C 27.146 297.929,27.170 297.971,27.376 297.973 C 27.539 297.974,27.718 298.095,27.774 298.242 C 27.830 298.388,28.489 299.444,29.238 300.589 C 29.988 301.733,30.563 302.731,30.517 302.805 C 30.471 302.880,30.516 303.059,30.618 303.202 C 30.769 303.416,30.784 303.406,30.702 303.149 C 30.542 302.652,30.701 302.779,31.113 303.478 C 31.322 303.832,31.439 304.208,31.373 304.315 C 31.307 304.422,31.337 304.458,31.439 304.394 C 31.635 304.273,32.629 305.634,32.629 306.024 C 32.629 306.150,32.669 306.213,32.718 306.164 C 32.877 306.004,33.669 307.333,33.539 307.543 C 33.464 307.666,33.493 307.699,33.611 307.625 C 33.843 307.482,34.237 308.117,34.047 308.327 C 33.976 308.406,34.033 308.403,34.174 308.321 C 34.366 308.210,34.400 308.250,34.311 308.482 C 34.245 308.652,34.262 308.748,34.347 308.695 C 34.538 308.577,35.979 310.603,36.082 311.133 C 36.123 311.346,36.212 311.569,36.280 311.630 C 36.349 311.691,36.354 311.599,36.292 311.426 C 36.114 310.930,36.261 311.053,36.773 311.827 C 37.289 312.606,37.361 312.822,37.039 312.623 C 36.909 312.543,36.880 312.574,36.962 312.706 C 37.033 312.822,37.154 312.878,37.231 312.831 C 37.307 312.784,38.265 313.936,39.360 315.392 C 40.455 316.848,41.961 318.803,42.707 319.737 C 43.453 320.671,44.015 321.514,43.956 321.609 C 43.897 321.705,43.930 321.733,44.029 321.671 C 44.237 321.543,46.181 323.885,46.092 324.157 C 46.060 324.256,46.092 324.278,46.163 324.208 C 46.310 324.061,47.079 324.970,47.004 325.201 C 46.977 325.285,47.029 325.307,47.120 325.251 C 47.287 325.148,47.589 325.648,47.527 325.924 C 47.509 326.006,47.566 326.029,47.653 325.975 C 47.881 325.834,48.644 326.701,48.499 326.937 C 48.431 327.045,48.462 327.112,48.567 327.085 C 48.672 327.058,49.589 327.941,50.605 329.047 C 51.621 330.154,53.704 332.381,55.235 333.996 C 56.765 335.611,57.773 336.709,57.474 336.437 C 57.175 336.165,56.858 335.942,56.771 335.942 C 56.683 335.942,56.864 336.152,57.172 336.408 C 57.481 336.664,57.801 336.872,57.882 336.870 C 57.963 336.869,58.167 336.992,58.334 337.144 C 58.614 337.397,58.949 337.145,62.383 334.108 C 67.104 329.933,68.744 328.565,69.027 328.565 C 69.635 328.565,101.708 345.038,106.655 347.892 C 108.711 349.077,108.719 349.091,110.567 354.150 C 114.403 364.652,118.135 372.170,122.596 378.388 C 123.405 379.515,124.067 380.500,124.067 380.577 C 124.067 380.654,124.140 380.784,124.230 380.867 C 124.326 380.954,124.340 380.922,124.265 380.792 C 124.194 380.668,124.201 380.568,124.281 380.570 C 124.505 380.574,124.991 380.920,124.786 380.929 C 124.687 380.934,124.749 381.021,124.923 381.122 C 125.097 381.223,125.318 381.257,125.414 381.198 C 125.511 381.138,127.328 381.741,129.453 382.537 C 131.577 383.334,133.421 383.991,133.549 383.998 C 133.678 384.005,133.621 384.087,133.423 384.181 C 133.110 384.329,133.123 384.340,133.519 384.265 C 134.118 384.151,134.799 384.337,134.653 384.574 C 134.587 384.681,134.624 384.707,134.742 384.635 C 134.854 384.565,136.223 384.923,137.783 385.429 C 142.923 387.097,151.618 389.513,151.805 389.326 C 151.845 389.285,150.967 388.047,149.853 386.574 C 148.739 385.101,145.892 381.224,143.526 377.958 C 129.366 358.407,118.966 347.236,108.502 340.337 C 105.417 338.304,103.686 337.472,92.068 332.440 C 76.217 325.575,73.154 324.233,73.008 324.090 C 72.891 323.975,79.169 316.466,80.609 314.999 L 81.121 314.478 81.909 314.939 C 83.202 315.697,99.584 323.216,101.664 324.007 C 102.308 324.251,103.186 324.610,103.616 324.805 C 105.207 325.524,104.186 324.669,100.272 322.005 C 95.039 318.442,89.615 314.209,86.315 311.111 L 85.261 310.121 85.844 309.312 C 87.276 307.323,95.427 297.976,95.730 297.976 C 95.816 297.976,96.109 298.482,96.381 299.100 C 111.771 334.056,151.910 375.330,188.744 394.074 L 190.617 395.028 195.938 395.173 C 201.421 395.323,202.842 395.243,202.921 394.777 C 202.950 394.609,200.198 392.573,195.386 389.204 C 151.507 358.480,125.551 334.128,111.189 310.211 C 107.630 304.284,103.290 294.372,102.482 290.323 C 102.378 289.805,106.413 284.954,110.596 280.567 C 112.518 278.551,114.855 280.611,115.342 284.750 C 116.458 294.230,124.446 306.375,140.777 323.423 C 162.903 346.519,197.504 372.434,208.582 374.206 C 209.615 374.371,209.534 374.287,205.891 371.461 C 162.855 338.069,128.839 301.480,121.675 280.876 C 119.134 273.568,119.162 273.309,123.305 265.834 C 129.266 255.078,134.239 243.227,138.445 229.753 C 139.335 226.904,139.280 226.403,137.463 220.863 C 136.315 217.361,136.432 217.488,133.783 216.906 C 127.225 215.467,125.222 213.818,122.610 207.707 L 121.085 204.139 120.972 201.625 L 120.859 199.112 119.257 197.326 C 115.506 193.142,113.398 189.919,110.278 183.598 C 108.904 180.811,107.292 177.791,106.698 176.885 L 105.616 175.239 103.969 176.643 C 100.627 179.493,98.454 181.569,95.984 184.273 C 94.592 185.797,92.608 187.968,91.576 189.097 C 90.543 190.225,89.429 191.460,89.100 191.841 C 87.448 193.749,87.590 191.949,89.464 187.224 C 92.184 180.368,95.543 176.331,102.159 171.966 C 103.464 171.105,103.441 171.210,102.753 169.345 C 101.732 166.577,101.281 164.569,101.258 162.699 C 101.234 160.715,101.248 160.677,103.604 156.622 C 104.290 155.442,105.563 153.141,106.434 151.509 L 108.017 148.542 107.332 145.031 C 106.176 139.114,106.265 137.824,107.987 135.550 L 108.904 134.338 108.792 133.251 C 108.690 132.250,108.039 128.084,107.583 125.506 C 107.230 123.510,107.721 120.774,108.793 118.758 C 109.141 118.105,109.607 116.784,109.850 115.765 C 110.935 111.207,113.251 106.629,116.566 102.493 C 118.981 99.479,118.914 99.659,118.808 96.461 C 118.488 86.788,122.851 80.321,131.984 76.929 C 136.647 75.198,138.344 73.968,139.891 71.200 C 142.005 67.415,148.451 60.419,152.047 58.006 C 159.345 53.108,169.466 49.246,177.418 48.326 C 195.967 46.181,209.131 47.777,224.831 54.073 C 231.145 56.605,233.584 57.241,243.367 58.912 C 250.880 60.195,251.494 60.412,256.320 63.482 C 261.288 66.642,263.528 67.754,268.736 69.642 C 276.019 72.283,280.548 75.381,283.432 79.694 L 284.707 81.601 288.957 81.696 C 296.260 81.858,296.627 82.492,292.758 88.259 C 290.204 92.066,285.967 96.646,282.366 99.492 C 281.451 100.216,280.702 100.912,280.702 101.040 C 280.702 101.167,281.907 103.728,283.381 106.731 C 286.060 112.192,288.747 117.918,289.742 120.288 C 290.169 121.307,290.318 122.046,290.521 124.157 C 291.414 133.441,291.603 133.998,295.608 139.129 C 299.094 143.594,299.056 143.524,299.053 145.425 C 299.048 148.061,298.654 149.217,297.101 151.147 C 296.092 152.400,294.557 156.947,294.557 158.680 C 294.557 159.122,296.673 161.108,300.135 163.914 C 304.543 167.487,305.411 168.587,308.495 174.514 C 310.369 178.117,311.100 179.374,313.890 183.786 C 316.138 187.341,318.833 193.740,318.988 195.889 C 319.085 197.230,319.443 196.990,314.845 198.667 C 305.785 201.971,302.559 203.238,302.047 203.696 L 301.513 204.173 301.832 204.966 C 302.007 205.401,302.344 206.428,302.582 207.247 C 303.160 209.236,304.252 211.362,306.228 214.348 C 308.882 218.358,308.766 218.688,303.869 221.048 C 301.108 222.378,300.948 222.583,302.026 223.405 C 303.430 224.476,305.173 227.291,305.173 228.487 C 305.173 230.110,303.907 231.031,300.153 232.142 L 298.102 232.749 298.250 242.825 C 298.462 257.173,298.507 255.705,297.802 257.485 C 296.779 260.071,294.512 261.821,290.868 262.836 L 289.069 263.338 278.902 263.327 C 272.640 263.320,265.615 263.195,260.610 263.001 C 250.332 262.602,251.350 262.370,249.849 265.460 C 243.969 277.561,233.997 303.627,231.592 313.180 C 229.901 319.900,230.018 320.771,232.542 320.226 C 233.348 320.051,234.737 319.752,235.628 319.561 C 240.585 318.496,242.451 319.296,251.372 326.313 C 253.401 327.908,257.652 331.188,260.819 333.602 C 267.500 338.693,268.756 339.683,269.352 340.329 C 269.878 340.897,269.919 340.896,267.566 340.409 C 259.735 338.788,251.932 341.287,245.875 347.356 C 236.625 356.623,235.921 369.568,243.924 383.224 C 246.816 388.160,248.605 389.782,250.352 389.054 C 250.633 388.937,250.937 388.887,251.027 388.943 C 251.118 388.999,251.192 388.978,251.192 388.897 C 251.192 388.691,252.934 388.298,253.311 388.419 C 253.574 388.503,253.580 388.489,253.351 388.324 C 253.074 388.125,253.090 388.120,254.286 388.043 C 254.454 388.032,254.644 387.971,254.709 387.906 C 254.773 387.842,254.953 387.838,255.108 387.897 C 255.294 387.969,255.345 387.934,255.260 387.795 C 255.146 387.611,255.731 387.477,256.275 387.563 C 256.350 387.575,256.410 387.503,256.410 387.404 C 256.410 387.305,256.552 387.222,256.725 387.218 C 257.894 387.194,257.927 386.778,256.833 385.861 C 245.597 376.451,242.236 366.211,246.802 355.302 C 251.579 343.890,265.741 340.071,276.576 347.272 C 285.591 353.263,290.841 361.247,292.220 371.061 C 292.516 373.164,292.458 373.097,293.491 372.535 C 294.748 371.850,294.503 370.694,291.622 363.743 C 289.984 359.789,290.000 359.842,290.300 359.433 C 290.829 358.709,294.263 360.824,300.045 365.436 C 302.312 367.244,302.909 367.492,303.590 366.908 C 303.775 366.751,303.974 366.649,304.034 366.682 C 304.094 366.715,304.193 366.674,304.253 366.590 C 304.412 366.371,305.835 365.466,306.109 365.410 C 306.237 365.384,306.423 365.272,306.522 365.162 C 306.621 365.052,307.998 364.127,309.582 363.107 C 362.472 329.037,395.611 272.702,399.814 209.717 C 400.051 206.175,400.050 188.650,399.814 185.425 C 396.651 142.278,381.530 104.577,354.203 71.705 C 347.390 63.510,334.941 51.142,328.567 46.236 C 328.122 45.894,327.677 45.526,327.577 45.418 C 327.101 44.906,320.274 39.640,318.849 38.686 C 318.627 38.538,318.152 38.208,317.793 37.954 C 280.983 11.911,237.033 -1.368,193.162 0.298 M209.357 7.927 C 234.469 9.385,258.326 15.781,281.062 27.151 C 287.742 30.491,295.097 34.707,295.097 35.195 C 295.097 35.650,292.221 40.486,291.950 40.486 C 291.910 40.486,289.747 39.266,287.144 37.774 C 274.457 30.504,262.400 25.387,246.964 20.719 C 208.341 9.040,161.606 12.983,123.418 31.142 C 104.403 40.184,90.628 49.900,73.338 66.463 L 70.357 69.319 68.152 67.199 C 66.939 66.033,65.924 65.024,65.896 64.956 C 65.688 64.451,78.554 52.516,84.031 48.134 C 115.635 22.849,152.637 9.195,193.702 7.665 C 196.268 7.569,206.000 7.732,209.357 7.927 M308.862 44.513 C 310.148 45.598,311.363 46.648,311.561 46.846 L 311.921 47.206 311.471 46.931 C 311.224 46.779,310.594 46.392,310.072 46.072 C 308.879 45.338,308.987 45.274,306.047 48.442 C 302.585 52.172,298.874 56.848,298.876 57.477 C 298.877 57.583,299.342 58.192,299.911 58.831 C 301.265 60.353,301.014 60.178,297.265 56.982 C 293.005 53.353,292.718 53.051,294.933 54.539 L 295.939 55.215 297.560 53.563 C 301.023 50.035,306.073 43.819,306.073 43.085 C 306.073 42.963,305.709 42.459,305.263 41.963 C 304.161 40.738,304.246 40.628,305.488 41.672 C 306.057 42.150,307.575 43.429,308.862 44.513 M305.353 46.912 C 298.232 55.271,297.394 56.350,297.748 56.704 C 298.046 57.003,298.059 56.990,302.529 51.762 C 309.172 43.993,308.543 44.805,308.146 44.515 C 307.658 44.158,307.809 44.029,305.353 46.912 M323.662 57.786 C 326.932 60.986,327.107 61.206,325.374 59.940 L 324.163 59.055 323.464 59.609 C 320.813 61.709,312.910 69.954,312.910 70.620 C 312.910 70.694,313.216 71.131,313.590 71.590 C 313.964 72.049,314.389 72.587,314.535 72.785 C 314.962 73.364,311.362 70.006,309.402 67.996 C 307.752 66.305,307.781 66.240,309.582 67.588 L 310.212 68.059 311.066 67.376 C 313.431 65.485,321.368 57.067,321.368 56.450 C 321.368 56.357,320.943 55.744,320.423 55.086 C 319.144 53.467,319.838 54.045,323.662 57.786 M317.637 63.086 C 311.709 69.130,311.518 69.349,311.831 69.726 C 311.954 69.874,312.121 69.996,312.202 69.996 C 312.493 69.996,323.357 58.573,323.307 58.319 C 323.162 57.568,322.519 58.108,317.637 63.086 M336.952 70.850 C 341.180 75.549,341.115 75.465,339.366 73.968 C 337.871 72.688,337.840 72.672,337.721 73.117 C 337.470 74.053,337.192 77.372,337.153 79.886 L 337.112 82.490 337.832 82.615 C 339.204 82.855,346.282 83.162,346.708 83.001 C 347.121 82.845,347.110 82.817,346.009 81.322 C 345.393 80.486,345.112 80.004,345.384 80.252 C 345.879 80.701,349.926 85.165,350.607 86.012 L 350.967 86.460 350.517 86.101 C 350.270 85.904,349.737 85.450,349.334 85.092 C 348.820 84.636,348.362 84.407,347.805 84.327 C 345.194 83.955,338.252 83.570,337.428 83.751 C 336.778 83.893,336.782 83.861,336.454 90.707 L 336.233 95.313 337.107 96.555 C 338.309 98.260,337.632 97.618,334.113 93.714 C 330.504 89.710,330.104 89.192,331.879 90.817 C 332.659 91.531,333.355 92.080,333.425 92.037 C 333.779 91.818,334.497 83.053,334.186 82.742 C 333.870 82.426,325.233 81.941,324.803 82.216 C 324.549 82.378,324.823 82.847,326.366 84.885 C 327.314 86.138,326.517 85.344,323.864 82.390 C 320.682 78.848,320.287 78.307,321.941 79.759 C 323.066 80.747,323.184 80.804,324.449 80.968 C 326.091 81.180,334.118 81.597,334.239 81.476 C 334.434 81.281,334.698 77.589,334.804 73.575 L 334.916 69.328 334.380 68.537 C 333.047 66.570,333.327 66.821,336.952 70.850 M336.219 72.924 C 335.194 87.965,334.918 94.022,335.243 94.367 C 335.740 94.895,335.711 95.138,336.294 85.732 C 336.595 80.887,336.916 75.749,337.009 74.314 C 337.156 72.030,337.141 71.666,336.892 71.390 C 336.414 70.862,336.350 71.007,336.219 72.924 M56.418 78.543 C 56.166 79.111,55.960 79.677,55.960 79.800 C 55.960 80.484,65.285 88.394,67.330 89.444 C 68.427 90.007,69.269 89.738,70.983 88.278 C 72.205 87.236,72.280 87.074,69.864 90.707 L 68.355 92.974 60.583 93.094 C 53.502 93.202,50.719 93.351,50.435 93.635 C 50.256 93.814,53.877 103.250,55.817 107.661 L 56.911 110.149 55.144 112.744 C 54.173 114.172,53.355 115.340,53.328 115.340 C 53.300 115.340,53.652 114.564,54.110 113.617 L 54.943 111.894 54.417 111.470 C 52.384 109.832,41.135 103.824,40.102 103.824 C 39.973 103.824,39.432 104.249,38.899 104.768 L 37.930 105.713 38.609 104.633 C 39.877 102.618,43.549 97.166,43.639 97.166 C 43.688 97.166,43.400 97.821,42.997 98.621 C 42.143 100.320,42.083 100.168,44.138 101.534 C 47.944 104.062,54.161 107.213,54.161 106.613 C 54.161 106.412,49.912 95.486,48.927 93.156 C 48.344 91.776,47.904 90.587,47.950 90.514 C 47.995 90.441,50.969 90.328,54.560 90.263 C 58.151 90.198,62.091 90.093,63.316 90.031 L 65.543 89.917 64.845 89.309 C 60.438 85.465,56.403 82.260,55.318 81.740 L 54.766 81.476 53.732 82.528 L 52.698 83.581 54.082 81.422 C 56.693 77.347,57.250 76.660,56.418 78.543 M254.835 78.629 C 252.223 80.053,247.595 83.045,244.714 85.173 C 237.009 90.863,234.034 98.470,236.779 105.463 C 238.228 109.155,238.845 109.279,243.726 106.862 C 251.162 103.180,255.349 96.595,257.044 85.919 C 258.245 78.349,257.834 76.994,254.835 78.629 M285.380 82.421 C 271.017 83.467,264.103 86.721,257.105 95.726 C 253.140 100.828,251.972 103.970,253.526 105.353 C 254.829 106.513,267.906 105.578,272.695 103.982 C 281.689 100.984,293.652 89.803,294.333 83.756 C 294.489 82.376,291.702 81.960,285.380 82.421 M233.399 85.418 C 230.737 86.730,220.625 98.404,216.872 104.499 C 212.752 111.191,211.860 118.096,214.660 121.632 C 216.459 123.902,217.520 123.221,223.766 115.782 C 231.013 107.152,233.059 103.390,234.723 95.642 C 235.891 90.203,236.165 86.938,235.522 86.121 C 234.809 85.214,234.214 85.017,233.399 85.418 M60.549 90.520 C 49.680 90.834,49.276 90.862,49.338 91.293 C 49.413 91.823,49.738 91.830,60.092 91.518 C 68.038 91.278,68.832 91.227,69.043 90.937 C 69.546 90.250,69.688 90.257,60.549 90.520 M359.245 100.460 C 361.703 105.252,362.013 106.081,360.330 103.361 C 359.749 102.422,359.213 101.716,359.138 101.794 C 358.375 102.588,355.767 110.647,356.176 110.946 C 356.899 111.475,364.091 113.900,364.936 113.900 C 365.376 113.900,365.367 113.822,364.732 112.101 C 364.435 111.296,364.197 110.582,364.202 110.514 C 364.215 110.348,367.949 117.724,367.962 117.940 C 367.967 118.034,367.608 117.611,367.163 117.000 C 366.037 115.452,364.766 114.850,358.565 112.926 C 355.223 111.889,355.505 111.845,354.876 113.495 C 352.438 119.897,351.710 122.997,352.299 124.478 C 353.163 126.654,352.519 125.593,350.247 121.098 C 347.833 116.320,347.335 115.187,348.389 116.869 C 349.972 119.397,349.819 119.219,350.090 118.848 C 350.818 117.853,353.221 110.594,352.922 110.295 C 352.451 109.824,344.310 107.092,344.076 107.326 C 344.026 107.376,344.234 108.106,344.538 108.949 C 344.841 109.792,345.056 110.481,345.015 110.481 C 344.934 110.481,341.926 104.598,341.565 103.734 L 341.340 103.194 341.655 103.639 C 342.712 105.132,343.138 105.575,343.861 105.935 C 344.918 106.460,349.806 108.163,351.909 108.740 L 353.561 109.193 353.950 108.172 C 356.319 101.962,357.337 98.076,356.956 96.706 C 356.552 95.254,356.703 95.502,359.245 100.460 M206.658 99.030 C 203.023 100.729,196.247 105.324,193.843 107.719 C 190.151 111.397,187.811 118.051,187.778 124.966 C 187.740 132.912,190.867 132.275,198.825 122.717 C 205.563 114.625,211.246 104.624,211.246 100.859 C 211.246 98.980,208.827 98.015,206.658 99.030 M358.056 100.349 C 357.128 102.713,351.021 120.960,351.006 121.413 C 350.962 122.694,351.362 122.426,351.922 120.798 C 355.287 111.017,358.614 100.957,358.614 100.561 C 358.614 99.868,358.292 99.745,358.056 100.349 M41.340 101.458 L 41.046 101.956 47.288 105.303 C 56.243 110.105,55.672 109.861,55.172 108.672 C 54.918 108.067,53.939 107.503,43.804 102.114 L 41.634 100.961 41.340 101.458 M248.493 107.039 C 246.270 107.231,245.836 107.752,246.043 109.977 C 246.558 115.522,252.018 118.379,265.728 120.277 C 271.427 121.066,279.415 120.149,281.400 118.479 C 284.493 115.877,274.880 109.764,264.867 107.967 C 260.790 107.235,251.989 106.736,248.493 107.039 M182.006 108.583 C 180.199 109.379,170.035 119.043,166.289 123.528 C 159.403 131.769,157.867 138.762,162.020 142.962 C 167.164 148.164,174.692 140.939,181.334 124.426 C 184.077 117.605,185.519 111.509,184.800 109.773 C 184.393 108.791,182.940 108.171,182.006 108.583 M34.657 112.375 C 34.126 114.127,33.815 113.806,38.057 115.880 C 41.500 117.564,45.190 119.078,48.127 120.011 C 50.198 120.670,49.921 120.798,51.125 118.623 C 51.844 117.324,52.136 116.954,51.834 117.724 C 51.280 119.139,47.115 128.949,46.295 130.769 C 45.168 133.274,45.352 133.172,43.194 132.479 L 41.655 131.984 43.335 131.894 L 45.015 131.804 45.917 129.735 C 47.023 127.196,47.920 124.565,47.793 124.232 C 47.683 123.946,44.073 122.160,42.531 121.629 L 41.484 121.269 41.170 121.678 C 40.857 122.085,39.288 125.779,38.868 127.098 C 38.649 127.784,38.654 127.799,39.431 128.603 C 40.369 129.573,40.286 129.563,37.382 128.350 C 35.130 127.409,34.958 127.153,36.639 127.242 L 37.830 127.305 38.548 125.686 C 38.943 124.795,39.537 123.325,39.867 122.418 L 40.468 120.769 38.633 119.970 C 36.162 118.894,33.535 117.974,33.249 118.084 C 32.924 118.209,31.496 120.975,30.501 123.409 L 29.667 125.450 30.772 126.692 C 31.379 127.376,31.777 127.935,31.656 127.935 C 31.225 127.935,28.405 126.280,28.485 126.074 C 29.268 124.058,35.006 110.685,35.041 110.792 C 35.069 110.874,34.895 111.586,34.657 112.375 M227.072 114.312 C 224.816 115.161,222.796 117.525,222.223 119.986 C 220.825 125.994,231.064 130.902,244.984 130.897 C 254.717 130.892,258.399 128.580,256.038 123.953 C 254.218 120.385,245.708 116.328,236.437 114.608 C 233.806 114.120,228.065 113.939,227.072 114.312 M33.612 115.257 C 33.501 115.501,33.449 115.740,33.496 115.788 C 33.714 116.005,48.843 122.357,49.143 122.357 C 49.671 122.357,49.604 121.539,49.052 121.249 C 48.482 120.950,40.161 117.419,36.025 115.721 L 33.814 114.813 33.612 115.257 M157.252 120.043 C 156.022 120.750,153.558 122.136,151.777 123.123 C 141.628 128.747,135.057 136.197,133.131 144.263 C 131.645 150.486,135.738 156.706,140.285 155.135 C 146.735 152.905,155.723 139.651,160.128 125.871 C 162.379 118.830,161.713 117.481,157.252 120.043 M375.116 134.121 C 375.087 134.208,374.794 133.695,374.465 132.981 L 373.866 131.682 373.253 131.797 C 370.634 132.288,360.907 136.240,361.499 136.572 C 361.822 136.753,369.103 138.707,373.954 139.915 C 377.818 140.878,377.696 140.732,376.133 142.510 C 374.014 144.919,367.585 152.482,367.206 153.012 L 366.838 153.527 367.809 153.401 C 370.072 153.105,378.435 151.193,379.414 150.747 C 379.866 150.541,379.882 150.485,379.772 149.544 C 379.608 148.154,379.736 148.399,380.749 151.423 C 381.693 154.242,381.780 154.812,381.043 153.358 C 380.349 151.990,380.439 152.011,377.513 152.514 C 371.460 153.555,366.204 154.835,365.406 155.463 C 364.693 156.024,364.328 157.151,364.447 158.427 C 364.541 159.437,364.480 159.317,363.590 156.725 L 362.633 153.936 364.838 151.507 C 369.583 146.278,373.721 141.170,373.440 140.889 C 373.145 140.595,360.712 137.362,358.172 136.920 L 357.042 136.723 356.660 135.433 C 356.450 134.724,356.078 133.505,355.834 132.725 C 355.311 131.059,355.415 131.089,356.275 132.853 C 356.717 133.758,357.016 134.159,357.276 134.196 C 358.079 134.311,366.027 131.302,370.264 129.278 L 372.647 128.141 372.561 127.003 C 372.483 125.967,372.595 126.226,373.822 129.914 C 374.563 132.140,375.145 134.033,375.116 134.121 M203.329 127.229 C 200.886 127.386,199.569 127.929,197.961 129.442 C 196.247 131.055,196.108 131.987,197.244 134.256 C 200.128 140.018,207.096 142.423,220.873 142.412 C 227.547 142.407,227.814 142.372,229.204 141.312 C 232.245 138.992,229.251 135.494,220.381 131.006 C 213.372 127.459,210.302 126.779,203.329 127.229 M370.579 130.979 C 369.095 131.553,366.383 132.634,364.552 133.382 C 358.423 135.884,358.100 136.053,359.205 136.180 C 360.161 136.290,373.079 131.249,373.472 130.613 C 373.929 129.874,373.196 129.967,370.579 130.979 M129.377 134.860 C 129.255 135.007,127.484 136.398,125.441 137.951 C 115.699 145.358,110.353 150.606,107.677 155.392 C 103.836 162.260,107.826 168.258,114.972 166.356 C 121.452 164.632,127.112 155.222,129.910 141.520 C 130.960 136.380,130.710 133.254,129.377 134.860 M41.990 136.136 L 43.670 136.779 43.236 137.976 C 42.350 140.415,38.894 152.082,37.655 156.815 C 37.271 158.281,37.279 158.278,34.776 157.698 L 33.378 157.374 34.368 157.223 C 36.645 156.876,36.578 156.912,37.023 155.790 C 37.628 154.263,38.314 151.575,38.440 150.234 L 38.552 149.052 37.675 148.678 C 35.332 147.681,27.506 145.399,24.561 144.855 C 23.968 144.745,23.308 144.619,23.096 144.574 C 22.758 144.502,22.617 144.712,21.942 146.291 C 20.865 148.813,20.898 148.491,22.142 144.295 C 24.449 136.514,24.720 135.781,24.199 138.744 C 24.052 139.578,23.932 140.280,23.932 140.302 C 23.929 140.757,32.988 143.722,37.607 144.778 C 39.490 145.208,39.497 145.209,39.794 144.851 C 40.398 144.123,41.780 140.273,42.162 138.254 C 42.281 137.624,42.082 137.347,40.665 136.171 C 39.655 135.332,39.876 135.327,41.990 136.136 M176.968 139.466 C 174.276 139.639,172.395 140.911,170.383 143.920 C 168.175 147.222,170.458 151.584,175.249 153.213 C 183.840 156.135,205.455 156.866,208.925 154.352 C 210.600 153.139,210.432 152.329,208.029 150.030 C 201.244 143.539,187.308 138.799,176.968 139.466 M374.124 142.993 C 371.920 145.379,364.026 154.733,363.784 155.246 C 363.526 155.791,363.890 156.229,364.237 155.791 C 364.361 155.634,365.883 153.857,367.620 151.842 C 374.335 144.049,376.217 141.687,375.934 141.404 C 375.817 141.287,375.202 141.826,374.124 142.993 M23.408 141.835 C 23.310 142.097,23.327 142.282,23.459 142.357 C 23.617 142.449,35.850 146.122,39.092 147.052 C 39.857 147.272,39.919 147.244,39.987 146.650 C 40.043 146.158,40.516 146.322,30.153 143.244 C 23.345 141.222,23.617 141.278,23.408 141.835 M152.227 151.991 C 147.458 152.782,142.614 155.619,141.262 158.410 C 140.011 160.995,145.226 165.860,150.759 167.270 C 158.010 169.117,180.166 166.298,183.736 163.073 C 186.423 160.645,183.511 157.976,175.744 155.749 C 166.309 153.044,155.902 151.380,152.227 151.991 M18.134 158.598 L 18.046 160.291 20.134 160.842 C 24.529 162.001,30.544 163.021,33.324 163.079 L 34.979 163.113 35.360 161.763 C 36.188 158.831,36.127 159.508,34.972 166.078 C 34.068 171.221,33.946 171.612,34.035 169.089 L 34.098 167.328 33.198 167.061 C 28.940 165.797,17.641 164.049,17.299 164.602 C 17.235 164.705,16.987 165.486,16.749 166.336 C 16.510 167.187,16.283 167.850,16.243 167.810 C 16.153 167.720,18.042 156.905,18.147 156.905 C 18.189 156.905,18.183 157.667,18.134 158.598 M17.795 161.516 C 17.344 162.059,17.784 162.255,20.723 162.821 C 23.523 163.359,33.239 165.084,34.188 165.212 C 34.574 165.264,34.646 165.194,34.692 164.721 C 34.755 164.074,35.594 164.283,26.811 162.755 C 18.162 161.250,18.031 161.232,17.795 161.516 M124.059 164.543 C 121.023 165.015,116.852 166.798,115.917 168.024 C 115.491 168.582,115.422 168.857,115.368 170.212 C 115.106 176.836,119.450 180.478,129.447 182.014 C 135.476 182.940,147.657 181.733,152.526 179.727 C 154.407 178.953,154.413 178.974,151.560 176.155 C 142.557 167.261,132.874 163.173,124.059 164.543 M385.325 169.929 C 386.007 173.659,386.069 174.600,385.523 172.919 C 385.346 172.375,385.146 171.869,385.078 171.794 C 384.688 171.362,372.950 174.267,372.564 174.892 C 372.479 175.029,380.872 178.449,385.830 180.297 C 387.729 181.006,387.716 180.860,386.010 182.362 C 382.534 185.423,375.709 191.726,375.709 191.874 C 375.709 191.970,376.328 191.990,377.193 191.921 C 381.413 191.586,384.984 191.216,386.595 190.945 L 388.394 190.643 388.484 189.294 L 388.574 187.944 389.078 190.553 C 389.807 194.328,389.813 194.412,389.262 193.207 L 388.788 192.173 387.184 192.173 C 384.163 192.173,375.511 193.026,374.319 193.442 C 373.471 193.737,372.836 194.836,372.706 196.232 C 372.646 196.874,372.576 197.376,372.550 197.350 C 372.524 197.323,372.281 196.088,372.011 194.605 L 371.519 191.910 372.570 191.007 C 375.030 188.894,380.778 183.627,382.240 182.146 L 383.823 180.542 383.319 180.313 C 381.782 179.611,371.454 175.653,369.444 174.995 C 368.316 174.626,368.327 174.647,367.814 171.750 C 367.330 169.015,367.352 168.869,367.965 170.760 L 368.461 172.290 369.251 172.239 C 371.046 172.124,379.520 169.910,382.996 168.648 L 384.435 168.125 384.491 167.174 C 384.568 165.839,384.594 165.926,385.325 169.929 M107.739 169.694 C 104.159 170.548,95.931 176.785,93.439 180.535 C 91.565 183.353,88.139 191.123,88.576 191.560 C 88.623 191.607,90.059 190.083,91.768 188.175 C 97.100 182.221,99.311 179.965,102.564 177.163 C 107.759 172.688,109.587 170.661,109.110 169.903 C 108.871 169.524,108.615 169.485,107.739 169.694 M378.228 171.641 C 369.734 173.977,369.690 173.991,369.897 174.198 C 370.414 174.714,371.378 174.542,377.993 172.752 C 381.674 171.755,384.731 170.940,384.786 170.940 C 384.841 170.940,384.885 170.697,384.885 170.400 C 384.885 169.735,385.718 169.580,378.228 171.641 M18.219 175.017 C 19.223 175.144,19.323 175.352,18.458 175.514 C 16.402 175.900,16.010 176.124,15.543 177.180 C 13.813 181.092,14.531 185.360,17.025 185.986 C 18.367 186.323,19.192 185.705,21.931 182.309 C 25.379 178.036,26.630 177.066,28.384 177.306 C 31.714 177.762,32.744 181.400,31.397 187.944 C 30.810 190.796,31.022 190.592,28.968 190.280 C 28.029 190.137,27.195 190.018,27.115 190.017 C 26.555 190.004,27.379 189.674,28.443 189.484 L 29.732 189.254 30.325 187.969 C 32.087 184.152,31.198 180.120,28.592 180.118 C 27.552 180.117,26.669 180.930,24.044 184.313 C 20.707 188.613,19.936 189.211,17.893 189.081 C 14.085 188.838,12.918 185.022,14.385 177.613 C 14.688 176.088,14.935 174.801,14.935 174.754 C 14.935 174.672,16.464 174.794,18.219 175.017 M26.340 178.299 C 25.375 178.863,24.388 179.918,22.029 182.906 C 21.248 183.896,20.276 185.039,19.869 185.447 C 17.449 187.873,14.650 186.127,14.209 181.916 L 14.086 180.747 14.061 182.122 C 13.999 185.420,15.538 187.674,17.851 187.674 C 19.209 187.674,19.991 187.001,23.000 183.240 C 24.676 181.145,26.002 179.661,26.467 179.360 C 29.119 177.642,31.483 179.510,31.551 183.377 C 31.569 184.389,31.635 184.846,31.738 184.665 C 31.929 184.325,31.767 181.725,31.498 180.816 C 30.749 178.286,28.357 177.118,26.340 178.299 M384.580 182.067 C 378.533 187.107,371.332 194.214,372.548 193.940 C 373.009 193.837,386.145 181.681,386.145 181.358 C 386.145 180.985,385.559 181.251,384.580 182.067 M17.526 200.135 C 17.578 200.556,17.667 202.317,17.724 204.049 C 19.101 246.017,33.921 285.095,60.395 316.573 C 61.964 318.438,63.329 320.086,63.428 320.234 C 63.602 320.495,60.759 323.424,59.328 324.457 L 58.828 324.819 58.186 324.128 C 46.637 311.687,33.275 289.696,25.512 270.355 C 17.007 249.163,11.710 223.172,11.698 202.572 L 11.696 199.567 12.910 199.504 C 13.578 199.469,14.869 199.425,15.778 199.405 L 17.432 199.370 17.526 200.135 M389.429 205.419 L 390.643 205.525 390.642 206.991 C 390.636 213.398,388.999 227.049,387.111 236.437 C 377.844 282.529,352.422 322.805,315.044 350.617 C 311.861 352.985,302.871 359.088,302.767 358.951 C 302.587 358.712,300.299 354.963,299.946 354.327 L 299.514 353.549 299.959 353.203 C 300.204 353.012,301.903 351.830,303.734 350.576 C 351.887 317.595,381.034 266.509,384.718 208.637 C 384.832 206.856,384.966 205.329,385.018 205.244 C 385.103 205.101,386.310 205.150,389.429 205.419 M233.558 323.266 C 233.410 323.298,232.898 323.375,232.421 323.438 C 231.100 323.612,230.859 323.958,230.859 325.684 L 230.859 327.121 231.447 327.366 C 232.132 327.652,233.199 328.799,233.197 329.246 C 233.194 329.729,231.864 335.040,228.545 347.818 C 223.648 366.675,223.482 367.398,223.482 369.803 C 223.482 372.776,224.671 372.604,226.029 369.435 C 226.639 368.013,236.577 331.681,237.249 328.416 C 237.664 326.404,237.770 324.212,237.473 323.818 C 237.117 323.347,234.746 323.013,233.558 323.266 M261.821 351.242 C 255.700 353.443,253.900 361.005,257.732 368.421 C 260.975 374.698,266.574 378.080,274.176 378.356 C 278.325 378.507,280.299 377.941,281.978 376.120 C 289.443 368.021,272.682 347.336,261.821 351.242 M296.536 368.767 C 296.536 368.908,296.630 369.429,296.744 369.925 L 296.952 370.826 297.554 370.367 C 298.311 369.789,298.308 369.570,297.538 368.982 C 296.845 368.454,296.536 368.388,296.536 368.767 " stroke="none" fill="#c4444c" fill-rule="evenodd"></path></g></svg>