<svg id="svg" version="1.1" xmlns="http://www.w3.org/2000/svg" xmlns:xlink="http://www.w3.org/1999/xlink" width="400" height="400" viewBox="0, 0, 400,400"><g id="svgg"><path id="path0" d="M195.200 0.594 C 195.200 1.105,193.444 1.203,182.700 1.294 L 170.200 1.400 170.072 2.300 C 169.946 3.186,169.854 3.200,164.172 3.200 C 158.703 3.200,158.400 3.241,158.400 3.985 C 158.400 4.700,158.071 4.780,154.700 4.885 C 151.208 4.994,150.993 5.051,150.872 5.900 C 150.751 6.751,150.564 6.800,147.405 6.800 C 143.542 6.800,142.800 7.000,142.800 8.043 C 142.800 8.714,142.481 8.800,140.000 8.800 C 137.293 8.800,137.200 8.833,137.200 9.782 C 137.200 10.725,137.081 10.770,134.300 10.882 C 131.639 10.990,131.389 11.074,131.272 11.900 C 131.154 12.734,130.942 12.800,128.380 12.800 C 125.765 12.800,125.602 12.854,125.364 13.800 C 125.144 14.677,124.897 14.800,123.357 14.800 C 121.750 14.800,121.600 14.885,121.600 15.800 C 121.600 16.771,121.518 16.800,118.827 16.800 C 116.458 16.800,116.019 16.910,115.814 17.557 C 115.645 18.087,115.040 18.393,113.787 18.581 C 112.378 18.792,112.000 19.013,112.000 19.625 C 112.000 20.180,111.723 20.400,111.026 20.400 C 109.561 20.400,108.000 21.105,108.000 21.767 C 108.000 22.172,107.472 22.392,106.300 22.477 C 104.987 22.572,104.510 22.805,104.205 23.500 C 103.963 24.052,103.460 24.400,102.905 24.400 C 102.212 24.400,102.000 24.629,102.000 25.378 C 102.000 26.261,101.815 26.368,100.100 26.478 C 98.479 26.582,98.181 26.732,98.072 27.500 C 97.962 28.279,97.705 28.400,96.172 28.400 C 94.549 28.400,94.400 28.484,94.400 29.400 C 94.400 30.200,94.200 30.400,93.400 30.400 C 92.667 30.400,92.400 30.613,92.400 31.200 C 92.400 31.844,92.133 32.000,91.033 32.000 C 89.163 32.000,88.400 32.352,88.400 33.215 C 88.400 33.667,88.058 33.993,87.500 34.072 C 86.922 34.154,86.554 34.522,86.472 35.100 C 86.362 35.879,86.105 36.000,84.572 36.000 C 82.949 36.000,82.800 36.084,82.800 37.000 C 82.800 37.800,82.600 38.000,81.800 38.000 C 81.006 38.000,80.800 38.202,80.800 38.977 C 80.800 39.840,80.602 39.968,79.100 40.077 C 77.798 40.171,77.309 40.407,77.012 41.084 C 76.799 41.570,76.259 42.020,75.812 42.084 C 75.321 42.154,74.949 42.556,74.872 43.100 C 74.780 43.751,74.476 44.000,73.772 44.000 C 73.078 44.000,72.800 44.221,72.800 44.772 C 72.800 45.268,72.478 45.590,71.900 45.672 C 71.322 45.754,70.954 46.122,70.872 46.700 C 70.790 47.278,70.468 47.600,69.972 47.600 C 69.420 47.600,69.200 47.878,69.200 48.577 C 69.200 49.440,69.002 49.568,67.500 49.677 C 66.203 49.771,65.709 50.008,65.416 50.675 C 65.204 51.157,64.696 51.638,64.286 51.746 C 63.876 51.853,63.446 52.304,63.330 52.748 C 63.213 53.192,62.732 53.610,62.259 53.678 C 61.730 53.753,61.352 54.136,61.275 54.675 C 61.198 55.221,60.821 55.598,60.275 55.675 C 59.721 55.754,59.353 56.130,59.272 56.700 C 59.190 57.278,58.868 57.600,58.372 57.600 C 57.876 57.600,57.600 57.876,57.600 58.372 C 57.600 58.868,57.278 59.190,56.700 59.272 C 56.130 59.353,55.754 59.721,55.675 60.275 C 55.598 60.821,55.221 61.198,54.675 61.275 C 54.136 61.352,53.753 61.730,53.678 62.259 C 53.610 62.732,53.192 63.213,52.748 63.330 C 52.304 63.446,51.853 63.876,51.746 64.286 C 51.638 64.696,51.157 65.204,50.675 65.416 C 50.008 65.709,49.771 66.203,49.677 67.500 C 49.568 69.002,49.440 69.200,48.577 69.200 C 47.878 69.200,47.600 69.420,47.600 69.972 C 47.600 70.468,47.278 70.790,46.700 70.872 C 46.122 70.954,45.754 71.322,45.672 71.900 C 45.590 72.478,45.268 72.800,44.772 72.800 C 44.221 72.800,44.000 73.078,44.000 73.772 C 44.000 74.476,43.751 74.780,43.100 74.872 C 42.556 74.949,42.154 75.321,42.084 75.812 C 42.020 76.259,41.570 76.799,41.084 77.012 C 40.407 77.309,40.171 77.798,40.077 79.100 C 39.968 80.602,39.840 80.800,38.977 80.800 C 38.202 80.800,38.000 81.006,38.000 81.800 C 38.000 82.600,37.800 82.800,37.000 82.800 C 36.200 82.800,36.000 83.000,36.000 83.800 C 36.000 84.523,35.785 84.800,35.225 84.800 C 34.614 84.800,34.392 85.177,34.182 86.578 C 33.971 87.987,33.738 88.381,33.058 88.478 C 32.528 88.553,32.152 88.937,32.075 89.481 C 32.006 89.966,31.601 90.473,31.175 90.608 C 30.562 90.803,30.400 91.225,30.400 92.627 C 30.400 94.252,30.316 94.400,29.400 94.400 C 28.481 94.400,28.400 94.547,28.400 96.200 C 28.400 97.853,28.319 98.000,27.400 98.000 C 26.561 98.000,26.400 98.189,26.400 99.172 C 26.400 100.083,26.200 100.373,25.500 100.472 C 24.754 100.578,24.579 100.887,24.478 102.275 C 24.378 103.649,24.199 103.973,23.478 104.075 C 22.736 104.181,22.581 104.494,22.478 106.100 C 22.380 107.633,22.214 108.000,21.621 108.000 C 20.779 108.000,20.400 108.756,20.400 110.433 C 20.400 111.075,20.233 111.600,20.029 111.600 C 19.222 111.600,18.400 112.927,18.400 114.229 C 18.400 115.333,18.244 115.600,17.600 115.600 C 16.871 115.600,16.800 115.867,16.800 118.600 C 16.800 121.533,16.778 121.600,15.800 121.600 C 14.884 121.600,14.800 121.749,14.800 123.372 C 14.800 124.905,14.679 125.162,13.900 125.272 C 13.074 125.389,12.990 125.639,12.882 128.300 C 12.770 131.081,12.725 131.200,11.782 131.200 C 10.877 131.200,10.800 131.349,10.800 133.105 C 10.800 134.697,10.652 135.075,9.900 135.405 C 9.080 135.765,8.990 136.110,8.885 139.274 C 8.777 142.513,8.710 142.757,7.885 142.874 C 7.078 142.989,6.990 143.254,6.882 145.900 C 6.781 148.412,6.666 148.800,6.025 148.800 C 5.011 148.800,4.800 149.557,4.800 153.206 C 4.800 155.995,4.711 156.374,4.000 156.600 C 3.251 156.838,3.200 157.205,3.200 162.399 C 3.200 167.845,3.184 167.947,2.300 168.072 C 1.402 168.200,1.400 168.219,1.292 176.900 C 1.201 184.267,1.094 185.600,0.592 185.600 C 0.080 185.600,0.000 187.551,0.000 200.000 C 0.000 212.533,0.078 214.400,0.600 214.400 C 1.115 214.400,1.200 215.644,1.200 223.200 L 1.200 232.000 2.200 232.000 L 3.200 232.000 3.200 237.800 C 3.200 243.296,3.241 243.600,3.985 243.600 C 4.700 243.600,4.780 243.929,4.885 247.300 C 4.991 250.698,5.073 251.032,5.900 251.395 C 6.704 251.748,6.800 252.074,6.800 254.469 C 6.800 257.508,7.297 259.200,8.190 259.200 C 8.678 259.200,8.800 259.757,8.800 261.992 C 8.800 264.624,8.857 264.799,9.782 265.031 C 10.674 265.255,10.775 265.504,10.882 267.739 C 10.983 269.848,11.129 270.256,11.900 270.595 C 12.652 270.925,12.800 271.303,12.800 272.895 C 12.800 274.660,12.873 274.800,13.800 274.800 C 14.771 274.800,14.800 274.880,14.800 277.600 C 14.800 280.320,14.829 280.400,15.800 280.400 C 16.733 280.400,16.800 280.533,16.800 282.400 C 16.800 284.115,16.911 284.400,17.578 284.400 C 18.223 284.400,18.377 284.726,18.478 286.300 C 18.581 287.907,18.736 288.219,19.479 288.325 C 20.221 288.431,20.377 288.744,20.479 290.325 C 20.582 291.921,20.734 292.219,21.500 292.328 C 22.279 292.438,22.400 292.695,22.400 294.228 C 22.400 295.841,22.488 296.000,23.378 296.000 C 24.261 296.000,24.368 296.185,24.478 297.900 C 24.582 299.521,24.732 299.819,25.500 299.928 C 26.260 300.036,26.400 300.302,26.400 301.638 C 26.400 302.944,26.569 303.284,27.369 303.588 C 27.931 303.802,28.394 304.345,28.469 304.878 C 28.554 305.478,28.914 305.845,29.500 305.928 C 30.279 306.038,30.400 306.295,30.400 307.828 C 30.400 309.333,30.520 309.600,31.200 309.600 C 31.787 309.600,32.000 309.867,32.000 310.600 C 32.000 311.400,32.200 311.600,33.000 311.600 C 33.872 311.600,34.000 311.776,34.000 312.967 C 34.000 314.837,34.352 315.600,35.215 315.600 C 35.667 315.600,35.993 315.942,36.072 316.500 C 36.154 317.078,36.522 317.446,37.100 317.528 C 37.793 317.626,38.000 317.918,38.000 318.795 C 38.000 320.455,38.385 321.200,39.243 321.200 C 39.784 321.200,40.000 321.486,40.000 322.200 C 40.000 323.000,40.200 323.200,41.000 323.200 C 41.800 323.200,42.000 323.400,42.000 324.200 C 42.000 325.000,42.200 325.200,43.000 325.200 C 43.800 325.200,44.000 325.400,44.000 326.200 C 44.000 326.913,44.216 327.200,44.755 327.200 C 45.341 327.200,45.569 327.596,45.775 328.975 C 45.989 330.398,46.216 330.775,46.921 330.875 C 47.479 330.954,47.847 331.329,47.928 331.900 C 48.010 332.478,48.332 332.800,48.828 332.800 C 49.385 332.800,49.600 333.079,49.600 333.800 C 49.600 334.600,49.800 334.800,50.600 334.800 C 51.400 334.800,51.600 335.000,51.600 335.800 C 51.600 336.600,51.800 336.800,52.600 336.800 C 53.400 336.800,53.600 337.000,53.600 337.800 C 53.600 338.600,53.800 338.800,54.600 338.800 C 55.400 338.800,55.600 339.000,55.600 339.800 C 55.600 340.600,55.800 340.800,56.600 340.800 C 57.400 340.800,57.600 341.000,57.600 341.800 C 57.600 342.521,57.815 342.800,58.372 342.800 C 58.868 342.800,59.190 343.122,59.272 343.700 C 59.353 344.270,59.721 344.646,60.275 344.725 C 60.821 344.802,61.198 345.179,61.275 345.725 C 61.354 346.279,61.730 346.647,62.300 346.728 C 62.878 346.810,63.200 347.132,63.200 347.628 C 63.200 348.185,63.479 348.400,64.200 348.400 C 65.000 348.400,65.200 348.600,65.200 349.400 C 65.200 350.192,65.402 350.400,66.172 350.400 C 66.876 350.400,67.180 350.649,67.272 351.300 C 67.349 351.844,67.721 352.246,68.212 352.316 C 68.659 352.380,69.199 352.830,69.412 353.316 C 69.693 353.956,70.207 354.234,71.275 354.323 C 72.442 354.420,72.776 354.629,72.875 355.323 C 72.953 355.870,73.329 356.247,73.875 356.325 C 74.421 356.402,74.798 356.779,74.875 357.325 C 74.954 357.879,75.330 358.247,75.900 358.328 C 76.478 358.410,76.800 358.732,76.800 359.228 C 76.800 359.775,77.078 360.000,77.757 360.000 C 78.443 360.000,78.784 360.282,78.964 361.000 C 79.185 361.881,79.429 362.000,81.008 362.000 C 82.653 362.000,82.800 362.082,82.800 363.000 C 82.800 363.714,83.016 364.000,83.557 364.000 C 84.030 364.000,84.407 364.374,84.564 365.000 C 84.785 365.881,85.029 366.000,86.608 366.000 C 88.253 366.000,88.400 366.082,88.400 367.000 C 88.400 367.800,88.600 368.000,89.400 368.000 C 90.114 368.000,90.400 368.216,90.400 368.757 C 90.400 369.643,91.147 370.000,93.005 370.000 C 94.089 370.000,94.369 370.171,94.472 370.900 C 94.552 371.463,94.921 371.846,95.459 371.922 C 95.932 371.990,96.410 372.395,96.522 372.822 C 96.680 373.428,97.077 373.600,98.319 373.600 C 99.686 373.600,99.949 373.743,100.164 374.600 C 100.385 375.481,100.629 375.600,102.208 375.600 C 103.853 375.600,104.000 375.682,104.000 376.600 C 104.000 377.533,104.133 377.600,106.000 377.600 C 107.867 377.600,108.000 377.667,108.000 378.600 C 108.000 379.516,108.149 379.600,109.772 379.600 C 111.305 379.600,111.562 379.721,111.672 380.500 C 111.781 381.266,112.079 381.418,113.675 381.521 C 115.256 381.623,115.569 381.779,115.675 382.521 C 115.781 383.264,116.093 383.419,117.700 383.522 C 119.233 383.620,119.600 383.786,119.600 384.379 C 119.600 385.328,120.365 385.600,123.033 385.600 C 124.933 385.600,125.200 385.698,125.200 386.400 C 125.200 387.092,125.467 387.200,127.172 387.200 C 128.913 387.200,129.159 387.306,129.272 388.100 C 129.389 388.926,129.639 389.010,132.300 389.118 C 135.081 389.230,135.200 389.275,135.200 390.218 C 135.200 391.166,135.296 391.200,137.957 391.200 C 140.563 391.200,140.727 391.254,140.964 392.200 C 141.210 393.179,141.296 393.200,145.008 393.200 C 148.786 393.200,148.800 393.204,148.800 394.200 C 148.800 395.196,148.813 395.200,152.600 395.200 C 156.062 395.200,156.400 395.267,156.400 395.957 C 156.400 397.039,157.128 397.200,162.033 397.200 C 166.036 397.200,166.400 397.262,166.400 397.950 C 166.400 399.026,167.775 399.200,176.250 399.200 C 180.883 399.200,183.600 399.348,183.600 399.600 C 183.600 399.860,189.333 400.000,200.000 400.000 C 210.425 400.000,216.400 399.857,216.400 399.609 C 216.400 399.371,219.421 399.175,224.100 399.109 C 231.743 399.001,231.801 398.993,231.928 398.100 C 232.053 397.220,232.170 397.200,237.195 397.200 C 242.886 397.200,243.600 397.061,243.600 395.957 C 243.600 395.268,243.938 395.200,247.392 395.200 C 251.089 395.200,251.191 395.175,251.432 394.215 C 251.668 393.275,251.838 393.225,255.140 393.115 C 258.289 393.010,258.635 392.919,258.995 392.100 C 259.348 391.295,259.673 391.200,262.087 391.200 C 264.618 391.200,264.800 391.139,265.031 390.217 C 265.258 389.313,265.491 389.225,267.939 389.117 C 270.352 389.011,270.612 388.916,270.728 388.100 C 270.841 387.306,271.087 387.200,272.828 387.200 C 274.533 387.200,274.800 387.092,274.800 386.400 C 274.800 385.738,275.067 385.600,276.350 385.600 C 279.028 385.600,280.400 385.177,280.400 384.350 C 280.400 383.763,280.697 383.600,281.767 383.600 C 283.652 383.600,284.400 383.247,284.400 382.357 C 284.400 381.715,284.704 381.600,286.400 381.600 C 288.255 381.600,288.400 381.529,288.400 380.622 C 288.400 379.739,288.585 379.632,290.300 379.522 C 291.921 379.418,292.219 379.268,292.328 378.500 C 292.438 377.721,292.695 377.600,294.228 377.600 C 295.840 377.600,296.000 377.512,296.000 376.623 C 296.000 375.760,296.198 375.632,297.700 375.523 C 299.013 375.428,299.490 375.195,299.795 374.500 C 300.037 373.948,300.540 373.600,301.095 373.600 C 301.725 373.600,302.000 373.363,302.000 372.822 C 302.000 372.177,302.326 372.023,303.900 371.922 C 305.487 371.820,305.820 371.660,305.922 370.948 C 306.015 370.292,306.417 370.036,307.662 369.836 C 308.807 369.653,309.341 369.347,309.487 368.789 C 309.620 368.282,310.034 368.000,310.647 368.000 C 311.391 368.000,311.600 367.786,311.600 367.023 C 311.600 366.160,311.798 366.032,313.300 365.923 C 314.602 365.829,315.091 365.593,315.388 364.916 C 315.601 364.430,316.141 363.980,316.588 363.916 C 317.079 363.846,317.451 363.444,317.528 362.900 C 317.620 362.249,317.924 362.000,318.628 362.000 C 319.398 362.000,319.600 361.792,319.600 361.000 C 319.600 360.096,319.758 360.000,321.237 360.000 C 322.523 360.000,322.919 359.833,323.078 359.222 C 323.190 358.795,323.668 358.390,324.141 358.322 C 324.670 358.247,325.048 357.864,325.125 357.325 C 325.202 356.779,325.579 356.402,326.125 356.325 C 326.679 356.246,327.047 355.870,327.128 355.300 C 327.220 354.649,327.524 354.400,328.228 354.400 C 328.998 354.400,329.200 354.192,329.200 353.400 C 329.200 352.562,329.389 352.400,330.367 352.400 C 331.945 352.400,332.800 352.030,332.800 351.347 C 332.800 351.035,333.250 350.609,333.800 350.400 C 334.412 350.167,334.800 349.706,334.800 349.210 C 334.800 348.613,335.063 348.400,335.800 348.400 C 336.521 348.400,336.800 348.185,336.800 347.628 C 336.800 347.132,337.122 346.810,337.700 346.728 C 338.265 346.648,338.646 346.279,338.723 345.738 C 338.798 345.213,339.228 344.779,339.823 344.630 C 340.422 344.480,340.800 344.096,340.800 343.639 C 340.800 343.221,341.164 342.798,341.630 342.676 C 342.086 342.557,342.557 342.086,342.676 341.630 C 342.798 341.164,343.221 340.800,343.639 340.800 C 344.096 340.800,344.480 340.422,344.630 339.823 C 344.779 339.228,345.213 338.798,345.738 338.723 C 346.279 338.646,346.648 338.265,346.728 337.700 C 346.810 337.122,347.132 336.800,347.628 336.800 C 348.185 336.800,348.400 336.521,348.400 335.800 C 348.400 335.063,348.613 334.800,349.210 334.800 C 349.706 334.800,350.167 334.412,350.400 333.800 C 350.609 333.250,351.035 332.800,351.347 332.800 C 352.030 332.800,352.400 331.945,352.400 330.367 C 352.400 329.389,352.562 329.200,353.400 329.200 C 354.192 329.200,354.400 328.998,354.400 328.228 C 354.400 327.524,354.649 327.220,355.300 327.128 C 355.870 327.047,356.246 326.679,356.325 326.125 C 356.402 325.579,356.779 325.202,357.325 325.125 C 357.864 325.048,358.247 324.670,358.322 324.141 C 358.390 323.668,358.795 323.190,359.222 323.078 C 359.833 322.919,360.000 322.523,360.000 321.237 C 360.000 319.758,360.096 319.600,361.000 319.600 C 361.792 319.600,362.000 319.398,362.000 318.628 C 362.000 317.924,362.249 317.620,362.900 317.528 C 363.444 317.451,363.846 317.079,363.916 316.588 C 363.980 316.141,364.430 315.601,364.916 315.388 C 365.593 315.091,365.829 314.602,365.923 313.300 C 366.032 311.798,366.160 311.600,367.023 311.600 C 367.786 311.600,368.000 311.391,368.000 310.647 C 368.000 310.034,368.282 309.620,368.789 309.487 C 369.340 309.343,369.653 308.811,369.827 307.719 C 369.998 306.652,370.350 306.037,370.939 305.778 C 371.591 305.492,371.830 304.987,371.923 303.700 C 372.022 302.326,372.195 302.000,372.823 302.000 C 373.363 302.000,373.600 301.724,373.600 301.095 C 373.600 300.540,373.948 300.037,374.500 299.795 C 375.192 299.491,375.428 299.012,375.522 297.725 C 375.622 296.351,375.801 296.027,376.522 295.925 C 377.241 295.823,377.422 295.499,377.521 294.138 C 377.622 292.757,377.808 292.435,378.621 292.230 C 379.475 292.016,379.600 291.759,379.600 290.220 C 379.600 288.695,379.722 288.438,380.500 288.328 C 381.268 288.219,381.418 287.921,381.522 286.300 C 381.609 284.950,381.814 284.400,382.232 284.400 C 383.010 284.400,383.600 282.762,383.600 280.602 C 383.600 279.096,383.724 278.838,384.500 278.728 C 385.268 278.619,385.418 278.321,385.522 276.700 C 385.623 275.126,385.777 274.800,386.422 274.800 C 387.124 274.800,387.200 274.505,387.200 271.800 C 387.200 268.867,387.222 268.800,388.200 268.800 C 389.170 268.800,389.200 268.718,389.200 266.028 C 389.200 263.458,389.266 263.246,390.100 263.128 C 390.926 263.011,391.010 262.761,391.118 260.100 C 391.230 257.319,391.275 257.200,392.218 257.200 C 393.191 257.200,393.200 257.167,393.200 253.428 C 393.200 249.820,393.239 249.650,394.100 249.528 C 394.953 249.407,395.006 249.199,395.114 245.526 C 395.222 241.872,395.279 241.645,396.114 241.526 C 396.975 241.404,397.003 241.240,397.111 235.726 C 397.219 230.207,397.246 230.049,398.111 229.926 L 399.000 229.800 399.107 219.300 C 399.173 212.757,399.362 208.800,399.607 208.800 C 399.853 208.800,400.000 205.501,400.000 200.000 C 400.000 194.400,399.855 191.200,399.600 191.200 C 399.344 191.200,399.200 187.611,399.200 181.233 C 399.200 170.610,399.133 170.000,397.957 170.000 C 397.253 170.000,397.200 169.636,397.200 164.833 C 397.200 159.114,397.062 158.400,395.957 158.400 C 395.267 158.400,395.200 158.062,395.200 154.600 C 395.200 150.828,395.193 150.800,394.214 150.800 C 393.242 150.800,393.227 150.747,393.114 146.900 C 393.006 143.200,392.954 142.993,392.100 142.872 C 391.266 142.754,391.200 142.542,391.200 139.972 C 391.200 137.282,391.170 137.200,390.200 137.200 C 389.222 137.200,389.200 137.133,389.200 134.200 C 389.200 131.267,389.178 131.200,388.200 131.200 C 387.229 131.200,387.200 131.120,387.200 128.400 C 387.200 125.893,387.119 125.600,386.422 125.600 C 385.777 125.600,385.623 125.274,385.522 123.700 C 385.419 122.093,385.264 121.781,384.521 121.675 C 383.779 121.569,383.623 121.256,383.521 119.675 C 383.418 118.079,383.266 117.781,382.500 117.672 C 381.695 117.558,381.600 117.319,381.600 115.405 C 381.600 112.751,381.326 112.000,380.357 112.000 C 379.762 112.000,379.600 111.708,379.600 110.633 C 379.600 108.748,379.247 108.000,378.357 108.000 C 377.816 108.000,377.600 107.714,377.600 107.000 C 377.600 106.200,377.400 106.000,376.600 106.000 C 375.667 106.000,375.600 105.867,375.600 104.000 C 375.600 102.133,375.533 102.000,374.600 102.000 C 373.667 102.000,373.600 101.867,373.600 100.000 C 373.600 98.312,373.483 98.000,372.851 98.000 C 372.284 98.000,372.039 97.603,371.840 96.360 C 371.654 95.195,371.349 94.659,370.789 94.513 C 370.282 94.380,370.000 93.966,370.000 93.353 C 370.000 92.609,369.786 92.400,369.022 92.400 C 368.139 92.400,368.032 92.215,367.922 90.500 C 367.819 88.896,367.664 88.581,366.925 88.475 C 366.379 88.398,366.002 88.021,365.925 87.475 C 365.847 86.929,365.470 86.553,364.922 86.475 C 364.201 86.373,364.022 86.049,363.922 84.675 C 363.821 83.287,363.646 82.978,362.900 82.872 C 362.249 82.780,362.000 82.476,362.000 81.772 C 362.000 81.002,361.792 80.800,361.000 80.800 C 360.200 80.800,360.000 80.600,360.000 79.800 C 360.000 79.087,359.784 78.800,359.245 78.800 C 358.658 78.800,358.431 78.402,358.221 77.000 C 358.012 75.605,357.783 75.200,357.203 75.200 C 356.732 75.200,356.408 74.867,356.328 74.300 C 356.258 73.805,355.802 73.225,355.316 73.012 C 354.830 72.799,354.380 72.259,354.316 71.812 C 354.246 71.321,353.844 70.949,353.300 70.872 C 352.722 70.790,352.400 70.468,352.400 69.972 C 352.400 69.415,352.121 69.200,351.400 69.200 C 350.600 69.200,350.400 69.000,350.400 68.200 C 350.400 67.406,350.198 67.200,349.423 67.200 C 348.560 67.200,348.432 67.002,348.323 65.500 C 348.228 64.187,347.995 63.710,347.300 63.405 C 346.805 63.188,346.400 62.705,346.400 62.333 C 346.400 61.935,346.029 61.603,345.500 61.528 C 344.930 61.447,344.554 61.079,344.475 60.525 C 344.398 59.979,344.021 59.602,343.475 59.525 C 342.921 59.446,342.553 59.070,342.472 58.500 C 342.393 57.944,342.067 57.600,341.619 57.600 C 341.220 57.600,340.796 57.227,340.676 56.770 C 340.557 56.314,340.101 55.847,339.664 55.733 C 339.226 55.618,338.759 55.091,338.626 54.562 C 338.473 53.951,338.096 53.600,337.592 53.600 C 337.082 53.600,336.800 53.331,336.800 52.843 C 336.800 51.981,336.055 51.600,334.367 51.600 C 333.389 51.600,333.200 51.438,333.200 50.600 C 333.200 49.808,332.998 49.600,332.228 49.600 C 331.524 49.600,331.220 49.351,331.128 48.700 C 331.047 48.130,330.679 47.754,330.125 47.675 C 329.579 47.598,329.202 47.221,329.125 46.675 C 329.046 46.121,328.670 45.753,328.100 45.672 C 327.522 45.590,327.200 45.268,327.200 44.772 C 327.200 44.221,326.922 44.000,326.228 44.000 C 325.524 44.000,325.220 43.751,325.128 43.100 C 325.019 42.332,324.721 42.182,323.100 42.078 C 321.385 41.968,321.200 41.861,321.200 40.978 C 321.200 40.278,320.980 40.000,320.428 40.000 C 319.932 40.000,319.610 39.678,319.528 39.100 C 319.437 38.462,319.087 38.164,318.325 38.076 C 317.572 37.989,317.212 37.689,317.125 37.076 C 317.022 36.358,316.698 36.178,315.325 36.078 C 313.951 35.978,313.627 35.799,313.525 35.078 C 313.446 34.521,313.071 34.153,312.500 34.072 C 311.942 33.993,311.600 33.667,311.600 33.215 C 311.600 32.352,310.837 32.000,308.967 32.000 C 307.867 32.000,307.600 31.844,307.600 31.200 C 307.600 30.663,307.333 30.400,306.790 30.400 C 306.294 30.400,305.833 30.012,305.600 29.400 C 305.281 28.562,304.959 28.400,303.610 28.400 C 302.159 28.400,302.000 28.301,302.000 27.400 C 302.000 26.467,301.867 26.400,300.000 26.400 C 298.133 26.400,298.000 26.333,298.000 25.400 C 298.000 24.467,297.867 24.400,296.000 24.400 C 294.133 24.400,294.000 24.333,294.000 23.400 C 294.000 22.600,293.800 22.400,293.000 22.400 C 292.289 22.400,292.000 22.183,292.000 21.650 C 292.000 20.826,290.629 20.400,287.978 20.400 C 286.704 20.400,286.435 20.253,286.328 19.500 C 286.219 18.732,285.921 18.582,284.300 18.478 C 282.726 18.377,282.400 18.223,282.400 17.578 C 282.400 16.924,282.117 16.800,280.628 16.800 C 279.095 16.800,278.838 16.679,278.728 15.900 C 278.620 15.139,278.319 14.982,276.787 14.882 C 275.366 14.789,274.890 14.573,274.587 13.882 C 274.252 13.119,273.839 12.984,271.526 12.882 C 269.115 12.776,268.839 12.677,268.726 11.882 C 268.612 11.088,268.335 10.988,265.939 10.883 C 263.491 10.775,263.258 10.687,263.031 9.783 C 262.799 8.857,262.624 8.800,259.992 8.800 C 257.519 8.800,257.200 8.713,257.200 8.043 C 257.200 7.013,256.455 6.800,252.862 6.800 C 250.060 6.800,249.755 6.721,249.395 5.900 C 249.033 5.075,248.697 4.991,245.343 4.886 C 242.097 4.784,241.663 4.683,241.480 3.986 C 241.288 3.252,240.904 3.200,235.637 3.200 L 230.000 3.200 230.000 2.200 L 230.000 1.200 217.400 1.200 C 206.467 1.200,204.800 1.121,204.800 0.600 C 204.800 0.100,204.000 0.000,200.000 0.000 C 196.020 0.000,195.200 0.102,195.200 0.594 M216.800 13.600 C 216.800 14.368,217.067 14.400,223.572 14.400 C 230.291 14.400,230.345 14.407,230.472 15.300 C 230.595 16.167,230.770 16.204,235.300 16.313 L 240.000 16.425 240.000 17.413 C 240.000 18.392,240.029 18.400,243.757 18.400 C 247.430 18.400,247.519 18.422,247.764 19.400 C 248.010 20.379,248.096 20.400,251.808 20.400 C 255.586 20.400,255.600 20.404,255.600 21.400 C 255.600 22.370,255.682 22.400,258.372 22.400 C 260.942 22.400,261.154 22.466,261.272 23.300 C 261.381 24.066,261.679 24.218,263.280 24.321 C 264.687 24.412,265.218 24.627,265.393 25.178 C 265.664 26.032,266.732 26.387,269.053 26.395 C 270.368 26.399,270.750 26.564,270.916 27.200 C 271.086 27.850,271.462 28.000,272.919 28.000 C 274.499 28.000,274.743 28.119,274.964 29.000 C 275.183 29.870,275.436 30.000,276.913 30.000 C 278.290 30.000,278.685 30.170,279.005 30.900 C 279.305 31.583,279.789 31.829,281.013 31.919 C 282.226 32.008,282.722 32.256,283.013 32.919 C 283.308 33.590,283.800 33.829,285.075 33.922 C 286.449 34.022,286.773 34.201,286.875 34.922 C 286.978 35.645,287.300 35.822,288.700 35.923 C 290.038 36.020,290.400 36.202,290.400 36.780 C 290.400 37.644,291.160 38.000,293.005 38.000 C 294.089 38.000,294.369 38.171,294.472 38.900 C 294.552 39.463,294.921 39.846,295.459 39.922 C 295.932 39.990,296.410 40.395,296.522 40.822 C 296.681 41.430,297.077 41.600,298.335 41.600 C 299.699 41.600,299.964 41.737,300.072 42.500 C 300.181 43.268,300.479 43.418,302.100 43.522 C 303.815 43.632,304.000 43.739,304.000 44.622 C 304.000 45.399,304.206 45.600,305.000 45.600 C 305.800 45.600,306.000 45.800,306.000 46.600 C 306.000 47.387,306.203 47.600,306.953 47.600 C 307.566 47.600,307.980 47.882,308.113 48.389 C 308.259 48.947,308.793 49.253,309.938 49.436 C 311.183 49.636,311.585 49.892,311.678 50.548 C 311.752 51.065,312.138 51.448,312.659 51.522 C 313.132 51.590,313.610 51.995,313.722 52.422 C 313.834 52.850,314.259 53.200,314.668 53.200 C 315.076 53.200,315.588 53.605,315.805 54.100 C 316.110 54.795,316.587 55.028,317.900 55.123 C 319.402 55.232,319.600 55.360,319.600 56.223 C 319.600 56.998,319.806 57.200,320.600 57.200 C 321.400 57.200,321.600 57.400,321.600 58.200 C 321.600 59.000,321.800 59.200,322.600 59.200 C 323.400 59.200,323.600 59.400,323.600 60.200 C 323.600 60.913,323.816 61.200,324.353 61.200 C 324.779 61.200,325.201 61.561,325.324 62.030 C 325.443 62.486,325.897 62.953,326.333 63.067 C 326.769 63.181,327.219 63.631,327.333 64.067 C 327.447 64.503,327.914 64.957,328.370 65.076 C 328.839 65.199,329.200 65.621,329.200 66.047 C 329.200 66.584,329.487 66.800,330.200 66.800 C 331.000 66.800,331.200 67.000,331.200 67.800 C 331.200 68.600,331.400 68.800,332.200 68.800 C 333.000 68.800,333.200 69.000,333.200 69.800 C 333.200 70.600,333.400 70.800,334.200 70.800 C 335.000 70.800,335.200 71.000,335.200 71.800 C 335.200 72.600,335.400 72.800,336.200 72.800 C 337.000 72.800,337.200 73.000,337.200 73.800 C 337.200 74.521,337.415 74.800,337.972 74.800 C 338.468 74.800,338.790 75.122,338.872 75.700 C 338.953 76.270,339.321 76.646,339.875 76.725 C 340.421 76.802,340.798 77.179,340.875 77.725 C 340.954 78.279,341.330 78.647,341.900 78.728 C 342.478 78.810,342.800 79.132,342.800 79.628 C 342.800 80.185,343.079 80.400,343.800 80.400 C 344.672 80.400,344.800 80.576,344.800 81.767 C 344.800 83.652,345.153 84.400,346.043 84.400 C 346.584 84.400,346.800 84.686,346.800 85.400 C 346.800 86.200,347.000 86.400,347.800 86.400 C 348.600 86.400,348.800 86.600,348.800 87.400 C 348.800 88.200,349.000 88.400,349.800 88.400 C 350.719 88.400,350.800 88.547,350.800 90.200 C 350.800 91.712,350.924 92.000,351.572 92.000 C 352.068 92.000,352.390 92.322,352.472 92.900 C 352.554 93.478,352.922 93.846,353.500 93.928 C 354.151 94.020,354.400 94.324,354.400 95.028 C 354.400 95.792,354.609 96.000,355.378 96.000 C 356.261 96.000,356.368 96.185,356.478 97.900 C 356.582 99.521,356.732 99.819,357.500 99.928 C 358.151 100.020,358.400 100.324,358.400 101.028 C 358.400 101.792,358.609 102.000,359.378 102.000 C 360.261 102.000,360.368 102.185,360.478 103.900 C 360.582 105.521,360.732 105.819,361.500 105.928 C 362.279 106.038,362.400 106.295,362.400 107.828 C 362.400 109.298,362.529 109.600,363.155 109.600 C 363.741 109.600,363.969 109.997,364.176 111.380 C 364.360 112.605,364.672 113.233,365.178 113.393 C 365.684 113.554,365.996 114.182,366.181 115.413 C 366.392 116.822,366.613 117.200,367.225 117.200 C 367.780 117.200,368.000 117.477,368.000 118.174 C 368.000 119.640,368.705 121.200,369.368 121.200 C 369.786 121.200,369.991 121.750,370.078 123.100 C 370.182 124.721,370.332 125.019,371.100 125.128 C 371.894 125.241,372.000 125.487,372.000 127.228 C 372.000 129.055,372.072 129.200,372.982 129.200 C 373.915 129.200,373.969 129.332,374.082 131.900 C 374.189 134.353,374.282 134.612,375.100 134.728 C 375.894 134.841,376.000 135.087,376.000 136.828 C 376.000 138.519,376.112 138.800,376.782 138.800 C 377.476 138.800,377.578 139.128,377.682 141.700 C 377.790 144.361,377.874 144.611,378.700 144.728 C 379.534 144.846,379.600 145.058,379.600 147.602 C 379.600 150.704,380.091 152.400,380.990 152.400 C 381.485 152.400,381.600 152.996,381.600 155.567 C 381.600 159.256,381.809 160.000,382.843 160.000 C 383.535 160.000,383.600 160.342,383.600 164.000 L 383.600 168.000 384.600 168.000 L 385.600 168.000 385.600 175.410 L 385.600 182.820 386.600 183.200 L 387.600 183.580 387.600 200.962 L 387.600 218.344 386.700 218.472 C 385.813 218.598,385.798 218.696,385.691 225.259 L 385.581 231.918 384.591 232.167 C 383.605 232.414,383.600 232.442,383.600 237.208 L 383.600 242.000 382.600 242.000 C 381.604 242.000,381.600 242.015,381.600 245.772 C 381.600 249.380,381.561 249.550,380.700 249.672 C 379.875 249.789,379.790 250.040,379.683 252.674 C 379.576 255.292,379.487 255.560,378.683 255.674 C 377.888 255.788,377.788 256.064,377.683 258.458 C 377.584 260.705,377.444 261.147,376.783 261.320 C 376.099 261.499,376.000 261.882,376.000 264.363 C 376.000 267.122,375.973 267.200,375.000 267.200 C 374.085 267.200,374.000 267.350,374.000 268.957 C 374.000 270.497,373.877 270.744,373.000 270.964 C 372.103 271.189,372.000 271.418,372.000 273.180 C 372.000 274.913,371.894 275.159,371.100 275.272 C 370.282 275.388,370.189 275.647,370.082 278.100 C 369.969 280.668,369.915 280.800,368.982 280.800 C 368.087 280.800,368.000 280.957,368.000 282.572 C 368.000 284.105,367.879 284.362,367.100 284.472 C 366.334 284.581,366.182 284.879,366.079 286.475 C 365.977 288.053,365.820 288.370,365.083 288.475 C 364.587 288.546,364.142 288.945,364.056 289.396 C 363.973 289.833,363.566 290.429,363.152 290.718 C 362.632 291.083,362.400 291.732,362.400 292.823 C 362.400 294.238,362.298 294.400,361.400 294.400 C 360.484 294.400,360.400 294.549,360.400 296.172 C 360.400 297.705,360.279 297.962,359.500 298.072 C 358.862 298.163,358.564 298.513,358.476 299.275 C 358.389 300.028,358.089 300.388,357.476 300.475 C 356.758 300.578,356.578 300.902,356.478 302.275 C 356.378 303.649,356.199 303.973,355.478 304.075 C 354.921 304.154,354.553 304.529,354.472 305.100 C 354.402 305.595,354.082 306.000,353.762 306.000 C 353.104 306.000,352.400 307.565,352.400 309.026 C 352.400 309.733,352.181 310.000,351.600 310.000 C 351.076 310.000,350.800 310.267,350.800 310.772 C 350.800 311.268,350.478 311.590,349.900 311.672 C 349.314 311.755,348.954 312.122,348.869 312.722 C 348.794 313.255,348.331 313.798,347.769 314.012 C 346.965 314.317,346.800 314.654,346.800 315.990 C 346.800 317.441,346.701 317.600,345.800 317.600 C 345.000 317.600,344.800 317.800,344.800 318.600 C 344.800 319.400,344.600 319.600,343.800 319.600 C 343.008 319.600,342.800 319.802,342.800 320.572 C 342.800 321.276,342.551 321.580,341.900 321.672 C 341.322 321.754,340.954 322.122,340.872 322.700 C 340.791 323.275,340.468 323.600,339.980 323.600 C 339.498 323.600,339.122 323.970,338.964 324.600 C 338.807 325.226,338.430 325.600,337.957 325.600 C 337.464 325.600,337.200 325.882,337.200 326.410 C 337.200 326.906,336.812 327.367,336.200 327.600 C 335.650 327.809,335.200 328.234,335.200 328.543 C 335.200 328.853,334.827 329.204,334.370 329.324 C 333.914 329.443,333.447 329.897,333.333 330.333 C 333.219 330.769,332.769 331.219,332.333 331.333 C 331.897 331.447,331.447 331.897,331.333 332.333 C 331.219 332.769,330.769 333.219,330.333 333.333 C 329.897 333.447,329.443 333.914,329.324 334.370 C 329.204 334.827,328.853 335.200,328.543 335.200 C 328.234 335.200,327.809 335.650,327.600 336.200 C 327.373 336.796,326.904 337.200,326.438 337.200 C 325.931 337.200,325.611 337.517,325.528 338.100 C 325.446 338.678,325.078 339.046,324.500 339.128 C 323.935 339.208,323.600 339.533,323.600 340.000 C 323.600 340.467,323.265 340.792,322.700 340.872 C 322.122 340.954,321.754 341.322,321.672 341.900 C 321.580 342.551,321.276 342.800,320.572 342.800 C 319.802 342.800,319.600 343.008,319.600 343.800 C 319.600 344.600,319.400 344.800,318.600 344.800 C 317.800 344.800,317.600 345.000,317.600 345.800 C 317.600 346.701,317.441 346.800,315.990 346.800 C 314.641 346.800,314.319 346.962,314.000 347.800 C 313.769 348.408,313.305 348.800,312.818 348.800 C 312.295 348.800,311.928 349.149,311.764 349.800 C 311.607 350.426,311.230 350.800,310.757 350.800 C 310.267 350.800,310.000 351.082,310.000 351.600 C 310.000 352.181,309.733 352.400,309.026 352.400 C 307.565 352.400,306.000 353.104,306.000 353.762 C 306.000 354.082,305.595 354.402,305.100 354.472 C 304.529 354.553,304.154 354.921,304.075 355.478 C 303.973 356.199,303.649 356.378,302.275 356.478 C 300.902 356.578,300.578 356.758,300.475 357.476 C 300.388 358.089,300.028 358.389,299.275 358.476 C 298.522 358.563,298.163 358.863,298.075 359.478 C 297.973 360.199,297.649 360.378,296.275 360.478 C 294.887 360.579,294.578 360.754,294.472 361.500 C 294.380 362.151,294.076 362.400,293.372 362.400 C 292.676 362.400,292.400 362.621,292.400 363.178 C 292.400 363.823,292.074 363.977,290.500 364.078 C 288.893 364.181,288.581 364.336,288.475 365.079 C 288.369 365.821,288.056 365.977,286.475 366.079 C 284.894 366.181,284.580 366.338,284.475 367.078 C 284.373 367.799,284.049 367.978,282.675 368.078 C 281.287 368.179,280.978 368.354,280.872 369.100 C 280.759 369.894,280.513 370.000,278.772 370.000 C 276.935 370.000,276.800 370.069,276.800 371.000 C 276.800 371.950,276.685 372.000,274.500 372.006 C 272.021 372.013,271.483 372.216,271.083 373.300 C 270.889 373.826,270.374 374.000,269.013 374.000 C 267.346 374.000,267.200 374.080,267.200 375.000 C 267.200 375.966,267.109 376.000,264.563 376.000 C 262.262 376.000,261.898 376.102,261.716 376.800 C 261.543 377.460,261.170 377.600,259.579 377.600 C 257.233 377.600,255.600 378.170,255.600 378.990 C 255.600 379.468,255.087 379.600,253.233 379.600 C 250.360 379.600,249.600 379.857,249.600 380.827 C 249.600 381.484,249.200 381.582,246.100 381.684 C 242.926 381.789,242.564 381.883,242.211 382.687 C 241.854 383.500,241.507 383.583,238.011 383.687 C 234.403 383.794,234.193 383.848,234.072 384.700 C 233.946 385.590,233.876 385.600,227.562 385.600 L 221.180 385.600 220.800 386.600 L 220.420 387.600 200.105 387.600 L 179.790 387.600 179.395 386.700 C 179.012 385.827,178.806 385.797,172.527 385.690 C 166.177 385.583,166.051 385.563,165.927 384.690 C 165.807 383.849,165.586 383.794,161.926 383.686 C 158.272 383.578,158.045 383.521,157.926 382.686 C 157.808 381.854,157.574 381.793,154.100 381.685 C 151.143 381.593,150.400 381.450,150.400 380.975 C 150.400 380.091,148.687 379.600,145.602 379.600 C 143.058 379.600,142.846 379.534,142.728 378.700 C 142.619 377.934,142.321 377.782,140.720 377.679 C 139.272 377.586,138.784 377.379,138.593 376.779 C 138.383 376.115,137.972 376.000,135.816 376.000 C 133.452 376.000,133.270 375.935,133.036 375.000 C 132.798 374.053,132.637 374.000,129.992 374.000 C 127.281 374.000,127.200 373.971,127.200 373.000 C 127.200 372.067,127.067 372.000,125.200 372.000 C 123.333 372.000,123.200 371.933,123.200 371.000 C 123.200 370.081,123.053 370.000,121.400 370.000 C 120.086 370.000,119.600 369.842,119.600 369.414 C 119.600 368.639,118.347 368.000,116.826 368.000 C 115.890 368.000,115.600 367.821,115.600 367.243 C 115.600 366.357,114.853 366.000,112.995 366.000 C 111.911 366.000,111.631 365.829,111.528 365.100 C 111.419 364.332,111.121 364.182,109.500 364.078 C 107.926 363.977,107.600 363.823,107.600 363.178 C 107.600 362.663,107.326 362.400,106.790 362.400 C 106.294 362.400,105.833 362.012,105.600 361.400 C 105.283 360.566,104.957 360.400,103.638 360.400 C 102.302 360.400,102.036 360.260,101.928 359.500 C 101.819 358.732,101.521 358.582,99.900 358.478 C 98.185 358.368,98.000 358.261,98.000 357.378 C 98.000 356.601,97.794 356.400,97.000 356.400 C 96.286 356.400,96.000 356.184,96.000 355.643 C 96.000 354.785,95.255 354.400,93.595 354.400 C 92.718 354.400,92.426 354.193,92.328 353.500 C 92.246 352.922,91.878 352.554,91.300 352.472 C 90.722 352.390,90.400 352.068,90.400 351.572 C 90.400 351.037,90.122 350.800,89.495 350.800 C 88.940 350.800,88.437 350.452,88.195 349.900 C 87.890 349.205,87.413 348.972,86.100 348.877 C 84.598 348.768,84.400 348.640,84.400 347.777 C 84.400 347.002,84.194 346.800,83.400 346.800 C 82.600 346.800,82.400 346.600,82.400 345.800 C 82.400 345.000,82.200 344.800,81.400 344.800 C 80.600 344.800,80.400 344.600,80.400 343.800 C 80.400 343.000,80.200 342.800,79.400 342.800 C 78.679 342.800,78.400 342.585,78.400 342.028 C 78.400 341.532,78.078 341.210,77.500 341.128 C 76.929 341.047,76.554 340.679,76.475 340.121 C 76.375 339.416,75.998 339.189,74.575 338.975 C 73.196 338.769,72.800 338.541,72.800 337.955 C 72.800 337.416,72.513 337.200,71.800 337.200 C 71.000 337.200,70.800 337.000,70.800 336.200 C 70.800 335.400,70.600 335.200,69.800 335.200 C 69.000 335.200,68.800 335.000,68.800 334.200 C 68.800 333.400,68.600 333.200,67.800 333.200 C 67.000 333.200,66.800 333.000,66.800 332.200 C 66.800 331.467,66.587 331.200,66.000 331.200 C 65.413 331.200,65.200 330.933,65.200 330.200 C 65.200 329.408,64.998 329.200,64.228 329.200 C 63.524 329.200,63.220 328.951,63.128 328.300 C 63.046 327.722,62.678 327.354,62.100 327.272 C 61.407 327.174,61.200 326.882,61.200 326.005 C 61.200 324.367,60.818 323.600,60.001 323.600 C 59.573 323.600,59.186 323.199,59.036 322.600 C 58.874 321.954,58.504 321.600,57.992 321.600 C 57.414 321.600,57.200 321.330,57.200 320.600 C 57.200 319.800,57.000 319.600,56.200 319.600 C 55.400 319.600,55.200 319.400,55.200 318.600 C 55.200 317.800,55.000 317.600,54.200 317.600 C 53.400 317.600,53.200 317.400,53.200 316.600 C 53.200 315.887,52.984 315.600,52.445 315.600 C 51.858 315.600,51.631 315.202,51.421 313.800 C 51.208 312.378,50.988 312.000,50.375 312.000 C 49.815 312.000,49.600 311.723,49.600 311.000 C 49.600 310.200,49.400 310.000,48.600 310.000 C 47.800 310.000,47.600 309.800,47.600 309.000 C 47.600 308.206,47.399 308.000,46.622 308.000 C 45.739 308.000,45.632 307.815,45.522 306.100 C 45.418 304.479,45.268 304.181,44.500 304.072 C 43.849 303.980,43.600 303.676,43.600 302.972 C 43.600 302.202,43.392 302.000,42.600 302.000 C 41.678 302.000,41.600 301.856,41.600 300.163 C 41.600 298.699,41.447 298.285,40.846 298.128 C 40.327 297.992,40.011 297.428,39.834 296.325 C 39.653 295.192,39.345 294.658,38.789 294.513 C 38.282 294.380,38.000 293.966,38.000 293.353 C 38.000 292.603,37.787 292.400,37.000 292.400 C 36.067 292.400,36.000 292.267,36.000 290.400 C 36.000 288.545,35.929 288.400,35.022 288.400 C 34.139 288.400,34.032 288.215,33.922 286.500 C 33.818 284.879,33.668 284.581,32.900 284.472 C 32.121 284.362,32.000 284.105,32.000 282.572 C 32.000 280.949,31.916 280.800,31.000 280.800 C 30.067 280.800,30.000 280.667,30.000 278.800 C 30.000 276.933,29.933 276.800,29.000 276.800 C 28.067 276.800,28.000 276.667,28.000 274.800 C 28.000 273.067,27.893 272.800,27.200 272.800 C 26.498 272.800,26.400 272.533,26.400 270.633 C 26.400 267.951,26.128 267.200,25.157 267.200 C 24.545 267.200,24.400 266.904,24.400 265.650 C 24.400 262.998,23.975 261.600,23.168 261.600 C 22.543 261.600,22.419 261.206,22.318 258.900 C 22.216 256.558,22.083 256.149,21.316 255.812 C 20.542 255.473,20.417 255.071,20.316 252.612 C 20.211 250.056,20.119 249.789,19.315 249.674 C 18.484 249.556,18.422 249.321,18.315 245.874 C 18.207 242.427,18.145 242.192,17.314 242.074 C 16.479 241.955,16.422 241.728,16.314 238.074 C 16.206 234.401,16.153 234.193,15.300 234.072 C 14.409 233.946,14.400 233.882,14.400 227.399 C 14.400 221.205,14.357 220.840,13.600 220.600 C 12.340 220.200,12.340 179.600,13.600 179.600 C 14.363 179.600,14.400 179.333,14.400 173.895 C 14.400 168.362,14.427 168.178,15.300 167.795 C 16.145 167.424,16.207 167.129,16.313 162.940 C 16.423 158.572,16.446 158.475,17.413 158.233 C 18.376 157.991,18.400 157.891,18.400 154.192 C 18.400 150.414,18.404 150.400,19.400 150.400 C 20.370 150.400,20.400 150.317,20.400 147.643 C 20.400 145.037,20.454 144.873,21.400 144.636 C 22.347 144.398,22.400 144.237,22.400 141.592 C 22.400 139.119,22.487 138.800,23.157 138.800 C 24.126 138.800,24.400 138.049,24.400 135.395 C 24.400 133.481,24.495 133.242,25.300 133.128 C 26.056 133.020,26.220 132.715,26.327 131.219 C 26.413 130.014,26.704 129.262,27.227 128.896 C 27.855 128.456,28.000 127.871,28.000 125.777 C 28.000 123.295,28.037 123.200,29.000 123.200 C 29.916 123.200,30.000 123.051,30.000 121.428 C 30.000 119.895,30.121 119.638,30.900 119.528 C 31.668 119.419,31.818 119.121,31.922 117.500 C 32.032 115.785,32.139 115.600,33.022 115.600 C 33.929 115.600,34.000 115.455,34.000 113.600 C 34.000 111.733,34.067 111.600,35.000 111.600 C 35.787 111.600,36.000 111.397,36.000 110.647 C 36.000 110.034,36.282 109.620,36.789 109.487 C 37.349 109.341,37.654 108.805,37.840 107.640 C 37.984 106.738,38.246 106.000,38.423 106.000 C 39.182 106.000,40.000 104.637,40.000 103.371 C 40.000 102.267,40.156 102.000,40.800 102.000 C 41.364 102.000,41.600 101.733,41.600 101.095 C 41.600 100.540,41.948 100.037,42.500 99.795 C 43.195 99.490,43.428 99.013,43.523 97.700 C 43.632 96.198,43.760 96.000,44.623 96.000 C 45.398 96.000,45.600 95.794,45.600 95.000 C 45.600 94.286,45.816 94.000,46.357 94.000 C 47.215 94.000,47.600 93.255,47.600 91.595 C 47.600 90.718,47.807 90.426,48.500 90.328 C 49.078 90.246,49.446 89.878,49.528 89.300 C 49.609 88.725,49.932 88.400,50.420 88.400 C 50.899 88.400,51.277 88.032,51.432 87.414 C 51.568 86.872,52.022 86.320,52.440 86.187 C 53.036 85.998,53.200 85.564,53.200 84.173 C 53.200 82.548,53.284 82.400,54.200 82.400 C 55.000 82.400,55.200 82.200,55.200 81.400 C 55.200 80.600,55.400 80.400,56.200 80.400 C 56.921 80.400,57.200 80.185,57.200 79.628 C 57.200 79.132,57.522 78.810,58.100 78.728 C 58.665 78.648,59.046 78.279,59.123 77.738 C 59.198 77.213,59.628 76.779,60.223 76.630 C 60.822 76.480,61.200 76.096,61.200 75.639 C 61.200 75.229,61.560 74.799,62.000 74.684 C 62.461 74.564,62.800 74.138,62.800 73.681 C 62.800 73.167,63.153 72.798,63.800 72.636 C 64.430 72.478,64.800 72.102,64.800 71.620 C 64.800 71.132,65.125 70.809,65.700 70.728 C 66.270 70.647,66.646 70.279,66.725 69.725 C 66.802 69.179,67.179 68.802,67.725 68.725 C 68.270 68.647,68.647 68.270,68.725 67.725 C 68.802 67.179,69.179 66.802,69.725 66.725 C 70.279 66.646,70.647 66.270,70.728 65.700 C 70.808 65.134,71.133 64.800,71.601 64.800 C 72.011 64.800,72.455 64.458,72.587 64.040 C 72.720 63.622,73.272 63.168,73.814 63.032 C 74.447 62.873,74.800 62.501,74.800 61.992 C 74.800 61.469,75.069 61.200,75.592 61.200 C 76.099 61.200,76.473 60.848,76.630 60.223 C 76.779 59.628,77.213 59.198,77.738 59.123 C 78.279 59.046,78.648 58.665,78.728 58.100 C 78.810 57.522,79.132 57.200,79.628 57.200 C 80.185 57.200,80.400 56.921,80.400 56.200 C 80.400 55.400,80.600 55.200,81.400 55.200 C 82.200 55.200,82.400 55.000,82.400 54.200 C 82.400 53.284,82.548 53.200,84.173 53.200 C 85.575 53.200,85.997 53.038,86.192 52.425 C 86.327 51.999,86.834 51.594,87.319 51.525 C 87.870 51.447,88.247 51.072,88.325 50.525 C 88.402 49.979,88.779 49.602,89.325 49.525 C 89.879 49.446,90.247 49.070,90.328 48.500 C 90.438 47.721,90.695 47.600,92.228 47.600 C 93.851 47.600,94.000 47.516,94.000 46.600 C 94.000 45.800,94.200 45.600,95.000 45.600 C 95.794 45.600,96.000 45.399,96.000 44.622 C 96.000 43.739,96.185 43.632,97.900 43.522 C 99.521 43.418,99.819 43.268,99.928 42.500 C 100.020 41.849,100.324 41.600,101.028 41.600 C 101.724 41.600,102.000 41.379,102.000 40.822 C 102.000 40.177,102.326 40.023,103.900 39.922 C 105.487 39.820,105.820 39.660,105.922 38.948 C 106.015 38.292,106.417 38.036,107.662 37.836 C 108.789 37.656,109.342 37.344,109.482 36.810 C 109.631 36.236,110.102 36.011,111.341 35.921 C 112.612 35.828,113.092 35.589,113.395 34.900 C 113.637 34.348,114.140 34.000,114.695 34.000 C 115.394 34.000,115.600 33.772,115.600 33.000 C 115.600 32.056,115.722 32.000,117.767 32.000 C 120.435 32.000,121.200 31.728,121.200 30.779 C 121.200 30.186,121.567 30.020,123.100 29.922 C 124.721 29.818,125.019 29.668,125.128 28.900 C 125.241 28.106,125.487 28.000,127.228 28.000 C 128.933 28.000,129.200 27.892,129.200 27.200 C 129.200 26.520,129.467 26.400,130.974 26.400 C 133.159 26.400,134.800 25.813,134.800 25.032 C 134.800 24.614,135.350 24.409,136.700 24.322 C 138.321 24.218,138.619 24.068,138.728 23.300 C 138.846 22.466,139.058 22.400,141.620 22.400 C 144.224 22.400,144.399 22.343,144.632 21.415 C 144.868 20.475,145.038 20.425,148.340 20.315 C 151.472 20.211,151.837 20.116,152.189 19.314 C 152.543 18.507,152.900 18.418,156.189 18.314 C 159.589 18.207,159.807 18.147,159.928 17.300 C 160.052 16.426,160.190 16.400,164.638 16.400 C 169.157 16.400,169.225 16.386,169.600 15.400 L 169.980 14.400 176.563 14.400 C 182.795 14.400,183.160 14.357,183.400 13.600 C 183.649 12.817,184.005 12.800,200.227 12.800 C 216.533 12.800,216.800 12.813,216.800 13.600 M108.000 128.196 C 108.000 129.000,107.801 129.200,107.000 129.200 C 106.206 129.200,106.000 129.402,106.000 130.177 C 106.000 131.040,105.802 131.168,104.300 131.277 C 102.987 131.372,102.510 131.605,102.205 132.300 C 101.988 132.795,101.579 133.200,101.295 133.200 C 101.012 133.200,100.614 133.636,100.412 134.169 C 100.198 134.731,99.655 135.194,99.122 135.269 C 98.522 135.354,98.155 135.714,98.072 136.300 C 97.990 136.878,97.668 137.200,97.172 137.200 C 96.667 137.200,96.400 137.476,96.400 138.000 C 96.400 138.587,96.133 138.800,95.400 138.800 C 94.600 138.800,94.400 139.000,94.400 139.800 C 94.400 140.600,94.200 140.800,93.400 140.800 C 92.600 140.800,92.400 141.000,92.400 141.800 C 92.400 142.600,92.200 142.800,91.400 142.800 C 90.600 142.800,90.400 143.000,90.400 143.800 C 90.400 144.600,90.200 144.800,89.400 144.800 C 88.600 144.800,88.400 145.000,88.400 145.800 C 88.400 146.701,88.241 146.800,86.790 146.800 C 85.466 146.800,85.116 146.968,84.821 147.745 C 84.623 148.265,84.088 148.788,83.631 148.908 C 83.123 149.041,82.800 149.451,82.800 149.963 C 82.800 150.589,82.548 150.800,81.800 150.800 C 81.079 150.800,80.800 151.015,80.800 151.572 C 80.800 152.068,80.478 152.390,79.900 152.472 C 79.330 152.553,78.954 152.921,78.875 153.475 C 78.798 154.021,78.421 154.398,77.875 154.475 C 77.330 154.553,76.953 154.930,76.875 155.475 C 76.798 156.021,76.421 156.398,75.875 156.475 C 75.321 156.554,74.953 156.930,74.872 157.500 C 74.780 158.151,74.476 158.400,73.772 158.400 C 73.002 158.400,72.800 158.608,72.800 159.400 C 72.800 160.200,72.600 160.400,71.800 160.400 C 71.000 160.400,70.800 160.600,70.800 161.400 C 70.800 162.301,70.641 162.400,69.190 162.400 C 67.841 162.400,67.519 162.562,67.200 163.400 C 66.991 163.950,66.557 164.400,66.237 164.400 C 65.916 164.400,65.545 164.742,65.413 165.160 C 65.280 165.578,64.728 166.032,64.186 166.168 C 63.579 166.320,63.200 166.702,63.200 167.161 C 63.200 167.579,62.836 168.002,62.370 168.124 C 61.914 168.243,61.446 168.704,61.330 169.148 C 61.213 169.592,60.732 170.010,60.259 170.078 C 59.721 170.154,59.352 170.537,59.272 171.100 C 59.190 171.678,58.868 172.000,58.372 172.000 C 57.815 172.000,57.600 172.279,57.600 173.000 C 57.600 173.800,57.400 174.000,56.600 174.000 C 55.800 174.000,55.600 174.200,55.600 175.000 C 55.600 175.800,55.400 176.000,54.600 176.000 C 53.887 176.000,53.600 176.216,53.600 176.755 C 53.600 177.342,53.202 177.569,51.802 177.779 C 50.338 177.998,49.958 178.230,49.758 179.024 C 49.607 179.628,49.225 180.000,48.757 180.000 C 48.267 180.000,48.000 180.282,48.000 180.800 C 48.000 181.385,47.733 181.600,47.008 181.600 C 46.283 181.600,45.948 181.869,45.764 182.600 C 45.607 183.226,45.230 183.600,44.757 183.600 C 44.216 183.600,44.000 183.886,44.000 184.600 C 44.000 185.400,43.800 185.600,43.000 185.600 C 42.200 185.600,42.000 185.800,42.000 186.600 C 42.000 187.400,41.800 187.600,41.000 187.600 C 40.200 187.600,40.000 187.800,40.000 188.600 C 40.000 189.400,39.800 189.600,39.000 189.600 L 38.000 189.600 38.000 200.200 L 38.000 210.800 39.000 210.800 C 39.800 210.800,40.000 211.000,40.000 211.800 C 40.000 212.600,40.200 212.800,41.000 212.800 C 41.733 212.800,42.000 213.013,42.000 213.600 C 42.000 214.187,42.267 214.400,43.000 214.400 C 43.800 214.400,44.000 214.600,44.000 215.400 C 44.000 216.133,44.213 216.400,44.800 216.400 C 45.387 216.400,45.600 216.667,45.600 217.400 C 45.600 218.188,45.803 218.400,46.557 218.400 C 47.243 218.400,47.584 218.682,47.764 219.400 C 47.922 220.030,48.298 220.400,48.780 220.400 C 49.268 220.400,49.591 220.725,49.672 221.300 C 49.754 221.878,50.122 222.246,50.700 222.328 C 51.195 222.398,51.600 222.718,51.600 223.038 C 51.600 223.358,52.050 223.791,52.600 224.000 C 53.150 224.209,53.600 224.659,53.600 225.000 C 53.600 225.690,55.134 226.400,56.626 226.400 C 57.333 226.400,57.600 226.619,57.600 227.200 C 57.600 227.733,57.867 228.000,58.400 228.000 C 58.987 228.000,59.200 228.267,59.200 229.000 C 59.200 229.792,59.402 230.000,60.172 230.000 C 60.876 230.000,61.180 230.249,61.272 230.900 C 61.354 231.478,61.722 231.846,62.300 231.928 C 62.951 232.020,63.200 232.324,63.200 233.028 C 63.200 233.791,63.409 234.000,64.172 234.000 C 64.876 234.000,65.180 234.249,65.272 234.900 C 65.353 235.470,65.721 235.846,66.275 235.925 C 66.821 236.002,67.198 236.379,67.275 236.925 C 67.354 237.479,67.730 237.847,68.300 237.928 C 68.795 237.998,69.200 238.318,69.200 238.638 C 69.200 238.958,69.625 239.382,70.145 239.579 C 70.665 239.777,71.188 240.312,71.308 240.769 C 71.483 241.440,71.841 241.600,73.163 241.600 C 74.642 241.600,74.800 241.696,74.800 242.600 C 74.800 243.400,75.000 243.600,75.800 243.600 C 76.600 243.600,76.800 243.800,76.800 244.600 C 76.800 245.400,77.000 245.600,77.800 245.600 C 78.600 245.600,78.800 245.800,78.800 246.600 C 78.800 247.392,79.002 247.600,79.772 247.600 C 80.476 247.600,80.780 247.849,80.872 248.500 C 80.954 249.078,81.322 249.446,81.900 249.528 C 82.495 249.612,82.800 249.930,82.800 250.465 C 82.800 250.934,83.131 251.362,83.587 251.481 C 84.019 251.594,84.482 252.027,84.614 252.443 C 84.746 252.859,85.206 253.200,85.637 253.200 C 86.104 253.200,86.573 253.603,86.800 254.200 C 87.009 254.750,87.412 255.200,87.695 255.200 C 87.979 255.200,88.388 255.605,88.605 256.100 C 88.910 256.795,89.387 257.028,90.700 257.123 C 92.202 257.232,92.400 257.360,92.400 258.223 C 92.400 258.998,92.606 259.200,93.400 259.200 C 94.200 259.200,94.400 259.400,94.400 260.200 C 94.400 261.000,94.600 261.200,95.400 261.200 C 96.200 261.200,96.400 261.400,96.400 262.200 C 96.400 262.913,96.616 263.200,97.153 263.200 C 97.579 263.200,98.001 263.561,98.124 264.030 C 98.243 264.486,98.697 264.953,99.133 265.067 C 99.569 265.181,100.016 265.617,100.126 266.037 C 100.237 266.463,100.674 266.800,101.116 266.800 C 101.580 266.800,101.996 267.143,102.124 267.630 C 102.243 268.086,102.676 268.547,103.086 268.654 C 103.496 268.762,104.004 269.243,104.216 269.725 C 104.509 270.392,105.003 270.629,106.300 270.723 C 107.802 270.832,108.000 270.960,108.000 271.823 L 108.000 272.800 126.400 272.800 L 144.800 272.800 144.800 265.200 L 144.800 257.600 143.800 257.600 C 143.000 257.600,142.800 257.400,142.800 256.600 C 142.800 255.800,142.600 255.600,141.800 255.600 C 141.000 255.600,140.800 255.400,140.800 254.600 C 140.800 253.800,140.600 253.600,139.800 253.600 C 139.000 253.600,138.800 253.400,138.800 252.600 C 138.800 251.800,138.600 251.600,137.800 251.600 C 137.000 251.600,136.800 251.400,136.800 250.600 C 136.800 249.808,136.598 249.600,135.828 249.600 C 135.124 249.600,134.820 249.351,134.728 248.700 C 134.646 248.122,134.278 247.754,133.700 247.672 C 133.135 247.592,132.800 247.267,132.800 246.800 C 132.800 246.333,132.465 246.008,131.900 245.928 C 131.322 245.846,130.954 245.478,130.872 244.900 C 130.797 244.371,130.465 244.000,130.067 244.000 C 129.695 244.000,129.212 243.595,128.995 243.100 C 128.690 242.405,128.213 242.172,126.900 242.077 C 125.398 241.968,125.200 241.840,125.200 240.977 C 125.200 240.202,124.994 240.000,124.200 240.000 C 123.400 240.000,123.200 239.800,123.200 239.000 C 123.200 238.200,123.000 238.000,122.200 238.000 C 121.400 238.000,121.200 237.800,121.200 237.000 C 121.200 236.279,120.985 236.000,120.428 236.000 C 119.932 236.000,119.610 235.678,119.528 235.100 C 119.447 234.530,119.079 234.154,118.525 234.075 C 117.979 233.998,117.602 233.621,117.525 233.075 C 117.446 232.521,117.070 232.153,116.500 232.072 C 115.922 231.990,115.600 231.668,115.600 231.172 C 115.600 230.615,115.321 230.400,114.600 230.400 C 113.800 230.400,113.600 230.200,113.600 229.400 C 113.600 228.600,113.400 228.400,112.600 228.400 C 111.800 228.400,111.600 228.200,111.600 227.400 C 111.600 226.613,111.397 226.400,110.647 226.400 C 110.018 226.400,109.619 226.117,109.476 225.570 C 109.357 225.114,108.886 224.643,108.430 224.524 C 107.973 224.404,107.600 223.987,107.600 223.596 C 107.600 222.782,106.832 222.400,105.195 222.400 C 104.318 222.400,104.026 222.193,103.928 221.500 C 103.846 220.922,103.478 220.554,102.900 220.472 C 102.249 220.380,102.000 220.076,102.000 219.372 C 102.000 218.602,101.792 218.400,101.000 218.400 C 100.267 218.400,100.000 218.187,100.000 217.600 C 100.000 217.013,99.733 216.800,99.000 216.800 C 98.200 216.800,98.000 216.600,98.000 215.800 C 98.000 215.000,97.800 214.800,97.000 214.800 C 96.200 214.800,96.000 214.600,96.000 213.800 C 96.000 213.000,95.800 212.800,95.000 212.800 C 94.200 212.800,94.000 212.600,94.000 211.800 C 94.000 211.086,93.784 210.800,93.243 210.800 C 92.770 210.800,92.393 210.426,92.236 209.800 C 92.080 209.181,91.701 208.800,91.239 208.800 C 90.821 208.800,90.398 208.436,90.276 207.970 C 90.157 207.514,89.692 207.045,89.243 206.927 C 88.794 206.810,88.318 206.373,88.186 205.957 C 88.054 205.541,87.618 205.200,87.216 205.200 C 86.772 205.200,86.389 204.809,86.236 204.200 C 86.078 203.570,85.702 203.200,85.220 203.200 C 84.732 203.200,84.409 202.875,84.328 202.300 C 84.220 201.543,83.883 201.362,82.200 201.163 C 81.100 201.032,80.609 200.897,81.110 200.863 C 81.679 200.824,82.162 200.425,82.400 199.800 C 82.609 199.250,83.072 198.800,83.428 198.800 C 83.784 198.800,84.166 198.450,84.278 198.022 C 84.390 197.595,84.868 197.190,85.341 197.122 C 85.870 197.047,86.248 196.664,86.325 196.125 C 86.402 195.579,86.779 195.202,87.325 195.125 C 87.870 195.047,88.247 194.670,88.325 194.125 C 88.402 193.579,88.779 193.202,89.325 193.125 C 89.879 193.046,90.247 192.670,90.328 192.100 C 90.420 191.449,90.724 191.200,91.428 191.200 C 92.198 191.200,92.400 190.992,92.400 190.200 C 92.400 189.467,92.613 189.200,93.200 189.200 C 93.787 189.200,94.000 188.933,94.000 188.200 C 94.000 187.400,94.200 187.200,95.000 187.200 C 95.713 187.200,96.000 186.984,96.000 186.445 C 96.000 185.858,96.398 185.631,97.798 185.421 C 99.262 185.202,99.642 184.970,99.842 184.176 C 99.999 183.551,100.373 183.200,100.881 183.200 C 101.338 183.200,101.764 182.861,101.884 182.400 C 101.999 181.960,102.429 181.600,102.839 181.600 C 103.296 181.600,103.680 181.222,103.830 180.623 C 103.979 180.028,104.413 179.598,104.938 179.523 C 105.479 179.446,105.848 179.065,105.928 178.500 C 106.010 177.922,106.332 177.600,106.828 177.600 C 107.385 177.600,107.600 177.321,107.600 176.600 C 107.600 175.800,107.800 175.600,108.600 175.600 C 109.400 175.600,109.600 175.400,109.600 174.600 C 109.600 173.800,109.800 173.600,110.600 173.600 C 111.333 173.600,111.600 173.387,111.600 172.800 C 111.600 172.213,111.867 172.000,112.600 172.000 C 113.387 172.000,113.600 171.797,113.600 171.045 C 113.600 170.221,113.845 170.054,115.400 169.821 C 116.779 169.614,117.200 169.380,117.200 168.819 C 117.200 168.372,117.589 167.989,118.200 167.836 C 118.830 167.678,119.200 167.302,119.200 166.820 C 119.200 166.332,119.525 166.009,120.100 165.928 C 120.678 165.846,121.046 165.478,121.128 164.900 C 121.220 164.249,121.524 164.000,122.228 164.000 C 122.998 164.000,123.200 163.792,123.200 163.000 C 123.200 162.200,123.400 162.000,124.200 162.000 C 125.000 162.000,125.200 161.800,125.200 161.000 C 125.200 160.200,125.400 160.000,126.200 160.000 C 126.921 160.000,127.200 159.785,127.200 159.228 C 127.200 158.732,127.522 158.410,128.100 158.328 C 128.670 158.247,129.046 157.879,129.125 157.325 C 129.202 156.779,129.579 156.402,130.125 156.325 C 130.679 156.246,131.047 155.870,131.128 155.300 C 131.220 154.649,131.524 154.400,132.228 154.400 C 132.998 154.400,133.200 154.192,133.200 153.400 C 133.200 152.562,133.389 152.400,134.367 152.400 C 136.055 152.400,136.800 152.019,136.800 151.157 C 136.800 150.669,137.082 150.400,137.592 150.400 C 138.104 150.400,138.474 150.046,138.636 149.400 C 138.816 148.682,139.157 148.400,139.843 148.400 C 140.514 148.400,140.800 148.174,140.800 147.647 C 140.800 147.221,141.161 146.799,141.630 146.676 C 142.086 146.557,142.554 146.096,142.670 145.652 C 142.787 145.208,143.268 144.790,143.741 144.722 C 144.589 144.602,144.600 144.493,144.600 136.000 L 144.600 127.400 126.300 127.296 L 108.000 127.192 108.000 128.196 M208.800 129.172 C 208.800 130.913,208.694 131.159,207.900 131.272 C 207.132 131.381,206.982 131.679,206.878 133.300 C 206.780 134.833,206.614 135.200,206.021 135.200 C 205.072 135.200,204.800 135.965,204.800 138.633 C 204.800 140.533,204.702 140.800,204.000 140.800 C 203.309 140.800,203.200 141.067,203.200 142.757 C 203.200 144.510,203.096 144.739,202.200 144.964 C 201.253 145.202,201.200 145.363,201.200 148.008 C 201.200 150.719,201.171 150.800,200.200 150.800 C 199.229 150.800,199.200 150.880,199.200 153.600 C 199.200 156.320,199.171 156.400,198.200 156.400 C 197.269 156.400,197.200 156.535,197.200 158.372 C 197.200 160.113,197.094 160.359,196.300 160.472 C 195.483 160.588,195.389 160.847,195.282 163.274 C 195.176 165.685,195.077 165.961,194.282 166.074 C 193.537 166.181,193.381 166.491,193.279 168.080 C 193.189 169.483,192.972 170.018,192.427 170.192 C 191.637 170.442,191.200 171.959,191.200 174.450 C 191.200 175.733,191.062 176.000,190.400 176.000 C 189.676 176.000,189.600 176.267,189.600 178.800 C 189.600 181.520,189.571 181.600,188.600 181.600 C 187.669 181.600,187.600 181.735,187.600 183.572 C 187.600 185.313,187.494 185.559,186.700 185.672 C 185.883 185.788,185.789 186.047,185.682 188.474 C 185.576 190.885,185.477 191.161,184.682 191.274 C 183.942 191.380,183.781 191.692,183.682 193.213 C 183.589 194.634,183.373 195.110,182.682 195.413 C 181.919 195.748,181.784 196.161,181.682 198.474 C 181.576 200.885,181.477 201.161,180.682 201.274 C 179.887 201.388,179.788 201.664,179.682 204.074 C 179.576 206.485,179.477 206.761,178.682 206.874 C 177.938 206.980,177.781 207.292,177.680 208.859 C 177.586 210.306,177.387 210.762,176.780 210.921 C 176.099 211.099,176.000 211.486,176.000 213.963 C 176.000 216.722,175.973 216.800,175.000 216.800 C 174.081 216.800,174.000 216.946,174.000 218.610 C 174.000 220.172,173.863 220.472,173.000 220.800 C 172.074 221.152,172.000 221.374,172.000 223.790 C 172.000 226.307,171.964 226.400,171.000 226.400 C 170.030 226.400,170.000 226.482,170.000 229.172 C 170.000 231.742,169.934 231.954,169.100 232.072 C 168.332 232.181,168.182 232.479,168.078 234.100 C 167.980 235.633,167.814 236.000,167.221 236.000 C 166.259 236.000,166.000 236.765,166.000 239.605 C 166.000 241.726,165.916 241.956,165.100 242.072 C 164.335 242.181,164.182 242.480,164.080 244.059 C 163.986 245.506,163.787 245.962,163.180 246.121 C 162.506 246.297,162.400 246.684,162.400 248.963 C 162.400 251.509,162.366 251.600,161.400 251.600 C 160.422 251.600,160.400 251.667,160.400 254.600 C 160.400 257.533,160.378 257.600,159.400 257.600 C 158.485 257.600,158.400 257.750,158.400 259.357 C 158.400 260.897,158.277 261.144,157.400 261.364 C 156.454 261.602,156.400 261.765,156.400 264.380 C 156.400 266.942,156.334 267.154,155.500 267.272 C 154.682 267.388,154.589 267.647,154.482 270.100 L 154.363 272.800 173.302 272.800 C 194.720 272.800,193.200 273.066,193.200 269.320 C 193.200 266.899,193.239 266.800,194.200 266.800 C 195.170 266.800,195.200 266.718,195.200 264.028 C 195.200 261.458,195.266 261.246,196.100 261.128 C 196.868 261.019,197.018 260.721,197.122 259.100 C 197.209 257.750,197.414 257.200,197.832 257.200 C 198.610 257.200,199.200 255.562,199.200 253.401 C 199.200 252.005,199.361 251.603,200.000 251.400 C 200.699 251.178,200.800 250.795,200.800 248.373 C 200.800 245.682,200.829 245.600,201.800 245.600 C 202.731 245.600,202.800 245.465,202.800 243.628 C 202.800 241.887,202.906 241.641,203.700 241.528 C 204.517 241.412,204.611 241.153,204.718 238.726 C 204.824 236.315,204.923 236.039,205.718 235.926 C 206.522 235.811,206.610 235.543,206.718 232.900 C 206.830 230.119,206.875 230.000,207.818 230.000 C 208.715 230.000,208.800 229.845,208.800 228.200 C 208.800 226.886,208.958 226.400,209.386 226.400 C 210.295 226.400,210.800 225.061,210.800 222.654 C 210.800 220.679,210.891 220.443,211.700 220.328 C 212.465 220.219,212.618 219.920,212.720 218.341 C 212.814 216.894,213.013 216.438,213.620 216.279 C 214.292 216.103,214.400 215.716,214.400 213.481 C 214.400 211.047,214.462 210.871,215.400 210.636 C 216.347 210.398,216.400 210.237,216.400 207.592 C 216.400 204.881,216.429 204.800,217.400 204.800 C 218.333 204.800,218.400 204.667,218.400 202.800 C 218.400 201.104,218.515 200.800,219.157 200.800 C 220.126 200.800,220.400 200.049,220.400 197.395 C 220.400 195.481,220.495 195.242,221.300 195.128 C 222.125 195.011,222.210 194.760,222.317 192.126 C 222.424 189.508,222.513 189.240,223.317 189.126 C 224.046 189.022,224.222 188.703,224.323 187.300 C 224.391 186.365,224.603 185.600,224.794 185.600 C 225.794 185.600,226.400 184.230,226.400 181.971 C 226.400 179.867,226.490 179.600,227.200 179.600 C 227.929 179.600,228.000 179.333,228.000 176.600 C 228.000 173.667,228.022 173.600,229.000 173.600 C 229.915 173.600,230.000 173.450,230.000 171.843 C 230.000 170.303,230.123 170.056,231.000 169.836 C 231.947 169.598,232.000 169.437,232.000 166.792 C 232.000 164.081,232.029 164.000,233.000 164.000 C 233.933 164.000,234.000 163.867,234.000 162.000 C 234.000 160.304,234.115 160.000,234.757 160.000 C 235.728 160.000,236.000 159.249,236.000 156.567 C 236.000 154.707,236.107 154.400,236.757 154.400 C 237.741 154.400,238.000 153.650,238.000 150.795 C 238.000 148.674,238.084 148.444,238.900 148.328 C 239.665 148.219,239.818 147.920,239.920 146.341 C 240.014 144.894,240.213 144.438,240.820 144.279 C 241.494 144.103,241.600 143.716,241.600 141.437 C 241.600 138.891,241.634 138.800,242.600 138.800 C 243.570 138.800,243.600 138.718,243.600 136.028 C 243.600 133.458,243.666 133.246,244.500 133.128 C 245.326 133.011,245.410 132.761,245.518 130.100 L 245.635 127.200 227.218 127.200 L 208.800 127.200 208.800 129.172 M255.600 135.996 L 255.600 144.800 256.600 144.800 C 257.400 144.800,257.600 145.000,257.600 145.800 C 257.600 146.513,257.816 146.800,258.353 146.800 C 258.770 146.800,259.200 147.157,259.316 147.600 C 259.438 148.068,259.862 148.400,260.335 148.400 C 260.870 148.400,261.188 148.705,261.272 149.300 C 261.353 149.870,261.721 150.246,262.275 150.325 C 262.821 150.402,263.198 150.779,263.275 151.325 C 263.352 151.864,263.730 152.247,264.259 152.322 C 264.732 152.390,265.213 152.808,265.330 153.252 C 265.446 153.696,265.897 154.153,266.333 154.267 C 266.769 154.381,267.215 154.812,267.323 155.226 C 267.458 155.742,268.026 156.059,269.138 156.236 C 270.383 156.436,270.785 156.692,270.878 157.348 C 270.954 157.879,271.339 158.248,271.900 158.328 C 272.478 158.410,272.800 158.732,272.800 159.228 C 272.800 159.785,273.079 160.000,273.800 160.000 C 274.600 160.000,274.800 160.200,274.800 161.000 C 274.800 161.800,275.000 162.000,275.800 162.000 C 276.600 162.000,276.800 162.200,276.800 163.000 C 276.800 163.792,277.002 164.000,277.772 164.000 C 278.476 164.000,278.780 164.249,278.872 164.900 C 278.954 165.478,279.322 165.846,279.900 165.928 C 280.551 166.020,280.800 166.324,280.800 167.028 C 280.800 167.798,281.008 168.000,281.800 168.000 C 282.429 168.000,282.800 168.226,282.800 168.610 C 282.800 168.945,283.250 169.391,283.800 169.600 C 284.398 169.827,284.800 170.296,284.800 170.766 C 284.800 171.390,285.169 171.606,286.600 171.821 C 288.002 172.031,288.400 172.258,288.400 172.845 C 288.400 173.384,288.687 173.600,289.400 173.600 C 290.200 173.600,290.400 173.800,290.400 174.600 C 290.400 175.400,290.600 175.600,291.400 175.600 C 292.200 175.600,292.400 175.800,292.400 176.600 C 292.400 177.400,292.600 177.600,293.400 177.600 C 294.200 177.600,294.400 177.800,294.400 178.600 C 294.400 179.400,294.600 179.600,295.400 179.600 C 296.200 179.600,296.400 179.800,296.400 180.600 C 296.400 181.288,296.620 181.600,297.105 181.600 C 297.493 181.600,297.988 182.005,298.205 182.500 C 298.422 182.995,299.005 183.458,299.500 183.528 C 300.078 183.610,300.400 183.932,300.400 184.428 C 300.400 184.919,300.676 185.200,301.157 185.200 C 301.630 185.200,302.007 185.574,302.164 186.200 C 302.385 187.081,302.629 187.200,304.208 187.200 C 305.853 187.200,306.000 187.282,306.000 188.200 C 306.000 189.000,306.200 189.200,307.000 189.200 C 307.800 189.200,308.000 189.400,308.000 190.200 C 308.000 191.000,308.200 191.200,309.000 191.200 C 309.800 191.200,310.000 191.400,310.000 192.200 C 310.000 192.921,310.215 193.200,310.772 193.200 C 311.268 193.200,311.590 193.522,311.672 194.100 C 311.752 194.663,312.121 195.046,312.659 195.122 C 313.132 195.190,313.613 195.608,313.730 196.052 C 313.846 196.496,314.314 196.957,314.770 197.076 C 315.236 197.198,315.600 197.621,315.600 198.039 C 315.600 198.501,315.981 198.880,316.600 199.036 C 317.881 199.357,318.004 201.001,316.770 201.324 C 316.314 201.443,315.843 201.914,315.724 202.370 C 315.596 202.857,315.180 203.200,314.716 203.200 C 314.274 203.200,313.837 203.537,313.726 203.963 C 313.616 204.383,313.169 204.819,312.733 204.933 C 312.297 205.047,311.847 205.497,311.733 205.933 C 311.619 206.369,311.183 206.816,310.763 206.926 C 310.319 207.042,310.000 207.475,310.000 207.963 C 310.000 208.589,309.748 208.800,309.000 208.800 C 308.200 208.800,308.000 209.000,308.000 209.800 C 308.000 210.600,307.800 210.800,307.000 210.800 C 306.200 210.800,306.000 211.000,306.000 211.800 C 306.000 212.600,305.800 212.800,305.000 212.800 C 304.200 212.800,304.000 213.000,304.000 213.800 C 304.000 214.600,303.800 214.800,303.000 214.800 C 302.200 214.800,302.000 215.000,302.000 215.800 C 302.000 216.600,301.800 216.800,301.000 216.800 C 300.289 216.800,300.000 217.017,300.000 217.549 C 300.000 218.114,299.605 218.361,298.388 218.556 C 297.195 218.746,296.682 219.058,296.418 219.752 C 296.222 220.268,295.688 220.788,295.231 220.908 C 294.774 221.027,294.400 221.391,294.400 221.716 C 294.400 222.041,294.027 222.404,293.570 222.524 C 293.114 222.643,292.646 223.104,292.530 223.548 C 292.413 223.992,291.932 224.410,291.459 224.478 C 290.921 224.554,290.552 224.937,290.472 225.500 C 290.380 226.151,290.076 226.400,289.372 226.400 C 288.609 226.400,288.400 226.609,288.400 227.372 C 288.400 228.076,288.151 228.380,287.500 228.472 C 286.922 228.554,286.554 228.922,286.472 229.500 C 286.380 230.151,286.076 230.400,285.372 230.400 C 284.667 230.400,284.400 230.619,284.400 231.200 C 284.400 231.733,284.133 232.000,283.600 232.000 C 283.013 232.000,282.800 232.267,282.800 233.000 C 282.800 233.800,282.600 234.000,281.800 234.000 C 281.000 234.000,280.800 234.200,280.800 235.000 C 280.800 235.800,280.600 236.000,279.800 236.000 C 279.006 236.000,278.800 236.202,278.800 236.977 C 278.800 237.840,278.602 237.968,277.100 238.077 C 275.687 238.179,275.378 238.352,275.272 239.100 C 275.189 239.683,274.869 240.000,274.362 240.000 C 273.896 240.000,273.427 240.404,273.200 241.000 C 272.991 241.550,272.541 242.000,272.200 242.000 C 271.859 242.000,271.409 242.450,271.200 243.000 C 270.967 243.612,270.506 244.000,270.010 244.000 C 269.476 244.000,269.200 244.264,269.200 244.772 C 269.200 245.268,268.878 245.590,268.300 245.672 C 267.730 245.753,267.354 246.121,267.275 246.675 C 267.198 247.221,266.821 247.598,266.275 247.675 C 265.721 247.754,265.353 248.130,265.272 248.700 C 265.180 249.351,264.876 249.600,264.172 249.600 C 263.409 249.600,263.200 249.809,263.200 250.572 C 263.200 251.276,262.951 251.580,262.300 251.672 C 261.722 251.754,261.354 252.122,261.272 252.700 C 261.180 253.351,260.876 253.600,260.172 253.600 C 259.402 253.600,259.200 253.808,259.200 254.600 C 259.200 255.333,258.987 255.600,258.400 255.600 C 257.813 255.600,257.600 255.867,257.600 256.600 C 257.600 257.400,257.400 257.600,256.600 257.600 L 255.600 257.600 255.600 265.200 L 255.600 272.800 274.000 272.800 L 292.400 272.800 292.400 271.800 C 292.400 271.067,292.613 270.800,293.200 270.800 C 293.782 270.800,294.000 270.533,294.000 269.822 C 294.000 268.939,294.185 268.832,295.900 268.722 C 297.521 268.618,297.819 268.468,297.928 267.700 C 298.008 267.134,298.333 266.800,298.801 266.800 C 299.211 266.800,299.655 266.458,299.787 266.040 C 299.920 265.622,300.472 265.168,301.014 265.032 C 301.621 264.880,302.000 264.498,302.000 264.039 C 302.000 263.621,302.364 263.198,302.830 263.076 C 303.286 262.957,303.754 262.496,303.870 262.052 C 303.987 261.608,304.468 261.190,304.941 261.122 C 305.479 261.046,305.848 260.663,305.928 260.100 C 306.010 259.522,306.332 259.200,306.828 259.200 C 307.385 259.200,307.600 258.921,307.600 258.200 C 307.600 257.400,307.800 257.200,308.600 257.200 C 309.400 257.200,309.600 257.000,309.600 256.200 C 309.600 255.400,309.800 255.200,310.600 255.200 C 311.400 255.200,311.600 255.000,311.600 254.200 C 311.600 253.282,311.747 253.200,313.392 253.200 C 314.971 253.200,315.215 253.081,315.436 252.200 C 315.593 251.574,315.970 251.200,316.443 251.200 C 316.924 251.200,317.200 250.919,317.200 250.428 C 317.200 249.932,317.522 249.610,318.100 249.528 C 318.595 249.458,319.178 248.995,319.395 248.500 C 319.612 248.005,320.107 247.600,320.495 247.600 C 320.980 247.600,321.200 247.288,321.200 246.600 C 321.200 245.800,321.400 245.600,322.200 245.600 C 323.000 245.600,323.200 245.400,323.200 244.600 C 323.200 243.800,323.400 243.600,324.200 243.600 C 325.000 243.600,325.200 243.400,325.200 242.600 C 325.200 241.800,325.400 241.600,326.200 241.600 C 326.913 241.600,327.200 241.384,327.200 240.845 C 327.200 240.259,327.596 240.031,328.975 239.825 C 330.398 239.611,330.775 239.384,330.875 238.679 C 330.954 238.121,331.329 237.753,331.900 237.672 C 332.465 237.592,332.800 237.267,332.800 236.800 C 332.800 236.333,333.135 236.008,333.700 235.928 C 334.278 235.846,334.646 235.478,334.728 234.900 C 334.820 234.249,335.124 234.000,335.828 234.000 C 336.598 234.000,336.800 233.792,336.800 233.000 C 336.800 232.200,337.000 232.000,337.800 232.000 C 338.600 232.000,338.800 231.800,338.800 231.000 C 338.800 230.200,339.000 230.000,339.800 230.000 C 340.600 230.000,340.800 229.800,340.800 229.000 C 340.800 228.200,341.000 228.000,341.800 228.000 C 342.521 228.000,342.800 227.785,342.800 227.228 C 342.800 226.732,343.122 226.410,343.700 226.328 C 344.261 226.248,344.646 225.879,344.722 225.348 C 344.815 224.692,345.217 224.436,346.462 224.236 C 347.574 224.059,348.142 223.742,348.277 223.226 C 348.385 222.812,348.831 222.381,349.267 222.267 C 349.703 222.153,350.154 221.696,350.270 221.252 C 350.387 220.808,350.868 220.390,351.341 220.322 C 351.879 220.246,352.248 219.863,352.328 219.300 C 352.420 218.649,352.724 218.400,353.428 218.400 C 354.198 218.400,354.400 218.192,354.400 217.400 C 354.400 216.600,354.600 216.400,355.400 216.400 C 356.200 216.400,356.400 216.200,356.400 215.400 C 356.400 214.600,356.600 214.400,357.400 214.400 C 358.133 214.400,358.400 214.187,358.400 213.600 C 358.400 213.067,358.667 212.800,359.200 212.800 C 359.787 212.800,360.000 212.533,360.000 211.800 C 360.000 211.000,360.200 210.800,361.000 210.800 L 362.000 210.800 362.000 200.200 L 362.000 189.600 361.000 189.600 C 360.200 189.600,360.000 189.400,360.000 188.600 C 360.000 187.879,359.785 187.600,359.228 187.600 C 358.732 187.600,358.410 187.278,358.328 186.700 C 358.248 186.135,357.879 185.754,357.338 185.677 C 356.813 185.602,356.379 185.172,356.230 184.577 C 356.080 183.978,355.696 183.600,355.239 183.600 C 354.821 183.600,354.398 183.236,354.276 182.770 C 354.157 182.314,353.686 181.843,353.230 181.724 C 352.773 181.604,352.400 181.253,352.400 180.943 C 352.400 180.302,350.819 179.600,349.374 179.600 C 348.602 179.600,348.400 179.393,348.400 178.600 C 348.400 177.867,348.187 177.600,347.600 177.600 C 347.067 177.600,346.800 177.333,346.800 176.800 C 346.800 176.213,346.533 176.000,345.800 176.000 C 345.000 176.000,344.800 175.800,344.800 175.000 C 344.800 174.208,344.598 174.000,343.828 174.000 C 343.124 174.000,342.820 173.751,342.728 173.100 C 342.647 172.530,342.279 172.154,341.725 172.075 C 341.179 171.998,340.802 171.621,340.725 171.075 C 340.647 170.530,340.270 170.153,339.725 170.075 C 339.179 169.998,338.802 169.621,338.725 169.075 C 338.646 168.521,338.270 168.153,337.700 168.072 C 337.205 168.002,336.800 167.682,336.800 167.362 C 336.800 167.042,336.375 166.618,335.855 166.421 C 335.335 166.223,334.813 165.693,334.695 165.242 C 334.540 164.647,334.030 164.350,332.840 164.160 C 331.597 163.961,331.200 163.716,331.200 163.149 C 331.200 162.617,330.911 162.400,330.200 162.400 C 329.400 162.400,329.200 162.200,329.200 161.400 C 329.200 160.600,329.000 160.400,328.200 160.400 C 327.400 160.400,327.200 160.200,327.200 159.400 C 327.200 158.600,327.000 158.400,326.200 158.400 C 325.400 158.400,325.200 158.200,325.200 157.400 C 325.200 156.608,324.998 156.400,324.228 156.400 C 323.524 156.400,323.220 156.151,323.128 155.500 C 323.047 154.930,322.679 154.554,322.125 154.475 C 321.579 154.398,321.202 154.021,321.125 153.475 C 321.046 152.921,320.670 152.553,320.100 152.472 C 319.522 152.390,319.200 152.068,319.200 151.572 C 319.200 151.064,318.924 150.800,318.390 150.800 C 317.894 150.800,317.433 150.412,317.200 149.800 C 316.881 148.962,316.559 148.800,315.210 148.800 C 313.759 148.800,313.600 148.701,313.600 147.800 C 313.600 147.000,313.400 146.800,312.600 146.800 C 311.800 146.800,311.600 146.600,311.600 145.800 C 311.600 145.000,311.400 144.800,310.600 144.800 C 309.800 144.800,309.600 144.600,309.600 143.800 C 309.600 143.000,309.400 142.800,308.600 142.800 C 307.800 142.800,307.600 142.600,307.600 141.800 C 307.600 141.087,307.384 140.800,306.847 140.800 C 306.421 140.800,305.999 140.439,305.876 139.970 C 305.757 139.514,305.303 139.047,304.867 138.933 C 304.431 138.819,303.984 138.383,303.874 137.963 C 303.763 137.537,303.326 137.200,302.884 137.200 C 302.420 137.200,302.004 136.857,301.876 136.370 C 301.757 135.914,301.324 135.453,300.914 135.346 C 300.504 135.238,299.996 134.757,299.784 134.275 C 299.491 133.608,298.997 133.371,297.700 133.277 C 296.198 133.168,296.000 133.040,296.000 132.177 C 296.000 131.402,295.794 131.200,295.000 131.200 C 294.200 131.200,294.000 131.000,294.000 130.200 C 294.000 129.479,293.785 129.200,293.228 129.200 C 292.732 129.200,292.410 128.878,292.328 128.300 L 292.200 127.400 273.900 127.296 L 255.600 127.192 255.600 135.996 " stroke="none" fill="#04dc7c" fill-rule="evenodd"></path><path id="path1" d="" stroke="none" fill="#08dc7c" fill-rule="evenodd"></path></g></svg>