<svg id="svg" version="1.1" xmlns="http://www.w3.org/2000/svg" xmlns:xlink="http://www.w3.org/1999/xlink" width="400" height="400" viewBox="0, 0, 400,400"><g id="svgg"><path id="path0" d="M160.347 112.848 L 120.555 152.640 136.389 168.472 L 152.223 184.305 192.014 144.513 L 231.805 104.722 215.972 88.889 L 200.138 73.055 160.347 112.848 M184.097 184.098 L 120.555 247.640 136.389 263.472 L 152.223 279.305 215.764 215.764 L 279.305 152.222 263.472 136.389 L 247.638 120.556 184.097 184.098 M231.667 231.805 L 168.196 295.277 184.028 311.111 L 199.860 326.945 263.402 263.404 L 326.944 199.862 311.181 184.098 C 302.512 175.427,295.355 168.333,295.278 168.333 C 295.201 168.333,266.576 196.896,231.667 231.805 M88.819 184.376 L 73.056 200.141 88.889 215.972 L 104.722 231.804 120.556 215.972 L 136.389 200.141 120.626 184.376 C 111.956 175.705,104.800 168.611,104.722 168.611 C 104.645 168.611,97.488 175.705,88.819 184.376 " stroke="none" fill="#fcfcfb" fill-rule="evenodd"></path><path id="path1" d="M190.278 13.360 C 124.861 16.721,66.214 54.038,35.038 112.138 C 33.035 115.872,32.104 117.759,29.582 123.194 C -9.286 206.968,22.264 310.007,101.796 359.033 C 216.510 429.748,366.489 359.165,385.122 225.694 C 401.314 109.715,307.373 7.343,190.278 13.360 M216.250 88.889 L 232.082 104.723 192.153 144.653 L 152.223 184.582 136.389 168.750 C 127.681 160.043,120.556 152.793,120.556 152.640 C 120.556 152.276,199.775 73.056,200.139 73.056 C 200.293 73.056,207.543 80.181,216.250 88.889 M263.750 136.389 L 279.582 152.223 215.903 215.903 L 152.223 279.582 136.389 263.750 C 127.681 255.043,120.556 247.793,120.556 247.640 C 120.556 247.276,247.275 120.556,247.640 120.556 C 247.793 120.556,255.043 127.681,263.750 136.389 M311.180 183.819 C 319.850 192.488,326.944 199.707,326.944 199.860 C 326.944 200.224,200.225 326.944,199.860 326.944 C 199.707 326.944,192.457 319.819,183.750 311.111 L 167.918 295.277 231.528 231.666 C 266.514 196.680,295.201 168.056,295.277 168.056 C 295.353 168.056,302.509 175.149,311.180 183.819 M120.624 184.096 C 129.295 192.766,136.389 199.985,136.389 200.139 C 136.389 200.293,129.264 207.543,120.556 216.250 L 104.722 232.082 88.889 216.250 C 80.181 207.543,73.056 200.293,73.056 200.141 C 73.056 199.868,104.449 168.333,104.720 168.333 C 104.797 168.333,111.953 175.427,120.624 184.096 " stroke="none" fill="#f4bc0c" fill-rule="evenodd"></path><path id="path2" d="M215.972 88.820 L 231.805 104.723 192.014 144.514 L 152.223 184.305 136.320 168.472 L 120.417 152.639 136.320 168.611 L 152.222 184.583 192.153 144.653 L 232.083 104.722 216.111 88.820 L 200.139 72.917 215.972 88.820 M183.889 184.097 L 120.417 247.639 183.958 184.167 C 218.906 149.257,247.500 120.664,247.500 120.625 C 247.500 120.431,242.902 125.019,183.889 184.097 M310.972 183.889 C 319.680 192.597,326.866 199.722,326.943 199.722 C 327.019 199.722,319.957 192.597,311.250 183.889 C 302.543 175.181,295.356 168.056,295.280 168.056 C 295.203 168.056,302.265 175.181,310.972 183.889 M263.333 263.542 L 199.861 327.083 263.403 263.611 C 322.481 204.598,327.069 200.000,326.875 200.000 C 326.836 200.000,298.243 228.594,263.333 263.542 M88.819 216.111 L 104.722 232.083 120.625 216.111 L 136.528 200.139 120.625 215.972 L 104.722 231.804 88.819 215.972 L 72.917 200.139 88.819 216.111 M136.250 263.611 C 144.957 272.319,152.144 279.444,152.220 279.444 C 152.297 279.444,145.235 272.319,136.528 263.611 C 127.820 254.903,120.634 247.778,120.557 247.778 C 120.481 247.778,127.543 254.903,136.250 263.611 M184.861 278.334 L 167.918 295.278 183.889 311.181 L 199.861 327.083 184.028 311.181 L 168.196 295.278 185.139 278.333 C 194.457 269.014,202.019 261.389,201.943 261.389 C 201.866 261.389,194.179 269.014,184.861 278.334 " stroke="none" fill="#f4cc54" fill-rule="evenodd"></path><path id="path3" d="M160.139 112.847 L 120.417 152.639 160.208 112.917 C 182.094 91.070,200.000 73.164,200.000 73.125 C 200.000 72.931,197.068 75.853,160.139 112.847 M263.472 136.320 L 279.304 152.223 215.694 215.903 L 152.083 279.583 215.833 215.903 L 279.583 152.222 263.611 136.320 L 247.639 120.417 263.472 136.320 M248.472 214.792 L 201.806 261.528 248.542 214.861 C 291.993 171.475,295.402 168.056,295.208 168.056 C 295.170 168.056,274.138 189.087,248.472 214.792 M88.749 184.236 L 72.917 200.139 88.819 184.306 L 104.722 168.474 120.625 184.306 L 136.528 200.139 120.695 184.236 C 111.988 175.490,104.800 168.333,104.722 168.333 C 104.645 168.333,97.457 175.490,88.749 184.236 " stroke="none" fill="#fce4a4" fill-rule="evenodd"></path><path id="path4" d="" stroke="none" fill="#f8e028" fill-rule="evenodd"></path></g></svg>