<svg id="svg" version="1.1" xmlns="http://www.w3.org/2000/svg" xmlns:xlink="http://www.w3.org/1999/xlink" width="400" height="383.52059925093636" viewBox="0, 0, 400,383.52059925093636"><g id="svgg"><path id="path0" d="M179.271 12.935 C 178.954 13.054,178.436 13.374,178.119 13.646 C 177.737 13.973,175.948 14.183,172.809 14.268 C 168.967 14.371,167.988 14.514,167.616 15.024 C 167.266 15.503,166.351 15.686,163.782 15.792 C 161.060 15.904,160.334 16.061,160.031 16.603 C 159.728 17.143,159.127 17.274,156.951 17.274 C 154.570 17.274,154.223 17.366,154.046 18.042 C 153.875 18.698,153.522 18.810,151.638 18.810 C 150.013 18.810,149.175 19.012,148.456 19.578 C 147.765 20.121,146.898 20.345,145.489 20.345 C 143.821 20.345,143.466 20.470,143.297 21.113 C 143.128 21.760,142.774 21.881,141.056 21.881 C 139.352 21.881,138.975 22.008,138.772 22.649 C 138.583 23.241,138.191 23.417,137.050 23.417 C 135.199 23.417,134.357 23.729,134.357 24.417 C 134.357 24.785,133.878 24.952,132.821 24.952 C 131.542 24.952,131.286 25.080,131.286 25.720 C 131.286 26.357,131.030 26.488,129.782 26.488 C 127.906 26.488,127.063 26.798,127.063 27.488 C 127.063 27.857,126.583 28.023,125.516 28.023 C 124.494 28.023,123.893 28.219,123.747 28.599 C 123.626 28.916,123.111 29.175,122.604 29.175 C 122.097 29.175,121.386 29.520,121.024 29.942 C 120.650 30.379,119.892 30.710,119.265 30.710 C 118.485 30.710,118.103 30.935,117.962 31.478 C 117.809 32.060,117.438 32.246,116.426 32.246 C 115.414 32.246,115.043 32.431,114.890 33.013 C 114.738 33.595,114.367 33.781,113.355 33.781 C 112.365 33.781,111.971 33.970,111.829 34.513 C 111.707 34.979,111.163 35.334,110.329 35.490 C 109.553 35.636,109.021 35.962,109.021 36.294 C 109.021 36.605,108.665 36.852,108.217 36.852 C 107.737 36.852,107.333 37.161,107.213 37.620 C 107.061 38.202,106.689 38.388,105.677 38.388 C 104.666 38.388,104.294 38.573,104.142 39.155 C 103.998 39.706,103.618 39.923,102.798 39.923 C 101.978 39.923,101.599 40.140,101.455 40.691 C 101.344 41.116,100.931 41.459,100.531 41.459 C 100.064 41.459,99.808 41.730,99.808 42.226 C 99.808 42.849,99.552 42.994,98.452 42.994 C 97.602 42.994,97.015 43.209,96.876 43.570 C 96.754 43.887,96.398 44.146,96.084 44.146 C 95.770 44.146,95.423 44.491,95.313 44.914 C 95.202 45.336,94.825 45.681,94.474 45.681 C 94.123 45.681,93.587 46.027,93.282 46.449 C 92.978 46.871,92.508 47.217,92.238 47.217 C 91.968 47.217,91.431 47.532,91.046 47.918 C 90.660 48.304,90.055 48.730,89.702 48.866 C 89.349 49.001,89.060 49.377,89.060 49.700 C 89.060 50.023,88.827 50.288,88.543 50.288 C 88.259 50.288,87.714 50.633,87.332 51.056 C 86.950 51.478,86.302 51.823,85.893 51.823 C 85.472 51.823,85.062 52.156,84.948 52.591 C 84.837 53.016,84.424 53.359,84.024 53.359 C 83.557 53.359,83.301 53.631,83.301 54.127 C 83.301 54.639,83.045 54.894,82.534 54.894 C 82.022 54.894,81.766 55.150,81.766 55.662 C 81.766 56.174,81.510 56.430,80.998 56.430 C 80.486 56.430,80.230 56.686,80.230 57.198 C 80.230 57.688,79.974 57.965,79.522 57.965 C 79.133 57.965,78.501 58.311,78.119 58.733 C 77.737 59.155,77.198 59.501,76.921 59.501 C 76.645 59.501,76.234 59.846,76.008 60.269 C 75.782 60.691,75.344 61.036,75.034 61.036 C 74.725 61.036,74.472 61.312,74.472 61.648 C 74.472 61.985,74.127 62.350,73.704 62.461 C 73.282 62.571,72.937 62.917,72.937 63.229 C 72.937 63.540,72.591 63.886,72.169 63.996 C 71.747 64.107,71.401 64.416,71.401 64.683 C 71.401 64.951,71.056 65.260,70.633 65.370 C 70.211 65.481,69.866 65.835,69.866 66.157 C 69.866 66.479,69.520 66.853,69.098 66.987 C 68.676 67.121,68.330 67.397,68.330 67.600 C 68.330 67.804,67.639 68.605,66.795 69.382 C 65.950 70.158,65.259 70.930,65.259 71.097 C 65.259 71.264,64.914 71.747,64.491 72.169 C 64.069 72.591,63.724 73.282,63.724 73.704 C 63.724 74.216,63.468 74.472,62.956 74.472 C 62.444 74.472,62.188 74.728,62.188 75.240 C 62.188 75.752,61.932 76.008,61.420 76.008 C 60.994 76.008,60.653 76.264,60.653 76.583 C 60.653 76.900,60.388 77.159,60.065 77.159 C 59.741 77.159,59.370 77.439,59.238 77.781 C 59.107 78.123,58.422 78.981,57.715 79.688 C 56.822 80.580,56.430 81.328,56.430 82.137 C 56.430 83.045,56.261 83.301,55.662 83.301 C 55.150 83.301,54.894 83.557,54.894 84.069 C 54.894 84.581,54.639 84.837,54.127 84.837 C 53.631 84.837,53.359 85.093,53.359 85.560 C 53.359 85.960,53.016 86.372,52.591 86.484 C 52.003 86.637,51.823 87.007,51.823 88.064 C 51.823 89.187,51.681 89.443,51.056 89.443 C 50.544 89.443,50.288 89.699,50.288 90.211 C 50.288 90.723,50.032 90.979,49.520 90.979 C 48.977 90.979,48.752 91.235,48.752 91.854 C 48.752 92.335,48.407 92.978,47.985 93.282 C 47.562 93.587,47.217 94.101,47.217 94.426 C 47.217 94.751,46.871 95.233,46.449 95.496 C 45.971 95.795,45.681 96.392,45.681 97.079 C 45.681 97.860,45.457 98.242,44.914 98.384 C 44.491 98.494,44.146 98.841,44.146 99.155 C 44.146 99.469,43.896 99.822,43.591 99.939 C 43.286 100.056,42.921 100.765,42.781 101.515 C 42.634 102.300,42.299 102.879,41.992 102.879 C 41.626 102.879,41.459 103.360,41.459 104.415 C 41.459 105.694,41.331 105.950,40.691 105.950 C 40.150 105.950,39.923 106.206,39.923 106.817 C 39.923 107.294,39.578 107.901,39.155 108.164 C 38.733 108.428,38.388 108.988,38.388 109.408 C 38.388 109.829,38.042 110.518,37.620 110.940 C 37.198 111.363,36.852 112.054,36.852 112.476 C 36.852 112.898,36.507 113.589,36.084 114.012 C 35.662 114.434,35.317 115.184,35.317 115.679 C 35.317 116.175,34.971 116.892,34.549 117.274 C 34.035 117.740,33.781 118.457,33.781 119.445 C 33.781 120.665,33.648 120.921,33.013 120.921 C 32.374 120.921,32.246 121.177,32.246 122.457 C 32.246 123.736,32.118 123.992,31.478 123.992 C 30.828 123.992,30.710 124.248,30.710 125.660 C 30.710 126.841,30.486 127.531,29.942 128.023 C 29.501 128.422,29.175 129.205,29.175 129.864 C 29.175 130.494,28.893 131.215,28.549 131.467 C 28.166 131.747,27.849 132.696,27.732 133.909 C 27.604 135.242,27.369 135.893,27.014 135.893 C 26.631 135.893,26.488 136.475,26.488 138.040 C 26.488 139.864,26.372 140.217,25.720 140.388 C 25.066 140.559,24.952 140.911,24.952 142.755 C 24.952 144.505,24.805 145.013,24.184 145.400 C 23.545 145.800,23.417 146.296,23.417 148.372 C 23.417 150.352,23.259 151.021,22.649 151.631 C 22.016 152.264,21.881 152.911,21.881 155.314 C 21.881 157.906,21.796 158.252,21.113 158.430 C 20.414 158.613,20.345 158.954,20.345 162.268 C 20.345 165.325,20.223 166.062,19.578 166.882 C 18.886 167.762,18.810 168.439,18.810 173.756 C 18.810 178.522,18.708 179.655,18.279 179.655 C 17.371 179.655,17.285 180.988,17.285 195.010 C 17.285 209.031,17.371 210.365,18.279 210.365 C 18.708 210.365,18.810 211.497,18.810 216.263 C 18.810 221.580,18.886 222.258,19.578 223.137 C 20.223 223.957,20.345 224.695,20.345 227.751 C 20.345 231.066,20.414 231.406,21.113 231.589 C 21.806 231.770,21.881 232.113,21.881 235.086 C 21.881 237.965,21.978 238.442,22.649 238.861 C 23.283 239.257,23.417 239.756,23.417 241.740 C 23.417 243.724,23.550 244.222,24.184 244.619 C 24.808 245.008,24.952 245.514,24.952 247.309 C 24.952 249.264,25.041 249.520,25.720 249.520 C 26.402 249.520,26.488 249.776,26.488 251.823 C 26.488 253.615,26.615 254.127,27.063 254.127 C 27.490 254.127,27.639 254.575,27.639 255.854 C 27.639 257.070,27.867 257.809,28.407 258.349 C 28.829 258.772,29.175 259.612,29.175 260.217 C 29.175 260.822,29.520 261.756,29.942 262.293 C 30.365 262.830,30.710 263.819,30.710 264.492 C 30.710 265.392,30.913 265.768,31.478 265.916 C 32.079 266.073,32.246 266.439,32.246 267.607 C 32.246 268.842,32.377 269.098,33.013 269.098 C 33.637 269.098,33.781 269.354,33.781 270.458 C 33.781 271.287,34.081 272.139,34.549 272.641 C 34.971 273.094,35.317 273.850,35.317 274.321 C 35.317 275.578,35.710 276.392,36.317 276.392 C 36.632 276.392,36.852 276.787,36.852 277.351 C 36.852 277.879,37.198 278.656,37.620 279.079 C 38.042 279.501,38.388 280.106,38.388 280.422 C 38.388 280.739,38.733 281.344,39.155 281.766 C 39.578 282.188,39.923 282.879,39.923 283.301 C 39.923 283.813,40.179 284.069,40.691 284.069 C 41.331 284.069,41.459 284.325,41.459 285.605 C 41.459 286.659,41.626 287.140,41.992 287.140 C 42.296 287.140,42.632 287.712,42.775 288.473 C 42.913 289.206,43.247 289.941,43.518 290.105 C 43.790 290.269,44.123 290.705,44.259 291.075 C 44.395 291.444,44.770 291.747,45.094 291.747 C 45.490 291.747,45.681 292.120,45.681 292.895 C 45.681 293.628,45.959 294.217,46.449 294.523 C 46.871 294.787,47.217 295.193,47.217 295.426 C 47.217 295.660,47.562 296.163,47.985 296.545 C 48.407 296.927,48.752 297.645,48.752 298.140 C 48.752 298.784,48.971 299.040,49.520 299.040 C 50.032 299.040,50.288 299.296,50.288 299.808 C 50.288 300.320,50.544 300.576,51.056 300.576 C 51.681 300.576,51.823 300.832,51.823 301.955 C 51.823 303.012,52.003 303.382,52.591 303.536 C 53.016 303.647,53.359 304.059,53.359 304.459 C 53.359 304.926,53.631 305.182,54.127 305.182 C 54.617 305.182,54.894 305.438,54.894 305.891 C 54.894 306.280,55.240 306.912,55.662 307.294 C 56.084 307.676,56.430 308.226,56.430 308.517 C 56.430 308.807,56.689 309.145,57.006 309.266 C 57.322 309.388,57.582 309.685,57.582 309.927 C 57.582 310.474,59.665 312.476,60.234 312.476 C 60.464 312.476,60.653 312.821,60.653 313.244 C 60.653 313.756,60.909 314.012,61.420 314.012 C 61.894 314.012,62.190 314.269,62.193 314.683 C 62.196 315.053,62.886 316.097,63.728 317.003 C 64.570 317.910,65.259 318.815,65.259 319.015 C 65.259 319.216,65.605 319.595,66.027 319.859 C 66.449 320.122,66.795 320.544,66.795 320.796 C 66.795 321.048,67.140 321.363,67.562 321.497 C 67.985 321.631,68.330 321.977,68.330 322.265 C 68.330 322.553,68.676 322.899,69.098 323.033 C 69.520 323.167,69.866 323.512,69.866 323.800 C 69.866 324.089,70.211 324.434,70.633 324.568 C 71.056 324.702,71.401 325.039,71.401 325.317 C 71.401 325.595,71.747 325.913,72.169 326.023 C 72.591 326.133,72.937 326.499,72.937 326.835 C 72.937 327.172,73.190 327.447,73.499 327.447 C 73.808 327.447,74.246 327.793,74.472 328.215 C 74.698 328.637,75.136 328.983,75.445 328.983 C 75.755 328.983,76.008 329.246,76.008 329.568 C 76.008 329.890,76.403 330.304,76.887 330.488 C 77.371 330.672,77.997 331.099,78.278 331.438 C 78.559 331.777,79.113 332.054,79.510 332.054 C 79.974 332.054,80.230 332.326,80.230 332.821 C 80.230 333.333,80.486 333.589,80.998 333.589 C 81.510 333.589,81.766 333.845,81.766 334.357 C 81.766 334.869,82.022 335.125,82.534 335.125 C 83.045 335.125,83.301 335.381,83.301 335.893 C 83.301 336.389,83.557 336.660,84.024 336.660 C 84.424 336.660,84.837 337.003,84.948 337.428 C 85.062 337.863,85.472 338.196,85.893 338.196 C 86.302 338.196,86.950 338.541,87.332 338.964 C 87.714 339.386,88.259 339.731,88.543 339.731 C 88.827 339.731,89.060 339.996,89.060 340.319 C 89.060 340.642,89.362 341.020,89.731 341.158 C 90.101 341.295,90.629 341.722,90.905 342.105 C 91.181 342.489,91.582 342.802,91.796 342.802 C 92.010 342.802,92.444 343.061,92.761 343.378 C 93.078 343.695,93.757 343.954,94.269 343.954 C 94.946 343.954,95.202 344.165,95.202 344.722 C 95.202 345.218,95.457 345.489,95.925 345.489 C 96.325 345.489,96.737 345.832,96.848 346.257 C 97.002 346.845,97.372 347.025,98.429 347.025 C 99.552 347.025,99.808 347.167,99.808 347.793 C 99.808 348.270,100.064 348.560,100.483 348.560 C 100.855 348.560,101.375 348.906,101.638 349.328 C 101.902 349.750,102.528 350.096,103.029 350.096 C 103.618 350.096,104.012 350.368,104.142 350.864 C 104.294 351.446,104.666 351.631,105.677 351.631 C 106.689 351.631,107.061 351.817,107.213 352.399 C 107.333 352.859,107.737 353.167,108.217 353.167 C 108.665 353.167,109.021 353.415,109.021 353.725 C 109.021 354.060,109.560 354.385,110.365 354.536 C 111.128 354.679,111.708 355.016,111.708 355.316 C 111.708 355.636,112.315 355.942,113.244 356.091 C 114.097 356.227,114.779 356.552,114.779 356.822 C 114.779 357.389,115.627 357.774,116.877 357.774 C 117.438 357.774,117.834 358.054,117.962 358.541 C 118.115 359.130,118.485 359.309,119.547 359.309 C 120.309 359.309,121.255 359.511,121.651 359.758 C 122.588 360.343,124.646 358.834,124.996 357.305 C 125.128 356.731,125.560 356.158,125.957 356.032 C 126.355 355.906,126.679 355.555,126.679 355.252 C 126.679 354.950,127.025 354.357,127.447 353.935 C 127.869 353.512,128.215 352.821,128.215 352.399 C 128.215 351.887,128.471 351.631,128.983 351.631 C 129.495 351.631,129.750 351.376,129.750 350.864 C 129.750 350.437,130.006 350.096,130.326 350.096 C 130.646 350.096,130.902 349.755,130.902 349.328 C 130.902 348.816,131.158 348.560,131.670 348.560 C 132.166 348.560,132.438 348.305,132.438 347.837 C 132.438 347.437,132.780 347.025,133.205 346.914 C 133.793 346.760,133.973 346.390,133.973 345.333 C 133.973 344.210,134.116 343.954,134.741 343.954 C 135.253 343.954,135.509 343.698,135.509 343.186 C 135.509 342.764,135.749 342.418,136.043 342.418 C 136.622 342.418,137.044 341.615,137.044 340.512 C 137.044 340.132,137.390 339.730,137.812 339.620 C 138.394 339.468,138.580 339.096,138.580 338.085 C 138.580 337.073,138.765 336.701,139.347 336.549 C 139.935 336.395,140.115 336.025,140.115 334.969 C 140.115 333.845,140.258 333.589,140.883 333.589 C 141.519 333.589,141.651 333.333,141.651 332.099 C 141.651 330.931,141.817 330.564,142.418 330.407 C 142.961 330.265,143.186 329.883,143.186 329.104 C 143.186 328.477,143.517 327.718,143.954 327.344 C 144.376 326.983,144.722 326.237,144.722 325.688 C 144.722 325.139,145.067 324.250,145.489 323.713 C 145.912 323.176,146.257 322.156,146.257 321.445 C 146.257 320.553,146.435 320.154,146.833 320.154 C 147.243 320.154,147.409 319.737,147.409 318.710 C 147.409 317.683,147.630 317.129,148.177 316.788 C 148.778 316.412,148.944 315.893,148.944 314.392 C 148.944 312.732,149.047 312.476,149.712 312.476 C 150.386 312.476,150.480 312.220,150.480 310.391 C 150.480 308.642,150.604 308.266,151.248 308.061 C 151.891 307.857,152.015 307.481,152.015 305.732 C 152.015 303.903,152.110 303.647,152.783 303.647 C 153.458 303.647,153.551 303.391,153.551 301.536 C 153.551 299.936,153.737 299.238,154.319 298.656 C 154.929 298.046,155.086 297.377,155.086 295.393 C 155.086 293.517,155.219 292.898,155.621 292.898 C 156.373 292.898,156.622 292.032,156.622 289.412 C 156.622 287.726,156.760 287.140,157.157 287.140 C 157.852 287.140,158.157 286.295,158.157 284.368 C 158.157 283.371,158.383 282.645,158.783 282.352 C 159.161 282.076,159.483 281.133,159.594 279.975 L 159.778 278.056 164.668 278.232 C 169.370 278.402,172.361 277.988,172.361 277.167 C 172.361 276.992,174.016 276.790,176.039 276.717 C 178.997 276.610,179.813 276.452,180.208 275.912 C 180.567 275.420,181.237 275.240,182.708 275.240 C 184.394 275.240,184.749 275.117,184.918 274.472 C 185.087 273.826,185.441 273.704,187.159 273.704 C 188.863 273.704,189.240 273.578,189.443 272.937 C 189.621 272.377,190.024 272.169,190.932 272.169 C 191.647 272.169,192.529 271.842,193.002 271.401 C 193.455 270.979,194.152 270.633,194.550 270.633 C 194.949 270.633,195.587 270.288,195.969 269.866 C 196.351 269.443,197.069 269.098,197.564 269.098 C 198.209 269.098,198.464 268.880,198.464 268.330 C 198.464 267.840,198.720 267.562,199.173 267.562 C 199.562 267.562,200.194 267.217,200.576 266.795 C 200.958 266.372,201.486 266.027,201.749 266.027 C 202.012 266.027,202.586 265.465,203.024 264.779 C 203.463 264.093,204.041 263.189,204.310 262.770 C 204.579 262.351,205.101 261.779,205.470 261.500 C 207.415 260.031,205.793 254.127,203.445 254.127 C 202.998 254.127,202.373 253.868,202.056 253.551 C 201.241 252.736,196.229 252.736,195.916 253.551 C 195.749 253.987,195.043 254.127,193.012 254.127 C 191.017 254.127,190.068 254.310,189.311 254.841 C 188.750 255.234,187.445 255.648,186.410 255.760 C 185.249 255.887,184.397 256.201,184.184 256.581 C 183.958 256.985,183.316 257.198,182.323 257.198 C 181.062 257.198,180.806 257.327,180.806 257.965 C 180.806 258.605,180.550 258.733,179.271 258.733 C 177.991 258.733,177.735 258.861,177.735 259.501 C 177.735 260.141,177.479 260.269,176.200 260.269 C 174.920 260.269,174.664 260.397,174.664 261.036 C 174.664 261.676,174.408 261.804,173.129 261.804 C 171.849 261.804,171.593 261.932,171.593 262.572 C 171.593 263.197,171.337 263.340,170.214 263.340 C 169.157 263.340,168.787 263.519,168.633 264.107 C 168.481 264.690,168.110 264.875,167.098 264.875 C 166.086 264.875,165.714 265.061,165.562 265.643 C 165.260 266.800,163.916 266.643,163.916 265.451 C 163.916 264.747,164.120 264.491,164.683 264.491 C 165.356 264.491,165.451 264.235,165.451 262.425 C 165.451 260.681,165.571 260.327,166.219 260.157 C 166.794 260.007,166.987 259.634,166.987 258.670 C 166.987 257.798,167.235 257.228,167.754 256.903 C 168.273 256.579,168.522 256.008,168.522 255.143 C 168.522 254.349,168.814 253.597,169.290 253.167 C 169.804 252.702,170.058 251.985,170.058 250.996 C 170.058 249.776,170.191 249.520,170.825 249.520 C 171.465 249.520,171.593 249.264,171.593 247.985 C 171.593 246.862,171.751 246.449,172.181 246.449 C 172.504 246.449,172.868 246.190,172.990 245.873 C 173.278 245.122,181.926 245.032,183.105 245.768 C 183.699 246.139,183.957 246.139,184.328 245.768 C 184.658 245.437,186.575 245.296,190.768 245.292 C 197.187 245.287,198.464 245.121,198.464 244.293 C 198.464 243.891,199.125 243.762,201.188 243.762 C 203.588 243.762,203.934 243.671,204.111 242.994 C 204.272 242.379,204.635 242.226,205.935 242.226 C 207.071 242.226,207.767 241.996,208.253 241.459 C 208.636 241.036,209.353 240.691,209.848 240.691 C 210.343 240.691,211.094 240.345,211.516 239.923 C 211.939 239.501,212.543 239.155,212.860 239.155 C 213.180 239.155,213.436 238.814,213.436 238.388 C 213.436 237.762,213.692 237.620,214.815 237.620 C 215.872 237.620,216.242 237.440,216.395 236.852 C 216.507 236.427,216.919 236.084,217.319 236.084 C 217.786 236.084,218.042 235.813,218.042 235.317 C 218.042 234.805,218.298 234.549,218.810 234.549 C 219.322 234.549,219.578 234.293,219.578 233.781 C 219.578 233.269,219.834 233.013,220.345 233.013 C 221.020 233.013,221.113 232.758,221.113 230.902 C 221.113 227.700,220.490 227.255,216.003 227.255 C 212.959 227.255,212.307 227.369,211.605 228.023 C 210.881 228.698,210.250 228.791,206.402 228.791 C 202.691 228.791,201.882 228.901,201.102 229.515 C 200.398 230.069,199.382 230.273,196.800 230.379 C 194.074 230.491,193.347 230.648,193.044 231.190 C 192.738 231.737,192.131 231.862,189.772 231.862 C 187.199 231.862,186.854 231.947,186.676 232.630 C 186.499 233.305,186.152 233.397,183.796 233.397 C 181.441 233.397,181.094 233.490,180.917 234.165 C 180.750 234.804,180.418 234.924,178.938 234.881 C 177.960 234.852,177.548 234.753,178.023 234.662 C 178.715 234.529,178.887 234.238,178.887 233.205 C 178.887 232.251,179.087 231.850,179.655 231.670 C 180.219 231.491,180.422 231.089,180.422 230.153 C 180.422 229.203,180.617 228.829,181.190 228.680 C 181.625 228.566,181.958 228.156,181.958 227.735 C 181.958 227.325,182.303 226.678,182.726 226.296 C 183.148 225.913,183.493 225.324,183.493 224.985 C 183.493 224.646,183.839 224.153,184.261 223.889 C 184.751 223.584,185.029 222.994,185.029 222.262 C 185.029 221.369,185.200 221.113,185.797 221.113 C 186.346 221.113,186.564 220.857,186.564 220.213 C 186.564 219.718,186.910 219.000,187.332 218.618 C 187.754 218.236,188.100 217.625,188.100 217.260 C 188.100 216.895,188.445 216.506,188.868 216.395 C 189.308 216.280,189.635 215.872,189.635 215.438 C 189.635 213.945,190.455 213.766,197.634 213.696 C 203.452 213.638,204.638 213.528,205.238 212.990 C 205.786 212.499,206.908 212.322,210.104 212.222 C 213.576 212.113,214.320 211.982,214.634 211.420 C 214.917 210.913,215.504 210.749,217.029 210.749 C 218.518 210.749,219.266 210.547,219.873 209.981 C 220.415 209.476,221.228 209.213,222.249 209.213 C 223.544 209.213,223.800 209.086,223.800 208.445 C 223.800 207.780,224.056 207.678,225.717 207.678 C 227.217 207.678,227.737 207.511,228.112 206.910 C 228.437 206.390,229.007 206.142,229.879 206.142 C 230.843 206.142,231.216 205.949,231.367 205.374 C 231.517 204.801,231.890 204.607,232.840 204.607 C 233.776 204.607,234.178 204.403,234.357 203.839 C 234.491 203.417,234.933 203.071,235.339 203.071 C 235.746 203.071,236.294 202.726,236.557 202.303 C 236.821 201.881,237.427 201.536,237.904 201.536 C 238.516 201.536,238.772 201.309,238.772 200.768 C 238.772 200.211,239.028 200.000,239.705 200.000 C 240.792 200.000,243.338 198.481,243.362 197.819 C 243.371 197.569,243.724 197.255,244.146 197.121 C 245.262 196.767,245.303 192.706,244.191 192.706 C 243.791 192.706,243.378 192.363,243.267 191.939 C 242.907 190.564,227.639 190.957,227.639 192.341 C 227.639 192.547,226.009 192.709,223.896 192.712 C 219.667 192.717,218.426 192.944,218.426 193.711 C 218.426 194.116,217.737 194.242,215.511 194.242 C 212.919 194.242,212.574 194.327,212.395 195.010 C 212.223 195.668,211.872 195.777,209.936 195.777 C 207.968 195.777,207.678 195.872,207.678 196.511 C 207.678 197.137,207.341 197.264,205.374 197.375 C 204.106 197.446,203.070 197.462,203.070 197.409 C 203.071 197.356,203.417 196.967,203.839 196.545 C 204.261 196.123,204.607 195.452,204.607 195.054 C 204.607 194.654,204.949 194.242,205.374 194.131 C 205.797 194.020,206.142 193.675,206.142 193.363 C 206.142 193.051,206.488 192.706,206.910 192.595 C 207.332 192.485,207.678 192.119,207.678 191.783 C 207.678 191.446,207.937 191.171,208.253 191.171 C 208.573 191.171,208.829 190.830,208.829 190.403 C 208.829 189.891,209.085 189.635,209.597 189.635 C 210.109 189.635,210.365 189.379,210.365 188.868 C 210.365 188.356,210.621 188.100,211.132 188.100 C 211.628 188.100,211.900 187.844,211.900 187.377 C 211.900 186.977,212.243 186.564,212.668 186.453 C 213.090 186.343,213.436 185.977,213.436 185.641 C 213.436 185.304,213.700 185.029,214.024 185.029 C 214.347 185.029,214.722 184.740,214.858 184.386 C 214.994 184.033,215.759 183.090,216.558 182.290 L 218.012 180.837 230.338 180.726 C 241.611 180.624,242.697 180.557,243.041 179.942 C 243.323 179.438,243.914 179.269,245.413 179.265 C 247.948 179.259,249.136 178.940,249.136 178.266 C 249.136 177.894,249.644 177.735,250.832 177.735 C 252.893 177.735,253.743 177.443,253.743 176.734 C 253.743 176.366,254.222 176.200,255.278 176.200 C 256.558 176.200,256.814 176.072,256.814 175.432 C 256.814 174.792,257.070 174.664,258.349 174.664 C 259.373 174.664,260.141 174.408,260.653 173.896 C 261.075 173.474,261.739 173.129,262.129 173.129 C 262.518 173.129,263.150 172.783,263.532 172.361 C 263.914 171.939,264.632 171.593,265.127 171.593 C 265.771 171.593,266.027 171.375,266.027 170.825 C 266.027 170.207,266.283 170.058,267.345 170.058 C 268.325 170.058,268.725 169.861,268.906 169.290 C 269.040 168.868,269.397 168.522,269.700 168.522 C 270.110 168.522,270.250 167.987,270.250 166.411 C 270.250 164.869,270.106 164.299,269.718 164.299 C 269.426 164.299,269.095 163.944,268.981 163.511 C 268.686 162.383,252.027 162.494,251.393 163.628 C 251.065 164.214,250.380 164.299,246.010 164.299 C 241.326 164.299,240.990 164.349,240.802 165.067 C 240.636 165.703,240.279 165.835,238.724 165.835 C 236.484 165.835,236.734 164.500,239.056 164.065 C 239.755 163.934,240.307 163.595,240.307 163.297 C 240.307 163.004,240.626 162.764,241.015 162.764 C 241.405 162.764,242.036 162.418,242.418 161.996 C 242.801 161.574,243.518 161.228,244.013 161.228 C 244.658 161.228,244.914 161.010,244.914 160.461 C 244.914 159.835,245.170 159.693,246.293 159.693 C 247.350 159.693,247.720 159.513,247.873 158.925 C 247.984 158.503,248.385 158.157,248.766 158.157 C 249.868 158.157,250.672 157.735,250.672 157.157 C 250.672 156.863,251.033 156.622,251.475 156.622 C 251.956 156.622,252.360 156.313,252.480 155.854 C 252.631 155.277,253.004 155.086,253.980 155.086 C 255.022 155.086,255.278 154.935,255.278 154.319 C 255.278 153.679,255.534 153.551,256.814 153.551 C 258.093 153.551,258.349 153.423,258.349 152.783 C 258.349 152.184,258.605 152.015,259.513 152.015 C 260.193 152.015,260.768 151.776,260.898 151.440 C 261.019 151.123,261.462 150.864,261.881 150.864 C 262.321 150.864,262.729 150.539,262.845 150.096 C 262.973 149.604,263.368 149.328,263.945 149.328 C 264.440 149.328,265.154 149.010,265.532 148.622 C 265.910 148.233,266.521 147.807,266.891 147.674 C 267.260 147.542,267.562 147.168,267.562 146.845 C 267.562 146.444,267.939 146.257,268.750 146.257 C 269.615 146.257,269.992 146.048,270.138 145.489 C 270.249 145.065,270.662 144.722,271.062 144.722 C 271.529 144.722,271.785 144.450,271.785 143.954 C 271.785 143.357,272.041 143.186,272.933 143.186 C 273.666 143.186,274.255 142.908,274.561 142.418 C 274.825 141.996,275.345 141.651,275.716 141.651 C 276.136 141.651,276.392 141.360,276.392 140.883 C 276.392 140.371,276.647 140.115,277.159 140.115 C 277.671 140.115,277.927 139.859,277.927 139.347 C 277.927 138.836,278.183 138.580,278.695 138.580 C 279.207 138.580,279.463 138.324,279.463 137.812 C 279.463 137.390,279.714 137.044,280.021 137.044 C 280.654 137.044,283.325 135.317,283.767 134.622 C 284.165 133.996,284.135 129.297,283.729 128.656 C 283.196 127.816,276.077 128.185,275.577 129.079 C 275.290 129.593,274.701 129.750,273.074 129.750 C 271.313 129.750,270.913 129.875,270.757 130.473 C 270.612 131.025,270.109 131.239,268.617 131.382 C 267.432 131.496,266.486 131.815,266.208 132.196 C 265.948 132.551,265.214 132.821,264.509 132.821 C 263.591 132.821,263.216 133.021,263.067 133.589 C 262.918 134.159,262.543 134.357,261.612 134.357 C 260.681 134.357,260.307 134.555,260.157 135.125 C 260.010 135.690,259.634 135.893,258.733 135.893 C 257.833 135.893,257.457 136.095,257.309 136.660 C 257.198 137.085,256.785 137.428,256.385 137.428 C 255.918 137.428,255.662 137.700,255.662 138.196 C 255.662 138.836,255.406 138.964,254.127 138.964 C 253.018 138.964,252.591 139.123,252.591 139.539 C 252.591 139.859,252.250 140.115,251.823 140.115 C 251.312 140.115,251.056 140.371,251.056 140.883 C 251.056 141.446,250.800 141.651,250.096 141.651 C 249.568 141.651,248.821 141.966,248.435 142.352 C 248.050 142.737,247.445 143.164,247.092 143.299 C 246.738 143.435,246.449 143.811,246.449 144.134 C 246.449 144.466,246.115 144.722,245.681 144.722 C 245.259 144.722,244.568 145.067,244.146 145.489 C 243.724 145.912,243.119 146.257,242.802 146.257 C 242.482 146.257,242.226 146.598,242.226 147.025 C 242.226 147.537,241.971 147.793,241.459 147.793 C 240.947 147.793,240.691 148.049,240.691 148.560 C 240.691 149.072,240.435 149.328,239.923 149.328 C 239.411 149.328,239.155 149.584,239.155 150.096 C 239.155 150.690,238.900 150.864,238.026 150.864 C 237.374 150.864,236.683 151.159,236.394 151.561 C 235.542 152.745,234.549 152.904,234.549 151.856 C 234.549 151.276,234.823 150.881,235.317 150.752 C 235.820 150.621,236.084 150.229,236.084 149.616 C 236.084 149.101,236.430 148.367,236.852 147.985 C 237.328 147.554,237.620 146.802,237.620 146.006 C 237.620 145.120,237.799 144.722,238.196 144.722 C 238.612 144.722,238.772 144.295,238.772 143.186 C 238.772 141.907,238.900 141.651,239.539 141.651 C 240.179 141.651,240.307 141.395,240.307 140.115 C 240.307 139.091,240.563 138.324,241.075 137.812 C 241.654 137.233,241.843 136.532,241.843 134.959 C 241.843 133.210,241.967 132.834,242.610 132.630 C 243.284 132.416,243.378 132.049,243.378 129.625 C 243.378 127.280,243.494 126.792,244.146 126.385 C 245.037 125.828,245.261 122.190,244.453 121.382 C 243.591 120.520,237.970 120.777,237.731 121.689 C 237.621 122.111,237.275 122.457,236.963 122.457 C 236.652 122.457,236.306 122.802,236.196 123.225 C 236.085 123.647,235.768 123.992,235.490 123.992 C 235.212 123.992,234.862 124.381,234.712 124.856 C 234.562 125.331,234.118 125.999,233.726 126.341 C 233.334 126.682,233.013 127.243,233.013 127.588 C 233.013 127.959,232.700 128.215,232.246 128.215 C 231.734 128.215,231.478 128.471,231.478 128.983 C 231.478 129.429,231.222 129.750,230.866 129.750 C 230.530 129.750,230.164 130.096,230.054 130.518 C 229.943 130.940,229.626 131.286,229.348 131.286 C 229.070 131.286,228.727 131.649,228.587 132.092 C 228.446 132.535,228.003 133.226,227.601 133.627 C 227.200 134.029,226.871 134.702,226.871 135.125 C 226.871 135.551,226.615 135.893,226.296 135.893 C 225.979 135.893,225.720 136.218,225.720 136.615 C 225.720 137.016,225.377 137.428,224.952 137.539 C 224.401 137.683,224.184 138.063,224.184 138.883 C 224.184 139.703,223.967 140.082,223.417 140.226 C 222.957 140.347,222.649 140.750,222.649 141.231 C 222.649 141.673,222.408 142.035,222.114 142.035 C 221.535 142.035,221.113 142.838,221.113 143.941 C 221.113 144.321,220.768 144.722,220.345 144.833 C 219.763 144.985,219.578 145.357,219.578 146.368 C 219.578 147.380,219.392 147.752,218.810 147.904 C 218.228 148.056,218.042 148.428,218.042 149.439 C 218.042 150.451,217.857 150.823,217.274 150.975 C 216.686 151.129,216.507 151.499,216.507 152.555 C 216.507 153.470,216.329 153.935,215.979 153.935 C 215.464 153.935,214.971 155.509,214.971 157.153 C 214.971 157.604,214.626 158.188,214.203 158.452 C 213.671 158.785,213.436 159.347,213.436 160.288 C 213.436 161.114,213.135 161.967,212.668 162.468 C 212.097 163.081,211.900 163.823,211.900 165.359 C 211.900 166.684,211.694 167.632,211.324 168.001 C 210.891 168.435,210.749 169.507,210.749 172.343 C 210.749 175.787,210.683 176.127,209.981 176.311 C 209.559 176.421,209.213 176.767,209.213 177.079 C 209.213 177.390,208.868 177.736,208.445 177.846 C 208.023 177.957,207.678 178.311,207.678 178.633 C 207.678 178.955,207.332 179.329,206.910 179.463 C 206.488 179.597,206.142 179.912,206.142 180.164 C 206.142 180.416,205.797 180.837,205.374 181.101 C 204.952 181.365,204.607 181.811,204.607 182.093 C 204.607 182.376,204.261 182.919,203.839 183.301 C 203.417 183.683,203.071 184.315,203.071 184.704 C 203.071 185.157,202.794 185.413,202.303 185.413 C 201.791 185.413,201.536 185.669,201.536 186.180 C 201.536 186.692,201.280 186.948,200.768 186.948 C 200.345 186.948,200.000 187.187,200.000 187.479 C 200.000 187.771,199.655 188.101,199.232 188.211 C 198.553 188.389,198.464 188.223,198.464 186.765 C 198.464 185.441,198.615 185.079,199.232 184.918 C 199.942 184.732,200.000 184.394,200.000 180.458 C 200.000 176.711,200.092 176.107,200.768 175.432 C 201.493 174.706,201.536 174.152,201.536 165.311 C 201.536 156.539,201.488 155.897,200.768 154.982 C 200.191 154.248,200.000 153.424,200.000 151.667 L 200.000 149.328 197.121 149.328 C 194.498 149.328,194.242 149.396,194.242 150.096 C 194.242 150.608,193.986 150.864,193.474 150.864 C 192.962 150.864,192.706 151.120,192.706 151.631 C 192.706 152.143,192.450 152.399,191.939 152.399 C 191.462 152.399,191.171 152.655,191.171 153.075 C 191.171 153.446,190.825 153.966,190.403 154.230 C 189.978 154.495,189.635 155.125,189.635 155.640 C 189.635 156.233,189.357 156.658,188.868 156.814 C 188.296 156.995,188.100 157.395,188.100 158.375 C 188.100 159.181,187.802 159.991,187.332 160.461 C 186.735 161.058,186.564 161.740,186.564 163.532 C 186.564 165.323,186.394 166.006,185.797 166.603 C 185.077 167.323,185.029 167.882,185.029 175.577 C 185.029 182.403,184.932 183.864,184.453 184.261 C 183.616 184.956,183.616 193.926,184.453 194.763 C 185.294 195.604,185.310 208.061,184.470 208.061 C 184.136 208.061,183.811 208.601,183.660 209.405 C 183.513 210.188,183.181 210.749,182.865 210.749 C 182.567 210.749,182.158 211.180,181.958 211.708 C 181.757 212.236,181.416 212.668,181.200 212.668 C 180.983 212.668,180.806 213.273,180.806 214.012 C 180.806 215.099,180.660 215.355,180.038 215.355 C 179.399 215.355,179.271 215.611,179.271 216.891 C 179.271 218.170,179.143 218.426,178.503 218.426 C 178.007 218.426,177.735 218.682,177.735 219.149 C 177.735 219.547,177.414 219.956,177.022 220.058 C 176.369 220.229,176.291 219.891,176.085 215.988 C 175.920 212.871,175.708 211.619,175.292 211.315 C 174.845 210.988,174.696 209.686,174.598 205.226 C 174.490 200.357,174.377 199.483,173.800 199.062 C 173.249 198.660,173.129 197.969,173.129 195.219 C 173.129 192.190,173.055 191.847,172.361 191.666 C 171.755 191.508,171.593 191.142,171.593 189.938 C 171.593 188.809,171.418 188.365,170.921 188.231 C 170.552 188.131,169.990 187.499,169.674 186.827 C 168.922 185.232,162.764 184.642,162.764 186.165 C 162.764 186.692,162.513 186.948,161.996 186.948 C 161.371 186.948,161.228 187.204,161.228 188.328 C 161.228 189.384,161.049 189.754,160.461 189.908 C 159.268 190.220,159.268 209.721,160.461 211.237 C 161.156 212.121,161.228 212.794,161.228 218.394 C 161.228 224.101,161.287 224.626,161.996 225.233 C 162.662 225.803,162.764 226.365,162.764 229.452 C 162.764 232.502,162.874 233.124,163.532 233.781 C 164.161 234.410,164.299 235.061,164.299 237.387 C 164.299 239.556,164.435 240.277,164.875 240.446 C 165.255 240.592,165.451 241.193,165.451 242.214 C 165.451 243.334,165.292 243.762,164.875 243.762 C 164.462 243.762,164.299 244.184,164.299 245.253 C 164.299 246.421,164.133 246.787,163.532 246.944 C 162.944 247.098,162.764 247.468,162.764 248.525 C 162.764 249.392,162.479 250.189,161.996 250.672 C 161.492 251.176,161.228 251.951,161.228 252.930 C 161.228 254.098,161.062 254.464,160.461 254.622 C 159.867 254.777,159.687 255.157,159.669 256.298 C 159.648 257.569,159.596 257.654,159.297 256.910 C 159.106 256.435,158.794 256.046,158.602 256.046 C 158.411 256.046,158.170 255.159,158.066 254.075 C 157.943 252.800,157.655 251.979,157.249 251.752 C 156.853 251.531,156.622 250.901,156.622 250.041 C 156.622 249.003,156.440 248.633,155.854 248.480 C 155.272 248.328,155.086 247.956,155.086 246.944 C 155.086 245.932,154.901 245.561,154.319 245.409 C 153.737 245.257,153.551 244.885,153.551 243.873 C 153.551 242.861,153.365 242.490,152.783 242.338 C 152.210 242.188,152.015 241.814,152.015 240.864 C 152.015 239.928,151.812 239.527,151.248 239.347 C 150.680 239.167,150.480 238.767,150.480 237.812 C 150.480 236.857,150.279 236.456,149.712 236.276 C 149.167 236.103,148.944 235.696,148.944 234.871 C 148.944 234.032,148.731 233.654,148.177 233.509 C 147.752 233.397,147.409 232.985,147.409 232.585 C 147.409 232.187,147.150 231.862,146.833 231.862 C 146.513 231.862,146.257 231.521,146.257 231.094 C 146.257 230.582,146.001 230.326,145.489 230.326 C 144.978 230.326,144.722 230.070,144.722 229.559 C 144.722 229.063,144.466 228.791,143.999 228.791 C 143.599 228.791,143.186 228.448,143.075 228.023 C 142.768 226.849,135.927 226.849,135.620 228.023 C 135.509 228.445,135.180 228.791,134.888 228.791 C 134.079 228.791,134.121 238.097,134.933 238.772 C 135.263 239.046,135.509 239.883,135.509 240.738 C 135.509 241.715,135.773 242.490,136.276 242.994 C 136.699 243.417,137.044 244.196,137.044 244.725 C 137.044 245.255,137.390 245.985,137.812 246.346 C 138.290 246.755,138.580 247.479,138.580 248.262 C 138.580 249.264,138.736 249.520,139.347 249.520 C 139.987 249.520,140.115 249.776,140.115 251.056 C 140.115 252.335,140.243 252.591,140.883 252.591 C 141.523 252.591,141.651 252.847,141.651 254.127 C 141.651 255.406,141.779 255.662,142.418 255.662 C 143.044 255.662,143.186 255.918,143.186 257.042 C 143.186 258.098,143.366 258.468,143.954 258.622 C 144.379 258.733,144.722 259.146,144.722 259.546 C 144.722 260.013,144.993 260.269,145.489 260.269 C 146.111 260.269,146.257 260.525,146.257 261.612 C 146.257 262.586,146.426 262.956,146.869 262.956 C 147.205 262.956,147.571 263.301,147.681 263.724 C 147.793 264.149,148.205 264.491,148.605 264.491 C 149.072 264.491,149.328 264.763,149.328 265.259 C 149.328 265.686,149.584 266.027,149.904 266.027 C 150.224 266.027,150.480 266.368,150.480 266.795 C 150.480 267.291,150.736 267.562,151.203 267.562 C 151.603 267.562,152.015 267.905,152.127 268.330 C 152.237 268.752,152.582 269.098,152.894 269.098 C 153.206 269.098,153.552 269.443,153.662 269.866 C 153.773 270.288,154.138 270.633,154.475 270.633 C 155.294 270.633,155.264 272.031,154.435 272.495 C 153.952 272.766,153.741 273.536,153.617 275.484 C 153.503 277.270,153.258 278.248,152.850 278.547 C 152.441 278.846,152.196 279.825,152.082 281.618 C 151.965 283.453,151.726 284.388,151.293 284.705 C 150.823 285.048,150.638 285.984,150.533 288.545 C 150.448 290.601,150.184 292.231,149.861 292.693 C 149.556 293.128,149.328 294.401,149.328 295.671 C 149.328 298.139,149.269 298.213,148.177 297.121 C 147.701 296.646,146.897 296.353,146.065 296.353 C 145.234 296.353,144.429 296.061,143.954 295.585 C 143.442 295.074,142.674 294.818,141.651 294.818 C 140.371 294.818,140.115 294.690,140.115 294.050 C 140.115 293.410,139.859 293.282,138.580 293.282 C 137.300 293.282,137.044 293.154,137.044 292.514 C 137.044 292.003,136.788 291.747,136.276 291.747 C 135.854 291.747,135.163 291.401,134.741 290.979 C 134.319 290.557,133.628 290.211,133.205 290.211 C 132.694 290.211,132.438 289.955,132.438 289.443 C 132.438 288.880,132.182 288.676,131.478 288.676 C 130.950 288.676,130.518 288.532,130.518 288.357 C 130.518 288.181,130.043 287.792,129.463 287.493 C 128.882 287.193,128.181 286.646,127.905 286.276 C 127.542 285.790,126.855 285.602,125.410 285.596 C 124.025 285.590,123.124 285.359,122.457 284.837 C 121.929 284.424,120.936 284.082,120.250 284.078 C 119.400 284.072,119.002 283.885,119.002 283.493 C 119.002 283.173,118.661 282.917,118.234 282.917 C 117.812 282.917,117.121 282.572,116.699 282.150 C 116.276 281.727,115.672 281.382,115.355 281.382 C 115.035 281.382,114.779 281.041,114.779 280.614 C 114.779 280.118,114.523 279.846,114.056 279.846 C 113.656 279.846,113.244 279.504,113.133 279.079 C 113.022 278.656,112.656 278.311,112.320 278.311 C 111.964 278.311,111.708 277.990,111.708 277.543 C 111.708 277.031,111.452 276.775,110.940 276.775 C 110.315 276.775,110.173 276.520,110.173 275.396 C 110.173 274.339,109.993 273.969,109.405 273.816 C 108.983 273.705,108.637 273.304,108.637 272.923 C 108.637 271.821,108.215 271.017,107.636 271.017 C 107.279 271.017,107.102 270.561,107.102 269.638 C 107.102 268.581,106.922 268.211,106.334 268.057 C 105.741 267.902,105.566 267.534,105.566 266.438 C 105.566 265.551,105.279 264.712,104.798 264.196 C 104.293 263.654,104.031 262.841,104.031 261.820 C 104.031 260.525,103.904 260.269,103.263 260.269 C 102.628 260.269,102.495 260.013,102.495 258.793 C 102.495 257.804,102.242 257.087,101.727 256.622 C 101.256 256.195,100.960 255.440,100.960 254.662 C 100.960 253.966,100.733 253.259,100.455 253.090 C 100.178 252.921,99.784 252.179,99.580 251.440 C 99.252 250.256,99.043 250.082,97.820 249.979 C 96.826 249.896,96.376 249.650,96.236 249.115 C 96.096 248.579,95.707 248.369,94.854 248.369 C 93.922 248.369,93.666 248.203,93.666 247.601 C 93.666 246.965,93.410 246.833,92.175 246.833 C 91.007 246.833,90.641 246.667,90.484 246.065 C 90.373 245.643,90.008 245.298,89.671 245.298 C 89.248 245.298,89.060 244.944,89.060 244.149 C 89.060 243.416,88.782 242.827,88.292 242.521 C 87.784 242.204,87.524 241.626,87.524 240.816 C 87.524 239.928,87.313 239.524,86.756 239.347 C 86.113 239.143,85.988 238.767,85.988 237.018 C 85.988 235.189,85.894 234.933,85.221 234.933 C 84.502 234.933,84.453 234.677,84.453 230.930 C 84.453 228.086,84.303 226.777,83.936 226.409 C 83.652 226.125,83.298 225.249,83.151 224.463 C 82.994 223.628,82.661 223.033,82.350 223.033 C 82.057 223.033,81.711 222.696,81.580 222.285 C 81.450 221.873,80.971 221.418,80.517 221.274 C 80.062 221.130,79.454 220.776,79.165 220.487 C 78.876 220.198,78.259 219.962,77.793 219.962 C 77.327 219.962,76.650 219.616,76.289 219.194 C 75.927 218.772,75.198 218.426,74.668 218.426 C 74.100 218.426,73.704 218.206,73.704 217.891 C 73.704 217.304,72.898 216.891,71.754 216.891 C 71.273 216.891,71.017 216.624,71.017 216.123 C 71.017 215.611,70.761 215.355,70.250 215.355 C 69.738 215.355,69.482 215.099,69.482 214.587 C 69.482 214.161,69.226 213.820,68.906 213.820 C 68.586 213.820,68.330 213.478,68.330 213.052 C 68.330 212.540,68.074 212.284,67.562 212.284 C 67.006 212.284,66.795 212.028,66.795 211.356 C 66.795 210.031,66.413 209.213,65.794 209.213 C 65.444 209.213,65.259 208.772,65.259 207.942 C 65.259 207.223,64.942 206.330,64.529 205.887 C 63.935 205.250,63.774 204.385,63.665 201.248 C 63.561 198.246,63.383 197.227,62.860 196.650 C 62.446 196.193,62.188 195.294,62.188 194.308 L 62.188 192.706 60.653 192.706 L 59.117 192.706 59.117 190.448 C 59.117 188.512,59.227 188.161,59.885 187.989 C 60.473 187.835,60.653 187.465,60.653 186.408 C 60.653 185.485,60.829 185.029,61.187 185.029 C 61.772 185.029,62.188 184.223,62.188 183.092 C 62.188 182.694,62.534 182.184,62.956 181.958 C 63.514 181.659,63.724 181.154,63.724 180.110 C 63.724 179.113,63.959 178.503,64.491 178.119 C 65.659 177.277,65.592 174.031,64.395 173.487 C 63.132 172.912,63.236 156.839,64.506 156.507 C 65.078 156.357,65.259 155.978,65.259 154.930 C 65.259 154.007,65.436 153.551,65.794 153.551 C 66.373 153.551,66.795 152.747,66.795 151.645 C 66.795 151.264,67.140 150.863,67.562 150.752 C 67.985 150.642,68.330 150.295,68.330 149.981 C 68.330 149.667,68.589 149.311,68.906 149.189 C 69.223 149.068,69.482 148.724,69.482 148.425 C 69.482 148.127,69.827 147.792,70.250 147.681 C 70.672 147.571,71.017 147.217,71.017 146.895 C 71.017 146.573,71.363 146.199,71.785 146.065 C 72.207 145.931,72.553 145.668,72.553 145.481 C 72.553 145.022,74.245 143.355,75.010 143.062 C 75.347 142.932,75.624 142.582,75.624 142.283 C 75.624 141.985,75.969 141.650,76.392 141.539 C 76.814 141.429,77.159 141.063,77.159 140.727 C 77.159 140.371,77.480 140.115,77.927 140.115 C 78.439 140.115,78.695 139.859,78.695 139.347 C 78.695 138.836,78.951 138.580,79.463 138.580 C 79.974 138.580,80.230 138.324,80.230 137.812 C 80.230 137.390,80.471 137.044,80.765 137.044 C 81.059 137.044,81.393 136.802,81.507 136.505 C 81.771 135.818,81.397 134.357,80.957 134.357 C 80.773 134.357,80.918 134.012,81.279 133.589 C 81.688 133.111,82.412 132.821,83.195 132.821 C 84.197 132.821,84.453 132.665,84.453 132.054 C 84.453 131.542,84.709 131.286,85.221 131.286 C 85.861 131.286,85.988 131.030,85.988 129.750 C 85.988 128.471,86.116 128.215,86.756 128.215 C 87.306 128.215,87.524 127.959,87.524 127.315 C 87.524 126.820,87.869 126.102,88.292 125.720 C 88.714 125.338,89.060 124.706,89.060 124.317 C 89.060 123.864,89.337 123.608,89.827 123.608 C 90.339 123.608,90.595 123.353,90.595 122.841 C 90.595 122.201,90.851 122.073,92.131 122.073 C 93.410 122.073,93.666 121.945,93.666 121.305 C 93.666 120.623,93.922 120.537,95.969 120.537 C 98.130 120.537,98.273 120.482,98.273 119.637 C 98.273 119.142,98.618 118.424,99.040 118.042 C 99.463 117.660,99.808 117.029,99.808 116.639 C 99.808 116.250,100.067 115.931,100.384 115.931 C 100.701 115.931,100.960 115.672,100.960 115.355 C 100.960 114.894,101.540 114.779,103.875 114.779 C 106.467 114.779,106.812 114.694,106.990 114.012 C 107.160 113.362,107.514 113.244,109.294 113.244 C 111.073 113.244,111.427 113.126,111.597 112.476 C 111.747 111.903,112.121 111.708,113.071 111.708 C 114.007 111.708,114.408 111.505,114.587 110.940 C 114.721 110.518,115.078 110.173,115.381 110.173 C 115.683 110.173,115.931 109.827,115.931 109.405 C 115.931 108.893,116.187 108.637,116.699 108.637 C 117.210 108.637,117.466 108.381,117.466 107.869 C 117.466 107.358,117.722 107.102,118.234 107.102 C 118.746 107.102,119.002 106.846,119.002 106.334 C 119.002 105.822,119.258 105.566,119.770 105.566 C 120.282 105.566,120.537 105.310,120.537 104.798 C 120.537 104.287,120.793 104.031,121.305 104.031 C 121.727 104.031,122.073 103.792,122.073 103.500 C 122.073 103.208,122.418 102.878,122.841 102.768 C 123.263 102.657,123.608 102.292,123.608 101.955 C 123.608 101.619,123.884 101.344,124.220 101.344 C 124.557 101.344,124.922 100.998,125.033 100.576 C 125.144 100.151,125.556 99.808,125.956 99.808 C 126.409 99.808,126.679 99.537,126.679 99.085 C 126.679 98.685,127.022 98.272,127.447 98.161 C 127.869 98.051,128.215 97.705,128.215 97.394 C 128.215 97.082,128.560 96.736,128.983 96.626 C 129.405 96.515,129.750 96.150,129.750 95.813 C 129.750 95.477,130.010 95.202,130.326 95.202 C 130.646 95.202,130.902 94.860,130.902 94.434 C 130.902 93.922,131.158 93.666,131.670 93.666 C 132.182 93.666,132.438 93.410,132.438 92.898 C 132.438 92.385,132.694 92.131,133.209 92.131 C 133.633 92.131,134.276 91.785,134.638 91.363 C 135.000 90.940,135.619 90.595,136.014 90.595 C 136.409 90.595,136.822 90.250,136.933 89.827 C 137.044 89.402,137.457 89.060,137.857 89.060 C 138.254 89.060,138.580 88.820,138.580 88.526 C 138.580 88.221,139.154 87.886,139.923 87.741 C 140.662 87.603,141.267 87.319,141.267 87.111 C 141.267 86.902,141.569 86.622,141.939 86.487 C 142.308 86.352,143.099 85.839,143.695 85.347 C 144.292 84.855,145.026 84.453,145.327 84.453 C 145.627 84.453,145.873 84.205,145.873 83.903 C 145.873 83.601,146.219 83.243,146.641 83.109 C 147.063 82.975,147.409 82.618,147.409 82.316 C 147.409 82.013,147.684 81.766,148.021 81.766 C 148.357 81.766,148.723 81.420,148.833 80.998 C 148.944 80.573,149.357 80.230,149.757 80.230 C 150.224 80.230,150.480 79.959,150.480 79.463 C 150.480 78.951,150.736 78.695,151.248 78.695 C 151.670 78.695,152.361 78.349,152.783 77.927 C 153.205 77.505,153.896 77.159,154.319 77.159 C 154.830 77.159,155.086 76.903,155.086 76.392 C 155.086 75.773,155.342 75.624,156.404 75.624 C 157.385 75.624,157.784 75.427,157.965 74.856 C 158.146 74.289,158.546 74.088,159.501 74.088 C 160.456 74.088,160.856 73.888,161.036 73.321 C 161.218 72.749,161.617 72.553,162.598 72.553 C 163.459 72.553,163.916 72.370,163.916 72.026 C 163.916 71.672,164.566 71.436,165.899 71.308 C 167.112 71.192,168.061 70.874,168.341 70.492 C 168.634 70.091,169.359 69.866,170.356 69.866 C 172.284 69.866,173.129 69.561,173.129 68.865 C 173.129 68.468,173.714 68.330,175.400 68.330 C 178.020 68.330,178.887 68.081,178.887 67.329 C 178.887 66.908,179.700 66.795,182.726 66.795 C 186.052 66.795,186.667 66.692,187.332 66.027 C 188.168 65.191,196.161 64.827,196.161 65.625 C 196.161 66.273,198.949 66.790,202.453 66.792 C 205.258 66.794,205.953 66.914,206.356 67.466 C 206.747 68.001,207.560 68.166,210.334 68.272 C 212.833 68.369,213.820 68.545,213.820 68.896 C 213.820 69.470,215.508 69.866,217.952 69.866 C 219.160 69.866,219.834 70.069,220.176 70.537 C 220.610 71.132,221.563 71.223,228.439 71.328 C 234.433 71.420,236.393 71.574,237.001 72.000 C 237.592 72.414,239.071 72.553,242.874 72.553 C 247.565 72.553,247.989 72.612,248.369 73.321 C 248.733 74.001,249.172 74.088,252.221 74.088 C 255.150 74.088,255.776 74.202,256.430 74.856 C 257.059 75.485,257.710 75.624,260.032 75.624 C 262.543 75.624,262.889 75.711,263.067 76.392 C 263.237 77.041,263.591 77.159,265.370 77.159 C 267.150 77.159,267.504 77.277,267.674 77.927 C 267.828 78.517,268.197 78.695,269.270 78.695 C 270.135 78.695,270.979 78.987,271.490 79.463 C 271.957 79.898,272.844 80.230,273.540 80.230 C 274.444 80.230,274.819 80.432,274.967 80.998 C 275.087 81.457,275.491 81.766,275.972 81.766 C 276.419 81.766,276.775 82.013,276.775 82.324 C 276.775 82.659,277.315 82.984,278.119 83.135 C 278.937 83.288,279.463 83.609,279.463 83.956 C 279.463 84.269,279.808 84.615,280.230 84.726 C 280.653 84.836,280.998 85.182,280.998 85.493 C 280.998 85.805,281.344 86.151,281.766 86.261 C 282.188 86.372,282.534 86.749,282.534 87.100 C 282.534 87.451,282.879 87.987,283.301 88.292 C 283.724 88.596,284.069 89.239,284.069 89.720 C 284.069 90.339,284.294 90.595,284.837 90.595 C 285.349 90.595,285.605 90.851,285.605 91.363 C 285.605 91.875,285.861 92.131,286.372 92.131 C 287.012 92.131,287.140 92.386,287.140 93.666 C 287.140 94.775,287.300 95.202,287.716 95.202 C 288.033 95.202,288.292 95.514,288.292 95.897 C 288.292 96.279,288.637 96.963,289.060 97.416 C 289.482 97.870,289.827 98.523,289.827 98.868 C 289.827 99.214,290.173 99.586,290.595 99.697 C 291.177 99.849,291.363 100.220,291.363 101.232 C 291.363 102.244,291.548 102.616,292.131 102.768 C 292.698 102.916,292.898 103.291,292.898 104.208 C 292.898 104.960,293.200 105.721,293.666 106.142 C 294.280 106.698,294.434 107.324,294.434 109.269 C 294.434 111.286,294.565 111.784,295.202 112.181 C 295.668 112.473,295.969 113.076,295.969 113.720 C 295.969 114.523,296.155 114.779,296.737 114.779 C 297.356 114.779,297.505 115.035,297.505 116.097 C 297.505 117.078,297.701 117.477,298.273 117.658 C 298.762 117.814,299.040 118.239,299.040 118.833 C 299.040 119.347,299.383 119.977,299.808 120.243 C 300.230 120.506,300.576 121.026,300.576 121.398 C 300.576 121.817,300.867 122.073,301.344 122.073 C 301.983 122.073,302.111 122.329,302.111 123.608 C 302.111 124.888,302.239 125.144,302.879 125.144 C 303.501 125.144,303.647 125.400,303.647 126.488 C 303.647 127.226,303.811 127.831,304.013 127.831 C 304.214 127.831,304.665 128.436,305.016 129.175 C 305.367 129.914,305.807 130.518,305.994 130.518 C 306.181 130.518,306.334 130.966,306.334 131.514 C 306.334 132.187,306.583 132.575,307.102 132.710 C 307.643 132.852,307.869 133.234,307.869 134.004 C 307.869 134.705,308.145 135.245,308.637 135.509 C 309.060 135.735,309.405 136.146,309.405 136.422 C 309.405 136.699,309.750 137.238,310.173 137.620 C 310.595 138.002,310.940 138.720,310.940 139.215 C 310.940 139.859,311.159 140.115,311.708 140.115 C 312.346 140.115,312.476 140.371,312.476 141.625 C 312.476 142.797,312.305 143.189,311.708 143.378 C 311.067 143.582,310.940 143.959,310.940 145.662 C 310.940 147.380,310.819 147.735,310.173 147.904 C 309.491 148.082,309.405 148.428,309.405 150.975 C 309.405 153.522,309.319 153.868,308.637 154.046 C 307.309 154.393,307.534 163.916,308.870 163.916 C 309.185 163.916,309.405 164.311,309.405 164.879 C 309.405 165.409,309.750 166.138,310.173 166.500 C 310.595 166.861,310.940 167.464,310.940 167.840 C 310.940 168.266,311.228 168.522,311.708 168.522 C 312.220 168.522,312.476 168.778,312.476 169.290 C 312.476 169.802,312.732 170.058,313.244 170.058 C 313.756 170.058,314.012 170.313,314.012 170.825 C 314.012 171.337,314.267 171.593,314.779 171.593 C 315.292 171.593,315.547 171.849,315.547 172.365 C 315.547 172.789,315.893 173.432,316.315 173.793 C 316.737 174.155,317.083 174.666,317.083 174.928 C 317.083 175.190,317.428 175.590,317.850 175.816 C 318.273 176.042,318.618 176.468,318.618 176.763 C 318.618 177.058,318.964 177.409,319.386 177.543 C 319.808 177.677,320.154 178.023,320.154 178.311 C 320.154 178.599,320.499 178.945,320.921 179.079 C 321.344 179.213,321.689 179.570,321.689 179.872 C 321.689 180.175,321.885 180.422,322.125 180.422 C 322.365 180.422,322.961 180.854,323.450 181.382 C 323.939 181.910,324.673 182.342,325.081 182.342 C 325.499 182.342,325.910 182.676,326.023 183.109 C 326.133 183.532,326.499 183.877,326.835 183.877 C 327.172 183.877,327.447 184.136,327.447 184.453 C 327.447 184.811,327.810 185.029,328.407 185.029 C 328.971 185.029,329.367 185.249,329.367 185.564 C 329.367 186.150,330.173 186.564,331.317 186.564 C 331.798 186.564,332.054 186.831,332.054 187.332 C 332.054 187.844,332.310 188.100,332.821 188.100 C 333.333 188.100,333.589 188.356,333.589 188.868 C 333.589 189.379,333.845 189.635,334.357 189.635 C 334.779 189.635,335.125 189.876,335.125 190.170 C 335.125 190.749,335.929 191.171,337.031 191.171 C 337.411 191.171,337.813 191.516,337.923 191.939 C 338.034 192.361,338.399 192.706,338.736 192.706 C 339.574 192.706,339.606 195.702,338.772 196.022 C 338.455 196.144,338.190 196.441,338.183 196.682 C 338.162 197.390,336.781 198.848,336.132 198.848 C 335.804 198.848,335.351 199.194,335.125 199.616 C 334.899 200.038,334.461 200.384,334.152 200.384 C 333.842 200.384,333.589 200.729,333.589 201.152 C 333.589 201.777,333.333 201.919,332.210 201.919 C 331.153 201.919,330.783 202.099,330.629 202.687 C 330.518 203.112,330.106 203.455,329.706 203.455 C 329.308 203.455,328.983 203.714,328.983 204.031 C 328.983 204.436,328.574 204.607,327.603 204.607 C 326.569 204.607,326.176 204.790,326.032 205.339 C 325.927 205.742,325.511 206.157,325.108 206.263 C 323.866 206.587,324.119 211.900,325.377 211.900 C 325.731 211.900,325.912 212.349,325.912 213.230 C 325.912 214.167,326.138 214.682,326.679 214.971 C 327.127 215.211,327.447 215.775,327.447 216.325 C 327.447 216.852,327.786 217.479,328.215 217.747 C 328.637 218.011,328.983 218.617,328.983 219.094 C 328.983 219.706,328.756 219.962,328.215 219.962 C 327.793 219.962,327.447 220.209,327.447 220.512 C 327.447 220.814,327.102 221.171,326.679 221.305 C 326.257 221.439,325.912 221.796,325.912 222.099 C 325.912 222.401,325.648 222.649,325.326 222.649 C 325.004 222.649,324.584 223.062,324.392 223.568 C 324.199 224.074,323.815 224.563,323.537 224.656 C 322.723 224.927,322.861 229.111,323.704 229.728 C 324.074 229.998,324.376 230.518,324.376 230.884 C 324.376 231.250,324.722 231.640,325.144 231.751 C 325.566 231.861,325.912 232.190,325.912 232.482 C 325.912 232.774,326.257 233.013,326.679 233.013 C 327.319 233.013,327.447 233.269,327.447 234.549 C 327.447 235.698,327.293 236.084,326.835 236.084 C 326.499 236.084,326.133 236.430,326.023 236.852 C 325.913 237.274,325.578 237.620,325.279 237.620 C 324.980 237.620,324.623 237.922,324.485 238.292 C 324.348 238.661,323.921 239.189,323.538 239.465 C 323.154 239.741,322.841 240.137,322.841 240.345 C 322.841 240.553,322.481 241.105,322.042 241.571 C 320.971 242.707,321.066 248.499,322.169 249.306 C 322.892 249.834,323.224 259.501,322.518 259.501 C 322.053 259.501,321.305 261.295,321.305 262.410 C 321.305 262.935,321.051 263.461,320.740 263.581 C 320.429 263.700,320.064 264.386,319.929 265.104 C 319.753 266.045,319.480 266.411,318.955 266.411 C 318.555 266.411,317.931 266.756,317.569 267.179 C 317.068 267.765,316.437 267.946,314.905 267.946 C 313.583 267.946,312.793 268.130,312.591 268.485 C 312.356 268.898,310.999 269.055,306.783 269.157 C 302.259 269.266,301.200 269.400,300.827 269.912 C 300.426 270.460,298.667 270.553,285.840 270.701 C 272.749 270.853,271.260 270.934,270.832 271.519 C 270.571 271.876,270.074 272.169,269.727 272.169 C 269.354 272.169,269.098 272.481,269.098 272.937 C 269.098 273.448,268.842 273.704,268.330 273.704 C 267.834 273.704,267.562 273.960,267.562 274.427 C 267.562 274.828,267.220 275.240,266.795 275.351 C 266.360 275.465,266.027 275.875,266.027 276.296 C 266.027 276.705,265.681 277.353,265.259 277.735 C 264.837 278.117,264.491 278.678,264.491 278.982 C 264.491 279.285,264.146 279.973,263.724 280.509 C 263.301 281.046,262.956 282.061,262.956 282.764 C 262.956 283.649,262.720 284.168,262.188 284.453 C 261.534 284.803,261.420 285.257,261.420 287.518 C 261.420 289.615,261.284 290.250,260.769 290.537 C 260.286 290.808,260.075 291.579,259.951 293.526 C 259.839 295.280,259.590 296.292,259.199 296.578 C 258.842 296.839,258.544 297.847,258.435 299.167 C 258.336 300.355,258.018 301.525,257.727 301.766 C 257.433 302.010,257.198 302.913,257.198 303.793 C 257.198 304.966,256.997 305.507,256.430 305.861 C 255.852 306.222,255.662 306.756,255.662 308.020 C 255.662 309.376,255.515 309.738,254.894 309.900 C 254.242 310.071,254.127 310.424,254.127 312.248 C 254.127 314.139,254.035 314.395,253.359 314.395 C 252.723 314.395,252.591 314.651,252.591 315.886 C 252.591 317.054,252.425 317.420,251.823 317.578 C 251.185 317.744,251.056 318.101,251.056 319.689 C 251.056 321.277,250.926 321.633,250.288 321.800 C 249.706 321.952,249.520 322.324,249.520 323.336 C 249.520 324.348,249.334 324.719,248.752 324.871 C 248.193 325.017,247.985 325.395,247.985 326.260 C 247.985 326.935,247.654 327.778,247.217 328.215 C 246.713 328.719,246.449 329.495,246.449 330.473 C 246.449 331.641,246.283 332.008,245.681 332.165 C 245.106 332.315,244.914 332.689,244.914 333.653 C 244.914 334.524,244.666 335.095,244.146 335.420 C 243.656 335.725,243.378 336.315,243.378 337.047 C 243.378 337.812,243.186 338.196,242.802 338.196 C 242.386 338.196,242.226 338.622,242.226 339.731 C 242.226 341.011,242.099 341.267,241.459 341.267 C 240.819 341.267,240.691 341.523,240.691 342.802 C 240.691 344.082,240.563 344.338,239.923 344.338 C 239.276 344.338,239.155 344.594,239.155 345.973 C 239.155 347.192,238.960 347.730,238.388 348.087 C 237.805 348.451,237.620 348.983,237.620 350.291 C 237.620 351.509,237.463 352.015,237.085 352.015 C 236.246 352.015,236.084 352.918,236.084 357.613 C 236.084 361.740,236.129 361.996,236.852 361.996 C 237.478 361.996,237.620 362.252,237.620 363.376 C 237.620 364.432,237.800 364.802,238.388 364.956 C 238.813 365.067,239.155 365.480,239.155 365.880 C 239.155 366.347,239.427 366.603,239.923 366.603 C 240.435 366.603,240.691 366.859,240.691 367.370 C 240.691 367.882,240.947 368.138,241.459 368.138 C 241.971 368.138,242.226 368.394,242.226 368.906 C 242.226 369.328,242.480 369.674,242.789 369.674 C 243.098 369.674,243.536 370.019,243.762 370.441 C 244.377 371.590,250.675 371.590,251.823 370.441 C 252.390 369.875,253.103 369.674,254.546 369.674 C 256.179 369.674,256.535 369.547,256.703 368.906 C 256.864 368.288,257.226 368.138,258.555 368.138 C 260.572 368.138,261.420 367.842,261.420 367.137 C 261.420 366.771,261.895 366.603,262.924 366.603 C 264.800 366.603,265.643 366.292,265.643 365.602 C 265.643 365.232,266.127 365.067,267.214 365.067 C 268.463 365.067,268.827 364.909,268.987 364.299 C 269.136 363.727,269.510 363.532,270.455 363.532 C 272.103 363.532,272.937 363.196,272.937 362.531 C 272.937 362.161,273.421 361.996,274.508 361.996 C 275.757 361.996,276.121 361.838,276.280 361.228 C 276.432 360.650,276.804 360.461,277.792 360.461 C 278.603 360.461,279.187 360.241,279.324 359.885 C 279.449 359.557,280.022 359.309,280.652 359.309 C 281.344 359.309,281.939 359.021,282.239 358.541 C 282.536 358.065,283.134 357.774,283.813 357.774 C 284.564 357.774,284.968 357.546,285.098 357.049 C 285.227 356.556,285.766 356.249,286.790 356.085 C 287.693 355.941,288.292 355.634,288.292 355.316 C 288.292 355.019,288.863 354.681,289.598 354.543 C 290.317 354.408,291.002 354.043,291.122 353.732 C 291.241 353.421,291.690 353.167,292.118 353.167 C 292.642 353.167,292.898 352.915,292.898 352.399 C 292.898 351.774,293.154 351.631,294.278 351.631 C 295.334 351.631,295.704 351.452,295.858 350.864 C 295.968 350.441,296.370 350.096,296.750 350.096 C 297.853 350.096,298.656 349.674,298.656 349.095 C 298.656 348.801,299.002 348.560,299.424 348.560 C 299.936 348.560,300.192 348.305,300.192 347.793 C 300.192 347.167,300.448 347.025,301.571 347.025 C 302.628 347.025,302.998 346.845,303.152 346.257 C 303.263 345.832,303.675 345.489,304.075 345.489 C 304.543 345.489,304.798 345.218,304.798 344.722 C 304.798 344.299,305.014 343.955,305.278 343.957 C 306.133 343.963,309.405 342.250,309.405 341.797 C 309.405 341.555,309.750 341.266,310.173 341.156 C 310.595 341.045,310.940 340.680,310.940 340.343 C 310.940 340.007,311.248 339.731,311.624 339.731 C 311.999 339.731,312.556 339.386,312.860 338.964 C 313.164 338.541,313.715 338.196,314.083 338.196 C 314.451 338.196,314.937 337.850,315.163 337.428 C 315.389 337.006,315.827 336.660,316.136 336.660 C 316.446 336.660,316.699 336.315,316.699 335.893 C 316.699 335.381,316.955 335.125,317.466 335.125 C 317.978 335.125,318.234 334.869,318.234 334.357 C 318.234 333.845,318.490 333.589,319.002 333.589 C 319.514 333.589,319.770 333.333,319.770 332.821 C 319.770 332.308,320.026 332.054,320.541 332.054 C 320.966 332.054,321.609 331.708,321.970 331.286 C 322.332 330.864,322.842 330.518,323.104 330.518 C 323.367 330.518,323.766 330.173,323.992 329.750 C 324.218 329.328,324.645 328.983,324.940 328.983 C 325.235 328.983,325.586 328.637,325.720 328.215 C 325.854 327.793,326.211 327.447,326.513 327.447 C 326.816 327.447,327.063 327.188,327.063 326.871 C 327.063 326.555,327.204 326.296,327.377 326.296 C 327.843 326.296,331.670 322.582,331.670 322.130 C 331.670 321.916,332.015 321.631,332.438 321.497 C 332.860 321.363,333.205 321.018,333.205 320.729 C 333.205 320.441,333.551 320.096,333.973 319.962 C 334.395 319.828,334.741 319.478,334.741 319.185 C 334.741 318.891,335.430 317.910,336.272 317.003 C 337.114 316.097,337.804 315.053,337.807 314.683 C 337.810 314.269,338.106 314.012,338.580 314.012 C 339.091 314.012,339.347 313.756,339.347 313.244 C 339.347 312.732,339.603 312.476,340.115 312.476 C 340.537 312.476,340.883 312.229,340.883 311.926 C 340.883 311.624,341.228 311.266,341.651 311.132 C 342.073 310.998,342.418 310.555,342.418 310.147 C 342.418 309.739,342.670 309.405,342.977 309.405 C 343.308 309.405,343.635 308.873,343.781 308.097 C 343.937 307.263,344.292 306.719,344.758 306.597 C 345.160 306.492,345.489 306.131,345.489 305.794 C 345.489 305.458,345.749 305.182,346.065 305.182 C 346.382 305.182,346.641 304.857,346.641 304.459 C 346.641 304.059,346.984 303.647,347.409 303.536 C 347.997 303.382,348.177 303.012,348.177 301.955 C 348.177 300.832,348.319 300.576,348.944 300.576 C 349.456 300.576,349.712 300.320,349.712 299.808 C 349.712 299.296,349.968 299.040,350.480 299.040 C 350.997 299.040,351.248 298.784,351.248 298.257 C 351.248 297.825,351.593 297.102,352.015 296.649 C 352.438 296.195,352.783 295.610,352.783 295.347 C 352.783 295.084,353.129 294.760,353.551 294.626 C 354.122 294.444,354.319 294.045,354.319 293.064 C 354.319 292.003,354.468 291.747,355.086 291.747 C 355.563 291.747,355.854 291.491,355.854 291.071 C 355.854 290.700,356.200 290.180,356.622 289.916 C 357.100 289.617,357.390 289.021,357.390 288.333 C 357.390 287.553,357.614 287.171,358.157 287.029 C 358.745 286.875,358.925 286.505,358.925 285.449 C 358.925 284.325,359.068 284.069,359.693 284.069 C 360.230 284.069,360.464 283.809,360.473 283.205 C 360.480 282.730,360.739 282.006,361.049 281.596 C 361.359 281.187,361.612 280.580,361.612 280.249 C 361.612 279.918,361.958 279.431,362.380 279.168 C 362.859 278.869,363.148 278.273,363.148 277.585 C 363.148 276.804,363.372 276.422,363.916 276.280 C 364.496 276.129,364.683 275.757,364.683 274.760 C 364.683 273.927,364.967 273.183,365.451 272.745 C 365.965 272.279,366.219 271.562,366.219 270.574 C 366.219 269.354,366.352 269.098,366.987 269.098 C 367.626 269.098,367.754 268.842,367.754 267.562 C 367.754 266.283,367.882 266.027,368.522 266.027 C 369.154 266.027,369.290 265.771,369.290 264.577 C 369.290 263.602,369.541 262.911,370.058 262.469 C 370.573 262.028,370.825 261.337,370.825 260.365 C 370.825 259.334,371.046 258.780,371.593 258.438 C 372.194 258.063,372.361 257.543,372.361 256.043 C 372.361 254.661,372.510 254.127,372.896 254.127 C 373.604 254.127,373.896 253.277,373.896 251.216 C 373.896 250.028,374.055 249.520,374.427 249.520 C 375.036 249.520,375.419 248.367,375.427 246.510 C 375.430 245.804,375.777 244.787,376.200 244.251 C 376.746 243.556,376.967 242.693,376.967 241.262 C 376.967 239.941,377.165 239.085,377.543 238.772 C 377.972 238.416,378.119 237.464,378.119 235.042 C 378.119 232.113,378.195 231.770,378.887 231.589 C 379.588 231.406,379.655 231.066,379.655 227.680 C 379.655 224.446,379.753 223.887,380.422 223.314 C 381.131 222.707,381.190 222.181,381.190 216.510 C 381.190 211.513,381.290 210.365,381.725 210.365 C 382.665 210.365,382.726 209.413,382.726 194.558 C 382.726 180.289,382.709 179.962,381.958 179.766 C 381.231 179.576,381.190 179.242,381.190 173.464 C 381.190 167.838,381.130 167.312,380.422 166.706 C 379.753 166.132,379.655 165.573,379.655 162.339 C 379.655 158.954,379.588 158.613,378.887 158.430 C 378.199 158.250,378.119 157.906,378.119 155.150 C 378.119 152.924,377.959 151.911,377.543 151.494 C 377.184 151.135,376.967 150.192,376.967 148.990 C 376.967 147.057,376.358 145.106,375.754 145.106 C 375.577 145.106,375.432 144.240,375.432 143.182 C 375.432 141.734,375.242 141.097,374.664 140.602 C 374.153 140.165,373.896 139.469,373.896 138.526 C 373.896 136.732,373.577 135.893,372.896 135.893 C 372.510 135.893,372.361 135.358,372.361 133.976 C 372.361 132.476,372.194 131.956,371.593 131.581 C 371.060 131.248,370.825 130.686,370.825 129.743 C 370.825 128.825,370.576 128.205,370.058 127.831 C 369.496 127.426,369.290 126.837,369.290 125.635 C 369.290 124.248,369.170 123.992,368.522 123.992 C 367.882 123.992,367.754 123.736,367.754 122.457 C 367.754 121.177,367.626 120.921,366.987 120.921 C 366.352 120.921,366.219 120.665,366.219 119.445 C 366.219 118.457,365.965 117.740,365.451 117.274 C 365.027 116.891,364.683 116.092,364.683 115.491 C 364.683 114.818,364.390 114.219,363.916 113.922 C 363.450 113.632,363.148 113.027,363.148 112.387 C 363.148 111.747,362.846 111.142,362.380 110.851 C 361.958 110.588,361.612 110.003,361.612 109.552 C 361.612 109.100,361.353 108.516,361.036 108.253 C 360.720 107.991,360.461 107.365,360.461 106.863 C 360.461 106.206,360.245 105.950,359.693 105.950 C 359.068 105.950,358.925 105.694,358.925 104.571 C 358.925 103.514,358.745 103.144,358.157 102.990 C 357.614 102.848,357.390 102.467,357.390 101.686 C 357.390 100.998,357.100 100.402,356.622 100.103 C 356.200 99.839,355.854 99.319,355.854 98.948 C 355.854 98.528,355.563 98.273,355.086 98.273 C 354.468 98.273,354.319 98.017,354.319 96.955 C 354.319 95.974,354.122 95.575,353.551 95.393 C 353.129 95.259,352.783 94.817,352.783 94.411 C 352.783 94.005,352.438 93.457,352.015 93.193 C 351.593 92.929,351.248 92.323,351.248 91.846 C 351.248 91.235,351.021 90.979,350.480 90.979 C 349.968 90.979,349.712 90.723,349.712 90.211 C 349.712 89.699,349.456 89.443,348.944 89.443 C 348.319 89.443,348.177 89.187,348.177 88.064 C 348.177 87.007,347.997 86.637,347.409 86.484 C 346.984 86.372,346.641 85.960,346.641 85.560 C 346.641 85.162,346.402 84.837,346.110 84.837 C 345.818 84.837,345.489 84.491,345.378 84.069 C 345.268 83.647,344.921 83.301,344.608 83.301 C 344.265 83.301,343.942 82.783,343.794 81.995 C 343.659 81.276,343.295 80.591,342.984 80.471 C 342.673 80.352,342.418 80.002,342.418 79.692 C 342.418 79.383,342.092 79.027,341.692 78.900 C 341.293 78.773,340.877 78.330,340.768 77.914 C 340.660 77.499,340.296 77.159,339.959 77.159 C 339.623 77.159,339.347 76.900,339.347 76.583 C 339.347 76.264,339.006 76.008,338.580 76.008 C 338.068 76.008,337.812 75.752,337.812 75.240 C 337.812 74.743,337.556 74.472,337.087 74.472 C 336.562 74.472,336.292 74.101,336.110 73.129 C 335.959 72.324,335.634 71.785,335.299 71.785 C 334.988 71.785,334.741 71.429,334.741 70.981 C 334.741 70.513,334.435 70.098,334.009 69.986 C 333.606 69.881,333.190 69.465,333.085 69.062 C 332.980 68.660,332.638 68.330,332.326 68.330 C 332.015 68.330,331.669 67.985,331.559 67.562 C 331.448 67.140,331.103 66.795,330.791 66.795 C 330.479 66.795,330.134 66.449,330.023 66.027 C 329.913 65.605,329.547 65.259,329.211 65.259 C 328.874 65.259,328.599 65.000,328.599 64.683 C 328.599 64.367,328.324 64.107,327.987 64.107 C 327.651 64.107,327.285 63.762,327.175 63.340 C 327.064 62.917,326.746 62.572,326.469 62.572 C 326.191 62.572,325.854 62.226,325.720 61.804 C 325.586 61.382,325.235 61.036,324.940 61.036 C 324.645 61.036,324.218 60.691,323.992 60.269 C 323.766 59.846,323.367 59.501,323.104 59.501 C 322.842 59.501,322.332 59.155,321.970 58.733 C 321.609 58.311,320.966 57.965,320.541 57.965 C 320.026 57.965,319.770 57.711,319.770 57.198 C 319.770 56.686,319.514 56.430,319.002 56.430 C 318.490 56.430,318.234 56.174,318.234 55.662 C 318.234 55.150,317.978 54.894,317.466 54.894 C 316.970 54.894,316.699 54.639,316.699 54.171 C 316.699 53.771,316.356 53.359,315.931 53.248 C 315.509 53.137,315.163 52.772,315.163 52.435 C 315.163 52.054,314.833 51.823,314.288 51.823 C 313.807 51.823,313.164 51.478,312.860 51.056 C 312.556 50.633,311.999 50.288,311.624 50.288 C 311.196 50.288,310.940 50.000,310.940 49.520 C 310.940 49.008,310.685 48.752,310.173 48.752 C 309.750 48.752,309.405 48.527,309.405 48.250 C 309.405 47.974,308.714 47.444,307.869 47.071 C 307.025 46.698,306.334 46.233,306.334 46.037 C 306.334 45.842,305.988 45.681,305.566 45.681 C 305.120 45.681,304.798 45.425,304.798 45.070 C 304.798 44.733,304.465 44.371,304.057 44.264 C 303.650 44.157,303.223 43.828,303.110 43.532 C 302.986 43.211,302.356 42.994,301.548 42.994 C 300.448 42.994,300.192 42.849,300.192 42.226 C 300.192 41.730,299.936 41.459,299.469 41.459 C 299.069 41.459,298.656 41.116,298.545 40.691 C 298.401 40.140,298.022 39.923,297.202 39.923 C 296.382 39.923,296.002 39.706,295.858 39.155 C 295.704 38.567,295.334 38.388,294.278 38.388 C 293.154 38.388,292.898 38.245,292.898 37.620 C 292.898 37.123,292.642 36.852,292.172 36.852 C 291.772 36.852,291.349 36.603,291.232 36.298 C 291.115 35.993,290.421 35.631,289.691 35.494 C 288.839 35.334,288.294 34.982,288.171 34.513 C 288.029 33.970,287.635 33.781,286.645 33.781 C 285.633 33.781,285.262 33.595,285.110 33.013 C 284.968 32.472,284.586 32.246,283.813 32.246 C 283.134 32.246,282.536 31.954,282.239 31.478 C 281.933 30.988,281.344 30.710,280.611 30.710 C 279.885 30.710,279.463 30.513,279.463 30.175 C 279.463 29.563,278.647 29.175,277.361 29.175 C 276.873 29.175,276.374 28.916,276.253 28.599 C 276.107 28.219,275.506 28.023,274.484 28.023 C 273.417 28.023,272.937 27.857,272.937 27.488 C 272.937 26.824,272.103 26.488,270.455 26.488 C 269.510 26.488,269.136 26.292,268.987 25.720 C 268.827 25.110,268.463 24.952,267.214 24.952 C 266.127 24.952,265.643 24.787,265.643 24.417 C 265.643 23.731,264.802 23.417,262.969 23.417 C 261.833 23.417,261.465 23.247,261.309 22.649 C 261.139 21.999,260.786 21.881,259.006 21.881 C 257.226 21.881,256.873 21.763,256.703 21.113 C 256.533 20.466,256.179 20.345,254.440 20.345 C 252.853 20.345,252.226 20.169,251.721 19.578 C 251.204 18.975,250.588 18.810,248.848 18.810 C 247.050 18.810,246.544 18.666,246.154 18.042 C 245.753 17.400,245.259 17.274,243.129 17.274 C 241.148 17.274,240.475 17.126,240.092 16.603 C 239.705 16.072,238.889 15.902,236.222 15.792 C 233.649 15.686,232.734 15.503,232.384 15.024 C 232.012 14.514,231.033 14.371,227.191 14.268 C 223.441 14.166,222.309 14.007,221.745 13.500 C 221.032 12.859,180.891 12.325,179.271 12.935 " stroke="none" fill="#04dccc" fill-rule="evenodd"></path><path id="path1" d="" stroke="none" fill="#08dccc" fill-rule="evenodd"></path></g></svg>