<svg id="svg" version="1.1" xmlns="http://www.w3.org/2000/svg" xmlns:xlink="http://www.w3.org/1999/xlink" width="400" height="400" viewBox="0, 0, 400,400"><g id="svgg"><path id="path0" d="M197.059 50.707 C 193.861 51.568,190.549 54.133,188.254 57.525 C 187.409 58.774,61.498 280.423,60.422 282.555 C 55.560 292.193,59.408 300.535,69.532 302.300 C 72.107 302.749,137.497 302.749,140.477 302.300 C 150.923 300.725,160.312 295.087,166.620 286.600 C 168.162 284.526,242.913 155.225,244.609 151.700 C 249.333 141.876,249.605 129.522,245.326 119.000 C 244.758 117.602,240.458 109.845,232.464 95.800 C 225.860 84.195,218.541 71.235,216.201 67.000 C 213.861 62.765,211.568 58.715,211.107 58.000 C 207.414 52.271,201.892 49.405,197.059 50.707 M281.100 196.392 C 277.769 197.113,274.415 199.541,271.971 203.000 C 270.939 204.460,226.896 280.333,225.843 282.466 C 221.296 291.665,224.456 299.642,233.600 302.052 L 235.300 302.500 282.700 302.500 L 330.100 302.500 331.800 302.053 C 341.007 299.631,344.181 291.675,339.578 282.557 C 338.794 281.002,295.810 205.519,294.845 204.000 C 291.327 198.465,285.759 195.383,281.100 196.392 " stroke="none" fill="#fbfbfb" fill-rule="evenodd"></path><path id="path1" d="M190.100 0.125 C 123.762 4.093,65.550 38.053,30.905 93.000 C 29.830 94.705,28.864 96.155,28.758 96.222 C 28.652 96.290,28.579 96.405,28.594 96.479 C 28.610 96.553,27.908 97.848,27.034 99.357 C 19.008 113.217,12.355 128.671,8.073 143.400 C 7.769 144.445,7.471 145.345,7.410 145.400 C 7.350 145.455,7.286 145.665,7.269 145.867 C 7.205 146.644,6.300 149.800,6.142 149.800 C 6.051 149.800,6.026 149.880,6.087 149.978 C 6.147 150.076,5.887 151.410,5.508 152.942 C 3.096 162.685,1.334 173.965,0.361 185.900 C 0.006 190.249,0.005 209.500,0.360 214.000 C 0.932 221.272,1.890 228.894,3.019 235.164 C 3.342 236.959,3.555 238.511,3.492 238.614 C 3.428 238.716,3.455 238.800,3.552 238.800 C 3.648 238.800,3.891 239.678,4.091 240.750 C 6.739 254.917,13.216 273.669,20.635 288.650 C 21.929 291.262,22.923 293.401,22.844 293.403 C 22.765 293.405,22.801 293.472,22.925 293.553 C 23.049 293.634,24.006 295.239,25.052 297.120 C 28.110 302.620,31.084 307.437,34.979 313.200 C 36.729 315.789,36.410 315.346,39.786 319.881 C 41.334 321.961,42.600 323.689,42.600 323.722 C 42.600 323.755,42.802 324.002,43.050 324.272 C 43.297 324.541,43.604 324.893,43.731 325.052 C 76.324 366.007,124.591 392.653,177.300 398.790 C 187.609 399.990,205.535 400.356,215.100 399.562 C 217.300 399.379,219.235 399.225,219.400 399.218 C 219.565 399.212,219.970 399.160,220.300 399.104 C 220.630 399.047,222.430 398.816,224.300 398.590 C 334.062 385.331,412.643 284.371,398.485 174.800 C 386.261 80.188,311.236 8.754,215.400 0.477 C 211.928 0.177,193.511 -0.079,190.100 0.125 M201.640 50.623 C 206.923 51.732,209.143 54.229,216.201 67.000 C 218.541 71.235,225.860 84.195,232.464 95.800 C 240.458 109.845,244.758 117.602,245.326 119.000 C 249.605 129.522,249.333 141.876,244.609 151.700 C 242.913 155.225,168.162 284.526,166.620 286.600 C 160.312 295.087,150.923 300.725,140.477 302.300 C 137.497 302.749,72.107 302.749,69.532 302.300 C 59.408 300.535,55.560 292.193,60.422 282.555 C 61.498 280.423,187.409 58.774,188.254 57.525 C 191.803 52.280,196.934 49.634,201.640 50.623 M286.561 196.859 C 289.544 197.897,292.690 200.609,294.845 204.000 C 295.810 205.519,338.794 281.002,339.578 282.557 C 344.181 291.675,341.007 299.631,331.800 302.053 L 330.100 302.500 282.700 302.500 L 235.300 302.500 233.600 302.052 C 224.456 299.642,221.296 291.665,225.843 282.466 C 226.896 280.333,270.939 204.460,271.971 203.000 C 275.938 197.385,281.431 195.073,286.561 196.859 " stroke="none" fill="#ec4444" fill-rule="evenodd"></path></g></svg>