<svg id="svg" version="1.1" xmlns="http://www.w3.org/2000/svg" xmlns:xlink="http://www.w3.org/1999/xlink" width="400" height="387.8787878787879" viewBox="0, 0, 400,387.8787878787879"><g id="svgg"><path id="path0" d="M173.621 0.266 C 171.702 0.351,169.965 0.588,169.760 0.792 C 169.556 0.997,168.202 1.164,166.751 1.164 C 165.251 1.164,164.113 1.331,164.113 1.552 C 164.113 1.767,163.078 1.940,161.785 1.940 C 160.491 1.940,159.457 2.112,159.457 2.328 C 159.457 2.541,158.497 2.716,157.323 2.716 C 156.149 2.716,155.189 2.890,155.189 3.104 C 155.189 3.317,154.491 3.492,153.637 3.492 C 152.784 3.492,152.085 3.666,152.085 3.880 C 152.085 4.093,151.310 4.268,150.362 4.268 C 149.415 4.268,148.545 4.420,148.430 4.607 C 148.056 5.212,151.080 5.426,153.653 4.977 C 157.775 4.258,179.657 4.389,185.257 5.166 C 193.825 6.355,195.318 6.613,200.388 7.772 C 229.479 14.426,255.143 30.485,274.153 53.928 C 274.759 54.675,275.344 55.373,275.454 55.480 C 278.129 58.071,287.876 71.975,287.876 73.198 C 287.876 73.310,288.269 73.952,288.749 74.625 C 289.799 76.097,289.849 79.546,288.873 83.123 C 288.538 84.350,287.994 86.358,287.664 87.585 C 286.985 90.109,284.913 96.401,284.374 97.575 C 284.179 98.002,283.583 99.533,283.052 100.978 C 282.520 102.423,281.830 104.169,281.518 104.858 C 281.206 105.547,280.325 107.491,279.561 109.179 C 278.796 110.866,278.247 112.324,278.340 112.417 C 278.494 112.571,279.293 110.954,280.693 107.662 C 280.966 107.022,281.471 105.844,281.816 105.044 C 283.245 101.734,283.559 100.962,284.378 98.739 C 284.850 97.459,285.375 96.062,285.546 95.635 C 287.053 91.864,289.341 83.729,289.923 80.073 C 290.495 76.476,290.395 76.430,292.815 81.390 C 298.278 92.586,302.191 103.982,304.499 115.422 C 305.691 121.329,306.886 129.610,306.889 131.986 C 306.898 139.271,311.126 154.363,316.378 165.858 C 316.671 166.499,317.205 167.808,317.566 168.768 C 317.927 169.728,318.444 171.038,318.715 171.678 C 318.986 172.318,319.856 174.413,320.649 176.334 C 321.441 178.254,322.668 181.222,323.376 182.929 C 324.083 184.636,326.528 190.660,328.810 196.314 C 331.091 201.969,333.451 207.643,334.054 208.923 C 336.913 214.995,336.663 215.323,324.579 221.342 C 314.599 226.314,315.319 225.321,316.557 232.411 C 318.355 242.706,316.829 244.760,306.499 245.945 C 304.471 246.177,301.345 246.541,299.550 246.753 C 297.756 246.965,294.856 247.139,293.106 247.139 C 286.226 247.139,285.320 247.577,288.280 249.477 C 292.094 251.924,297.912 254.137,304.102 255.495 C 310.855 256.977,313.159 261.639,310.079 267.594 C 306.803 273.929,306.368 276.261,306.333 287.682 L 306.305 296.993 305.073 299.601 C 301.321 307.545,295.469 309.613,280.992 308.107 C 278.697 307.869,274.636 307.494,271.969 307.274 C 269.302 307.054,265.239 306.671,262.940 306.423 C 250.671 305.098,243.667 309.822,237.517 323.569 C 235.309 328.507,213.260 376.971,212.674 378.176 C 211.205 381.196,209.602 384.797,208.709 387.080 L 208.376 387.933 213.111 387.710 C 215.716 387.587,218.013 387.334,218.215 387.148 C 218.418 386.961,219.771 386.809,221.222 386.809 C 222.722 386.809,223.860 386.642,223.860 386.421 C 223.860 386.205,224.895 386.033,226.188 386.033 C 227.481 386.033,228.516 385.861,228.516 385.645 C 228.516 385.432,229.476 385.257,230.650 385.257 C 231.823 385.257,232.784 385.082,232.784 384.869 C 232.784 384.656,233.482 384.481,234.336 384.481 C 235.189 384.481,235.887 384.306,235.887 384.093 C 235.887 383.880,236.663 383.705,237.610 383.705 C 238.558 383.705,239.441 383.531,239.573 383.317 C 239.705 383.104,240.501 382.929,241.342 382.929 C 242.183 382.929,242.871 382.755,242.871 382.541 C 242.871 382.328,243.482 382.153,244.229 382.153 C 244.976 382.153,245.587 381.979,245.587 381.765 C 245.587 381.552,246.111 381.377,246.751 381.377 C 247.391 381.377,247.915 381.203,247.915 380.989 C 247.915 380.776,248.613 380.601,249.467 380.601 C 250.320 380.601,251.018 380.427,251.018 380.213 C 251.018 380.000,251.449 379.825,251.975 379.825 C 252.992 379.825,256.194 378.888,257.318 378.261 C 257.688 378.055,258.338 377.886,258.761 377.886 C 259.184 377.886,260.152 377.536,260.912 377.110 C 261.672 376.683,262.637 376.334,263.057 376.334 C 263.478 376.334,263.822 376.159,263.822 375.946 C 263.822 375.732,264.345 375.558,264.985 375.558 C 265.626 375.558,266.149 375.383,266.149 375.170 C 266.149 374.956,266.499 374.782,266.925 374.782 C 267.352 374.782,267.701 374.607,267.701 374.394 C 267.701 374.180,268.225 374.006,268.865 374.006 C 269.505 374.006,270.029 373.831,270.029 373.618 C 270.029 373.404,270.378 373.230,270.805 373.230 C 271.232 373.230,271.581 373.055,271.581 372.842 C 271.581 372.629,271.930 372.454,272.357 372.454 C 272.784 372.454,273.133 372.279,273.133 372.066 C 273.133 371.853,273.482 371.678,273.909 371.678 C 274.336 371.678,274.685 371.503,274.685 371.290 C 274.685 371.077,274.999 370.902,275.383 370.902 C 276.250 370.902,278.169 370.035,278.174 369.641 C 278.175 369.481,278.526 369.350,278.952 369.350 C 279.379 369.350,279.728 369.176,279.728 368.962 C 279.728 368.749,280.078 368.574,280.504 368.574 C 280.931 368.574,281.280 368.400,281.280 368.186 C 281.280 367.973,281.629 367.798,282.056 367.798 C 282.483 367.798,282.832 367.624,282.832 367.410 C 282.832 367.197,283.181 367.022,283.608 367.022 C 284.035 367.022,284.384 366.848,284.384 366.634 C 284.384 366.421,284.695 366.246,285.074 366.246 C 285.454 366.246,286.016 365.897,286.324 365.470 C 286.632 365.044,287.194 364.694,287.574 364.694 C 287.953 364.694,288.264 364.520,288.264 364.306 C 288.264 364.093,288.579 363.919,288.964 363.919 C 289.349 363.919,290.440 363.428,291.389 362.828 C 292.337 362.229,294.030 361.241,295.150 360.633 C 296.271 360.025,297.187 359.381,297.187 359.201 C 297.187 359.022,297.498 358.875,297.877 358.875 C 298.257 358.875,298.819 358.526,299.127 358.099 C 299.435 357.672,299.958 357.323,300.291 357.323 C 300.624 357.323,301.147 356.974,301.455 356.547 C 301.762 356.120,302.286 355.771,302.619 355.771 C 302.951 355.771,303.475 355.422,303.783 354.995 C 304.090 354.568,304.614 354.219,304.947 354.219 C 305.279 354.219,305.803 353.870,306.111 353.443 C 306.418 353.016,306.867 352.667,307.109 352.667 C 307.350 352.667,308.095 352.144,308.765 351.503 C 309.435 350.863,310.159 350.339,310.375 350.339 C 310.590 350.339,310.766 350.165,310.766 349.952 C 310.766 349.738,311.016 349.564,311.322 349.564 C 311.628 349.564,311.989 349.214,312.124 348.788 C 312.260 348.361,312.671 348.012,313.039 348.012 C 313.407 348.012,314.356 347.401,315.148 346.654 C 315.940 345.907,316.747 345.296,316.941 345.296 C 317.135 345.296,318.358 344.248,319.658 342.968 C 320.959 341.688,322.196 340.640,322.408 340.640 C 322.620 340.640,322.793 340.466,322.793 340.252 C 322.793 340.039,323.012 339.855,323.278 339.843 C 323.545 339.831,324.724 338.770,325.897 337.485 C 327.071 336.200,328.951 334.245,330.075 333.142 C 338.113 325.250,340.640 322.670,340.640 322.356 C 340.640 322.159,341.382 321.226,342.289 320.284 C 344.496 317.991,344.908 317.470,344.908 316.975 C 344.908 316.744,345.606 315.890,346.460 315.078 C 347.313 314.267,348.012 313.471,348.012 313.310 C 348.012 313.149,348.535 312.528,349.176 311.930 C 349.816 311.332,350.339 310.602,350.339 310.308 C 350.339 310.014,350.689 309.522,351.115 309.214 C 351.542 308.907,351.891 308.414,351.891 308.120 C 351.891 307.826,352.415 307.097,353.055 306.499 C 353.695 305.901,354.219 305.132,354.219 304.791 C 354.219 304.450,354.364 304.171,354.542 304.171 C 354.719 304.171,355.112 303.691,355.415 303.104 C 355.717 302.517,356.271 301.698,356.644 301.285 C 357.017 300.871,357.323 300.384,357.323 300.202 C 357.323 300.020,357.646 299.524,358.041 299.100 C 358.436 298.676,359.260 297.330,359.872 296.109 C 360.484 294.888,361.121 293.831,361.287 293.760 C 361.454 293.689,361.591 293.335,361.591 292.973 C 361.591 292.611,361.940 292.063,362.367 291.756 C 362.793 291.448,363.143 290.886,363.143 290.506 C 363.143 290.126,363.317 289.816,363.531 289.816 C 363.744 289.816,363.919 289.467,363.919 289.040 C 363.919 288.613,364.093 288.264,364.306 288.264 C 364.520 288.264,364.694 287.995,364.694 287.666 C 364.694 287.337,365.044 286.693,365.470 286.235 C 365.897 285.776,366.246 285.173,366.246 284.893 C 366.246 284.613,366.421 284.384,366.634 284.384 C 366.848 284.384,367.022 284.035,367.022 283.608 C 367.022 283.181,367.153 282.832,367.313 282.831 C 367.473 282.830,368.041 281.870,368.574 280.698 C 369.108 279.526,369.675 278.567,369.835 278.566 C 369.995 278.565,370.126 278.041,370.126 277.401 C 370.126 276.760,370.301 276.237,370.514 276.237 C 370.727 276.237,370.902 275.887,370.902 275.461 C 370.902 275.034,371.077 274.685,371.290 274.685 C 371.503 274.685,371.678 274.458,371.678 274.180 C 371.678 273.466,372.590 271.588,372.939 271.584 C 373.099 271.582,373.230 271.057,373.230 270.417 C 373.230 269.777,373.404 269.253,373.618 269.253 C 373.831 269.253,374.006 269.024,374.006 268.744 C 374.006 268.464,374.376 267.468,374.829 266.530 C 375.282 265.593,375.742 264.163,375.850 263.354 C 375.959 262.544,376.199 261.882,376.385 261.882 C 376.570 261.882,376.722 261.532,376.722 261.106 C 376.722 260.679,376.896 260.330,377.110 260.330 C 377.323 260.330,377.498 259.806,377.498 259.166 C 377.498 258.526,377.672 258.002,377.886 258.002 C 378.099 258.002,378.274 257.478,378.274 256.838 C 378.274 256.198,378.448 255.674,378.661 255.674 C 378.875 255.674,379.049 255.150,379.049 254.510 C 379.049 253.870,379.224 253.346,379.437 253.346 C 379.651 253.346,379.825 252.823,379.825 252.182 C 379.825 251.542,380.000 251.018,380.213 251.018 C 380.427 251.018,380.601 250.418,380.601 249.683 C 380.601 248.949,380.776 248.241,380.989 248.109 C 381.203 247.977,381.377 247.453,381.377 246.945 C 381.377 246.436,381.552 245.913,381.765 245.781 C 381.979 245.649,382.153 244.940,382.153 244.206 C 382.153 243.472,382.328 242.871,382.541 242.871 C 382.755 242.871,382.929 242.173,382.929 241.319 C 382.929 240.466,383.104 239.767,383.317 239.767 C 383.531 239.767,383.705 238.894,383.705 237.827 C 383.705 236.760,383.880 235.887,384.093 235.887 C 384.306 235.887,384.481 235.199,384.481 234.358 C 384.481 233.518,384.656 232.722,384.869 232.590 C 385.082 232.458,385.257 231.487,385.257 230.433 C 385.257 229.379,385.432 228.516,385.645 228.516 C 385.861 228.516,386.033 227.481,386.033 226.188 C 386.033 224.895,386.205 223.860,386.421 223.860 C 386.643 223.860,386.809 222.696,386.809 221.145 C 386.809 219.593,386.975 218.429,387.197 218.429 C 387.425 218.429,387.585 217.078,387.585 215.154 C 387.585 213.349,387.762 211.769,387.980 211.635 C 388.506 211.309,388.484 176.528,387.958 176.528 C 387.747 176.528,387.585 175.011,387.585 173.036 C 387.585 170.967,387.427 169.544,387.197 169.544 C 386.975 169.544,386.809 168.380,386.809 166.828 C 386.809 165.276,386.643 164.113,386.421 164.113 C 386.208 164.113,386.033 163.163,386.033 162.002 C 386.033 160.841,385.858 159.783,385.645 159.651 C 385.432 159.519,385.257 158.559,385.257 157.517 C 385.257 156.475,385.082 155.515,384.869 155.383 C 384.656 155.251,384.481 154.281,384.481 153.226 C 384.481 152.172,384.306 151.309,384.093 151.309 C 383.880 151.309,383.705 150.611,383.705 149.758 C 383.705 148.904,383.531 148.206,383.317 148.206 C 383.104 148.206,382.929 147.595,382.929 146.848 C 382.929 146.101,382.755 145.490,382.541 145.490 C 382.328 145.490,382.153 144.802,382.153 143.961 C 382.153 143.120,381.979 142.324,381.765 142.192 C 381.552 142.060,381.377 141.439,381.377 140.811 C 381.377 140.184,381.203 139.670,380.989 139.670 C 380.776 139.670,380.601 139.059,380.601 138.312 C 380.601 137.565,380.427 136.954,380.213 136.954 C 380.000 136.954,379.825 136.431,379.825 135.790 C 379.825 135.150,379.651 134.627,379.437 134.627 C 379.224 134.627,379.049 134.200,379.049 133.680 C 379.049 133.159,378.875 132.625,378.661 132.493 C 378.448 132.361,378.274 131.739,378.274 131.112 C 378.274 130.484,378.099 129.971,377.886 129.971 C 377.672 129.971,377.498 129.447,377.498 128.807 C 377.498 128.167,377.323 127.643,377.110 127.643 C 376.896 127.643,376.722 127.207,376.722 126.673 C 376.722 126.140,376.547 125.703,376.334 125.703 C 376.120 125.703,375.946 125.494,375.946 125.237 C 375.946 124.334,374.606 120.272,374.308 120.272 C 374.142 120.272,374.006 119.940,374.006 119.535 C 374.006 119.130,373.482 117.803,372.842 116.586 C 372.202 115.369,371.678 114.129,371.678 113.831 C 371.678 113.532,371.503 113.288,371.290 113.288 C 371.077 113.288,370.902 113.024,370.902 112.701 C 370.902 112.378,370.700 111.723,370.453 111.246 C 370.207 110.769,369.841 110.049,369.641 109.646 C 369.441 109.244,368.944 108.322,368.538 107.598 C 368.131 106.873,367.798 106.024,367.798 105.711 C 367.798 105.397,367.667 105.139,367.507 105.138 C 367.181 105.134,366.246 103.274,366.246 102.627 C 366.246 102.397,365.897 101.956,365.470 101.649 C 365.044 101.341,364.694 100.779,364.694 100.399 C 364.694 100.020,364.520 99.709,364.306 99.709 C 364.093 99.709,363.919 99.360,363.919 98.933 C 363.919 98.506,363.744 98.157,363.531 98.157 C 363.317 98.157,363.143 97.808,363.143 97.381 C 363.143 96.954,362.968 96.605,362.755 96.605 C 362.541 96.605,362.367 96.295,362.367 95.915 C 362.367 95.535,362.017 94.973,361.591 94.665 C 361.164 94.358,360.815 93.883,360.815 93.610 C 360.815 93.337,360.640 93.113,360.427 93.113 C 360.213 93.113,360.039 92.859,360.039 92.549 C 360.039 92.037,358.698 89.741,357.716 88.571 C 357.500 88.313,357.323 87.872,357.323 87.590 C 357.323 87.308,356.974 86.826,356.547 86.518 C 356.120 86.210,355.771 85.727,355.771 85.445 C 355.771 85.162,355.348 84.508,354.831 83.991 C 354.314 83.474,353.779 82.696,353.641 82.263 C 353.504 81.829,353.228 81.474,353.029 81.474 C 352.830 81.474,352.667 81.212,352.667 80.892 C 352.667 80.572,352.493 80.310,352.279 80.310 C 352.066 80.310,351.891 80.087,351.891 79.814 C 351.891 79.541,351.542 79.066,351.115 78.758 C 350.689 78.451,350.339 78.020,350.338 77.800 C 350.337 77.580,349.813 76.843,349.174 76.161 C 348.535 75.479,348.012 74.810,348.012 74.675 C 348.012 74.540,347.313 73.759,346.460 72.939 C 345.606 72.119,344.908 71.261,344.908 71.032 C 344.908 70.577,343.854 69.257,341.901 67.267 C 341.208 66.560,340.640 65.840,340.640 65.668 C 340.640 65.381,339.053 63.748,330.941 55.689 C 329.340 54.099,327.420 52.129,326.673 51.312 C 325.926 50.495,324.538 49.222,323.587 48.483 C 322.637 47.743,321.298 46.615,320.613 45.975 C 318.035 43.568,316.949 42.677,316.592 42.677 C 316.389 42.677,315.613 42.066,314.866 41.319 C 314.119 40.572,313.329 39.961,313.110 39.961 C 312.892 39.961,312.212 39.437,311.601 38.797 C 310.989 38.157,310.327 37.633,310.131 37.633 C 309.934 37.633,309.522 37.284,309.214 36.857 C 308.907 36.431,308.430 36.081,308.155 36.081 C 307.880 36.081,307.107 35.558,306.437 34.918 C 305.768 34.277,305.022 33.754,304.781 33.754 C 304.539 33.754,304.090 33.404,303.783 32.978 C 303.475 32.551,302.913 32.202,302.533 32.202 C 302.154 32.202,301.843 32.057,301.843 31.879 C 301.843 31.702,301.363 31.310,300.776 31.009 C 300.189 30.708,299.427 30.154,299.082 29.780 C 298.736 29.405,298.169 29.098,297.821 29.098 C 297.472 29.098,297.187 28.923,297.187 28.710 C 297.187 28.497,297.003 28.322,296.779 28.322 C 296.554 28.322,295.728 27.886,294.943 27.352 C 294.158 26.819,293.245 26.382,292.915 26.382 C 292.585 26.382,292.063 26.033,291.756 25.606 C 291.448 25.179,290.886 24.830,290.506 24.830 C 290.126 24.830,289.816 24.656,289.816 24.442 C 289.816 24.229,289.467 24.054,289.040 24.054 C 288.613 24.054,288.264 23.880,288.264 23.666 C 288.264 23.453,287.915 23.278,287.488 23.278 C 287.061 23.278,286.712 23.104,286.712 22.890 C 286.712 22.677,286.401 22.502,286.022 22.502 C 285.642 22.502,285.080 22.153,284.772 21.726 C 284.464 21.300,283.902 20.951,283.522 20.951 C 283.143 20.951,282.832 20.776,282.832 20.563 C 282.832 20.349,282.498 20.175,282.089 20.175 C 281.680 20.175,281.287 20.044,281.216 19.884 C 281.042 19.492,277.836 17.847,277.247 17.847 C 276.562 17.847,274.691 16.925,274.688 16.586 C 274.686 16.426,274.336 16.295,273.909 16.295 C 273.482 16.295,273.133 16.120,273.133 15.907 C 273.133 15.694,272.784 15.519,272.357 15.519 C 271.930 15.519,271.581 15.344,271.581 15.131 C 271.581 14.918,271.057 14.743,270.417 14.743 C 269.777 14.743,269.253 14.568,269.253 14.355 C 269.253 14.142,268.904 13.967,268.477 13.967 C 268.050 13.967,267.701 13.831,267.701 13.664 C 267.701 13.497,266.872 13.118,265.858 12.823 C 264.845 12.527,263.754 12.160,263.434 12.007 C 263.113 11.855,262.328 11.514,261.688 11.251 C 261.048 10.988,260.214 10.615,259.836 10.421 C 259.458 10.228,258.367 9.963,257.411 9.832 C 256.456 9.701,255.674 9.443,255.674 9.259 C 255.674 9.074,255.150 8.923,254.510 8.923 C 253.870 8.923,253.346 8.749,253.346 8.535 C 253.346 8.322,252.648 8.147,251.794 8.147 C 250.941 8.147,250.242 7.973,250.242 7.759 C 250.242 7.546,249.719 7.371,249.079 7.371 C 248.438 7.371,247.915 7.197,247.915 6.984 C 247.915 6.770,247.488 6.596,246.968 6.596 C 246.447 6.596,245.913 6.421,245.781 6.208 C 245.649 5.994,244.951 5.820,244.229 5.820 C 243.507 5.820,242.809 5.645,242.677 5.432 C 242.545 5.218,241.836 5.044,241.102 5.044 C 240.368 5.044,239.767 4.869,239.767 4.656 C 239.767 4.442,238.894 4.268,237.827 4.268 C 236.760 4.268,235.887 4.093,235.887 3.880 C 235.887 3.666,235.189 3.492,234.336 3.492 C 233.482 3.492,232.784 3.317,232.784 3.104 C 232.784 2.890,231.823 2.716,230.650 2.716 C 229.476 2.716,228.516 2.541,228.516 2.328 C 228.516 2.112,227.481 1.940,226.188 1.940 C 224.895 1.940,223.860 1.767,223.860 1.552 C 223.860 1.331,222.707 1.164,221.177 1.164 C 219.436 1.164,218.439 1.001,218.338 0.699 C 218.184 0.236,182.157 -0.113,173.621 0.266 M208.337 41.222 C 207.806 41.703,206.413 42.881,205.241 43.841 C 204.070 44.801,202.673 45.959,202.138 46.415 C 201.602 46.870,192.085 54.788,180.989 64.010 C 169.893 73.231,160.378 81.152,159.845 81.612 C 159.311 82.071,155.732 85.061,151.891 88.257 C 148.050 91.452,144.821 94.163,144.714 94.282 C 144.607 94.401,144.049 94.859,143.475 95.300 C 142.900 95.740,141.503 96.895,140.371 97.866 C 139.239 98.837,136.043 101.500,133.269 103.784 C 130.495 106.069,127.789 108.313,127.255 108.772 C 126.722 109.230,123.143 112.216,119.302 115.407 C 115.461 118.598,112.231 121.308,112.124 121.428 C 111.910 121.671,102.745 129.299,83.026 145.648 C 75.878 151.575,69.593 156.802,69.059 157.263 C 68.526 157.724,63.899 161.591,58.778 165.856 C 53.657 170.122,49.030 173.984,48.497 174.441 C 47.963 174.897,45.868 176.640,43.841 178.315 C 41.814 179.990,40.068 181.457,39.961 181.576 C 38.965 182.685,35.981 184.720,35.579 184.565 C 35.297 184.457,34.786 183.259,34.441 181.903 C 34.097 180.547,33.566 178.477,33.261 177.304 C 32.955 176.130,32.491 174.122,32.228 172.842 C 31.966 171.562,31.604 169.816,31.424 168.962 C 31.052 167.198,30.512 163.654,29.798 158.293 C 29.142 153.374,29.142 133.750,29.798 128.613 C 30.275 124.879,30.455 123.709,31.472 117.750 C 35.220 95.786,48.428 68.505,63.162 52.293 C 66.424 48.704,68.015 46.894,68.756 45.928 C 69.228 45.314,69.773 44.700,69.966 44.565 C 70.159 44.429,70.253 44.124,70.173 43.885 C 70.094 43.647,69.005 44.413,67.754 45.586 C 66.503 46.760,65.328 47.721,65.142 47.721 C 64.808 47.721,62.440 50.046,57.199 55.523 C 55.690 57.100,53.056 59.699,51.344 61.300 C 49.633 62.900,48.018 64.614,47.755 65.109 C 47.492 65.604,46.417 66.887,45.365 67.961 C 44.313 69.035,43.453 70.079,43.453 70.280 C 43.453 70.481,43.060 71.066,42.580 71.580 C 41.038 73.229,40.737 73.670,40.737 74.280 C 40.737 74.610,40.571 74.879,40.369 74.879 C 39.844 74.879,37.637 77.306,37.635 77.886 C 37.634 78.152,37.488 78.371,37.311 78.371 C 37.134 78.371,36.741 78.848,36.438 79.431 C 36.135 80.014,35.407 81.000,34.821 81.622 C 34.234 82.244,33.754 82.989,33.754 83.278 C 33.754 83.566,33.609 83.802,33.431 83.802 C 33.254 83.802,32.862 84.282,32.561 84.869 C 32.260 85.456,31.706 86.218,31.331 86.563 C 30.957 86.909,30.650 87.476,30.650 87.824 C 30.650 88.173,30.505 88.458,30.327 88.458 C 30.150 88.458,29.762 88.938,29.465 89.525 C 29.168 90.112,28.290 91.552,27.514 92.726 C 26.738 93.899,25.980 95.252,25.829 95.732 C 25.678 96.212,25.391 96.605,25.192 96.605 C 24.993 96.605,24.830 96.954,24.830 97.381 C 24.830 97.808,24.656 98.157,24.442 98.157 C 24.229 98.157,24.054 98.506,24.054 98.933 C 24.054 99.360,23.880 99.709,23.666 99.709 C 23.453 99.709,23.278 100.058,23.278 100.485 C 23.278 100.912,23.104 101.261,22.890 101.261 C 22.677 101.261,22.502 101.610,22.502 102.037 C 22.502 102.464,22.328 102.813,22.114 102.813 C 21.901 102.813,21.726 103.123,21.726 103.503 C 21.726 103.883,21.377 104.445,20.951 104.753 C 20.524 105.060,20.175 105.623,20.175 106.002 C 20.175 106.382,20.044 106.694,19.884 106.696 C 19.490 106.700,18.623 108.619,18.623 109.486 C 18.623 109.870,18.448 110.184,18.235 110.184 C 18.021 110.184,17.847 110.533,17.847 110.960 C 17.847 111.387,17.672 111.736,17.459 111.736 C 17.245 111.736,17.071 112.085,17.071 112.512 C 17.071 112.939,16.896 113.288,16.683 113.288 C 16.469 113.288,16.295 113.637,16.295 114.064 C 16.295 114.491,16.120 114.840,15.907 114.840 C 15.694 114.840,15.519 115.189,15.519 115.616 C 15.519 116.043,15.344 116.392,15.131 116.392 C 14.918 116.392,14.743 116.916,14.743 117.556 C 14.743 118.196,14.568 118.720,14.355 118.720 C 14.142 118.720,13.967 119.069,13.967 119.496 C 13.967 119.922,13.792 120.272,13.579 120.272 C 13.366 120.272,13.191 120.795,13.191 121.435 C 13.191 122.076,13.016 122.599,12.803 122.599 C 12.590 122.599,12.415 122.838,12.415 123.130 C 12.415 123.632,11.405 126.378,10.233 129.060 C 9.940 129.732,9.699 130.736,9.699 131.290 C 9.699 131.845,9.525 132.299,9.311 132.299 C 9.098 132.299,8.923 132.823,8.923 133.463 C 8.923 134.103,8.749 134.627,8.535 134.627 C 8.322 134.627,8.147 135.325,8.147 136.178 C 8.147 137.032,7.973 137.730,7.759 137.730 C 7.546 137.730,7.371 138.157,7.371 138.677 C 7.371 139.198,7.197 139.732,6.984 139.864 C 6.770 139.996,6.596 140.705,6.596 141.439 C 6.596 142.173,6.421 142.774,6.208 142.774 C 5.994 142.774,5.820 143.287,5.820 143.915 C 5.820 144.543,5.645 145.164,5.432 145.296 C 5.218 145.428,5.044 146.136,5.044 146.871 C 5.044 147.605,4.869 148.206,4.656 148.206 C 4.442 148.206,4.268 149.079,4.268 150.145 C 4.268 151.212,4.093 152.085,3.880 152.085 C 3.666 152.085,3.492 152.958,3.492 154.025 C 3.492 155.092,3.317 155.965,3.104 155.965 C 2.890 155.965,2.716 156.751,2.716 157.711 C 2.716 158.671,2.541 159.457,2.328 159.457 C 2.112 159.457,1.940 160.491,1.940 161.785 C 1.940 163.078,1.767 164.113,1.552 164.113 C 1.331 164.113,1.164 165.251,1.164 166.751 C 1.164 168.344,0.972 169.581,0.679 169.874 C -0.028 170.581,-0.028 217.392,0.679 218.099 C 0.972 218.392,1.164 219.629,1.164 221.222 C 1.164 222.722,1.331 223.860,1.552 223.860 C 1.765 223.860,1.940 224.810,1.940 225.971 C 1.940 227.132,2.114 228.190,2.328 228.322 C 2.541 228.454,2.716 229.424,2.716 230.479 C 2.716 231.533,2.890 232.396,3.104 232.396 C 3.317 232.396,3.492 233.181,3.492 234.142 C 3.492 235.102,3.666 235.887,3.880 235.887 C 4.093 235.887,4.268 236.663,4.268 237.610 C 4.268 238.558,4.442 239.441,4.656 239.573 C 4.869 239.705,5.044 240.501,5.044 241.342 C 5.044 242.183,5.218 242.871,5.432 242.871 C 5.645 242.871,5.820 243.395,5.820 244.035 C 5.820 244.675,5.994 245.199,6.208 245.199 C 6.421 245.199,6.596 245.897,6.596 246.751 C 6.596 247.604,6.770 248.303,6.984 248.303 C 7.197 248.303,7.371 248.826,7.371 249.467 C 7.371 250.107,7.546 250.630,7.759 250.630 C 7.973 250.630,8.147 251.242,8.147 251.988 C 8.147 252.735,8.322 253.346,8.535 253.346 C 8.749 253.346,8.923 253.870,8.923 254.510 C 8.923 255.150,9.098 255.674,9.311 255.674 C 9.525 255.674,9.699 256.107,9.699 256.636 C 9.699 257.488,10.265 259.317,11.262 261.688 C 11.441 262.114,11.810 263.162,12.081 264.016 C 12.352 264.869,12.712 265.733,12.882 265.936 C 13.052 266.139,13.191 266.619,13.191 267.003 C 13.191 267.387,13.366 267.701,13.579 267.701 C 13.792 267.701,13.967 267.963,13.967 268.283 C 13.967 269.563,15.162 268.696,18.218 265.199 C 27.466 254.615,42.519 245.344,55.189 242.430 C 55.989 242.246,57.386 241.923,58.293 241.713 C 61.828 240.892,68.301 240.030,72.745 239.786 C 77.065 239.550,76.828 239.527,69.447 239.472 C 44.141 239.282,26.348 232.862,21.346 222.114 C 15.159 208.822,20.592 195.087,35.887 185.358 C 36.741 184.815,37.789 184.040,38.215 183.636 C 38.642 183.232,42.134 180.295,45.975 177.109 C 49.816 173.923,53.220 171.039,53.540 170.699 C 53.860 170.360,54.488 169.831,54.934 169.522 C 55.381 169.214,56.588 168.264,57.616 167.410 C 58.645 166.557,61.771 163.964,64.564 161.648 C 67.356 159.332,70.259 156.888,71.015 156.216 C 71.771 155.545,73.021 154.518,73.794 153.934 C 74.567 153.351,75.433 152.650,75.718 152.378 C 76.003 152.105,78.332 150.145,80.892 148.022 C 83.453 145.898,85.635 144.067,85.742 143.952 C 85.849 143.838,86.761 143.081,87.769 142.271 C 88.778 141.461,89.825 140.587,90.097 140.329 C 90.545 139.905,93.757 137.244,95.576 135.790 C 95.976 135.470,96.503 135.027,96.746 134.805 C 96.988 134.584,98.671 133.197,100.485 131.724 C 102.299 130.251,103.870 128.948,103.977 128.828 C 104.083 128.709,105.742 127.303,107.662 125.703 C 109.583 124.104,111.242 122.705,111.348 122.595 C 111.455 122.485,112.502 121.614,113.676 120.660 C 114.850 119.705,115.897 118.832,116.004 118.720 C 116.111 118.607,117.155 117.732,118.326 116.774 C 120.920 114.653,122.177 113.606,122.748 113.092 C 122.986 112.878,124.142 111.919,125.315 110.960 C 126.489 110.002,127.636 109.042,127.865 108.828 C 128.094 108.614,129.054 107.800,129.999 107.019 C 135.588 102.400,142.328 96.803,143.166 96.083 C 143.701 95.623,145.098 94.464,146.270 93.507 C 147.441 92.549,148.487 91.674,148.594 91.562 C 148.700 91.449,149.748 90.576,150.921 89.622 C 152.095 88.667,153.143 87.794,153.249 87.682 C 153.356 87.569,154.403 86.696,155.577 85.742 C 156.751 84.788,157.798 83.910,157.905 83.792 C 158.012 83.673,160.019 82.017,162.367 80.111 C 164.714 78.205,166.896 76.370,167.216 76.032 C 167.536 75.694,168.162 75.165,168.607 74.857 C 169.052 74.549,170.274 73.559,171.323 72.657 C 172.372 71.755,174.539 69.944,176.140 68.632 C 177.740 67.321,179.576 65.789,180.220 65.229 C 180.863 64.668,182.212 63.547,183.217 62.737 C 184.222 61.926,185.266 61.048,185.538 60.785 C 185.810 60.522,190.310 56.757,195.538 52.419 C 200.766 48.080,205.894 43.808,206.933 42.925 C 209.532 40.717,209.565 40.731,208.694 43.718 C 207.775 46.873,207.352 49.114,207.903 47.915 C 208.099 47.488,208.470 46.353,208.729 45.393 C 208.987 44.433,209.355 43.246,209.546 42.756 C 210.414 40.530,209.868 39.838,208.337 41.222 M205.864 53.242 C 205.079 55.647,204.285 57.963,204.100 58.390 C 203.915 58.817,203.554 59.777,203.298 60.524 C 203.041 61.271,202.675 62.274,202.483 62.755 C 202.291 63.235,201.959 64.064,201.746 64.597 C 201.532 65.131,201.201 65.960,201.009 66.440 C 200.618 67.421,199.901 69.106,198.657 71.969 C 198.193 73.036,196.944 75.632,195.881 77.737 C 194.818 79.843,194.036 81.653,194.143 81.761 C 194.589 82.206,200.701 68.713,203.586 60.912 C 206.122 54.057,207.689 49.267,207.469 49.047 C 207.372 48.949,206.649 50.837,205.864 53.242 M192.322 84.822 C 191.600 86.288,190.632 88.143,190.170 88.943 C 189.048 90.888,187.954 92.803,186.957 94.568 C 186.506 95.369,185.807 96.487,185.406 97.053 C 185.004 97.620,184.675 98.274,184.675 98.508 C 184.675 98.742,184.500 98.933,184.287 98.933 C 184.074 98.933,183.899 99.121,183.899 99.350 C 183.899 100.212,173.296 115.206,170.613 118.138 C 170.027 118.778,169.547 119.456,169.546 119.644 C 169.545 119.832,169.237 120.269,168.861 120.614 C 168.485 120.959,167.222 122.376,166.055 123.763 C 164.889 125.150,163.016 127.245,161.894 128.419 C 159.984 130.417,159.379 131.523,160.196 131.523 C 160.389 131.523,170.854 126.372,183.452 120.078 C 208.190 107.717,207.015 108.262,206.384 109.442 C 206.146 109.887,206.043 110.343,206.157 110.457 C 206.384 110.684,207.536 108.145,207.320 107.893 C 207.246 107.806,196.845 112.904,184.206 119.221 C 171.568 125.538,161.155 130.634,161.066 130.546 C 160.978 130.457,161.948 129.201,163.223 127.753 C 174.259 115.218,184.681 100.281,191.871 86.694 C 193.070 84.428,193.957 82.480,193.843 82.365 C 193.728 82.250,193.044 83.356,192.322 84.822 M204.678 113.155 C 204.125 114.402,203.417 115.858,203.103 116.392 C 202.790 116.925,201.709 119.020,200.702 121.048 C 199.694 123.075,198.760 124.821,198.626 124.927 C 198.492 125.034,197.852 126.081,197.205 127.255 C 194.906 131.424,187.966 142.640,187.363 143.162 C 187.240 143.269,186.376 144.491,185.444 145.878 C 183.861 148.234,178.981 154.757,178.479 155.189 C 178.355 155.296,177.647 156.169,176.907 157.129 C 176.166 158.089,175.210 159.250,174.783 159.709 C 174.355 160.168,173.133 161.560,172.066 162.802 C 168.108 167.410,158.190 177.098,153.637 180.804 C 152.464 181.760,151.416 182.629,151.309 182.736 C 151.203 182.843,150.068 183.716,148.788 184.675 C 147.507 185.634,146.372 186.518,146.266 186.638 C 144.277 188.885,129.437 197.635,121.629 201.165 C 116.889 203.307,116.169 203.616,114.840 204.073 C 111.602 205.187,109.796 206.050,109.796 206.485 C 109.796 206.853,123.261 206.589,135.015 205.992 C 138.962 205.791,143.938 205.629,146.072 205.631 L 149.952 205.635 147.818 207.677 C 146.644 208.801,144.462 210.763,142.968 212.037 C 141.474 213.312,140.165 214.448,140.058 214.561 C 139.952 214.674,138.729 215.604,137.342 216.628 C 135.955 217.652,134.323 218.868,133.715 219.332 C 133.106 219.795,132.146 220.436,131.581 220.757 C 131.015 221.077,130.466 221.449,130.359 221.585 C 130.252 221.720,129.554 222.178,128.807 222.602 C 128.060 223.026,125.725 224.374,123.617 225.597 C 121.509 226.820,119.152 228.079,118.379 228.395 C 117.606 228.711,116.014 229.409,114.840 229.947 C 113.666 230.485,112.357 231.058,111.930 231.221 C 111.503 231.383,110.718 231.696,110.184 231.917 C 109.651 232.137,108.603 232.527,107.856 232.784 C 106.441 233.270,105.680 233.556,103.861 234.287 C 103.265 234.527,102.358 234.724,101.848 234.724 C 101.337 234.724,100.811 234.898,100.679 235.112 C 100.547 235.325,100.057 235.502,99.589 235.505 C 99.122 235.509,98.477 235.697,98.157 235.925 C 97.266 236.558,103.399 235.032,106.111 233.946 C 106.537 233.775,107.934 233.247,109.214 232.772 C 117.832 229.574,126.953 224.632,135.453 218.557 C 140.945 214.631,150.533 206.327,150.533 205.497 C 150.533 205.247,147.062 205.217,140.543 205.412 C 135.048 205.577,126.625 205.829,121.823 205.974 C 110.990 206.299,110.608 206.200,115.441 204.310 C 119.319 202.794,124.385 200.575,126.091 199.643 C 126.625 199.352,128.263 198.480,129.731 197.704 C 131.200 196.929,132.885 195.949,133.477 195.528 C 134.068 195.107,134.665 194.762,134.803 194.762 C 135.427 194.762,146.513 187.080,150.533 183.862 C 165.147 172.165,180.782 154.753,190.370 139.498 C 192.427 136.224,195.611 131.017,196.372 129.680 C 196.767 128.986,197.467 127.764,197.928 126.964 C 201.409 120.919,206.168 111.373,205.856 111.061 C 205.760 110.965,205.230 111.907,204.678 113.155 M276.876 115.091 C 276.291 116.284,275.889 117.338,275.984 117.432 C 276.078 117.527,276.634 116.627,277.218 115.433 C 277.802 114.239,278.204 113.186,278.110 113.092 C 278.016 112.998,277.461 113.898,276.876 115.091 M274.272 120.335 C 272.543 123.630,270.972 126.431,270.357 127.315 C 269.963 127.881,269.641 128.460,269.641 128.600 C 269.641 128.740,267.996 131.332,265.985 134.359 C 256.767 148.241,247.109 157.842,237.318 162.858 C 236.718 163.166,236.317 163.508,236.428 163.618 C 238.327 165.517,263.046 142.916,263.046 139.280 C 263.046 139.068,263.191 138.894,263.368 138.894 C 263.545 138.894,263.938 138.414,264.240 137.827 C 264.543 137.241,264.894 136.673,265.021 136.566 C 266.262 135.524,275.315 119.997,274.916 119.597 C 274.823 119.505,274.534 119.837,274.272 120.335 M282.496 151.610 C 280.843 153.245,280.259 154.182,278.934 157.323 C 277.572 160.552,277.575 168.001,278.939 171.290 C 280.608 175.310,281.875 176.997,284.067 178.116 C 287.464 179.849,291.441 178.111,293.638 173.934 C 294.616 172.074,294.001 172.197,292.922 174.078 C 286.094 185.984,274.777 171.733,279.462 157.129 C 282.496 147.669,290.751 147.873,294.297 157.496 C 294.730 158.673,294.805 158.733,294.807 157.905 C 294.808 157.371,294.243 155.888,293.550 154.609 C 290.692 149.331,286.067 148.076,282.496 151.610 M295.152 162.866 C 295.270 165.436,295.137 167.436,294.734 169.154 C 294.240 171.260,294.130 173.160,294.601 171.443 C 294.683 171.145,294.949 170.279,295.193 169.517 C 295.704 167.917,295.797 159.602,295.307 159.300 C 295.126 159.188,295.057 160.793,295.152 162.866 M233.560 164.524 C 232.813 164.917,232.464 165.240,232.784 165.242 C 233.104 165.243,233.977 164.909,234.724 164.500 C 235.470 164.092,235.820 163.769,235.500 163.783 C 235.179 163.797,234.306 164.130,233.560 164.524 M230.262 165.664 L 229.486 165.998 230.262 166.019 C 230.689 166.031,231.300 165.871,231.620 165.664 C 232.391 165.166,231.422 165.166,230.262 165.664 M227.352 166.335 C 226.347 166.517,225.024 167.487,225.024 168.041 C 225.024 168.339,222.327 174.081,218.030 182.929 C 215.678 187.774,215.229 188.943,215.723 188.943 C 215.931 188.943,216.101 188.709,216.101 188.422 C 216.101 188.136,216.949 186.172,217.985 184.058 C 220.147 179.648,222.540 174.641,224.690 170.029 C 226.027 167.159,226.292 166.828,227.252 166.822 C 227.840 166.819,228.584 166.647,228.904 166.440 C 229.561 166.016,229.228 165.993,227.352 166.335 M213.221 193.104 C 212.217 195.190,211.053 197.576,210.635 198.406 C 210.216 199.236,209.962 200.004,210.070 200.112 C 210.177 200.219,211.231 198.230,212.411 195.692 C 213.590 193.154,214.741 190.754,214.967 190.360 C 215.194 189.966,215.304 189.569,215.213 189.478 C 215.122 189.386,214.226 191.018,213.221 193.104 M208.720 202.387 C 207.891 204.245,207.173 205.749,200.988 218.573 C 199.252 222.173,197.911 225.198,198.008 225.296 C 198.106 225.393,198.750 224.281,199.440 222.824 C 200.130 221.367,202.262 216.945,204.179 212.997 C 208.655 203.778,209.953 200.900,209.735 200.682 C 209.638 200.586,209.182 201.353,208.720 202.387 M196.140 228.769 C 195.375 230.443,194.565 232.136,194.341 232.531 C 194.116 232.925,194.024 233.339,194.136 233.451 C 194.248 233.563,194.802 232.629,195.366 231.376 C 195.931 230.123,196.742 228.432,197.169 227.618 C 197.595 226.803,197.851 226.044,197.738 225.930 C 197.624 225.817,196.905 227.094,196.140 228.769 M192.418 236.536 C 190.915 239.725,186.928 248.025,184.005 254.048 C 182.834 256.462,181.970 258.530,182.085 258.645 C 182.200 258.760,182.669 258.007,183.128 256.973 C 183.588 255.938,184.900 253.172,186.044 250.824 C 191.831 238.955,194.027 234.247,193.856 234.076 C 193.752 233.972,193.105 235.079,192.418 236.536 M94.859 236.663 C 94.584 237.110,95.212 237.110,96.605 236.663 C 97.532 236.367,97.519 236.351,96.337 236.314 C 95.656 236.293,94.991 236.450,94.859 236.663 M91.174 237.439 C 90.854 237.646,89.893 237.830,89.040 237.849 C 88.186 237.867,87.139 238.045,86.712 238.245 C 85.643 238.745,89.560 238.337,92.338 237.658 C 94.247 237.192,94.328 237.133,93.113 237.100 C 92.367 237.080,91.494 237.233,91.174 237.439 M79.728 238.991 C 78.046 239.419,81.415 239.436,83.802 239.011 L 85.548 238.700 83.220 238.698 C 81.940 238.696,80.369 238.828,79.728 238.991 M179.832 262.858 C 178.849 264.934,178.135 266.722,178.245 266.833 C 178.356 266.943,178.630 266.549,178.854 265.958 C 179.079 265.367,179.876 263.662,180.626 262.169 C 181.375 260.675,181.905 259.370,181.804 259.269 C 181.702 259.168,180.815 260.783,179.832 262.858 M176.217 270.488 C 175.363 272.263,173.056 277.032,171.089 281.086 C 166.817 289.893,165.970 291.803,166.226 292.058 C 166.332 292.164,166.607 291.747,166.836 291.130 C 167.066 290.514,168.190 288.089,169.334 285.742 C 176.313 271.418,178.110 267.602,177.949 267.441 C 177.850 267.342,177.070 268.713,176.217 270.488 M163.512 297.036 C 162.317 299.573,160.581 303.220,159.655 305.141 C 153.303 318.313,147.991 329.431,146.772 332.105 C 146.237 333.278,144.508 336.906,142.929 340.167 C 141.350 343.428,140.058 346.251,140.058 346.441 C 140.058 346.874,136.623 352.841,134.962 355.295 C 128.537 364.785,118.556 373.813,109.273 378.533 C 108.238 379.059,107.471 379.569,107.568 379.666 C 107.969 380.067,117.639 374.184,119.539 372.383 C 119.836 372.102,120.864 371.238,121.824 370.463 C 124.838 368.030,129.623 363.079,132.284 359.641 C 133.023 358.686,133.765 357.847,133.933 357.776 C 134.101 357.704,134.239 357.426,134.239 357.157 C 134.239 356.888,134.588 356.351,135.015 355.965 C 135.441 355.579,135.790 355.103,135.790 354.908 C 135.790 354.713,136.314 353.792,136.954 352.861 C 137.595 351.931,138.118 350.997,138.118 350.787 C 138.118 350.576,138.249 350.346,138.409 350.275 C 138.569 350.204,139.080 349.360,139.544 348.400 C 142.470 342.344,146.266 334.322,146.266 334.194 C 146.266 334.005,150.339 325.493,158.458 308.715 C 160.501 304.493,162.173 300.963,162.173 300.872 C 162.173 300.780,163.042 298.921,164.104 296.740 C 165.167 294.558,165.957 292.695,165.861 292.599 C 165.765 292.503,164.708 294.499,163.512 297.036 M103.783 381.187 C 98.713 383.606,91.885 385.575,84.190 386.840 C 82.590 387.103,81.047 387.437,80.761 387.583 C 80.032 387.955,84.600 387.604,85.548 387.215 C 85.975 387.040,87.546 386.686,89.040 386.428 C 90.533 386.170,92.279 385.805,92.919 385.617 C 95.355 384.900,99.166 383.638,100.097 383.240 C 100.630 383.012,101.416 382.692,101.843 382.530 C 103.393 381.940,107.081 380.152,107.081 379.991 C 107.081 379.681,106.500 379.892,103.783 381.187 " stroke="none" fill="#ccb474" fill-rule="evenodd"></path><path id="path1" d="M207.525 42.395 C 206.756 43.084,201.781 47.254,196.468 51.662 C 191.156 56.070,186.372 60.062,185.839 60.532 C 185.306 61.002,184.086 62.022,183.129 62.798 C 182.173 63.574,180.863 64.668,180.220 65.229 C 179.576 65.789,177.740 67.321,176.140 68.632 C 174.539 69.944,172.372 71.755,171.323 72.657 C 170.274 73.559,169.052 74.549,168.607 74.857 C 168.162 75.165,167.536 75.694,167.216 76.032 C 166.896 76.370,164.714 78.205,162.367 80.111 C 160.019 82.017,158.012 83.673,157.905 83.792 C 157.798 83.910,156.751 84.788,155.577 85.742 C 154.403 86.696,153.356 87.569,153.249 87.682 C 153.143 87.794,152.095 88.667,150.921 89.622 C 149.748 90.576,148.700 91.449,148.594 91.562 C 148.487 91.674,147.441 92.549,146.270 93.507 C 145.098 94.464,143.701 95.623,143.166 96.083 C 142.328 96.803,135.588 102.400,129.999 107.019 C 129.054 107.800,128.094 108.614,127.865 108.828 C 127.636 109.042,126.492 110.003,125.321 110.962 C 122.667 113.137,121.455 114.147,120.899 114.648 C 120.661 114.862,119.505 115.820,118.332 116.776 C 117.158 117.733,116.111 118.607,116.004 118.720 C 115.897 118.832,114.850 119.705,113.676 120.660 C 112.502 121.614,111.455 122.485,111.348 122.595 C 111.242 122.705,109.583 124.104,107.662 125.703 C 105.742 127.303,104.083 128.709,103.977 128.828 C 103.870 128.948,102.299 130.254,100.485 131.732 C 95.706 135.624,95.782 135.561,95.301 135.986 C 95.058 136.201,93.899 137.160,92.726 138.118 C 91.552 139.077,90.369 140.072,90.097 140.329 C 89.825 140.587,88.778 141.461,87.769 142.271 C 86.761 143.081,85.849 143.838,85.742 143.952 C 85.635 144.067,83.453 145.898,80.892 148.022 C 78.332 150.145,76.003 152.105,75.718 152.378 C 75.433 152.650,74.567 153.351,73.794 153.934 C 73.021 154.518,71.771 155.545,71.015 156.216 C 70.259 156.888,67.356 159.332,64.564 161.648 C 61.771 163.964,58.645 166.557,57.616 167.410 C 56.588 168.264,55.381 169.214,54.934 169.522 C 54.488 169.831,53.860 170.360,53.540 170.699 C 53.220 171.039,49.816 173.923,45.975 177.109 C 42.134 180.295,38.642 183.232,38.215 183.636 C 37.789 184.040,36.741 184.815,35.887 185.358 C 24.488 192.609,19.062 200.899,19.024 211.123 C 18.964 227.521,29.315 235.029,57.226 238.831 C 61.404 239.400,77.999 239.655,78.797 239.162 C 78.994 239.039,80.856 238.777,82.934 238.579 C 85.012 238.381,87.759 238.037,89.040 237.814 C 90.320 237.591,92.066 237.311,92.919 237.190 C 93.773 237.070,94.637 236.815,94.840 236.624 C 95.043 236.432,95.641 236.275,96.170 236.275 C 97.162 236.275,99.392 235.662,100.577 235.064 C 100.947 234.877,101.594 234.724,102.013 234.724 C 102.433 234.724,103.265 234.527,103.861 234.287 C 105.680 233.556,106.441 233.270,107.856 232.784 C 108.603 232.527,109.607 232.160,110.087 231.969 C 110.567 231.777,111.353 231.463,111.833 231.272 C 112.313 231.081,113.666 230.485,114.840 229.947 C 116.014 229.409,117.606 228.711,118.379 228.395 C 119.152 228.079,121.509 226.820,123.617 225.597 C 125.725 224.374,128.060 223.026,128.807 222.602 C 129.554 222.178,130.252 221.720,130.359 221.585 C 130.466 221.449,131.015 221.077,131.581 220.757 C 132.146 220.436,133.106 219.795,133.715 219.332 C 134.323 218.868,135.955 217.652,137.342 216.628 C 138.729 215.604,139.952 214.674,140.058 214.561 C 140.165 214.448,141.474 213.312,142.968 212.037 C 144.462 210.763,146.644 208.801,147.818 207.677 L 149.952 205.635 146.072 205.631 C 143.938 205.629,138.962 205.791,135.015 205.992 C 123.261 206.589,109.796 206.853,109.796 206.485 C 109.796 206.050,111.602 205.187,114.840 204.073 C 116.169 203.616,116.889 203.307,121.629 201.165 C 129.437 197.635,144.277 188.885,146.266 186.638 C 146.372 186.518,147.507 185.634,148.788 184.675 C 150.068 183.716,151.203 182.843,151.309 182.736 C 151.416 182.629,152.464 181.760,153.637 180.804 C 158.190 177.098,168.108 167.410,172.066 162.802 C 173.133 161.560,174.355 160.168,174.783 159.709 C 175.210 159.250,176.166 158.089,176.907 157.129 C 177.647 156.169,178.355 155.296,178.479 155.189 C 178.981 154.757,183.861 148.234,185.444 145.878 C 186.376 144.491,187.240 143.269,187.363 143.162 C 187.966 142.640,194.906 131.424,197.205 127.255 C 197.852 126.081,198.492 125.034,198.626 124.927 C 198.760 124.821,199.694 123.075,200.702 121.048 C 201.709 119.020,202.787 116.925,203.098 116.392 C 203.992 114.856,206.726 108.840,206.593 108.701 C 206.527 108.631,196.140 113.738,183.510 120.049 C 170.880 126.359,160.389 131.523,160.196 131.523 C 159.379 131.523,159.984 130.417,161.894 128.419 C 163.016 127.245,164.889 125.150,166.055 123.763 C 167.222 122.376,168.485 120.959,168.861 120.614 C 169.237 120.269,169.545 119.832,169.546 119.644 C 169.547 119.456,170.027 118.778,170.613 118.138 C 173.296 115.206,183.899 100.212,183.899 99.350 C 183.899 99.121,184.074 98.933,184.287 98.933 C 184.500 98.933,184.675 98.742,184.675 98.508 C 184.675 98.274,185.004 97.620,185.406 97.053 C 185.807 96.487,186.506 95.369,186.957 94.568 C 187.409 93.768,188.128 92.502,188.555 91.756 C 188.982 91.009,189.705 89.743,190.162 88.943 C 191.333 86.894,197.630 74.303,198.651 71.969 C 200.219 68.387,201.181 66.104,201.798 64.500 C 201.983 64.020,202.291 63.235,202.483 62.755 C 202.675 62.274,203.041 61.271,203.298 60.524 C 203.554 59.777,203.913 58.817,204.094 58.390 C 204.555 57.307,207.429 48.512,207.707 47.333 C 207.833 46.799,208.277 45.184,208.693 43.744 C 209.554 40.767,209.462 40.661,207.525 42.395 M289.923 80.073 C 289.341 83.729,287.053 91.864,285.546 95.635 C 285.375 96.062,284.850 97.459,284.378 98.739 C 283.906 100.019,283.278 101.634,282.982 102.328 C 282.474 103.518,282.156 104.261,280.657 107.759 C 276.395 117.701,267.087 134.854,265.024 136.566 C 264.895 136.673,264.543 137.241,264.240 137.827 C 263.938 138.414,263.545 138.894,263.368 138.894 C 263.191 138.894,263.046 139.068,263.046 139.280 C 263.046 140.030,258.147 146.071,254.179 150.214 C 246.632 158.095,238.594 163.585,231.620 165.623 C 230.660 165.904,229.473 166.290,228.983 166.481 C 228.493 166.672,227.662 166.828,227.137 166.828 C 226.320 166.828,225.966 167.291,224.690 170.029 C 222.540 174.641,220.147 179.648,217.985 184.058 C 216.949 186.172,216.101 188.136,216.101 188.422 C 216.101 188.709,215.969 188.943,215.808 188.943 C 215.646 188.943,215.271 189.510,214.974 190.204 C 214.677 190.897,213.150 194.137,211.581 197.404 C 210.013 200.671,208.729 203.405,208.729 203.480 C 208.729 203.556,206.881 207.430,204.623 212.090 C 200.748 220.083,197.660 226.518,195.157 231.814 C 192.677 237.063,188.013 246.801,186.239 250.436 C 183.627 255.790,179.772 263.880,178.387 266.917 C 177.350 269.191,175.419 273.215,169.539 285.354 C 166.041 292.573,162.173 300.730,162.173 300.885 C 162.173 300.969,160.501 304.493,158.458 308.715 C 150.339 325.493,146.266 334.005,146.266 334.194 C 146.266 334.322,142.470 342.344,139.544 348.400 C 139.080 349.360,138.569 350.204,138.409 350.275 C 138.249 350.346,138.118 350.576,138.118 350.787 C 138.118 350.997,137.595 351.931,136.954 352.861 C 136.314 353.792,135.790 354.713,135.790 354.908 C 135.790 355.103,135.441 355.579,135.015 355.965 C 134.588 356.351,134.239 356.888,134.239 357.157 C 134.239 357.426,134.101 357.704,133.933 357.776 C 133.765 357.847,133.023 358.686,132.284 359.641 C 129.623 363.079,124.838 368.030,121.824 370.463 C 120.864 371.238,119.834 372.104,119.535 372.387 C 117.232 374.571,106.824 380.536,101.649 382.639 C 101.115 382.856,100.330 383.173,99.903 383.344 C 99.085 383.671,94.889 385.037,92.919 385.617 C 92.279 385.805,90.533 386.170,89.040 386.428 C 87.546 386.686,85.975 387.048,85.548 387.233 C 85.121 387.417,83.899 387.628,82.832 387.701 C 81.765 387.774,109.582 387.822,144.647 387.806 L 208.402 387.779 209.548 385.063 C 210.550 382.687,211.523 380.542,212.674 378.176 C 213.260 376.971,235.309 328.507,237.517 323.569 C 243.667 309.822,250.671 305.098,262.940 306.423 C 265.239 306.671,269.302 307.054,271.969 307.274 C 274.636 307.494,278.697 307.869,280.992 308.107 C 295.469 309.613,301.321 307.545,305.073 299.601 L 306.305 296.993 306.333 287.682 C 306.368 276.261,306.803 273.929,310.079 267.594 C 313.145 261.666,310.840 256.972,304.143 255.504 C 297.914 254.138,292.105 251.931,288.280 249.477 C 285.320 247.577,286.226 247.139,293.106 247.139 C 294.856 247.139,297.756 246.965,299.550 246.753 C 301.345 246.541,304.471 246.177,306.499 245.945 C 316.829 244.760,318.355 242.706,316.557 232.411 C 315.319 225.321,314.599 226.314,324.579 221.342 C 336.663 215.323,336.913 214.995,334.054 208.923 C 333.451 207.643,331.091 201.969,328.810 196.314 C 326.528 190.660,324.083 184.636,323.376 182.929 C 322.668 181.222,321.441 178.254,320.649 176.334 C 319.856 174.413,318.986 172.318,318.715 171.678 C 318.444 171.038,317.927 169.728,317.566 168.768 C 317.205 167.808,316.671 166.499,316.378 165.858 C 311.126 154.363,306.898 139.271,306.889 131.986 C 306.886 129.610,305.691 121.329,304.499 115.422 C 302.191 103.982,298.278 92.586,292.815 81.390 C 290.395 76.430,290.495 76.476,289.923 80.073 M290.635 151.020 C 292.454 152.408,294.794 156.285,294.834 157.979 C 294.848 158.553,295.034 159.131,295.247 159.263 C 295.468 159.399,295.635 161.359,295.635 163.817 C 295.635 167.712,295.396 169.289,294.442 171.678 C 294.272 172.105,294.027 172.831,293.898 173.293 C 292.767 177.355,287.572 179.904,284.067 178.116 C 281.875 176.997,280.608 175.310,278.939 171.290 C 277.575 168.001,277.572 160.552,278.934 157.323 C 280.259 154.182,280.843 153.245,282.496 151.610 C 284.990 149.142,287.896 148.931,290.635 151.020 " stroke="none" fill="#fbfbfb" fill-rule="evenodd"></path><path id="path2" d="M157.517 4.721 C 154.850 4.938,150.965 5.089,148.885 5.057 C 146.445 5.019,145.102 5.144,145.102 5.409 C 145.102 5.643,144.268 5.820,143.162 5.820 C 142.095 5.820,141.222 5.994,141.222 6.208 C 141.222 6.421,140.436 6.596,139.476 6.596 C 138.516 6.596,137.730 6.770,137.730 6.984 C 137.730 7.197,137.032 7.371,136.178 7.371 C 135.325 7.371,134.627 7.546,134.627 7.759 C 134.627 7.973,133.928 8.147,133.075 8.147 C 132.221 8.147,131.523 8.322,131.523 8.535 C 131.523 8.749,130.824 8.923,129.971 8.923 C 129.117 8.923,128.419 9.078,128.419 9.267 C 128.419 9.455,127.462 9.730,126.291 9.876 C 125.121 10.022,124.063 10.304,123.941 10.502 C 123.818 10.701,123.291 10.863,122.771 10.863 C 122.250 10.863,121.823 11.038,121.823 11.251 C 121.823 11.465,121.397 11.639,120.876 11.639 C 120.356 11.639,119.822 11.814,119.690 12.027 C 119.558 12.241,119.034 12.415,118.526 12.415 C 118.017 12.415,117.494 12.590,117.362 12.803 C 117.230 13.016,116.783 13.191,116.369 13.191 C 115.955 13.191,115.616 13.366,115.616 13.579 C 115.616 13.792,115.267 13.967,114.840 13.967 C 114.413 13.967,114.064 14.142,114.064 14.355 C 114.064 14.568,113.638 14.743,113.117 14.743 C 112.596 14.743,112.062 14.918,111.930 15.131 C 111.798 15.344,111.352 15.519,110.937 15.519 C 110.523 15.519,110.184 15.694,110.184 15.907 C 110.184 16.120,109.835 16.295,109.408 16.295 C 108.982 16.295,108.632 16.469,108.632 16.683 C 108.632 16.896,108.283 17.071,107.856 17.071 C 107.430 17.071,107.081 17.245,107.081 17.459 C 107.081 17.672,106.819 17.847,106.499 17.847 C 106.178 17.847,105.917 18.021,105.917 18.235 C 105.917 18.448,105.567 18.623,105.141 18.623 C 104.714 18.623,104.365 18.797,104.365 19.011 C 104.365 19.224,104.016 19.399,103.589 19.399 C 103.162 19.399,102.813 19.573,102.813 19.787 C 102.813 20.000,102.464 20.175,102.037 20.175 C 101.610 20.175,101.261 20.349,101.261 20.563 C 101.261 20.776,100.912 20.951,100.485 20.951 C 100.058 20.951,99.709 21.125,99.709 21.339 C 99.709 21.552,99.398 21.726,99.019 21.726 C 98.639 21.726,98.077 22.076,97.769 22.502 C 97.462 22.929,96.899 23.278,96.520 23.278 C 96.140 23.278,95.829 23.453,95.829 23.666 C 95.829 23.880,95.519 24.054,95.139 24.054 C 94.759 24.054,94.197 24.403,93.889 24.830 C 93.582 25.257,93.020 25.606,92.640 25.606 C 92.260 25.606,91.950 25.769,91.950 25.968 C 91.950 26.167,91.557 26.454,91.077 26.605 C 90.597 26.757,89.921 27.205,89.576 27.602 C 89.231 27.998,88.777 28.322,88.567 28.322 C 88.357 28.322,87.637 28.846,86.967 29.486 C 86.297 30.126,85.556 30.650,85.319 30.650 C 85.083 30.650,84.400 31.174,83.802 31.814 C 83.204 32.454,82.509 32.978,82.258 32.978 C 82.007 32.978,81.130 33.676,80.310 34.530 C 79.490 35.383,78.649 36.081,78.440 36.081 C 78.098 36.081,76.521 37.595,73.093 41.213 C 72.431 41.911,71.515 42.740,71.056 43.054 C 70.598 43.367,70.223 43.833,70.223 44.088 C 70.223 44.343,70.089 44.610,69.925 44.682 C 69.761 44.753,69.238 45.314,68.763 45.928 C 68.016 46.894,66.394 48.736,63.162 52.293 C 48.428 68.505,35.220 95.786,31.472 117.750 C 30.455 123.709,30.275 124.879,29.798 128.613 C 29.142 133.750,29.142 153.374,29.798 158.293 C 30.512 163.654,31.052 167.198,31.424 168.962 C 31.604 169.816,31.966 171.562,32.228 172.842 C 32.491 174.122,32.955 176.130,33.261 177.304 C 33.566 178.477,34.097 180.547,34.441 181.903 C 34.786 183.259,35.297 184.457,35.579 184.565 C 35.981 184.720,38.965 182.685,39.961 181.576 C 40.068 181.457,41.814 179.990,43.841 178.315 C 45.868 176.640,47.963 174.897,48.497 174.441 C 49.030 173.984,53.657 170.122,58.778 165.856 C 63.899 161.591,68.526 157.724,69.059 157.263 C 69.593 156.802,75.878 151.575,83.026 145.648 C 102.745 129.299,111.910 121.671,112.124 121.428 C 112.231 121.308,115.461 118.598,119.302 115.407 C 123.143 112.216,126.722 109.230,127.255 108.772 C 127.789 108.313,130.495 106.069,133.269 103.784 C 136.043 101.500,139.239 98.837,140.371 97.866 C 141.503 96.895,142.900 95.740,143.475 95.300 C 144.049 94.859,144.607 94.401,144.714 94.282 C 144.821 94.163,148.050 91.452,151.891 88.257 C 155.732 85.061,159.311 82.071,159.845 81.612 C 160.378 81.152,169.893 73.231,180.989 64.010 C 192.085 54.788,201.602 46.870,202.138 46.415 C 202.673 45.959,204.070 44.801,205.241 43.841 C 206.413 42.881,207.806 41.703,208.337 41.222 C 209.868 39.838,210.414 40.530,209.546 42.756 C 209.355 43.246,209.008 44.345,208.775 45.199 C 201.054 73.521,184.405 103.694,163.223 127.753 C 161.948 129.201,160.978 130.457,161.066 130.546 C 161.155 130.634,171.568 125.538,184.206 119.221 C 196.845 112.904,207.254 107.806,207.337 107.893 C 207.488 108.051,207.342 108.389,204.494 114.452 C 203.047 117.533,199.844 123.636,197.928 126.964 C 197.467 127.764,196.767 128.986,196.372 129.680 C 195.611 131.017,192.427 136.224,190.370 139.498 C 180.782 154.753,165.147 172.165,150.533 183.862 C 146.513 187.080,135.427 194.762,134.803 194.762 C 134.665 194.762,134.068 195.107,133.477 195.528 C 132.885 195.949,131.200 196.929,129.731 197.704 C 128.263 198.480,126.625 199.352,126.091 199.643 C 124.385 200.575,119.319 202.794,115.441 204.310 C 110.608 206.200,110.990 206.299,121.823 205.974 C 126.625 205.829,135.048 205.577,140.543 205.412 C 147.062 205.217,150.533 205.247,150.533 205.497 C 150.533 205.707,149.093 207.192,147.333 208.797 C 137.965 217.335,129.910 222.964,119.690 228.115 C 114.565 230.697,113.358 231.234,109.214 232.772 C 107.934 233.247,106.537 233.775,106.111 233.946 C 99.178 236.723,86.069 239.120,74.297 239.763 C 67.950 240.110,62.486 240.774,58.390 241.696 C 54.254 242.627,53.622 242.802,50.048 243.996 C 38.347 247.906,26.339 255.905,18.218 265.199 C 16.456 267.215,14.809 268.865,14.558 268.865 C 14.009 268.865,12.415 270.498,12.415 271.061 C 12.415 271.281,12.066 271.777,11.639 272.163 C 11.212 272.549,10.863 273.025,10.863 273.221 C 10.863 273.416,10.601 273.838,10.281 274.158 C 9.961 274.478,9.699 275.077,9.699 275.488 C 9.699 275.900,9.525 276.237,9.311 276.237 C 9.098 276.237,8.923 276.586,8.923 277.013 C 8.923 277.439,8.749 277.789,8.535 277.789 C 8.322 277.789,8.147 278.138,8.147 278.565 C 8.147 278.991,7.973 279.340,7.759 279.340 C 7.546 279.340,7.371 279.690,7.371 280.116 C 7.371 280.543,7.197 280.892,6.984 280.892 C 6.770 280.892,6.596 281.242,6.596 281.668 C 6.596 282.095,6.421 282.444,6.208 282.444 C 5.994 282.444,5.820 282.793,5.820 283.220 C 5.820 283.647,5.645 283.996,5.432 283.996 C 5.218 283.996,5.044 284.345,5.044 284.772 C 5.044 285.199,4.869 285.548,4.656 285.548 C 4.442 285.548,4.268 285.984,4.268 286.518 C 4.268 287.051,4.093 287.488,3.880 287.488 C 3.666 287.488,3.492 288.012,3.492 288.652 C 3.492 289.292,3.317 289.816,3.104 289.816 C 2.890 289.816,2.716 290.339,2.716 290.980 C 2.716 291.620,2.541 292.144,2.328 292.144 C 2.114 292.144,1.940 292.842,1.940 293.695 C 1.940 294.549,1.765 295.247,1.552 295.247 C 1.339 295.247,1.164 295.931,1.164 296.767 C 1.164 297.638,0.957 298.355,0.679 298.448 C -0.028 298.684,-0.028 328.280,0.679 328.516 C 0.969 328.613,1.164 329.365,1.164 330.391 C 1.164 331.334,1.339 332.105,1.552 332.105 C 1.765 332.105,1.940 332.803,1.940 333.657 C 1.940 334.510,2.114 335.209,2.328 335.209 C 2.541 335.209,2.716 335.732,2.716 336.372 C 2.716 337.013,2.890 337.536,3.104 337.536 C 3.317 337.536,3.492 338.060,3.492 338.700 C 3.492 339.340,3.666 339.864,3.880 339.864 C 4.093 339.864,4.268 340.213,4.268 340.640 C 4.268 341.067,4.442 341.416,4.656 341.416 C 4.869 341.416,5.044 341.741,5.044 342.138 C 5.044 342.915,7.377 347.734,7.856 347.947 C 8.016 348.018,8.147 348.411,8.147 348.820 C 8.147 349.229,8.322 349.564,8.535 349.564 C 8.749 349.564,8.923 349.838,8.923 350.173 C 8.923 350.509,9.185 351.045,9.505 351.365 C 9.825 351.685,10.087 352.283,10.087 352.695 C 10.087 353.107,10.250 353.443,10.449 353.443 C 10.648 353.443,10.924 353.798,11.061 354.232 C 11.199 354.665,11.734 355.443,12.251 355.960 C 12.768 356.477,13.191 357.056,13.191 357.248 C 13.191 357.439,13.715 358.144,14.355 358.814 C 14.995 359.484,15.519 360.165,15.519 360.328 C 15.519 360.491,16.174 361.272,16.974 362.064 C 17.774 362.855,20.454 365.517,22.930 367.978 C 25.406 370.440,27.562 372.454,27.721 372.454 C 27.880 372.454,28.500 372.978,29.098 373.618 C 29.696 374.258,30.426 374.782,30.720 374.782 C 31.014 374.782,31.506 375.131,31.814 375.558 C 32.121 375.984,32.645 376.334,32.978 376.334 C 33.310 376.334,33.834 376.683,34.142 377.110 C 34.449 377.536,35.012 377.886,35.391 377.886 C 35.771 377.886,36.081 378.060,36.081 378.274 C 36.081 378.487,36.356 378.661,36.691 378.661 C 37.026 378.661,37.563 378.923,37.883 379.243 C 38.203 379.564,38.801 379.825,39.213 379.825 C 39.624 379.825,39.961 380.000,39.961 380.213 C 39.961 380.427,40.310 380.601,40.737 380.601 C 41.164 380.601,41.513 380.776,41.513 380.989 C 41.513 381.203,41.950 381.377,42.483 381.377 C 43.016 381.377,43.453 381.552,43.453 381.765 C 43.453 381.979,43.802 382.153,44.229 382.153 C 44.656 382.153,45.005 382.328,45.005 382.541 C 45.005 382.755,45.354 382.929,45.781 382.929 C 46.208 382.929,46.557 383.104,46.557 383.317 C 46.557 383.531,47.081 383.705,47.721 383.705 C 48.361 383.705,48.885 383.880,48.885 384.093 C 48.885 384.306,49.408 384.481,50.048 384.481 C 50.689 384.481,51.212 384.656,51.212 384.869 C 51.212 385.082,51.736 385.257,52.376 385.257 C 53.016 385.257,53.540 385.432,53.540 385.645 C 53.540 385.858,54.239 386.033,55.092 386.033 C 55.946 386.033,56.644 386.208,56.644 386.421 C 56.644 386.634,57.395 386.809,58.312 386.809 C 59.230 386.809,60.181 387.009,60.426 387.254 C 61.229 388.057,79.859 387.923,83.608 387.087 C 85.315 386.706,87.672 386.200,88.846 385.962 C 109.815 381.711,127.182 369.083,138.131 350.124 C 139.191 348.288,140.058 346.631,140.058 346.441 C 140.058 346.251,141.350 343.428,142.929 340.167 C 144.508 336.906,146.237 333.278,146.772 332.105 C 147.754 329.952,150.567 324.042,155.361 314.064 C 156.797 311.077,158.726 307.061,159.647 305.141 C 160.569 303.220,162.562 299.072,164.076 295.922 C 165.590 292.772,166.828 290.124,166.828 290.038 C 166.828 289.952,168.592 286.244,170.747 281.798 C 175.221 272.567,177.601 267.612,180.218 262.076 C 182.301 257.670,185.065 251.881,188.462 244.811 C 192.528 236.347,195.012 231.151,196.901 227.158 C 197.910 225.024,199.870 220.921,201.256 218.041 C 204.123 212.082,206.974 206.129,210.127 199.515 C 211.322 197.008,213.263 192.949,214.441 190.495 C 222.964 172.728,225.024 168.358,225.024 168.041 C 225.024 167.328,226.544 166.561,229.292 165.888 C 241.687 162.852,254.208 152.093,265.985 134.359 C 267.996 131.332,269.641 128.740,269.641 128.600 C 269.641 128.460,269.964 127.881,270.359 127.315 C 272.098 124.822,276.107 116.982,279.186 110.052 C 280.149 107.884,281.195 105.547,281.511 104.858 C 281.827 104.169,282.520 102.423,283.052 100.978 C 283.583 99.533,284.179 98.002,284.374 97.575 C 284.913 96.401,286.985 90.109,287.664 87.585 C 287.994 86.358,288.538 84.350,288.873 83.123 C 289.849 79.546,289.799 76.097,288.749 74.625 C 288.269 73.952,287.876 73.310,287.876 73.198 C 287.876 71.975,278.129 58.071,275.454 55.480 C 275.344 55.373,274.759 54.675,274.153 53.928 C 248.693 22.531,212.713 5.170,171.678 4.483 C 166.557 4.397,160.184 4.504,157.517 4.721 M283.625 151.130 C 277.485 155.465,276.480 169.359,281.853 175.635 C 287.655 182.414,295.247 175.830,295.247 164.020 C 295.247 154.229,289.019 147.322,283.625 151.130 " stroke="none" fill="#0404ac" fill-rule="evenodd"></path></g></svg>