<svg id="svg" version="1.1" xmlns="http://www.w3.org/2000/svg" xmlns:xlink="http://www.w3.org/1999/xlink" width="400" height="400" viewBox="0, 0, 400,400"><g id="svgg"><path id="path0" d="M155.308 58.546 C 155.093 58.601,154.729 58.769,154.499 58.919 C 154.269 59.070,152.510 59.725,150.591 60.376 C 96.948 78.559,57.980 126.413,50.816 182.900 C 42.189 250.931,80.490 315.963,144.154 341.382 C 156.853 346.452,159.338 346.659,161.198 342.800 C 161.437 342.305,161.715 341.765,161.816 341.600 C 162.459 340.555,162.485 340.225,162.493 333.000 C 162.502 324.132,162.406 323.770,159.200 320.617 C 157.857 319.295,158.015 319.379,153.700 317.688 C 96.508 295.273,64.147 232.414,79.109 172.800 C 89.183 132.663,116.575 101.134,154.300 86.255 C 161.920 83.249,162.401 82.435,162.552 72.278 C 162.655 65.324,162.494 63.133,161.771 61.640 C 160.617 59.257,157.806 57.911,155.308 58.546 M241.046 59.023 C 240.027 59.527,238.903 60.781,238.574 61.779 C 238.444 62.176,238.149 62.755,237.918 63.067 C 237.304 63.899,237.267 78.018,237.875 79.800 C 238.423 81.406,239.520 83.124,240.806 84.389 C 242.143 85.704,241.986 85.621,246.300 87.312 C 301.220 108.848,333.585 167.876,322.287 225.900 C 313.970 268.612,285.199 303.344,245.210 318.946 C 238.170 321.693,237.597 322.710,237.448 332.722 C 237.319 341.478,237.583 343.170,239.361 344.948 C 240.927 346.514,243.941 347.103,245.422 346.133 C 245.695 345.954,247.495 345.273,249.422 344.621 C 318.823 321.118,361.030 249.366,348.080 176.900 C 338.274 122.022,300.693 78.248,247.481 59.721 C 243.781 58.433,242.516 58.296,241.046 59.023 M191.790 101.868 C 189.446 102.512,187.822 104.353,186.922 107.386 C 186.646 108.319,186.600 109.821,186.600 118.005 L 186.600 127.538 184.989 127.766 C 161.108 131.143,144.916 148.830,145.880 170.488 C 146.958 194.733,160.474 205.767,194.900 210.504 C 219.207 213.849,228.222 219.928,228.260 233.000 C 228.307 248.773,213.076 258.336,192.700 255.327 C 179.371 253.359,172.687 247.677,169.496 235.603 C 168.483 231.771,167.424 230.255,165.241 229.511 C 163.876 229.046,148.513 229.049,147.147 229.515 C 142.881 230.969,142.398 235.425,145.501 244.692 C 151.179 261.646,165.204 272.215,186.639 275.694 L 187.378 275.814 187.439 286.462 L 187.500 297.109 188.165 298.459 C 189.145 300.449,191.062 301.785,193.815 302.397 C 195.422 302.754,207.625 302.581,208.636 302.187 C 210.517 301.454,211.905 299.948,212.846 297.621 C 213.295 296.513,213.301 296.378,213.357 286.181 L 213.414 275.862 215.657 275.402 C 239.471 270.522,255.000 253.202,255.000 231.519 C 255.000 211.444,246.514 199.720,227.400 193.392 C 220.755 191.192,215.143 190.059,201.700 188.203 C 180.407 185.264,173.004 180.059,172.653 167.780 C 172.281 154.791,180.232 148.011,196.254 147.654 C 212.115 147.301,220.353 152.091,224.713 164.201 C 225.605 166.681,226.755 167.978,228.800 168.814 C 230.096 169.344,245.431 169.224,246.618 168.675 C 249.755 167.225,250.587 164.438,249.333 159.588 C 244.997 142.831,230.734 130.324,213.861 128.486 L 212.622 128.351 212.555 117.725 C 212.481 106.137,212.517 106.502,211.283 104.755 C 210.577 103.756,209.247 102.811,207.621 102.154 C 206.258 101.602,193.588 101.373,191.790 101.868 " stroke="none" fill="#fbfbfb" fill-rule="evenodd"></path><path id="path1" d="M190.200 0.119 C 189.705 0.158,187.770 0.288,185.900 0.408 C 157.175 2.252,127.348 11.075,102.300 25.138 C 91.069 31.443,77.924 40.580,69.813 47.719 C 64.752 52.173,63.564 53.265,59.728 56.991 C 54.511 62.057,47.667 69.640,43.518 74.950 C 42.980 75.638,42.464 76.200,42.370 76.200 C 42.277 76.200,42.200 76.281,42.200 76.380 C 42.200 76.479,40.929 78.257,39.376 80.330 C 36.471 84.209,31.018 92.286,28.797 96.000 C 28.107 97.155,27.442 98.166,27.321 98.247 C 27.199 98.328,27.156 98.395,27.225 98.397 C 27.294 98.399,26.593 99.728,25.667 101.350 C 24.742 102.972,22.726 106.820,21.188 109.900 C 19.649 112.980,18.325 115.594,18.245 115.708 C 18.165 115.822,18.082 116.002,18.060 116.108 C 18.038 116.214,17.201 118.186,16.201 120.492 C 12.496 129.030,7.401 143.825,6.486 148.702 C 6.414 149.086,6.270 149.400,6.166 149.400 C 6.062 149.400,6.027 149.483,6.090 149.583 C 6.152 149.684,5.841 151.237,5.398 153.033 C -4.382 192.701,-0.900 238.303,14.805 276.250 C 15.339 277.543,15.715 278.601,15.639 278.603 C 15.562 278.605,15.593 278.672,15.707 278.753 C 15.821 278.834,16.489 280.205,17.191 281.800 C 18.544 284.873,22.277 292.455,23.961 295.550 C 24.514 296.567,24.907 297.401,24.834 297.403 C 24.760 297.405,24.798 297.472,24.917 297.553 C 25.037 297.634,25.390 298.150,25.703 298.700 C 28.068 302.864,30.818 307.337,33.231 310.945 C 34.204 312.399,35.000 313.682,35.000 313.795 C 35.000 313.908,35.068 314.000,35.152 314.000 C 35.235 314.000,35.707 314.608,36.202 315.350 C 36.696 316.093,37.151 316.745,37.214 316.800 C 37.456 317.013,39.000 319.190,39.000 319.319 C 39.000 319.394,39.119 319.556,39.265 319.678 C 39.410 319.800,40.603 321.288,41.915 322.984 C 48.779 331.858,58.205 341.997,66.100 348.997 C 67.640 350.362,69.046 351.619,69.225 351.790 C 69.667 352.210,69.964 352.454,74.085 355.772 C 104.311 380.109,140.498 395.042,178.800 398.984 C 198.760 401.038,220.334 400.046,239.679 396.183 C 323.788 379.389,387.753 310.679,398.481 225.600 C 413.597 105.731,321.894 0.753,201.500 0.104 C 195.780 0.073,190.695 0.080,190.200 0.119 M158.920 58.879 C 162.212 60.412,162.701 62.214,162.552 72.278 C 162.401 82.435,161.920 83.249,154.300 86.255 C 116.575 101.134,89.183 132.663,79.109 172.800 C 64.147 232.414,96.508 295.273,153.700 317.688 C 158.015 319.379,157.857 319.295,159.200 320.617 C 162.406 323.770,162.502 324.132,162.493 333.000 C 162.485 340.225,162.459 340.555,161.816 341.600 C 161.715 341.765,161.437 342.305,161.198 342.800 C 159.338 346.659,156.853 346.452,144.154 341.382 C 80.490 315.963,42.189 250.931,50.816 182.900 C 57.980 126.413,96.948 78.559,150.591 60.376 C 152.510 59.725,154.269 59.070,154.499 58.919 C 155.520 58.250,157.530 58.232,158.920 58.879 M247.481 59.721 C 300.693 78.248,338.274 122.022,348.080 176.900 C 361.030 249.366,318.823 321.118,249.422 344.621 C 247.495 345.273,245.695 345.954,245.422 346.133 C 243.941 347.103,240.927 346.514,239.361 344.948 C 237.583 343.170,237.319 341.478,237.448 332.722 C 237.597 322.710,238.170 321.693,245.210 318.946 C 285.199 303.344,313.970 268.612,322.287 225.900 C 333.585 167.876,301.220 108.848,246.300 87.312 C 241.986 85.621,242.143 85.704,240.806 84.389 C 239.520 83.124,238.423 81.406,237.875 79.800 C 237.267 78.018,237.304 63.899,237.918 63.067 C 238.149 62.755,238.444 62.176,238.574 61.779 C 239.650 58.515,242.274 57.908,247.481 59.721 M207.621 102.154 C 209.247 102.811,210.577 103.756,211.283 104.755 C 212.517 106.502,212.481 106.137,212.555 117.725 L 212.622 128.351 213.861 128.486 C 230.734 130.324,244.997 142.831,249.333 159.588 C 250.587 164.438,249.755 167.225,246.618 168.675 C 245.431 169.224,230.096 169.344,228.800 168.814 C 226.755 167.978,225.605 166.681,224.713 164.201 C 220.353 152.091,212.115 147.301,196.254 147.654 C 180.232 148.011,172.281 154.791,172.653 167.780 C 173.004 180.059,180.407 185.264,201.700 188.203 C 215.143 190.059,220.755 191.192,227.400 193.392 C 246.514 199.720,255.000 211.444,255.000 231.519 C 255.000 253.202,239.471 270.522,215.657 275.402 L 213.414 275.862 213.357 286.181 C 213.301 296.378,213.295 296.513,212.846 297.621 C 211.905 299.948,210.517 301.454,208.636 302.187 C 207.625 302.581,195.422 302.754,193.815 302.397 C 191.062 301.785,189.145 300.449,188.165 298.459 L 187.500 297.109 187.439 286.462 L 187.378 275.814 186.639 275.694 C 165.204 272.215,151.179 261.646,145.501 244.692 C 142.398 235.425,142.881 230.969,147.147 229.515 C 148.513 229.049,163.876 229.046,165.241 229.511 C 167.424 230.255,168.483 231.771,169.496 235.603 C 172.687 247.677,179.371 253.359,192.700 255.327 C 213.076 258.336,228.307 248.773,228.260 233.000 C 228.222 219.928,219.207 213.849,194.900 210.504 C 160.474 205.767,146.958 194.733,145.880 170.488 C 144.916 148.830,161.108 131.143,184.989 127.766 L 186.600 127.538 186.600 118.005 C 186.600 109.821,186.646 108.319,186.922 107.386 C 187.822 104.353,189.446 102.512,191.790 101.868 C 193.588 101.373,206.258 101.602,207.621 102.154 " stroke="none" fill="#2474cc" fill-rule="evenodd"></path></g></svg>