<svg id="svg" version="1.1" xmlns="http://www.w3.org/2000/svg" xmlns:xlink="http://www.w3.org/1999/xlink" width="400" height="400" viewBox="0, 0, 400,400"><g id="svgg"><path id="path0" d="M199.792 0.138 C 199.958 0.243,199.992 15.142,199.959 74.080 L 199.917 147.891 196.000 149.682 C 193.846 150.667,174.346 159.534,152.667 169.386 C 130.987 179.238,112.725 187.539,112.083 187.833 C 111.442 188.128,109.792 188.878,108.417 189.500 C 107.042 190.123,105.504 190.820,105.000 191.050 C 104.496 191.279,100.333 193.171,95.750 195.255 C 91.167 197.338,86.892 199.284,86.250 199.578 C 85.608 199.872,83.358 200.888,81.250 201.834 C 79.142 202.781,77.363 203.600,77.298 203.655 C 77.184 203.750,79.363 205.151,81.083 206.089 C 81.542 206.339,82.035 206.646,82.180 206.772 C 82.325 206.897,82.489 207.000,82.546 207.000 C 82.603 207.000,83.707 207.637,85.000 208.417 C 86.293 209.196,87.381 209.833,87.419 209.833 C 87.456 209.833,87.958 210.133,88.535 210.498 C 89.112 210.864,89.671 211.164,89.778 211.165 C 89.885 211.166,89.997 211.223,90.028 211.292 C 90.101 211.457,92.578 212.949,93.002 213.084 C 93.184 213.142,93.333 213.250,93.333 213.325 C 93.333 213.400,93.465 213.505,93.625 213.559 C 93.785 213.613,94.029 213.732,94.167 213.824 C 94.577 214.097,96.563 215.262,96.833 215.388 C 96.971 215.451,97.283 215.634,97.527 215.794 C 97.919 216.050,101.170 217.957,102.198 218.534 C 102.410 218.653,102.621 218.792,102.667 218.843 C 102.712 218.894,103.237 219.215,103.833 219.555 C 104.429 219.895,105.029 220.246,105.167 220.334 C 105.725 220.690,109.268 222.778,109.500 222.887 C 109.638 222.951,109.975 223.152,110.250 223.333 C 110.525 223.515,110.850 223.712,110.973 223.772 C 111.096 223.832,112.158 224.459,113.333 225.167 C 114.509 225.874,115.571 226.502,115.693 226.562 C 115.816 226.621,116.142 226.819,116.417 227.000 C 116.692 227.181,117.029 227.382,117.167 227.446 C 117.304 227.509,117.867 227.834,118.417 228.167 C 118.967 228.499,119.529 228.824,119.667 228.888 C 119.804 228.951,120.142 229.152,120.417 229.333 C 120.692 229.515,121.029 229.717,121.167 229.782 C 121.304 229.847,121.728 230.111,122.108 230.367 C 122.487 230.624,122.845 230.833,122.901 230.833 C 122.957 230.833,123.584 231.194,124.293 231.636 C 125.003 232.077,126.285 232.846,127.143 233.344 C 128.000 233.842,128.900 234.380,129.143 234.540 C 129.385 234.699,129.696 234.882,129.833 234.946 C 129.971 235.009,130.553 235.348,131.128 235.698 C 131.702 236.047,132.210 236.333,132.256 236.333 C 132.302 236.333,132.657 236.538,133.045 236.788 C 134.168 237.513,134.249 237.562,135.019 237.983 C 135.421 238.203,136.399 238.784,137.192 239.275 C 137.985 239.765,138.669 240.167,138.711 240.167 C 138.753 240.167,139.754 240.753,140.935 241.469 C 142.117 242.186,143.196 242.824,143.333 242.888 C 143.471 242.952,143.808 243.148,144.083 243.325 C 144.571 243.639,146.247 244.620,147.582 245.374 C 147.948 245.581,148.286 245.795,148.332 245.849 C 148.379 245.904,149.242 246.421,150.250 246.997 C 151.258 247.573,152.739 248.447,153.540 248.939 C 154.341 249.431,155.029 249.833,155.070 249.833 C 155.217 249.833,157.252 251.082,157.306 251.206 C 157.336 251.276,157.426 251.333,157.506 251.333 C 157.586 251.333,158.521 251.858,159.583 252.500 C 160.646 253.142,161.587 253.667,161.674 253.667 C 161.762 253.667,161.833 253.736,161.833 253.821 C 161.833 253.906,161.927 254.000,162.042 254.029 C 162.210 254.073,163.887 255.034,166.796 256.753 C 166.954 256.847,167.401 257.128,167.788 257.378 C 168.176 257.629,168.531 257.833,168.577 257.833 C 168.623 257.833,169.131 258.119,169.705 258.469 C 170.280 258.819,170.862 259.157,171.000 259.221 C 171.137 259.285,171.449 259.467,171.692 259.627 C 171.936 259.786,172.648 260.210,173.276 260.569 C 173.903 260.928,174.454 261.274,174.500 261.338 C 174.546 261.402,174.752 261.508,174.958 261.572 C 175.165 261.636,175.333 261.759,175.333 261.845 C 175.333 261.930,175.407 262.000,175.497 262.000 C 175.587 262.000,176.151 262.300,176.750 262.667 C 177.349 263.033,177.875 263.333,177.919 263.333 C 177.963 263.333,178.881 263.862,179.958 264.509 C 181.035 265.156,182.029 265.752,182.167 265.834 C 182.304 265.915,182.853 266.249,183.387 266.574 C 183.921 266.900,184.427 267.167,184.512 267.167 C 184.597 267.167,184.667 267.242,184.667 267.333 C 184.667 267.425,184.736 267.500,184.821 267.500 C 184.977 267.500,189.211 269.953,190.035 270.522 C 190.283 270.693,190.524 270.833,190.571 270.833 C 190.617 270.833,191.335 271.246,192.167 271.750 C 192.998 272.254,193.744 272.667,193.825 272.667 C 193.906 272.667,193.997 272.730,194.028 272.807 C 194.058 272.885,194.285 273.054,194.532 273.182 C 194.778 273.311,195.866 273.936,196.948 274.571 C 198.031 275.205,199.085 275.805,199.290 275.904 C 199.496 276.003,199.665 276.140,199.665 276.208 C 199.666 276.277,199.760 276.333,199.875 276.333 C 200.041 276.333,200.075 263.411,200.041 212.167 C 200.017 174.872,200.061 148.000,200.147 148.000 C 200.264 148.000,205.575 150.387,211.250 152.989 C 211.617 153.158,215.629 154.983,220.167 157.045 C 224.704 159.108,228.829 160.984,229.333 161.214 C 229.838 161.445,237.300 164.835,245.917 168.749 C 254.533 172.663,261.996 176.054,262.500 176.284 C 280.049 184.289,322.173 203.403,322.408 203.467 C 322.712 203.551,322.708 203.515,322.340 202.903 C 322.124 202.544,321.842 202.063,321.714 201.833 C 321.586 201.604,321.354 201.208,321.199 200.953 C 321.044 200.698,319.042 197.379,316.750 193.579 C 314.458 189.778,312.456 186.462,312.301 186.209 C 312.146 185.957,311.916 185.563,311.790 185.333 C 311.543 184.882,307.572 178.319,305.057 174.203 C 304.200 172.803,303.500 171.616,303.500 171.567 C 303.500 171.517,303.285 171.163,303.022 170.780 C 302.759 170.397,302.401 169.821,302.226 169.500 C 302.052 169.179,301.461 168.183,300.913 167.286 C 300.365 166.390,299.772 165.415,299.596 165.120 C 299.420 164.825,298.204 162.810,296.894 160.642 C 295.584 158.475,294.378 156.477,294.215 156.203 C 292.813 153.858,292.039 152.577,291.794 152.198 C 291.635 151.952,291.428 151.600,291.333 151.417 C 291.239 151.233,291.017 150.858,290.840 150.583 C 290.663 150.308,290.415 149.896,290.287 149.667 C 290.160 149.438,288.656 146.936,286.945 144.108 C 285.233 141.280,283.833 138.938,283.833 138.903 C 283.833 138.868,283.553 138.407,283.210 137.878 C 282.498 136.780,282.353 136.544,281.985 135.889 C 281.839 135.629,280.085 132.717,278.087 129.417 C 276.090 126.117,274.109 122.831,273.686 122.116 C 273.263 121.401,271.868 119.076,270.585 116.950 C 266.425 110.049,263.831 105.755,263.669 105.500 C 263.582 105.362,263.114 104.589,262.630 103.781 C 262.146 102.974,261.620 102.111,261.460 101.865 C 261.301 101.618,261.113 101.304,261.044 101.167 C 260.936 100.954,259.312 98.274,258.823 97.500 C 258.563 97.088,251.989 86.127,251.655 85.549 C 251.486 85.254,249.720 82.329,247.733 79.049 C 245.745 75.768,243.970 72.821,243.790 72.500 C 243.609 72.179,243.339 71.729,243.189 71.499 C 242.677 70.715,242.498 70.417,242.387 70.167 C 242.326 70.029,241.989 69.480,241.638 68.947 C 241.287 68.413,241.000 67.950,241.000 67.918 C 241.000 67.885,239.507 65.387,237.682 62.367 C 235.857 59.346,234.188 56.581,233.973 56.223 C 233.759 55.864,233.492 55.424,233.381 55.244 C 233.269 55.064,232.798 54.279,232.333 53.500 C 231.869 52.721,231.418 51.971,231.332 51.833 C 230.968 51.254,227.856 46.089,225.256 41.750 C 223.718 39.183,222.207 36.696,221.897 36.222 C 221.587 35.748,221.333 35.322,221.333 35.274 C 221.333 35.126,220.256 33.419,220.125 33.361 C 220.056 33.331,220.000 33.241,220.000 33.162 C 220.000 33.083,218.603 30.708,216.895 27.884 C 215.188 25.060,213.669 22.542,213.520 22.288 C 212.494 20.535,205.011 8.120,204.657 7.583 C 204.415 7.217,204.026 6.579,203.794 6.167 C 203.562 5.754,202.956 4.742,202.446 3.917 C 201.937 3.092,201.214 1.873,200.839 1.208 C 200.403 0.434,200.055 0.001,199.871 0.003 C 199.664 0.004,199.642 0.042,199.792 0.138 M321.162 227.786 C 320.294 228.299,319.171 228.957,318.667 229.247 C 317.699 229.803,309.771 234.502,308.917 235.024 C 308.642 235.193,308.304 235.383,308.167 235.448 C 308.029 235.512,306.694 236.300,305.199 237.199 C 303.704 238.098,302.456 238.833,302.424 238.833 C 302.393 238.833,301.192 239.546,299.754 240.417 C 298.317 241.287,297.113 242.000,297.079 242.000 C 297.029 242.000,292.929 244.417,292.000 244.994 C 291.862 245.080,291.150 245.502,290.417 245.932 C 287.369 247.719,286.451 248.265,286.029 248.540 C 285.784 248.699,285.471 248.883,285.333 248.947 C 285.196 249.012,283.808 249.824,282.250 250.752 C 280.692 251.680,278.029 253.251,276.333 254.244 C 274.637 255.236,272.595 256.450,271.793 256.941 C 270.992 257.432,270.308 257.833,270.273 257.833 C 270.238 257.833,268.944 258.591,267.396 259.517 C 265.849 260.444,264.283 261.372,263.917 261.580 C 263.550 261.787,261.000 263.289,258.250 264.916 C 255.500 266.543,250.775 269.339,247.750 271.128 C 244.725 272.917,242.025 274.516,241.750 274.682 C 241.475 274.847,241.063 275.085,240.833 275.211 C 240.267 275.522,234.180 279.124,232.833 279.945 C 232.237 280.308,231.637 280.657,231.500 280.721 C 231.362 280.785,231.025 280.985,230.750 281.167 C 230.475 281.348,230.137 281.549,230.000 281.614 C 229.862 281.678,228.813 282.288,227.667 282.969 C 226.521 283.649,224.496 284.847,223.167 285.631 C 221.838 286.414,220.357 287.306,219.878 287.611 C 219.398 287.917,218.970 288.167,218.927 288.167 C 218.884 288.167,217.979 288.692,216.917 289.333 C 215.854 289.975,214.960 290.500,214.930 290.500 C 214.900 290.500,213.450 291.353,211.709 292.396 C 209.967 293.438,208.477 294.320,208.396 294.354 C 208.316 294.388,207.125 295.091,205.750 295.915 C 204.375 296.739,203.123 297.489,202.968 297.582 C 202.812 297.674,202.384 297.916,202.015 298.120 C 201.646 298.323,201.042 298.680,200.672 298.913 L 200.000 299.338 200.000 349.686 L 200.000 400.035 200.945 398.726 C 201.465 398.006,202.232 396.929,202.650 396.333 C 203.067 395.738,203.469 395.175,203.542 395.083 C 203.615 394.992,204.292 394.043,205.046 392.975 C 206.683 390.655,212.631 382.262,214.713 379.333 C 215.945 377.599,221.949 369.137,223.168 367.417 C 223.363 367.142,224.154 366.054,224.927 365.000 C 225.700 363.946,226.407 362.933,226.498 362.750 C 226.590 362.567,227.265 361.592,227.999 360.583 C 228.732 359.575,229.427 358.612,229.541 358.444 C 229.656 358.275,230.387 357.245,231.167 356.154 C 231.946 355.063,233.342 353.101,234.268 351.794 C 240.985 342.317,241.736 341.261,243.500 338.814 C 243.912 338.241,244.625 337.231,245.083 336.570 C 245.542 335.908,246.737 334.216,247.739 332.809 C 248.741 331.401,250.147 329.425,250.863 328.417 C 251.579 327.408,252.273 326.433,252.406 326.250 C 252.681 325.871,255.297 322.175,255.827 321.417 C 256.020 321.142,256.536 320.429,256.975 319.833 C 257.414 319.237,258.131 318.225,258.568 317.583 C 259.006 316.942,259.959 315.592,260.688 314.583 C 261.416 313.575,262.772 311.662,263.702 310.333 C 264.632 309.004,265.854 307.279,266.417 306.500 C 266.981 305.721,268.558 303.508,269.920 301.583 C 271.283 299.658,272.933 297.333,273.588 296.417 C 274.242 295.500,275.515 293.700,276.417 292.417 C 277.318 291.133,278.249 289.822,278.486 289.502 C 278.723 289.182,279.605 287.944,280.447 286.752 C 281.289 285.559,282.376 284.028,282.864 283.349 C 284.651 280.861,284.946 280.445,286.500 278.230 C 287.371 276.988,288.908 274.823,289.917 273.418 C 290.925 272.014,292.533 269.752,293.491 268.391 C 294.448 267.030,295.690 265.279,296.249 264.500 C 296.809 263.721,297.505 262.725,297.797 262.288 C 298.088 261.851,298.406 261.401,298.503 261.288 C 298.599 261.175,299.159 260.408,299.746 259.583 C 300.334 258.758,301.003 257.821,301.232 257.500 C 301.462 257.179,302.364 255.904,303.237 254.667 C 304.109 253.429,305.411 251.592,306.130 250.583 C 306.848 249.575,308.365 247.438,309.500 245.833 C 310.635 244.229,312.243 241.967,313.074 240.807 C 313.904 239.647,315.366 237.584,316.323 236.224 C 317.280 234.863,318.524 233.112,319.087 232.333 C 319.651 231.554,320.331 230.600,320.598 230.212 C 320.865 229.825,321.483 228.937,321.972 228.240 C 323.081 226.656,323.076 226.653,321.162 227.786 " stroke="none" fill="#383838" fill-rule="evenodd"></path><path id="path1" d="M199.295 0.856 C 198.901 1.574,198.849 1.659,198.148 2.750 C 197.912 3.117,197.689 3.492,197.651 3.584 C 197.614 3.676,197.021 4.674,196.333 5.802 C 195.646 6.931,194.953 8.076,194.793 8.347 C 194.633 8.618,193.538 10.433,192.359 12.379 C 191.179 14.325,190.089 16.142,189.935 16.417 C 189.782 16.692,189.528 17.122,189.370 17.374 C 189.020 17.932,182.984 27.954,182.750 28.365 C 182.658 28.526,182.133 29.386,181.583 30.275 C 181.033 31.165,180.526 32.010,180.456 32.155 C 180.387 32.299,180.199 32.615,180.040 32.857 C 179.880 33.099,179.492 33.737,179.177 34.274 C 178.702 35.083,172.007 46.188,171.505 47.000 C 170.605 48.455,169.868 49.687,169.611 50.167 C 169.438 50.487,169.204 50.862,169.090 51.000 C 168.977 51.137,168.834 51.362,168.773 51.500 C 168.713 51.637,168.516 51.975,168.336 52.250 C 168.156 52.525,167.849 53.050,167.652 53.417 C 167.456 53.783,167.116 54.322,166.898 54.614 C 166.679 54.906,166.500 55.188,166.500 55.242 C 166.500 55.296,166.295 55.657,166.045 56.045 C 165.414 57.023,165.199 57.377,165.059 57.667 C 164.923 57.949,163.130 60.931,161.051 64.333 C 160.519 65.204,160.026 66.029,159.956 66.167 C 159.887 66.304,159.699 66.617,159.540 66.862 C 159.380 67.107,158.500 68.556,157.583 70.082 C 156.667 71.608,155.841 72.982,155.748 73.136 C 155.656 73.291,155.310 73.867,154.981 74.417 C 154.651 74.967,153.448 76.955,152.307 78.835 C 151.166 80.715,150.180 82.365,150.115 82.502 C 150.050 82.638,149.849 82.975,149.670 83.250 C 149.490 83.525,149.218 83.975,149.065 84.250 C 148.830 84.672,148.162 85.751,147.207 87.254 C 147.092 87.435,146.946 87.696,146.882 87.833 C 146.795 88.021,142.703 94.830,141.673 96.500 C 141.545 96.707,140.852 97.843,139.383 100.250 C 139.271 100.433,139.127 100.696,139.063 100.833 C 138.998 100.971,138.705 101.458,138.412 101.917 C 138.118 102.375,137.616 103.200,137.297 103.750 C 136.977 104.300,135.781 106.287,134.640 108.167 C 133.498 110.046,132.511 111.696,132.447 111.833 C 132.382 111.971,132.199 112.286,132.040 112.533 C 131.427 113.484,129.744 116.238,129.623 116.488 C 129.553 116.632,129.366 116.950,129.206 117.194 C 128.966 117.564,127.998 119.167,126.293 122.021 C 125.048 124.106,121.554 129.871,121.233 130.371 C 121.013 130.713,120.833 131.028,120.833 131.071 C 120.833 131.115,120.627 131.472,120.375 131.867 C 119.834 132.713,119.765 132.826,118.665 134.667 C 118.199 135.446,117.609 136.421,117.353 136.833 C 116.978 137.438,115.961 139.118,114.829 141.000 C 114.746 141.137,114.091 142.225,113.372 143.417 C 112.653 144.608,112.012 145.696,111.948 145.833 C 111.883 145.971,111.699 146.281,111.540 146.523 C 111.380 146.765,110.852 147.628,110.365 148.440 C 109.393 150.062,109.275 150.258,108.671 151.244 C 108.444 151.614,108.175 152.067,108.072 152.250 C 107.969 152.433,107.236 153.656,106.443 154.967 C 105.649 156.278,105.000 157.416,105.000 157.495 C 105.000 157.574,104.941 157.664,104.869 157.694 C 104.760 157.741,103.534 159.714,102.227 161.946 C 102.056 162.237,101.580 163.025,101.168 163.696 C 100.053 165.515,100.029 165.556,99.838 165.917 C 99.741 166.100,99.517 166.475,99.340 166.750 C 99.163 167.025,98.915 167.438,98.788 167.667 C 98.661 167.896,97.157 170.392,95.445 173.214 C 93.734 176.036,92.333 178.417,92.333 178.506 C 92.333 178.594,92.274 178.667,92.202 178.667 C 92.129 178.667,91.788 179.173,91.443 179.792 C 91.098 180.410,90.689 181.116,90.533 181.360 C 90.377 181.604,89.612 182.864,88.833 184.161 C 88.054 185.458,87.272 186.759,87.095 187.051 C 83.198 193.488,81.711 195.962,81.615 196.167 C 81.550 196.304,81.366 196.613,81.206 196.853 C 81.047 197.094,80.617 197.795,80.250 198.411 C 79.883 199.028,79.453 199.731,79.294 199.974 C 79.134 200.218,78.953 200.529,78.891 200.667 C 78.830 200.804,78.542 201.292,78.252 201.750 C 77.267 203.307,77.140 203.529,77.200 203.589 C 77.246 203.635,83.575 200.829,86.583 199.427 C 86.858 199.299,90.908 197.456,95.583 195.331 C 100.258 193.206,104.496 191.279,105.000 191.049 C 105.504 190.820,107.042 190.123,108.417 189.500 C 109.792 188.878,111.442 188.128,112.083 187.833 C 112.725 187.539,130.987 179.238,152.667 169.386 C 174.346 159.534,193.846 150.667,196.000 149.682 L 199.917 147.891 199.959 74.029 C 199.986 25.834,199.944 0.167,199.837 0.167 C 199.747 0.167,199.503 0.477,199.295 0.856 M77.223 227.073 C 77.287 227.239,77.645 227.797,78.019 228.313 C 79.199 229.939,81.242 232.793,81.453 233.111 C 81.565 233.279,82.085 234.017,82.608 234.750 C 83.132 235.483,84.187 236.969,84.953 238.052 C 86.841 240.723,87.793 242.050,87.965 242.254 C 88.045 242.348,88.251 242.648,88.423 242.921 C 88.596 243.194,89.228 244.092,89.829 244.917 C 90.430 245.742,91.065 246.640,91.239 246.912 C 91.414 247.185,91.621 247.485,91.699 247.579 C 91.777 247.673,92.472 248.650,93.244 249.750 C 94.015 250.850,94.763 251.881,94.906 252.042 C 95.050 252.202,95.167 252.369,95.167 252.412 C 95.167 252.455,95.785 253.351,96.542 254.403 C 98.010 256.445,99.813 258.979,104.436 265.500 C 107.729 270.144,107.393 269.670,109.113 272.083 C 109.832 273.092,110.563 274.140,110.738 274.412 C 110.913 274.685,111.121 274.985,111.200 275.079 C 111.362 275.271,112.622 277.036,115.665 281.333 C 118.795 285.753,119.969 287.400,120.122 287.583 C 120.198 287.675,120.489 288.087,120.769 288.500 C 121.616 289.749,126.318 296.374,126.623 296.750 C 126.756 296.913,128.431 299.287,129.750 301.180 C 131.030 303.019,133.427 306.393,134.792 308.277 C 135.548 309.322,136.167 310.211,136.167 310.253 C 136.167 310.295,136.276 310.462,136.409 310.623 C 136.543 310.785,137.216 311.704,137.905 312.667 C 138.594 313.629,139.266 314.567,139.400 314.750 C 139.533 314.933,139.896 315.458,140.206 315.917 C 140.517 316.375,141.203 317.350,141.732 318.083 C 142.260 318.817,142.799 319.567,142.929 319.750 C 143.722 320.864,147.349 325.985,148.217 327.214 C 148.785 328.019,149.962 329.670,150.833 330.882 C 151.704 332.094,152.559 333.310,152.734 333.585 C 152.908 333.859,153.676 334.946,154.440 336.000 C 156.192 338.417,158.070 341.056,160.312 344.250 C 161.277 345.625,162.127 346.775,162.200 346.806 C 162.273 346.836,162.333 346.932,162.333 347.019 C 162.333 347.105,162.952 348.030,163.708 349.073 C 165.458 351.486,167.559 354.429,168.417 355.668 C 168.783 356.198,169.565 357.295,170.153 358.107 C 170.742 358.919,171.525 360.033,171.893 360.583 C 172.262 361.133,172.643 361.671,172.740 361.777 C 172.837 361.884,173.512 362.821,174.239 363.861 C 174.966 364.900,176.208 366.650,177.000 367.750 C 177.792 368.850,178.666 370.087,178.942 370.500 C 179.218 370.912,179.874 371.850,180.401 372.583 C 180.928 373.317,181.465 374.067,181.595 374.250 C 183.365 376.747,184.727 378.640,184.923 378.877 C 185.057 379.038,185.167 379.209,185.167 379.257 C 185.167 379.304,185.799 380.222,186.572 381.296 C 187.345 382.371,188.483 383.962,189.100 384.833 C 189.718 385.704,190.437 386.717,190.700 387.083 C 192.560 389.682,194.549 392.476,195.281 393.519 C 196.719 395.566,199.226 399.079,199.620 399.597 L 199.989 400.083 199.995 349.723 L 200.000 299.363 198.952 298.723 C 198.376 298.371,197.757 297.989,197.577 297.874 C 197.397 297.759,197.137 297.613,197.000 297.551 C 196.785 297.453,194.234 295.961,193.500 295.503 C 193.362 295.418,192.650 294.995,191.917 294.564 C 191.183 294.132,189.683 293.241,188.583 292.582 C 187.483 291.923,185.983 291.032,185.250 290.601 C 184.517 290.171,183.804 289.749,183.667 289.664 C 182.971 289.234,181.219 288.214,181.000 288.112 C 180.862 288.049,180.525 287.851,180.250 287.674 C 179.975 287.497,179.563 287.249,179.333 287.124 C 179.104 286.998,177.867 286.269,176.583 285.504 C 175.300 284.738,173.327 283.562,172.199 282.890 C 171.072 282.217,170.119 281.667,170.083 281.667 C 170.046 281.667,169.683 281.442,169.276 281.167 C 168.868 280.892,168.492 280.667,168.440 280.667 C 168.362 280.667,165.931 279.254,165.000 278.668 C 164.862 278.582,164.337 278.270,163.833 277.976 C 162.448 277.166,158.284 274.682,158.000 274.496 C 157.862 274.405,157.637 274.280,157.500 274.217 C 157.362 274.153,156.027 273.366,154.532 272.468 C 153.037 271.569,151.744 270.833,151.657 270.833 C 151.571 270.833,151.500 270.758,151.500 270.667 C 151.500 270.575,151.430 270.500,151.344 270.500 C 151.258 270.500,150.330 269.987,149.282 269.359 C 148.234 268.732,147.273 268.169,147.146 268.108 C 147.020 268.046,146.692 267.848,146.417 267.667 C 146.142 267.485,145.804 267.284,145.667 267.220 C 145.529 267.156,144.758 266.705,143.952 266.218 C 143.147 265.732,142.422 265.333,142.341 265.333 C 142.261 265.333,142.169 265.273,142.139 265.199 C 142.108 265.125,141.371 264.661,140.500 264.168 C 139.629 263.675,138.354 262.923,137.667 262.496 C 136.979 262.069,135.967 261.473,135.417 261.171 C 134.867 260.869,134.094 260.407,133.700 260.144 C 133.306 259.882,132.952 259.667,132.914 259.667 C 132.850 259.667,130.053 258.024,129.500 257.662 C 129.362 257.572,129.137 257.448,129.000 257.386 C 128.862 257.325,128.300 256.996,127.750 256.655 C 127.200 256.314,125.250 255.153,123.417 254.075 C 121.583 252.996,119.858 251.977,119.583 251.809 C 119.308 251.641,118.933 251.427,118.750 251.333 C 118.567 251.239,118.192 251.017,117.917 250.840 C 117.642 250.663,117.042 250.303,116.583 250.041 C 116.125 249.779,114.250 248.675,112.417 247.587 C 110.583 246.499,108.896 245.505,108.667 245.378 C 108.438 245.252,108.025 245.003,107.750 244.826 C 107.475 244.650,107.100 244.428,106.917 244.333 C 106.733 244.238,106.208 243.935,105.750 243.659 C 105.292 243.383,104.767 243.083,104.583 242.993 C 104.400 242.902,104.050 242.698,103.806 242.539 C 103.562 242.380,102.737 241.880,101.973 241.429 C 101.209 240.977,99.739 240.096,98.708 239.470 C 97.677 238.845,96.787 238.333,96.732 238.333 C 96.677 238.333,96.298 238.108,95.891 237.833 C 95.483 237.558,95.120 237.333,95.083 237.333 C 95.045 237.333,94.146 236.808,93.083 236.167 C 92.021 235.525,91.125 235.000,91.093 235.000 C 91.061 235.000,89.672 234.175,88.007 233.167 C 86.343 232.158,84.951 231.333,84.914 231.333 C 84.878 231.333,83.979 230.808,82.917 230.167 C 81.854 229.525,80.955 229.000,80.917 229.000 C 80.880 229.000,80.528 228.783,80.133 228.518 C 78.643 227.516,77.099 226.749,77.223 227.073 " stroke="none" fill="#8b8b8b" fill-rule="evenodd"></path><path id="path2" d="M200.000 212.083 C 200.000 266.122,200.036 276.167,200.228 276.167 C 200.353 276.167,200.634 276.033,200.853 275.870 C 201.071 275.707,201.662 275.358,202.167 275.095 C 202.671 274.832,203.383 274.418,203.750 274.175 C 204.117 273.933,204.529 273.681,204.667 273.615 C 204.804 273.550,205.142 273.348,205.417 273.167 C 205.692 272.985,206.029 272.785,206.167 272.722 C 206.304 272.659,206.454 272.565,206.500 272.512 C 206.546 272.460,206.846 272.278,207.167 272.109 C 208.291 271.517,208.746 271.248,208.956 271.053 C 209.073 270.944,209.318 270.808,209.501 270.750 C 209.684 270.692,209.833 270.574,209.833 270.489 C 209.833 270.403,209.940 270.333,210.071 270.333 C 210.202 270.333,210.425 270.218,210.565 270.077 C 210.706 269.937,210.862 269.826,210.912 269.831 C 211.072 269.847,212.059 269.299,212.295 269.062 C 212.421 268.936,212.631 268.833,212.762 268.833 C 212.893 268.833,213.000 268.758,213.000 268.667 C 213.000 268.575,213.106 268.500,213.236 268.500 C 213.366 268.500,213.497 268.444,213.528 268.375 C 213.558 268.306,213.921 268.078,214.333 267.869 C 214.746 267.659,215.230 267.397,215.410 267.285 C 215.590 267.174,216.040 266.897,216.410 266.670 C 216.780 266.443,217.233 266.164,217.417 266.052 C 217.600 265.939,217.862 265.792,218.000 265.726 C 218.449 265.509,219.915 264.603,220.000 264.489 C 220.046 264.428,220.252 264.326,220.458 264.261 C 220.665 264.197,220.833 264.074,220.833 263.989 C 220.833 263.903,220.974 263.833,221.146 263.833 C 221.318 263.833,221.553 263.721,221.667 263.583 C 221.781 263.446,221.977 263.333,222.104 263.333 C 222.230 263.333,222.333 263.258,222.333 263.167 C 222.333 263.075,222.427 263.000,222.542 263.000 C 222.656 262.999,223.237 262.681,223.833 262.291 C 224.429 261.902,225.104 261.488,225.333 261.372 C 225.563 261.255,226.050 260.978,226.417 260.755 C 226.783 260.533,227.233 260.271,227.417 260.173 C 227.600 260.075,227.975 259.851,228.250 259.676 C 228.525 259.500,229.050 259.193,229.417 258.993 C 229.783 258.794,230.121 258.577,230.167 258.512 C 230.213 258.447,230.588 258.223,231.000 258.015 C 232.045 257.487,233.266 256.748,233.500 256.504 C 233.546 256.456,234.090 256.159,234.708 255.844 C 235.327 255.530,235.833 255.211,235.833 255.136 C 235.833 255.061,235.916 255.000,236.017 255.000 C 236.119 255.000,236.515 254.788,236.898 254.530 C 237.281 254.271,237.836 253.953,238.131 253.822 C 238.426 253.692,238.667 253.529,238.667 253.459 C 238.667 253.390,238.774 253.333,238.905 253.333 C 239.036 253.333,239.242 253.239,239.363 253.123 C 239.484 253.007,239.771 252.820,240.000 252.708 C 240.498 252.462,241.051 252.120,241.167 251.987 C 241.213 251.933,241.606 251.714,242.042 251.499 C 242.477 251.284,242.833 251.054,242.833 250.989 C 242.833 250.923,243.021 250.822,243.250 250.765 C 243.479 250.707,243.667 250.587,243.667 250.497 C 243.667 250.407,243.812 250.333,243.990 250.333 C 244.168 250.333,244.355 250.266,244.406 250.184 C 244.457 250.102,244.807 249.874,245.185 249.677 C 245.562 249.480,246.318 249.022,246.864 248.659 C 247.410 248.297,247.921 248.000,248.000 248.000 C 248.079 248.000,248.242 247.906,248.363 247.792 C 248.484 247.677,248.846 247.451,249.167 247.290 C 249.487 247.128,249.975 246.848,250.250 246.667 C 250.525 246.486,250.900 246.261,251.083 246.167 C 251.682 245.859,252.915 245.119,253.000 245.017 C 253.046 244.962,253.446 244.729,253.889 244.500 C 254.332 244.271,254.820 244.007,254.973 243.915 C 255.542 243.568,256.253 243.088,256.333 242.994 C 256.379 242.941,256.667 242.797,256.973 242.673 C 257.278 242.549,257.619 242.366,257.731 242.266 C 257.842 242.165,258.267 241.902,258.675 241.679 C 259.083 241.457,259.829 241.009,260.333 240.684 C 260.837 240.358,261.287 240.089,261.333 240.085 C 261.572 240.066,263.333 238.953,263.333 238.821 C 263.333 238.736,263.474 238.667,263.646 238.667 C 263.818 238.667,264.053 238.554,264.167 238.417 C 264.281 238.279,264.439 238.167,264.518 238.167 C 264.715 238.167,266.403 237.128,266.472 236.965 C 266.503 236.893,266.672 236.833,266.847 236.833 C 267.023 236.833,267.167 236.766,267.167 236.683 C 267.167 236.600,267.373 236.450,267.625 236.349 C 267.877 236.248,268.608 235.830,269.250 235.419 C 269.892 235.009,270.623 234.589,270.875 234.487 C 271.127 234.384,271.333 234.233,271.333 234.150 C 271.333 234.068,271.409 234.000,271.503 234.000 C 271.596 234.000,272.088 233.756,272.597 233.458 C 273.105 233.160,273.649 232.842,273.806 232.750 C 273.962 232.658,274.464 232.365,274.920 232.098 C 275.377 231.831,275.787 231.561,275.833 231.497 C 275.879 231.434,276.217 231.243,276.583 231.073 C 276.950 230.902,277.349 230.666,277.470 230.548 C 277.591 230.430,277.756 230.333,277.837 230.333 C 277.917 230.333,278.306 230.120,278.700 229.859 C 279.094 229.598,279.679 229.242,280.000 229.067 C 280.321 228.893,280.621 228.713,280.667 228.667 C 280.713 228.621,281.088 228.403,281.500 228.183 C 281.913 227.962,282.687 227.493,283.220 227.141 C 283.754 226.788,284.248 226.500,284.320 226.500 C 284.391 226.500,285.106 226.088,285.909 225.583 C 286.712 225.079,287.397 224.667,287.432 224.667 C 287.466 224.667,287.984 224.367,288.583 224.000 C 289.182 223.633,289.746 223.333,289.836 223.333 C 289.926 223.333,290.000 223.260,290.000 223.170 C 290.000 223.080,290.182 222.961,290.405 222.905 C 290.627 222.849,290.850 222.698,290.899 222.568 C 290.949 222.439,291.133 222.333,291.308 222.333 C 291.483 222.333,291.719 222.221,291.833 222.083 C 291.947 221.946,292.140 221.833,292.262 221.833 C 292.384 221.833,292.543 221.726,292.617 221.595 C 292.690 221.464,292.806 221.351,292.874 221.343 C 293.161 221.310,294.167 220.761,294.167 220.636 C 294.167 220.561,294.274 220.500,294.405 220.500 C 294.536 220.500,294.742 220.405,294.863 220.290 C 294.984 220.174,295.271 219.987,295.500 219.874 C 295.729 219.761,296.142 219.537,296.417 219.376 C 296.692 219.215,297.554 218.712,298.333 218.258 C 299.113 217.804,299.787 217.392,299.833 217.341 C 299.879 217.291,300.179 217.116,300.500 216.951 C 301.138 216.625,301.398 216.470,302.455 215.788 C 302.843 215.538,303.237 215.333,303.330 215.333 C 303.424 215.333,303.500 215.275,303.500 215.203 C 303.500 215.132,303.706 214.987,303.958 214.882 C 304.453 214.676,305.697 213.975,305.833 213.825 C 305.879 213.775,306.292 213.519,306.750 213.256 C 307.208 212.994,307.629 212.710,307.685 212.625 C 307.741 212.541,307.835 212.477,307.893 212.484 C 308.083 212.505,309.167 211.941,309.167 211.821 C 309.167 211.756,309.354 211.656,309.583 211.598 C 309.813 211.541,310.000 211.420,310.000 211.330 C 310.000 211.240,310.076 211.167,310.170 211.167 C 310.263 211.167,310.657 210.963,311.045 210.715 C 311.433 210.467,312.162 210.047,312.667 209.782 C 313.171 209.517,313.621 209.245,313.667 209.176 C 313.712 209.108,313.950 208.946,314.195 208.817 C 315.857 207.944,316.167 207.761,316.167 207.655 C 316.167 207.590,316.354 207.489,316.583 207.432 C 316.813 207.374,317.000 207.253,317.000 207.163 C 317.000 207.074,317.107 207.000,317.238 207.000 C 317.369 207.000,317.575 206.903,317.696 206.785 C 317.818 206.667,318.217 206.422,318.583 206.241 C 320.875 205.113,323.239 203.500,322.601 203.500 C 322.421 203.500,297.169 192.064,262.333 176.208 C 261.921 176.020,254.533 172.664,245.917 168.750 C 237.300 164.836,229.838 161.445,229.333 161.214 C 228.829 160.984,224.704 159.108,220.167 157.045 C 215.629 154.983,211.617 153.158,211.250 152.989 C 205.581 150.390,200.264 148.000,200.148 148.000 C 200.062 148.000,200.000 175.008,200.000 212.083 " stroke="none" fill="#141414" fill-rule="evenodd"></path></g></svg>