<svg id="svg" version="1.1" xmlns="http://www.w3.org/2000/svg" xmlns:xlink="http://www.w3.org/1999/xlink" width="400" height="400" viewBox="0, 0, 400,400"><g id="svgg"><path id="path0" d="M155.006 28.486 C 152.589 28.691,150.519 28.989,150.406 29.149 C 150.293 29.310,148.312 29.671,146.004 29.953 C 143.696 30.234,141.716 30.597,141.604 30.759 C 141.492 30.921,139.600 31.370,137.400 31.756 C 135.200 32.142,133.340 32.624,133.267 32.829 C 133.193 33.033,132.622 33.200,131.997 33.200 C 130.453 33.200,126.800 34.067,126.800 34.434 C 126.800 34.596,126.076 34.852,125.192 35.001 C 124.308 35.151,123.363 35.490,123.092 35.755 C 122.821 36.021,121.340 36.576,119.800 36.990 C 118.260 37.404,116.787 37.956,116.527 38.216 C 116.267 38.476,115.322 38.806,114.427 38.949 C 113.532 39.092,112.800 39.359,112.800 39.541 C 112.800 39.723,112.080 40.110,111.200 40.400 C 110.320 40.690,109.600 41.065,109.600 41.233 C 109.600 41.401,108.925 41.758,108.100 42.027 C 107.275 42.296,106.510 42.639,106.400 42.789 C 106.089 43.214,103.540 44.400,102.939 44.400 C 102.642 44.400,102.400 44.536,102.400 44.702 C 102.400 44.869,101.815 45.263,101.100 45.578 C 100.385 45.893,99.562 46.387,99.271 46.675 C 98.981 46.964,98.495 47.200,98.191 47.200 C 97.888 47.200,97.496 47.430,97.320 47.711 C 97.144 47.993,96.235 48.560,95.300 48.972 C 94.365 49.384,93.600 49.874,93.600 50.061 C 93.600 50.247,93.340 50.400,93.023 50.400 C 92.705 50.400,92.210 50.715,91.923 51.100 C 91.635 51.485,90.865 52.070,90.212 52.400 C 89.078 52.973,88.613 53.314,86.800 54.900 C 86.360 55.285,85.847 55.600,85.659 55.600 C 85.472 55.600,84.754 56.140,84.063 56.800 C 83.372 57.460,82.626 58.000,82.404 58.000 C 82.182 58.000,82.000 58.184,82.000 58.410 C 82.000 58.635,81.545 58.993,80.990 59.204 C 80.434 59.415,79.881 59.844,79.761 60.157 C 79.641 60.471,79.060 60.927,78.469 61.171 C 77.879 61.416,77.041 62.144,76.608 62.789 C 76.174 63.434,75.371 64.195,74.824 64.481 C 73.752 65.040,65.200 73.469,65.200 73.966 C 65.200 74.339,62.367 77.200,61.998 77.200 C 61.850 77.200,61.506 77.687,61.235 78.283 C 60.964 78.878,60.395 79.608,59.971 79.905 C 59.547 80.202,59.200 80.639,59.200 80.875 C 59.200 81.112,58.615 81.867,57.900 82.553 C 57.185 83.239,56.330 84.340,56.000 85.000 C 55.670 85.660,55.085 86.435,54.700 86.723 C 54.315 87.010,54.000 87.511,54.000 87.835 C 54.000 88.160,53.730 88.529,53.400 88.655 C 53.070 88.782,52.800 89.126,52.800 89.420 C 52.800 89.714,52.453 90.198,52.028 90.495 C 51.604 90.793,51.131 91.537,50.977 92.150 C 50.823 92.763,50.473 93.351,50.199 93.456 C 49.925 93.561,49.372 94.446,48.969 95.423 C 48.566 96.401,48.093 97.200,47.918 97.200 C 47.743 97.200,47.600 97.425,47.600 97.700 C 47.599 97.975,47.144 98.729,46.588 99.375 C 46.032 100.022,45.473 100.967,45.345 101.475 C 45.218 101.984,44.976 102.400,44.809 102.400 C 44.641 102.400,44.276 103.215,43.997 104.211 C 43.718 105.207,43.270 106.152,43.002 106.311 C 42.733 106.470,42.294 107.275,42.026 108.100 C 41.757 108.925,41.401 109.600,41.233 109.600 C 41.065 109.600,40.690 110.320,40.400 111.200 C 40.110 112.080,39.744 112.800,39.588 112.800 C 39.432 112.800,39.069 113.655,38.782 114.700 C 38.494 115.745,38.145 116.690,38.005 116.800 C 37.865 116.910,37.415 118.260,37.004 119.800 C 36.593 121.340,36.041 122.816,35.777 123.080 C 35.513 123.345,35.168 124.244,35.011 125.079 C 34.855 125.915,34.569 126.696,34.377 126.815 C 34.184 126.934,33.802 128.374,33.528 130.015 C 33.254 131.657,32.902 133.092,32.746 133.205 C 32.589 133.317,32.145 135.207,31.758 137.405 C 31.371 139.602,30.933 141.490,30.785 141.600 C 30.637 141.710,30.305 143.232,30.048 144.982 C 29.791 146.733,29.360 148.308,29.090 148.482 C 28.711 148.728,28.723 148.879,29.145 149.152 C 29.474 149.363,29.524 149.562,29.271 149.652 C 27.654 150.224,27.528 244.853,29.144 245.991 C 29.307 246.106,29.671 248.088,29.953 250.396 C 30.234 252.704,30.592 254.684,30.749 254.796 C 31.089 255.040,32.400 261.820,32.400 263.335 C 32.400 263.921,32.544 264.400,32.720 264.400 C 32.896 264.400,33.268 265.505,33.547 266.856 C 33.826 268.206,34.296 269.553,34.591 269.848 C 34.886 270.143,35.249 271.108,35.399 271.992 C 35.548 272.876,35.806 273.600,35.971 273.600 C 36.137 273.600,36.515 274.611,36.811 275.846 C 37.108 277.082,37.543 278.297,37.779 278.546 C 38.014 278.796,38.441 279.896,38.726 280.990 C 39.012 282.085,39.378 283.075,39.539 283.190 C 39.701 283.306,40.080 284.165,40.381 285.100 C 40.682 286.035,41.062 286.800,41.225 286.800 C 41.388 286.800,41.710 287.340,41.940 288.000 C 42.170 288.660,42.519 289.200,42.716 289.200 C 42.912 289.200,43.400 290.280,43.800 291.600 C 44.200 292.920,44.659 294.000,44.820 294.000 C 44.981 294.000,45.218 294.416,45.345 294.925 C 45.473 295.433,46.032 296.378,46.588 297.025 C 47.144 297.671,47.599 298.425,47.600 298.700 C 47.600 298.975,47.743 299.200,47.918 299.200 C 48.093 299.200,48.570 300.010,48.978 301.000 C 49.387 301.990,49.878 302.800,50.070 302.800 C 50.262 302.800,50.591 303.250,50.800 303.800 C 51.009 304.350,51.321 304.800,51.492 304.800 C 51.664 304.800,52.061 305.385,52.373 306.100 C 52.686 306.815,53.270 307.635,53.671 307.923 C 54.072 308.210,54.400 308.711,54.400 309.035 C 54.400 309.360,54.670 309.729,55.000 309.855 C 55.330 309.982,55.602 310.291,55.605 310.543 C 55.611 311.052,56.923 312.830,58.300 314.198 C 58.795 314.690,59.200 315.295,59.200 315.542 C 59.200 315.790,59.560 316.218,60.000 316.493 C 60.440 316.768,60.800 317.204,60.800 317.462 C 60.800 317.721,61.362 318.442,62.050 319.066 C 62.737 319.690,63.682 320.634,64.150 321.165 C 64.617 321.695,65.405 322.493,65.900 322.937 C 66.395 323.381,66.800 323.887,66.800 324.062 C 66.800 324.236,67.816 325.329,69.057 326.489 C 70.299 327.650,71.843 329.095,72.488 329.700 C 73.134 330.305,73.816 330.800,74.004 330.800 C 74.192 330.800,74.460 331.160,74.600 331.600 C 74.740 332.040,75.067 332.401,75.327 332.401 C 75.587 332.402,76.160 332.943,76.600 333.603 C 77.040 334.264,77.724 334.909,78.120 335.036 C 78.517 335.163,79.353 335.747,79.980 336.333 C 80.606 336.920,81.585 337.760,82.156 338.200 C 82.726 338.640,83.582 339.315,84.057 339.700 C 84.533 340.085,85.049 340.400,85.203 340.400 C 85.452 340.400,85.942 340.783,88.440 342.930 C 88.792 343.232,89.647 343.731,90.340 344.037 C 91.033 344.344,91.600 344.741,91.600 344.918 C 91.600 345.096,92.140 345.430,92.800 345.660 C 93.460 345.890,94.000 346.232,94.000 346.420 C 94.000 346.609,94.675 347.076,95.500 347.460 C 96.325 347.843,97.144 348.392,97.320 348.678 C 97.496 348.965,97.888 349.200,98.191 349.200 C 98.495 349.200,98.986 349.443,99.282 349.740 C 99.579 350.036,100.492 350.500,101.311 350.771 C 102.130 351.041,102.800 351.391,102.800 351.549 C 102.800 351.707,103.610 352.170,104.600 352.578 C 105.590 352.987,106.400 353.445,106.400 353.597 C 106.400 353.749,107.120 354.089,108.000 354.353 C 108.880 354.616,109.600 354.987,109.600 355.176 C 109.600 355.365,110.541 355.746,111.690 356.022 C 112.840 356.297,114.000 356.743,114.268 357.011 C 114.536 357.279,115.576 357.741,116.578 358.037 C 117.580 358.333,118.400 358.694,118.400 358.840 C 118.400 358.986,119.210 359.309,120.200 359.558 C 121.190 359.808,122.000 360.158,122.000 360.337 C 122.000 360.706,125.560 361.600,127.031 361.600 C 127.564 361.600,128.000 361.755,128.000 361.945 C 128.000 362.135,129.125 362.526,130.500 362.813 C 131.875 363.100,133.090 363.463,133.200 363.620 C 133.439 363.961,139.277 365.200,140.643 365.200 C 141.169 365.200,141.600 365.354,141.600 365.541 C 141.600 365.911,146.387 366.800,148.377 366.800 C 149.050 366.800,149.600 366.947,149.600 367.127 C 149.600 368.764,245.619 368.831,246.800 367.195 C 246.910 367.042,248.755 366.688,250.900 366.407 C 253.045 366.127,254.800 365.740,254.800 365.549 C 254.800 365.357,255.231 365.200,255.757 365.200 C 257.123 365.200,262.961 363.961,263.200 363.620 C 263.310 363.463,264.525 363.100,265.900 362.813 C 267.275 362.526,268.400 362.154,268.400 361.987 C 268.400 361.821,269.075 361.582,269.900 361.457 C 273.472 360.918,274.400 360.692,274.400 360.362 C 274.400 360.169,275.210 359.808,276.200 359.558 C 277.190 359.309,278.000 358.959,278.000 358.781 C 278.000 358.603,278.990 358.169,280.200 357.817 C 281.410 357.465,282.400 357.031,282.400 356.852 C 282.400 356.674,283.390 356.306,284.600 356.035 C 285.810 355.764,286.800 355.383,286.800 355.187 C 286.800 354.992,287.520 354.616,288.400 354.353 C 289.280 354.089,290.000 353.749,290.000 353.597 C 290.000 353.445,290.810 352.987,291.800 352.578 C 292.790 352.170,293.600 351.707,293.600 351.549 C 293.600 351.391,294.265 351.043,295.077 350.774 C 295.890 350.506,296.914 349.952,297.353 349.543 C 297.792 349.135,298.387 348.800,298.675 348.800 C 298.964 348.800,299.200 348.662,299.200 348.494 C 299.200 348.326,299.920 347.877,300.800 347.496 C 301.680 347.114,302.400 346.644,302.400 346.450 C 302.400 346.256,302.940 345.873,303.600 345.600 C 304.260 345.327,304.800 344.989,304.800 344.849 C 304.800 344.710,305.385 344.339,306.100 344.027 C 306.815 343.714,307.635 343.130,307.923 342.729 C 308.210 342.328,308.660 341.997,308.923 341.993 C 309.185 341.989,309.824 341.539,310.342 340.993 C 310.860 340.447,311.516 340.000,311.799 340.000 C 312.083 340.000,312.418 339.730,312.545 339.400 C 312.671 339.070,313.030 338.800,313.341 338.800 C 313.653 338.800,314.203 338.350,314.563 337.800 C 314.924 337.250,315.400 336.800,315.623 336.800 C 315.845 336.800,316.657 336.170,317.427 335.400 C 318.197 334.630,318.956 333.994,319.113 333.986 C 319.271 333.979,320.744 332.629,322.387 330.986 C 324.030 329.344,325.507 328.000,325.669 328.000 C 326.052 328.000,328.000 326.052,328.000 325.669 C 328.000 325.507,329.344 324.030,330.986 322.387 C 332.629 320.744,333.979 319.271,333.986 319.113 C 333.994 318.956,334.630 318.197,335.400 317.427 C 336.170 316.657,336.800 315.845,336.800 315.623 C 336.800 315.400,337.250 314.924,337.800 314.563 C 338.350 314.203,338.800 313.653,338.800 313.341 C 338.800 313.030,339.070 312.671,339.400 312.545 C 339.730 312.418,340.000 312.083,340.000 311.799 C 340.000 311.516,340.447 310.860,340.993 310.342 C 341.539 309.824,341.990 309.220,341.994 309.000 C 341.998 308.780,342.541 307.970,343.200 307.200 C 343.859 306.430,344.399 305.575,344.399 305.300 C 344.400 305.025,344.577 304.800,344.792 304.800 C 345.008 304.800,345.298 304.348,345.437 303.795 C 345.576 303.242,345.894 302.657,346.145 302.495 C 346.692 302.141,347.534 300.865,347.858 299.900 C 347.988 299.515,348.252 299.200,348.447 299.200 C 348.641 299.200,348.800 298.964,348.800 298.675 C 348.800 298.387,349.135 297.792,349.543 297.353 C 349.952 296.914,350.506 295.890,350.774 295.077 C 351.043 294.265,351.399 293.600,351.566 293.600 C 351.733 293.600,352.207 292.610,352.618 291.400 C 353.029 290.190,353.518 289.200,353.704 289.200 C 353.890 289.200,354.230 288.660,354.460 288.000 C 354.690 287.340,355.028 286.800,355.210 286.800 C 355.393 286.800,355.764 285.810,356.035 284.600 C 356.306 283.390,356.666 282.400,356.835 282.400 C 357.005 282.400,357.431 281.410,357.783 280.200 C 358.135 278.990,358.569 278.000,358.747 278.000 C 358.926 278.000,359.310 277.010,359.600 275.800 C 359.890 274.590,360.235 273.600,360.366 273.600 C 360.713 273.600,361.600 270.585,361.600 269.406 C 361.600 268.853,361.747 268.400,361.927 268.400 C 362.106 268.400,362.486 267.230,362.770 265.800 C 363.054 264.370,363.417 263.200,363.576 263.200 C 363.736 263.200,364.200 261.355,364.608 259.100 C 365.016 256.845,365.481 254.908,365.643 254.796 C 365.804 254.684,366.166 252.704,366.447 250.396 C 366.729 248.088,367.149 246.051,367.380 245.870 C 367.666 245.645,367.640 245.474,367.300 245.336 C 367.025 245.225,366.800 244.893,366.800 244.600 C 366.800 244.307,367.025 243.992,367.300 243.900 C 367.975 243.675,368.040 150.929,367.366 150.485 C 367.128 150.328,366.708 148.310,366.434 146.000 C 366.161 143.690,365.771 141.740,365.568 141.667 C 365.366 141.593,365.200 141.118,365.200 140.609 C 365.200 139.269,363.956 133.436,363.620 133.200 C 363.463 133.090,363.100 131.875,362.813 130.500 C 362.526 129.125,362.135 128.000,361.945 128.000 C 361.755 128.000,361.600 127.564,361.600 127.031 C 361.600 125.560,360.706 122.000,360.337 122.000 C 360.158 122.000,359.808 121.190,359.558 120.200 C 359.309 119.210,358.985 118.400,358.837 118.400 C 358.690 118.400,358.217 117.230,357.785 115.800 C 357.353 114.370,356.868 113.200,356.706 113.200 C 356.544 113.200,356.208 112.390,355.958 111.400 C 355.709 110.410,355.354 109.600,355.169 109.600 C 354.984 109.600,354.616 108.880,354.353 108.000 C 354.089 107.120,353.746 106.400,353.591 106.400 C 353.436 106.400,352.999 105.590,352.621 104.600 C 352.243 103.610,351.783 102.800,351.598 102.800 C 351.413 102.800,351.041 102.130,350.771 101.311 C 350.500 100.492,350.036 99.579,349.740 99.282 C 349.443 98.986,349.200 98.495,349.200 98.191 C 349.200 97.888,348.975 97.496,348.700 97.320 C 348.425 97.144,347.888 96.325,347.506 95.500 C 347.125 94.675,346.648 94.000,346.446 94.000 C 346.244 94.000,345.890 93.460,345.660 92.800 C 345.430 92.140,345.086 91.600,344.895 91.600 C 344.705 91.600,344.302 90.970,344.000 90.200 C 343.698 89.430,343.300 88.800,343.115 88.800 C 342.931 88.800,342.607 88.345,342.396 87.790 C 342.185 87.234,341.739 86.675,341.406 86.547 C 341.073 86.419,340.800 86.109,340.800 85.857 C 340.799 85.606,340.357 84.860,339.817 84.200 C 339.276 83.540,338.511 82.580,338.117 82.066 C 337.723 81.552,336.815 80.492,336.100 79.710 C 335.385 78.928,334.800 78.087,334.800 77.840 C 334.800 77.594,334.440 77.168,334.000 76.893 C 333.560 76.618,333.200 76.125,333.200 75.797 C 333.200 75.468,332.930 75.200,332.600 75.200 C 332.270 75.200,332.000 75.038,332.000 74.840 C 332.000 74.400,324.184 66.588,322.355 65.200 C 321.630 64.650,320.669 63.769,320.219 63.243 C 318.993 61.810,317.887 60.800,317.543 60.800 C 317.374 60.800,316.792 60.395,316.250 59.900 C 313.124 57.048,312.339 56.400,312.010 56.400 C 311.810 56.400,311.402 56.053,311.105 55.628 C 310.807 55.204,310.065 54.731,309.454 54.578 C 308.843 54.425,308.133 53.962,307.876 53.550 C 307.618 53.137,307.191 52.800,306.926 52.800 C 306.662 52.800,306.202 52.453,305.905 52.028 C 305.607 51.604,304.863 51.131,304.250 50.977 C 303.637 50.823,303.049 50.473,302.944 50.199 C 302.839 49.925,301.954 49.372,300.977 48.969 C 299.999 48.566,299.200 48.084,299.200 47.897 C 299.200 47.711,298.660 47.370,298.000 47.140 C 297.340 46.910,296.800 46.581,296.800 46.409 C 296.800 46.238,296.215 45.860,295.500 45.571 C 294.785 45.282,294.110 44.929,294.000 44.786 C 293.890 44.643,292.945 44.204,291.900 43.809 C 290.855 43.414,290.000 42.964,290.000 42.809 C 290.000 42.654,289.280 42.311,288.400 42.047 C 287.520 41.784,286.800 41.424,286.800 41.248 C 286.800 41.072,286.080 40.690,285.200 40.400 C 284.320 40.110,283.600 39.735,283.600 39.568 C 283.600 39.400,283.015 39.139,282.300 38.986 C 281.585 38.834,280.270 38.381,279.377 37.980 C 278.485 37.579,276.865 37.027,275.777 36.753 C 274.690 36.479,273.579 36.034,273.308 35.764 C 273.037 35.494,272.092 35.151,271.208 35.001 C 270.324 34.852,269.600 34.585,269.600 34.408 C 269.600 34.231,268.430 33.854,267.000 33.570 C 265.570 33.286,264.400 32.924,264.400 32.767 C 264.400 32.609,263.635 32.400,262.700 32.301 C 259.933 32.009,255.016 31.051,254.800 30.761 C 254.690 30.614,252.890 30.264,250.800 29.983 C 248.710 29.703,246.910 29.348,246.800 29.196 C 245.984 28.065,167.163 27.455,155.006 28.486 M91.528 94.363 C 92.558 95.223,94.840 97.028,96.600 98.375 C 98.360 99.721,101.420 102.061,103.400 103.575 C 105.380 105.089,107.360 106.659,107.800 107.064 C 108.240 107.469,109.680 108.596,111.000 109.569 C 112.320 110.541,113.950 111.801,114.622 112.369 C 115.294 112.936,116.454 113.850,117.200 114.400 C 117.946 114.950,120.039 116.570,121.852 118.000 C 123.665 119.430,127.245 122.220,129.809 124.200 C 132.373 126.180,137.290 130.005,140.736 132.701 C 144.181 135.396,149.487 139.536,152.526 141.901 C 155.565 144.265,159.075 147.014,160.326 148.009 C 161.577 149.004,165.277 151.884,168.549 154.409 C 171.822 156.934,175.163 159.540,175.974 160.200 C 176.785 160.860,178.040 161.850,178.764 162.400 C 179.487 162.950,180.556 163.777,181.139 164.238 C 185.963 168.050,193.831 174.149,195.766 175.577 L 198.132 177.323 196.366 178.904 C 194.643 180.446,194.639 180.455,196.200 179.282 C 197.080 178.621,198.236 177.612,198.770 177.040 C 199.303 176.468,199.959 176.000,200.226 176.000 C 200.494 176.000,201.588 175.230,202.657 174.288 C 205.688 171.617,208.686 169.200,208.966 169.200 C 209.107 169.200,210.830 167.895,212.796 166.300 C 216.772 163.074,217.797 162.270,228.392 154.058 C 232.466 150.900,236.729 147.525,237.864 146.558 C 238.999 145.591,240.079 144.798,240.264 144.796 C 240.449 144.794,241.680 143.867,243.000 142.736 C 244.320 141.604,247.020 139.442,249.000 137.929 C 250.980 136.417,253.770 134.272,255.200 133.161 C 256.630 132.051,259.481 129.851,261.537 128.271 C 263.592 126.692,266.358 124.500,267.684 123.400 C 269.011 122.300,270.386 121.220,270.741 121.000 C 271.095 120.780,272.919 119.390,274.793 117.911 C 276.667 116.433,278.560 114.951,279.000 114.620 C 279.440 114.288,281.420 112.757,283.400 111.218 C 285.380 109.679,287.450 108.072,288.000 107.646 C 288.550 107.220,290.080 105.993,291.400 104.920 C 292.720 103.847,294.430 102.536,295.200 102.006 C 295.970 101.477,297.860 100.035,299.400 98.802 C 300.940 97.569,303.261 95.710,304.557 94.671 C 305.854 93.632,306.991 92.857,307.084 92.950 C 307.310 93.176,306.489 96.300,305.810 97.800 C 305.511 98.460,305.138 99.720,304.981 100.600 C 304.824 101.480,304.544 102.392,304.359 102.627 C 304.175 102.862,303.672 104.122,303.242 105.427 C 302.166 108.697,301.263 111.179,300.630 112.600 C 300.337 113.260,299.599 114.970,298.991 116.400 C 294.957 125.895,291.550 133.010,288.518 138.279 C 287.353 140.302,286.400 142.044,286.400 142.149 C 286.400 142.255,285.471 143.839,284.336 145.671 C 283.201 147.502,281.844 149.720,281.320 150.600 C 279.917 152.960,277.105 157.337,276.284 158.439 C 275.281 159.786,271.482 165.178,271.000 165.941 C 270.780 166.289,269.115 168.419,267.300 170.675 C 265.485 172.930,264.000 174.880,264.000 175.008 C 264.000 175.317,256.548 183.866,254.900 185.447 C 254.185 186.133,253.600 186.805,253.600 186.939 C 253.600 187.074,252.308 188.446,250.729 189.988 C 246.911 193.716,247.408 193.837,253.704 190.716 C 256.617 189.272,259.990 187.640,261.200 187.089 C 262.410 186.538,265.020 185.333,267.000 184.411 C 268.980 183.490,271.410 182.368,272.400 181.919 C 273.390 181.470,276.180 180.154,278.600 178.996 C 281.020 177.838,284.170 176.347,285.600 175.683 C 287.030 175.018,290.540 173.359,293.400 171.994 C 298.524 169.550,301.600 168.277,301.600 168.601 C 301.600 169.234,296.820 177.621,295.660 179.025 C 295.466 179.259,295.087 179.864,294.817 180.369 C 294.204 181.513,289.538 187.983,287.583 190.400 C 286.782 191.390,285.963 192.498,285.763 192.862 C 284.929 194.382,274.251 206.783,269.845 211.347 C 268.599 212.638,267.859 213.586,268.200 213.455 C 268.636 213.288,269.231 213.840,270.198 215.309 C 271.731 217.637,278.249 226.808,282.006 231.923 C 283.349 233.750,285.342 236.540,286.436 238.123 C 288.646 241.320,291.314 245.090,296.417 252.223 C 311.976 273.978,310.885 296.536,294.000 302.190 C 276.835 307.938,248.287 301.207,218.200 284.318 C 212.594 281.171,207.050 277.916,205.400 276.801 C 204.520 276.206,202.569 274.941,201.064 273.989 L 198.327 272.258 199.264 271.480 C 200.576 270.390,199.340 271.169,195.427 273.900 C 193.773 275.055,192.313 276.000,192.183 276.000 C 192.053 276.000,191.374 276.427,190.673 276.949 C 189.973 277.472,188.590 278.351,187.600 278.904 C 186.610 279.457,183.370 281.303,180.400 283.006 C 172.711 287.415,162.326 292.596,156.635 294.863 C 150.149 297.447,141.520 300.400,140.457 300.400 C 140.074 300.400,139.577 300.583,139.354 300.806 C 139.131 301.029,137.610 301.484,135.974 301.817 C 134.338 302.150,131.560 302.717,129.800 303.076 C 125.168 304.022,109.753 304.045,105.704 303.112 C 97.430 301.206,91.414 295.574,89.610 288.044 C 88.928 285.196,89.260 275.323,90.123 272.800 C 90.462 271.810,90.941 270.190,91.189 269.200 C 91.436 268.210,91.886 266.860,92.189 266.200 C 95.102 259.852,96.732 256.783,98.404 254.494 C 99.486 253.013,101.206 250.630,102.225 249.200 C 108.003 241.097,109.393 239.161,111.109 236.828 C 112.149 235.414,113.251 233.794,113.558 233.228 C 113.865 232.663,114.495 231.730,114.958 231.156 C 115.421 230.581,116.070 229.705,116.400 229.209 C 116.730 228.712,117.855 227.149,118.900 225.735 C 119.945 224.320,120.800 223.082,120.800 222.983 C 120.800 222.808,124.379 217.882,127.472 213.800 C 128.855 211.974,131.596 208.198,133.933 204.900 C 134.440 204.185,134.763 203.600,134.652 203.600 C 134.541 203.600,133.045 205.580,131.328 208.000 C 129.611 210.420,128.018 212.400,127.788 212.400 C 127.341 212.400,122.840 207.598,118.978 203.000 C 117.685 201.460,116.516 200.110,116.382 200.000 C 116.097 199.767,111.414 193.937,108.786 190.543 C 104.829 185.433,98.681 176.197,96.709 172.400 C 96.081 171.190,95.355 169.894,95.097 169.519 C 94.281 168.334,95.105 168.258,97.287 169.318 C 101.365 171.297,109.701 175.200,109.852 175.200 C 109.936 175.200,112.298 176.298,115.102 177.641 C 122.283 181.080,125.495 182.589,127.800 183.608 C 132.022 185.475,142.616 190.517,142.944 190.815 C 143.133 190.987,142.720 191.954,142.025 192.964 C 141.330 193.974,140.852 194.800,140.962 194.800 C 141.072 194.800,141.741 193.945,142.449 192.900 C 143.157 191.855,144.935 189.380,146.401 187.400 C 149.415 183.327,149.916 182.557,149.308 182.934 C 149.079 183.075,148.029 184.453,146.975 185.995 C 145.063 188.794,144.324 189.302,143.720 188.235 C 143.544 187.924,141.501 185.539,139.179 182.935 C 131.990 174.869,125.500 166.434,119.228 157.000 C 117.180 153.920,115.197 150.950,114.821 150.400 C 114.210 149.504,112.578 146.734,110.157 142.480 C 105.236 133.834,100.695 124.641,97.472 116.800 C 92.735 105.276,88.537 92.800,89.396 92.800 C 89.539 92.800,90.499 93.503,91.528 94.363 M160.889 166.500 C 157.423 171.239,155.439 174.147,155.841 173.898 C 156.076 173.753,157.603 171.716,159.234 169.372 L 162.200 165.109 162.443 166.655 L 162.686 168.200 162.743 166.300 C 162.814 163.931,162.764 163.936,160.889 166.500 M162.134 176.000 C 162.134 177.650,162.205 178.325,162.291 177.500 C 162.378 176.675,162.378 175.325,162.291 174.500 C 162.205 173.675,162.134 174.350,162.134 176.000 M153.360 177.100 C 152.925 177.705,151.886 179.145,151.051 180.300 C 150.215 181.455,149.623 182.400,149.734 182.400 C 149.915 182.400,153.400 177.740,154.146 176.500 C 154.704 175.573,154.157 175.991,153.360 177.100 M192.400 181.846 C 190.184 183.577,188.963 184.828,190.600 183.692 C 192.044 182.689,194.681 180.431,194.400 180.437 C 194.290 180.439,193.390 181.074,192.400 181.846 M161.731 185.400 C 161.733 186.940,161.805 187.521,161.892 186.691 C 161.979 185.861,161.977 184.601,161.889 183.891 C 161.800 183.181,161.729 183.860,161.731 185.400 M182.297 189.739 C 179.710 191.778,177.370 193.690,177.097 193.987 C 176.486 194.653,184.061 188.912,186.000 187.240 C 188.781 184.842,186.901 186.110,182.297 189.739 M161.351 193.200 C 161.351 195.730,161.416 196.765,161.496 195.500 C 161.575 194.235,161.575 192.165,161.496 190.900 C 161.416 189.635,161.351 190.670,161.351 193.200 M252.314 190.452 C 252.429 191.048,249.699 192.632,249.280 192.213 C 248.953 191.886,251.290 189.563,251.781 189.727 C 252.011 189.804,252.251 190.130,252.314 190.452 M168.800 200.252 L 161.400 206.045 161.178 201.922 L 160.957 197.800 160.878 202.143 C 160.812 205.805,160.891 206.451,161.383 206.262 C 162.534 205.820,177.171 194.228,176.324 194.429 C 176.256 194.445,172.870 197.066,168.800 200.252 M138.913 197.300 C 137.544 199.080,134.765 203.200,134.933 203.200 C 135.044 203.200,136.015 201.985,137.091 200.500 C 139.316 197.427,139.719 196.800,139.473 196.800 C 139.377 196.800,139.125 197.025,138.913 197.300 M259.397 221.800 C 255.216 225.980,249.906 231.102,247.597 233.183 C 245.289 235.264,243.326 237.154,243.235 237.383 C 242.955 238.092,251.009 230.591,259.396 222.332 C 263.793 218.001,267.303 214.400,267.196 214.329 C 267.088 214.258,263.579 217.620,259.397 221.800 M239.244 240.591 C 237.398 242.209,235.508 243.939,235.044 244.433 C 234.580 244.928,236.135 243.670,238.500 241.638 C 242.185 238.472,243.195 237.507,242.700 237.624 C 242.645 237.637,241.090 238.972,239.244 240.591 M231.441 247.195 C 230.144 248.268,228.794 249.457,228.441 249.838 C 228.089 250.219,229.195 249.409,230.900 248.039 C 233.529 245.927,234.398 245.111,233.900 245.222 C 233.845 245.235,232.739 246.122,231.441 247.195 M225.600 252.037 L 223.800 253.671 225.494 252.407 C 226.987 251.292,227.892 250.398,227.524 250.401 C 227.456 250.402,226.590 251.138,225.600 252.037 M219.812 256.427 C 216.547 258.965,214.395 260.844,216.000 259.754 C 217.485 258.747,223.600 253.938,223.600 253.778 C 223.600 253.487,223.544 253.526,219.812 256.427 M213.600 261.249 C 212.206 262.471,212.205 262.472,213.488 261.619 C 214.196 261.148,214.882 260.591,215.012 260.381 C 215.397 259.757,215.077 259.954,213.600 261.249 M209.600 264.044 C 208.390 264.934,205.825 266.732,203.900 268.041 C 200.362 270.446,198.960 271.745,202.100 269.709 C 204.769 267.978,212.000 262.766,212.000 262.573 C 212.000 262.291,211.898 262.354,209.600 264.044 " stroke="none" fill="#ccb374" fill-rule="evenodd"></path><path id="path1" d="M304.557 94.671 C 303.261 95.710,300.940 97.569,299.400 98.802 C 297.860 100.035,295.970 101.477,295.200 102.006 C 294.430 102.536,292.720 103.847,291.400 104.920 C 290.080 105.993,288.550 107.220,288.000 107.646 C 287.450 108.072,285.380 109.679,283.400 111.218 C 281.420 112.757,279.440 114.288,279.000 114.620 C 278.560 114.951,276.667 116.433,274.793 117.911 C 272.919 119.390,271.095 120.780,270.741 121.000 C 270.386 121.220,269.011 122.300,267.684 123.400 C 266.358 124.500,263.592 126.692,261.537 128.271 C 259.481 129.851,256.630 132.051,255.200 133.161 C 253.770 134.272,250.980 136.417,249.000 137.929 C 247.020 139.442,244.320 141.604,243.000 142.736 C 241.680 143.867,240.449 144.794,240.264 144.796 C 240.079 144.798,238.999 145.591,237.864 146.558 C 236.729 147.525,232.466 150.900,228.392 154.058 C 217.797 162.270,216.772 163.074,212.796 166.300 C 210.830 167.895,209.107 169.200,208.966 169.200 C 208.686 169.200,205.688 171.617,202.657 174.288 C 201.588 175.230,200.497 176.000,200.232 176.000 C 199.967 176.000,199.245 176.527,198.628 177.171 C 198.011 177.814,195.795 179.659,193.703 181.271 C 191.611 182.882,188.077 185.648,185.850 187.419 C 183.622 189.189,180.360 191.739,178.600 193.084 C 176.840 194.430,172.269 197.977,168.442 200.966 C 164.615 203.955,161.330 206.400,161.142 206.400 C 160.714 206.400,160.733 202.175,161.200 193.400 C 162.872 161.973,163.053 163.923,159.000 169.650 C 157.240 172.137,154.810 175.565,153.600 177.267 C 152.390 178.969,150.866 181.135,150.214 182.080 C 149.561 183.026,147.842 185.420,146.393 187.400 C 144.944 189.380,142.813 192.350,141.658 194.000 C 137.450 200.007,129.537 211.059,127.769 213.400 C 124.271 218.031,120.800 222.804,120.800 222.983 C 120.800 223.082,119.945 224.320,118.900 225.735 C 117.855 227.149,116.730 228.712,116.400 229.209 C 116.070 229.705,115.421 230.581,114.958 231.156 C 114.495 231.730,113.865 232.663,113.558 233.228 C 113.251 233.794,112.149 235.414,111.109 236.828 C 109.393 239.161,108.003 241.097,102.225 249.200 C 101.206 250.630,99.486 253.013,98.404 254.494 C 96.732 256.783,95.102 259.852,92.189 266.200 C 91.886 266.860,91.436 268.210,91.189 269.200 C 90.941 270.190,90.462 271.810,90.123 272.800 C 89.260 275.323,88.928 285.196,89.610 288.044 C 91.414 295.574,97.430 301.206,105.704 303.112 C 109.753 304.045,125.168 304.022,129.800 303.076 C 131.560 302.717,134.338 302.150,135.974 301.817 C 137.610 301.484,139.131 301.029,139.354 300.806 C 139.577 300.583,140.074 300.400,140.457 300.400 C 141.520 300.400,150.149 297.447,156.635 294.863 C 162.326 292.596,172.711 287.415,180.400 283.006 C 183.370 281.303,186.610 279.457,187.600 278.904 C 188.590 278.351,189.973 277.472,190.673 276.949 C 191.374 276.427,192.059 276.000,192.196 276.000 C 192.334 276.000,193.651 275.156,195.123 274.126 C 196.595 273.095,199.510 271.082,201.600 269.653 C 231.402 249.274,260.723 223.014,281.800 197.826 C 283.780 195.460,285.563 193.226,285.763 192.862 C 285.963 192.498,286.782 191.390,287.583 190.400 C 289.538 187.983,294.204 181.513,294.817 180.369 C 295.087 179.864,295.466 179.259,295.660 179.025 C 296.820 177.621,301.600 169.234,301.600 168.601 C 301.600 168.277,298.524 169.550,293.400 171.994 C 290.540 173.359,287.030 175.018,285.600 175.683 C 284.170 176.347,281.020 177.838,278.600 178.996 C 276.180 180.154,273.390 181.470,272.400 181.919 C 271.410 182.368,268.980 183.490,267.000 184.411 C 265.020 185.333,262.410 186.538,261.200 187.089 C 259.990 187.640,256.617 189.272,253.704 190.716 C 247.408 193.837,246.911 193.716,250.729 189.988 C 252.308 188.446,253.600 187.074,253.600 186.939 C 253.600 186.805,254.185 186.133,254.900 185.447 C 256.548 183.866,264.000 175.317,264.000 175.008 C 264.000 174.880,265.485 172.930,267.300 170.675 C 269.115 168.419,270.780 166.289,271.000 165.941 C 271.482 165.178,275.281 159.786,276.284 158.439 C 277.105 157.337,279.917 152.960,281.320 150.600 C 281.844 149.720,283.201 147.502,284.336 145.671 C 285.471 143.839,286.400 142.255,286.400 142.149 C 286.400 142.044,287.353 140.302,288.518 138.279 C 291.550 133.010,294.957 125.895,298.991 116.400 C 299.599 114.970,300.337 113.260,300.630 112.600 C 301.263 111.179,302.166 108.697,303.242 105.427 C 303.672 104.122,304.175 102.862,304.359 102.627 C 304.544 102.392,304.824 101.480,304.981 100.600 C 305.138 99.720,305.511 98.460,305.810 97.800 C 306.489 96.300,307.310 93.176,307.084 92.950 C 306.991 92.857,305.854 93.632,304.557 94.671 " stroke="none" fill="#fbfbfb" fill-rule="evenodd"></path><path id="path2" d="M89.401 94.005 C 90.233 97.795,93.799 107.865,97.472 116.800 C 99.886 122.672,104.821 132.963,107.637 138.000 C 111.241 144.444,113.964 149.145,114.821 150.400 C 115.197 150.950,117.180 153.920,119.228 157.000 C 125.210 165.998,132.081 174.994,138.174 181.808 C 139.948 183.792,142.063 186.196,142.874 187.150 C 144.812 189.429,144.021 190.192,153.400 177.000 C 163.782 162.398,162.909 163.212,162.622 168.400 C 162.105 177.773,161.133 203.875,161.262 204.928 C 161.415 206.182,158.764 208.125,188.171 185.210 L 198.142 177.440 196.971 176.531 C 196.327 176.031,192.740 173.251,189.000 170.352 C 185.260 167.454,181.723 164.704,181.139 164.241 C 180.556 163.779,179.487 162.950,178.764 162.400 C 178.040 161.850,176.785 160.860,175.974 160.200 C 175.163 159.540,171.822 156.934,168.549 154.409 C 165.277 151.884,161.577 149.004,160.326 148.009 C 159.075 147.014,155.565 144.265,152.526 141.901 C 149.487 139.536,144.181 135.396,140.736 132.701 C 137.290 130.005,132.373 126.180,129.809 124.200 C 127.245 122.220,123.665 119.430,121.852 118.000 C 120.039 116.570,117.946 114.950,117.200 114.400 C 116.454 113.850,115.294 112.936,114.622 112.369 C 113.950 111.801,112.320 110.541,111.000 109.569 C 109.680 108.596,108.240 107.469,107.800 107.064 C 107.360 106.659,105.380 105.089,103.400 103.575 C 101.420 102.061,98.360 99.721,96.600 98.375 C 94.840 97.028,92.558 95.223,91.528 94.363 C 89.278 92.484,89.059 92.447,89.401 94.005 M94.800 168.976 C 94.800 169.293,94.967 169.656,95.172 169.783 C 95.376 169.909,96.063 171.045,96.698 172.306 C 98.568 176.023,104.662 185.217,108.786 190.543 C 111.414 193.937,116.097 199.767,116.382 200.000 C 116.516 200.110,117.685 201.460,118.978 203.000 C 123.293 208.137,127.385 212.423,127.866 212.311 C 128.446 212.176,143.222 191.537,143.078 191.064 C 142.984 190.755,135.398 187.029,129.185 184.240 C 125.869 182.751,121.069 180.502,114.902 177.547 C 112.208 176.256,109.936 175.200,109.852 175.200 C 109.706 175.200,101.539 171.379,97.394 169.372 C 95.059 168.240,94.800 168.201,94.800 168.976 M250.210 190.789 C 249.577 191.451,249.158 192.091,249.280 192.213 C 249.699 192.632,252.429 191.048,252.314 190.452 C 252.116 189.433,251.399 189.548,250.210 190.789 M262.349 219.439 C 244.683 237.364,218.392 259.219,201.100 270.355 C 199.615 271.312,198.400 272.142,198.400 272.200 C 198.400 272.258,199.615 273.074,201.100 274.013 C 202.585 274.951,204.520 276.206,205.400 276.801 C 218.108 285.387,240.843 296.130,255.600 300.522 C 268.963 304.499,285.021 305.196,294.000 302.190 C 310.885 296.536,311.976 273.978,296.417 252.223 C 291.314 245.090,288.646 241.320,286.436 238.123 C 285.342 236.540,283.349 233.750,282.006 231.923 C 278.242 226.797,271.730 217.635,270.193 215.300 C 268.485 212.706,269.528 212.156,262.349 219.439 " stroke="none" fill="#0404b3" fill-rule="evenodd"></path></g></svg>